%TF.GenerationSoftware,KiCad,Pcbnew,10.0.5*%
%TF.CreationDate,2026-08-27T14:46:11+05:30*%
%TF.ProjectId,lora-v2,6c6f7261-2d76-4322-9e6b-696361645f70,rev?*%
%TF.SameCoordinates,Original*%
%TF.FileFunction,Profile,NP*%
%FSLAX46Y46*%
G04 Gerber Fmt 4.6, Leading zero omitted, Abs format (unit mm)*
G04 Created by KiCad (PCBNEW 10.0.5) date 2026-08-27 14:46:11*
%MOMM*%
%LPD*%
G01*
G04 APERTURE LIST*
%TA.AperFunction,Profile*%
%ADD10C,0.050000*%
%TD*%
G04 APERTURE END LIST*
D10*
X149000000Y-96500000D02*
G75*
G02*
X147000000Y-98500000I-2000000J0D01*
G01*
X180671573Y-83000000D02*
G75*
G02*
X182085800Y-83585772I27J-2000000D01*
G01*
X149414213Y-83585787D02*
G75*
G02*
X150828427Y-83000019I1414187J-1414213D01*
G01*
X197828427Y-98500000D02*
G75*
G02*
X196414199Y-97914227I-27J2000000D01*
G01*
X159000000Y-50500000D02*
G75*
G02*
X161000000Y-48500000I2000000J0D01*
G01*
X120000000Y-98500000D02*
G75*
G02*
X118000000Y-96500000I0J2000000D01*
G01*
X118000000Y-50500000D02*
G75*
G02*
X120000000Y-48500000I2000000J0D01*
G01*
X146000000Y-48500000D02*
G75*
G02*
X148000000Y-50500000I0J-2000000D01*
G01*
X159000000Y-51500000D02*
G75*
G02*
X157000000Y-53500000I-2000000J0D01*
G01*
X150000000Y-53500000D02*
G75*
G02*
X148000000Y-51500000I0J2000000D01*
G01*
X215000000Y-96500000D02*
G75*
G02*
X213000000Y-98500000I-2000000J0D01*
G01*
X213000000Y-48500000D02*
G75*
G02*
X215000000Y-50500000I0J-2000000D01*
G01*
X196414213Y-97914213D02*
X182085786Y-83585786D01*
X149000000Y-84000000D02*
X149000000Y-96500000D01*
X147000000Y-98500000D02*
X120000000Y-98500000D01*
X149414213Y-83585787D02*
X149000000Y-84000000D01*
X180671573Y-83000000D02*
X150828427Y-83000000D01*
X213000000Y-98500000D02*
X197828427Y-98500000D01*
X159000000Y-51500000D02*
X159000000Y-50500000D01*
X161000000Y-48500000D02*
X213000000Y-48500000D01*
X118000000Y-96500000D02*
X118000000Y-50500000D01*
X120000000Y-48500000D02*
X146000000Y-48500000D01*
X148000000Y-50500000D02*
X148000000Y-51500000D01*
X150000000Y-53500000D02*
X157000000Y-53500000D01*
X215000000Y-50500000D02*
X215000000Y-96500000D01*
M02*
