%TF.GenerationSoftware,KiCad,Pcbnew,10.0.5*%
%TF.CreationDate,2026-08-27T14:46:11+05:30*%
%TF.ProjectId,lora-v2,6c6f7261-2d76-4322-9e6b-696361645f70,rev?*%
%TF.SameCoordinates,Original*%
%TF.FileFunction,Copper,L2,Inr*%
%TF.FilePolarity,Positive*%
%FSLAX46Y46*%
G04 Gerber Fmt 4.6, Leading zero omitted, Abs format (unit mm)*
G04 Created by KiCad (PCBNEW 10.0.5) date 2026-08-27 14:46:11*
%MOMM*%
%LPD*%
G01*
G04 APERTURE LIST*
%TA.AperFunction,ComponentPad*%
%ADD10O,1.000000X1.800000*%
%TD*%
%TA.AperFunction,ComponentPad*%
%ADD11O,1.000000X2.100000*%
%TD*%
%TA.AperFunction,ComponentPad*%
%ADD12R,1.700000X1.700000*%
%TD*%
%TA.AperFunction,ComponentPad*%
%ADD13C,2.200000*%
%TD*%
%TA.AperFunction,ViaPad*%
%ADD14C,0.600000*%
%TD*%
G04 APERTURE END LIST*
D10*
%TO.N,Net-(J1-SHIELD)*%
%TO.C,J1*%
X149115000Y-55925000D03*
D11*
X149115000Y-60105000D03*
D10*
X157755000Y-55925000D03*
D11*
X157755000Y-60105000D03*
%TD*%
D12*
%TO.N,Net-(AE1-A)*%
%TO.C,AE1*%
X204800000Y-53587500D03*
%TD*%
D13*
%TO.N,Earth*%
%TO.C,SW2*%
X136890000Y-78420000D03*
%TO.N,/RUN*%
X130540000Y-80960000D03*
%TD*%
%TO.N,Earth*%
%TO.C,SW1*%
X136620000Y-58460000D03*
%TO.N,Net-(R7-Pad2)*%
X130270000Y-61000000D03*
%TD*%
D14*
%TO.N,Earth*%
X198500000Y-57000000D03*
X207650000Y-66650000D03*
X183000000Y-65000000D03*
X138270000Y-55500000D03*
X170000000Y-69500000D03*
X177593750Y-66593750D03*
X178000000Y-73500000D03*
X204520000Y-69260000D03*
X157500000Y-64500000D03*
X185000000Y-77500000D03*
X170000000Y-57000000D03*
X137770000Y-76000000D03*
X193000000Y-72000000D03*
X193500000Y-62000000D03*
X197500000Y-79000000D03*
X170000000Y-62000000D03*
%TO.N,+3V3*%
X178500000Y-56500000D03*
X173500000Y-65500000D03*
X201520000Y-70760000D03*
X190500000Y-77000000D03*
X192000000Y-64500000D03*
X204520000Y-70760000D03*
X192000000Y-78000000D03*
X192500000Y-56000000D03*
X178000000Y-70500000D03*
X193000000Y-67500000D03*
%TO.N,/SX_XTA*%
X174000000Y-66587500D03*
X174000000Y-67787500D03*
X173500000Y-64000000D03*
%TO.N,/SX_DIO2*%
X193500000Y-60000000D03*
X183000000Y-69000000D03*
%TO.N,/SX_BUSY*%
X182445023Y-68054977D03*
X183543553Y-67456447D03*
%TO.N,/XOUT*%
X193000000Y-65000000D03*
X196500000Y-67500000D03*
%TO.N,/QSPI_SS*%
X192500000Y-83500000D03*
X191500000Y-86000000D03*
%TO.N,VBUS*%
X156000000Y-58000000D03*
X159500000Y-58500000D03*
%TO.N,/RUN*%
X162000000Y-78500000D03*
X189500000Y-66500000D03*
%TO.N,/USB_DP*%
X152500000Y-63000000D03*
X154500000Y-63000000D03*
%TO.N,Net-(U1-USB_DP)*%
X157500000Y-69000000D03*
X156500000Y-70000000D03*
%TD*%
%TA.AperFunction,Conductor*%
%TO.N,Earth*%
G36*
X146004418Y-49000816D02*
G01*
X146204561Y-49015130D01*
X146222063Y-49017647D01*
X146413795Y-49059355D01*
X146430760Y-49064336D01*
X146614611Y-49132909D01*
X146630694Y-49140253D01*
X146747495Y-49204032D01*
X146802908Y-49234290D01*
X146817791Y-49243855D01*
X146974864Y-49361438D01*
X146988235Y-49373024D01*
X147126975Y-49511764D01*
X147138561Y-49525135D01*
X147256144Y-49682208D01*
X147265709Y-49697091D01*
X147359743Y-49869300D01*
X147367093Y-49885394D01*
X147435661Y-50069234D01*
X147440645Y-50086209D01*
X147482351Y-50277931D01*
X147484869Y-50295442D01*
X147499184Y-50495580D01*
X147499500Y-50504427D01*
X147499500Y-51434108D01*
X147499500Y-51500000D01*
X147499500Y-51651252D01*
X147535963Y-51951551D01*
X147578200Y-52122915D01*
X147608358Y-52245271D01*
X147698125Y-52481964D01*
X147715627Y-52528113D01*
X147856207Y-52795968D01*
X148028050Y-53044924D01*
X148028052Y-53044926D01*
X148028054Y-53044929D01*
X148228646Y-53271351D01*
X148228648Y-53271353D01*
X148455070Y-53471945D01*
X148455076Y-53471950D01*
X148704032Y-53643793D01*
X148971887Y-53784373D01*
X149167783Y-53858666D01*
X149254728Y-53891641D01*
X149254730Y-53891641D01*
X149254734Y-53891643D01*
X149548449Y-53964037D01*
X149799661Y-53994539D01*
X149848746Y-54000500D01*
X149848748Y-54000500D01*
X157151254Y-54000500D01*
X157196630Y-53994990D01*
X157451551Y-53964037D01*
X157745266Y-53891643D01*
X158028113Y-53784373D01*
X158295968Y-53643793D01*
X158544924Y-53471950D01*
X158771352Y-53271352D01*
X158971950Y-53044924D01*
X159143793Y-52795968D01*
X159199600Y-52689635D01*
X203449500Y-52689635D01*
X203449500Y-54485370D01*
X203449501Y-54485376D01*
X203455908Y-54544983D01*
X203506202Y-54679828D01*
X203506206Y-54679835D01*
X203592452Y-54795044D01*
X203592455Y-54795047D01*
X203707664Y-54881293D01*
X203707671Y-54881297D01*
X203842517Y-54931591D01*
X203842516Y-54931591D01*
X203849444Y-54932335D01*
X203902127Y-54938000D01*
X205697872Y-54937999D01*
X205757483Y-54931591D01*
X205892331Y-54881296D01*
X206007546Y-54795046D01*
X206093796Y-54679831D01*
X206144091Y-54544983D01*
X206150500Y-54485373D01*
X206150499Y-52689628D01*
X206144091Y-52630017D01*
X206143592Y-52628680D01*
X206093797Y-52495171D01*
X206093793Y-52495164D01*
X206007547Y-52379955D01*
X206007544Y-52379952D01*
X205892335Y-52293706D01*
X205892328Y-52293702D01*
X205757482Y-52243408D01*
X205757483Y-52243408D01*
X205697883Y-52237001D01*
X205697881Y-52237000D01*
X205697873Y-52237000D01*
X205697864Y-52237000D01*
X203902129Y-52237000D01*
X203902123Y-52237001D01*
X203842516Y-52243408D01*
X203707671Y-52293702D01*
X203707664Y-52293706D01*
X203592455Y-52379952D01*
X203592452Y-52379955D01*
X203506206Y-52495164D01*
X203506202Y-52495171D01*
X203455908Y-52630017D01*
X203449501Y-52689616D01*
X203449501Y-52689623D01*
X203449500Y-52689635D01*
X159199600Y-52689635D01*
X159284373Y-52528113D01*
X159391643Y-52245266D01*
X159464037Y-51951551D01*
X159500500Y-51651252D01*
X159500500Y-51500000D01*
X159500500Y-51434108D01*
X159500500Y-50504427D01*
X159500816Y-50495581D01*
X159515130Y-50295443D01*
X159515131Y-50295442D01*
X159515130Y-50295436D01*
X159517646Y-50277938D01*
X159559356Y-50086200D01*
X159564335Y-50069242D01*
X159632911Y-49885382D01*
X159640251Y-49869310D01*
X159734294Y-49697083D01*
X159743850Y-49682214D01*
X159861443Y-49525128D01*
X159873017Y-49511771D01*
X160011771Y-49373017D01*
X160025128Y-49361443D01*
X160182214Y-49243850D01*
X160197083Y-49234294D01*
X160369310Y-49140251D01*
X160385382Y-49132911D01*
X160569242Y-49064335D01*
X160586200Y-49059356D01*
X160777938Y-49017646D01*
X160795436Y-49015130D01*
X160995582Y-49000816D01*
X161004428Y-49000500D01*
X161065892Y-49000500D01*
X212934108Y-49000500D01*
X212995572Y-49000500D01*
X213004418Y-49000816D01*
X213204561Y-49015130D01*
X213222063Y-49017647D01*
X213413795Y-49059355D01*
X213430760Y-49064336D01*
X213614611Y-49132909D01*
X213630694Y-49140253D01*
X213747495Y-49204032D01*
X213802908Y-49234290D01*
X213817791Y-49243855D01*
X213974864Y-49361438D01*
X213988235Y-49373024D01*
X214126975Y-49511764D01*
X214138561Y-49525135D01*
X214256144Y-49682208D01*
X214265709Y-49697091D01*
X214359743Y-49869300D01*
X214367093Y-49885394D01*
X214435661Y-50069234D01*
X214440645Y-50086209D01*
X214482351Y-50277931D01*
X214484869Y-50295442D01*
X214499184Y-50495580D01*
X214499500Y-50504427D01*
X214499500Y-96495572D01*
X214499184Y-96504419D01*
X214484869Y-96704557D01*
X214482351Y-96722068D01*
X214440645Y-96913790D01*
X214435661Y-96930765D01*
X214367093Y-97114605D01*
X214359743Y-97130699D01*
X214265709Y-97302908D01*
X214256144Y-97317791D01*
X214138561Y-97474864D01*
X214126975Y-97488235D01*
X213988235Y-97626975D01*
X213974864Y-97638561D01*
X213817791Y-97756144D01*
X213802908Y-97765709D01*
X213630699Y-97859743D01*
X213614605Y-97867093D01*
X213430765Y-97935661D01*
X213413790Y-97940645D01*
X213222068Y-97982351D01*
X213204557Y-97984869D01*
X213023779Y-97997799D01*
X213004417Y-97999184D01*
X212995572Y-97999500D01*
X197832494Y-97999500D01*
X197824384Y-97999235D01*
X197640806Y-97987203D01*
X197624725Y-97985085D01*
X197448301Y-97949992D01*
X197432633Y-97945794D01*
X197402782Y-97935661D01*
X197262288Y-97887969D01*
X197247303Y-97881762D01*
X197085966Y-97802199D01*
X197071920Y-97794089D01*
X196922347Y-97694148D01*
X196909478Y-97684274D01*
X196857352Y-97638561D01*
X196771167Y-97562978D01*
X196765245Y-97557431D01*
X196717210Y-97509394D01*
X196717187Y-97509373D01*
X185128967Y-85921153D01*
X190699500Y-85921153D01*
X190699500Y-86078846D01*
X190730261Y-86233489D01*
X190730264Y-86233501D01*
X190790602Y-86379172D01*
X190790609Y-86379185D01*
X190878210Y-86510288D01*
X190878213Y-86510292D01*
X190989707Y-86621786D01*
X190989711Y-86621789D01*
X191120814Y-86709390D01*
X191120827Y-86709397D01*
X191266498Y-86769735D01*
X191266503Y-86769737D01*
X191421153Y-86800499D01*
X191421156Y-86800500D01*
X191421158Y-86800500D01*
X191578844Y-86800500D01*
X191578845Y-86800499D01*
X191733497Y-86769737D01*
X191879179Y-86709394D01*
X192010289Y-86621789D01*
X192121789Y-86510289D01*
X192209394Y-86379179D01*
X192269737Y-86233497D01*
X192300500Y-86078842D01*
X192300500Y-85921158D01*
X192300500Y-85921155D01*
X192300499Y-85921153D01*
X192269738Y-85766510D01*
X192269737Y-85766503D01*
X192238255Y-85690498D01*
X192209397Y-85620827D01*
X192209390Y-85620814D01*
X192121789Y-85489711D01*
X192121786Y-85489707D01*
X192010292Y-85378213D01*
X192010288Y-85378210D01*
X191879185Y-85290609D01*
X191879172Y-85290602D01*
X191733501Y-85230264D01*
X191733489Y-85230261D01*
X191578845Y-85199500D01*
X191578842Y-85199500D01*
X191421158Y-85199500D01*
X191421155Y-85199500D01*
X191266510Y-85230261D01*
X191266498Y-85230264D01*
X191120827Y-85290602D01*
X191120814Y-85290609D01*
X190989711Y-85378210D01*
X190989707Y-85378213D01*
X190878213Y-85489707D01*
X190878210Y-85489711D01*
X190790609Y-85620814D01*
X190790602Y-85620827D01*
X190730264Y-85766498D01*
X190730261Y-85766510D01*
X190699500Y-85921153D01*
X185128967Y-85921153D01*
X182628967Y-83421153D01*
X191699500Y-83421153D01*
X191699500Y-83578846D01*
X191730261Y-83733489D01*
X191730264Y-83733501D01*
X191790602Y-83879172D01*
X191790609Y-83879185D01*
X191878210Y-84010288D01*
X191878213Y-84010292D01*
X191989707Y-84121786D01*
X191989711Y-84121789D01*
X192120814Y-84209390D01*
X192120827Y-84209397D01*
X192266498Y-84269735D01*
X192266503Y-84269737D01*
X192421153Y-84300499D01*
X192421156Y-84300500D01*
X192421158Y-84300500D01*
X192578844Y-84300500D01*
X192578845Y-84300499D01*
X192733497Y-84269737D01*
X192879179Y-84209394D01*
X193010289Y-84121789D01*
X193121789Y-84010289D01*
X193209394Y-83879179D01*
X193269737Y-83733497D01*
X193300500Y-83578842D01*
X193300500Y-83421158D01*
X193300500Y-83421155D01*
X193300499Y-83421153D01*
X193287622Y-83356417D01*
X193269737Y-83266503D01*
X193255393Y-83231873D01*
X193209397Y-83120827D01*
X193209390Y-83120814D01*
X193121789Y-82989711D01*
X193121786Y-82989707D01*
X193010292Y-82878213D01*
X193010288Y-82878210D01*
X192879185Y-82790609D01*
X192879172Y-82790602D01*
X192733501Y-82730264D01*
X192733489Y-82730261D01*
X192578845Y-82699500D01*
X192578842Y-82699500D01*
X192421158Y-82699500D01*
X192421155Y-82699500D01*
X192266510Y-82730261D01*
X192266498Y-82730264D01*
X192120827Y-82790602D01*
X192120814Y-82790609D01*
X191989711Y-82878210D01*
X191989707Y-82878213D01*
X191878213Y-82989707D01*
X191878210Y-82989711D01*
X191790609Y-83120814D01*
X191790602Y-83120827D01*
X191730264Y-83266498D01*
X191730261Y-83266510D01*
X191699500Y-83421153D01*
X182628967Y-83421153D01*
X182340396Y-83132582D01*
X182264100Y-83071738D01*
X182120820Y-82957476D01*
X181883017Y-82808055D01*
X181883014Y-82808053D01*
X181629987Y-82686202D01*
X181629973Y-82686196D01*
X181364902Y-82593443D01*
X181364890Y-82593439D01*
X181091085Y-82530945D01*
X181091067Y-82530942D01*
X180812004Y-82499500D01*
X180811998Y-82499500D01*
X180737465Y-82499500D01*
X150902960Y-82499500D01*
X150902931Y-82499498D01*
X150894308Y-82499498D01*
X150828423Y-82499499D01*
X150828415Y-82499500D01*
X150757429Y-82499500D01*
X150757401Y-82499501D01*
X150687989Y-82499502D01*
X150687988Y-82499502D01*
X150408920Y-82530950D01*
X150135117Y-82593446D01*
X150135109Y-82593448D01*
X150135108Y-82593449D01*
X149870022Y-82686207D01*
X149870018Y-82686208D01*
X149870012Y-82686211D01*
X149870006Y-82686213D01*
X149616993Y-82808057D01*
X149616985Y-82808062D01*
X149379193Y-82957475D01*
X149379182Y-82957482D01*
X149159611Y-83132578D01*
X149159606Y-83132582D01*
X149110015Y-83182170D01*
X149110010Y-83182175D01*
X149060317Y-83231869D01*
X149060314Y-83231872D01*
X149033700Y-83258484D01*
X149010624Y-83281559D01*
X149010595Y-83281589D01*
X148692686Y-83599500D01*
X148599502Y-83692683D01*
X148599500Y-83692686D01*
X148533608Y-83806812D01*
X148499500Y-83934108D01*
X148499500Y-96495572D01*
X148499184Y-96504419D01*
X148484869Y-96704557D01*
X148482351Y-96722068D01*
X148440645Y-96913790D01*
X148435661Y-96930765D01*
X148367093Y-97114605D01*
X148359743Y-97130699D01*
X148265709Y-97302908D01*
X148256144Y-97317791D01*
X148138561Y-97474864D01*
X148126975Y-97488235D01*
X147988235Y-97626975D01*
X147974864Y-97638561D01*
X147817791Y-97756144D01*
X147802908Y-97765709D01*
X147630699Y-97859743D01*
X147614605Y-97867093D01*
X147430765Y-97935661D01*
X147413790Y-97940645D01*
X147222068Y-97982351D01*
X147204557Y-97984869D01*
X147023779Y-97997799D01*
X147004417Y-97999184D01*
X146995572Y-97999500D01*
X120004428Y-97999500D01*
X119995582Y-97999184D01*
X119973622Y-97997613D01*
X119795442Y-97984869D01*
X119777931Y-97982351D01*
X119586209Y-97940645D01*
X119569234Y-97935661D01*
X119385394Y-97867093D01*
X119369300Y-97859743D01*
X119197091Y-97765709D01*
X119182208Y-97756144D01*
X119025135Y-97638561D01*
X119011764Y-97626975D01*
X118873024Y-97488235D01*
X118861438Y-97474864D01*
X118743855Y-97317791D01*
X118734290Y-97302908D01*
X118640256Y-97130699D01*
X118632909Y-97114611D01*
X118564336Y-96930760D01*
X118559354Y-96913790D01*
X118517648Y-96722068D01*
X118515130Y-96704556D01*
X118500816Y-96504418D01*
X118500500Y-96495572D01*
X118500500Y-83397515D01*
X128229500Y-83397515D01*
X128229500Y-83602484D01*
X128255560Y-83733497D01*
X128269485Y-83803503D01*
X128283972Y-83838478D01*
X128347918Y-83992859D01*
X128461790Y-84163279D01*
X128461793Y-84163283D01*
X128606716Y-84308206D01*
X128606720Y-84308209D01*
X128777138Y-84422080D01*
X128966497Y-84500515D01*
X129167515Y-84540499D01*
X129167519Y-84540500D01*
X129167520Y-84540500D01*
X129372481Y-84540500D01*
X129372482Y-84540499D01*
X129573503Y-84500515D01*
X129762862Y-84422080D01*
X129933280Y-84308209D01*
X130078209Y-84163280D01*
X130192080Y-83992862D01*
X130270515Y-83803503D01*
X130310500Y-83602480D01*
X130310500Y-83397520D01*
X130302327Y-83356433D01*
X132159500Y-83356433D01*
X132159500Y-83643566D01*
X132159501Y-83643582D01*
X132196979Y-83928260D01*
X132271298Y-84205622D01*
X132381179Y-84470900D01*
X132381186Y-84470915D01*
X132524757Y-84719587D01*
X132699559Y-84947394D01*
X132699565Y-84947401D01*
X132902598Y-85150434D01*
X132902605Y-85150440D01*
X133130412Y-85325242D01*
X133379084Y-85468813D01*
X133379099Y-85468820D01*
X133429535Y-85489711D01*
X133644376Y-85578701D01*
X133921738Y-85653020D01*
X134206427Y-85690500D01*
X134206434Y-85690500D01*
X134493566Y-85690500D01*
X134493573Y-85690500D01*
X134778262Y-85653020D01*
X135055624Y-85578701D01*
X135320912Y-85468815D01*
X135569588Y-85325242D01*
X135797396Y-85150439D01*
X136000439Y-84947396D01*
X136175242Y-84719588D01*
X136318815Y-84470912D01*
X136428701Y-84205624D01*
X136503020Y-83928262D01*
X136540500Y-83643573D01*
X136540500Y-83397515D01*
X138389500Y-83397515D01*
X138389500Y-83602484D01*
X138415560Y-83733497D01*
X138429485Y-83803503D01*
X138443972Y-83838478D01*
X138507918Y-83992859D01*
X138621790Y-84163279D01*
X138621793Y-84163283D01*
X138766716Y-84308206D01*
X138766720Y-84308209D01*
X138937138Y-84422080D01*
X139126497Y-84500515D01*
X139327515Y-84540499D01*
X139327519Y-84540500D01*
X139327520Y-84540500D01*
X139532481Y-84540500D01*
X139532482Y-84540499D01*
X139733503Y-84500515D01*
X139922862Y-84422080D01*
X140093280Y-84308209D01*
X140238209Y-84163280D01*
X140352080Y-83992862D01*
X140430515Y-83803503D01*
X140470500Y-83602480D01*
X140470500Y-83397520D01*
X140430515Y-83196497D01*
X140352080Y-83007138D01*
X140238209Y-82836720D01*
X140238206Y-82836716D01*
X140093283Y-82691793D01*
X140093279Y-82691790D01*
X139922859Y-82577918D01*
X139733544Y-82499502D01*
X139733503Y-82499485D01*
X139733499Y-82499484D01*
X139733495Y-82499483D01*
X139532484Y-82459500D01*
X139532480Y-82459500D01*
X139327520Y-82459500D01*
X139327515Y-82459500D01*
X139126504Y-82499483D01*
X139126494Y-82499486D01*
X138937140Y-82577918D01*
X138766720Y-82691790D01*
X138766716Y-82691793D01*
X138621793Y-82836716D01*
X138621790Y-82836720D01*
X138507918Y-83007140D01*
X138429486Y-83196494D01*
X138429483Y-83196504D01*
X138389500Y-83397515D01*
X136540500Y-83397515D01*
X136540500Y-83356427D01*
X136503020Y-83071738D01*
X136428701Y-82794376D01*
X136345472Y-82593443D01*
X136318820Y-82529099D01*
X136318813Y-82529084D01*
X136175242Y-82280412D01*
X136000440Y-82052605D01*
X136000434Y-82052598D01*
X135797401Y-81849565D01*
X135797394Y-81849559D01*
X135569587Y-81674757D01*
X135320915Y-81531186D01*
X135320900Y-81531179D01*
X135055622Y-81421298D01*
X134778260Y-81346979D01*
X134493582Y-81309501D01*
X134493579Y-81309500D01*
X134493573Y-81309500D01*
X134206427Y-81309500D01*
X134206421Y-81309500D01*
X134206417Y-81309501D01*
X133921739Y-81346979D01*
X133644377Y-81421298D01*
X133379099Y-81531179D01*
X133379084Y-81531186D01*
X133130412Y-81674757D01*
X132902605Y-81849559D01*
X132902598Y-81849565D01*
X132699565Y-82052598D01*
X132699559Y-82052605D01*
X132524757Y-82280412D01*
X132381186Y-82529084D01*
X132381179Y-82529099D01*
X132271298Y-82794377D01*
X132196979Y-83071739D01*
X132159501Y-83356417D01*
X132159500Y-83356433D01*
X130302327Y-83356433D01*
X130284439Y-83266498D01*
X130270515Y-83196497D01*
X130192080Y-83007138D01*
X130078209Y-82836720D01*
X130078206Y-82836716D01*
X129934007Y-82692517D01*
X129900522Y-82631194D01*
X129905506Y-82561502D01*
X129947378Y-82505569D01*
X130012842Y-82481152D01*
X130060003Y-82486904D01*
X130133851Y-82510899D01*
X130165214Y-82521090D01*
X130289626Y-82540795D01*
X130414038Y-82560500D01*
X130414039Y-82560500D01*
X130665961Y-82560500D01*
X130665962Y-82560500D01*
X130914785Y-82521090D01*
X131154379Y-82443241D01*
X131378845Y-82328870D01*
X131582656Y-82180793D01*
X131760793Y-82002656D01*
X131908870Y-81798845D01*
X132023241Y-81574379D01*
X132101090Y-81334785D01*
X132140500Y-81085962D01*
X132140500Y-80834038D01*
X132101090Y-80585215D01*
X132023241Y-80345621D01*
X132023239Y-80345618D01*
X132023239Y-80345616D01*
X131981747Y-80264184D01*
X131908870Y-80121155D01*
X131806753Y-79980602D01*
X131760798Y-79917350D01*
X131760794Y-79917345D01*
X131582654Y-79739205D01*
X131582649Y-79739201D01*
X131378848Y-79591132D01*
X131378847Y-79591131D01*
X131378845Y-79591130D01*
X131308747Y-79555413D01*
X131154383Y-79476760D01*
X130914785Y-79398910D01*
X130665962Y-79359500D01*
X130414038Y-79359500D01*
X130289626Y-79379205D01*
X130165214Y-79398910D01*
X129925616Y-79476760D01*
X129701151Y-79591132D01*
X129497350Y-79739201D01*
X129497345Y-79739205D01*
X129319205Y-79917345D01*
X129319201Y-79917350D01*
X129171132Y-80121151D01*
X129056760Y-80345616D01*
X128978910Y-80585214D01*
X128939500Y-80834038D01*
X128939500Y-81085961D01*
X128978910Y-81334785D01*
X129056760Y-81574383D01*
X129171132Y-81798848D01*
X129319201Y-82002649D01*
X129319205Y-82002654D01*
X129497345Y-82180794D01*
X129497350Y-82180798D01*
X129615414Y-82266577D01*
X129658080Y-82321907D01*
X129664059Y-82391520D01*
X129631453Y-82453315D01*
X129570615Y-82487672D01*
X129518338Y-82488512D01*
X129372484Y-82459500D01*
X129372480Y-82459500D01*
X129167520Y-82459500D01*
X129167515Y-82459500D01*
X128966504Y-82499483D01*
X128966494Y-82499486D01*
X128777140Y-82577918D01*
X128606720Y-82691790D01*
X128606716Y-82691793D01*
X128461793Y-82836716D01*
X128461790Y-82836720D01*
X128347918Y-83007140D01*
X128269486Y-83196494D01*
X128269483Y-83196504D01*
X128229500Y-83397515D01*
X118500500Y-83397515D01*
X118500500Y-78294071D01*
X135290000Y-78294071D01*
X135290000Y-78545928D01*
X135329397Y-78794669D01*
X135407219Y-79034184D01*
X135521557Y-79258583D01*
X135595748Y-79360697D01*
X135595748Y-79360698D01*
X136212421Y-78744024D01*
X136225359Y-78775258D01*
X136307437Y-78898097D01*
X136411903Y-79002563D01*
X136534742Y-79084641D01*
X136565974Y-79097577D01*
X135949300Y-79714250D01*
X136051416Y-79788442D01*
X136275815Y-79902780D01*
X136515330Y-79980602D01*
X136764072Y-80020000D01*
X137015928Y-80020000D01*
X137264669Y-79980602D01*
X137504184Y-79902780D01*
X137728575Y-79788446D01*
X137728581Y-79788442D01*
X137830697Y-79714250D01*
X137830698Y-79714250D01*
X137214025Y-79097578D01*
X137245258Y-79084641D01*
X137368097Y-79002563D01*
X137472563Y-78898097D01*
X137554641Y-78775258D01*
X137567578Y-78744025D01*
X138184250Y-79360698D01*
X138184250Y-79360697D01*
X138258442Y-79258581D01*
X138258446Y-79258575D01*
X138372780Y-79034184D01*
X138450602Y-78794669D01*
X138490000Y-78545928D01*
X138490000Y-78421153D01*
X161199500Y-78421153D01*
X161199500Y-78578846D01*
X161230261Y-78733489D01*
X161230264Y-78733501D01*
X161290602Y-78879172D01*
X161290609Y-78879185D01*
X161378210Y-79010288D01*
X161378213Y-79010292D01*
X161489707Y-79121786D01*
X161489711Y-79121789D01*
X161620814Y-79209390D01*
X161620827Y-79209397D01*
X161766498Y-79269735D01*
X161766503Y-79269737D01*
X161921153Y-79300499D01*
X161921156Y-79300500D01*
X161921158Y-79300500D01*
X162078844Y-79300500D01*
X162078845Y-79300499D01*
X162233497Y-79269737D01*
X162379179Y-79209394D01*
X162510289Y-79121789D01*
X162621789Y-79010289D01*
X162709394Y-78879179D01*
X162769737Y-78733497D01*
X162800500Y-78578842D01*
X162800500Y-78421158D01*
X162800500Y-78421155D01*
X162800499Y-78421153D01*
X162785576Y-78346131D01*
X162769737Y-78266503D01*
X162756062Y-78233489D01*
X162709397Y-78120827D01*
X162709390Y-78120814D01*
X162621789Y-77989711D01*
X162621786Y-77989707D01*
X162510292Y-77878213D01*
X162510288Y-77878210D01*
X162379185Y-77790609D01*
X162379172Y-77790602D01*
X162233501Y-77730264D01*
X162233489Y-77730261D01*
X162078845Y-77699500D01*
X162078842Y-77699500D01*
X161921158Y-77699500D01*
X161921155Y-77699500D01*
X161766510Y-77730261D01*
X161766498Y-77730264D01*
X161620827Y-77790602D01*
X161620814Y-77790609D01*
X161489711Y-77878210D01*
X161489707Y-77878213D01*
X161378213Y-77989707D01*
X161378210Y-77989711D01*
X161290609Y-78120814D01*
X161290602Y-78120827D01*
X161230264Y-78266498D01*
X161230261Y-78266510D01*
X161199500Y-78421153D01*
X138490000Y-78421153D01*
X138490000Y-78294071D01*
X138450602Y-78045330D01*
X138372780Y-77805815D01*
X138258442Y-77581416D01*
X138184250Y-77479301D01*
X138184250Y-77479300D01*
X137567577Y-78095973D01*
X137554641Y-78064742D01*
X137472563Y-77941903D01*
X137368097Y-77837437D01*
X137245258Y-77755359D01*
X137214024Y-77742421D01*
X137830698Y-77125748D01*
X137728583Y-77051557D01*
X137677543Y-77025551D01*
X137504184Y-76937219D01*
X137454737Y-76921153D01*
X189699500Y-76921153D01*
X189699500Y-77078846D01*
X189730261Y-77233489D01*
X189730264Y-77233501D01*
X189790602Y-77379172D01*
X189790609Y-77379185D01*
X189878210Y-77510288D01*
X189878213Y-77510292D01*
X189989707Y-77621786D01*
X189989711Y-77621789D01*
X190120814Y-77709390D01*
X190120827Y-77709397D01*
X190231791Y-77755359D01*
X190266503Y-77769737D01*
X190421153Y-77800499D01*
X190421156Y-77800500D01*
X190421158Y-77800500D01*
X190578844Y-77800500D01*
X190578845Y-77800499D01*
X190733497Y-77769737D01*
X190879179Y-77709394D01*
X191010289Y-77621789D01*
X191047331Y-77584747D01*
X191108653Y-77551261D01*
X191178345Y-77556245D01*
X191234279Y-77598115D01*
X191258697Y-77663579D01*
X191249575Y-77719878D01*
X191230263Y-77766502D01*
X191230261Y-77766510D01*
X191199500Y-77921153D01*
X191199500Y-78078846D01*
X191230261Y-78233489D01*
X191230264Y-78233501D01*
X191290602Y-78379172D01*
X191290609Y-78379185D01*
X191378210Y-78510288D01*
X191378213Y-78510292D01*
X191489707Y-78621786D01*
X191489711Y-78621789D01*
X191620814Y-78709390D01*
X191620827Y-78709397D01*
X191766498Y-78769735D01*
X191766503Y-78769737D01*
X191891844Y-78794669D01*
X191921153Y-78800499D01*
X191921156Y-78800500D01*
X191921158Y-78800500D01*
X192078844Y-78800500D01*
X192078845Y-78800499D01*
X192233497Y-78769737D01*
X192379179Y-78709394D01*
X192510289Y-78621789D01*
X192621789Y-78510289D01*
X192709394Y-78379179D01*
X192769737Y-78233497D01*
X192800500Y-78078842D01*
X192800500Y-77921158D01*
X192800500Y-77921155D01*
X192800499Y-77921153D01*
X192783847Y-77837437D01*
X192769737Y-77766503D01*
X192765121Y-77755359D01*
X192709397Y-77620827D01*
X192709390Y-77620814D01*
X192621789Y-77489711D01*
X192621786Y-77489707D01*
X192510292Y-77378213D01*
X192510288Y-77378210D01*
X192379185Y-77290609D01*
X192379172Y-77290602D01*
X192233501Y-77230264D01*
X192233489Y-77230261D01*
X192078845Y-77199500D01*
X192078842Y-77199500D01*
X191921158Y-77199500D01*
X191921155Y-77199500D01*
X191766510Y-77230261D01*
X191766498Y-77230264D01*
X191620827Y-77290602D01*
X191620814Y-77290609D01*
X191489711Y-77378210D01*
X191489706Y-77378214D01*
X191452666Y-77415254D01*
X191391343Y-77448739D01*
X191321651Y-77443753D01*
X191265718Y-77401881D01*
X191241302Y-77336417D01*
X191250424Y-77280121D01*
X191269737Y-77233497D01*
X191300500Y-77078842D01*
X191300500Y-76921158D01*
X191300500Y-76921155D01*
X191300499Y-76921153D01*
X191269738Y-76766510D01*
X191269737Y-76766503D01*
X191269735Y-76766498D01*
X191209397Y-76620827D01*
X191209390Y-76620814D01*
X191121789Y-76489711D01*
X191121786Y-76489707D01*
X191010292Y-76378213D01*
X191010288Y-76378210D01*
X190879185Y-76290609D01*
X190879172Y-76290602D01*
X190733501Y-76230264D01*
X190733489Y-76230261D01*
X190578845Y-76199500D01*
X190578842Y-76199500D01*
X190421158Y-76199500D01*
X190421155Y-76199500D01*
X190266510Y-76230261D01*
X190266498Y-76230264D01*
X190120827Y-76290602D01*
X190120814Y-76290609D01*
X189989711Y-76378210D01*
X189989707Y-76378213D01*
X189878213Y-76489707D01*
X189878210Y-76489711D01*
X189790609Y-76620814D01*
X189790602Y-76620827D01*
X189730264Y-76766498D01*
X189730261Y-76766510D01*
X189699500Y-76921153D01*
X137454737Y-76921153D01*
X137264669Y-76859397D01*
X137015928Y-76820000D01*
X136764072Y-76820000D01*
X136515330Y-76859397D01*
X136275815Y-76937219D01*
X136051413Y-77051559D01*
X135949301Y-77125747D01*
X135949300Y-77125748D01*
X136565974Y-77742421D01*
X136534742Y-77755359D01*
X136411903Y-77837437D01*
X136307437Y-77941903D01*
X136225359Y-78064742D01*
X136212421Y-78095974D01*
X135595748Y-77479300D01*
X135595747Y-77479301D01*
X135521559Y-77581413D01*
X135407219Y-77805815D01*
X135329397Y-78045330D01*
X135290000Y-78294071D01*
X118500500Y-78294071D01*
X118500500Y-69921153D01*
X155699500Y-69921153D01*
X155699500Y-70078846D01*
X155730261Y-70233489D01*
X155730264Y-70233501D01*
X155790602Y-70379172D01*
X155790609Y-70379185D01*
X155878210Y-70510288D01*
X155878213Y-70510292D01*
X155989707Y-70621786D01*
X155989711Y-70621789D01*
X156120814Y-70709390D01*
X156120827Y-70709397D01*
X156266498Y-70769735D01*
X156266503Y-70769737D01*
X156421153Y-70800499D01*
X156421156Y-70800500D01*
X156421158Y-70800500D01*
X156578844Y-70800500D01*
X156578845Y-70800499D01*
X156733497Y-70769737D01*
X156879179Y-70709394D01*
X157010289Y-70621789D01*
X157121789Y-70510289D01*
X157181348Y-70421153D01*
X177199500Y-70421153D01*
X177199500Y-70578846D01*
X177230261Y-70733489D01*
X177230264Y-70733501D01*
X177290602Y-70879172D01*
X177290609Y-70879185D01*
X177378210Y-71010288D01*
X177378213Y-71010292D01*
X177489707Y-71121786D01*
X177489711Y-71121789D01*
X177620814Y-71209390D01*
X177620827Y-71209397D01*
X177766498Y-71269735D01*
X177766503Y-71269737D01*
X177921153Y-71300499D01*
X177921156Y-71300500D01*
X177921158Y-71300500D01*
X178078844Y-71300500D01*
X178078845Y-71300499D01*
X178233497Y-71269737D01*
X178379179Y-71209394D01*
X178510289Y-71121789D01*
X178621789Y-71010289D01*
X178709394Y-70879179D01*
X178769737Y-70733497D01*
X178780149Y-70681153D01*
X200719500Y-70681153D01*
X200719500Y-70838846D01*
X200750261Y-70993489D01*
X200750264Y-70993501D01*
X200810602Y-71139172D01*
X200810609Y-71139185D01*
X200898210Y-71270288D01*
X200898213Y-71270292D01*
X201009707Y-71381786D01*
X201009711Y-71381789D01*
X201140814Y-71469390D01*
X201140827Y-71469397D01*
X201286498Y-71529735D01*
X201286503Y-71529737D01*
X201441153Y-71560499D01*
X201441156Y-71560500D01*
X201441158Y-71560500D01*
X201598844Y-71560500D01*
X201598845Y-71560499D01*
X201753497Y-71529737D01*
X201899179Y-71469394D01*
X202030289Y-71381789D01*
X202141789Y-71270289D01*
X202229394Y-71139179D01*
X202289737Y-70993497D01*
X202320500Y-70838842D01*
X202320500Y-70681158D01*
X202320500Y-70681155D01*
X202320499Y-70681153D01*
X203719500Y-70681153D01*
X203719500Y-70838846D01*
X203750261Y-70993489D01*
X203750264Y-70993501D01*
X203810602Y-71139172D01*
X203810609Y-71139185D01*
X203898210Y-71270288D01*
X203898213Y-71270292D01*
X204009707Y-71381786D01*
X204009711Y-71381789D01*
X204140814Y-71469390D01*
X204140827Y-71469397D01*
X204286498Y-71529735D01*
X204286503Y-71529737D01*
X204441153Y-71560499D01*
X204441156Y-71560500D01*
X204441158Y-71560500D01*
X204598844Y-71560500D01*
X204598845Y-71560499D01*
X204753497Y-71529737D01*
X204899179Y-71469394D01*
X205030289Y-71381789D01*
X205141789Y-71270289D01*
X205229394Y-71139179D01*
X205289737Y-70993497D01*
X205320500Y-70838842D01*
X205320500Y-70681158D01*
X205320500Y-70681155D01*
X205320499Y-70681153D01*
X205308690Y-70621786D01*
X205289737Y-70526503D01*
X205246100Y-70421153D01*
X205229397Y-70380827D01*
X205229390Y-70380814D01*
X205141789Y-70249711D01*
X205141786Y-70249707D01*
X205030292Y-70138213D01*
X205030288Y-70138210D01*
X204899185Y-70050609D01*
X204899172Y-70050602D01*
X204753501Y-69990264D01*
X204753489Y-69990261D01*
X204598845Y-69959500D01*
X204598842Y-69959500D01*
X204441158Y-69959500D01*
X204441155Y-69959500D01*
X204286510Y-69990261D01*
X204286498Y-69990264D01*
X204140827Y-70050602D01*
X204140814Y-70050609D01*
X204009711Y-70138210D01*
X204009707Y-70138213D01*
X203898213Y-70249707D01*
X203898210Y-70249711D01*
X203810609Y-70380814D01*
X203810602Y-70380827D01*
X203750264Y-70526498D01*
X203750261Y-70526510D01*
X203719500Y-70681153D01*
X202320499Y-70681153D01*
X202308690Y-70621786D01*
X202289737Y-70526503D01*
X202246100Y-70421153D01*
X202229397Y-70380827D01*
X202229390Y-70380814D01*
X202141789Y-70249711D01*
X202141786Y-70249707D01*
X202030292Y-70138213D01*
X202030288Y-70138210D01*
X201899185Y-70050609D01*
X201899172Y-70050602D01*
X201753501Y-69990264D01*
X201753489Y-69990261D01*
X201598845Y-69959500D01*
X201598842Y-69959500D01*
X201441158Y-69959500D01*
X201441155Y-69959500D01*
X201286510Y-69990261D01*
X201286498Y-69990264D01*
X201140827Y-70050602D01*
X201140814Y-70050609D01*
X201009711Y-70138210D01*
X201009707Y-70138213D01*
X200898213Y-70249707D01*
X200898210Y-70249711D01*
X200810609Y-70380814D01*
X200810602Y-70380827D01*
X200750264Y-70526498D01*
X200750261Y-70526510D01*
X200719500Y-70681153D01*
X178780149Y-70681153D01*
X178786172Y-70650874D01*
X178800500Y-70578844D01*
X178800500Y-70421155D01*
X178800499Y-70421153D01*
X178769738Y-70266510D01*
X178769737Y-70266503D01*
X178716598Y-70138213D01*
X178709397Y-70120827D01*
X178709390Y-70120814D01*
X178621789Y-69989711D01*
X178621786Y-69989707D01*
X178510292Y-69878213D01*
X178510288Y-69878210D01*
X178379185Y-69790609D01*
X178379172Y-69790602D01*
X178233501Y-69730264D01*
X178233489Y-69730261D01*
X178078845Y-69699500D01*
X178078842Y-69699500D01*
X177921158Y-69699500D01*
X177921155Y-69699500D01*
X177766510Y-69730261D01*
X177766498Y-69730264D01*
X177620827Y-69790602D01*
X177620814Y-69790609D01*
X177489711Y-69878210D01*
X177489707Y-69878213D01*
X177378213Y-69989707D01*
X177378210Y-69989711D01*
X177290609Y-70120814D01*
X177290602Y-70120827D01*
X177230264Y-70266498D01*
X177230261Y-70266510D01*
X177199500Y-70421153D01*
X157181348Y-70421153D01*
X157209394Y-70379179D01*
X157269737Y-70233497D01*
X157300500Y-70078842D01*
X157300500Y-69924500D01*
X157320185Y-69857461D01*
X157372989Y-69811706D01*
X157424500Y-69800500D01*
X157578844Y-69800500D01*
X157578845Y-69800499D01*
X157733497Y-69769737D01*
X157879179Y-69709394D01*
X158010289Y-69621789D01*
X158121789Y-69510289D01*
X158209394Y-69379179D01*
X158269737Y-69233497D01*
X158300500Y-69078842D01*
X158300500Y-68921158D01*
X158300500Y-68921155D01*
X158300499Y-68921153D01*
X158269738Y-68766510D01*
X158269737Y-68766503D01*
X158232566Y-68676763D01*
X158209397Y-68620827D01*
X158209390Y-68620814D01*
X158121789Y-68489711D01*
X158121786Y-68489707D01*
X158010292Y-68378213D01*
X158010288Y-68378210D01*
X157879185Y-68290609D01*
X157879172Y-68290602D01*
X157733501Y-68230264D01*
X157733489Y-68230261D01*
X157578845Y-68199500D01*
X157578842Y-68199500D01*
X157421158Y-68199500D01*
X157421155Y-68199500D01*
X157266510Y-68230261D01*
X157266498Y-68230264D01*
X157120827Y-68290602D01*
X157120814Y-68290609D01*
X156989711Y-68378210D01*
X156989707Y-68378213D01*
X156878213Y-68489707D01*
X156878210Y-68489711D01*
X156790609Y-68620814D01*
X156790602Y-68620827D01*
X156730264Y-68766498D01*
X156730261Y-68766510D01*
X156699500Y-68921153D01*
X156699500Y-69075500D01*
X156679815Y-69142539D01*
X156627011Y-69188294D01*
X156575500Y-69199500D01*
X156421155Y-69199500D01*
X156266510Y-69230261D01*
X156266498Y-69230264D01*
X156120827Y-69290602D01*
X156120814Y-69290609D01*
X155989711Y-69378210D01*
X155989707Y-69378213D01*
X155878213Y-69489707D01*
X155878210Y-69489711D01*
X155790609Y-69620814D01*
X155790602Y-69620827D01*
X155730264Y-69766498D01*
X155730261Y-69766510D01*
X155699500Y-69921153D01*
X118500500Y-69921153D01*
X118500500Y-63437515D01*
X127959500Y-63437515D01*
X127959500Y-63642484D01*
X127999483Y-63843495D01*
X127999486Y-63843505D01*
X128077918Y-64032859D01*
X128191790Y-64203279D01*
X128191793Y-64203283D01*
X128336716Y-64348206D01*
X128336720Y-64348209D01*
X128507138Y-64462080D01*
X128696497Y-64540515D01*
X128889205Y-64578846D01*
X128897515Y-64580499D01*
X128897519Y-64580500D01*
X128897520Y-64580500D01*
X129102481Y-64580500D01*
X129102482Y-64580499D01*
X129303503Y-64540515D01*
X129492862Y-64462080D01*
X129663280Y-64348209D01*
X129808209Y-64203280D01*
X129922080Y-64032862D01*
X130000515Y-63843503D01*
X130040500Y-63642480D01*
X130040500Y-63437520D01*
X130032327Y-63396433D01*
X131889500Y-63396433D01*
X131889500Y-63683566D01*
X131889501Y-63683582D01*
X131926979Y-63968260D01*
X132001298Y-64245622D01*
X132111179Y-64510900D01*
X132111186Y-64510915D01*
X132254757Y-64759587D01*
X132429559Y-64987394D01*
X132429565Y-64987401D01*
X132632598Y-65190434D01*
X132632605Y-65190440D01*
X132860412Y-65365242D01*
X133109084Y-65508813D01*
X133109099Y-65508820D01*
X133246288Y-65565645D01*
X133374376Y-65618701D01*
X133651738Y-65693020D01*
X133936427Y-65730500D01*
X133936434Y-65730500D01*
X134223566Y-65730500D01*
X134223573Y-65730500D01*
X134508262Y-65693020D01*
X134785624Y-65618701D01*
X135050912Y-65508815D01*
X135299588Y-65365242D01*
X135527396Y-65190439D01*
X135730439Y-64987396D01*
X135905242Y-64759588D01*
X136048815Y-64510912D01*
X136158701Y-64245624D01*
X136233020Y-63968262D01*
X136270500Y-63683573D01*
X136270500Y-63437515D01*
X138119500Y-63437515D01*
X138119500Y-63642484D01*
X138159483Y-63843495D01*
X138159486Y-63843505D01*
X138237918Y-64032859D01*
X138351790Y-64203279D01*
X138351793Y-64203283D01*
X138496716Y-64348206D01*
X138496720Y-64348209D01*
X138667138Y-64462080D01*
X138856497Y-64540515D01*
X139049205Y-64578846D01*
X139057515Y-64580499D01*
X139057519Y-64580500D01*
X139057520Y-64580500D01*
X139262481Y-64580500D01*
X139262482Y-64580499D01*
X139463503Y-64540515D01*
X139652862Y-64462080D01*
X139823280Y-64348209D01*
X139968209Y-64203280D01*
X140082080Y-64032862D01*
X140128351Y-63921153D01*
X172699500Y-63921153D01*
X172699500Y-64078846D01*
X172730261Y-64233489D01*
X172730264Y-64233501D01*
X172790602Y-64379172D01*
X172790609Y-64379185D01*
X172878210Y-64510288D01*
X172878213Y-64510292D01*
X172989707Y-64621786D01*
X172989710Y-64621788D01*
X172989711Y-64621789D01*
X173015219Y-64638833D01*
X173027289Y-64646898D01*
X173072093Y-64700511D01*
X173080800Y-64769836D01*
X173050645Y-64832863D01*
X173027289Y-64853102D01*
X172989707Y-64878213D01*
X172878213Y-64989707D01*
X172878210Y-64989711D01*
X172790609Y-65120814D01*
X172790602Y-65120827D01*
X172730264Y-65266498D01*
X172730261Y-65266510D01*
X172699500Y-65421153D01*
X172699500Y-65578846D01*
X172730261Y-65733489D01*
X172730264Y-65733501D01*
X172790602Y-65879172D01*
X172790609Y-65879185D01*
X172878210Y-66010288D01*
X172878213Y-66010292D01*
X172989707Y-66121786D01*
X172989711Y-66121789D01*
X173120816Y-66209391D01*
X173120817Y-66209391D01*
X173120821Y-66209394D01*
X173154488Y-66223339D01*
X173208891Y-66267179D01*
X173230957Y-66333473D01*
X173228653Y-66362091D01*
X173199500Y-66508653D01*
X173199500Y-66666346D01*
X173230261Y-66820989D01*
X173230264Y-66821001D01*
X173290602Y-66966672D01*
X173290609Y-66966685D01*
X173378210Y-67097788D01*
X173378213Y-67097792D01*
X173380240Y-67099819D01*
X173380962Y-67101142D01*
X173382076Y-67102499D01*
X173381818Y-67102710D01*
X173413725Y-67161142D01*
X173408741Y-67230834D01*
X173382001Y-67272439D01*
X173382076Y-67272501D01*
X173381552Y-67273139D01*
X173380240Y-67275181D01*
X173378213Y-67277207D01*
X173378210Y-67277211D01*
X173290609Y-67408314D01*
X173290602Y-67408327D01*
X173230264Y-67553998D01*
X173230261Y-67554010D01*
X173199500Y-67708653D01*
X173199500Y-67866346D01*
X173230261Y-68020989D01*
X173230264Y-68021001D01*
X173290602Y-68166672D01*
X173290609Y-68166685D01*
X173378210Y-68297788D01*
X173378213Y-68297792D01*
X173489707Y-68409286D01*
X173489711Y-68409289D01*
X173620814Y-68496890D01*
X173620827Y-68496897D01*
X173766498Y-68557235D01*
X173766503Y-68557237D01*
X173921153Y-68587999D01*
X173921156Y-68588000D01*
X173921158Y-68588000D01*
X174078844Y-68588000D01*
X174078845Y-68587999D01*
X174233497Y-68557237D01*
X174379179Y-68496894D01*
X174510289Y-68409289D01*
X174621789Y-68297789D01*
X174709394Y-68166679D01*
X174769737Y-68020997D01*
X174778662Y-67976130D01*
X181644523Y-67976130D01*
X181644523Y-68133823D01*
X181675284Y-68288466D01*
X181675287Y-68288478D01*
X181735625Y-68434149D01*
X181735632Y-68434162D01*
X181823233Y-68565265D01*
X181823236Y-68565269D01*
X181934730Y-68676763D01*
X181934734Y-68676766D01*
X182065837Y-68764367D01*
X182065850Y-68764374D01*
X182124132Y-68788515D01*
X182178536Y-68832356D01*
X182200601Y-68898650D01*
X182200084Y-68915221D01*
X182199500Y-68921155D01*
X182199500Y-69078846D01*
X182230261Y-69233489D01*
X182230264Y-69233501D01*
X182290602Y-69379172D01*
X182290609Y-69379185D01*
X182378210Y-69510288D01*
X182378213Y-69510292D01*
X182489707Y-69621786D01*
X182489711Y-69621789D01*
X182620814Y-69709390D01*
X182620827Y-69709397D01*
X182758683Y-69766498D01*
X182766503Y-69769737D01*
X182921153Y-69800499D01*
X182921156Y-69800500D01*
X182921158Y-69800500D01*
X183078844Y-69800500D01*
X183078845Y-69800499D01*
X183233497Y-69769737D01*
X183379179Y-69709394D01*
X183510289Y-69621789D01*
X183621789Y-69510289D01*
X183709394Y-69379179D01*
X183769737Y-69233497D01*
X183800500Y-69078842D01*
X183800500Y-68921158D01*
X183800500Y-68921155D01*
X183800499Y-68921153D01*
X183769738Y-68766510D01*
X183769737Y-68766503D01*
X183732566Y-68676763D01*
X183709397Y-68620827D01*
X183709390Y-68620814D01*
X183621789Y-68489711D01*
X183621786Y-68489707D01*
X183591784Y-68459705D01*
X183558299Y-68398382D01*
X183563283Y-68328690D01*
X183605155Y-68272757D01*
X183655274Y-68250407D01*
X183670406Y-68247396D01*
X183777050Y-68226184D01*
X183889719Y-68179514D01*
X183922725Y-68165844D01*
X183922725Y-68165843D01*
X183922732Y-68165841D01*
X184053842Y-68078236D01*
X184165342Y-67966736D01*
X184252947Y-67835626D01*
X184258809Y-67821475D01*
X184305538Y-67708658D01*
X184313290Y-67689944D01*
X184344053Y-67535289D01*
X184344053Y-67421153D01*
X192199500Y-67421153D01*
X192199500Y-67578846D01*
X192230261Y-67733489D01*
X192230264Y-67733501D01*
X192290602Y-67879172D01*
X192290609Y-67879185D01*
X192378210Y-68010288D01*
X192378213Y-68010292D01*
X192489707Y-68121786D01*
X192489711Y-68121789D01*
X192620814Y-68209390D01*
X192620827Y-68209397D01*
X192735625Y-68256947D01*
X192766503Y-68269737D01*
X192907524Y-68297788D01*
X192921153Y-68300499D01*
X192921156Y-68300500D01*
X192921158Y-68300500D01*
X193078844Y-68300500D01*
X193078845Y-68300499D01*
X193233497Y-68269737D01*
X193379179Y-68209394D01*
X193510289Y-68121789D01*
X193621789Y-68010289D01*
X193709394Y-67879179D01*
X193769737Y-67733497D01*
X193800500Y-67578842D01*
X193800500Y-67421158D01*
X193800500Y-67421155D01*
X193800499Y-67421153D01*
X195699500Y-67421153D01*
X195699500Y-67578846D01*
X195730261Y-67733489D01*
X195730264Y-67733501D01*
X195790602Y-67879172D01*
X195790609Y-67879185D01*
X195878210Y-68010288D01*
X195878213Y-68010292D01*
X195989707Y-68121786D01*
X195989711Y-68121789D01*
X196120814Y-68209390D01*
X196120827Y-68209397D01*
X196235625Y-68256947D01*
X196266503Y-68269737D01*
X196407524Y-68297788D01*
X196421153Y-68300499D01*
X196421156Y-68300500D01*
X196421158Y-68300500D01*
X196578844Y-68300500D01*
X196578845Y-68300499D01*
X196733497Y-68269737D01*
X196879179Y-68209394D01*
X197010289Y-68121789D01*
X197121789Y-68010289D01*
X197209394Y-67879179D01*
X197269737Y-67733497D01*
X197300500Y-67578842D01*
X197300500Y-67421158D01*
X197300500Y-67421155D01*
X197300499Y-67421153D01*
X197291836Y-67377600D01*
X197269737Y-67266503D01*
X197246080Y-67209390D01*
X197209397Y-67120827D01*
X197209390Y-67120814D01*
X197121789Y-66989711D01*
X197121786Y-66989707D01*
X197010292Y-66878213D01*
X197010288Y-66878210D01*
X196879185Y-66790609D01*
X196879172Y-66790602D01*
X196733501Y-66730264D01*
X196733489Y-66730261D01*
X196578845Y-66699500D01*
X196578842Y-66699500D01*
X196421158Y-66699500D01*
X196421155Y-66699500D01*
X196266510Y-66730261D01*
X196266498Y-66730264D01*
X196120827Y-66790602D01*
X196120814Y-66790609D01*
X195989711Y-66878210D01*
X195989707Y-66878213D01*
X195878213Y-66989707D01*
X195878210Y-66989711D01*
X195790609Y-67120814D01*
X195790602Y-67120827D01*
X195730264Y-67266498D01*
X195730261Y-67266510D01*
X195699500Y-67421153D01*
X193800499Y-67421153D01*
X193791836Y-67377600D01*
X193769737Y-67266503D01*
X193746080Y-67209390D01*
X193709397Y-67120827D01*
X193709390Y-67120814D01*
X193621789Y-66989711D01*
X193621786Y-66989707D01*
X193510292Y-66878213D01*
X193510288Y-66878210D01*
X193379185Y-66790609D01*
X193379172Y-66790602D01*
X193233501Y-66730264D01*
X193233489Y-66730261D01*
X193078845Y-66699500D01*
X193078842Y-66699500D01*
X192921158Y-66699500D01*
X192921155Y-66699500D01*
X192766510Y-66730261D01*
X192766498Y-66730264D01*
X192620827Y-66790602D01*
X192620814Y-66790609D01*
X192489711Y-66878210D01*
X192489707Y-66878213D01*
X192378213Y-66989707D01*
X192378210Y-66989711D01*
X192290609Y-67120814D01*
X192290602Y-67120827D01*
X192230264Y-67266498D01*
X192230261Y-67266510D01*
X192199500Y-67421153D01*
X184344053Y-67421153D01*
X184344053Y-67377605D01*
X184344053Y-67377602D01*
X184344052Y-67377600D01*
X184328716Y-67300500D01*
X184313290Y-67222950D01*
X184307673Y-67209390D01*
X184252950Y-67077274D01*
X184252943Y-67077261D01*
X184165342Y-66946158D01*
X184165339Y-66946154D01*
X184053845Y-66834660D01*
X184053841Y-66834657D01*
X183922738Y-66747056D01*
X183922725Y-66747049D01*
X183777054Y-66686711D01*
X183777042Y-66686708D01*
X183622398Y-66655947D01*
X183622395Y-66655947D01*
X183464711Y-66655947D01*
X183464708Y-66655947D01*
X183310063Y-66686708D01*
X183310051Y-66686711D01*
X183164380Y-66747049D01*
X183164367Y-66747056D01*
X183033264Y-66834657D01*
X183033260Y-66834660D01*
X182921766Y-66946154D01*
X182921763Y-66946158D01*
X182834162Y-67077261D01*
X182834155Y-67077274D01*
X182781668Y-67203992D01*
X182737827Y-67258396D01*
X182671533Y-67280461D01*
X182642916Y-67278157D01*
X182523869Y-67254477D01*
X182523865Y-67254477D01*
X182366181Y-67254477D01*
X182366178Y-67254477D01*
X182211533Y-67285238D01*
X182211521Y-67285241D01*
X182065850Y-67345579D01*
X182065837Y-67345586D01*
X181934734Y-67433187D01*
X181934730Y-67433190D01*
X181823236Y-67544684D01*
X181823233Y-67544688D01*
X181735632Y-67675791D01*
X181735625Y-67675804D01*
X181675287Y-67821475D01*
X181675284Y-67821487D01*
X181644523Y-67976130D01*
X174778662Y-67976130D01*
X174780530Y-67966739D01*
X174784685Y-67945851D01*
X174784685Y-67945850D01*
X174797945Y-67879185D01*
X174800500Y-67866342D01*
X174800500Y-67708658D01*
X174800500Y-67708655D01*
X174800499Y-67708653D01*
X174796778Y-67689948D01*
X174769737Y-67554003D01*
X174761986Y-67535291D01*
X174709397Y-67408327D01*
X174709390Y-67408314D01*
X174621789Y-67277211D01*
X174619766Y-67275188D01*
X174619043Y-67273865D01*
X174617924Y-67272501D01*
X174618182Y-67272288D01*
X174586276Y-67213868D01*
X174591255Y-67144176D01*
X174617999Y-67102560D01*
X174617924Y-67102499D01*
X174618454Y-67101851D01*
X174619766Y-67099812D01*
X174621789Y-67097789D01*
X174709394Y-66966679D01*
X174769737Y-66820997D01*
X174800500Y-66666342D01*
X174800500Y-66508658D01*
X174800500Y-66508655D01*
X174800499Y-66508653D01*
X174786696Y-66439257D01*
X174783095Y-66421153D01*
X188699500Y-66421153D01*
X188699500Y-66578846D01*
X188730261Y-66733489D01*
X188730264Y-66733501D01*
X188790602Y-66879172D01*
X188790609Y-66879185D01*
X188878210Y-67010288D01*
X188878213Y-67010292D01*
X188989707Y-67121786D01*
X188989711Y-67121789D01*
X189120814Y-67209390D01*
X189120827Y-67209397D01*
X189239123Y-67258396D01*
X189266503Y-67269737D01*
X189421153Y-67300499D01*
X189421156Y-67300500D01*
X189421158Y-67300500D01*
X189578844Y-67300500D01*
X189578845Y-67300499D01*
X189589179Y-67298443D01*
X189614287Y-67293450D01*
X189614292Y-67293449D01*
X189716394Y-67273139D01*
X189733497Y-67269737D01*
X189879179Y-67209394D01*
X190010289Y-67121789D01*
X190121789Y-67010289D01*
X190209394Y-66879179D01*
X190269737Y-66733497D01*
X190300500Y-66578842D01*
X190300500Y-66421158D01*
X190300500Y-66421155D01*
X190300499Y-66421153D01*
X190269738Y-66266510D01*
X190269737Y-66266503D01*
X190245640Y-66208327D01*
X190209397Y-66120827D01*
X190209390Y-66120814D01*
X190121789Y-65989711D01*
X190121786Y-65989707D01*
X190010292Y-65878213D01*
X190010288Y-65878210D01*
X189879185Y-65790609D01*
X189879172Y-65790602D01*
X189733501Y-65730264D01*
X189733489Y-65730261D01*
X189578845Y-65699500D01*
X189578842Y-65699500D01*
X189421158Y-65699500D01*
X189421155Y-65699500D01*
X189266510Y-65730261D01*
X189266498Y-65730264D01*
X189120827Y-65790602D01*
X189120814Y-65790609D01*
X188989711Y-65878210D01*
X188989707Y-65878213D01*
X188878213Y-65989707D01*
X188878210Y-65989711D01*
X188790609Y-66120814D01*
X188790602Y-66120827D01*
X188730264Y-66266498D01*
X188730261Y-66266510D01*
X188699500Y-66421153D01*
X174783095Y-66421153D01*
X174769738Y-66354008D01*
X174769737Y-66354007D01*
X174769737Y-66354003D01*
X174761233Y-66333473D01*
X174709397Y-66208327D01*
X174709390Y-66208314D01*
X174621789Y-66077211D01*
X174621786Y-66077207D01*
X174510292Y-65965713D01*
X174510288Y-65965710D01*
X174379185Y-65878109D01*
X174379170Y-65878101D01*
X174345509Y-65864158D01*
X174291106Y-65820317D01*
X174269042Y-65754022D01*
X174271346Y-65725406D01*
X174274531Y-65709397D01*
X174291958Y-65621786D01*
X174300500Y-65578844D01*
X174300500Y-65421155D01*
X174300499Y-65421153D01*
X174292148Y-65379172D01*
X174269737Y-65266503D01*
X174238231Y-65190440D01*
X174209397Y-65120827D01*
X174209390Y-65120814D01*
X174121789Y-64989711D01*
X174121786Y-64989707D01*
X174010292Y-64878213D01*
X174010284Y-64878207D01*
X173972712Y-64853102D01*
X173927906Y-64799490D01*
X173919199Y-64730165D01*
X173949353Y-64667138D01*
X173972712Y-64646898D01*
X173999279Y-64629145D01*
X174010289Y-64621789D01*
X174121789Y-64510289D01*
X174181348Y-64421153D01*
X191199500Y-64421153D01*
X191199500Y-64578846D01*
X191230261Y-64733489D01*
X191230264Y-64733501D01*
X191290602Y-64879172D01*
X191290609Y-64879185D01*
X191378210Y-65010288D01*
X191378213Y-65010292D01*
X191489707Y-65121786D01*
X191489711Y-65121789D01*
X191620814Y-65209390D01*
X191620827Y-65209397D01*
X191756450Y-65265573D01*
X191766503Y-65269737D01*
X191886736Y-65293653D01*
X191921153Y-65300499D01*
X191921156Y-65300500D01*
X191921158Y-65300500D01*
X192078843Y-65300500D01*
X192095304Y-65297225D01*
X192144568Y-65287426D01*
X192214158Y-65293653D01*
X192269336Y-65336515D01*
X192283320Y-65361589D01*
X192290606Y-65379179D01*
X192290609Y-65379185D01*
X192378210Y-65510288D01*
X192378213Y-65510292D01*
X192489707Y-65621786D01*
X192489711Y-65621789D01*
X192620814Y-65709390D01*
X192620827Y-65709397D01*
X192728563Y-65754022D01*
X192766503Y-65769737D01*
X192921153Y-65800499D01*
X192921156Y-65800500D01*
X192921158Y-65800500D01*
X193078844Y-65800500D01*
X193078845Y-65800499D01*
X193233497Y-65769737D01*
X193379179Y-65709394D01*
X193510289Y-65621789D01*
X193621789Y-65510289D01*
X193709394Y-65379179D01*
X193769737Y-65233497D01*
X193800500Y-65078842D01*
X193800500Y-64921158D01*
X193800500Y-64921155D01*
X193800499Y-64921153D01*
X193782937Y-64832863D01*
X193769737Y-64766503D01*
X193756062Y-64733489D01*
X193709397Y-64620827D01*
X193709390Y-64620814D01*
X193621789Y-64489711D01*
X193621786Y-64489707D01*
X193510292Y-64378213D01*
X193510288Y-64378210D01*
X193379185Y-64290609D01*
X193379172Y-64290602D01*
X193233501Y-64230264D01*
X193233489Y-64230261D01*
X193078845Y-64199500D01*
X193078842Y-64199500D01*
X192921158Y-64199500D01*
X192921153Y-64199500D01*
X192855431Y-64212573D01*
X192785839Y-64206346D01*
X192730662Y-64163482D01*
X192716679Y-64138409D01*
X192709392Y-64120817D01*
X192621789Y-63989711D01*
X192621786Y-63989707D01*
X192510292Y-63878213D01*
X192510288Y-63878210D01*
X192379185Y-63790609D01*
X192379172Y-63790602D01*
X192233501Y-63730264D01*
X192233489Y-63730261D01*
X192078845Y-63699500D01*
X192078842Y-63699500D01*
X191921158Y-63699500D01*
X191921155Y-63699500D01*
X191766510Y-63730261D01*
X191766498Y-63730264D01*
X191620827Y-63790602D01*
X191620814Y-63790609D01*
X191489711Y-63878210D01*
X191489707Y-63878213D01*
X191378213Y-63989707D01*
X191378210Y-63989711D01*
X191290609Y-64120814D01*
X191290602Y-64120827D01*
X191230264Y-64266498D01*
X191230261Y-64266510D01*
X191199500Y-64421153D01*
X174181348Y-64421153D01*
X174209394Y-64379179D01*
X174269737Y-64233497D01*
X174300500Y-64078842D01*
X174300500Y-63921158D01*
X174300500Y-63921155D01*
X174300499Y-63921153D01*
X174274531Y-63790606D01*
X174269737Y-63766503D01*
X174269735Y-63766498D01*
X174209397Y-63620827D01*
X174209390Y-63620814D01*
X174121789Y-63489711D01*
X174121786Y-63489707D01*
X174010292Y-63378213D01*
X174010288Y-63378210D01*
X173879185Y-63290609D01*
X173879172Y-63290602D01*
X173733501Y-63230264D01*
X173733489Y-63230261D01*
X173578845Y-63199500D01*
X173578842Y-63199500D01*
X173421158Y-63199500D01*
X173421155Y-63199500D01*
X173266510Y-63230261D01*
X173266498Y-63230264D01*
X173120827Y-63290602D01*
X173120814Y-63290609D01*
X172989711Y-63378210D01*
X172989707Y-63378213D01*
X172878213Y-63489707D01*
X172878210Y-63489711D01*
X172790609Y-63620814D01*
X172790602Y-63620827D01*
X172730264Y-63766498D01*
X172730261Y-63766510D01*
X172699500Y-63921153D01*
X140128351Y-63921153D01*
X140160515Y-63843503D01*
X140200500Y-63642480D01*
X140200500Y-63437520D01*
X140160515Y-63236497D01*
X140082080Y-63047138D01*
X139997899Y-62921153D01*
X151699500Y-62921153D01*
X151699500Y-63078846D01*
X151730261Y-63233489D01*
X151730264Y-63233501D01*
X151790602Y-63379172D01*
X151790609Y-63379185D01*
X151878210Y-63510288D01*
X151878213Y-63510292D01*
X151989707Y-63621786D01*
X151989711Y-63621789D01*
X152120814Y-63709390D01*
X152120827Y-63709397D01*
X152258683Y-63766498D01*
X152266503Y-63769737D01*
X152421153Y-63800499D01*
X152421156Y-63800500D01*
X152421158Y-63800500D01*
X152578844Y-63800500D01*
X152578845Y-63800499D01*
X152733497Y-63769737D01*
X152879179Y-63709394D01*
X153010289Y-63621789D01*
X153121789Y-63510289D01*
X153209394Y-63379179D01*
X153269737Y-63233497D01*
X153300500Y-63078842D01*
X153300500Y-62921158D01*
X153300500Y-62921155D01*
X153300499Y-62921153D01*
X153699500Y-62921153D01*
X153699500Y-63078846D01*
X153730261Y-63233489D01*
X153730264Y-63233501D01*
X153790602Y-63379172D01*
X153790609Y-63379185D01*
X153878210Y-63510288D01*
X153878213Y-63510292D01*
X153989707Y-63621786D01*
X153989711Y-63621789D01*
X154120814Y-63709390D01*
X154120827Y-63709397D01*
X154258683Y-63766498D01*
X154266503Y-63769737D01*
X154421153Y-63800499D01*
X154421156Y-63800500D01*
X154421158Y-63800500D01*
X154578844Y-63800500D01*
X154578845Y-63800499D01*
X154589179Y-63798443D01*
X154614287Y-63793450D01*
X154614292Y-63793449D01*
X154699800Y-63776439D01*
X154733497Y-63769737D01*
X154879179Y-63709394D01*
X155010289Y-63621789D01*
X155121789Y-63510289D01*
X155209394Y-63379179D01*
X155269737Y-63233497D01*
X155300500Y-63078842D01*
X155300500Y-62921158D01*
X155300500Y-62921155D01*
X155300499Y-62921153D01*
X155269738Y-62766510D01*
X155269737Y-62766503D01*
X155230259Y-62671194D01*
X155209397Y-62620827D01*
X155209390Y-62620814D01*
X155121789Y-62489711D01*
X155121786Y-62489707D01*
X155010292Y-62378213D01*
X155010288Y-62378210D01*
X154879185Y-62290609D01*
X154879172Y-62290602D01*
X154733501Y-62230264D01*
X154733489Y-62230261D01*
X154578845Y-62199500D01*
X154578842Y-62199500D01*
X154421158Y-62199500D01*
X154421155Y-62199500D01*
X154266510Y-62230261D01*
X154266498Y-62230264D01*
X154120827Y-62290602D01*
X154120814Y-62290609D01*
X153989711Y-62378210D01*
X153989707Y-62378213D01*
X153878213Y-62489707D01*
X153878210Y-62489711D01*
X153790609Y-62620814D01*
X153790602Y-62620827D01*
X153730264Y-62766498D01*
X153730261Y-62766510D01*
X153699500Y-62921153D01*
X153300499Y-62921153D01*
X153269738Y-62766510D01*
X153269737Y-62766503D01*
X153230259Y-62671194D01*
X153209397Y-62620827D01*
X153209390Y-62620814D01*
X153121789Y-62489711D01*
X153121786Y-62489707D01*
X153010292Y-62378213D01*
X153010288Y-62378210D01*
X152879185Y-62290609D01*
X152879172Y-62290602D01*
X152733501Y-62230264D01*
X152733489Y-62230261D01*
X152578845Y-62199500D01*
X152578842Y-62199500D01*
X152421158Y-62199500D01*
X152421155Y-62199500D01*
X152266510Y-62230261D01*
X152266498Y-62230264D01*
X152120827Y-62290602D01*
X152120814Y-62290609D01*
X151989711Y-62378210D01*
X151989707Y-62378213D01*
X151878213Y-62489707D01*
X151878210Y-62489711D01*
X151790609Y-62620814D01*
X151790602Y-62620827D01*
X151730264Y-62766498D01*
X151730261Y-62766510D01*
X151699500Y-62921153D01*
X139997899Y-62921153D01*
X139968209Y-62876720D01*
X139968206Y-62876716D01*
X139823283Y-62731793D01*
X139823279Y-62731790D01*
X139652859Y-62617918D01*
X139463505Y-62539486D01*
X139463506Y-62539486D01*
X139463503Y-62539485D01*
X139463499Y-62539484D01*
X139463495Y-62539483D01*
X139262484Y-62499500D01*
X139262480Y-62499500D01*
X139057520Y-62499500D01*
X139057515Y-62499500D01*
X138856504Y-62539483D01*
X138856494Y-62539486D01*
X138667140Y-62617918D01*
X138496720Y-62731790D01*
X138496716Y-62731793D01*
X138351793Y-62876716D01*
X138351790Y-62876720D01*
X138237918Y-63047140D01*
X138159486Y-63236494D01*
X138159483Y-63236504D01*
X138119500Y-63437515D01*
X136270500Y-63437515D01*
X136270500Y-63396427D01*
X136233020Y-63111738D01*
X136158701Y-62834376D01*
X136069041Y-62617918D01*
X136048820Y-62569099D01*
X136048813Y-62569084D01*
X135905242Y-62320412D01*
X135730440Y-62092605D01*
X135730434Y-62092598D01*
X135527401Y-61889565D01*
X135527394Y-61889559D01*
X135299587Y-61714757D01*
X135050915Y-61571186D01*
X135050900Y-61571179D01*
X134785622Y-61461298D01*
X134508260Y-61386979D01*
X134223582Y-61349501D01*
X134223579Y-61349500D01*
X134223573Y-61349500D01*
X133936427Y-61349500D01*
X133936421Y-61349500D01*
X133936417Y-61349501D01*
X133651739Y-61386979D01*
X133374377Y-61461298D01*
X133109099Y-61571179D01*
X133109084Y-61571186D01*
X132860412Y-61714757D01*
X132632605Y-61889559D01*
X132632598Y-61889565D01*
X132429565Y-62092598D01*
X132429559Y-62092605D01*
X132254757Y-62320412D01*
X132111186Y-62569084D01*
X132111179Y-62569099D01*
X132001298Y-62834377D01*
X131926979Y-63111739D01*
X131889501Y-63396417D01*
X131889500Y-63396433D01*
X130032327Y-63396433D01*
X130000516Y-63236504D01*
X130000515Y-63236497D01*
X129922080Y-63047138D01*
X129808209Y-62876720D01*
X129808206Y-62876716D01*
X129664007Y-62732517D01*
X129630522Y-62671194D01*
X129635506Y-62601502D01*
X129677378Y-62545569D01*
X129742842Y-62521152D01*
X129790003Y-62526904D01*
X129863851Y-62550899D01*
X129895214Y-62561090D01*
X129945781Y-62569099D01*
X130144038Y-62600500D01*
X130144039Y-62600500D01*
X130395961Y-62600500D01*
X130395962Y-62600500D01*
X130644785Y-62561090D01*
X130884379Y-62483241D01*
X131108845Y-62368870D01*
X131312656Y-62220793D01*
X131490793Y-62042656D01*
X131638870Y-61838845D01*
X131753241Y-61614379D01*
X131831090Y-61374785D01*
X131870500Y-61125962D01*
X131870500Y-60874038D01*
X131851415Y-60753543D01*
X148114499Y-60753543D01*
X148152947Y-60946829D01*
X148152950Y-60946839D01*
X148228364Y-61128907D01*
X148228371Y-61128920D01*
X148337860Y-61292781D01*
X148337863Y-61292785D01*
X148477214Y-61432136D01*
X148477218Y-61432139D01*
X148641079Y-61541628D01*
X148641092Y-61541635D01*
X148816714Y-61614379D01*
X148823165Y-61617051D01*
X148823169Y-61617051D01*
X148823170Y-61617052D01*
X149016456Y-61655500D01*
X149016459Y-61655500D01*
X149213543Y-61655500D01*
X149343582Y-61629632D01*
X149406835Y-61617051D01*
X149588914Y-61541632D01*
X149752782Y-61432139D01*
X149892139Y-61292782D01*
X150001632Y-61128914D01*
X150077051Y-60946835D01*
X150106159Y-60800500D01*
X150115500Y-60753543D01*
X150115500Y-60167049D01*
X150135185Y-60100010D01*
X150187989Y-60054255D01*
X150257147Y-60044311D01*
X150301499Y-60059662D01*
X150346025Y-60085369D01*
X150477133Y-60120500D01*
X150477135Y-60120500D01*
X150612865Y-60120500D01*
X150612867Y-60120500D01*
X150743975Y-60085369D01*
X150861524Y-60017502D01*
X150957502Y-59921524D01*
X151025369Y-59803975D01*
X151060500Y-59672867D01*
X151060500Y-59537133D01*
X155809500Y-59537133D01*
X155809500Y-59672867D01*
X155844631Y-59803975D01*
X155844632Y-59803978D01*
X155912495Y-59921520D01*
X155912497Y-59921522D01*
X155912498Y-59921524D01*
X156008476Y-60017502D01*
X156008477Y-60017503D01*
X156008479Y-60017504D01*
X156126021Y-60085367D01*
X156126022Y-60085367D01*
X156126025Y-60085369D01*
X156257133Y-60120500D01*
X156257135Y-60120500D01*
X156392865Y-60120500D01*
X156392867Y-60120500D01*
X156523975Y-60085369D01*
X156568499Y-60059662D01*
X156636398Y-60043189D01*
X156702425Y-60066040D01*
X156745617Y-60120961D01*
X156754500Y-60167049D01*
X156754500Y-60753541D01*
X156754500Y-60753543D01*
X156754499Y-60753543D01*
X156792947Y-60946829D01*
X156792950Y-60946839D01*
X156868364Y-61128907D01*
X156868371Y-61128920D01*
X156977860Y-61292781D01*
X156977863Y-61292785D01*
X157117214Y-61432136D01*
X157117218Y-61432139D01*
X157281079Y-61541628D01*
X157281092Y-61541635D01*
X157456714Y-61614379D01*
X157463165Y-61617051D01*
X157463169Y-61617051D01*
X157463170Y-61617052D01*
X157656456Y-61655500D01*
X157656459Y-61655500D01*
X157853543Y-61655500D01*
X157983582Y-61629632D01*
X158046835Y-61617051D01*
X158228914Y-61541632D01*
X158392782Y-61432139D01*
X158532139Y-61292782D01*
X158641632Y-61128914D01*
X158717051Y-60946835D01*
X158746159Y-60800500D01*
X158755500Y-60753543D01*
X158755500Y-59921153D01*
X192699500Y-59921153D01*
X192699500Y-60078846D01*
X192730261Y-60233489D01*
X192730264Y-60233501D01*
X192790602Y-60379172D01*
X192790609Y-60379185D01*
X192878210Y-60510288D01*
X192878213Y-60510292D01*
X192989707Y-60621786D01*
X192989711Y-60621789D01*
X193120814Y-60709390D01*
X193120827Y-60709397D01*
X193266498Y-60769735D01*
X193266503Y-60769737D01*
X193421153Y-60800499D01*
X193421156Y-60800500D01*
X193421158Y-60800500D01*
X193578844Y-60800500D01*
X193578845Y-60800499D01*
X193733497Y-60769737D01*
X193879179Y-60709394D01*
X194010289Y-60621789D01*
X194121789Y-60510289D01*
X194209394Y-60379179D01*
X194269737Y-60233497D01*
X194300500Y-60078842D01*
X194300500Y-59921158D01*
X194300500Y-59921155D01*
X194300499Y-59921153D01*
X194282058Y-59828446D01*
X194269737Y-59766503D01*
X194230952Y-59672867D01*
X194209397Y-59620827D01*
X194209390Y-59620814D01*
X194121789Y-59489711D01*
X194121786Y-59489707D01*
X194010292Y-59378213D01*
X194010288Y-59378210D01*
X193879185Y-59290609D01*
X193879172Y-59290602D01*
X193733501Y-59230264D01*
X193733489Y-59230261D01*
X193578845Y-59199500D01*
X193578842Y-59199500D01*
X193421158Y-59199500D01*
X193421155Y-59199500D01*
X193266510Y-59230261D01*
X193266498Y-59230264D01*
X193120827Y-59290602D01*
X193120814Y-59290609D01*
X192989711Y-59378210D01*
X192989707Y-59378213D01*
X192878213Y-59489707D01*
X192878210Y-59489711D01*
X192790609Y-59620814D01*
X192790602Y-59620827D01*
X192730264Y-59766498D01*
X192730261Y-59766510D01*
X192699500Y-59921153D01*
X158755500Y-59921153D01*
X158755500Y-59456456D01*
X158717052Y-59263170D01*
X158717051Y-59263169D01*
X158717051Y-59263165D01*
X158694780Y-59209397D01*
X158663848Y-59134719D01*
X158663845Y-59134715D01*
X158641632Y-59081086D01*
X158532139Y-58917218D01*
X158532136Y-58917214D01*
X158392785Y-58777863D01*
X158392781Y-58777860D01*
X158228920Y-58668371D01*
X158228907Y-58668364D01*
X158046839Y-58592950D01*
X158046829Y-58592947D01*
X157853543Y-58554500D01*
X157853541Y-58554500D01*
X157656459Y-58554500D01*
X157656457Y-58554500D01*
X157463170Y-58592947D01*
X157463160Y-58592950D01*
X157281092Y-58668364D01*
X157281079Y-58668371D01*
X157117218Y-58777860D01*
X157117214Y-58777863D01*
X156977863Y-58917214D01*
X156977860Y-58917218D01*
X156868371Y-59081079D01*
X156868364Y-59081092D01*
X156840313Y-59148816D01*
X156796472Y-59203220D01*
X156730178Y-59225285D01*
X156662479Y-59208006D01*
X156648311Y-59197000D01*
X156647970Y-59197445D01*
X156641520Y-59192495D01*
X156523978Y-59124632D01*
X156523979Y-59124632D01*
X156508484Y-59120480D01*
X156392867Y-59089500D01*
X156257133Y-59089500D01*
X156141515Y-59120480D01*
X156126021Y-59124632D01*
X156008479Y-59192495D01*
X156008473Y-59192500D01*
X155912500Y-59288473D01*
X155912495Y-59288479D01*
X155844632Y-59406021D01*
X155844631Y-59406025D01*
X155809500Y-59537133D01*
X151060500Y-59537133D01*
X151025369Y-59406025D01*
X151022293Y-59400698D01*
X150957504Y-59288479D01*
X150957499Y-59288473D01*
X150861526Y-59192500D01*
X150861520Y-59192495D01*
X150743978Y-59124632D01*
X150743979Y-59124632D01*
X150728484Y-59120480D01*
X150612867Y-59089500D01*
X150477133Y-59089500D01*
X150361515Y-59120480D01*
X150346021Y-59124632D01*
X150228479Y-59192495D01*
X150222030Y-59197445D01*
X150220413Y-59195338D01*
X150170579Y-59222536D01*
X150100888Y-59217536D01*
X150044964Y-59175653D01*
X150029686Y-59148816D01*
X150001632Y-59081086D01*
X150001628Y-59081079D01*
X149892139Y-58917218D01*
X149892136Y-58917214D01*
X149752785Y-58777863D01*
X149752781Y-58777860D01*
X149588920Y-58668371D01*
X149588907Y-58668364D01*
X149406839Y-58592950D01*
X149406829Y-58592947D01*
X149213543Y-58554500D01*
X149213541Y-58554500D01*
X149016459Y-58554500D01*
X149016457Y-58554500D01*
X148823170Y-58592947D01*
X148823160Y-58592950D01*
X148641092Y-58668364D01*
X148641079Y-58668371D01*
X148477218Y-58777860D01*
X148477214Y-58777863D01*
X148337863Y-58917214D01*
X148337860Y-58917218D01*
X148228371Y-59081079D01*
X148228364Y-59081092D01*
X148152950Y-59263160D01*
X148152947Y-59263170D01*
X148114500Y-59456456D01*
X148114500Y-59456459D01*
X148114500Y-60753541D01*
X148114500Y-60753543D01*
X148114499Y-60753543D01*
X131851415Y-60753543D01*
X131831090Y-60625215D01*
X131753241Y-60385621D01*
X131753239Y-60385618D01*
X131753239Y-60385616D01*
X131675730Y-60233497D01*
X131638870Y-60161155D01*
X131609667Y-60120961D01*
X131490798Y-59957350D01*
X131490794Y-59957345D01*
X131312654Y-59779205D01*
X131312649Y-59779201D01*
X131108848Y-59631132D01*
X131108847Y-59631131D01*
X131108845Y-59631130D01*
X131038747Y-59595413D01*
X130884383Y-59516760D01*
X130644785Y-59438910D01*
X130395962Y-59399500D01*
X130144038Y-59399500D01*
X130019626Y-59419205D01*
X129895214Y-59438910D01*
X129655616Y-59516760D01*
X129431151Y-59631132D01*
X129227350Y-59779201D01*
X129227345Y-59779205D01*
X129049205Y-59957345D01*
X129049201Y-59957350D01*
X128901132Y-60161151D01*
X128786760Y-60385616D01*
X128708910Y-60625214D01*
X128681147Y-60800500D01*
X128669500Y-60874038D01*
X128669500Y-61125962D01*
X128669968Y-61128914D01*
X128708910Y-61374785D01*
X128786760Y-61614383D01*
X128901132Y-61838848D01*
X129049201Y-62042649D01*
X129049205Y-62042654D01*
X129227345Y-62220794D01*
X129227350Y-62220798D01*
X129345414Y-62306577D01*
X129388080Y-62361907D01*
X129394059Y-62431520D01*
X129361453Y-62493315D01*
X129300615Y-62527672D01*
X129248338Y-62528512D01*
X129102484Y-62499500D01*
X129102480Y-62499500D01*
X128897520Y-62499500D01*
X128897515Y-62499500D01*
X128696504Y-62539483D01*
X128696494Y-62539486D01*
X128507140Y-62617918D01*
X128336720Y-62731790D01*
X128336716Y-62731793D01*
X128191793Y-62876716D01*
X128191790Y-62876720D01*
X128077918Y-63047140D01*
X127999486Y-63236494D01*
X127999483Y-63236504D01*
X127959500Y-63437515D01*
X118500500Y-63437515D01*
X118500500Y-58334071D01*
X135020000Y-58334071D01*
X135020000Y-58585928D01*
X135059397Y-58834669D01*
X135137219Y-59074184D01*
X135251557Y-59298583D01*
X135325748Y-59400697D01*
X135325748Y-59400698D01*
X135942421Y-58784024D01*
X135955359Y-58815258D01*
X136037437Y-58938097D01*
X136141903Y-59042563D01*
X136264742Y-59124641D01*
X136295974Y-59137577D01*
X135679300Y-59754250D01*
X135781416Y-59828442D01*
X136005815Y-59942780D01*
X136245330Y-60020602D01*
X136494072Y-60060000D01*
X136745928Y-60060000D01*
X136994669Y-60020602D01*
X137234184Y-59942780D01*
X137458575Y-59828446D01*
X137458581Y-59828442D01*
X137560697Y-59754250D01*
X137560698Y-59754250D01*
X136944025Y-59137578D01*
X136975258Y-59124641D01*
X137098097Y-59042563D01*
X137202563Y-58938097D01*
X137284641Y-58815258D01*
X137297577Y-58784025D01*
X137914250Y-59400698D01*
X137914250Y-59400697D01*
X137931119Y-59377481D01*
X137988442Y-59298581D01*
X137988446Y-59298575D01*
X138102780Y-59074184D01*
X138180602Y-58834669D01*
X138220000Y-58585928D01*
X138220000Y-58334071D01*
X138180602Y-58085330D01*
X138137731Y-57953384D01*
X138127259Y-57921153D01*
X155199500Y-57921153D01*
X155199500Y-58078846D01*
X155230261Y-58233489D01*
X155230264Y-58233501D01*
X155290602Y-58379172D01*
X155290609Y-58379185D01*
X155378210Y-58510288D01*
X155378213Y-58510292D01*
X155489707Y-58621786D01*
X155489711Y-58621789D01*
X155620814Y-58709390D01*
X155620827Y-58709397D01*
X155766498Y-58769735D01*
X155766503Y-58769737D01*
X155921153Y-58800499D01*
X155921156Y-58800500D01*
X155921158Y-58800500D01*
X156078844Y-58800500D01*
X156078845Y-58800499D01*
X156233497Y-58769737D01*
X156379179Y-58709394D01*
X156510289Y-58621789D01*
X156621789Y-58510289D01*
X156681348Y-58421153D01*
X158699500Y-58421153D01*
X158699500Y-58578846D01*
X158730261Y-58733489D01*
X158730264Y-58733501D01*
X158758016Y-58800500D01*
X158790606Y-58879179D01*
X158878211Y-59010289D01*
X158878656Y-59010734D01*
X158878658Y-59010737D01*
X158989707Y-59121786D01*
X158989711Y-59121789D01*
X159120814Y-59209390D01*
X159120827Y-59209397D01*
X159266498Y-59269735D01*
X159266503Y-59269737D01*
X159411511Y-59298581D01*
X159421153Y-59300499D01*
X159421156Y-59300500D01*
X159421158Y-59300500D01*
X159578844Y-59300500D01*
X159578845Y-59300499D01*
X159733497Y-59269737D01*
X159879179Y-59209394D01*
X160010289Y-59121789D01*
X160121789Y-59010289D01*
X160209394Y-58879179D01*
X160269737Y-58733497D01*
X160300500Y-58578842D01*
X160300500Y-58421158D01*
X160300500Y-58421155D01*
X160300499Y-58421153D01*
X160269738Y-58266510D01*
X160269737Y-58266503D01*
X160256062Y-58233489D01*
X160209397Y-58120827D01*
X160209390Y-58120814D01*
X160121789Y-57989711D01*
X160121786Y-57989707D01*
X160010292Y-57878213D01*
X160010288Y-57878210D01*
X159879185Y-57790609D01*
X159879172Y-57790602D01*
X159733501Y-57730264D01*
X159733489Y-57730261D01*
X159578845Y-57699500D01*
X159578842Y-57699500D01*
X159421158Y-57699500D01*
X159421155Y-57699500D01*
X159266510Y-57730261D01*
X159266498Y-57730264D01*
X159120827Y-57790602D01*
X159120814Y-57790609D01*
X158989711Y-57878210D01*
X158989707Y-57878213D01*
X158878213Y-57989707D01*
X158878210Y-57989711D01*
X158790609Y-58120814D01*
X158790602Y-58120827D01*
X158730264Y-58266498D01*
X158730261Y-58266510D01*
X158699500Y-58421153D01*
X156681348Y-58421153D01*
X156709394Y-58379179D01*
X156769737Y-58233497D01*
X156800500Y-58078842D01*
X156800500Y-57921158D01*
X156800500Y-57921155D01*
X156800499Y-57921153D01*
X156774531Y-57790606D01*
X156769737Y-57766503D01*
X156758271Y-57738822D01*
X156709397Y-57620827D01*
X156709390Y-57620814D01*
X156621789Y-57489711D01*
X156621786Y-57489707D01*
X156510292Y-57378213D01*
X156510288Y-57378210D01*
X156379185Y-57290609D01*
X156379172Y-57290602D01*
X156233501Y-57230264D01*
X156233489Y-57230261D01*
X156078845Y-57199500D01*
X156078842Y-57199500D01*
X155921158Y-57199500D01*
X155921155Y-57199500D01*
X155766510Y-57230261D01*
X155766498Y-57230264D01*
X155620827Y-57290602D01*
X155620814Y-57290609D01*
X155489711Y-57378210D01*
X155489707Y-57378213D01*
X155378213Y-57489707D01*
X155378210Y-57489711D01*
X155290609Y-57620814D01*
X155290602Y-57620827D01*
X155230264Y-57766498D01*
X155230261Y-57766510D01*
X155199500Y-57921153D01*
X138127259Y-57921153D01*
X138102780Y-57845815D01*
X137988442Y-57621416D01*
X137914250Y-57519301D01*
X137914250Y-57519300D01*
X137297577Y-58135973D01*
X137284641Y-58104742D01*
X137202563Y-57981903D01*
X137098097Y-57877437D01*
X136975258Y-57795359D01*
X136944024Y-57782421D01*
X137560698Y-57165748D01*
X137458583Y-57091557D01*
X137234184Y-56977219D01*
X136994669Y-56899397D01*
X136745928Y-56860000D01*
X136494072Y-56860000D01*
X136245330Y-56899397D01*
X136005815Y-56977219D01*
X135781413Y-57091559D01*
X135679301Y-57165747D01*
X135679300Y-57165748D01*
X136295974Y-57782421D01*
X136264742Y-57795359D01*
X136141903Y-57877437D01*
X136037437Y-57981903D01*
X135955359Y-58104742D01*
X135942421Y-58135974D01*
X135325748Y-57519300D01*
X135325747Y-57519301D01*
X135251559Y-57621413D01*
X135137219Y-57845815D01*
X135059397Y-58085330D01*
X135020000Y-58334071D01*
X118500500Y-58334071D01*
X118500500Y-56423543D01*
X148114499Y-56423543D01*
X148152947Y-56616829D01*
X148152950Y-56616839D01*
X148228364Y-56798907D01*
X148228371Y-56798920D01*
X148337860Y-56962781D01*
X148337863Y-56962785D01*
X148477214Y-57102136D01*
X148477218Y-57102139D01*
X148641079Y-57211628D01*
X148641092Y-57211635D01*
X148781360Y-57269735D01*
X148823165Y-57287051D01*
X148823169Y-57287051D01*
X148823170Y-57287052D01*
X149016456Y-57325500D01*
X149016459Y-57325500D01*
X149213543Y-57325500D01*
X149343582Y-57299632D01*
X149406835Y-57287051D01*
X149588914Y-57211632D01*
X149752782Y-57102139D01*
X149892139Y-56962782D01*
X150001632Y-56798914D01*
X150077051Y-56616835D01*
X150115500Y-56423543D01*
X156754499Y-56423543D01*
X156792947Y-56616829D01*
X156792950Y-56616839D01*
X156868364Y-56798907D01*
X156868371Y-56798920D01*
X156977860Y-56962781D01*
X156977863Y-56962785D01*
X157117214Y-57102136D01*
X157117218Y-57102139D01*
X157281079Y-57211628D01*
X157281092Y-57211635D01*
X157421360Y-57269735D01*
X157463165Y-57287051D01*
X157463169Y-57287051D01*
X157463170Y-57287052D01*
X157656456Y-57325500D01*
X157656459Y-57325500D01*
X157853543Y-57325500D01*
X157983582Y-57299632D01*
X158046835Y-57287051D01*
X158228914Y-57211632D01*
X158392782Y-57102139D01*
X158532139Y-56962782D01*
X158641632Y-56798914D01*
X158717051Y-56616835D01*
X158755500Y-56423541D01*
X158755500Y-56421153D01*
X177699500Y-56421153D01*
X177699500Y-56578846D01*
X177730261Y-56733489D01*
X177730264Y-56733501D01*
X177790602Y-56879172D01*
X177790609Y-56879185D01*
X177878210Y-57010288D01*
X177878213Y-57010292D01*
X177989707Y-57121786D01*
X177989711Y-57121789D01*
X178120814Y-57209390D01*
X178120827Y-57209397D01*
X178266498Y-57269735D01*
X178266503Y-57269737D01*
X178421153Y-57300499D01*
X178421156Y-57300500D01*
X178421158Y-57300500D01*
X178578844Y-57300500D01*
X178578845Y-57300499D01*
X178733497Y-57269737D01*
X178879179Y-57209394D01*
X179010289Y-57121789D01*
X179121789Y-57010289D01*
X179209394Y-56879179D01*
X179269737Y-56733497D01*
X179300500Y-56578842D01*
X179300500Y-56421158D01*
X179300500Y-56421155D01*
X179300499Y-56421153D01*
X179269738Y-56266510D01*
X179269737Y-56266503D01*
X179256062Y-56233489D01*
X179209397Y-56120827D01*
X179209390Y-56120814D01*
X179121790Y-55989712D01*
X179121784Y-55989705D01*
X179053232Y-55921153D01*
X191699500Y-55921153D01*
X191699500Y-56078846D01*
X191730261Y-56233489D01*
X191730264Y-56233501D01*
X191790602Y-56379172D01*
X191790609Y-56379185D01*
X191878210Y-56510288D01*
X191878213Y-56510292D01*
X191989707Y-56621786D01*
X191989711Y-56621789D01*
X192120814Y-56709390D01*
X192120827Y-56709397D01*
X192266498Y-56769735D01*
X192266503Y-56769737D01*
X192413150Y-56798907D01*
X192421153Y-56800499D01*
X192421156Y-56800500D01*
X192421158Y-56800500D01*
X192578844Y-56800500D01*
X192578845Y-56800499D01*
X192733497Y-56769737D01*
X192879179Y-56709394D01*
X193010289Y-56621789D01*
X193121789Y-56510289D01*
X193209394Y-56379179D01*
X193269737Y-56233497D01*
X193300500Y-56078842D01*
X193300500Y-55921158D01*
X193300500Y-55921155D01*
X193300499Y-55921153D01*
X193274531Y-55790606D01*
X193269737Y-55766503D01*
X193269735Y-55766498D01*
X193209397Y-55620827D01*
X193209390Y-55620814D01*
X193121789Y-55489711D01*
X193121786Y-55489707D01*
X193010292Y-55378213D01*
X193010288Y-55378210D01*
X192879185Y-55290609D01*
X192879172Y-55290602D01*
X192733501Y-55230264D01*
X192733489Y-55230261D01*
X192578845Y-55199500D01*
X192578842Y-55199500D01*
X192421158Y-55199500D01*
X192421155Y-55199500D01*
X192266510Y-55230261D01*
X192266498Y-55230264D01*
X192120827Y-55290602D01*
X192120814Y-55290609D01*
X191989711Y-55378210D01*
X191989707Y-55378213D01*
X191878213Y-55489707D01*
X191878210Y-55489711D01*
X191790609Y-55620814D01*
X191790602Y-55620827D01*
X191730264Y-55766498D01*
X191730261Y-55766510D01*
X191699500Y-55921153D01*
X179053232Y-55921153D01*
X179010292Y-55878213D01*
X179010288Y-55878210D01*
X178879185Y-55790609D01*
X178879172Y-55790602D01*
X178733501Y-55730264D01*
X178733489Y-55730261D01*
X178578845Y-55699500D01*
X178578842Y-55699500D01*
X178421158Y-55699500D01*
X178421155Y-55699500D01*
X178266510Y-55730261D01*
X178266498Y-55730264D01*
X178120827Y-55790602D01*
X178120814Y-55790609D01*
X177989711Y-55878210D01*
X177989707Y-55878213D01*
X177878213Y-55989707D01*
X177878210Y-55989711D01*
X177790609Y-56120814D01*
X177790602Y-56120827D01*
X177730264Y-56266498D01*
X177730261Y-56266510D01*
X177699500Y-56421153D01*
X158755500Y-56421153D01*
X158755500Y-55426459D01*
X158755500Y-55426456D01*
X158717052Y-55233170D01*
X158717051Y-55233169D01*
X158717051Y-55233165D01*
X158703107Y-55199500D01*
X158641635Y-55051092D01*
X158641628Y-55051079D01*
X158532139Y-54887218D01*
X158532136Y-54887214D01*
X158392785Y-54747863D01*
X158392781Y-54747860D01*
X158228920Y-54638371D01*
X158228907Y-54638364D01*
X158046839Y-54562950D01*
X158046829Y-54562947D01*
X157853543Y-54524500D01*
X157853541Y-54524500D01*
X157656459Y-54524500D01*
X157656457Y-54524500D01*
X157463170Y-54562947D01*
X157463160Y-54562950D01*
X157281092Y-54638364D01*
X157281079Y-54638371D01*
X157117218Y-54747860D01*
X157117214Y-54747863D01*
X156977863Y-54887214D01*
X156977860Y-54887218D01*
X156868371Y-55051079D01*
X156868364Y-55051092D01*
X156792950Y-55233160D01*
X156792947Y-55233170D01*
X156754500Y-55426456D01*
X156754500Y-55426459D01*
X156754500Y-56423541D01*
X156754500Y-56423543D01*
X156754499Y-56423543D01*
X150115500Y-56423543D01*
X150115500Y-56423541D01*
X150115500Y-55426459D01*
X150115500Y-55426456D01*
X150077052Y-55233170D01*
X150077051Y-55233169D01*
X150077051Y-55233165D01*
X150063107Y-55199500D01*
X150001635Y-55051092D01*
X150001628Y-55051079D01*
X149892139Y-54887218D01*
X149892136Y-54887214D01*
X149752785Y-54747863D01*
X149752781Y-54747860D01*
X149588920Y-54638371D01*
X149588907Y-54638364D01*
X149406839Y-54562950D01*
X149406829Y-54562947D01*
X149213543Y-54524500D01*
X149213541Y-54524500D01*
X149016459Y-54524500D01*
X149016457Y-54524500D01*
X148823170Y-54562947D01*
X148823160Y-54562950D01*
X148641092Y-54638364D01*
X148641079Y-54638371D01*
X148477218Y-54747860D01*
X148477214Y-54747863D01*
X148337863Y-54887214D01*
X148337860Y-54887218D01*
X148228371Y-55051079D01*
X148228364Y-55051092D01*
X148152950Y-55233160D01*
X148152947Y-55233170D01*
X148114500Y-55426456D01*
X148114500Y-55426459D01*
X148114500Y-56423541D01*
X148114500Y-56423543D01*
X148114499Y-56423543D01*
X118500500Y-56423543D01*
X118500500Y-50504427D01*
X118500816Y-50495581D01*
X118515130Y-50295443D01*
X118515131Y-50295442D01*
X118515130Y-50295436D01*
X118517646Y-50277938D01*
X118559356Y-50086200D01*
X118564335Y-50069242D01*
X118632911Y-49885382D01*
X118640251Y-49869310D01*
X118734294Y-49697083D01*
X118743850Y-49682214D01*
X118861443Y-49525128D01*
X118873017Y-49511771D01*
X119011771Y-49373017D01*
X119025128Y-49361443D01*
X119182214Y-49243850D01*
X119197083Y-49234294D01*
X119369310Y-49140251D01*
X119385382Y-49132911D01*
X119569242Y-49064335D01*
X119586200Y-49059356D01*
X119777938Y-49017646D01*
X119795436Y-49015130D01*
X119995582Y-49000816D01*
X120004428Y-49000500D01*
X120065892Y-49000500D01*
X145934108Y-49000500D01*
X145995572Y-49000500D01*
X146004418Y-49000816D01*
G37*
%TD.AperFunction*%
%TD*%
M02*
