M48
; DRILL file KiCad 10.0.5 date 2026-08-27T14:46:01
; FORMAT={-:-/ absolute / metric / decimal}
; #@! TF.CreationDate,2026-08-27T14:46:01+05:30
; #@! TF.GenerationSoftware,Kicad,Pcbnew,10.0.5
; #@! TF.FileFunction,Plated,1,4,PTH
FMAT,2
METRIC
; #@! TA.AperFunction,Plated,PTH,ViaDrill
T1C0.300
; #@! TA.AperFunction,Plated,PTH,ComponentDrill
T2C0.600
; #@! TA.AperFunction,Plated,PTH,ComponentDrill
T3C1.000
; #@! TA.AperFunction,Plated,PTH,ComponentDrill
T4C1.500
%
G90
G05
T1
X137.77Y-76.0
X138.27Y-55.5
X152.5Y-63.0
X154.5Y-63.0
X156.0Y-58.0
X156.5Y-70.0
X157.5Y-64.5
X157.5Y-69.0
X159.5Y-58.5
X162.0Y-78.5
X170.0Y-57.0
X170.0Y-62.0
X170.0Y-69.5
X173.5Y-64.0
X173.5Y-65.5
X174.0Y-66.587
X174.0Y-67.787
X177.594Y-66.594
X178.0Y-70.5
X178.0Y-73.5
X178.5Y-56.5
X182.445Y-68.055
X183.0Y-65.0
X183.0Y-69.0
X183.544Y-67.456
X185.0Y-77.5
X189.5Y-66.5
X190.5Y-77.0
X191.5Y-86.0
X192.0Y-64.5
X192.0Y-78.0
X192.5Y-56.0
X192.5Y-83.5
X193.0Y-65.0
X193.0Y-67.5
X193.0Y-72.0
X193.5Y-60.0
X193.5Y-62.0
X196.5Y-67.5
X197.5Y-79.0
X198.5Y-57.0
X201.52Y-70.76
X204.52Y-69.26
X204.52Y-70.76
X207.65Y-66.65
T3
X204.8Y-53.587
T4
X130.27Y-61.0
X130.54Y-80.96
X136.62Y-58.46
X136.89Y-78.42
T2
G00X149.115Y-56.325
M15
G01X149.115Y-55.525
M16
G05
G00X149.115Y-60.655
M15
G01X149.115Y-59.555
M16
G05
G00X157.755Y-56.325
M15
G01X157.755Y-55.525
M16
G05
G00X157.755Y-60.655
M15
G01X157.755Y-59.555
M16
G05
M30
