%TF.GenerationSoftware,KiCad,Pcbnew,10.0.5*%
%TF.CreationDate,2026-08-17T17:14:11+05:30*%
%TF.ProjectId,lora-v2,6c6f7261-2d76-4322-9e6b-696361645f70,rev?*%
%TF.SameCoordinates,Original*%
%TF.FileFunction,Copper,L4,Bot*%
%TF.FilePolarity,Positive*%
%FSLAX46Y46*%
G04 Gerber Fmt 4.6, Leading zero omitted, Abs format (unit mm)*
G04 Created by KiCad (PCBNEW 10.0.5) date 2026-08-17 17:14:11*
%MOMM*%
%LPD*%
G01*
G04 APERTURE LIST*
%TA.AperFunction,ComponentPad*%
%ADD10C,2.200000*%
%TD*%
%TA.AperFunction,ComponentPad*%
%ADD11O,1.000000X2.100000*%
%TD*%
%TA.AperFunction,ComponentPad*%
%ADD12O,1.000000X1.800000*%
%TD*%
%TA.AperFunction,ComponentPad*%
%ADD13R,1.700000X1.700000*%
%TD*%
%TA.AperFunction,ViaPad*%
%ADD14C,0.600000*%
%TD*%
%TA.AperFunction,Conductor*%
%ADD15C,0.200000*%
%TD*%
G04 APERTURE END LIST*
D10*
%TO.P,SW1,1,1_1*%
%TO.N,Earth*%
X125540000Y-68420000D03*
%TO.P,SW1,2,2_2*%
%TO.N,Net-(R7-Pad2)*%
X119190000Y-70960000D03*
%TD*%
D11*
%TO.P,J1,SH,SHIELD_SH*%
%TO.N,Net-(J1-SHIELD)*%
X162710000Y-68500000D03*
D12*
X162710000Y-64320000D03*
D11*
X154070000Y-68500000D03*
D12*
X154070000Y-64320000D03*
%TD*%
D10*
%TO.P,SW2,1,1_1*%
%TO.N,Earth*%
X125350000Y-88460000D03*
%TO.P,SW2,2,2_2*%
%TO.N,/RUN*%
X119000000Y-91000000D03*
%TD*%
D13*
%TO.P,AE1,1,A_1*%
%TO.N,Net-(AE1-A)*%
X154500000Y-100000000D03*
%TD*%
D14*
%TO.N,Earth*%
X165600000Y-78000000D03*
X182500000Y-77000000D03*
X162000000Y-70500000D03*
X175500000Y-96500000D03*
X147500000Y-92500000D03*
X171000000Y-100000000D03*
X166000000Y-95000000D03*
X181000000Y-72500000D03*
X151500000Y-81000000D03*
X180000000Y-87000000D03*
X143000000Y-94500000D03*
X140500000Y-74000000D03*
X137500000Y-92500000D03*
X184500000Y-96500000D03*
X162500000Y-90000000D03*
X163500000Y-86000000D03*
X150600000Y-82500000D03*
X154000000Y-90500000D03*
X123000000Y-68500000D03*
X179000000Y-70500000D03*
X137500000Y-100500000D03*
X150500000Y-84200000D03*
X169500000Y-66500000D03*
X175000000Y-79500000D03*
X161000000Y-87000000D03*
X174500000Y-67000000D03*
X162000000Y-100000000D03*
X155000000Y-70500000D03*
X123000000Y-88500000D03*
X166400000Y-83500000D03*
X139000000Y-69000000D03*
X161000000Y-85400000D03*
%TO.N,/QSPI_SS*%
X135500000Y-67820000D03*
X138000000Y-69020000D03*
%TO.N,Net-(R7-Pad2)*%
X166750000Y-75249999D03*
X167825735Y-78174265D03*
X185500000Y-99000000D03*
X166000000Y-71100000D03*
X167500000Y-79400000D03*
X169000000Y-71100000D03*
%TO.N,+3V3*%
X147000000Y-82500000D03*
X144000000Y-76000000D03*
X161174265Y-84174265D03*
X158500000Y-83000000D03*
X135500000Y-80500000D03*
X151500000Y-91500000D03*
X153000000Y-75000000D03*
X148000000Y-64000000D03*
X154500000Y-75500000D03*
X144500000Y-80000000D03*
X147000000Y-79000000D03*
X179500000Y-77000000D03*
X171000000Y-78000000D03*
X165000000Y-98000000D03*
X177500000Y-98000000D03*
X144000000Y-78000000D03*
X157672334Y-86819802D03*
X143000000Y-73000000D03*
X144000000Y-86500000D03*
X164500000Y-90000000D03*
X171000000Y-80000000D03*
X178000000Y-101500000D03*
X153000000Y-86500000D03*
X143000000Y-99500000D03*
%TO.N,VBUS*%
X148000000Y-76500000D03*
X156000000Y-71100000D03*
%TO.N,/USB_DP*%
X169965735Y-81034265D03*
X158500000Y-73500000D03*
X160000000Y-73500000D03*
X172500000Y-98600000D03*
%TO.N,/USB_DM*%
X160000000Y-71500000D03*
X174381427Y-95900000D03*
X175500000Y-94000000D03*
X158000000Y-71500000D03*
%TO.N,Net-(J1-CC2)*%
X183000000Y-94500000D03*
X157742556Y-73242556D03*
%TO.N,Net-(J1-SHIELD)*%
X153000000Y-66120000D03*
X161500000Y-63000000D03*
X166569832Y-96720168D03*
X155000000Y-63000000D03*
X155500000Y-66500000D03*
X165098529Y-67901471D03*
X164500000Y-69000000D03*
X155500000Y-74000000D03*
%TO.N,Net-(U2-DCC_SW)*%
X171500000Y-95420000D03*
X165000000Y-99000000D03*
%TO.N,Net-(U2-VREG)*%
X169500000Y-84000000D03*
X160162944Y-87860000D03*
X162900000Y-92000000D03*
X165174265Y-93325735D03*
X167775735Y-100900000D03*
%TO.N,Net-(U1-USB_DM)*%
X156000000Y-87000000D03*
X154472613Y-84124084D03*
%TO.N,/SX_XTA*%
X172065687Y-74565687D03*
X159674265Y-85674265D03*
%TO.N,/SX_XTB*%
X158901470Y-86598529D03*
X171500000Y-74000000D03*
%TO.N,/SX_DIO2*%
X173829341Y-95300000D03*
X175000000Y-93000000D03*
%TO.N,/SX_BUSY*%
X170013498Y-87093896D03*
X169736101Y-85843494D03*
%TO.N,/SX_RFI_P*%
X166000000Y-79400000D03*
X166400000Y-82699997D03*
%TO.N,/SX_RFI_N*%
X163500000Y-83000000D03*
X161000000Y-79600000D03*
%TO.N,/SX_RFO*%
X165000000Y-73500000D03*
X160600000Y-82594963D03*
X161000000Y-75500000D03*
X177000000Y-105000000D03*
X159000000Y-77500000D03*
X164500000Y-71100000D03*
%TO.N,/SX_VR_PA*%
X168600000Y-89000000D03*
X161401471Y-89098529D03*
X170500000Y-91000000D03*
X167500000Y-102500000D03*
%TO.N,Net-(C7-Pad2)*%
X177900000Y-91000000D03*
X179500000Y-95900000D03*
%TO.N,Net-(AE1-A)*%
X150500000Y-100550000D03*
X178500000Y-92000000D03*
X178851471Y-93500000D03*
%TO.N,/RF1*%
X164383882Y-77400000D03*
X147000000Y-91500000D03*
%TO.N,/RF2*%
X158500000Y-90500000D03*
X160000000Y-77000000D03*
%TO.N,Net-(U3-CTRL)*%
X151434313Y-93934313D03*
X174000000Y-91500000D03*
X171500000Y-91500000D03*
%TO.N,Net-(U3-RFC)*%
X160500000Y-92500000D03*
X173500000Y-88500000D03*
X171114265Y-89885735D03*
X171000000Y-88500000D03*
X153664265Y-94164265D03*
X180000000Y-98000000D03*
X152500000Y-93500000D03*
%TO.N,/RUN*%
X160500000Y-104000000D03*
X159500000Y-94000000D03*
%TO.N,/XIN*%
X152000000Y-94500000D03*
X152000000Y-96000000D03*
%TO.N,/SX_NSS*%
X157500000Y-85000000D03*
X155100000Y-83000000D03*
%TO.N,Net-(U1-USB_DP)*%
X155375735Y-87860000D03*
X153500000Y-84000000D03*
%TD*%
%TO.N,Earth*%
D15*
X150600000Y-82500000D02*
X150600000Y-84100000D01*
X150600000Y-84100000D02*
X150500000Y-84200000D01*
%TO.N,/QSPI_SS*%
X136800000Y-67820000D02*
X138000000Y-69020000D01*
X135500000Y-67820000D02*
X136800000Y-67820000D01*
%TO.N,Net-(R7-Pad2)*%
X166750000Y-77250000D02*
X166750000Y-75249999D01*
X185500000Y-93651471D02*
X185500000Y-99000000D01*
X167674265Y-78174265D02*
X166750000Y-77250000D01*
X167500000Y-79400000D02*
X171248529Y-79400000D01*
X171248529Y-79400000D02*
X185500000Y-93651471D01*
X169000000Y-71100000D02*
X166000000Y-71100000D01*
X167825735Y-78174265D02*
X167674265Y-78174265D01*
%TO.N,VBUS*%
X148000000Y-76500000D02*
X150600000Y-76500000D01*
X150600000Y-76500000D02*
X156000000Y-71100000D01*
%TO.N,/USB_DP*%
X171100000Y-82382745D02*
X171100000Y-85100001D01*
X176500000Y-92400000D02*
X175248529Y-92400000D01*
X175600000Y-93248529D02*
X175448529Y-93400000D01*
X175000000Y-96100000D02*
X174981427Y-96118573D01*
X170165735Y-81234265D02*
X170165735Y-81448480D01*
X173251471Y-89100000D02*
X173748529Y-89100000D01*
X176100000Y-93751471D02*
X176100000Y-94248529D01*
X174629956Y-96500000D02*
X174600000Y-96500000D01*
X174981427Y-96148529D02*
X174629956Y-96500000D01*
X172500000Y-87565686D02*
X173042893Y-88108578D01*
X175748529Y-93400000D02*
X176100000Y-93751471D01*
X172900000Y-88748529D02*
X173251471Y-89100000D01*
X173748529Y-89100000D02*
X173948529Y-88900000D01*
X175600000Y-92751471D02*
X175600000Y-93248529D01*
X170165735Y-81448480D02*
X171100000Y-82382745D01*
X172900000Y-88251471D02*
X172900000Y-88748529D01*
X172500000Y-86500001D02*
X172500000Y-87565686D01*
X175465686Y-94600000D02*
X175000000Y-95065686D01*
X171100000Y-85100001D02*
X172500000Y-86500001D01*
X158500000Y-73500000D02*
X160000000Y-73500000D01*
X175000000Y-95065686D02*
X175000000Y-96100000D01*
X174899999Y-88900000D02*
X176500000Y-90500001D01*
X174600000Y-96500000D02*
X172500000Y-98600000D01*
X173042893Y-88108578D02*
X172900000Y-88251471D01*
X175248529Y-92400000D02*
X175600000Y-92751471D01*
X169965735Y-81034265D02*
X170165735Y-81234265D01*
X175748529Y-94600000D02*
X175465686Y-94600000D01*
X176500000Y-90500001D02*
X176500000Y-92400000D01*
X176100000Y-94248529D02*
X175748529Y-94600000D01*
X173948529Y-88900000D02*
X174899999Y-88900000D01*
X174981427Y-96118573D02*
X174981427Y-96148529D01*
X175448529Y-93400000D02*
X175748529Y-93400000D01*
%TO.N,/USB_DM*%
X174500000Y-95781427D02*
X174500000Y-95000000D01*
X158000000Y-71500000D02*
X160000000Y-71500000D01*
X174500000Y-95000000D02*
X175500000Y-94000000D01*
X174381427Y-95900000D02*
X174500000Y-95781427D01*
%TO.N,Net-(J1-CC2)*%
X160185112Y-79000000D02*
X165500000Y-79000000D01*
X172900000Y-87400000D02*
X173400000Y-87900000D01*
X167948529Y-79800000D02*
X167948529Y-79948529D01*
X167748529Y-80000000D02*
X167948529Y-79800000D01*
X160248529Y-76400000D02*
X160600000Y-76751471D01*
X157742556Y-76742556D02*
X158400000Y-77400000D01*
X159400000Y-77051471D02*
X159400000Y-76751471D01*
X159248529Y-76900000D02*
X159400000Y-77051471D01*
X158400000Y-77251471D02*
X158751471Y-76900000D01*
X170565735Y-80785736D02*
X170565735Y-81282794D01*
X158400000Y-77400000D02*
X158400000Y-77251471D01*
X176579901Y-88100000D02*
X180900000Y-92420100D01*
X180900000Y-94500000D02*
X183000000Y-94500000D01*
X169717206Y-80434265D02*
X170214264Y-80434265D01*
X170565735Y-81282794D02*
X171500000Y-82217059D01*
X160600000Y-76751471D02*
X160600000Y-77248529D01*
X173748529Y-87900000D02*
X173948529Y-88100000D01*
X165500000Y-79000000D02*
X165900000Y-78600000D01*
X158342556Y-79723130D02*
X158342556Y-80842556D01*
X159400000Y-76751471D02*
X159751471Y-76400000D01*
X160600000Y-77248529D02*
X160400000Y-77448529D01*
X157742556Y-73242556D02*
X157742556Y-76742556D01*
X173400000Y-87900000D02*
X173748529Y-87900000D01*
X171500000Y-82217059D02*
X171500000Y-84934315D01*
X158342556Y-80842556D02*
X160185112Y-79000000D01*
X159751471Y-76400000D02*
X160248529Y-76400000D01*
X160400000Y-77665686D02*
X158342556Y-79723130D01*
X170214264Y-80434265D02*
X170565735Y-80785736D01*
X171500000Y-84934315D02*
X172900000Y-86334315D01*
X169365735Y-80785736D02*
X169717206Y-80434265D01*
X167948529Y-79948529D02*
X169000000Y-81000000D01*
X173948529Y-88100000D02*
X176579901Y-88100000D01*
X166100000Y-78600000D02*
X166900000Y-79400000D01*
X165900000Y-78600000D02*
X166100000Y-78600000D01*
X158751471Y-76900000D02*
X159248529Y-76900000D01*
X166900000Y-79400000D02*
X166900000Y-79648529D01*
X160400000Y-77448529D02*
X160400000Y-77665686D01*
X166900000Y-79648529D02*
X167251471Y-80000000D01*
X180900000Y-92420100D02*
X180900000Y-94500000D01*
X172900000Y-86334315D02*
X172900000Y-87400000D01*
X169000000Y-81000000D02*
X169214264Y-80785736D01*
X167251471Y-80000000D02*
X167748529Y-80000000D01*
X169214264Y-80785736D02*
X169365735Y-80785736D01*
%TO.N,Net-(J1-SHIELD)*%
X161500000Y-63000000D02*
X155000000Y-63000000D01*
X154600000Y-90600000D02*
X154748529Y-90748529D01*
X154600000Y-90251471D02*
X154600000Y-90600000D01*
X153900000Y-89900000D02*
X154248529Y-89900000D01*
X152500000Y-88500000D02*
X153900000Y-89900000D01*
X155500000Y-74000000D02*
X155500000Y-80585786D01*
X163871639Y-96720168D02*
X166569832Y-96720168D01*
X154248529Y-89900000D02*
X154600000Y-90251471D01*
X157900000Y-90748529D02*
X163871639Y-96720168D01*
X164500000Y-68500000D02*
X165098529Y-67901471D01*
X154748529Y-90748529D02*
X157900000Y-90748529D01*
X155500000Y-80585786D02*
X152500000Y-83585786D01*
X152500000Y-83585786D02*
X152500000Y-86151471D01*
X152500000Y-86151471D02*
X152400000Y-86251471D01*
X155120000Y-66120000D02*
X155500000Y-66500000D01*
X164500000Y-69000000D02*
X164500000Y-68500000D01*
X153000000Y-66120000D02*
X155120000Y-66120000D01*
X152400000Y-86748529D02*
X152500000Y-86848529D01*
X152400000Y-86251471D02*
X152400000Y-86748529D01*
X152500000Y-86848529D02*
X152500000Y-88500000D01*
%TO.N,Net-(U2-DCC_SW)*%
X168100000Y-102748529D02*
X167748529Y-103100000D01*
X167251471Y-103100000D02*
X165000000Y-100848529D01*
X165000000Y-100848529D02*
X165000000Y-99000000D01*
X170400000Y-99751471D02*
X170400000Y-102600000D01*
X171100000Y-96102843D02*
X171100000Y-99400000D01*
X170251471Y-102748529D02*
X168100000Y-102748529D01*
X171500000Y-95420000D02*
X171500000Y-95702843D01*
X170751471Y-99400000D02*
X170400000Y-99751471D01*
X171100000Y-99400000D02*
X170751471Y-99400000D01*
X167748529Y-103100000D02*
X167251471Y-103100000D01*
X171500000Y-95702843D02*
X171100000Y-96102843D01*
X170400000Y-102600000D02*
X170251471Y-102748529D01*
%TO.N,Net-(U2-VREG)*%
X167775735Y-100900000D02*
X167775735Y-95927205D01*
X159261472Y-88761472D02*
X161100000Y-90600000D01*
X160162944Y-87860000D02*
X163140000Y-87860000D01*
X161500000Y-90600000D02*
X162900000Y-92000000D01*
X167000000Y-84000000D02*
X169500000Y-84000000D01*
X160162944Y-87860000D02*
X159261472Y-88761472D01*
X161100000Y-90600000D02*
X161500000Y-90600000D01*
X167775735Y-95927205D02*
X165174265Y-93325735D01*
X163140000Y-87860000D02*
X167000000Y-84000000D01*
%TO.N,Net-(U1-USB_DM)*%
X154472613Y-84124084D02*
X155124084Y-84124084D01*
X156000000Y-85000000D02*
X156000000Y-87000000D01*
X155124084Y-84124084D02*
X156000000Y-85000000D01*
%TO.N,/SX_XTA*%
X152900000Y-83751471D02*
X152900000Y-85900000D01*
X170591085Y-72242556D02*
X157328341Y-72242556D01*
X153248529Y-87100000D02*
X152900000Y-87100000D01*
X172100000Y-73751471D02*
X170591085Y-72242556D01*
X153248529Y-85900000D02*
X153600000Y-86251471D01*
X172065687Y-74565687D02*
X172100000Y-74531374D01*
X159600001Y-86748525D02*
X159674265Y-86674262D01*
X159674265Y-86674262D02*
X159674265Y-85674265D01*
X153600000Y-86251471D02*
X153600000Y-86748529D01*
X172100000Y-74531374D02*
X172100000Y-73751471D01*
X159600000Y-86848529D02*
X159600001Y-86748525D01*
X152900000Y-85900000D02*
X153248529Y-85900000D01*
X153600000Y-86748529D02*
X153248529Y-87100000D01*
X157328341Y-72242556D02*
X156742556Y-72828342D01*
X152900000Y-88334314D02*
X153565686Y-89000000D01*
X159500001Y-86848529D02*
X159600000Y-86848529D01*
X157348529Y-89000000D02*
X159500001Y-86848529D01*
X152900000Y-87100000D02*
X152900000Y-88334314D01*
X153565686Y-89000000D02*
X157348529Y-89000000D01*
X156742556Y-72828342D02*
X156742556Y-79908915D01*
X156742556Y-79908915D02*
X152900000Y-83751471D01*
%TO.N,/SX_XTB*%
X159302942Y-85000000D02*
X160000000Y-85000000D01*
X158901471Y-86598528D02*
X158901471Y-85401471D01*
X158901470Y-86598529D02*
X158901471Y-86598528D01*
X157142556Y-72994027D02*
X157494027Y-72642556D01*
X158000000Y-84500000D02*
X157142556Y-83642556D01*
X160000000Y-85000000D02*
X159500000Y-84500000D01*
X170142556Y-72642556D02*
X171500000Y-74000000D01*
X159500000Y-84500000D02*
X158000000Y-84500000D01*
X157494027Y-72642556D02*
X170142556Y-72642556D01*
X157142556Y-83642556D02*
X157142556Y-72994027D01*
X158901471Y-85401471D02*
X159302942Y-85000000D01*
%TO.N,/SX_DIO2*%
X175000000Y-93000000D02*
X173829341Y-94170659D01*
X173829341Y-94170659D02*
X173829341Y-95300000D01*
%TO.N,/SX_BUSY*%
X169736101Y-85843494D02*
X169736101Y-86816499D01*
X169736101Y-86816499D02*
X170013498Y-87093896D01*
%TO.N,/SX_RFI_P*%
X166400000Y-82400000D02*
X166000000Y-82000000D01*
X166400000Y-82699997D02*
X166400000Y-82400000D01*
X166000000Y-82000000D02*
X166000000Y-79400000D01*
%TO.N,/SX_RFI_N*%
X163500000Y-82100000D02*
X161000000Y-79600000D01*
X163500000Y-83000000D02*
X163500000Y-82100000D01*
%TO.N,/SX_RFO*%
X160600000Y-82100000D02*
X160500000Y-82000000D01*
X163000000Y-73500000D02*
X161000000Y-75500000D01*
X160600000Y-82594963D02*
X160600000Y-82100000D01*
X157542556Y-82000000D02*
X157542556Y-78500000D01*
X160500000Y-82000000D02*
X157542556Y-82000000D01*
X186100000Y-86620100D02*
X169979900Y-70500000D01*
X158000000Y-78500000D02*
X159000000Y-77500000D01*
X180348529Y-105000000D02*
X186100000Y-99248529D01*
X157542556Y-78500000D02*
X158000000Y-78500000D01*
X165000000Y-73500000D02*
X163000000Y-73500000D01*
X164500000Y-71000000D02*
X164500000Y-71100000D01*
X169979900Y-70500000D02*
X165000000Y-70500000D01*
X165000000Y-70500000D02*
X164500000Y-71000000D01*
X177000000Y-105000000D02*
X180348529Y-105000000D01*
X186100000Y-99248529D02*
X186100000Y-86620100D01*
%TO.N,/SX_VR_PA*%
X170500000Y-91000000D02*
X170500000Y-92400000D01*
X161500000Y-89000000D02*
X168600000Y-89000000D01*
X161401471Y-89098529D02*
X161500000Y-89000000D01*
X170500000Y-92400000D02*
X168500000Y-94400000D01*
X168500000Y-101500000D02*
X167500000Y-102500000D01*
X168500000Y-94400000D02*
X168500000Y-101500000D01*
%TO.N,Net-(C7-Pad2)*%
X179500000Y-92151471D02*
X179500000Y-95900000D01*
X177900000Y-91000000D02*
X178348529Y-91000000D01*
X178348529Y-91000000D02*
X179500000Y-92151471D01*
%TO.N,Net-(AE1-A)*%
X169400000Y-105000000D02*
X154950000Y-105000000D01*
X178500000Y-92000000D02*
X178500000Y-93148529D01*
X178851471Y-95548529D02*
X178851471Y-93500000D01*
X154950000Y-105000000D02*
X150500000Y-100550000D01*
X178851471Y-95548529D02*
X169400000Y-105000000D01*
X178500000Y-93148529D02*
X178851471Y-93500000D01*
%TO.N,/RF1*%
X164383882Y-74981804D02*
X164765686Y-74600000D01*
X147500000Y-91000000D02*
X147000000Y-91500000D01*
X170756770Y-71842556D02*
X161191085Y-71842556D01*
X164765686Y-74600000D02*
X171251471Y-74600000D01*
X154900000Y-74248529D02*
X148100000Y-81048529D01*
X147500000Y-89500000D02*
X147500000Y-91000000D01*
X172665687Y-74814216D02*
X172665687Y-73751473D01*
X160248529Y-70900000D02*
X157751471Y-70900000D01*
X171251471Y-74600000D02*
X171817158Y-75165687D01*
X157751471Y-70900000D02*
X154900000Y-73751471D01*
X154900000Y-73751471D02*
X154900000Y-74248529D01*
X164383882Y-77400000D02*
X164383882Y-74981804D01*
X172665687Y-73751473D02*
X170756770Y-71842556D01*
X148100000Y-87900000D02*
X147000000Y-89000000D01*
X148100000Y-81048529D02*
X148100000Y-87900000D01*
X161191085Y-71842556D02*
X160248529Y-70900000D01*
X171817158Y-75165687D02*
X172314216Y-75165687D01*
X147000000Y-89000000D02*
X147500000Y-89500000D01*
X172314216Y-75165687D02*
X172665687Y-74814216D01*
%TO.N,/RF2*%
X160148529Y-83500000D02*
X160500000Y-83851471D01*
X161000000Y-82146434D02*
X161200000Y-82346434D01*
X160500000Y-85051471D02*
X160400000Y-85151471D01*
X160328254Y-83171746D02*
X160148529Y-83351471D01*
X160148529Y-83351471D02*
X160148529Y-83500000D01*
X160665686Y-81600000D02*
X161000000Y-81934315D01*
X160848529Y-83194963D02*
X160351471Y-83194963D01*
X160207107Y-85358578D02*
X160274265Y-85425736D01*
X157942556Y-79557444D02*
X157942556Y-81600000D01*
X160000000Y-77500000D02*
X157942556Y-79557444D01*
X157942556Y-81600000D02*
X160665686Y-81600000D01*
X161200000Y-82346434D02*
X161200000Y-82843492D01*
X160000000Y-86914214D02*
X160000000Y-87248529D01*
X161000000Y-81934315D02*
X161000000Y-82146434D01*
X160500000Y-83851471D02*
X160500000Y-85051471D01*
X160074265Y-86839950D02*
X160000000Y-86914214D01*
X160274265Y-85922794D02*
X160074265Y-86122794D01*
X160000000Y-77000000D02*
X160000000Y-77500000D01*
X160274265Y-85425736D02*
X160274265Y-85922794D01*
X160400000Y-85151471D02*
X160400000Y-85165685D01*
X160000000Y-87248529D02*
X159665686Y-87248529D01*
X160400000Y-85165685D02*
X160207107Y-85358578D01*
X160351471Y-83194963D02*
X160328254Y-83171746D01*
X158500000Y-88414215D02*
X158500000Y-90500000D01*
X161200000Y-82843492D02*
X160848529Y-83194963D01*
X160074265Y-86122794D02*
X160074265Y-86839950D01*
X159665686Y-87248529D02*
X158500000Y-88414215D01*
%TO.N,Net-(U3-CTRL)*%
X171500000Y-100500000D02*
X172417157Y-101417157D01*
X172100000Y-95100000D02*
X172100000Y-95668529D01*
X170500000Y-93500000D02*
X172100000Y-95100000D01*
X167914215Y-103500000D02*
X167085785Y-103500000D01*
X171600000Y-100248529D02*
X171500000Y-100348529D01*
X173500000Y-91000000D02*
X174000000Y-91500000D01*
X167085785Y-103500000D02*
X163905953Y-100320168D01*
X171500000Y-92500000D02*
X170500000Y-93500000D01*
X171500000Y-91500000D02*
X172000000Y-91000000D01*
X171500000Y-100348529D02*
X171500000Y-100500000D01*
X163905953Y-100320168D02*
X163905953Y-97320168D01*
X169334314Y-104500000D02*
X168914215Y-104500000D01*
X168914215Y-104500000D02*
X167914215Y-103500000D01*
X172100000Y-95668529D02*
X171500000Y-96268529D01*
X151434313Y-93717158D02*
X151434313Y-93934313D01*
X171600000Y-99751471D02*
X171600000Y-100248529D01*
X163905953Y-97320168D02*
X159485785Y-92900000D01*
X152251471Y-92900000D02*
X151434313Y-93717158D01*
X172417157Y-101417157D02*
X169334314Y-104500000D01*
X159485785Y-92900000D02*
X152251471Y-92900000D01*
X171500000Y-99651471D02*
X171600000Y-99751471D01*
X171500000Y-96268529D02*
X171500000Y-99651471D01*
X172000000Y-91000000D02*
X173500000Y-91000000D01*
X171500000Y-91500000D02*
X171500000Y-92500000D01*
%TO.N,Net-(U3-RFC)*%
X171114265Y-89885735D02*
X171114265Y-88614265D01*
X171000000Y-88500000D02*
X166891421Y-92608579D01*
X176414215Y-88500000D02*
X173500000Y-88500000D01*
X180500000Y-97500000D02*
X180500000Y-92585785D01*
X153664265Y-94164265D02*
X153164265Y-94164265D01*
X180500000Y-92585785D02*
X176414215Y-88500000D01*
X160608579Y-92608579D02*
X160500000Y-92500000D01*
X171114265Y-88614265D02*
X171000000Y-88500000D01*
X166891421Y-92608579D02*
X160608579Y-92608579D01*
X153164265Y-94164265D02*
X152500000Y-93500000D01*
X180000000Y-98000000D02*
X180500000Y-97500000D01*
%TO.N,/RUN*%
X160500000Y-95000000D02*
X159500000Y-94000000D01*
X160500000Y-104000000D02*
X160500000Y-95000000D01*
%TO.N,/XIN*%
X152000000Y-96000000D02*
X152000000Y-94500000D01*
%TO.N,/SX_NSS*%
X157100000Y-85000000D02*
X155100000Y-83000000D01*
X157500000Y-85000000D02*
X157100000Y-85000000D01*
%TO.N,Net-(U1-USB_DP)*%
X155375735Y-87860000D02*
X155375735Y-87201470D01*
X155000000Y-85500000D02*
X153500000Y-84000000D01*
X155000000Y-86825735D02*
X155000000Y-85500000D01*
X155375735Y-87201470D02*
X155000000Y-86825735D01*
%TD*%
M02*
