%TF.GenerationSoftware,KiCad,Pcbnew,10.0.5*%
%TF.CreationDate,2026-08-27T14:46:11+05:30*%
%TF.ProjectId,lora-v2,6c6f7261-2d76-4322-9e6b-696361645f70,rev?*%
%TF.SameCoordinates,Original*%
%TF.FileFunction,Legend,Top*%
%TF.FilePolarity,Positive*%
%FSLAX46Y46*%
G04 Gerber Fmt 4.6, Leading zero omitted, Abs format (unit mm)*
G04 Created by KiCad (PCBNEW 10.0.5) date 2026-08-27 14:46:11*
%MOMM*%
%LPD*%
G01*
G04 APERTURE LIST*
%ADD10C,0.100000*%
%ADD11C,0.150000*%
%ADD12C,0.120000*%
G04 APERTURE END LIST*
D10*
X201803884Y-96491466D02*
X202565789Y-96491466D01*
X203803884Y-96872419D02*
X203803884Y-95872419D01*
X203803884Y-96253371D02*
X203899122Y-96205752D01*
X203899122Y-96205752D02*
X204089598Y-96205752D01*
X204089598Y-96205752D02*
X204184836Y-96253371D01*
X204184836Y-96253371D02*
X204232455Y-96300990D01*
X204232455Y-96300990D02*
X204280074Y-96396228D01*
X204280074Y-96396228D02*
X204280074Y-96681942D01*
X204280074Y-96681942D02*
X204232455Y-96777180D01*
X204232455Y-96777180D02*
X204184836Y-96824800D01*
X204184836Y-96824800D02*
X204089598Y-96872419D01*
X204089598Y-96872419D02*
X203899122Y-96872419D01*
X203899122Y-96872419D02*
X203803884Y-96824800D01*
X204613408Y-96205752D02*
X204851503Y-96872419D01*
X205089598Y-96205752D02*
X204851503Y-96872419D01*
X204851503Y-96872419D02*
X204756265Y-97110514D01*
X204756265Y-97110514D02*
X204708646Y-97158133D01*
X204708646Y-97158133D02*
X204613408Y-97205752D01*
X206184837Y-96586704D02*
X206661027Y-96586704D01*
X206089599Y-96872419D02*
X206422932Y-95872419D01*
X206422932Y-95872419D02*
X206756265Y-96872419D01*
X206994361Y-96205752D02*
X207232456Y-96872419D01*
X207470551Y-96205752D02*
X207232456Y-96872419D01*
X207232456Y-96872419D02*
X207137218Y-97110514D01*
X207137218Y-97110514D02*
X207089599Y-97158133D01*
X207089599Y-97158133D02*
X206994361Y-97205752D01*
X208280075Y-96205752D02*
X208280075Y-96872419D01*
X207851504Y-96205752D02*
X207851504Y-96729561D01*
X207851504Y-96729561D02*
X207899123Y-96824800D01*
X207899123Y-96824800D02*
X207994361Y-96872419D01*
X207994361Y-96872419D02*
X208137218Y-96872419D01*
X208137218Y-96872419D02*
X208232456Y-96824800D01*
X208232456Y-96824800D02*
X208280075Y-96777180D01*
X208708647Y-96824800D02*
X208803885Y-96872419D01*
X208803885Y-96872419D02*
X208994361Y-96872419D01*
X208994361Y-96872419D02*
X209089599Y-96824800D01*
X209089599Y-96824800D02*
X209137218Y-96729561D01*
X209137218Y-96729561D02*
X209137218Y-96681942D01*
X209137218Y-96681942D02*
X209089599Y-96586704D01*
X209089599Y-96586704D02*
X208994361Y-96539085D01*
X208994361Y-96539085D02*
X208851504Y-96539085D01*
X208851504Y-96539085D02*
X208756266Y-96491466D01*
X208756266Y-96491466D02*
X208708647Y-96396228D01*
X208708647Y-96396228D02*
X208708647Y-96348609D01*
X208708647Y-96348609D02*
X208756266Y-96253371D01*
X208756266Y-96253371D02*
X208851504Y-96205752D01*
X208851504Y-96205752D02*
X208994361Y-96205752D01*
X208994361Y-96205752D02*
X209089599Y-96253371D01*
X209565790Y-96872419D02*
X209565790Y-95872419D01*
X209994361Y-96872419D02*
X209994361Y-96348609D01*
X209994361Y-96348609D02*
X209946742Y-96253371D01*
X209946742Y-96253371D02*
X209851504Y-96205752D01*
X209851504Y-96205752D02*
X209708647Y-96205752D01*
X209708647Y-96205752D02*
X209613409Y-96253371D01*
X209613409Y-96253371D02*
X209565790Y-96300990D01*
D11*
X153768333Y-63045180D02*
X153768333Y-62330895D01*
X153768333Y-62330895D02*
X153815952Y-62188038D01*
X153815952Y-62188038D02*
X153911190Y-62092800D01*
X153911190Y-62092800D02*
X154054047Y-62045180D01*
X154054047Y-62045180D02*
X154149285Y-62045180D01*
X152768333Y-62045180D02*
X153339761Y-62045180D01*
X153054047Y-62045180D02*
X153054047Y-63045180D01*
X153054047Y-63045180D02*
X153149285Y-62902323D01*
X153149285Y-62902323D02*
X153244523Y-62807085D01*
X153244523Y-62807085D02*
X153339761Y-62759466D01*
X181694642Y-75009580D02*
X181647023Y-75057200D01*
X181647023Y-75057200D02*
X181504166Y-75104819D01*
X181504166Y-75104819D02*
X181408928Y-75104819D01*
X181408928Y-75104819D02*
X181266071Y-75057200D01*
X181266071Y-75057200D02*
X181170833Y-74961961D01*
X181170833Y-74961961D02*
X181123214Y-74866723D01*
X181123214Y-74866723D02*
X181075595Y-74676247D01*
X181075595Y-74676247D02*
X181075595Y-74533390D01*
X181075595Y-74533390D02*
X181123214Y-74342914D01*
X181123214Y-74342914D02*
X181170833Y-74247676D01*
X181170833Y-74247676D02*
X181266071Y-74152438D01*
X181266071Y-74152438D02*
X181408928Y-74104819D01*
X181408928Y-74104819D02*
X181504166Y-74104819D01*
X181504166Y-74104819D02*
X181647023Y-74152438D01*
X181647023Y-74152438D02*
X181694642Y-74200057D01*
X182647023Y-75104819D02*
X182075595Y-75104819D01*
X182361309Y-75104819D02*
X182361309Y-74104819D01*
X182361309Y-74104819D02*
X182266071Y-74247676D01*
X182266071Y-74247676D02*
X182170833Y-74342914D01*
X182170833Y-74342914D02*
X182075595Y-74390533D01*
X183123214Y-75104819D02*
X183313690Y-75104819D01*
X183313690Y-75104819D02*
X183408928Y-75057200D01*
X183408928Y-75057200D02*
X183456547Y-75009580D01*
X183456547Y-75009580D02*
X183551785Y-74866723D01*
X183551785Y-74866723D02*
X183599404Y-74676247D01*
X183599404Y-74676247D02*
X183599404Y-74295295D01*
X183599404Y-74295295D02*
X183551785Y-74200057D01*
X183551785Y-74200057D02*
X183504166Y-74152438D01*
X183504166Y-74152438D02*
X183408928Y-74104819D01*
X183408928Y-74104819D02*
X183218452Y-74104819D01*
X183218452Y-74104819D02*
X183123214Y-74152438D01*
X183123214Y-74152438D02*
X183075595Y-74200057D01*
X183075595Y-74200057D02*
X183027976Y-74295295D01*
X183027976Y-74295295D02*
X183027976Y-74533390D01*
X183027976Y-74533390D02*
X183075595Y-74628628D01*
X183075595Y-74628628D02*
X183123214Y-74676247D01*
X183123214Y-74676247D02*
X183218452Y-74723866D01*
X183218452Y-74723866D02*
X183408928Y-74723866D01*
X183408928Y-74723866D02*
X183504166Y-74676247D01*
X183504166Y-74676247D02*
X183551785Y-74628628D01*
X183551785Y-74628628D02*
X183599404Y-74533390D01*
X179148333Y-60372319D02*
X178672143Y-60372319D01*
X178672143Y-60372319D02*
X178672143Y-59372319D01*
X179434048Y-59467557D02*
X179481667Y-59419938D01*
X179481667Y-59419938D02*
X179576905Y-59372319D01*
X179576905Y-59372319D02*
X179815000Y-59372319D01*
X179815000Y-59372319D02*
X179910238Y-59419938D01*
X179910238Y-59419938D02*
X179957857Y-59467557D01*
X179957857Y-59467557D02*
X180005476Y-59562795D01*
X180005476Y-59562795D02*
X180005476Y-59658033D01*
X180005476Y-59658033D02*
X179957857Y-59800890D01*
X179957857Y-59800890D02*
X179386429Y-60372319D01*
X179386429Y-60372319D02*
X180005476Y-60372319D01*
X194633333Y-56787080D02*
X194585714Y-56834700D01*
X194585714Y-56834700D02*
X194442857Y-56882319D01*
X194442857Y-56882319D02*
X194347619Y-56882319D01*
X194347619Y-56882319D02*
X194204762Y-56834700D01*
X194204762Y-56834700D02*
X194109524Y-56739461D01*
X194109524Y-56739461D02*
X194061905Y-56644223D01*
X194061905Y-56644223D02*
X194014286Y-56453747D01*
X194014286Y-56453747D02*
X194014286Y-56310890D01*
X194014286Y-56310890D02*
X194061905Y-56120414D01*
X194061905Y-56120414D02*
X194109524Y-56025176D01*
X194109524Y-56025176D02*
X194204762Y-55929938D01*
X194204762Y-55929938D02*
X194347619Y-55882319D01*
X194347619Y-55882319D02*
X194442857Y-55882319D01*
X194442857Y-55882319D02*
X194585714Y-55929938D01*
X194585714Y-55929938D02*
X194633333Y-55977557D01*
X194966667Y-55882319D02*
X195633333Y-55882319D01*
X195633333Y-55882319D02*
X195204762Y-56882319D01*
X198859580Y-64642857D02*
X198907200Y-64690476D01*
X198907200Y-64690476D02*
X198954819Y-64833333D01*
X198954819Y-64833333D02*
X198954819Y-64928571D01*
X198954819Y-64928571D02*
X198907200Y-65071428D01*
X198907200Y-65071428D02*
X198811961Y-65166666D01*
X198811961Y-65166666D02*
X198716723Y-65214285D01*
X198716723Y-65214285D02*
X198526247Y-65261904D01*
X198526247Y-65261904D02*
X198383390Y-65261904D01*
X198383390Y-65261904D02*
X198192914Y-65214285D01*
X198192914Y-65214285D02*
X198097676Y-65166666D01*
X198097676Y-65166666D02*
X198002438Y-65071428D01*
X198002438Y-65071428D02*
X197954819Y-64928571D01*
X197954819Y-64928571D02*
X197954819Y-64833333D01*
X197954819Y-64833333D02*
X198002438Y-64690476D01*
X198002438Y-64690476D02*
X198050057Y-64642857D01*
X198050057Y-64261904D02*
X198002438Y-64214285D01*
X198002438Y-64214285D02*
X197954819Y-64119047D01*
X197954819Y-64119047D02*
X197954819Y-63880952D01*
X197954819Y-63880952D02*
X198002438Y-63785714D01*
X198002438Y-63785714D02*
X198050057Y-63738095D01*
X198050057Y-63738095D02*
X198145295Y-63690476D01*
X198145295Y-63690476D02*
X198240533Y-63690476D01*
X198240533Y-63690476D02*
X198383390Y-63738095D01*
X198383390Y-63738095D02*
X198954819Y-64309523D01*
X198954819Y-64309523D02*
X198954819Y-63690476D01*
X198954819Y-62738095D02*
X198954819Y-63309523D01*
X198954819Y-63023809D02*
X197954819Y-63023809D01*
X197954819Y-63023809D02*
X198097676Y-63119047D01*
X198097676Y-63119047D02*
X198192914Y-63214285D01*
X198192914Y-63214285D02*
X198240533Y-63309523D01*
X197113333Y-56787080D02*
X197065714Y-56834700D01*
X197065714Y-56834700D02*
X196922857Y-56882319D01*
X196922857Y-56882319D02*
X196827619Y-56882319D01*
X196827619Y-56882319D02*
X196684762Y-56834700D01*
X196684762Y-56834700D02*
X196589524Y-56739461D01*
X196589524Y-56739461D02*
X196541905Y-56644223D01*
X196541905Y-56644223D02*
X196494286Y-56453747D01*
X196494286Y-56453747D02*
X196494286Y-56310890D01*
X196494286Y-56310890D02*
X196541905Y-56120414D01*
X196541905Y-56120414D02*
X196589524Y-56025176D01*
X196589524Y-56025176D02*
X196684762Y-55929938D01*
X196684762Y-55929938D02*
X196827619Y-55882319D01*
X196827619Y-55882319D02*
X196922857Y-55882319D01*
X196922857Y-55882319D02*
X197065714Y-55929938D01*
X197065714Y-55929938D02*
X197113333Y-55977557D01*
X197684762Y-56310890D02*
X197589524Y-56263271D01*
X197589524Y-56263271D02*
X197541905Y-56215652D01*
X197541905Y-56215652D02*
X197494286Y-56120414D01*
X197494286Y-56120414D02*
X197494286Y-56072795D01*
X197494286Y-56072795D02*
X197541905Y-55977557D01*
X197541905Y-55977557D02*
X197589524Y-55929938D01*
X197589524Y-55929938D02*
X197684762Y-55882319D01*
X197684762Y-55882319D02*
X197875238Y-55882319D01*
X197875238Y-55882319D02*
X197970476Y-55929938D01*
X197970476Y-55929938D02*
X198018095Y-55977557D01*
X198018095Y-55977557D02*
X198065714Y-56072795D01*
X198065714Y-56072795D02*
X198065714Y-56120414D01*
X198065714Y-56120414D02*
X198018095Y-56215652D01*
X198018095Y-56215652D02*
X197970476Y-56263271D01*
X197970476Y-56263271D02*
X197875238Y-56310890D01*
X197875238Y-56310890D02*
X197684762Y-56310890D01*
X197684762Y-56310890D02*
X197589524Y-56358509D01*
X197589524Y-56358509D02*
X197541905Y-56406128D01*
X197541905Y-56406128D02*
X197494286Y-56501366D01*
X197494286Y-56501366D02*
X197494286Y-56691842D01*
X197494286Y-56691842D02*
X197541905Y-56787080D01*
X197541905Y-56787080D02*
X197589524Y-56834700D01*
X197589524Y-56834700D02*
X197684762Y-56882319D01*
X197684762Y-56882319D02*
X197875238Y-56882319D01*
X197875238Y-56882319D02*
X197970476Y-56834700D01*
X197970476Y-56834700D02*
X198018095Y-56787080D01*
X198018095Y-56787080D02*
X198065714Y-56691842D01*
X198065714Y-56691842D02*
X198065714Y-56501366D01*
X198065714Y-56501366D02*
X198018095Y-56406128D01*
X198018095Y-56406128D02*
X197970476Y-56358509D01*
X197970476Y-56358509D02*
X197875238Y-56310890D01*
X176488095Y-63092319D02*
X176488095Y-63901842D01*
X176488095Y-63901842D02*
X176535714Y-63997080D01*
X176535714Y-63997080D02*
X176583333Y-64044700D01*
X176583333Y-64044700D02*
X176678571Y-64092319D01*
X176678571Y-64092319D02*
X176869047Y-64092319D01*
X176869047Y-64092319D02*
X176964285Y-64044700D01*
X176964285Y-64044700D02*
X177011904Y-63997080D01*
X177011904Y-63997080D02*
X177059523Y-63901842D01*
X177059523Y-63901842D02*
X177059523Y-63092319D01*
X177488095Y-63187557D02*
X177535714Y-63139938D01*
X177535714Y-63139938D02*
X177630952Y-63092319D01*
X177630952Y-63092319D02*
X177869047Y-63092319D01*
X177869047Y-63092319D02*
X177964285Y-63139938D01*
X177964285Y-63139938D02*
X178011904Y-63187557D01*
X178011904Y-63187557D02*
X178059523Y-63282795D01*
X178059523Y-63282795D02*
X178059523Y-63378033D01*
X178059523Y-63378033D02*
X178011904Y-63520890D01*
X178011904Y-63520890D02*
X177440476Y-64092319D01*
X177440476Y-64092319D02*
X178059523Y-64092319D01*
X165277142Y-67487080D02*
X165229523Y-67534700D01*
X165229523Y-67534700D02*
X165086666Y-67582319D01*
X165086666Y-67582319D02*
X164991428Y-67582319D01*
X164991428Y-67582319D02*
X164848571Y-67534700D01*
X164848571Y-67534700D02*
X164753333Y-67439461D01*
X164753333Y-67439461D02*
X164705714Y-67344223D01*
X164705714Y-67344223D02*
X164658095Y-67153747D01*
X164658095Y-67153747D02*
X164658095Y-67010890D01*
X164658095Y-67010890D02*
X164705714Y-66820414D01*
X164705714Y-66820414D02*
X164753333Y-66725176D01*
X164753333Y-66725176D02*
X164848571Y-66629938D01*
X164848571Y-66629938D02*
X164991428Y-66582319D01*
X164991428Y-66582319D02*
X165086666Y-66582319D01*
X165086666Y-66582319D02*
X165229523Y-66629938D01*
X165229523Y-66629938D02*
X165277142Y-66677557D01*
X165658095Y-66677557D02*
X165705714Y-66629938D01*
X165705714Y-66629938D02*
X165800952Y-66582319D01*
X165800952Y-66582319D02*
X166039047Y-66582319D01*
X166039047Y-66582319D02*
X166134285Y-66629938D01*
X166134285Y-66629938D02*
X166181904Y-66677557D01*
X166181904Y-66677557D02*
X166229523Y-66772795D01*
X166229523Y-66772795D02*
X166229523Y-66868033D01*
X166229523Y-66868033D02*
X166181904Y-67010890D01*
X166181904Y-67010890D02*
X165610476Y-67582319D01*
X165610476Y-67582319D02*
X166229523Y-67582319D01*
X166562857Y-66582319D02*
X167229523Y-66582319D01*
X167229523Y-66582319D02*
X166800952Y-67582319D01*
X203633333Y-50986604D02*
X204109523Y-50986604D01*
X203538095Y-51272319D02*
X203871428Y-50272319D01*
X203871428Y-50272319D02*
X204204761Y-51272319D01*
X204538095Y-50748509D02*
X204871428Y-50748509D01*
X205014285Y-51272319D02*
X204538095Y-51272319D01*
X204538095Y-51272319D02*
X204538095Y-50272319D01*
X204538095Y-50272319D02*
X205014285Y-50272319D01*
X205966666Y-51272319D02*
X205395238Y-51272319D01*
X205680952Y-51272319D02*
X205680952Y-50272319D01*
X205680952Y-50272319D02*
X205585714Y-50415176D01*
X205585714Y-50415176D02*
X205490476Y-50510414D01*
X205490476Y-50510414D02*
X205395238Y-50558033D01*
X184833333Y-69454819D02*
X184500000Y-68978628D01*
X184261905Y-69454819D02*
X184261905Y-68454819D01*
X184261905Y-68454819D02*
X184642857Y-68454819D01*
X184642857Y-68454819D02*
X184738095Y-68502438D01*
X184738095Y-68502438D02*
X184785714Y-68550057D01*
X184785714Y-68550057D02*
X184833333Y-68645295D01*
X184833333Y-68645295D02*
X184833333Y-68788152D01*
X184833333Y-68788152D02*
X184785714Y-68883390D01*
X184785714Y-68883390D02*
X184738095Y-68931009D01*
X184738095Y-68931009D02*
X184642857Y-68978628D01*
X184642857Y-68978628D02*
X184261905Y-68978628D01*
X185404762Y-68883390D02*
X185309524Y-68835771D01*
X185309524Y-68835771D02*
X185261905Y-68788152D01*
X185261905Y-68788152D02*
X185214286Y-68692914D01*
X185214286Y-68692914D02*
X185214286Y-68645295D01*
X185214286Y-68645295D02*
X185261905Y-68550057D01*
X185261905Y-68550057D02*
X185309524Y-68502438D01*
X185309524Y-68502438D02*
X185404762Y-68454819D01*
X185404762Y-68454819D02*
X185595238Y-68454819D01*
X185595238Y-68454819D02*
X185690476Y-68502438D01*
X185690476Y-68502438D02*
X185738095Y-68550057D01*
X185738095Y-68550057D02*
X185785714Y-68645295D01*
X185785714Y-68645295D02*
X185785714Y-68692914D01*
X185785714Y-68692914D02*
X185738095Y-68788152D01*
X185738095Y-68788152D02*
X185690476Y-68835771D01*
X185690476Y-68835771D02*
X185595238Y-68883390D01*
X185595238Y-68883390D02*
X185404762Y-68883390D01*
X185404762Y-68883390D02*
X185309524Y-68931009D01*
X185309524Y-68931009D02*
X185261905Y-68978628D01*
X185261905Y-68978628D02*
X185214286Y-69073866D01*
X185214286Y-69073866D02*
X185214286Y-69264342D01*
X185214286Y-69264342D02*
X185261905Y-69359580D01*
X185261905Y-69359580D02*
X185309524Y-69407200D01*
X185309524Y-69407200D02*
X185404762Y-69454819D01*
X185404762Y-69454819D02*
X185595238Y-69454819D01*
X185595238Y-69454819D02*
X185690476Y-69407200D01*
X185690476Y-69407200D02*
X185738095Y-69359580D01*
X185738095Y-69359580D02*
X185785714Y-69264342D01*
X185785714Y-69264342D02*
X185785714Y-69073866D01*
X185785714Y-69073866D02*
X185738095Y-68978628D01*
X185738095Y-68978628D02*
X185690476Y-68931009D01*
X185690476Y-68931009D02*
X185595238Y-68883390D01*
X197133333Y-59454819D02*
X196657143Y-59454819D01*
X196657143Y-59454819D02*
X196657143Y-58454819D01*
X197371429Y-58454819D02*
X197990476Y-58454819D01*
X197990476Y-58454819D02*
X197657143Y-58835771D01*
X197657143Y-58835771D02*
X197800000Y-58835771D01*
X197800000Y-58835771D02*
X197895238Y-58883390D01*
X197895238Y-58883390D02*
X197942857Y-58931009D01*
X197942857Y-58931009D02*
X197990476Y-59026247D01*
X197990476Y-59026247D02*
X197990476Y-59264342D01*
X197990476Y-59264342D02*
X197942857Y-59359580D01*
X197942857Y-59359580D02*
X197895238Y-59407200D01*
X197895238Y-59407200D02*
X197800000Y-59454819D01*
X197800000Y-59454819D02*
X197514286Y-59454819D01*
X197514286Y-59454819D02*
X197419048Y-59407200D01*
X197419048Y-59407200D02*
X197371429Y-59359580D01*
X199857142Y-83359580D02*
X199809523Y-83407200D01*
X199809523Y-83407200D02*
X199666666Y-83454819D01*
X199666666Y-83454819D02*
X199571428Y-83454819D01*
X199571428Y-83454819D02*
X199428571Y-83407200D01*
X199428571Y-83407200D02*
X199333333Y-83311961D01*
X199333333Y-83311961D02*
X199285714Y-83216723D01*
X199285714Y-83216723D02*
X199238095Y-83026247D01*
X199238095Y-83026247D02*
X199238095Y-82883390D01*
X199238095Y-82883390D02*
X199285714Y-82692914D01*
X199285714Y-82692914D02*
X199333333Y-82597676D01*
X199333333Y-82597676D02*
X199428571Y-82502438D01*
X199428571Y-82502438D02*
X199571428Y-82454819D01*
X199571428Y-82454819D02*
X199666666Y-82454819D01*
X199666666Y-82454819D02*
X199809523Y-82502438D01*
X199809523Y-82502438D02*
X199857142Y-82550057D01*
X200809523Y-83454819D02*
X200238095Y-83454819D01*
X200523809Y-83454819D02*
X200523809Y-82454819D01*
X200523809Y-82454819D02*
X200428571Y-82597676D01*
X200428571Y-82597676D02*
X200333333Y-82692914D01*
X200333333Y-82692914D02*
X200238095Y-82740533D01*
X201142857Y-82454819D02*
X201761904Y-82454819D01*
X201761904Y-82454819D02*
X201428571Y-82835771D01*
X201428571Y-82835771D02*
X201571428Y-82835771D01*
X201571428Y-82835771D02*
X201666666Y-82883390D01*
X201666666Y-82883390D02*
X201714285Y-82931009D01*
X201714285Y-82931009D02*
X201761904Y-83026247D01*
X201761904Y-83026247D02*
X201761904Y-83264342D01*
X201761904Y-83264342D02*
X201714285Y-83359580D01*
X201714285Y-83359580D02*
X201666666Y-83407200D01*
X201666666Y-83407200D02*
X201571428Y-83454819D01*
X201571428Y-83454819D02*
X201285714Y-83454819D01*
X201285714Y-83454819D02*
X201190476Y-83407200D01*
X201190476Y-83407200D02*
X201142857Y-83359580D01*
X199857142Y-78119580D02*
X199809523Y-78167200D01*
X199809523Y-78167200D02*
X199666666Y-78214819D01*
X199666666Y-78214819D02*
X199571428Y-78214819D01*
X199571428Y-78214819D02*
X199428571Y-78167200D01*
X199428571Y-78167200D02*
X199333333Y-78071961D01*
X199333333Y-78071961D02*
X199285714Y-77976723D01*
X199285714Y-77976723D02*
X199238095Y-77786247D01*
X199238095Y-77786247D02*
X199238095Y-77643390D01*
X199238095Y-77643390D02*
X199285714Y-77452914D01*
X199285714Y-77452914D02*
X199333333Y-77357676D01*
X199333333Y-77357676D02*
X199428571Y-77262438D01*
X199428571Y-77262438D02*
X199571428Y-77214819D01*
X199571428Y-77214819D02*
X199666666Y-77214819D01*
X199666666Y-77214819D02*
X199809523Y-77262438D01*
X199809523Y-77262438D02*
X199857142Y-77310057D01*
X200238095Y-77310057D02*
X200285714Y-77262438D01*
X200285714Y-77262438D02*
X200380952Y-77214819D01*
X200380952Y-77214819D02*
X200619047Y-77214819D01*
X200619047Y-77214819D02*
X200714285Y-77262438D01*
X200714285Y-77262438D02*
X200761904Y-77310057D01*
X200761904Y-77310057D02*
X200809523Y-77405295D01*
X200809523Y-77405295D02*
X200809523Y-77500533D01*
X200809523Y-77500533D02*
X200761904Y-77643390D01*
X200761904Y-77643390D02*
X200190476Y-78214819D01*
X200190476Y-78214819D02*
X200809523Y-78214819D01*
X201714285Y-77214819D02*
X201238095Y-77214819D01*
X201238095Y-77214819D02*
X201190476Y-77691009D01*
X201190476Y-77691009D02*
X201238095Y-77643390D01*
X201238095Y-77643390D02*
X201333333Y-77595771D01*
X201333333Y-77595771D02*
X201571428Y-77595771D01*
X201571428Y-77595771D02*
X201666666Y-77643390D01*
X201666666Y-77643390D02*
X201714285Y-77691009D01*
X201714285Y-77691009D02*
X201761904Y-77786247D01*
X201761904Y-77786247D02*
X201761904Y-78024342D01*
X201761904Y-78024342D02*
X201714285Y-78119580D01*
X201714285Y-78119580D02*
X201666666Y-78167200D01*
X201666666Y-78167200D02*
X201571428Y-78214819D01*
X201571428Y-78214819D02*
X201333333Y-78214819D01*
X201333333Y-78214819D02*
X201238095Y-78167200D01*
X201238095Y-78167200D02*
X201190476Y-78119580D01*
X207857142Y-76359580D02*
X207809523Y-76407200D01*
X207809523Y-76407200D02*
X207666666Y-76454819D01*
X207666666Y-76454819D02*
X207571428Y-76454819D01*
X207571428Y-76454819D02*
X207428571Y-76407200D01*
X207428571Y-76407200D02*
X207333333Y-76311961D01*
X207333333Y-76311961D02*
X207285714Y-76216723D01*
X207285714Y-76216723D02*
X207238095Y-76026247D01*
X207238095Y-76026247D02*
X207238095Y-75883390D01*
X207238095Y-75883390D02*
X207285714Y-75692914D01*
X207285714Y-75692914D02*
X207333333Y-75597676D01*
X207333333Y-75597676D02*
X207428571Y-75502438D01*
X207428571Y-75502438D02*
X207571428Y-75454819D01*
X207571428Y-75454819D02*
X207666666Y-75454819D01*
X207666666Y-75454819D02*
X207809523Y-75502438D01*
X207809523Y-75502438D02*
X207857142Y-75550057D01*
X208238095Y-75550057D02*
X208285714Y-75502438D01*
X208285714Y-75502438D02*
X208380952Y-75454819D01*
X208380952Y-75454819D02*
X208619047Y-75454819D01*
X208619047Y-75454819D02*
X208714285Y-75502438D01*
X208714285Y-75502438D02*
X208761904Y-75550057D01*
X208761904Y-75550057D02*
X208809523Y-75645295D01*
X208809523Y-75645295D02*
X208809523Y-75740533D01*
X208809523Y-75740533D02*
X208761904Y-75883390D01*
X208761904Y-75883390D02*
X208190476Y-76454819D01*
X208190476Y-76454819D02*
X208809523Y-76454819D01*
X209380952Y-75883390D02*
X209285714Y-75835771D01*
X209285714Y-75835771D02*
X209238095Y-75788152D01*
X209238095Y-75788152D02*
X209190476Y-75692914D01*
X209190476Y-75692914D02*
X209190476Y-75645295D01*
X209190476Y-75645295D02*
X209238095Y-75550057D01*
X209238095Y-75550057D02*
X209285714Y-75502438D01*
X209285714Y-75502438D02*
X209380952Y-75454819D01*
X209380952Y-75454819D02*
X209571428Y-75454819D01*
X209571428Y-75454819D02*
X209666666Y-75502438D01*
X209666666Y-75502438D02*
X209714285Y-75550057D01*
X209714285Y-75550057D02*
X209761904Y-75645295D01*
X209761904Y-75645295D02*
X209761904Y-75692914D01*
X209761904Y-75692914D02*
X209714285Y-75788152D01*
X209714285Y-75788152D02*
X209666666Y-75835771D01*
X209666666Y-75835771D02*
X209571428Y-75883390D01*
X209571428Y-75883390D02*
X209380952Y-75883390D01*
X209380952Y-75883390D02*
X209285714Y-75931009D01*
X209285714Y-75931009D02*
X209238095Y-75978628D01*
X209238095Y-75978628D02*
X209190476Y-76073866D01*
X209190476Y-76073866D02*
X209190476Y-76264342D01*
X209190476Y-76264342D02*
X209238095Y-76359580D01*
X209238095Y-76359580D02*
X209285714Y-76407200D01*
X209285714Y-76407200D02*
X209380952Y-76454819D01*
X209380952Y-76454819D02*
X209571428Y-76454819D01*
X209571428Y-76454819D02*
X209666666Y-76407200D01*
X209666666Y-76407200D02*
X209714285Y-76359580D01*
X209714285Y-76359580D02*
X209761904Y-76264342D01*
X209761904Y-76264342D02*
X209761904Y-76073866D01*
X209761904Y-76073866D02*
X209714285Y-75978628D01*
X209714285Y-75978628D02*
X209666666Y-75931009D01*
X209666666Y-75931009D02*
X209571428Y-75883390D01*
X189633333Y-61542319D02*
X189300000Y-61066128D01*
X189061905Y-61542319D02*
X189061905Y-60542319D01*
X189061905Y-60542319D02*
X189442857Y-60542319D01*
X189442857Y-60542319D02*
X189538095Y-60589938D01*
X189538095Y-60589938D02*
X189585714Y-60637557D01*
X189585714Y-60637557D02*
X189633333Y-60732795D01*
X189633333Y-60732795D02*
X189633333Y-60875652D01*
X189633333Y-60875652D02*
X189585714Y-60970890D01*
X189585714Y-60970890D02*
X189538095Y-61018509D01*
X189538095Y-61018509D02*
X189442857Y-61066128D01*
X189442857Y-61066128D02*
X189061905Y-61066128D01*
X190585714Y-61542319D02*
X190014286Y-61542319D01*
X190300000Y-61542319D02*
X190300000Y-60542319D01*
X190300000Y-60542319D02*
X190204762Y-60685176D01*
X190204762Y-60685176D02*
X190109524Y-60780414D01*
X190109524Y-60780414D02*
X190014286Y-60828033D01*
X193837142Y-64359580D02*
X193789523Y-64407200D01*
X193789523Y-64407200D02*
X193646666Y-64454819D01*
X193646666Y-64454819D02*
X193551428Y-64454819D01*
X193551428Y-64454819D02*
X193408571Y-64407200D01*
X193408571Y-64407200D02*
X193313333Y-64311961D01*
X193313333Y-64311961D02*
X193265714Y-64216723D01*
X193265714Y-64216723D02*
X193218095Y-64026247D01*
X193218095Y-64026247D02*
X193218095Y-63883390D01*
X193218095Y-63883390D02*
X193265714Y-63692914D01*
X193265714Y-63692914D02*
X193313333Y-63597676D01*
X193313333Y-63597676D02*
X193408571Y-63502438D01*
X193408571Y-63502438D02*
X193551428Y-63454819D01*
X193551428Y-63454819D02*
X193646666Y-63454819D01*
X193646666Y-63454819D02*
X193789523Y-63502438D01*
X193789523Y-63502438D02*
X193837142Y-63550057D01*
X194218095Y-63550057D02*
X194265714Y-63502438D01*
X194265714Y-63502438D02*
X194360952Y-63454819D01*
X194360952Y-63454819D02*
X194599047Y-63454819D01*
X194599047Y-63454819D02*
X194694285Y-63502438D01*
X194694285Y-63502438D02*
X194741904Y-63550057D01*
X194741904Y-63550057D02*
X194789523Y-63645295D01*
X194789523Y-63645295D02*
X194789523Y-63740533D01*
X194789523Y-63740533D02*
X194741904Y-63883390D01*
X194741904Y-63883390D02*
X194170476Y-64454819D01*
X194170476Y-64454819D02*
X194789523Y-64454819D01*
X195170476Y-63550057D02*
X195218095Y-63502438D01*
X195218095Y-63502438D02*
X195313333Y-63454819D01*
X195313333Y-63454819D02*
X195551428Y-63454819D01*
X195551428Y-63454819D02*
X195646666Y-63502438D01*
X195646666Y-63502438D02*
X195694285Y-63550057D01*
X195694285Y-63550057D02*
X195741904Y-63645295D01*
X195741904Y-63645295D02*
X195741904Y-63740533D01*
X195741904Y-63740533D02*
X195694285Y-63883390D01*
X195694285Y-63883390D02*
X195122857Y-64454819D01*
X195122857Y-64454819D02*
X195741904Y-64454819D01*
X161833333Y-74359580D02*
X161785714Y-74407200D01*
X161785714Y-74407200D02*
X161642857Y-74454819D01*
X161642857Y-74454819D02*
X161547619Y-74454819D01*
X161547619Y-74454819D02*
X161404762Y-74407200D01*
X161404762Y-74407200D02*
X161309524Y-74311961D01*
X161309524Y-74311961D02*
X161261905Y-74216723D01*
X161261905Y-74216723D02*
X161214286Y-74026247D01*
X161214286Y-74026247D02*
X161214286Y-73883390D01*
X161214286Y-73883390D02*
X161261905Y-73692914D01*
X161261905Y-73692914D02*
X161309524Y-73597676D01*
X161309524Y-73597676D02*
X161404762Y-73502438D01*
X161404762Y-73502438D02*
X161547619Y-73454819D01*
X161547619Y-73454819D02*
X161642857Y-73454819D01*
X161642857Y-73454819D02*
X161785714Y-73502438D01*
X161785714Y-73502438D02*
X161833333Y-73550057D01*
X162738095Y-73454819D02*
X162261905Y-73454819D01*
X162261905Y-73454819D02*
X162214286Y-73931009D01*
X162214286Y-73931009D02*
X162261905Y-73883390D01*
X162261905Y-73883390D02*
X162357143Y-73835771D01*
X162357143Y-73835771D02*
X162595238Y-73835771D01*
X162595238Y-73835771D02*
X162690476Y-73883390D01*
X162690476Y-73883390D02*
X162738095Y-73931009D01*
X162738095Y-73931009D02*
X162785714Y-74026247D01*
X162785714Y-74026247D02*
X162785714Y-74264342D01*
X162785714Y-74264342D02*
X162738095Y-74359580D01*
X162738095Y-74359580D02*
X162690476Y-74407200D01*
X162690476Y-74407200D02*
X162595238Y-74454819D01*
X162595238Y-74454819D02*
X162357143Y-74454819D01*
X162357143Y-74454819D02*
X162261905Y-74407200D01*
X162261905Y-74407200D02*
X162214286Y-74359580D01*
X189633333Y-62947080D02*
X189585714Y-62994700D01*
X189585714Y-62994700D02*
X189442857Y-63042319D01*
X189442857Y-63042319D02*
X189347619Y-63042319D01*
X189347619Y-63042319D02*
X189204762Y-62994700D01*
X189204762Y-62994700D02*
X189109524Y-62899461D01*
X189109524Y-62899461D02*
X189061905Y-62804223D01*
X189061905Y-62804223D02*
X189014286Y-62613747D01*
X189014286Y-62613747D02*
X189014286Y-62470890D01*
X189014286Y-62470890D02*
X189061905Y-62280414D01*
X189061905Y-62280414D02*
X189109524Y-62185176D01*
X189109524Y-62185176D02*
X189204762Y-62089938D01*
X189204762Y-62089938D02*
X189347619Y-62042319D01*
X189347619Y-62042319D02*
X189442857Y-62042319D01*
X189442857Y-62042319D02*
X189585714Y-62089938D01*
X189585714Y-62089938D02*
X189633333Y-62137557D01*
X190490476Y-62042319D02*
X190300000Y-62042319D01*
X190300000Y-62042319D02*
X190204762Y-62089938D01*
X190204762Y-62089938D02*
X190157143Y-62137557D01*
X190157143Y-62137557D02*
X190061905Y-62280414D01*
X190061905Y-62280414D02*
X190014286Y-62470890D01*
X190014286Y-62470890D02*
X190014286Y-62851842D01*
X190014286Y-62851842D02*
X190061905Y-62947080D01*
X190061905Y-62947080D02*
X190109524Y-62994700D01*
X190109524Y-62994700D02*
X190204762Y-63042319D01*
X190204762Y-63042319D02*
X190395238Y-63042319D01*
X190395238Y-63042319D02*
X190490476Y-62994700D01*
X190490476Y-62994700D02*
X190538095Y-62947080D01*
X190538095Y-62947080D02*
X190585714Y-62851842D01*
X190585714Y-62851842D02*
X190585714Y-62613747D01*
X190585714Y-62613747D02*
X190538095Y-62518509D01*
X190538095Y-62518509D02*
X190490476Y-62470890D01*
X190490476Y-62470890D02*
X190395238Y-62423271D01*
X190395238Y-62423271D02*
X190204762Y-62423271D01*
X190204762Y-62423271D02*
X190109524Y-62470890D01*
X190109524Y-62470890D02*
X190061905Y-62518509D01*
X190061905Y-62518509D02*
X190014286Y-62613747D01*
X193075595Y-85204819D02*
X193075595Y-86014342D01*
X193075595Y-86014342D02*
X193123214Y-86109580D01*
X193123214Y-86109580D02*
X193170833Y-86157200D01*
X193170833Y-86157200D02*
X193266071Y-86204819D01*
X193266071Y-86204819D02*
X193456547Y-86204819D01*
X193456547Y-86204819D02*
X193551785Y-86157200D01*
X193551785Y-86157200D02*
X193599404Y-86109580D01*
X193599404Y-86109580D02*
X193647023Y-86014342D01*
X193647023Y-86014342D02*
X193647023Y-85204819D01*
X194599404Y-85204819D02*
X194123214Y-85204819D01*
X194123214Y-85204819D02*
X194075595Y-85681009D01*
X194075595Y-85681009D02*
X194123214Y-85633390D01*
X194123214Y-85633390D02*
X194218452Y-85585771D01*
X194218452Y-85585771D02*
X194456547Y-85585771D01*
X194456547Y-85585771D02*
X194551785Y-85633390D01*
X194551785Y-85633390D02*
X194599404Y-85681009D01*
X194599404Y-85681009D02*
X194647023Y-85776247D01*
X194647023Y-85776247D02*
X194647023Y-86014342D01*
X194647023Y-86014342D02*
X194599404Y-86109580D01*
X194599404Y-86109580D02*
X194551785Y-86157200D01*
X194551785Y-86157200D02*
X194456547Y-86204819D01*
X194456547Y-86204819D02*
X194218452Y-86204819D01*
X194218452Y-86204819D02*
X194123214Y-86157200D01*
X194123214Y-86157200D02*
X194075595Y-86109580D01*
X144724819Y-56166666D02*
X144248628Y-56499999D01*
X144724819Y-56738094D02*
X143724819Y-56738094D01*
X143724819Y-56738094D02*
X143724819Y-56357142D01*
X143724819Y-56357142D02*
X143772438Y-56261904D01*
X143772438Y-56261904D02*
X143820057Y-56214285D01*
X143820057Y-56214285D02*
X143915295Y-56166666D01*
X143915295Y-56166666D02*
X144058152Y-56166666D01*
X144058152Y-56166666D02*
X144153390Y-56214285D01*
X144153390Y-56214285D02*
X144201009Y-56261904D01*
X144201009Y-56261904D02*
X144248628Y-56357142D01*
X144248628Y-56357142D02*
X144248628Y-56738094D01*
X143724819Y-55833332D02*
X143724819Y-55166666D01*
X143724819Y-55166666D02*
X144724819Y-55595237D01*
X190538095Y-55242319D02*
X190538095Y-56051842D01*
X190538095Y-56051842D02*
X190585714Y-56147080D01*
X190585714Y-56147080D02*
X190633333Y-56194700D01*
X190633333Y-56194700D02*
X190728571Y-56242319D01*
X190728571Y-56242319D02*
X190919047Y-56242319D01*
X190919047Y-56242319D02*
X191014285Y-56194700D01*
X191014285Y-56194700D02*
X191061904Y-56147080D01*
X191061904Y-56147080D02*
X191109523Y-56051842D01*
X191109523Y-56051842D02*
X191109523Y-55242319D01*
X191490476Y-55242319D02*
X192109523Y-55242319D01*
X192109523Y-55242319D02*
X191776190Y-55623271D01*
X191776190Y-55623271D02*
X191919047Y-55623271D01*
X191919047Y-55623271D02*
X192014285Y-55670890D01*
X192014285Y-55670890D02*
X192061904Y-55718509D01*
X192061904Y-55718509D02*
X192109523Y-55813747D01*
X192109523Y-55813747D02*
X192109523Y-56051842D01*
X192109523Y-56051842D02*
X192061904Y-56147080D01*
X192061904Y-56147080D02*
X192014285Y-56194700D01*
X192014285Y-56194700D02*
X191919047Y-56242319D01*
X191919047Y-56242319D02*
X191633333Y-56242319D01*
X191633333Y-56242319D02*
X191538095Y-56194700D01*
X191538095Y-56194700D02*
X191490476Y-56147080D01*
X167657142Y-58447080D02*
X167609523Y-58494700D01*
X167609523Y-58494700D02*
X167466666Y-58542319D01*
X167466666Y-58542319D02*
X167371428Y-58542319D01*
X167371428Y-58542319D02*
X167228571Y-58494700D01*
X167228571Y-58494700D02*
X167133333Y-58399461D01*
X167133333Y-58399461D02*
X167085714Y-58304223D01*
X167085714Y-58304223D02*
X167038095Y-58113747D01*
X167038095Y-58113747D02*
X167038095Y-57970890D01*
X167038095Y-57970890D02*
X167085714Y-57780414D01*
X167085714Y-57780414D02*
X167133333Y-57685176D01*
X167133333Y-57685176D02*
X167228571Y-57589938D01*
X167228571Y-57589938D02*
X167371428Y-57542319D01*
X167371428Y-57542319D02*
X167466666Y-57542319D01*
X167466666Y-57542319D02*
X167609523Y-57589938D01*
X167609523Y-57589938D02*
X167657142Y-57637557D01*
X168038095Y-57637557D02*
X168085714Y-57589938D01*
X168085714Y-57589938D02*
X168180952Y-57542319D01*
X168180952Y-57542319D02*
X168419047Y-57542319D01*
X168419047Y-57542319D02*
X168514285Y-57589938D01*
X168514285Y-57589938D02*
X168561904Y-57637557D01*
X168561904Y-57637557D02*
X168609523Y-57732795D01*
X168609523Y-57732795D02*
X168609523Y-57828033D01*
X168609523Y-57828033D02*
X168561904Y-57970890D01*
X168561904Y-57970890D02*
X167990476Y-58542319D01*
X167990476Y-58542319D02*
X168609523Y-58542319D01*
X168942857Y-57542319D02*
X169561904Y-57542319D01*
X169561904Y-57542319D02*
X169228571Y-57923271D01*
X169228571Y-57923271D02*
X169371428Y-57923271D01*
X169371428Y-57923271D02*
X169466666Y-57970890D01*
X169466666Y-57970890D02*
X169514285Y-58018509D01*
X169514285Y-58018509D02*
X169561904Y-58113747D01*
X169561904Y-58113747D02*
X169561904Y-58351842D01*
X169561904Y-58351842D02*
X169514285Y-58447080D01*
X169514285Y-58447080D02*
X169466666Y-58494700D01*
X169466666Y-58494700D02*
X169371428Y-58542319D01*
X169371428Y-58542319D02*
X169085714Y-58542319D01*
X169085714Y-58542319D02*
X168990476Y-58494700D01*
X168990476Y-58494700D02*
X168942857Y-58447080D01*
X174233333Y-73647080D02*
X174185714Y-73694700D01*
X174185714Y-73694700D02*
X174042857Y-73742319D01*
X174042857Y-73742319D02*
X173947619Y-73742319D01*
X173947619Y-73742319D02*
X173804762Y-73694700D01*
X173804762Y-73694700D02*
X173709524Y-73599461D01*
X173709524Y-73599461D02*
X173661905Y-73504223D01*
X173661905Y-73504223D02*
X173614286Y-73313747D01*
X173614286Y-73313747D02*
X173614286Y-73170890D01*
X173614286Y-73170890D02*
X173661905Y-72980414D01*
X173661905Y-72980414D02*
X173709524Y-72885176D01*
X173709524Y-72885176D02*
X173804762Y-72789938D01*
X173804762Y-72789938D02*
X173947619Y-72742319D01*
X173947619Y-72742319D02*
X174042857Y-72742319D01*
X174042857Y-72742319D02*
X174185714Y-72789938D01*
X174185714Y-72789938D02*
X174233333Y-72837557D01*
X174566667Y-72742319D02*
X175185714Y-72742319D01*
X175185714Y-72742319D02*
X174852381Y-73123271D01*
X174852381Y-73123271D02*
X174995238Y-73123271D01*
X174995238Y-73123271D02*
X175090476Y-73170890D01*
X175090476Y-73170890D02*
X175138095Y-73218509D01*
X175138095Y-73218509D02*
X175185714Y-73313747D01*
X175185714Y-73313747D02*
X175185714Y-73551842D01*
X175185714Y-73551842D02*
X175138095Y-73647080D01*
X175138095Y-73647080D02*
X175090476Y-73694700D01*
X175090476Y-73694700D02*
X174995238Y-73742319D01*
X174995238Y-73742319D02*
X174709524Y-73742319D01*
X174709524Y-73742319D02*
X174614286Y-73694700D01*
X174614286Y-73694700D02*
X174566667Y-73647080D01*
X190833333Y-64954819D02*
X190500000Y-64478628D01*
X190261905Y-64954819D02*
X190261905Y-63954819D01*
X190261905Y-63954819D02*
X190642857Y-63954819D01*
X190642857Y-63954819D02*
X190738095Y-64002438D01*
X190738095Y-64002438D02*
X190785714Y-64050057D01*
X190785714Y-64050057D02*
X190833333Y-64145295D01*
X190833333Y-64145295D02*
X190833333Y-64288152D01*
X190833333Y-64288152D02*
X190785714Y-64383390D01*
X190785714Y-64383390D02*
X190738095Y-64431009D01*
X190738095Y-64431009D02*
X190642857Y-64478628D01*
X190642857Y-64478628D02*
X190261905Y-64478628D01*
X191214286Y-64050057D02*
X191261905Y-64002438D01*
X191261905Y-64002438D02*
X191357143Y-63954819D01*
X191357143Y-63954819D02*
X191595238Y-63954819D01*
X191595238Y-63954819D02*
X191690476Y-64002438D01*
X191690476Y-64002438D02*
X191738095Y-64050057D01*
X191738095Y-64050057D02*
X191785714Y-64145295D01*
X191785714Y-64145295D02*
X191785714Y-64240533D01*
X191785714Y-64240533D02*
X191738095Y-64383390D01*
X191738095Y-64383390D02*
X191166667Y-64954819D01*
X191166667Y-64954819D02*
X191785714Y-64954819D01*
X207857142Y-72359580D02*
X207809523Y-72407200D01*
X207809523Y-72407200D02*
X207666666Y-72454819D01*
X207666666Y-72454819D02*
X207571428Y-72454819D01*
X207571428Y-72454819D02*
X207428571Y-72407200D01*
X207428571Y-72407200D02*
X207333333Y-72311961D01*
X207333333Y-72311961D02*
X207285714Y-72216723D01*
X207285714Y-72216723D02*
X207238095Y-72026247D01*
X207238095Y-72026247D02*
X207238095Y-71883390D01*
X207238095Y-71883390D02*
X207285714Y-71692914D01*
X207285714Y-71692914D02*
X207333333Y-71597676D01*
X207333333Y-71597676D02*
X207428571Y-71502438D01*
X207428571Y-71502438D02*
X207571428Y-71454819D01*
X207571428Y-71454819D02*
X207666666Y-71454819D01*
X207666666Y-71454819D02*
X207809523Y-71502438D01*
X207809523Y-71502438D02*
X207857142Y-71550057D01*
X208238095Y-71550057D02*
X208285714Y-71502438D01*
X208285714Y-71502438D02*
X208380952Y-71454819D01*
X208380952Y-71454819D02*
X208619047Y-71454819D01*
X208619047Y-71454819D02*
X208714285Y-71502438D01*
X208714285Y-71502438D02*
X208761904Y-71550057D01*
X208761904Y-71550057D02*
X208809523Y-71645295D01*
X208809523Y-71645295D02*
X208809523Y-71740533D01*
X208809523Y-71740533D02*
X208761904Y-71883390D01*
X208761904Y-71883390D02*
X208190476Y-72454819D01*
X208190476Y-72454819D02*
X208809523Y-72454819D01*
X209666666Y-71788152D02*
X209666666Y-72454819D01*
X209428571Y-71407200D02*
X209190476Y-72121485D01*
X209190476Y-72121485D02*
X209809523Y-72121485D01*
X207857142Y-83359580D02*
X207809523Y-83407200D01*
X207809523Y-83407200D02*
X207666666Y-83454819D01*
X207666666Y-83454819D02*
X207571428Y-83454819D01*
X207571428Y-83454819D02*
X207428571Y-83407200D01*
X207428571Y-83407200D02*
X207333333Y-83311961D01*
X207333333Y-83311961D02*
X207285714Y-83216723D01*
X207285714Y-83216723D02*
X207238095Y-83026247D01*
X207238095Y-83026247D02*
X207238095Y-82883390D01*
X207238095Y-82883390D02*
X207285714Y-82692914D01*
X207285714Y-82692914D02*
X207333333Y-82597676D01*
X207333333Y-82597676D02*
X207428571Y-82502438D01*
X207428571Y-82502438D02*
X207571428Y-82454819D01*
X207571428Y-82454819D02*
X207666666Y-82454819D01*
X207666666Y-82454819D02*
X207809523Y-82502438D01*
X207809523Y-82502438D02*
X207857142Y-82550057D01*
X208809523Y-83454819D02*
X208238095Y-83454819D01*
X208523809Y-83454819D02*
X208523809Y-82454819D01*
X208523809Y-82454819D02*
X208428571Y-82597676D01*
X208428571Y-82597676D02*
X208333333Y-82692914D01*
X208333333Y-82692914D02*
X208238095Y-82740533D01*
X209714285Y-82454819D02*
X209238095Y-82454819D01*
X209238095Y-82454819D02*
X209190476Y-82931009D01*
X209190476Y-82931009D02*
X209238095Y-82883390D01*
X209238095Y-82883390D02*
X209333333Y-82835771D01*
X209333333Y-82835771D02*
X209571428Y-82835771D01*
X209571428Y-82835771D02*
X209666666Y-82883390D01*
X209666666Y-82883390D02*
X209714285Y-82931009D01*
X209714285Y-82931009D02*
X209761904Y-83026247D01*
X209761904Y-83026247D02*
X209761904Y-83264342D01*
X209761904Y-83264342D02*
X209714285Y-83359580D01*
X209714285Y-83359580D02*
X209666666Y-83407200D01*
X209666666Y-83407200D02*
X209571428Y-83454819D01*
X209571428Y-83454819D02*
X209333333Y-83454819D01*
X209333333Y-83454819D02*
X209238095Y-83407200D01*
X209238095Y-83407200D02*
X209190476Y-83359580D01*
X154454819Y-66666666D02*
X153978628Y-66999999D01*
X154454819Y-67238094D02*
X153454819Y-67238094D01*
X153454819Y-67238094D02*
X153454819Y-66857142D01*
X153454819Y-66857142D02*
X153502438Y-66761904D01*
X153502438Y-66761904D02*
X153550057Y-66714285D01*
X153550057Y-66714285D02*
X153645295Y-66666666D01*
X153645295Y-66666666D02*
X153788152Y-66666666D01*
X153788152Y-66666666D02*
X153883390Y-66714285D01*
X153883390Y-66714285D02*
X153931009Y-66761904D01*
X153931009Y-66761904D02*
X153978628Y-66857142D01*
X153978628Y-66857142D02*
X153978628Y-67238094D01*
X153788152Y-65809523D02*
X154454819Y-65809523D01*
X153407200Y-66047618D02*
X154121485Y-66285713D01*
X154121485Y-66285713D02*
X154121485Y-65666666D01*
X181961904Y-59851009D02*
X181628571Y-59851009D01*
X181628571Y-60374819D02*
X181628571Y-59374819D01*
X181628571Y-59374819D02*
X182104761Y-59374819D01*
X182961904Y-60374819D02*
X182485714Y-60374819D01*
X182485714Y-60374819D02*
X182485714Y-59374819D01*
X183819047Y-60374819D02*
X183247619Y-60374819D01*
X183533333Y-60374819D02*
X183533333Y-59374819D01*
X183533333Y-59374819D02*
X183438095Y-59517676D01*
X183438095Y-59517676D02*
X183342857Y-59612914D01*
X183342857Y-59612914D02*
X183247619Y-59660533D01*
X202377142Y-86859580D02*
X202329523Y-86907200D01*
X202329523Y-86907200D02*
X202186666Y-86954819D01*
X202186666Y-86954819D02*
X202091428Y-86954819D01*
X202091428Y-86954819D02*
X201948571Y-86907200D01*
X201948571Y-86907200D02*
X201853333Y-86811961D01*
X201853333Y-86811961D02*
X201805714Y-86716723D01*
X201805714Y-86716723D02*
X201758095Y-86526247D01*
X201758095Y-86526247D02*
X201758095Y-86383390D01*
X201758095Y-86383390D02*
X201805714Y-86192914D01*
X201805714Y-86192914D02*
X201853333Y-86097676D01*
X201853333Y-86097676D02*
X201948571Y-86002438D01*
X201948571Y-86002438D02*
X202091428Y-85954819D01*
X202091428Y-85954819D02*
X202186666Y-85954819D01*
X202186666Y-85954819D02*
X202329523Y-86002438D01*
X202329523Y-86002438D02*
X202377142Y-86050057D01*
X203329523Y-86954819D02*
X202758095Y-86954819D01*
X203043809Y-86954819D02*
X203043809Y-85954819D01*
X203043809Y-85954819D02*
X202948571Y-86097676D01*
X202948571Y-86097676D02*
X202853333Y-86192914D01*
X202853333Y-86192914D02*
X202758095Y-86240533D01*
X204186666Y-86288152D02*
X204186666Y-86954819D01*
X203948571Y-85907200D02*
X203710476Y-86621485D01*
X203710476Y-86621485D02*
X204329523Y-86621485D01*
X172919580Y-63430357D02*
X172967200Y-63477976D01*
X172967200Y-63477976D02*
X173014819Y-63620833D01*
X173014819Y-63620833D02*
X173014819Y-63716071D01*
X173014819Y-63716071D02*
X172967200Y-63858928D01*
X172967200Y-63858928D02*
X172871961Y-63954166D01*
X172871961Y-63954166D02*
X172776723Y-64001785D01*
X172776723Y-64001785D02*
X172586247Y-64049404D01*
X172586247Y-64049404D02*
X172443390Y-64049404D01*
X172443390Y-64049404D02*
X172252914Y-64001785D01*
X172252914Y-64001785D02*
X172157676Y-63954166D01*
X172157676Y-63954166D02*
X172062438Y-63858928D01*
X172062438Y-63858928D02*
X172014819Y-63716071D01*
X172014819Y-63716071D02*
X172014819Y-63620833D01*
X172014819Y-63620833D02*
X172062438Y-63477976D01*
X172062438Y-63477976D02*
X172110057Y-63430357D01*
X172110057Y-63049404D02*
X172062438Y-63001785D01*
X172062438Y-63001785D02*
X172014819Y-62906547D01*
X172014819Y-62906547D02*
X172014819Y-62668452D01*
X172014819Y-62668452D02*
X172062438Y-62573214D01*
X172062438Y-62573214D02*
X172110057Y-62525595D01*
X172110057Y-62525595D02*
X172205295Y-62477976D01*
X172205295Y-62477976D02*
X172300533Y-62477976D01*
X172300533Y-62477976D02*
X172443390Y-62525595D01*
X172443390Y-62525595D02*
X173014819Y-63097023D01*
X173014819Y-63097023D02*
X173014819Y-62477976D01*
X172014819Y-61620833D02*
X172014819Y-61811309D01*
X172014819Y-61811309D02*
X172062438Y-61906547D01*
X172062438Y-61906547D02*
X172110057Y-61954166D01*
X172110057Y-61954166D02*
X172252914Y-62049404D01*
X172252914Y-62049404D02*
X172443390Y-62097023D01*
X172443390Y-62097023D02*
X172824342Y-62097023D01*
X172824342Y-62097023D02*
X172919580Y-62049404D01*
X172919580Y-62049404D02*
X172967200Y-62001785D01*
X172967200Y-62001785D02*
X173014819Y-61906547D01*
X173014819Y-61906547D02*
X173014819Y-61716071D01*
X173014819Y-61716071D02*
X172967200Y-61620833D01*
X172967200Y-61620833D02*
X172919580Y-61573214D01*
X172919580Y-61573214D02*
X172824342Y-61525595D01*
X172824342Y-61525595D02*
X172586247Y-61525595D01*
X172586247Y-61525595D02*
X172491009Y-61573214D01*
X172491009Y-61573214D02*
X172443390Y-61620833D01*
X172443390Y-61620833D02*
X172395771Y-61716071D01*
X172395771Y-61716071D02*
X172395771Y-61906547D01*
X172395771Y-61906547D02*
X172443390Y-62001785D01*
X172443390Y-62001785D02*
X172491009Y-62049404D01*
X172491009Y-62049404D02*
X172586247Y-62097023D01*
X204273809Y-62528628D02*
X204273809Y-63004819D01*
X203940476Y-62004819D02*
X204273809Y-62528628D01*
X204273809Y-62528628D02*
X204607142Y-62004819D01*
X204892857Y-62100057D02*
X204940476Y-62052438D01*
X204940476Y-62052438D02*
X205035714Y-62004819D01*
X205035714Y-62004819D02*
X205273809Y-62004819D01*
X205273809Y-62004819D02*
X205369047Y-62052438D01*
X205369047Y-62052438D02*
X205416666Y-62100057D01*
X205416666Y-62100057D02*
X205464285Y-62195295D01*
X205464285Y-62195295D02*
X205464285Y-62290533D01*
X205464285Y-62290533D02*
X205416666Y-62433390D01*
X205416666Y-62433390D02*
X204845238Y-63004819D01*
X204845238Y-63004819D02*
X205464285Y-63004819D01*
X158931009Y-68333333D02*
X158931009Y-68666666D01*
X159454819Y-68666666D02*
X158454819Y-68666666D01*
X158454819Y-68666666D02*
X158454819Y-68190476D01*
X158931009Y-67476190D02*
X158978628Y-67333333D01*
X158978628Y-67333333D02*
X159026247Y-67285714D01*
X159026247Y-67285714D02*
X159121485Y-67238095D01*
X159121485Y-67238095D02*
X159264342Y-67238095D01*
X159264342Y-67238095D02*
X159359580Y-67285714D01*
X159359580Y-67285714D02*
X159407200Y-67333333D01*
X159407200Y-67333333D02*
X159454819Y-67428571D01*
X159454819Y-67428571D02*
X159454819Y-67809523D01*
X159454819Y-67809523D02*
X158454819Y-67809523D01*
X158454819Y-67809523D02*
X158454819Y-67476190D01*
X158454819Y-67476190D02*
X158502438Y-67380952D01*
X158502438Y-67380952D02*
X158550057Y-67333333D01*
X158550057Y-67333333D02*
X158645295Y-67285714D01*
X158645295Y-67285714D02*
X158740533Y-67285714D01*
X158740533Y-67285714D02*
X158835771Y-67333333D01*
X158835771Y-67333333D02*
X158883390Y-67380952D01*
X158883390Y-67380952D02*
X158931009Y-67476190D01*
X158931009Y-67476190D02*
X158931009Y-67809523D01*
X159454819Y-66285714D02*
X159454819Y-66857142D01*
X159454819Y-66571428D02*
X158454819Y-66571428D01*
X158454819Y-66571428D02*
X158597676Y-66666666D01*
X158597676Y-66666666D02*
X158692914Y-66761904D01*
X158692914Y-66761904D02*
X158740533Y-66857142D01*
X200357142Y-75959580D02*
X200309523Y-76007200D01*
X200309523Y-76007200D02*
X200166666Y-76054819D01*
X200166666Y-76054819D02*
X200071428Y-76054819D01*
X200071428Y-76054819D02*
X199928571Y-76007200D01*
X199928571Y-76007200D02*
X199833333Y-75911961D01*
X199833333Y-75911961D02*
X199785714Y-75816723D01*
X199785714Y-75816723D02*
X199738095Y-75626247D01*
X199738095Y-75626247D02*
X199738095Y-75483390D01*
X199738095Y-75483390D02*
X199785714Y-75292914D01*
X199785714Y-75292914D02*
X199833333Y-75197676D01*
X199833333Y-75197676D02*
X199928571Y-75102438D01*
X199928571Y-75102438D02*
X200071428Y-75054819D01*
X200071428Y-75054819D02*
X200166666Y-75054819D01*
X200166666Y-75054819D02*
X200309523Y-75102438D01*
X200309523Y-75102438D02*
X200357142Y-75150057D01*
X201309523Y-76054819D02*
X200738095Y-76054819D01*
X201023809Y-76054819D02*
X201023809Y-75054819D01*
X201023809Y-75054819D02*
X200928571Y-75197676D01*
X200928571Y-75197676D02*
X200833333Y-75292914D01*
X200833333Y-75292914D02*
X200738095Y-75340533D01*
X202166666Y-75054819D02*
X201976190Y-75054819D01*
X201976190Y-75054819D02*
X201880952Y-75102438D01*
X201880952Y-75102438D02*
X201833333Y-75150057D01*
X201833333Y-75150057D02*
X201738095Y-75292914D01*
X201738095Y-75292914D02*
X201690476Y-75483390D01*
X201690476Y-75483390D02*
X201690476Y-75864342D01*
X201690476Y-75864342D02*
X201738095Y-75959580D01*
X201738095Y-75959580D02*
X201785714Y-76007200D01*
X201785714Y-76007200D02*
X201880952Y-76054819D01*
X201880952Y-76054819D02*
X202071428Y-76054819D01*
X202071428Y-76054819D02*
X202166666Y-76007200D01*
X202166666Y-76007200D02*
X202214285Y-75959580D01*
X202214285Y-75959580D02*
X202261904Y-75864342D01*
X202261904Y-75864342D02*
X202261904Y-75626247D01*
X202261904Y-75626247D02*
X202214285Y-75531009D01*
X202214285Y-75531009D02*
X202166666Y-75483390D01*
X202166666Y-75483390D02*
X202071428Y-75435771D01*
X202071428Y-75435771D02*
X201880952Y-75435771D01*
X201880952Y-75435771D02*
X201785714Y-75483390D01*
X201785714Y-75483390D02*
X201738095Y-75531009D01*
X201738095Y-75531009D02*
X201690476Y-75626247D01*
X133016667Y-76033200D02*
X133159524Y-76080819D01*
X133159524Y-76080819D02*
X133397619Y-76080819D01*
X133397619Y-76080819D02*
X133492857Y-76033200D01*
X133492857Y-76033200D02*
X133540476Y-75985580D01*
X133540476Y-75985580D02*
X133588095Y-75890342D01*
X133588095Y-75890342D02*
X133588095Y-75795104D01*
X133588095Y-75795104D02*
X133540476Y-75699866D01*
X133540476Y-75699866D02*
X133492857Y-75652247D01*
X133492857Y-75652247D02*
X133397619Y-75604628D01*
X133397619Y-75604628D02*
X133207143Y-75557009D01*
X133207143Y-75557009D02*
X133111905Y-75509390D01*
X133111905Y-75509390D02*
X133064286Y-75461771D01*
X133064286Y-75461771D02*
X133016667Y-75366533D01*
X133016667Y-75366533D02*
X133016667Y-75271295D01*
X133016667Y-75271295D02*
X133064286Y-75176057D01*
X133064286Y-75176057D02*
X133111905Y-75128438D01*
X133111905Y-75128438D02*
X133207143Y-75080819D01*
X133207143Y-75080819D02*
X133445238Y-75080819D01*
X133445238Y-75080819D02*
X133588095Y-75128438D01*
X133921429Y-75080819D02*
X134159524Y-76080819D01*
X134159524Y-76080819D02*
X134350000Y-75366533D01*
X134350000Y-75366533D02*
X134540476Y-76080819D01*
X134540476Y-76080819D02*
X134778572Y-75080819D01*
X135111905Y-75176057D02*
X135159524Y-75128438D01*
X135159524Y-75128438D02*
X135254762Y-75080819D01*
X135254762Y-75080819D02*
X135492857Y-75080819D01*
X135492857Y-75080819D02*
X135588095Y-75128438D01*
X135588095Y-75128438D02*
X135635714Y-75176057D01*
X135635714Y-75176057D02*
X135683333Y-75271295D01*
X135683333Y-75271295D02*
X135683333Y-75366533D01*
X135683333Y-75366533D02*
X135635714Y-75509390D01*
X135635714Y-75509390D02*
X135064286Y-76080819D01*
X135064286Y-76080819D02*
X135683333Y-76080819D01*
X155954819Y-66666666D02*
X155478628Y-66999999D01*
X155954819Y-67238094D02*
X154954819Y-67238094D01*
X154954819Y-67238094D02*
X154954819Y-66857142D01*
X154954819Y-66857142D02*
X155002438Y-66761904D01*
X155002438Y-66761904D02*
X155050057Y-66714285D01*
X155050057Y-66714285D02*
X155145295Y-66666666D01*
X155145295Y-66666666D02*
X155288152Y-66666666D01*
X155288152Y-66666666D02*
X155383390Y-66714285D01*
X155383390Y-66714285D02*
X155431009Y-66761904D01*
X155431009Y-66761904D02*
X155478628Y-66857142D01*
X155478628Y-66857142D02*
X155478628Y-67238094D01*
X154954819Y-65761904D02*
X154954819Y-66238094D01*
X154954819Y-66238094D02*
X155431009Y-66285713D01*
X155431009Y-66285713D02*
X155383390Y-66238094D01*
X155383390Y-66238094D02*
X155335771Y-66142856D01*
X155335771Y-66142856D02*
X155335771Y-65904761D01*
X155335771Y-65904761D02*
X155383390Y-65809523D01*
X155383390Y-65809523D02*
X155431009Y-65761904D01*
X155431009Y-65761904D02*
X155526247Y-65714285D01*
X155526247Y-65714285D02*
X155764342Y-65714285D01*
X155764342Y-65714285D02*
X155859580Y-65761904D01*
X155859580Y-65761904D02*
X155907200Y-65809523D01*
X155907200Y-65809523D02*
X155954819Y-65904761D01*
X155954819Y-65904761D02*
X155954819Y-66142856D01*
X155954819Y-66142856D02*
X155907200Y-66238094D01*
X155907200Y-66238094D02*
X155859580Y-66285713D01*
X207857142Y-78359580D02*
X207809523Y-78407200D01*
X207809523Y-78407200D02*
X207666666Y-78454819D01*
X207666666Y-78454819D02*
X207571428Y-78454819D01*
X207571428Y-78454819D02*
X207428571Y-78407200D01*
X207428571Y-78407200D02*
X207333333Y-78311961D01*
X207333333Y-78311961D02*
X207285714Y-78216723D01*
X207285714Y-78216723D02*
X207238095Y-78026247D01*
X207238095Y-78026247D02*
X207238095Y-77883390D01*
X207238095Y-77883390D02*
X207285714Y-77692914D01*
X207285714Y-77692914D02*
X207333333Y-77597676D01*
X207333333Y-77597676D02*
X207428571Y-77502438D01*
X207428571Y-77502438D02*
X207571428Y-77454819D01*
X207571428Y-77454819D02*
X207666666Y-77454819D01*
X207666666Y-77454819D02*
X207809523Y-77502438D01*
X207809523Y-77502438D02*
X207857142Y-77550057D01*
X208809523Y-78454819D02*
X208238095Y-78454819D01*
X208523809Y-78454819D02*
X208523809Y-77454819D01*
X208523809Y-77454819D02*
X208428571Y-77597676D01*
X208428571Y-77597676D02*
X208333333Y-77692914D01*
X208333333Y-77692914D02*
X208238095Y-77740533D01*
X209380952Y-77883390D02*
X209285714Y-77835771D01*
X209285714Y-77835771D02*
X209238095Y-77788152D01*
X209238095Y-77788152D02*
X209190476Y-77692914D01*
X209190476Y-77692914D02*
X209190476Y-77645295D01*
X209190476Y-77645295D02*
X209238095Y-77550057D01*
X209238095Y-77550057D02*
X209285714Y-77502438D01*
X209285714Y-77502438D02*
X209380952Y-77454819D01*
X209380952Y-77454819D02*
X209571428Y-77454819D01*
X209571428Y-77454819D02*
X209666666Y-77502438D01*
X209666666Y-77502438D02*
X209714285Y-77550057D01*
X209714285Y-77550057D02*
X209761904Y-77645295D01*
X209761904Y-77645295D02*
X209761904Y-77692914D01*
X209761904Y-77692914D02*
X209714285Y-77788152D01*
X209714285Y-77788152D02*
X209666666Y-77835771D01*
X209666666Y-77835771D02*
X209571428Y-77883390D01*
X209571428Y-77883390D02*
X209380952Y-77883390D01*
X209380952Y-77883390D02*
X209285714Y-77931009D01*
X209285714Y-77931009D02*
X209238095Y-77978628D01*
X209238095Y-77978628D02*
X209190476Y-78073866D01*
X209190476Y-78073866D02*
X209190476Y-78264342D01*
X209190476Y-78264342D02*
X209238095Y-78359580D01*
X209238095Y-78359580D02*
X209285714Y-78407200D01*
X209285714Y-78407200D02*
X209380952Y-78454819D01*
X209380952Y-78454819D02*
X209571428Y-78454819D01*
X209571428Y-78454819D02*
X209666666Y-78407200D01*
X209666666Y-78407200D02*
X209714285Y-78359580D01*
X209714285Y-78359580D02*
X209761904Y-78264342D01*
X209761904Y-78264342D02*
X209761904Y-78073866D01*
X209761904Y-78073866D02*
X209714285Y-77978628D01*
X209714285Y-77978628D02*
X209666666Y-77931009D01*
X209666666Y-77931009D02*
X209571428Y-77883390D01*
X199633333Y-60447080D02*
X199585714Y-60494700D01*
X199585714Y-60494700D02*
X199442857Y-60542319D01*
X199442857Y-60542319D02*
X199347619Y-60542319D01*
X199347619Y-60542319D02*
X199204762Y-60494700D01*
X199204762Y-60494700D02*
X199109524Y-60399461D01*
X199109524Y-60399461D02*
X199061905Y-60304223D01*
X199061905Y-60304223D02*
X199014286Y-60113747D01*
X199014286Y-60113747D02*
X199014286Y-59970890D01*
X199014286Y-59970890D02*
X199061905Y-59780414D01*
X199061905Y-59780414D02*
X199109524Y-59685176D01*
X199109524Y-59685176D02*
X199204762Y-59589938D01*
X199204762Y-59589938D02*
X199347619Y-59542319D01*
X199347619Y-59542319D02*
X199442857Y-59542319D01*
X199442857Y-59542319D02*
X199585714Y-59589938D01*
X199585714Y-59589938D02*
X199633333Y-59637557D01*
X200109524Y-60542319D02*
X200300000Y-60542319D01*
X200300000Y-60542319D02*
X200395238Y-60494700D01*
X200395238Y-60494700D02*
X200442857Y-60447080D01*
X200442857Y-60447080D02*
X200538095Y-60304223D01*
X200538095Y-60304223D02*
X200585714Y-60113747D01*
X200585714Y-60113747D02*
X200585714Y-59732795D01*
X200585714Y-59732795D02*
X200538095Y-59637557D01*
X200538095Y-59637557D02*
X200490476Y-59589938D01*
X200490476Y-59589938D02*
X200395238Y-59542319D01*
X200395238Y-59542319D02*
X200204762Y-59542319D01*
X200204762Y-59542319D02*
X200109524Y-59589938D01*
X200109524Y-59589938D02*
X200061905Y-59637557D01*
X200061905Y-59637557D02*
X200014286Y-59732795D01*
X200014286Y-59732795D02*
X200014286Y-59970890D01*
X200014286Y-59970890D02*
X200061905Y-60066128D01*
X200061905Y-60066128D02*
X200109524Y-60113747D01*
X200109524Y-60113747D02*
X200204762Y-60161366D01*
X200204762Y-60161366D02*
X200395238Y-60161366D01*
X200395238Y-60161366D02*
X200490476Y-60113747D01*
X200490476Y-60113747D02*
X200538095Y-60066128D01*
X200538095Y-60066128D02*
X200585714Y-59970890D01*
X207857142Y-74359580D02*
X207809523Y-74407200D01*
X207809523Y-74407200D02*
X207666666Y-74454819D01*
X207666666Y-74454819D02*
X207571428Y-74454819D01*
X207571428Y-74454819D02*
X207428571Y-74407200D01*
X207428571Y-74407200D02*
X207333333Y-74311961D01*
X207333333Y-74311961D02*
X207285714Y-74216723D01*
X207285714Y-74216723D02*
X207238095Y-74026247D01*
X207238095Y-74026247D02*
X207238095Y-73883390D01*
X207238095Y-73883390D02*
X207285714Y-73692914D01*
X207285714Y-73692914D02*
X207333333Y-73597676D01*
X207333333Y-73597676D02*
X207428571Y-73502438D01*
X207428571Y-73502438D02*
X207571428Y-73454819D01*
X207571428Y-73454819D02*
X207666666Y-73454819D01*
X207666666Y-73454819D02*
X207809523Y-73502438D01*
X207809523Y-73502438D02*
X207857142Y-73550057D01*
X208238095Y-73550057D02*
X208285714Y-73502438D01*
X208285714Y-73502438D02*
X208380952Y-73454819D01*
X208380952Y-73454819D02*
X208619047Y-73454819D01*
X208619047Y-73454819D02*
X208714285Y-73502438D01*
X208714285Y-73502438D02*
X208761904Y-73550057D01*
X208761904Y-73550057D02*
X208809523Y-73645295D01*
X208809523Y-73645295D02*
X208809523Y-73740533D01*
X208809523Y-73740533D02*
X208761904Y-73883390D01*
X208761904Y-73883390D02*
X208190476Y-74454819D01*
X208190476Y-74454819D02*
X208809523Y-74454819D01*
X209428571Y-73454819D02*
X209523809Y-73454819D01*
X209523809Y-73454819D02*
X209619047Y-73502438D01*
X209619047Y-73502438D02*
X209666666Y-73550057D01*
X209666666Y-73550057D02*
X209714285Y-73645295D01*
X209714285Y-73645295D02*
X209761904Y-73835771D01*
X209761904Y-73835771D02*
X209761904Y-74073866D01*
X209761904Y-74073866D02*
X209714285Y-74264342D01*
X209714285Y-74264342D02*
X209666666Y-74359580D01*
X209666666Y-74359580D02*
X209619047Y-74407200D01*
X209619047Y-74407200D02*
X209523809Y-74454819D01*
X209523809Y-74454819D02*
X209428571Y-74454819D01*
X209428571Y-74454819D02*
X209333333Y-74407200D01*
X209333333Y-74407200D02*
X209285714Y-74359580D01*
X209285714Y-74359580D02*
X209238095Y-74264342D01*
X209238095Y-74264342D02*
X209190476Y-74073866D01*
X209190476Y-74073866D02*
X209190476Y-73835771D01*
X209190476Y-73835771D02*
X209238095Y-73645295D01*
X209238095Y-73645295D02*
X209285714Y-73550057D01*
X209285714Y-73550057D02*
X209333333Y-73502438D01*
X209333333Y-73502438D02*
X209428571Y-73454819D01*
X192975595Y-76372319D02*
X192975595Y-77181842D01*
X192975595Y-77181842D02*
X193023214Y-77277080D01*
X193023214Y-77277080D02*
X193070833Y-77324700D01*
X193070833Y-77324700D02*
X193166071Y-77372319D01*
X193166071Y-77372319D02*
X193356547Y-77372319D01*
X193356547Y-77372319D02*
X193451785Y-77324700D01*
X193451785Y-77324700D02*
X193499404Y-77277080D01*
X193499404Y-77277080D02*
X193547023Y-77181842D01*
X193547023Y-77181842D02*
X193547023Y-76372319D01*
X194547023Y-77372319D02*
X193975595Y-77372319D01*
X194261309Y-77372319D02*
X194261309Y-76372319D01*
X194261309Y-76372319D02*
X194166071Y-76515176D01*
X194166071Y-76515176D02*
X194070833Y-76610414D01*
X194070833Y-76610414D02*
X193975595Y-76658033D01*
X181694642Y-73509580D02*
X181647023Y-73557200D01*
X181647023Y-73557200D02*
X181504166Y-73604819D01*
X181504166Y-73604819D02*
X181408928Y-73604819D01*
X181408928Y-73604819D02*
X181266071Y-73557200D01*
X181266071Y-73557200D02*
X181170833Y-73461961D01*
X181170833Y-73461961D02*
X181123214Y-73366723D01*
X181123214Y-73366723D02*
X181075595Y-73176247D01*
X181075595Y-73176247D02*
X181075595Y-73033390D01*
X181075595Y-73033390D02*
X181123214Y-72842914D01*
X181123214Y-72842914D02*
X181170833Y-72747676D01*
X181170833Y-72747676D02*
X181266071Y-72652438D01*
X181266071Y-72652438D02*
X181408928Y-72604819D01*
X181408928Y-72604819D02*
X181504166Y-72604819D01*
X181504166Y-72604819D02*
X181647023Y-72652438D01*
X181647023Y-72652438D02*
X181694642Y-72700057D01*
X182647023Y-73604819D02*
X182075595Y-73604819D01*
X182361309Y-73604819D02*
X182361309Y-72604819D01*
X182361309Y-72604819D02*
X182266071Y-72747676D01*
X182266071Y-72747676D02*
X182170833Y-72842914D01*
X182170833Y-72842914D02*
X182075595Y-72890533D01*
X183599404Y-73604819D02*
X183027976Y-73604819D01*
X183313690Y-73604819D02*
X183313690Y-72604819D01*
X183313690Y-72604819D02*
X183218452Y-72747676D01*
X183218452Y-72747676D02*
X183123214Y-72842914D01*
X183123214Y-72842914D02*
X183027976Y-72890533D01*
X151444819Y-66666666D02*
X150968628Y-66999999D01*
X151444819Y-67238094D02*
X150444819Y-67238094D01*
X150444819Y-67238094D02*
X150444819Y-66857142D01*
X150444819Y-66857142D02*
X150492438Y-66761904D01*
X150492438Y-66761904D02*
X150540057Y-66714285D01*
X150540057Y-66714285D02*
X150635295Y-66666666D01*
X150635295Y-66666666D02*
X150778152Y-66666666D01*
X150778152Y-66666666D02*
X150873390Y-66714285D01*
X150873390Y-66714285D02*
X150921009Y-66761904D01*
X150921009Y-66761904D02*
X150968628Y-66857142D01*
X150968628Y-66857142D02*
X150968628Y-67238094D01*
X150444819Y-65809523D02*
X150444819Y-65999999D01*
X150444819Y-65999999D02*
X150492438Y-66095237D01*
X150492438Y-66095237D02*
X150540057Y-66142856D01*
X150540057Y-66142856D02*
X150682914Y-66238094D01*
X150682914Y-66238094D02*
X150873390Y-66285713D01*
X150873390Y-66285713D02*
X151254342Y-66285713D01*
X151254342Y-66285713D02*
X151349580Y-66238094D01*
X151349580Y-66238094D02*
X151397200Y-66190475D01*
X151397200Y-66190475D02*
X151444819Y-66095237D01*
X151444819Y-66095237D02*
X151444819Y-65904761D01*
X151444819Y-65904761D02*
X151397200Y-65809523D01*
X151397200Y-65809523D02*
X151349580Y-65761904D01*
X151349580Y-65761904D02*
X151254342Y-65714285D01*
X151254342Y-65714285D02*
X151016247Y-65714285D01*
X151016247Y-65714285D02*
X150921009Y-65761904D01*
X150921009Y-65761904D02*
X150873390Y-65809523D01*
X150873390Y-65809523D02*
X150825771Y-65904761D01*
X150825771Y-65904761D02*
X150825771Y-66095237D01*
X150825771Y-66095237D02*
X150873390Y-66190475D01*
X150873390Y-66190475D02*
X150921009Y-66238094D01*
X150921009Y-66238094D02*
X151016247Y-66285713D01*
X174400595Y-54092319D02*
X174400595Y-54901842D01*
X174400595Y-54901842D02*
X174448214Y-54997080D01*
X174448214Y-54997080D02*
X174495833Y-55044700D01*
X174495833Y-55044700D02*
X174591071Y-55092319D01*
X174591071Y-55092319D02*
X174781547Y-55092319D01*
X174781547Y-55092319D02*
X174876785Y-55044700D01*
X174876785Y-55044700D02*
X174924404Y-54997080D01*
X174924404Y-54997080D02*
X174972023Y-54901842D01*
X174972023Y-54901842D02*
X174972023Y-54092319D01*
X175876785Y-54425652D02*
X175876785Y-55092319D01*
X175638690Y-54044700D02*
X175400595Y-54758985D01*
X175400595Y-54758985D02*
X176019642Y-54758985D01*
X202333333Y-70359580D02*
X202285714Y-70407200D01*
X202285714Y-70407200D02*
X202142857Y-70454819D01*
X202142857Y-70454819D02*
X202047619Y-70454819D01*
X202047619Y-70454819D02*
X201904762Y-70407200D01*
X201904762Y-70407200D02*
X201809524Y-70311961D01*
X201809524Y-70311961D02*
X201761905Y-70216723D01*
X201761905Y-70216723D02*
X201714286Y-70026247D01*
X201714286Y-70026247D02*
X201714286Y-69883390D01*
X201714286Y-69883390D02*
X201761905Y-69692914D01*
X201761905Y-69692914D02*
X201809524Y-69597676D01*
X201809524Y-69597676D02*
X201904762Y-69502438D01*
X201904762Y-69502438D02*
X202047619Y-69454819D01*
X202047619Y-69454819D02*
X202142857Y-69454819D01*
X202142857Y-69454819D02*
X202285714Y-69502438D01*
X202285714Y-69502438D02*
X202333333Y-69550057D01*
X203285714Y-70454819D02*
X202714286Y-70454819D01*
X203000000Y-70454819D02*
X203000000Y-69454819D01*
X203000000Y-69454819D02*
X202904762Y-69597676D01*
X202904762Y-69597676D02*
X202809524Y-69692914D01*
X202809524Y-69692914D02*
X202714286Y-69740533D01*
X161833333Y-72359580D02*
X161785714Y-72407200D01*
X161785714Y-72407200D02*
X161642857Y-72454819D01*
X161642857Y-72454819D02*
X161547619Y-72454819D01*
X161547619Y-72454819D02*
X161404762Y-72407200D01*
X161404762Y-72407200D02*
X161309524Y-72311961D01*
X161309524Y-72311961D02*
X161261905Y-72216723D01*
X161261905Y-72216723D02*
X161214286Y-72026247D01*
X161214286Y-72026247D02*
X161214286Y-71883390D01*
X161214286Y-71883390D02*
X161261905Y-71692914D01*
X161261905Y-71692914D02*
X161309524Y-71597676D01*
X161309524Y-71597676D02*
X161404762Y-71502438D01*
X161404762Y-71502438D02*
X161547619Y-71454819D01*
X161547619Y-71454819D02*
X161642857Y-71454819D01*
X161642857Y-71454819D02*
X161785714Y-71502438D01*
X161785714Y-71502438D02*
X161833333Y-71550057D01*
X162690476Y-71788152D02*
X162690476Y-72454819D01*
X162452381Y-71407200D02*
X162214286Y-72121485D01*
X162214286Y-72121485D02*
X162833333Y-72121485D01*
X181694642Y-76509580D02*
X181647023Y-76557200D01*
X181647023Y-76557200D02*
X181504166Y-76604819D01*
X181504166Y-76604819D02*
X181408928Y-76604819D01*
X181408928Y-76604819D02*
X181266071Y-76557200D01*
X181266071Y-76557200D02*
X181170833Y-76461961D01*
X181170833Y-76461961D02*
X181123214Y-76366723D01*
X181123214Y-76366723D02*
X181075595Y-76176247D01*
X181075595Y-76176247D02*
X181075595Y-76033390D01*
X181075595Y-76033390D02*
X181123214Y-75842914D01*
X181123214Y-75842914D02*
X181170833Y-75747676D01*
X181170833Y-75747676D02*
X181266071Y-75652438D01*
X181266071Y-75652438D02*
X181408928Y-75604819D01*
X181408928Y-75604819D02*
X181504166Y-75604819D01*
X181504166Y-75604819D02*
X181647023Y-75652438D01*
X181647023Y-75652438D02*
X181694642Y-75700057D01*
X182647023Y-76604819D02*
X182075595Y-76604819D01*
X182361309Y-76604819D02*
X182361309Y-75604819D01*
X182361309Y-75604819D02*
X182266071Y-75747676D01*
X182266071Y-75747676D02*
X182170833Y-75842914D01*
X182170833Y-75842914D02*
X182075595Y-75890533D01*
X183266071Y-75604819D02*
X183361309Y-75604819D01*
X183361309Y-75604819D02*
X183456547Y-75652438D01*
X183456547Y-75652438D02*
X183504166Y-75700057D01*
X183504166Y-75700057D02*
X183551785Y-75795295D01*
X183551785Y-75795295D02*
X183599404Y-75985771D01*
X183599404Y-75985771D02*
X183599404Y-76223866D01*
X183599404Y-76223866D02*
X183551785Y-76414342D01*
X183551785Y-76414342D02*
X183504166Y-76509580D01*
X183504166Y-76509580D02*
X183456547Y-76557200D01*
X183456547Y-76557200D02*
X183361309Y-76604819D01*
X183361309Y-76604819D02*
X183266071Y-76604819D01*
X183266071Y-76604819D02*
X183170833Y-76557200D01*
X183170833Y-76557200D02*
X183123214Y-76509580D01*
X183123214Y-76509580D02*
X183075595Y-76414342D01*
X183075595Y-76414342D02*
X183027976Y-76223866D01*
X183027976Y-76223866D02*
X183027976Y-75985771D01*
X183027976Y-75985771D02*
X183075595Y-75795295D01*
X183075595Y-75795295D02*
X183123214Y-75700057D01*
X183123214Y-75700057D02*
X183170833Y-75652438D01*
X183170833Y-75652438D02*
X183266071Y-75604819D01*
X132746667Y-56073200D02*
X132889524Y-56120819D01*
X132889524Y-56120819D02*
X133127619Y-56120819D01*
X133127619Y-56120819D02*
X133222857Y-56073200D01*
X133222857Y-56073200D02*
X133270476Y-56025580D01*
X133270476Y-56025580D02*
X133318095Y-55930342D01*
X133318095Y-55930342D02*
X133318095Y-55835104D01*
X133318095Y-55835104D02*
X133270476Y-55739866D01*
X133270476Y-55739866D02*
X133222857Y-55692247D01*
X133222857Y-55692247D02*
X133127619Y-55644628D01*
X133127619Y-55644628D02*
X132937143Y-55597009D01*
X132937143Y-55597009D02*
X132841905Y-55549390D01*
X132841905Y-55549390D02*
X132794286Y-55501771D01*
X132794286Y-55501771D02*
X132746667Y-55406533D01*
X132746667Y-55406533D02*
X132746667Y-55311295D01*
X132746667Y-55311295D02*
X132794286Y-55216057D01*
X132794286Y-55216057D02*
X132841905Y-55168438D01*
X132841905Y-55168438D02*
X132937143Y-55120819D01*
X132937143Y-55120819D02*
X133175238Y-55120819D01*
X133175238Y-55120819D02*
X133318095Y-55168438D01*
X133651429Y-55120819D02*
X133889524Y-56120819D01*
X133889524Y-56120819D02*
X134080000Y-55406533D01*
X134080000Y-55406533D02*
X134270476Y-56120819D01*
X134270476Y-56120819D02*
X134508572Y-55120819D01*
X135413333Y-56120819D02*
X134841905Y-56120819D01*
X135127619Y-56120819D02*
X135127619Y-55120819D01*
X135127619Y-55120819D02*
X135032381Y-55263676D01*
X135032381Y-55263676D02*
X134937143Y-55358914D01*
X134937143Y-55358914D02*
X134841905Y-55406533D01*
X201359580Y-80742857D02*
X201407200Y-80790476D01*
X201407200Y-80790476D02*
X201454819Y-80933333D01*
X201454819Y-80933333D02*
X201454819Y-81028571D01*
X201454819Y-81028571D02*
X201407200Y-81171428D01*
X201407200Y-81171428D02*
X201311961Y-81266666D01*
X201311961Y-81266666D02*
X201216723Y-81314285D01*
X201216723Y-81314285D02*
X201026247Y-81361904D01*
X201026247Y-81361904D02*
X200883390Y-81361904D01*
X200883390Y-81361904D02*
X200692914Y-81314285D01*
X200692914Y-81314285D02*
X200597676Y-81266666D01*
X200597676Y-81266666D02*
X200502438Y-81171428D01*
X200502438Y-81171428D02*
X200454819Y-81028571D01*
X200454819Y-81028571D02*
X200454819Y-80933333D01*
X200454819Y-80933333D02*
X200502438Y-80790476D01*
X200502438Y-80790476D02*
X200550057Y-80742857D01*
X201454819Y-79790476D02*
X201454819Y-80361904D01*
X201454819Y-80076190D02*
X200454819Y-80076190D01*
X200454819Y-80076190D02*
X200597676Y-80171428D01*
X200597676Y-80171428D02*
X200692914Y-80266666D01*
X200692914Y-80266666D02*
X200740533Y-80361904D01*
X200550057Y-79409523D02*
X200502438Y-79361904D01*
X200502438Y-79361904D02*
X200454819Y-79266666D01*
X200454819Y-79266666D02*
X200454819Y-79028571D01*
X200454819Y-79028571D02*
X200502438Y-78933333D01*
X200502438Y-78933333D02*
X200550057Y-78885714D01*
X200550057Y-78885714D02*
X200645295Y-78838095D01*
X200645295Y-78838095D02*
X200740533Y-78838095D01*
X200740533Y-78838095D02*
X200883390Y-78885714D01*
X200883390Y-78885714D02*
X201454819Y-79457142D01*
X201454819Y-79457142D02*
X201454819Y-78838095D01*
X169423809Y-64466128D02*
X169423809Y-64942319D01*
X169090476Y-63942319D02*
X169423809Y-64466128D01*
X169423809Y-64466128D02*
X169757142Y-63942319D01*
X170614285Y-64942319D02*
X170042857Y-64942319D01*
X170328571Y-64942319D02*
X170328571Y-63942319D01*
X170328571Y-63942319D02*
X170233333Y-64085176D01*
X170233333Y-64085176D02*
X170138095Y-64180414D01*
X170138095Y-64180414D02*
X170042857Y-64228033D01*
X207857142Y-80859580D02*
X207809523Y-80907200D01*
X207809523Y-80907200D02*
X207666666Y-80954819D01*
X207666666Y-80954819D02*
X207571428Y-80954819D01*
X207571428Y-80954819D02*
X207428571Y-80907200D01*
X207428571Y-80907200D02*
X207333333Y-80811961D01*
X207333333Y-80811961D02*
X207285714Y-80716723D01*
X207285714Y-80716723D02*
X207238095Y-80526247D01*
X207238095Y-80526247D02*
X207238095Y-80383390D01*
X207238095Y-80383390D02*
X207285714Y-80192914D01*
X207285714Y-80192914D02*
X207333333Y-80097676D01*
X207333333Y-80097676D02*
X207428571Y-80002438D01*
X207428571Y-80002438D02*
X207571428Y-79954819D01*
X207571428Y-79954819D02*
X207666666Y-79954819D01*
X207666666Y-79954819D02*
X207809523Y-80002438D01*
X207809523Y-80002438D02*
X207857142Y-80050057D01*
X208809523Y-80954819D02*
X208238095Y-80954819D01*
X208523809Y-80954819D02*
X208523809Y-79954819D01*
X208523809Y-79954819D02*
X208428571Y-80097676D01*
X208428571Y-80097676D02*
X208333333Y-80192914D01*
X208333333Y-80192914D02*
X208238095Y-80240533D01*
X209142857Y-79954819D02*
X209809523Y-79954819D01*
X209809523Y-79954819D02*
X209380952Y-80954819D01*
X152954819Y-66666666D02*
X152478628Y-66999999D01*
X152954819Y-67238094D02*
X151954819Y-67238094D01*
X151954819Y-67238094D02*
X151954819Y-66857142D01*
X151954819Y-66857142D02*
X152002438Y-66761904D01*
X152002438Y-66761904D02*
X152050057Y-66714285D01*
X152050057Y-66714285D02*
X152145295Y-66666666D01*
X152145295Y-66666666D02*
X152288152Y-66666666D01*
X152288152Y-66666666D02*
X152383390Y-66714285D01*
X152383390Y-66714285D02*
X152431009Y-66761904D01*
X152431009Y-66761904D02*
X152478628Y-66857142D01*
X152478628Y-66857142D02*
X152478628Y-67238094D01*
X151954819Y-66333332D02*
X151954819Y-65714285D01*
X151954819Y-65714285D02*
X152335771Y-66047618D01*
X152335771Y-66047618D02*
X152335771Y-65904761D01*
X152335771Y-65904761D02*
X152383390Y-65809523D01*
X152383390Y-65809523D02*
X152431009Y-65761904D01*
X152431009Y-65761904D02*
X152526247Y-65714285D01*
X152526247Y-65714285D02*
X152764342Y-65714285D01*
X152764342Y-65714285D02*
X152859580Y-65761904D01*
X152859580Y-65761904D02*
X152907200Y-65809523D01*
X152907200Y-65809523D02*
X152954819Y-65904761D01*
X152954819Y-65904761D02*
X152954819Y-66190475D01*
X152954819Y-66190475D02*
X152907200Y-66285713D01*
X152907200Y-66285713D02*
X152859580Y-66333332D01*
X174233333Y-72242319D02*
X173757143Y-72242319D01*
X173757143Y-72242319D02*
X173757143Y-71242319D01*
X175090476Y-72242319D02*
X174519048Y-72242319D01*
X174804762Y-72242319D02*
X174804762Y-71242319D01*
X174804762Y-71242319D02*
X174709524Y-71385176D01*
X174709524Y-71385176D02*
X174614286Y-71480414D01*
X174614286Y-71480414D02*
X174519048Y-71528033D01*
X201333333Y-73459580D02*
X201285714Y-73507200D01*
X201285714Y-73507200D02*
X201142857Y-73554819D01*
X201142857Y-73554819D02*
X201047619Y-73554819D01*
X201047619Y-73554819D02*
X200904762Y-73507200D01*
X200904762Y-73507200D02*
X200809524Y-73411961D01*
X200809524Y-73411961D02*
X200761905Y-73316723D01*
X200761905Y-73316723D02*
X200714286Y-73126247D01*
X200714286Y-73126247D02*
X200714286Y-72983390D01*
X200714286Y-72983390D02*
X200761905Y-72792914D01*
X200761905Y-72792914D02*
X200809524Y-72697676D01*
X200809524Y-72697676D02*
X200904762Y-72602438D01*
X200904762Y-72602438D02*
X201047619Y-72554819D01*
X201047619Y-72554819D02*
X201142857Y-72554819D01*
X201142857Y-72554819D02*
X201285714Y-72602438D01*
X201285714Y-72602438D02*
X201333333Y-72650057D01*
X201714286Y-72650057D02*
X201761905Y-72602438D01*
X201761905Y-72602438D02*
X201857143Y-72554819D01*
X201857143Y-72554819D02*
X202095238Y-72554819D01*
X202095238Y-72554819D02*
X202190476Y-72602438D01*
X202190476Y-72602438D02*
X202238095Y-72650057D01*
X202238095Y-72650057D02*
X202285714Y-72745295D01*
X202285714Y-72745295D02*
X202285714Y-72840533D01*
X202285714Y-72840533D02*
X202238095Y-72983390D01*
X202238095Y-72983390D02*
X201666667Y-73554819D01*
X201666667Y-73554819D02*
X202285714Y-73554819D01*
%TO.C,J1*%
D12*
X158105000Y-57100000D02*
X158105000Y-58800000D01*
X148765000Y-57100000D02*
X148765000Y-58800000D01*
%TO.C,C19*%
X184749664Y-74290000D02*
X184965336Y-74290000D01*
X184749664Y-75010000D02*
X184965336Y-75010000D01*
%TO.C,C7*%
X194692164Y-57227500D02*
X194907836Y-57227500D01*
X194692164Y-57947500D02*
X194907836Y-57947500D01*
%TO.C,C21*%
X196640000Y-63892164D02*
X196640000Y-64107836D01*
X197360000Y-63892164D02*
X197360000Y-64107836D01*
%TO.C,C8*%
X197172164Y-57227500D02*
X197387836Y-57227500D01*
X197172164Y-57947500D02*
X197387836Y-57947500D01*
%TO.C,U2*%
X175140000Y-64827500D02*
X175615000Y-64827500D01*
X175140000Y-65302500D02*
X175140000Y-64827500D01*
X175140000Y-69047500D02*
X175140000Y-68572500D01*
X175615000Y-69047500D02*
X175140000Y-69047500D01*
X178885000Y-64827500D02*
X179360000Y-64827500D01*
X179360000Y-64827500D02*
X179360000Y-65302500D01*
X179360000Y-68572500D02*
X179360000Y-69047500D01*
X179360000Y-69047500D02*
X178885000Y-69047500D01*
X174640000Y-65687500D02*
X174310000Y-65927500D01*
X174310000Y-65447500D01*
X174640000Y-65687500D01*
G36*
X174640000Y-65687500D02*
G01*
X174310000Y-65927500D01*
X174310000Y-65447500D01*
X174640000Y-65687500D01*
G37*
%TO.C,C27*%
X165812164Y-67927500D02*
X166027836Y-67927500D01*
X165812164Y-68647500D02*
X166027836Y-68647500D01*
%TO.C,AE1*%
X203470000Y-54797500D02*
X203470000Y-54917500D01*
X203470000Y-54917500D02*
X206130000Y-54917500D01*
X204800000Y-52257500D02*
X206130000Y-52257500D01*
X206130000Y-52257500D02*
X206130000Y-53587500D01*
X206130000Y-54797500D02*
X206130000Y-54917500D01*
%TO.C,R8*%
X186846359Y-68620000D02*
X187153641Y-68620000D01*
X186846359Y-69380000D02*
X187153641Y-69380000D01*
%TO.C,C13*%
X202912164Y-82930000D02*
X203127836Y-82930000D01*
X202912164Y-83650000D02*
X203127836Y-83650000D01*
%TO.C,C25*%
X203127836Y-78900000D02*
X202912164Y-78900000D01*
X203127836Y-79620000D02*
X202912164Y-79620000D01*
%TO.C,C28*%
X205892164Y-75900000D02*
X206107836Y-75900000D01*
X205892164Y-76620000D02*
X206107836Y-76620000D01*
%TO.C,R1*%
X192156359Y-60707500D02*
X192463641Y-60707500D01*
X192156359Y-61467500D02*
X192463641Y-61467500D01*
%TO.C,C22*%
X194607836Y-64640000D02*
X194392164Y-64640000D01*
X194607836Y-65360000D02*
X194392164Y-65360000D01*
%TO.C,C5*%
X163737164Y-73640000D02*
X163952836Y-73640000D01*
X163737164Y-74360000D02*
X163952836Y-74360000D01*
%TO.C,C6*%
X192192164Y-62227500D02*
X192407836Y-62227500D01*
X192192164Y-62947500D02*
X192407836Y-62947500D01*
%TO.C,U5*%
X191077500Y-79390000D02*
X196597500Y-79390000D01*
X191077500Y-79660000D02*
X191077500Y-79390000D01*
X191077500Y-84910000D02*
X191077500Y-84640000D01*
X196597500Y-79390000D02*
X196597500Y-79660000D01*
X196597500Y-84640000D02*
X196597500Y-84910000D01*
X196597500Y-84910000D02*
X191077500Y-84910000D01*
X197427500Y-84650000D02*
X197767500Y-85120000D01*
X197087500Y-85120000D01*
X197427500Y-84650000D01*
G36*
X197767500Y-85120000D02*
G01*
X197087500Y-85120000D01*
X197427500Y-84650000D01*
X197767500Y-85120000D01*
G37*
%TO.C,R7*%
X143890000Y-58153641D02*
X143890000Y-57846359D01*
X144650000Y-58153641D02*
X144650000Y-57846359D01*
%TO.C,U3*%
X190565000Y-56477500D02*
X192035000Y-56477500D01*
X190565000Y-56502500D02*
X190565000Y-56477500D01*
X190565000Y-58697500D02*
X190565000Y-58672500D01*
X192035000Y-56477500D02*
X192035000Y-56502500D01*
X192035000Y-58672500D02*
X192035000Y-58697500D01*
X192035000Y-58697500D02*
X190565000Y-58697500D01*
X190120000Y-56497500D02*
X189980000Y-56307500D01*
X190260000Y-56307500D01*
X190120000Y-56497500D01*
G36*
X190120000Y-56497500D02*
G01*
X189980000Y-56307500D01*
X190260000Y-56307500D01*
X190120000Y-56497500D01*
G37*
%TO.C,C23*%
X170907836Y-57727500D02*
X170692164Y-57727500D01*
X170907836Y-58447500D02*
X170692164Y-58447500D01*
%TO.C,C3*%
X176292164Y-72927500D02*
X176507836Y-72927500D01*
X176292164Y-73647500D02*
X176507836Y-73647500D01*
%TO.C,R2*%
X191453641Y-65207500D02*
X191146359Y-65207500D01*
X191453641Y-65967500D02*
X191146359Y-65967500D01*
%TO.C,C24*%
X205892164Y-71400000D02*
X206107836Y-71400000D01*
X205892164Y-72120000D02*
X206107836Y-72120000D01*
%TO.C,C15*%
X205932164Y-82900000D02*
X206147836Y-82900000D01*
X205932164Y-83620000D02*
X206147836Y-83620000D01*
%TO.C,R4*%
X153620000Y-64653641D02*
X153620000Y-64346359D01*
X154380000Y-64653641D02*
X154380000Y-64346359D01*
%TO.C,FL1*%
X182289487Y-61090000D02*
X182290000Y-61090000D01*
X182290000Y-63410000D02*
X181965000Y-63410000D01*
X183110000Y-61090000D02*
X183435000Y-61090000D01*
X183435000Y-63410000D02*
X183110000Y-63410000D01*
X182000000Y-61080000D02*
X181760000Y-60750000D01*
X182240000Y-60750000D01*
X182000000Y-61080000D01*
G36*
X182000000Y-61080000D02*
G01*
X181760000Y-60750000D01*
X182240000Y-60750000D01*
X182000000Y-61080000D01*
G37*
%TO.C,C14*%
X202912164Y-84900000D02*
X203127836Y-84900000D01*
X202912164Y-85620000D02*
X203127836Y-85620000D01*
%TO.C,C26*%
X171040000Y-62679664D02*
X171040000Y-62895336D01*
X171760000Y-62679664D02*
X171760000Y-62895336D01*
%TO.C,Y2*%
X202690000Y-63290000D02*
X202690000Y-66710000D01*
X202690000Y-66710000D02*
X206810000Y-66710000D01*
%TO.C,C16*%
X202912164Y-76400000D02*
X203127836Y-76400000D01*
X202912164Y-77120000D02*
X203127836Y-77120000D01*
%TO.C,SW2*%
X127365000Y-76515000D02*
X141335000Y-76515000D01*
X127365000Y-90485000D02*
X127365000Y-76515000D01*
X141335000Y-76515000D02*
X141335000Y-90485000D01*
X141335000Y-90485000D02*
X127365000Y-90485000D01*
%TO.C,R5*%
X155120000Y-64346359D02*
X155120000Y-64653641D01*
X155880000Y-64346359D02*
X155880000Y-64653641D01*
%TO.C,C18*%
X205892164Y-77900000D02*
X206107836Y-77900000D01*
X205892164Y-78620000D02*
X206107836Y-78620000D01*
%TO.C,C9*%
X197192164Y-59727500D02*
X197407836Y-59727500D01*
X197192164Y-60447500D02*
X197407836Y-60447500D01*
%TO.C,C20*%
X206087836Y-73400000D02*
X205872164Y-73400000D01*
X206087836Y-74120000D02*
X205872164Y-74120000D01*
%TO.C,U1*%
X190127500Y-68477500D02*
X190777500Y-68477500D01*
X190127500Y-69127500D02*
X190127500Y-68477500D01*
X190127500Y-75697500D02*
X190127500Y-75047500D01*
X190777500Y-75697500D02*
X190127500Y-75697500D01*
X196697500Y-68477500D02*
X197347500Y-68477500D01*
X197347500Y-68477500D02*
X197347500Y-69127500D01*
X197347500Y-75047500D02*
X197347500Y-75697500D01*
X197347500Y-75697500D02*
X196697500Y-75697500D01*
X197877500Y-74687500D02*
X198207500Y-74447500D01*
X198207500Y-74927500D01*
X197877500Y-74687500D01*
G36*
X198207500Y-74927500D02*
G01*
X197877500Y-74687500D01*
X198207500Y-74447500D01*
X198207500Y-74927500D01*
G37*
%TO.C,C11*%
X184925336Y-72790000D02*
X184709664Y-72790000D01*
X184925336Y-73510000D02*
X184709664Y-73510000D01*
%TO.C,R6*%
X150620000Y-64346359D02*
X150620000Y-64653641D01*
X151380000Y-64346359D02*
X151380000Y-64653641D01*
%TO.C,U4*%
X174252500Y-55477500D02*
X176072500Y-55477500D01*
X174252500Y-55527500D02*
X174252500Y-55477500D01*
X174252500Y-58597500D02*
X174252500Y-58547500D01*
X176072500Y-55477500D02*
X176072500Y-55527500D01*
X176072500Y-56647500D02*
X176072500Y-57427500D01*
X176072500Y-58547500D02*
X176072500Y-58597500D01*
X176072500Y-58597500D02*
X174252500Y-58597500D01*
X173712500Y-55527500D02*
X173472500Y-55197500D01*
X173952500Y-55197500D01*
X173712500Y-55527500D01*
G36*
X173712500Y-55527500D02*
G01*
X173472500Y-55197500D01*
X173952500Y-55197500D01*
X173712500Y-55527500D01*
G37*
%TO.C,C1*%
X202912164Y-71400000D02*
X203127836Y-71400000D01*
X202912164Y-72120000D02*
X203127836Y-72120000D01*
%TO.C,C4*%
X163737164Y-71670000D02*
X163952836Y-71670000D01*
X163737164Y-72390000D02*
X163952836Y-72390000D01*
%TO.C,C10*%
X184965336Y-75790000D02*
X184749664Y-75790000D01*
X184965336Y-76510000D02*
X184749664Y-76510000D01*
%TO.C,SW1*%
X127095000Y-56555000D02*
X141065000Y-56555000D01*
X127095000Y-70525000D02*
X127095000Y-56555000D01*
X141065000Y-56555000D02*
X141065000Y-70525000D01*
X141065000Y-70525000D02*
X127095000Y-70525000D01*
%TO.C,C12*%
X202912164Y-80900000D02*
X203127836Y-80900000D01*
X202912164Y-81620000D02*
X203127836Y-81620000D01*
%TO.C,Y1*%
X167840000Y-65227500D02*
X167840000Y-68647500D01*
X167840000Y-68647500D02*
X171960000Y-68647500D01*
%TO.C,C17*%
X205912164Y-80400000D02*
X206127836Y-80400000D01*
X205912164Y-81120000D02*
X206127836Y-81120000D01*
%TO.C,R3*%
X152120000Y-64653641D02*
X152120000Y-64346359D01*
X152880000Y-64653641D02*
X152880000Y-64346359D01*
%TO.C,C2*%
X202892164Y-73900000D02*
X203107836Y-73900000D01*
X202892164Y-74620000D02*
X203107836Y-74620000D01*
%TD*%
M02*
