%TF.GenerationSoftware,KiCad,Pcbnew,10.0.5*%
%TF.CreationDate,2026-08-27T14:46:11+05:30*%
%TF.ProjectId,lora-v2,6c6f7261-2d76-4322-9e6b-696361645f70,rev?*%
%TF.SameCoordinates,Original*%
%TF.FileFunction,Paste,Top*%
%TF.FilePolarity,Positive*%
%FSLAX46Y46*%
G04 Gerber Fmt 4.6, Leading zero omitted, Abs format (unit mm)*
G04 Created by KiCad (PCBNEW 10.0.5) date 2026-08-27 14:46:11*
%MOMM*%
%LPD*%
G01*
G04 APERTURE LIST*
G04 Aperture macros list*
%AMRoundRect*
0 Rectangle with rounded corners*
0 $1 Rounding radius*
0 $2 $3 $4 $5 $6 $7 $8 $9 X,Y pos of 4 corners*
0 Add a 4 corners polygon primitive as box body*
4,1,4,$2,$3,$4,$5,$6,$7,$8,$9,$2,$3,0*
0 Add four circle primitives for the rounded corners*
1,1,$1+$1,$2,$3*
1,1,$1+$1,$4,$5*
1,1,$1+$1,$6,$7*
1,1,$1+$1,$8,$9*
0 Add four rect primitives between the rounded corners*
20,1,$1+$1,$2,$3,$4,$5,0*
20,1,$1+$1,$4,$5,$6,$7,0*
20,1,$1+$1,$6,$7,$8,$9,0*
20,1,$1+$1,$8,$9,$2,$3,0*%
G04 Aperture macros list end*
%ADD10O,1.000000X1.800000*%
%ADD11O,1.000000X2.100000*%
%ADD12RoundRect,0.150000X0.150000X0.425000X-0.150000X0.425000X-0.150000X-0.425000X0.150000X-0.425000X0*%
%ADD13RoundRect,0.075000X0.075000X0.500000X-0.075000X0.500000X-0.075000X-0.500000X0.075000X-0.500000X0*%
%ADD14RoundRect,0.140000X-0.140000X-0.170000X0.140000X-0.170000X0.140000X0.170000X-0.140000X0.170000X0*%
%ADD15RoundRect,0.147500X-0.147500X-0.172500X0.147500X-0.172500X0.147500X0.172500X-0.147500X0.172500X0*%
%ADD16RoundRect,0.140000X-0.170000X0.140000X-0.170000X-0.140000X0.170000X-0.140000X0.170000X0.140000X0*%
%ADD17RoundRect,0.250000X-0.275000X-0.275000X0.275000X-0.275000X0.275000X0.275000X-0.275000X0.275000X0*%
%ADD18RoundRect,0.062500X-0.350000X-0.062500X0.350000X-0.062500X0.350000X0.062500X-0.350000X0.062500X0*%
%ADD19RoundRect,0.062500X-0.062500X-0.350000X0.062500X-0.350000X0.062500X0.350000X-0.062500X0.350000X0*%
%ADD20RoundRect,0.135000X-0.135000X-0.185000X0.135000X-0.185000X0.135000X0.185000X-0.135000X0.185000X0*%
%ADD21RoundRect,0.140000X0.140000X0.170000X-0.140000X0.170000X-0.140000X-0.170000X0.140000X-0.170000X0*%
%ADD22RoundRect,0.162500X0.650000X0.162500X-0.650000X0.162500X-0.650000X-0.162500X0.650000X-0.162500X0*%
%ADD23RoundRect,0.135000X0.185000X-0.135000X0.185000X0.135000X-0.185000X0.135000X-0.185000X-0.135000X0*%
%ADD24RoundRect,0.087500X-0.425000X-0.087500X0.425000X-0.087500X0.425000X0.087500X-0.425000X0.087500X0*%
%ADD25RoundRect,0.135000X0.135000X0.185000X-0.135000X0.185000X-0.135000X-0.185000X0.135000X-0.185000X0*%
%ADD26RoundRect,0.075000X-0.225000X-0.075000X0.225000X-0.075000X0.225000X0.075000X-0.225000X0.075000X0*%
%ADD27RoundRect,0.075000X-0.075000X-0.237500X0.075000X-0.237500X0.075000X0.237500X-0.075000X0.237500X0*%
%ADD28RoundRect,0.250000X-0.450000X-0.350000X0.450000X-0.350000X0.450000X0.350000X-0.450000X0.350000X0*%
%ADD29RoundRect,0.147500X0.172500X-0.147500X0.172500X0.147500X-0.172500X0.147500X-0.172500X-0.147500X0*%
%ADD30RoundRect,0.135000X-0.185000X0.135000X-0.185000X-0.135000X0.185000X-0.135000X0.185000X0.135000X0*%
%ADD31RoundRect,0.249999X0.395001X0.395001X-0.395001X0.395001X-0.395001X-0.395001X0.395001X-0.395001X0*%
%ADD32RoundRect,0.050000X0.387500X0.050000X-0.387500X0.050000X-0.387500X-0.050000X0.387500X-0.050000X0*%
%ADD33RoundRect,0.050000X0.050000X0.387500X-0.050000X0.387500X-0.050000X-0.387500X0.050000X-0.387500X0*%
%ADD34RoundRect,0.150000X-0.512500X-0.150000X0.512500X-0.150000X0.512500X0.150000X-0.512500X0.150000X0*%
%ADD35RoundRect,0.147500X0.147500X0.172500X-0.147500X0.172500X-0.147500X-0.172500X0.147500X-0.172500X0*%
G04 APERTURE END LIST*
D10*
%TO.C,J1*%
X149115000Y-55925000D03*
D11*
X149115000Y-60105000D03*
D10*
X157755000Y-55925000D03*
D11*
X157755000Y-60105000D03*
D12*
X156635000Y-60680000D03*
X155835000Y-60680000D03*
D13*
X155185000Y-60680000D03*
X154185000Y-60680000D03*
X152685000Y-60680000D03*
X151685000Y-60680000D03*
D12*
X151035000Y-60680000D03*
X150235000Y-60680000D03*
X150235000Y-60680000D03*
X151035000Y-60680000D03*
D13*
X152185000Y-60680000D03*
X153185000Y-60680000D03*
X153685000Y-60680000D03*
X154685000Y-60680000D03*
D12*
X155835000Y-60680000D03*
X156635000Y-60680000D03*
%TD*%
D14*
%TO.C,C19*%
X184377500Y-74650000D03*
X185337500Y-74650000D03*
%TD*%
D15*
%TO.C,L2*%
X178830000Y-61087500D03*
X179800000Y-61087500D03*
%TD*%
D14*
%TO.C,C7*%
X194320000Y-57587500D03*
X195280000Y-57587500D03*
%TD*%
D16*
%TO.C,C21*%
X197000000Y-63520000D03*
X197000000Y-64480000D03*
%TD*%
D14*
%TO.C,C8*%
X196800000Y-57587500D03*
X197760000Y-57587500D03*
%TD*%
D17*
%TO.C,U2*%
X176600000Y-66287500D03*
X176600000Y-67587500D03*
X177900000Y-66287500D03*
X177900000Y-67587500D03*
D18*
X175312500Y-65687500D03*
X175312500Y-66187500D03*
X175312500Y-66687500D03*
X175312500Y-67187500D03*
X175312500Y-67687500D03*
X175312500Y-68187500D03*
D19*
X176000000Y-68875000D03*
X176500000Y-68875000D03*
X177000000Y-68875000D03*
X177500000Y-68875000D03*
X178000000Y-68875000D03*
X178500000Y-68875000D03*
D18*
X179187500Y-68187500D03*
X179187500Y-67687500D03*
X179187500Y-67187500D03*
X179187500Y-66687500D03*
X179187500Y-66187500D03*
X179187500Y-65687500D03*
D19*
X178500000Y-65000000D03*
X178000000Y-65000000D03*
X177500000Y-65000000D03*
X177000000Y-65000000D03*
X176500000Y-65000000D03*
X176000000Y-65000000D03*
%TD*%
D14*
%TO.C,C27*%
X165440000Y-68287500D03*
X166400000Y-68287500D03*
%TD*%
D20*
%TO.C,R8*%
X186490000Y-69000000D03*
X187510000Y-69000000D03*
%TD*%
D15*
%TO.C,L3*%
X194815000Y-59000000D03*
X195785000Y-59000000D03*
%TD*%
D14*
%TO.C,C13*%
X202540000Y-83290000D03*
X203500000Y-83290000D03*
%TD*%
D21*
%TO.C,C25*%
X203500000Y-79260000D03*
X202540000Y-79260000D03*
%TD*%
D14*
%TO.C,C28*%
X205520000Y-76260000D03*
X206480000Y-76260000D03*
%TD*%
D20*
%TO.C,R1*%
X191800000Y-61087500D03*
X192820000Y-61087500D03*
%TD*%
D21*
%TO.C,C22*%
X194980000Y-65000000D03*
X194020000Y-65000000D03*
%TD*%
D14*
%TO.C,C5*%
X163365000Y-74000000D03*
X164325000Y-74000000D03*
%TD*%
%TO.C,C6*%
X191820000Y-62587500D03*
X192780000Y-62587500D03*
%TD*%
D22*
%TO.C,U5*%
X197425000Y-84055000D03*
X197425000Y-82785000D03*
X197425000Y-81515000D03*
X197425000Y-80245000D03*
X190250000Y-80245000D03*
X190250000Y-81515000D03*
X190250000Y-82785000D03*
X190250000Y-84055000D03*
%TD*%
D23*
%TO.C,R7*%
X144270000Y-58510000D03*
X144270000Y-57490000D03*
%TD*%
D24*
%TO.C,U3*%
X190462500Y-56937500D03*
X190462500Y-57587500D03*
X190462500Y-58237500D03*
X192137500Y-58237500D03*
X192137500Y-57587500D03*
X192137500Y-56937500D03*
%TD*%
D21*
%TO.C,C23*%
X171280000Y-58087500D03*
X170320000Y-58087500D03*
%TD*%
D14*
%TO.C,C3*%
X175920000Y-73287500D03*
X176880000Y-73287500D03*
%TD*%
D25*
%TO.C,R2*%
X191810000Y-65587500D03*
X190790000Y-65587500D03*
%TD*%
D14*
%TO.C,C24*%
X205520000Y-71760000D03*
X206480000Y-71760000D03*
%TD*%
%TO.C,C15*%
X205560000Y-83260000D03*
X206520000Y-83260000D03*
%TD*%
D23*
%TO.C,R4*%
X154000000Y-65010000D03*
X154000000Y-63990000D03*
%TD*%
D26*
%TO.C,FL1*%
X182000000Y-61500000D03*
X182000000Y-62000000D03*
X182000000Y-62500000D03*
X182000000Y-63000000D03*
D27*
X182700000Y-63312500D03*
D26*
X183400000Y-63000000D03*
X183400000Y-62500000D03*
X183400000Y-62000000D03*
X183400000Y-61500000D03*
D27*
X182700000Y-61187500D03*
%TD*%
D14*
%TO.C,C14*%
X202540000Y-85260000D03*
X203500000Y-85260000D03*
%TD*%
D16*
%TO.C,C26*%
X171400000Y-62307500D03*
X171400000Y-63267500D03*
%TD*%
D28*
%TO.C,Y2*%
X203650000Y-65850000D03*
X205850000Y-65850000D03*
X205850000Y-64150000D03*
X203650000Y-64150000D03*
%TD*%
D29*
%TO.C,FB1*%
X159015000Y-65485000D03*
X159015000Y-64515000D03*
%TD*%
D14*
%TO.C,C16*%
X202540000Y-76760000D03*
X203500000Y-76760000D03*
%TD*%
D30*
%TO.C,R5*%
X155500000Y-63990000D03*
X155500000Y-65010000D03*
%TD*%
D14*
%TO.C,C18*%
X205520000Y-78260000D03*
X206480000Y-78260000D03*
%TD*%
%TO.C,C9*%
X196820000Y-60087500D03*
X197780000Y-60087500D03*
%TD*%
D21*
%TO.C,C20*%
X206460000Y-73760000D03*
X205500000Y-73760000D03*
%TD*%
D31*
%TO.C,U1*%
X194537500Y-72887500D03*
X194537500Y-71287500D03*
X192937500Y-72887500D03*
X192937500Y-71287500D03*
D32*
X197175000Y-74687500D03*
X197175000Y-74287500D03*
X197175000Y-73887500D03*
X197175000Y-73487500D03*
X197175000Y-73087500D03*
X197175000Y-72687500D03*
X197175000Y-72287500D03*
X197175000Y-71887500D03*
X197175000Y-71487500D03*
X197175000Y-71087500D03*
X197175000Y-70687500D03*
X197175000Y-70287500D03*
X197175000Y-69887500D03*
X197175000Y-69487500D03*
D33*
X196337500Y-68650000D03*
X195937500Y-68650000D03*
X195537500Y-68650000D03*
X195137500Y-68650000D03*
X194737500Y-68650000D03*
X194337500Y-68650000D03*
X193937500Y-68650000D03*
X193537500Y-68650000D03*
X193137500Y-68650000D03*
X192737500Y-68650000D03*
X192337500Y-68650000D03*
X191937500Y-68650000D03*
X191537500Y-68650000D03*
X191137500Y-68650000D03*
D32*
X190300000Y-69487500D03*
X190300000Y-69887500D03*
X190300000Y-70287500D03*
X190300000Y-70687500D03*
X190300000Y-71087500D03*
X190300000Y-71487500D03*
X190300000Y-71887500D03*
X190300000Y-72287500D03*
X190300000Y-72687500D03*
X190300000Y-73087500D03*
X190300000Y-73487500D03*
X190300000Y-73887500D03*
X190300000Y-74287500D03*
X190300000Y-74687500D03*
D33*
X191137500Y-75525000D03*
X191537500Y-75525000D03*
X191937500Y-75525000D03*
X192337500Y-75525000D03*
X192737500Y-75525000D03*
X193137500Y-75525000D03*
X193537500Y-75525000D03*
X193937500Y-75525000D03*
X194337500Y-75525000D03*
X194737500Y-75525000D03*
X195137500Y-75525000D03*
X195537500Y-75525000D03*
X195937500Y-75525000D03*
X196337500Y-75525000D03*
%TD*%
D21*
%TO.C,C11*%
X185297500Y-73150000D03*
X184337500Y-73150000D03*
%TD*%
D30*
%TO.C,R6*%
X151000000Y-63990000D03*
X151000000Y-65010000D03*
%TD*%
D34*
%TO.C,U4*%
X174025000Y-56087500D03*
X174025000Y-57037500D03*
X174025000Y-57987500D03*
X176300000Y-57987500D03*
X176300000Y-56087500D03*
%TD*%
D14*
%TO.C,C1*%
X202540000Y-71760000D03*
X203500000Y-71760000D03*
%TD*%
%TO.C,C4*%
X163365000Y-72030000D03*
X164325000Y-72030000D03*
%TD*%
D21*
%TO.C,C10*%
X185337500Y-76150000D03*
X184377500Y-76150000D03*
%TD*%
D14*
%TO.C,C12*%
X202540000Y-81260000D03*
X203500000Y-81260000D03*
%TD*%
D28*
%TO.C,Y1*%
X168800000Y-67787500D03*
X171000000Y-67787500D03*
X171000000Y-66087500D03*
X168800000Y-66087500D03*
%TD*%
D14*
%TO.C,C17*%
X205540000Y-80760000D03*
X206500000Y-80760000D03*
%TD*%
D23*
%TO.C,R3*%
X152500000Y-65010000D03*
X152500000Y-63990000D03*
%TD*%
D35*
%TO.C,L1*%
X176885000Y-71787500D03*
X175915000Y-71787500D03*
%TD*%
D14*
%TO.C,C2*%
X202520000Y-74260000D03*
X203480000Y-74260000D03*
%TD*%
M02*
