%TF.GenerationSoftware,KiCad,Pcbnew,10.0.5*%
%TF.CreationDate,2026-09-21T05:07:09+05:30*%
%TF.ProjectId,lora-v2,6c6f7261-2d76-4322-9e6b-696361645f70,rev?*%
%TF.SameCoordinates,Original*%
%TF.FileFunction,Copper,L4,Bot*%
%TF.FilePolarity,Positive*%
%FSLAX46Y46*%
G04 Gerber Fmt 4.6, Leading zero omitted, Abs format (unit mm)*
G04 Created by KiCad (PCBNEW 10.0.5) date 2026-09-21 05:07:09*
%MOMM*%
%LPD*%
G01*
G04 APERTURE LIST*
%TA.AperFunction,ComponentPad*%
%ADD10O,1.000000X2.100000*%
%TD*%
%TA.AperFunction,ComponentPad*%
%ADD11O,1.000000X1.800000*%
%TD*%
%TA.AperFunction,ComponentPad*%
%ADD12R,1.700000X1.700000*%
%TD*%
%TA.AperFunction,ViaPad*%
%ADD13C,0.600000*%
%TD*%
%TA.AperFunction,Conductor*%
%ADD14C,0.200000*%
%TD*%
G04 APERTURE END LIST*
D10*
%TO.P,J1,SH,SHIELD_SH*%
%TO.N,Net-(J1-SHIELD)*%
X188145000Y-71605000D03*
D11*
X188145000Y-67425000D03*
D10*
X179505000Y-71605000D03*
D11*
X179505000Y-67425000D03*
%TD*%
D12*
%TO.P,AE1,1,A_1*%
%TO.N,Net-(AE1-A)*%
X192287500Y-104400000D03*
%TD*%
D13*
%TO.N,Earth*%
X188000000Y-93500000D03*
X165000000Y-78500000D03*
X206500000Y-74500000D03*
X206000000Y-73000000D03*
X171500000Y-106500000D03*
X168500000Y-106000000D03*
X164500000Y-74000000D03*
X194500000Y-100500000D03*
X193000000Y-107000000D03*
X206000000Y-86500000D03*
X206500000Y-85000000D03*
X191000000Y-98000000D03*
X206500000Y-75500000D03*
X178000000Y-66500000D03*
X165000000Y-67500000D03*
X191000000Y-92000000D03*
X164500000Y-98000000D03*
X178890000Y-89157364D03*
X199500000Y-107000000D03*
X199500000Y-105500000D03*
X207500000Y-67500000D03*
X196500000Y-107000000D03*
X201000000Y-67500000D03*
X166500000Y-106000000D03*
X164500000Y-75500000D03*
X206000000Y-106500000D03*
X195000000Y-103500000D03*
X165000000Y-99500000D03*
X164500000Y-85000000D03*
X199000000Y-90000000D03*
X195000000Y-97500000D03*
X165000000Y-77000000D03*
X206000000Y-105000000D03*
X165000000Y-71500000D03*
X191000000Y-107000000D03*
X190000000Y-107000000D03*
X194000000Y-107000000D03*
X190000000Y-106000000D03*
X165000000Y-81000000D03*
X191000000Y-99000000D03*
X206500000Y-93500000D03*
X177000000Y-106500000D03*
X204000000Y-67500000D03*
X173000000Y-106500000D03*
X188500000Y-74000000D03*
X197000000Y-92500000D03*
X206500000Y-89500000D03*
X164500000Y-83500000D03*
X202500000Y-67500000D03*
X164500000Y-79500000D03*
X192000000Y-107000000D03*
X206500000Y-70500000D03*
X178500000Y-106500000D03*
X164500000Y-70000000D03*
X195000000Y-96000000D03*
X165000000Y-95500000D03*
X206500000Y-80000000D03*
X202500000Y-105500000D03*
X165000000Y-91500000D03*
X180000000Y-78500000D03*
X206500000Y-91000000D03*
X198500000Y-67500000D03*
X185500000Y-75500000D03*
X200000000Y-67500000D03*
X171500000Y-67000000D03*
X164500000Y-89000000D03*
X164500000Y-94500000D03*
X206000000Y-101000000D03*
X206000000Y-88000000D03*
X186500000Y-106000000D03*
X180000000Y-106500000D03*
X206500000Y-84000000D03*
X165000000Y-105500000D03*
X195000000Y-99500000D03*
X189000000Y-95000000D03*
X174500000Y-66500000D03*
X164500000Y-93000000D03*
X165000000Y-82000000D03*
X195000000Y-106500000D03*
X164500000Y-103500000D03*
X195000000Y-104500000D03*
X195000000Y-95000000D03*
X194000000Y-67000000D03*
X206000000Y-96000000D03*
X190000000Y-97000000D03*
X191000000Y-102000000D03*
X206000000Y-82500000D03*
X165000000Y-72500000D03*
X206500000Y-72000000D03*
X172000000Y-82000000D03*
X188000000Y-92500000D03*
X187500000Y-107000000D03*
X184000000Y-99000000D03*
X206500000Y-94500000D03*
X184500000Y-106500000D03*
X174500000Y-106500000D03*
X206500000Y-81500000D03*
X165000000Y-97000000D03*
X165000000Y-88000000D03*
X165000000Y-86500000D03*
X190000000Y-103000000D03*
X191000000Y-100000000D03*
X205500000Y-67500000D03*
X188000000Y-90500000D03*
X172000000Y-80762500D03*
X190000000Y-104000000D03*
X195000000Y-102500000D03*
X174000000Y-84000000D03*
X195000000Y-98500000D03*
X194500000Y-93000000D03*
X195500000Y-94000000D03*
X192000000Y-67000000D03*
X175500000Y-106500000D03*
X201000000Y-105500000D03*
X190500000Y-66500000D03*
X195000000Y-101500000D03*
X166500000Y-67000000D03*
X164500000Y-102000000D03*
X200000000Y-83500000D03*
X206000000Y-97500000D03*
X188000000Y-96000000D03*
X206000000Y-92000000D03*
X180005515Y-91505515D03*
X168000000Y-67000000D03*
X198000000Y-107000000D03*
X206000000Y-78500000D03*
X204500000Y-105500000D03*
X191000000Y-97000000D03*
X206500000Y-103500000D03*
X169500000Y-67000000D03*
X187500000Y-94500000D03*
X206500000Y-100000000D03*
X195000000Y-105500000D03*
X198500000Y-91500000D03*
X165000000Y-90500000D03*
X195000000Y-92000000D03*
X197000000Y-67500000D03*
X188000000Y-91500000D03*
X176000000Y-66500000D03*
X206000000Y-77000000D03*
X182000000Y-106500000D03*
X206500000Y-98500000D03*
X196000000Y-93000000D03*
X165000000Y-100500000D03*
X191000000Y-101000000D03*
X190000000Y-105000000D03*
X179000000Y-86500000D03*
X201500000Y-107000000D03*
X206500000Y-102500000D03*
X173000000Y-66500000D03*
X165000000Y-69000000D03*
X188500000Y-97000000D03*
%TO.N,+3V3*%
X194000000Y-96000000D03*
X184500000Y-81000000D03*
X182100000Y-80500000D03*
X186010000Y-86500000D03*
X176000000Y-74500000D03*
X196500000Y-88500000D03*
X174000000Y-82000000D03*
X180500000Y-80000000D03*
X185500000Y-90000000D03*
X191500000Y-82000000D03*
X175000000Y-85000000D03*
%TO.N,/SX_BUSY*%
X187500000Y-85000000D03*
X186325735Y-85674265D03*
%TO.N,/QSPI_SD3*%
X180001376Y-82297838D03*
X175500000Y-76000000D03*
%TO.N,/QSPI_SCLK*%
X179040057Y-82281656D03*
X175825735Y-77174265D03*
%TO.N,/QSPI_SD1*%
X171000000Y-76000000D03*
X176500000Y-80000000D03*
%TO.N,/SX_DIO2*%
X189000000Y-88600000D03*
X189500000Y-84500000D03*
%TD*%
%TO.N,Earth*%
D14*
X177157364Y-89157364D02*
X178890000Y-89157364D01*
X172000000Y-80762500D02*
X172000000Y-82000000D01*
X185500000Y-75500000D02*
X187000000Y-75500000D01*
X177000000Y-89000000D02*
X177157364Y-89157364D01*
X178890000Y-90390000D02*
X180005515Y-91505515D01*
X179000000Y-86500000D02*
X177000000Y-88500000D01*
X187000000Y-75500000D02*
X188500000Y-74000000D01*
X177000000Y-88500000D02*
X177000000Y-89000000D01*
X178890000Y-89157364D02*
X178890000Y-90390000D01*
%TO.N,/SX_BUSY*%
X186325735Y-85674265D02*
X186825735Y-85674265D01*
X186825735Y-85674265D02*
X187500000Y-85000000D01*
%TO.N,/QSPI_SD3*%
X175500000Y-76000000D02*
X180001376Y-80501376D01*
X180001376Y-80501376D02*
X180001376Y-82297838D01*
%TO.N,/QSPI_SCLK*%
X175825735Y-77174265D02*
X179379361Y-80727891D01*
X179379361Y-81942352D02*
X179040057Y-82281656D01*
X179379361Y-80727891D02*
X179379361Y-81942352D01*
%TO.N,/QSPI_SD1*%
X175000000Y-80000000D02*
X171000000Y-76000000D01*
X176500000Y-80000000D02*
X175000000Y-80000000D01*
%TO.N,/SX_DIO2*%
X189000000Y-88600000D02*
X189000000Y-85000000D01*
X189000000Y-85000000D02*
X189500000Y-84500000D01*
%TD*%
%TA.AperFunction,Conductor*%
%TO.N,Earth*%
G36*
X206003032Y-65500648D02*
G01*
X206336929Y-65517052D01*
X206349037Y-65518245D01*
X206452146Y-65533539D01*
X206676699Y-65566849D01*
X206688617Y-65569219D01*
X207009951Y-65649709D01*
X207021588Y-65653240D01*
X207092806Y-65678722D01*
X207333467Y-65764832D01*
X207344688Y-65769479D01*
X207644163Y-65911120D01*
X207654871Y-65916844D01*
X207898634Y-66062950D01*
X207938988Y-66087137D01*
X207949103Y-66093895D01*
X208169913Y-66257659D01*
X208215170Y-66291224D01*
X208224576Y-66298944D01*
X208470013Y-66521395D01*
X208478604Y-66529986D01*
X208662750Y-66733160D01*
X208701055Y-66775423D01*
X208708775Y-66784829D01*
X208906102Y-67050893D01*
X208912862Y-67061011D01*
X209041776Y-67276092D01*
X209083148Y-67345116D01*
X209088885Y-67355848D01*
X209230514Y-67655297D01*
X209235170Y-67666540D01*
X209346759Y-67978411D01*
X209350292Y-67990055D01*
X209430777Y-68311369D01*
X209433151Y-68323305D01*
X209481754Y-68650962D01*
X209482947Y-68663071D01*
X209499351Y-68996966D01*
X209499500Y-69003051D01*
X209499500Y-104496948D01*
X209499351Y-104503033D01*
X209482947Y-104836928D01*
X209481754Y-104849037D01*
X209433151Y-105176694D01*
X209430777Y-105188630D01*
X209350292Y-105509944D01*
X209346759Y-105521588D01*
X209235170Y-105833459D01*
X209230514Y-105844702D01*
X209088885Y-106144151D01*
X209083148Y-106154883D01*
X208912862Y-106438988D01*
X208906102Y-106449106D01*
X208708775Y-106715170D01*
X208701055Y-106724576D01*
X208478611Y-106970006D01*
X208470006Y-106978611D01*
X208224576Y-107201055D01*
X208215170Y-107208775D01*
X207949106Y-107406102D01*
X207938988Y-107412862D01*
X207654883Y-107583148D01*
X207644151Y-107588885D01*
X207344702Y-107730514D01*
X207333459Y-107735170D01*
X207021588Y-107846759D01*
X207009944Y-107850292D01*
X206688630Y-107930777D01*
X206676694Y-107933151D01*
X206349037Y-107981754D01*
X206336928Y-107982947D01*
X206021989Y-107998419D01*
X206003031Y-107999351D01*
X205996949Y-107999500D01*
X166503051Y-107999500D01*
X166496968Y-107999351D01*
X166476900Y-107998365D01*
X166163071Y-107982947D01*
X166150962Y-107981754D01*
X165823305Y-107933151D01*
X165811369Y-107930777D01*
X165490055Y-107850292D01*
X165478411Y-107846759D01*
X165166540Y-107735170D01*
X165155301Y-107730515D01*
X164855844Y-107588883D01*
X164845121Y-107583150D01*
X164561011Y-107412862D01*
X164550893Y-107406102D01*
X164284829Y-107208775D01*
X164275423Y-107201055D01*
X164236475Y-107165755D01*
X164029986Y-106978604D01*
X164021395Y-106970013D01*
X163798944Y-106724576D01*
X163791224Y-106715170D01*
X163593897Y-106449106D01*
X163587137Y-106438988D01*
X163416844Y-106154871D01*
X163411120Y-106144163D01*
X163269479Y-105844688D01*
X163264829Y-105833459D01*
X163235145Y-105750499D01*
X163153240Y-105521588D01*
X163149707Y-105509944D01*
X163069219Y-105188617D01*
X163066848Y-105176694D01*
X163018245Y-104849037D01*
X163017052Y-104836927D01*
X163000649Y-104503032D01*
X163000500Y-104496948D01*
X163000500Y-103502135D01*
X190937000Y-103502135D01*
X190937000Y-105297870D01*
X190937001Y-105297876D01*
X190943408Y-105357483D01*
X190993702Y-105492328D01*
X190993706Y-105492335D01*
X191079952Y-105607544D01*
X191079955Y-105607547D01*
X191195164Y-105693793D01*
X191195171Y-105693797D01*
X191330017Y-105744091D01*
X191330016Y-105744091D01*
X191336944Y-105744835D01*
X191389627Y-105750500D01*
X193185372Y-105750499D01*
X193244983Y-105744091D01*
X193379831Y-105693796D01*
X193495046Y-105607546D01*
X193581296Y-105492331D01*
X193631591Y-105357483D01*
X193638000Y-105297873D01*
X193637999Y-103502128D01*
X193631591Y-103442517D01*
X193581296Y-103307669D01*
X193581295Y-103307668D01*
X193581293Y-103307664D01*
X193495047Y-103192455D01*
X193495044Y-103192452D01*
X193379835Y-103106206D01*
X193379828Y-103106202D01*
X193244982Y-103055908D01*
X193244983Y-103055908D01*
X193185383Y-103049501D01*
X193185381Y-103049500D01*
X193185373Y-103049500D01*
X193185364Y-103049500D01*
X191389629Y-103049500D01*
X191389623Y-103049501D01*
X191330016Y-103055908D01*
X191195171Y-103106202D01*
X191195164Y-103106206D01*
X191079955Y-103192452D01*
X191079952Y-103192455D01*
X190993706Y-103307664D01*
X190993702Y-103307671D01*
X190943408Y-103442517D01*
X190937001Y-103502116D01*
X190937001Y-103502123D01*
X190937000Y-103502135D01*
X163000500Y-103502135D01*
X163000500Y-95921153D01*
X193199500Y-95921153D01*
X193199500Y-96078846D01*
X193230261Y-96233489D01*
X193230264Y-96233501D01*
X193290602Y-96379172D01*
X193290609Y-96379185D01*
X193378210Y-96510288D01*
X193378213Y-96510292D01*
X193489707Y-96621786D01*
X193489711Y-96621789D01*
X193620814Y-96709390D01*
X193620827Y-96709397D01*
X193766498Y-96769735D01*
X193766503Y-96769737D01*
X193921153Y-96800499D01*
X193921156Y-96800500D01*
X193921158Y-96800500D01*
X194078844Y-96800500D01*
X194078845Y-96800499D01*
X194233497Y-96769737D01*
X194379179Y-96709394D01*
X194510289Y-96621789D01*
X194621789Y-96510289D01*
X194709394Y-96379179D01*
X194769737Y-96233497D01*
X194800500Y-96078842D01*
X194800500Y-95921158D01*
X194800500Y-95921155D01*
X194800499Y-95921153D01*
X194769738Y-95766510D01*
X194769737Y-95766503D01*
X194769735Y-95766498D01*
X194709397Y-95620827D01*
X194709390Y-95620814D01*
X194621789Y-95489711D01*
X194621786Y-95489707D01*
X194510292Y-95378213D01*
X194510288Y-95378210D01*
X194379185Y-95290609D01*
X194379172Y-95290602D01*
X194233501Y-95230264D01*
X194233489Y-95230261D01*
X194078845Y-95199500D01*
X194078842Y-95199500D01*
X193921158Y-95199500D01*
X193921155Y-95199500D01*
X193766510Y-95230261D01*
X193766498Y-95230264D01*
X193620827Y-95290602D01*
X193620814Y-95290609D01*
X193489711Y-95378210D01*
X193489707Y-95378213D01*
X193378213Y-95489707D01*
X193378210Y-95489711D01*
X193290609Y-95620814D01*
X193290602Y-95620827D01*
X193230264Y-95766498D01*
X193230261Y-95766510D01*
X193199500Y-95921153D01*
X163000500Y-95921153D01*
X163000500Y-89921153D01*
X184699500Y-89921153D01*
X184699500Y-90078846D01*
X184730261Y-90233489D01*
X184730264Y-90233501D01*
X184790602Y-90379172D01*
X184790609Y-90379185D01*
X184878210Y-90510288D01*
X184878213Y-90510292D01*
X184989707Y-90621786D01*
X184989711Y-90621789D01*
X185120814Y-90709390D01*
X185120827Y-90709397D01*
X185266498Y-90769735D01*
X185266503Y-90769737D01*
X185421153Y-90800499D01*
X185421156Y-90800500D01*
X185421158Y-90800500D01*
X185578844Y-90800500D01*
X185578845Y-90800499D01*
X185733497Y-90769737D01*
X185879179Y-90709394D01*
X186010289Y-90621789D01*
X186121789Y-90510289D01*
X186209394Y-90379179D01*
X186269737Y-90233497D01*
X186300500Y-90078842D01*
X186300500Y-89921158D01*
X186300500Y-89921155D01*
X186300499Y-89921153D01*
X186269738Y-89766510D01*
X186269737Y-89766503D01*
X186269735Y-89766498D01*
X186209397Y-89620827D01*
X186209390Y-89620814D01*
X186121789Y-89489711D01*
X186121786Y-89489707D01*
X186010292Y-89378213D01*
X186010288Y-89378210D01*
X185879185Y-89290609D01*
X185879172Y-89290602D01*
X185733501Y-89230264D01*
X185733489Y-89230261D01*
X185578845Y-89199500D01*
X185578842Y-89199500D01*
X185421158Y-89199500D01*
X185421155Y-89199500D01*
X185266510Y-89230261D01*
X185266498Y-89230264D01*
X185120827Y-89290602D01*
X185120814Y-89290609D01*
X184989711Y-89378210D01*
X184989707Y-89378213D01*
X184878213Y-89489707D01*
X184878210Y-89489711D01*
X184790609Y-89620814D01*
X184790602Y-89620827D01*
X184730264Y-89766498D01*
X184730261Y-89766510D01*
X184699500Y-89921153D01*
X163000500Y-89921153D01*
X163000500Y-86421153D01*
X185209500Y-86421153D01*
X185209500Y-86578846D01*
X185240261Y-86733489D01*
X185240264Y-86733501D01*
X185300602Y-86879172D01*
X185300609Y-86879185D01*
X185388210Y-87010288D01*
X185388213Y-87010292D01*
X185499707Y-87121786D01*
X185499711Y-87121789D01*
X185630814Y-87209390D01*
X185630827Y-87209397D01*
X185776498Y-87269735D01*
X185776503Y-87269737D01*
X185931153Y-87300499D01*
X185931156Y-87300500D01*
X185931158Y-87300500D01*
X186088844Y-87300500D01*
X186088845Y-87300499D01*
X186243497Y-87269737D01*
X186389179Y-87209394D01*
X186520289Y-87121789D01*
X186631789Y-87010289D01*
X186719394Y-86879179D01*
X186779737Y-86733497D01*
X186810500Y-86578842D01*
X186810500Y-86421158D01*
X186810285Y-86420077D01*
X186810336Y-86419498D01*
X186809903Y-86415093D01*
X186810738Y-86415010D01*
X186816506Y-86350486D01*
X186859364Y-86295305D01*
X186899806Y-86276101D01*
X186904788Y-86274766D01*
X186904792Y-86274766D01*
X187057520Y-86233842D01*
X187130212Y-86191873D01*
X187194451Y-86154785D01*
X187306255Y-86042981D01*
X187306255Y-86042979D01*
X187316459Y-86032776D01*
X187316462Y-86032771D01*
X187514661Y-85834572D01*
X187575983Y-85801089D01*
X187578150Y-85800638D01*
X187636085Y-85789113D01*
X187733497Y-85769737D01*
X187879179Y-85709394D01*
X188010289Y-85621789D01*
X188121789Y-85510289D01*
X188168237Y-85440775D01*
X188172398Y-85434548D01*
X188226010Y-85389743D01*
X188295335Y-85381036D01*
X188358363Y-85411190D01*
X188395082Y-85470634D01*
X188399500Y-85503439D01*
X188399500Y-88020234D01*
X188379815Y-88087273D01*
X188378602Y-88089125D01*
X188290609Y-88220814D01*
X188290602Y-88220827D01*
X188230264Y-88366498D01*
X188230261Y-88366510D01*
X188199500Y-88521153D01*
X188199500Y-88678846D01*
X188230261Y-88833489D01*
X188230264Y-88833501D01*
X188290602Y-88979172D01*
X188290609Y-88979185D01*
X188378210Y-89110288D01*
X188378213Y-89110292D01*
X188489707Y-89221786D01*
X188489711Y-89221789D01*
X188620814Y-89309390D01*
X188620827Y-89309397D01*
X188766498Y-89369735D01*
X188766503Y-89369737D01*
X188921153Y-89400499D01*
X188921156Y-89400500D01*
X188921158Y-89400500D01*
X189078844Y-89400500D01*
X189078845Y-89400499D01*
X189233497Y-89369737D01*
X189379179Y-89309394D01*
X189510289Y-89221789D01*
X189621789Y-89110289D01*
X189709394Y-88979179D01*
X189769737Y-88833497D01*
X189800500Y-88678842D01*
X189800500Y-88521158D01*
X189800500Y-88521155D01*
X189784209Y-88439258D01*
X189784209Y-88439257D01*
X189780608Y-88421153D01*
X195699500Y-88421153D01*
X195699500Y-88578846D01*
X195730261Y-88733489D01*
X195730264Y-88733501D01*
X195790602Y-88879172D01*
X195790609Y-88879185D01*
X195878210Y-89010288D01*
X195878213Y-89010292D01*
X195989707Y-89121786D01*
X195989711Y-89121789D01*
X196120814Y-89209390D01*
X196120827Y-89209397D01*
X196266498Y-89269735D01*
X196266503Y-89269737D01*
X196421153Y-89300499D01*
X196421156Y-89300500D01*
X196421158Y-89300500D01*
X196578844Y-89300500D01*
X196578845Y-89300499D01*
X196733497Y-89269737D01*
X196879179Y-89209394D01*
X197010289Y-89121789D01*
X197121789Y-89010289D01*
X197209394Y-88879179D01*
X197269737Y-88733497D01*
X197300500Y-88578842D01*
X197300500Y-88421158D01*
X197300500Y-88421155D01*
X197300499Y-88421153D01*
X197269738Y-88266510D01*
X197269737Y-88266503D01*
X197250812Y-88220814D01*
X197209397Y-88120827D01*
X197209390Y-88120814D01*
X197121789Y-87989711D01*
X197121786Y-87989707D01*
X197010292Y-87878213D01*
X197010288Y-87878210D01*
X196879185Y-87790609D01*
X196879172Y-87790602D01*
X196733501Y-87730264D01*
X196733489Y-87730261D01*
X196578845Y-87699500D01*
X196578842Y-87699500D01*
X196421158Y-87699500D01*
X196421155Y-87699500D01*
X196266510Y-87730261D01*
X196266498Y-87730264D01*
X196120827Y-87790602D01*
X196120814Y-87790609D01*
X195989711Y-87878210D01*
X195989707Y-87878213D01*
X195878213Y-87989707D01*
X195878210Y-87989711D01*
X195790609Y-88120814D01*
X195790602Y-88120827D01*
X195730264Y-88266498D01*
X195730261Y-88266510D01*
X195699500Y-88421153D01*
X189780608Y-88421153D01*
X189769738Y-88366510D01*
X189769737Y-88366503D01*
X189728314Y-88266498D01*
X189709397Y-88220827D01*
X189709390Y-88220814D01*
X189621398Y-88089125D01*
X189600520Y-88022447D01*
X189600500Y-88020234D01*
X189600500Y-85397955D01*
X189620185Y-85330916D01*
X189672989Y-85285161D01*
X189700303Y-85276339D01*
X189733497Y-85269737D01*
X189879179Y-85209394D01*
X190010289Y-85121789D01*
X190121789Y-85010289D01*
X190209394Y-84879179D01*
X190269737Y-84733497D01*
X190300500Y-84578842D01*
X190300500Y-84421158D01*
X190300500Y-84421155D01*
X190300499Y-84421153D01*
X190274531Y-84290606D01*
X190269737Y-84266503D01*
X190269735Y-84266498D01*
X190209397Y-84120827D01*
X190209390Y-84120814D01*
X190121789Y-83989711D01*
X190121786Y-83989707D01*
X190010292Y-83878213D01*
X190010288Y-83878210D01*
X189879185Y-83790609D01*
X189879172Y-83790602D01*
X189733501Y-83730264D01*
X189733489Y-83730261D01*
X189578845Y-83699500D01*
X189578842Y-83699500D01*
X189421158Y-83699500D01*
X189421155Y-83699500D01*
X189266510Y-83730261D01*
X189266498Y-83730264D01*
X189120827Y-83790602D01*
X189120814Y-83790609D01*
X188989711Y-83878210D01*
X188989707Y-83878213D01*
X188878213Y-83989707D01*
X188878210Y-83989711D01*
X188790609Y-84120814D01*
X188790602Y-84120827D01*
X188730264Y-84266498D01*
X188730261Y-84266508D01*
X188699362Y-84421847D01*
X188666977Y-84483758D01*
X188665426Y-84485336D01*
X188624237Y-84526524D01*
X188624212Y-84526552D01*
X188519478Y-84631286D01*
X188469361Y-84718094D01*
X188469349Y-84718114D01*
X188467164Y-84721897D01*
X188416589Y-84770104D01*
X188347979Y-84783314D01*
X188283119Y-84757335D01*
X188245227Y-84707330D01*
X188209397Y-84620827D01*
X188209390Y-84620814D01*
X188121789Y-84489711D01*
X188121786Y-84489707D01*
X188010292Y-84378213D01*
X188010288Y-84378210D01*
X187879185Y-84290609D01*
X187879172Y-84290602D01*
X187733501Y-84230264D01*
X187733489Y-84230261D01*
X187578845Y-84199500D01*
X187578842Y-84199500D01*
X187421158Y-84199500D01*
X187421155Y-84199500D01*
X187266510Y-84230261D01*
X187266498Y-84230264D01*
X187120827Y-84290602D01*
X187120814Y-84290609D01*
X186989711Y-84378210D01*
X186989707Y-84378213D01*
X186878213Y-84489707D01*
X186878210Y-84489711D01*
X186790609Y-84620814D01*
X186790602Y-84620827D01*
X186730264Y-84766498D01*
X186730261Y-84766508D01*
X186721328Y-84811419D01*
X186688943Y-84873330D01*
X186628227Y-84907904D01*
X186563720Y-84905889D01*
X186559229Y-84904526D01*
X186404580Y-84873765D01*
X186404577Y-84873765D01*
X186246893Y-84873765D01*
X186246890Y-84873765D01*
X186092245Y-84904526D01*
X186092233Y-84904529D01*
X185946562Y-84964867D01*
X185946549Y-84964874D01*
X185815446Y-85052475D01*
X185815442Y-85052478D01*
X185703948Y-85163972D01*
X185703945Y-85163976D01*
X185616344Y-85295079D01*
X185616337Y-85295092D01*
X185555999Y-85440763D01*
X185555996Y-85440775D01*
X185525235Y-85595418D01*
X185525235Y-85753111D01*
X185528825Y-85771159D01*
X185522598Y-85840751D01*
X185494890Y-85883031D01*
X185388210Y-85989711D01*
X185300609Y-86120814D01*
X185300602Y-86120827D01*
X185240264Y-86266498D01*
X185240261Y-86266510D01*
X185209500Y-86421153D01*
X163000500Y-86421153D01*
X163000500Y-84921153D01*
X174199500Y-84921153D01*
X174199500Y-85078846D01*
X174230261Y-85233489D01*
X174230264Y-85233501D01*
X174290602Y-85379172D01*
X174290609Y-85379185D01*
X174378210Y-85510288D01*
X174378213Y-85510292D01*
X174489707Y-85621786D01*
X174489711Y-85621789D01*
X174620814Y-85709390D01*
X174620827Y-85709397D01*
X174726354Y-85753107D01*
X174766503Y-85769737D01*
X174921153Y-85800499D01*
X174921156Y-85800500D01*
X174921158Y-85800500D01*
X175078844Y-85800500D01*
X175078845Y-85800499D01*
X175233497Y-85769737D01*
X175379179Y-85709394D01*
X175510289Y-85621789D01*
X175621789Y-85510289D01*
X175709394Y-85379179D01*
X175769737Y-85233497D01*
X175800500Y-85078842D01*
X175800500Y-84921158D01*
X175800500Y-84921155D01*
X175800499Y-84921153D01*
X175770453Y-84770104D01*
X175769737Y-84766503D01*
X175749686Y-84718095D01*
X175709397Y-84620827D01*
X175709390Y-84620814D01*
X175621789Y-84489711D01*
X175621786Y-84489707D01*
X175510292Y-84378213D01*
X175510288Y-84378210D01*
X175379185Y-84290609D01*
X175379172Y-84290602D01*
X175233501Y-84230264D01*
X175233489Y-84230261D01*
X175078845Y-84199500D01*
X175078842Y-84199500D01*
X174921158Y-84199500D01*
X174921155Y-84199500D01*
X174766510Y-84230261D01*
X174766498Y-84230264D01*
X174620827Y-84290602D01*
X174620814Y-84290609D01*
X174489711Y-84378210D01*
X174489707Y-84378213D01*
X174378213Y-84489707D01*
X174378210Y-84489711D01*
X174290609Y-84620814D01*
X174290602Y-84620827D01*
X174230264Y-84766498D01*
X174230261Y-84766510D01*
X174199500Y-84921153D01*
X163000500Y-84921153D01*
X163000500Y-81921153D01*
X173199500Y-81921153D01*
X173199500Y-82078846D01*
X173230261Y-82233489D01*
X173230264Y-82233501D01*
X173290602Y-82379172D01*
X173290609Y-82379185D01*
X173378210Y-82510288D01*
X173378213Y-82510292D01*
X173489707Y-82621786D01*
X173489711Y-82621789D01*
X173620814Y-82709390D01*
X173620827Y-82709397D01*
X173766498Y-82769735D01*
X173766503Y-82769737D01*
X173921153Y-82800499D01*
X173921156Y-82800500D01*
X173921158Y-82800500D01*
X174078844Y-82800500D01*
X174078845Y-82800499D01*
X174233497Y-82769737D01*
X174379179Y-82709394D01*
X174510289Y-82621789D01*
X174621789Y-82510289D01*
X174709394Y-82379179D01*
X174710428Y-82376684D01*
X174769735Y-82233501D01*
X174769737Y-82233497D01*
X174800500Y-82078842D01*
X174800500Y-81921158D01*
X174800500Y-81921155D01*
X174800499Y-81921153D01*
X174773923Y-81787549D01*
X174769737Y-81766503D01*
X174750593Y-81720285D01*
X174709397Y-81620827D01*
X174709390Y-81620814D01*
X174621789Y-81489711D01*
X174621786Y-81489707D01*
X174510292Y-81378213D01*
X174510288Y-81378210D01*
X174379185Y-81290609D01*
X174379172Y-81290602D01*
X174233501Y-81230264D01*
X174233489Y-81230261D01*
X174078845Y-81199500D01*
X174078842Y-81199500D01*
X173921158Y-81199500D01*
X173921155Y-81199500D01*
X173766510Y-81230261D01*
X173766498Y-81230264D01*
X173620827Y-81290602D01*
X173620814Y-81290609D01*
X173489711Y-81378210D01*
X173489707Y-81378213D01*
X173378213Y-81489707D01*
X173378210Y-81489711D01*
X173290609Y-81620814D01*
X173290602Y-81620827D01*
X173230264Y-81766498D01*
X173230261Y-81766510D01*
X173199500Y-81921153D01*
X163000500Y-81921153D01*
X163000500Y-75921153D01*
X170199500Y-75921153D01*
X170199500Y-76078846D01*
X170230261Y-76233489D01*
X170230264Y-76233501D01*
X170290602Y-76379172D01*
X170290609Y-76379185D01*
X170378210Y-76510288D01*
X170378213Y-76510292D01*
X170489707Y-76621786D01*
X170489711Y-76621789D01*
X170620814Y-76709390D01*
X170620827Y-76709397D01*
X170662157Y-76726516D01*
X170766503Y-76769737D01*
X170831147Y-76782595D01*
X170921849Y-76800638D01*
X170983760Y-76833023D01*
X170985339Y-76834574D01*
X174515139Y-80364374D01*
X174515149Y-80364385D01*
X174519479Y-80368715D01*
X174519480Y-80368716D01*
X174631284Y-80480520D01*
X174680571Y-80508975D01*
X174718095Y-80530639D01*
X174718097Y-80530641D01*
X174768213Y-80559576D01*
X174768215Y-80559577D01*
X174920942Y-80600500D01*
X174920943Y-80600500D01*
X175920234Y-80600500D01*
X175987273Y-80620185D01*
X175989125Y-80621398D01*
X176120814Y-80709390D01*
X176120827Y-80709397D01*
X176258683Y-80766498D01*
X176266503Y-80769737D01*
X176398123Y-80795918D01*
X176421153Y-80800499D01*
X176421156Y-80800500D01*
X176421158Y-80800500D01*
X176578844Y-80800500D01*
X176578845Y-80800499D01*
X176733497Y-80769737D01*
X176879179Y-80709394D01*
X177010289Y-80621789D01*
X177121789Y-80510289D01*
X177209394Y-80379179D01*
X177269737Y-80233497D01*
X177300500Y-80078842D01*
X177300500Y-79921158D01*
X177300500Y-79921155D01*
X177275242Y-79794178D01*
X177281469Y-79724586D01*
X177324332Y-79669409D01*
X177390221Y-79646164D01*
X177458218Y-79662232D01*
X177484540Y-79682305D01*
X178742542Y-80940307D01*
X178776027Y-81001630D01*
X178778861Y-81027988D01*
X178778861Y-81440537D01*
X178759176Y-81507576D01*
X178706372Y-81553331D01*
X178702315Y-81555098D01*
X178660877Y-81572262D01*
X178660871Y-81572265D01*
X178529768Y-81659866D01*
X178529764Y-81659869D01*
X178418270Y-81771363D01*
X178418267Y-81771367D01*
X178330666Y-81902470D01*
X178330659Y-81902483D01*
X178270321Y-82048154D01*
X178270318Y-82048166D01*
X178239557Y-82202809D01*
X178239557Y-82360502D01*
X178270318Y-82515145D01*
X178270321Y-82515157D01*
X178330659Y-82660828D01*
X178330666Y-82660841D01*
X178418267Y-82791944D01*
X178418270Y-82791948D01*
X178529764Y-82903442D01*
X178529768Y-82903445D01*
X178660871Y-82991046D01*
X178660884Y-82991053D01*
X178806555Y-83051391D01*
X178806560Y-83051393D01*
X178961210Y-83082155D01*
X178961213Y-83082156D01*
X178961215Y-83082156D01*
X179118901Y-83082156D01*
X179118902Y-83082155D01*
X179273554Y-83051393D01*
X179419236Y-82991050D01*
X179439717Y-82977364D01*
X179506389Y-82956486D01*
X179573770Y-82974968D01*
X179577439Y-82977325D01*
X179622197Y-83007232D01*
X179622200Y-83007233D01*
X179622203Y-83007235D01*
X179728814Y-83051394D01*
X179767879Y-83067575D01*
X179922529Y-83098337D01*
X179922532Y-83098338D01*
X179922534Y-83098338D01*
X180080220Y-83098338D01*
X180080221Y-83098337D01*
X180234873Y-83067575D01*
X180380555Y-83007232D01*
X180511665Y-82919627D01*
X180623165Y-82808127D01*
X180710770Y-82677017D01*
X180771113Y-82531335D01*
X180801876Y-82376680D01*
X180801876Y-82218996D01*
X180801876Y-82218993D01*
X180801875Y-82218991D01*
X180773998Y-82078846D01*
X180771113Y-82064341D01*
X180764408Y-82048154D01*
X180711804Y-81921153D01*
X190699500Y-81921153D01*
X190699500Y-82078846D01*
X190730261Y-82233489D01*
X190730264Y-82233501D01*
X190790602Y-82379172D01*
X190790609Y-82379185D01*
X190878210Y-82510288D01*
X190878213Y-82510292D01*
X190989707Y-82621786D01*
X190989711Y-82621789D01*
X191120814Y-82709390D01*
X191120827Y-82709397D01*
X191266498Y-82769735D01*
X191266503Y-82769737D01*
X191421153Y-82800499D01*
X191421156Y-82800500D01*
X191421158Y-82800500D01*
X191578844Y-82800500D01*
X191578845Y-82800499D01*
X191733497Y-82769737D01*
X191879179Y-82709394D01*
X192010289Y-82621789D01*
X192121789Y-82510289D01*
X192209394Y-82379179D01*
X192210428Y-82376684D01*
X192269735Y-82233501D01*
X192269737Y-82233497D01*
X192300500Y-82078842D01*
X192300500Y-81921158D01*
X192300500Y-81921155D01*
X192300499Y-81921153D01*
X192273923Y-81787549D01*
X192269737Y-81766503D01*
X192250593Y-81720285D01*
X192209397Y-81620827D01*
X192209390Y-81620814D01*
X192121789Y-81489711D01*
X192121786Y-81489707D01*
X192010292Y-81378213D01*
X192010288Y-81378210D01*
X191879185Y-81290609D01*
X191879172Y-81290602D01*
X191733501Y-81230264D01*
X191733489Y-81230261D01*
X191578845Y-81199500D01*
X191578842Y-81199500D01*
X191421158Y-81199500D01*
X191421155Y-81199500D01*
X191266510Y-81230261D01*
X191266498Y-81230264D01*
X191120827Y-81290602D01*
X191120814Y-81290609D01*
X190989711Y-81378210D01*
X190989707Y-81378213D01*
X190878213Y-81489707D01*
X190878210Y-81489711D01*
X190790609Y-81620814D01*
X190790602Y-81620827D01*
X190730264Y-81766498D01*
X190730261Y-81766510D01*
X190699500Y-81921153D01*
X180711804Y-81921153D01*
X180710773Y-81918665D01*
X180710766Y-81918652D01*
X180622774Y-81786963D01*
X180601896Y-81720285D01*
X180601876Y-81718072D01*
X180601876Y-80897682D01*
X180621561Y-80830643D01*
X180674365Y-80784888D01*
X180701681Y-80776065D01*
X180733497Y-80769737D01*
X180879179Y-80709394D01*
X181010289Y-80621789D01*
X181094603Y-80537474D01*
X181155924Y-80503991D01*
X181225616Y-80508975D01*
X181281550Y-80550846D01*
X181303900Y-80600965D01*
X181330261Y-80733491D01*
X181330264Y-80733501D01*
X181390602Y-80879172D01*
X181390609Y-80879185D01*
X181478210Y-81010288D01*
X181478213Y-81010292D01*
X181589707Y-81121786D01*
X181589711Y-81121789D01*
X181720814Y-81209390D01*
X181720827Y-81209397D01*
X181866498Y-81269735D01*
X181866503Y-81269737D01*
X182021153Y-81300499D01*
X182021156Y-81300500D01*
X182021158Y-81300500D01*
X182178844Y-81300500D01*
X182178845Y-81300499D01*
X182333497Y-81269737D01*
X182479179Y-81209394D01*
X182610289Y-81121789D01*
X182721789Y-81010289D01*
X182781348Y-80921153D01*
X183699500Y-80921153D01*
X183699500Y-81078846D01*
X183730261Y-81233489D01*
X183730264Y-81233501D01*
X183790602Y-81379172D01*
X183790609Y-81379185D01*
X183878210Y-81510288D01*
X183878213Y-81510292D01*
X183989707Y-81621786D01*
X183989711Y-81621789D01*
X184120814Y-81709390D01*
X184120827Y-81709397D01*
X184258683Y-81766498D01*
X184266503Y-81769737D01*
X184421153Y-81800499D01*
X184421156Y-81800500D01*
X184421158Y-81800500D01*
X184578844Y-81800500D01*
X184578845Y-81800499D01*
X184589179Y-81798443D01*
X184614287Y-81793450D01*
X184614292Y-81793449D01*
X184725302Y-81771367D01*
X184733497Y-81769737D01*
X184879179Y-81709394D01*
X185010289Y-81621789D01*
X185121789Y-81510289D01*
X185209394Y-81379179D01*
X185269737Y-81233497D01*
X185300500Y-81078842D01*
X185300500Y-80921158D01*
X185300500Y-80921155D01*
X185300499Y-80921153D01*
X185273394Y-80784888D01*
X185269737Y-80766503D01*
X185246080Y-80709390D01*
X185209397Y-80620827D01*
X185209390Y-80620814D01*
X185121789Y-80489711D01*
X185121786Y-80489707D01*
X185010292Y-80378213D01*
X185010288Y-80378210D01*
X184879185Y-80290609D01*
X184879172Y-80290602D01*
X184733501Y-80230264D01*
X184733489Y-80230261D01*
X184578845Y-80199500D01*
X184578842Y-80199500D01*
X184421158Y-80199500D01*
X184421155Y-80199500D01*
X184266510Y-80230261D01*
X184266498Y-80230264D01*
X184120827Y-80290602D01*
X184120814Y-80290609D01*
X183989711Y-80378210D01*
X183989707Y-80378213D01*
X183878213Y-80489707D01*
X183878210Y-80489711D01*
X183790609Y-80620814D01*
X183790602Y-80620827D01*
X183730264Y-80766498D01*
X183730261Y-80766510D01*
X183699500Y-80921153D01*
X182781348Y-80921153D01*
X182809394Y-80879179D01*
X182869737Y-80733497D01*
X182900500Y-80578842D01*
X182900500Y-80421158D01*
X182900500Y-80421155D01*
X182900499Y-80421153D01*
X182891957Y-80378210D01*
X182869737Y-80266503D01*
X182856062Y-80233489D01*
X182809397Y-80120827D01*
X182809390Y-80120814D01*
X182721789Y-79989711D01*
X182721786Y-79989707D01*
X182610292Y-79878213D01*
X182610288Y-79878210D01*
X182479185Y-79790609D01*
X182479172Y-79790602D01*
X182333501Y-79730264D01*
X182333489Y-79730261D01*
X182178845Y-79699500D01*
X182178842Y-79699500D01*
X182021158Y-79699500D01*
X182021155Y-79699500D01*
X181866510Y-79730261D01*
X181866498Y-79730264D01*
X181720827Y-79790602D01*
X181720814Y-79790609D01*
X181589711Y-79878210D01*
X181505397Y-79962524D01*
X181444073Y-79996008D01*
X181374382Y-79991024D01*
X181318448Y-79949152D01*
X181296099Y-79899033D01*
X181274531Y-79790606D01*
X181269737Y-79766503D01*
X181269735Y-79766498D01*
X181209397Y-79620827D01*
X181209390Y-79620814D01*
X181121789Y-79489711D01*
X181121786Y-79489707D01*
X181010292Y-79378213D01*
X181010288Y-79378210D01*
X180879185Y-79290609D01*
X180879172Y-79290602D01*
X180733501Y-79230264D01*
X180733489Y-79230261D01*
X180578845Y-79199500D01*
X180578842Y-79199500D01*
X180421158Y-79199500D01*
X180421155Y-79199500D01*
X180266510Y-79230261D01*
X180266498Y-79230264D01*
X180120827Y-79290602D01*
X180120814Y-79290609D01*
X179989711Y-79378210D01*
X179989707Y-79378213D01*
X179946259Y-79421662D01*
X179884936Y-79455147D01*
X179815244Y-79450163D01*
X179770897Y-79421662D01*
X176334574Y-75985339D01*
X176301089Y-75924016D01*
X176300638Y-75921849D01*
X176269738Y-75766510D01*
X176269737Y-75766503D01*
X176269735Y-75766498D01*
X176209397Y-75620827D01*
X176209390Y-75620814D01*
X176121789Y-75489711D01*
X176121786Y-75489707D01*
X176120885Y-75488806D01*
X176120563Y-75488217D01*
X176117924Y-75485001D01*
X176118533Y-75484500D01*
X176087400Y-75427483D01*
X176092384Y-75357791D01*
X176134256Y-75301858D01*
X176184372Y-75279508D01*
X176233497Y-75269737D01*
X176379179Y-75209394D01*
X176510289Y-75121789D01*
X176621789Y-75010289D01*
X176709394Y-74879179D01*
X176769737Y-74733497D01*
X176800500Y-74578842D01*
X176800500Y-74421158D01*
X176800500Y-74421155D01*
X176800499Y-74421153D01*
X176769738Y-74266510D01*
X176769737Y-74266503D01*
X176769735Y-74266498D01*
X176709397Y-74120827D01*
X176709390Y-74120814D01*
X176621789Y-73989711D01*
X176621786Y-73989707D01*
X176510292Y-73878213D01*
X176510288Y-73878210D01*
X176379185Y-73790609D01*
X176379172Y-73790602D01*
X176233501Y-73730264D01*
X176233489Y-73730261D01*
X176078845Y-73699500D01*
X176078842Y-73699500D01*
X175921158Y-73699500D01*
X175921155Y-73699500D01*
X175766510Y-73730261D01*
X175766498Y-73730264D01*
X175620827Y-73790602D01*
X175620814Y-73790609D01*
X175489711Y-73878210D01*
X175489707Y-73878213D01*
X175378213Y-73989707D01*
X175378210Y-73989711D01*
X175290609Y-74120814D01*
X175290602Y-74120827D01*
X175230264Y-74266498D01*
X175230261Y-74266510D01*
X175199500Y-74421153D01*
X175199500Y-74578846D01*
X175230261Y-74733489D01*
X175230264Y-74733501D01*
X175290602Y-74879172D01*
X175290609Y-74879185D01*
X175378210Y-75010288D01*
X175378213Y-75010292D01*
X175379114Y-75011193D01*
X175379435Y-75011780D01*
X175382076Y-75014999D01*
X175381465Y-75015499D01*
X175412599Y-75072516D01*
X175407615Y-75142208D01*
X175365743Y-75198141D01*
X175315626Y-75220491D01*
X175266507Y-75230261D01*
X175266498Y-75230264D01*
X175120827Y-75290602D01*
X175120814Y-75290609D01*
X174989711Y-75378210D01*
X174989707Y-75378213D01*
X174878213Y-75489707D01*
X174878210Y-75489711D01*
X174790609Y-75620814D01*
X174790602Y-75620827D01*
X174730264Y-75766498D01*
X174730261Y-75766510D01*
X174699500Y-75921153D01*
X174699500Y-76078846D01*
X174730261Y-76233489D01*
X174730264Y-76233501D01*
X174790602Y-76379172D01*
X174790609Y-76379185D01*
X174878210Y-76510288D01*
X174878213Y-76510292D01*
X174989707Y-76621786D01*
X174989715Y-76621792D01*
X175060498Y-76669088D01*
X175105304Y-76722700D01*
X175114011Y-76792025D01*
X175106169Y-76819642D01*
X175055999Y-76940763D01*
X175055996Y-76940775D01*
X175025235Y-77095418D01*
X175025235Y-77253111D01*
X175055996Y-77407754D01*
X175055999Y-77407766D01*
X175116337Y-77553437D01*
X175116344Y-77553450D01*
X175203945Y-77684553D01*
X175203948Y-77684557D01*
X175315442Y-77796051D01*
X175315446Y-77796054D01*
X175446549Y-77883655D01*
X175446562Y-77883662D01*
X175592233Y-77944000D01*
X175592238Y-77944002D01*
X175656882Y-77956860D01*
X175747584Y-77974903D01*
X175809495Y-78007288D01*
X175811074Y-78008839D01*
X176817694Y-79015459D01*
X176851179Y-79076782D01*
X176846195Y-79146474D01*
X176804323Y-79202407D01*
X176738859Y-79226824D01*
X176705822Y-79224757D01*
X176578846Y-79199500D01*
X176578842Y-79199500D01*
X176421158Y-79199500D01*
X176421155Y-79199500D01*
X176266510Y-79230261D01*
X176266498Y-79230264D01*
X176120827Y-79290602D01*
X176120814Y-79290609D01*
X175989125Y-79378602D01*
X175922447Y-79399480D01*
X175920234Y-79399500D01*
X175300097Y-79399500D01*
X175233058Y-79379815D01*
X175212416Y-79363181D01*
X171834574Y-75985339D01*
X171801089Y-75924016D01*
X171800638Y-75921849D01*
X171769738Y-75766510D01*
X171769737Y-75766503D01*
X171769735Y-75766498D01*
X171709397Y-75620827D01*
X171709390Y-75620814D01*
X171621789Y-75489711D01*
X171621786Y-75489707D01*
X171510292Y-75378213D01*
X171510288Y-75378210D01*
X171379185Y-75290609D01*
X171379172Y-75290602D01*
X171233501Y-75230264D01*
X171233489Y-75230261D01*
X171078845Y-75199500D01*
X171078842Y-75199500D01*
X170921158Y-75199500D01*
X170921155Y-75199500D01*
X170766510Y-75230261D01*
X170766498Y-75230264D01*
X170620827Y-75290602D01*
X170620814Y-75290609D01*
X170489711Y-75378210D01*
X170489707Y-75378213D01*
X170378213Y-75489707D01*
X170378210Y-75489711D01*
X170290609Y-75620814D01*
X170290602Y-75620827D01*
X170230264Y-75766498D01*
X170230261Y-75766510D01*
X170199500Y-75921153D01*
X163000500Y-75921153D01*
X163000500Y-72253543D01*
X178504499Y-72253543D01*
X178542947Y-72446829D01*
X178542950Y-72446839D01*
X178618364Y-72628907D01*
X178618371Y-72628920D01*
X178727860Y-72792781D01*
X178727863Y-72792785D01*
X178867214Y-72932136D01*
X178867218Y-72932139D01*
X179031079Y-73041628D01*
X179031092Y-73041635D01*
X179213160Y-73117049D01*
X179213165Y-73117051D01*
X179213169Y-73117051D01*
X179213170Y-73117052D01*
X179406456Y-73155500D01*
X179406459Y-73155500D01*
X179603543Y-73155500D01*
X179733582Y-73129632D01*
X179796835Y-73117051D01*
X179978914Y-73041632D01*
X180142782Y-72932139D01*
X180282139Y-72792782D01*
X180391632Y-72628914D01*
X180467051Y-72446835D01*
X180505500Y-72253541D01*
X180505500Y-71667049D01*
X180525185Y-71600010D01*
X180577989Y-71554255D01*
X180647147Y-71544311D01*
X180691499Y-71559662D01*
X180736025Y-71585369D01*
X180867133Y-71620500D01*
X180867135Y-71620500D01*
X181002865Y-71620500D01*
X181002867Y-71620500D01*
X181133975Y-71585369D01*
X181251524Y-71517502D01*
X181347502Y-71421524D01*
X181415369Y-71303975D01*
X181450500Y-71172867D01*
X181450500Y-71037133D01*
X186199500Y-71037133D01*
X186199500Y-71172867D01*
X186234631Y-71303975D01*
X186234632Y-71303978D01*
X186302495Y-71421520D01*
X186302497Y-71421522D01*
X186302498Y-71421524D01*
X186398476Y-71517502D01*
X186398477Y-71517503D01*
X186398479Y-71517504D01*
X186516021Y-71585367D01*
X186516022Y-71585367D01*
X186516025Y-71585369D01*
X186647133Y-71620500D01*
X186647135Y-71620500D01*
X186782865Y-71620500D01*
X186782867Y-71620500D01*
X186913975Y-71585369D01*
X186958499Y-71559662D01*
X187026398Y-71543189D01*
X187092425Y-71566040D01*
X187135617Y-71620961D01*
X187144500Y-71667049D01*
X187144500Y-72253541D01*
X187144500Y-72253543D01*
X187144499Y-72253543D01*
X187182947Y-72446829D01*
X187182950Y-72446839D01*
X187258364Y-72628907D01*
X187258371Y-72628920D01*
X187367860Y-72792781D01*
X187367863Y-72792785D01*
X187507214Y-72932136D01*
X187507218Y-72932139D01*
X187671079Y-73041628D01*
X187671092Y-73041635D01*
X187853160Y-73117049D01*
X187853165Y-73117051D01*
X187853169Y-73117051D01*
X187853170Y-73117052D01*
X188046456Y-73155500D01*
X188046459Y-73155500D01*
X188243543Y-73155500D01*
X188373582Y-73129632D01*
X188436835Y-73117051D01*
X188618914Y-73041632D01*
X188782782Y-72932139D01*
X188922139Y-72792782D01*
X189031632Y-72628914D01*
X189107051Y-72446835D01*
X189145500Y-72253541D01*
X189145500Y-70956459D01*
X189145500Y-70956456D01*
X189107052Y-70763170D01*
X189107051Y-70763169D01*
X189107051Y-70763165D01*
X189079645Y-70697000D01*
X189031635Y-70581092D01*
X189031628Y-70581079D01*
X188922139Y-70417218D01*
X188922136Y-70417214D01*
X188782785Y-70277863D01*
X188782781Y-70277860D01*
X188618920Y-70168371D01*
X188618907Y-70168364D01*
X188436839Y-70092950D01*
X188436829Y-70092947D01*
X188243543Y-70054500D01*
X188243541Y-70054500D01*
X188046459Y-70054500D01*
X188046457Y-70054500D01*
X187853170Y-70092947D01*
X187853160Y-70092950D01*
X187671092Y-70168364D01*
X187671079Y-70168371D01*
X187507218Y-70277860D01*
X187507214Y-70277863D01*
X187367863Y-70417214D01*
X187367860Y-70417218D01*
X187258371Y-70581079D01*
X187258364Y-70581092D01*
X187230313Y-70648816D01*
X187186472Y-70703220D01*
X187120178Y-70725285D01*
X187052479Y-70708006D01*
X187038311Y-70697000D01*
X187037970Y-70697445D01*
X187031520Y-70692495D01*
X186913978Y-70624632D01*
X186913979Y-70624632D01*
X186898484Y-70620480D01*
X186782867Y-70589500D01*
X186647133Y-70589500D01*
X186531515Y-70620480D01*
X186516021Y-70624632D01*
X186398479Y-70692495D01*
X186398473Y-70692500D01*
X186302500Y-70788473D01*
X186302495Y-70788479D01*
X186234632Y-70906021D01*
X186234631Y-70906025D01*
X186199500Y-71037133D01*
X181450500Y-71037133D01*
X181415369Y-70906025D01*
X181384996Y-70853418D01*
X181347504Y-70788479D01*
X181347499Y-70788473D01*
X181251526Y-70692500D01*
X181251520Y-70692495D01*
X181133978Y-70624632D01*
X181133979Y-70624632D01*
X181118484Y-70620480D01*
X181002867Y-70589500D01*
X180867133Y-70589500D01*
X180751515Y-70620480D01*
X180736021Y-70624632D01*
X180618479Y-70692495D01*
X180612030Y-70697445D01*
X180610413Y-70695338D01*
X180560579Y-70722536D01*
X180490888Y-70717536D01*
X180434964Y-70675653D01*
X180419686Y-70648816D01*
X180391632Y-70581086D01*
X180391628Y-70581079D01*
X180282139Y-70417218D01*
X180282136Y-70417214D01*
X180142785Y-70277863D01*
X180142781Y-70277860D01*
X179978920Y-70168371D01*
X179978907Y-70168364D01*
X179796839Y-70092950D01*
X179796829Y-70092947D01*
X179603543Y-70054500D01*
X179603541Y-70054500D01*
X179406459Y-70054500D01*
X179406457Y-70054500D01*
X179213170Y-70092947D01*
X179213160Y-70092950D01*
X179031092Y-70168364D01*
X179031079Y-70168371D01*
X178867218Y-70277860D01*
X178867214Y-70277863D01*
X178727863Y-70417214D01*
X178727860Y-70417218D01*
X178618371Y-70581079D01*
X178618364Y-70581092D01*
X178542950Y-70763160D01*
X178542947Y-70763170D01*
X178504500Y-70956456D01*
X178504500Y-70956459D01*
X178504500Y-72253541D01*
X178504500Y-72253543D01*
X178504499Y-72253543D01*
X163000500Y-72253543D01*
X163000500Y-69003051D01*
X163000649Y-68996967D01*
X163010961Y-68787051D01*
X163017052Y-68663068D01*
X163018245Y-68650962D01*
X163046159Y-68462781D01*
X163066849Y-68323296D01*
X163069218Y-68311385D01*
X163149710Y-67990043D01*
X163153240Y-67978411D01*
X163172872Y-67923543D01*
X178504499Y-67923543D01*
X178542947Y-68116829D01*
X178542950Y-68116839D01*
X178618364Y-68298907D01*
X178618371Y-68298920D01*
X178727860Y-68462781D01*
X178727863Y-68462785D01*
X178867214Y-68602136D01*
X178867218Y-68602139D01*
X179031079Y-68711628D01*
X179031092Y-68711635D01*
X179213160Y-68787049D01*
X179213165Y-68787051D01*
X179213169Y-68787051D01*
X179213170Y-68787052D01*
X179406456Y-68825500D01*
X179406459Y-68825500D01*
X179603543Y-68825500D01*
X179733582Y-68799632D01*
X179796835Y-68787051D01*
X179978914Y-68711632D01*
X180142782Y-68602139D01*
X180282139Y-68462782D01*
X180391632Y-68298914D01*
X180467051Y-68116835D01*
X180485321Y-68024985D01*
X180505500Y-67923543D01*
X187144499Y-67923543D01*
X187182947Y-68116829D01*
X187182950Y-68116839D01*
X187258364Y-68298907D01*
X187258371Y-68298920D01*
X187367860Y-68462781D01*
X187367863Y-68462785D01*
X187507214Y-68602136D01*
X187507218Y-68602139D01*
X187671079Y-68711628D01*
X187671092Y-68711635D01*
X187853160Y-68787049D01*
X187853165Y-68787051D01*
X187853169Y-68787051D01*
X187853170Y-68787052D01*
X188046456Y-68825500D01*
X188046459Y-68825500D01*
X188243543Y-68825500D01*
X188373582Y-68799632D01*
X188436835Y-68787051D01*
X188618914Y-68711632D01*
X188782782Y-68602139D01*
X188922139Y-68462782D01*
X189031632Y-68298914D01*
X189107051Y-68116835D01*
X189125321Y-68024985D01*
X189145500Y-67923543D01*
X189145500Y-66926456D01*
X189107052Y-66733170D01*
X189107051Y-66733169D01*
X189107051Y-66733165D01*
X189107049Y-66733160D01*
X189031635Y-66551092D01*
X189031628Y-66551079D01*
X188922139Y-66387218D01*
X188922136Y-66387214D01*
X188782785Y-66247863D01*
X188782781Y-66247860D01*
X188618920Y-66138371D01*
X188618907Y-66138364D01*
X188436839Y-66062950D01*
X188436829Y-66062947D01*
X188243543Y-66024500D01*
X188243541Y-66024500D01*
X188046459Y-66024500D01*
X188046457Y-66024500D01*
X187853170Y-66062947D01*
X187853160Y-66062950D01*
X187671092Y-66138364D01*
X187671079Y-66138371D01*
X187507218Y-66247860D01*
X187507214Y-66247863D01*
X187367863Y-66387214D01*
X187367860Y-66387218D01*
X187258371Y-66551079D01*
X187258364Y-66551092D01*
X187182950Y-66733160D01*
X187182947Y-66733170D01*
X187144500Y-66926456D01*
X187144500Y-66926459D01*
X187144500Y-67923541D01*
X187144500Y-67923543D01*
X187144499Y-67923543D01*
X180505500Y-67923543D01*
X180505500Y-66926456D01*
X180467052Y-66733170D01*
X180467051Y-66733169D01*
X180467051Y-66733165D01*
X180467049Y-66733160D01*
X180391635Y-66551092D01*
X180391628Y-66551079D01*
X180282139Y-66387218D01*
X180282136Y-66387214D01*
X180142785Y-66247863D01*
X180142781Y-66247860D01*
X179978920Y-66138371D01*
X179978907Y-66138364D01*
X179796839Y-66062950D01*
X179796829Y-66062947D01*
X179603543Y-66024500D01*
X179603541Y-66024500D01*
X179406459Y-66024500D01*
X179406457Y-66024500D01*
X179213170Y-66062947D01*
X179213160Y-66062950D01*
X179031092Y-66138364D01*
X179031079Y-66138371D01*
X178867218Y-66247860D01*
X178867214Y-66247863D01*
X178727863Y-66387214D01*
X178727860Y-66387218D01*
X178618371Y-66551079D01*
X178618364Y-66551092D01*
X178542950Y-66733160D01*
X178542947Y-66733170D01*
X178504500Y-66926456D01*
X178504500Y-66926459D01*
X178504500Y-67923541D01*
X178504500Y-67923543D01*
X178504499Y-67923543D01*
X163172872Y-67923543D01*
X163172873Y-67923541D01*
X163264835Y-67666525D01*
X163269476Y-67655318D01*
X163411124Y-67355828D01*
X163416840Y-67345136D01*
X163587145Y-67060998D01*
X163593888Y-67050905D01*
X163791224Y-66784829D01*
X163798935Y-66775433D01*
X164021405Y-66529975D01*
X164029975Y-66521405D01*
X164275433Y-66298935D01*
X164284818Y-66291232D01*
X164550905Y-66093888D01*
X164560998Y-66087145D01*
X164845136Y-65916840D01*
X164855828Y-65911124D01*
X165155318Y-65769476D01*
X165166525Y-65764835D01*
X165478412Y-65653239D01*
X165490043Y-65649710D01*
X165811385Y-65569218D01*
X165823296Y-65566849D01*
X166150962Y-65518244D01*
X166163068Y-65517052D01*
X166496967Y-65500648D01*
X166503051Y-65500500D01*
X166565892Y-65500500D01*
X205934108Y-65500500D01*
X205996949Y-65500500D01*
X206003032Y-65500648D01*
G37*
%TD.AperFunction*%
%TD*%
M02*
