%TF.GenerationSoftware,KiCad,Pcbnew,10.0.5*%
%TF.CreationDate,2026-09-21T05:07:09+05:30*%
%TF.ProjectId,lora-v2,6c6f7261-2d76-4322-9e6b-696361645f70,rev?*%
%TF.SameCoordinates,Original*%
%TF.FileFunction,Copper,L3,Inr*%
%TF.FilePolarity,Positive*%
%FSLAX46Y46*%
G04 Gerber Fmt 4.6, Leading zero omitted, Abs format (unit mm)*
G04 Created by KiCad (PCBNEW 10.0.5) date 2026-09-21 05:07:09*
%MOMM*%
%LPD*%
G01*
G04 APERTURE LIST*
%TA.AperFunction,ComponentPad*%
%ADD10O,1.000000X2.100000*%
%TD*%
%TA.AperFunction,ComponentPad*%
%ADD11O,1.000000X1.800000*%
%TD*%
%TA.AperFunction,ComponentPad*%
%ADD12R,1.700000X1.700000*%
%TD*%
%TA.AperFunction,ViaPad*%
%ADD13C,0.600000*%
%TD*%
G04 APERTURE END LIST*
D10*
%TO.N,Net-(J1-SHIELD)*%
%TO.C,J1*%
X188145000Y-71605000D03*
D11*
X188145000Y-67425000D03*
D10*
X179505000Y-71605000D03*
D11*
X179505000Y-67425000D03*
%TD*%
D12*
%TO.N,Net-(AE1-A)*%
%TO.C,AE1*%
X192287500Y-104400000D03*
%TD*%
D13*
%TO.N,Earth*%
X188000000Y-93500000D03*
X165000000Y-78500000D03*
X206500000Y-74500000D03*
X206000000Y-73000000D03*
X171500000Y-106500000D03*
X168500000Y-106000000D03*
X164500000Y-74000000D03*
X194500000Y-100500000D03*
X193000000Y-107000000D03*
X206000000Y-86500000D03*
X206500000Y-85000000D03*
X191000000Y-98000000D03*
X206500000Y-75500000D03*
X178000000Y-66500000D03*
X165000000Y-67500000D03*
X191000000Y-92000000D03*
X164500000Y-98000000D03*
X178890000Y-89157364D03*
X199500000Y-107000000D03*
X199500000Y-105500000D03*
X207500000Y-67500000D03*
X196500000Y-107000000D03*
X201000000Y-67500000D03*
X166500000Y-106000000D03*
X164500000Y-75500000D03*
X206000000Y-106500000D03*
X195000000Y-103500000D03*
X165000000Y-99500000D03*
X164500000Y-85000000D03*
X199000000Y-90000000D03*
X195000000Y-97500000D03*
X165000000Y-77000000D03*
X206000000Y-105000000D03*
X165000000Y-71500000D03*
X191000000Y-107000000D03*
X190000000Y-107000000D03*
X194000000Y-107000000D03*
X190000000Y-106000000D03*
X165000000Y-81000000D03*
X191000000Y-99000000D03*
X206500000Y-93500000D03*
X177000000Y-106500000D03*
X204000000Y-67500000D03*
X173000000Y-106500000D03*
X188500000Y-74000000D03*
X197000000Y-92500000D03*
X206500000Y-89500000D03*
X164500000Y-83500000D03*
X202500000Y-67500000D03*
X164500000Y-79500000D03*
X192000000Y-107000000D03*
X206500000Y-70500000D03*
X178500000Y-106500000D03*
X164500000Y-70000000D03*
X195000000Y-96000000D03*
X165000000Y-95500000D03*
X206500000Y-80000000D03*
X202500000Y-105500000D03*
X165000000Y-91500000D03*
X180000000Y-78500000D03*
X206500000Y-91000000D03*
X198500000Y-67500000D03*
X185500000Y-75500000D03*
X200000000Y-67500000D03*
X171500000Y-67000000D03*
X164500000Y-89000000D03*
X164500000Y-94500000D03*
X206000000Y-101000000D03*
X206000000Y-88000000D03*
X186500000Y-106000000D03*
X180000000Y-106500000D03*
X206500000Y-84000000D03*
X165000000Y-105500000D03*
X195000000Y-99500000D03*
X189000000Y-95000000D03*
X174500000Y-66500000D03*
X164500000Y-93000000D03*
X165000000Y-82000000D03*
X195000000Y-106500000D03*
X164500000Y-103500000D03*
X195000000Y-104500000D03*
X195000000Y-95000000D03*
X194000000Y-67000000D03*
X206000000Y-96000000D03*
X190000000Y-97000000D03*
X191000000Y-102000000D03*
X206000000Y-82500000D03*
X165000000Y-72500000D03*
X206500000Y-72000000D03*
X172000000Y-82000000D03*
X188000000Y-92500000D03*
X187500000Y-107000000D03*
X184000000Y-99000000D03*
X206500000Y-94500000D03*
X184500000Y-106500000D03*
X174500000Y-106500000D03*
X206500000Y-81500000D03*
X165000000Y-97000000D03*
X165000000Y-88000000D03*
X165000000Y-86500000D03*
X190000000Y-103000000D03*
X191000000Y-100000000D03*
X205500000Y-67500000D03*
X188000000Y-90500000D03*
X172000000Y-80762500D03*
X190000000Y-104000000D03*
X195000000Y-102500000D03*
X174000000Y-84000000D03*
X195000000Y-98500000D03*
X194500000Y-93000000D03*
X195500000Y-94000000D03*
X192000000Y-67000000D03*
X175500000Y-106500000D03*
X201000000Y-105500000D03*
X190500000Y-66500000D03*
X195000000Y-101500000D03*
X166500000Y-67000000D03*
X164500000Y-102000000D03*
X200000000Y-83500000D03*
X206000000Y-97500000D03*
X188000000Y-96000000D03*
X206000000Y-92000000D03*
X180005515Y-91505515D03*
X168000000Y-67000000D03*
X198000000Y-107000000D03*
X206000000Y-78500000D03*
X204500000Y-105500000D03*
X191000000Y-97000000D03*
X206500000Y-103500000D03*
X169500000Y-67000000D03*
X187500000Y-94500000D03*
X206500000Y-100000000D03*
X195000000Y-105500000D03*
X198500000Y-91500000D03*
X165000000Y-90500000D03*
X195000000Y-92000000D03*
X197000000Y-67500000D03*
X188000000Y-91500000D03*
X176000000Y-66500000D03*
X206000000Y-77000000D03*
X182000000Y-106500000D03*
X206500000Y-98500000D03*
X196000000Y-93000000D03*
X165000000Y-100500000D03*
X191000000Y-101000000D03*
X190000000Y-105000000D03*
X179000000Y-86500000D03*
X201500000Y-107000000D03*
X206500000Y-102500000D03*
X173000000Y-66500000D03*
X165000000Y-69000000D03*
X188500000Y-97000000D03*
%TO.N,+3V3*%
X194000000Y-96000000D03*
X184500000Y-81000000D03*
X182100000Y-80500000D03*
X186010000Y-86500000D03*
X176000000Y-74500000D03*
X196500000Y-88500000D03*
X174000000Y-82000000D03*
X180500000Y-80000000D03*
X185500000Y-90000000D03*
X191500000Y-82000000D03*
X175000000Y-85000000D03*
%TO.N,/SX_BUSY*%
X187500000Y-85000000D03*
X186325735Y-85674265D03*
%TO.N,/QSPI_SD3*%
X180001376Y-82297838D03*
X175500000Y-76000000D03*
%TO.N,/QSPI_SCLK*%
X179040057Y-82281656D03*
X175825735Y-77174265D03*
%TO.N,/QSPI_SD1*%
X171000000Y-76000000D03*
X176500000Y-80000000D03*
%TO.N,/SX_DIO2*%
X189000000Y-88600000D03*
X189500000Y-84500000D03*
%TD*%
%TA.AperFunction,Conductor*%
%TO.N,+3V3*%
G36*
X172764849Y-65520185D02*
G01*
X172810604Y-65572989D01*
X172820548Y-65642147D01*
X172791523Y-65705703D01*
X172745262Y-65739061D01*
X172620827Y-65790602D01*
X172620814Y-65790609D01*
X172489711Y-65878210D01*
X172489707Y-65878213D01*
X172378213Y-65989707D01*
X172378210Y-65989711D01*
X172290609Y-66120814D01*
X172290602Y-66120827D01*
X172230264Y-66266498D01*
X172230261Y-66266507D01*
X172220491Y-66315626D01*
X172188105Y-66377536D01*
X172127389Y-66412110D01*
X172057620Y-66408369D01*
X172015303Y-66381704D01*
X172014999Y-66382076D01*
X172012040Y-66379647D01*
X172011193Y-66379114D01*
X172010292Y-66378213D01*
X172010288Y-66378210D01*
X171879185Y-66290609D01*
X171879172Y-66290602D01*
X171733501Y-66230264D01*
X171733489Y-66230261D01*
X171578845Y-66199500D01*
X171578842Y-66199500D01*
X171421158Y-66199500D01*
X171421155Y-66199500D01*
X171266510Y-66230261D01*
X171266498Y-66230264D01*
X171120827Y-66290602D01*
X171120814Y-66290609D01*
X170989711Y-66378210D01*
X170989707Y-66378213D01*
X170878213Y-66489707D01*
X170878210Y-66489711D01*
X170790609Y-66620814D01*
X170790602Y-66620827D01*
X170730264Y-66766498D01*
X170730261Y-66766510D01*
X170699500Y-66921153D01*
X170699500Y-67078846D01*
X170730261Y-67233489D01*
X170730264Y-67233501D01*
X170790602Y-67379172D01*
X170790609Y-67379185D01*
X170878210Y-67510288D01*
X170878213Y-67510292D01*
X170989707Y-67621786D01*
X170989711Y-67621789D01*
X171120814Y-67709390D01*
X171120827Y-67709397D01*
X171266498Y-67769735D01*
X171266503Y-67769737D01*
X171421153Y-67800499D01*
X171421156Y-67800500D01*
X171421158Y-67800500D01*
X171578844Y-67800500D01*
X171578845Y-67800499D01*
X171733497Y-67769737D01*
X171879179Y-67709394D01*
X172010289Y-67621789D01*
X172121789Y-67510289D01*
X172209394Y-67379179D01*
X172269737Y-67233497D01*
X172279508Y-67184373D01*
X172311892Y-67122464D01*
X172372607Y-67087890D01*
X172442377Y-67091629D01*
X172484696Y-67118295D01*
X172485001Y-67117924D01*
X172487957Y-67120350D01*
X172488806Y-67120885D01*
X172489707Y-67121786D01*
X172489711Y-67121789D01*
X172620814Y-67209390D01*
X172620827Y-67209397D01*
X172724425Y-67252308D01*
X172766503Y-67269737D01*
X172921153Y-67300499D01*
X172921156Y-67300500D01*
X172921158Y-67300500D01*
X173078844Y-67300500D01*
X173078845Y-67300499D01*
X173233497Y-67269737D01*
X173379179Y-67209394D01*
X173510289Y-67121789D01*
X173621789Y-67010289D01*
X173635539Y-66989711D01*
X173646898Y-66972712D01*
X173700510Y-66927906D01*
X173769835Y-66919199D01*
X173832862Y-66949353D01*
X173853102Y-66972712D01*
X173878207Y-67010284D01*
X173878213Y-67010292D01*
X173989707Y-67121786D01*
X173989711Y-67121789D01*
X174120814Y-67209390D01*
X174120827Y-67209397D01*
X174224425Y-67252308D01*
X174266503Y-67269737D01*
X174421153Y-67300499D01*
X174421156Y-67300500D01*
X174421158Y-67300500D01*
X174578844Y-67300500D01*
X174578845Y-67300499D01*
X174733497Y-67269737D01*
X174879179Y-67209394D01*
X175010289Y-67121789D01*
X175121789Y-67010289D01*
X175135539Y-66989711D01*
X175146898Y-66972712D01*
X175200510Y-66927906D01*
X175269835Y-66919199D01*
X175332862Y-66949353D01*
X175353102Y-66972712D01*
X175378207Y-67010284D01*
X175378213Y-67010292D01*
X175489707Y-67121786D01*
X175489711Y-67121789D01*
X175620814Y-67209390D01*
X175620827Y-67209397D01*
X175724425Y-67252308D01*
X175766503Y-67269737D01*
X175921153Y-67300499D01*
X175921156Y-67300500D01*
X175921158Y-67300500D01*
X176078844Y-67300500D01*
X176078845Y-67300499D01*
X176233497Y-67269737D01*
X176379179Y-67209394D01*
X176510289Y-67121789D01*
X176621789Y-67010289D01*
X176709394Y-66879179D01*
X176769737Y-66733497D01*
X176800500Y-66578842D01*
X176800500Y-66421158D01*
X176800500Y-66421155D01*
X176800499Y-66421153D01*
X176776190Y-66298944D01*
X176769737Y-66266503D01*
X176762015Y-66247860D01*
X176709397Y-66120827D01*
X176709390Y-66120814D01*
X176621789Y-65989711D01*
X176621786Y-65989707D01*
X176510292Y-65878213D01*
X176510288Y-65878210D01*
X176379185Y-65790609D01*
X176379172Y-65790602D01*
X176254738Y-65739061D01*
X176200334Y-65695221D01*
X176178269Y-65628926D01*
X176195548Y-65561227D01*
X176246685Y-65513616D01*
X176302190Y-65500500D01*
X177697810Y-65500500D01*
X177764849Y-65520185D01*
X177810604Y-65572989D01*
X177820548Y-65642147D01*
X177791523Y-65705703D01*
X177745262Y-65739061D01*
X177620827Y-65790602D01*
X177620814Y-65790609D01*
X177489711Y-65878210D01*
X177489707Y-65878213D01*
X177378213Y-65989707D01*
X177378210Y-65989711D01*
X177290609Y-66120814D01*
X177290602Y-66120827D01*
X177230264Y-66266498D01*
X177230261Y-66266510D01*
X177199500Y-66421153D01*
X177199500Y-66578846D01*
X177230261Y-66733489D01*
X177230264Y-66733501D01*
X177290602Y-66879172D01*
X177290609Y-66879185D01*
X177378210Y-67010288D01*
X177378213Y-67010292D01*
X177489707Y-67121786D01*
X177489711Y-67121789D01*
X177620814Y-67209390D01*
X177620827Y-67209397D01*
X177724425Y-67252308D01*
X177766503Y-67269737D01*
X177921153Y-67300499D01*
X177921156Y-67300500D01*
X177921158Y-67300500D01*
X178078844Y-67300500D01*
X178078845Y-67300499D01*
X178233497Y-67269737D01*
X178333048Y-67228501D01*
X178402517Y-67221033D01*
X178464996Y-67252308D01*
X178500648Y-67312397D01*
X178504500Y-67343063D01*
X178504500Y-67923541D01*
X178504500Y-67923543D01*
X178504499Y-67923543D01*
X178542947Y-68116829D01*
X178542950Y-68116839D01*
X178618364Y-68298907D01*
X178618371Y-68298920D01*
X178727860Y-68462781D01*
X178727863Y-68462785D01*
X178867214Y-68602136D01*
X178867218Y-68602139D01*
X179031079Y-68711628D01*
X179031092Y-68711635D01*
X179163545Y-68766498D01*
X179213165Y-68787051D01*
X179213169Y-68787051D01*
X179213170Y-68787052D01*
X179406456Y-68825500D01*
X179406459Y-68825500D01*
X179603543Y-68825500D01*
X179733582Y-68799632D01*
X179796835Y-68787051D01*
X179978914Y-68711632D01*
X180142782Y-68602139D01*
X180282139Y-68462782D01*
X180391632Y-68298914D01*
X180467051Y-68116835D01*
X180488246Y-68010284D01*
X180505500Y-67923543D01*
X187144499Y-67923543D01*
X187182947Y-68116829D01*
X187182950Y-68116839D01*
X187258364Y-68298907D01*
X187258371Y-68298920D01*
X187367860Y-68462781D01*
X187367863Y-68462785D01*
X187507214Y-68602136D01*
X187507218Y-68602139D01*
X187671079Y-68711628D01*
X187671092Y-68711635D01*
X187803545Y-68766498D01*
X187853165Y-68787051D01*
X187853169Y-68787051D01*
X187853170Y-68787052D01*
X188046456Y-68825500D01*
X188046459Y-68825500D01*
X188243543Y-68825500D01*
X188373582Y-68799632D01*
X188436835Y-68787051D01*
X188618914Y-68711632D01*
X188782782Y-68602139D01*
X188922139Y-68462782D01*
X189031632Y-68298914D01*
X189107051Y-68116835D01*
X189128246Y-68010284D01*
X189145500Y-67923543D01*
X189145500Y-66926456D01*
X189107052Y-66733170D01*
X189107051Y-66733169D01*
X189107051Y-66733165D01*
X189093107Y-66699500D01*
X189031635Y-66551092D01*
X189031628Y-66551079D01*
X188922139Y-66387218D01*
X188922136Y-66387214D01*
X188782785Y-66247863D01*
X188782781Y-66247860D01*
X188618920Y-66138371D01*
X188618907Y-66138364D01*
X188436839Y-66062950D01*
X188436829Y-66062947D01*
X188243543Y-66024500D01*
X188243541Y-66024500D01*
X188046459Y-66024500D01*
X188046457Y-66024500D01*
X187853170Y-66062947D01*
X187853160Y-66062950D01*
X187671092Y-66138364D01*
X187671079Y-66138371D01*
X187507218Y-66247860D01*
X187507214Y-66247863D01*
X187367863Y-66387214D01*
X187367860Y-66387218D01*
X187258371Y-66551079D01*
X187258364Y-66551092D01*
X187182950Y-66733160D01*
X187182947Y-66733170D01*
X187144500Y-66926456D01*
X187144500Y-66926459D01*
X187144500Y-67923541D01*
X187144500Y-67923543D01*
X187144499Y-67923543D01*
X180505500Y-67923543D01*
X180505500Y-66926456D01*
X180467052Y-66733170D01*
X180467051Y-66733169D01*
X180467051Y-66733165D01*
X180453107Y-66699500D01*
X180391635Y-66551092D01*
X180391628Y-66551079D01*
X180282139Y-66387218D01*
X180282136Y-66387214D01*
X180142785Y-66247863D01*
X180142781Y-66247860D01*
X179978920Y-66138371D01*
X179978907Y-66138364D01*
X179796839Y-66062950D01*
X179796829Y-66062947D01*
X179603543Y-66024500D01*
X179603541Y-66024500D01*
X179406459Y-66024500D01*
X179406457Y-66024500D01*
X179213170Y-66062947D01*
X179213160Y-66062950D01*
X179031092Y-66138364D01*
X179031079Y-66138371D01*
X178910451Y-66218973D01*
X178843773Y-66239851D01*
X178776393Y-66221366D01*
X178729703Y-66169387D01*
X178726999Y-66163323D01*
X178709396Y-66120826D01*
X178709390Y-66120814D01*
X178621789Y-65989711D01*
X178621786Y-65989707D01*
X178510292Y-65878213D01*
X178510288Y-65878210D01*
X178379185Y-65790609D01*
X178379172Y-65790602D01*
X178254738Y-65739061D01*
X178200334Y-65695221D01*
X178178269Y-65628926D01*
X178195548Y-65561227D01*
X178246685Y-65513616D01*
X178302190Y-65500500D01*
X190197810Y-65500500D01*
X190264849Y-65520185D01*
X190310604Y-65572989D01*
X190320548Y-65642147D01*
X190291523Y-65705703D01*
X190245262Y-65739061D01*
X190120827Y-65790602D01*
X190120814Y-65790609D01*
X189989711Y-65878210D01*
X189989707Y-65878213D01*
X189878213Y-65989707D01*
X189878210Y-65989711D01*
X189790609Y-66120814D01*
X189790602Y-66120827D01*
X189730264Y-66266498D01*
X189730261Y-66266510D01*
X189699500Y-66421153D01*
X189699500Y-66578846D01*
X189730261Y-66733489D01*
X189730264Y-66733501D01*
X189790602Y-66879172D01*
X189790609Y-66879185D01*
X189878210Y-67010288D01*
X189878213Y-67010292D01*
X189989707Y-67121786D01*
X189989711Y-67121789D01*
X190120814Y-67209390D01*
X190120827Y-67209397D01*
X190224425Y-67252308D01*
X190266503Y-67269737D01*
X190421153Y-67300499D01*
X190421156Y-67300500D01*
X190421158Y-67300500D01*
X190578844Y-67300500D01*
X190578845Y-67300499D01*
X190733497Y-67269737D01*
X190879179Y-67209394D01*
X191010289Y-67121789D01*
X191011186Y-67120891D01*
X191011773Y-67120571D01*
X191014999Y-67117924D01*
X191015500Y-67118535D01*
X191072504Y-67087402D01*
X191142196Y-67092380D01*
X191198134Y-67134246D01*
X191220491Y-67184374D01*
X191230261Y-67233491D01*
X191230264Y-67233501D01*
X191290602Y-67379172D01*
X191290609Y-67379185D01*
X191378210Y-67510288D01*
X191378213Y-67510292D01*
X191489707Y-67621786D01*
X191489711Y-67621789D01*
X191620814Y-67709390D01*
X191620827Y-67709397D01*
X191766498Y-67769735D01*
X191766503Y-67769737D01*
X191921153Y-67800499D01*
X191921156Y-67800500D01*
X191921158Y-67800500D01*
X192078844Y-67800500D01*
X192078845Y-67800499D01*
X192233497Y-67769737D01*
X192379179Y-67709394D01*
X192510289Y-67621789D01*
X192621789Y-67510289D01*
X192709394Y-67379179D01*
X192769737Y-67233497D01*
X192800500Y-67078842D01*
X192800500Y-66921158D01*
X192800500Y-66921155D01*
X192800499Y-66921153D01*
X193199500Y-66921153D01*
X193199500Y-67078846D01*
X193230261Y-67233489D01*
X193230264Y-67233501D01*
X193290602Y-67379172D01*
X193290609Y-67379185D01*
X193378210Y-67510288D01*
X193378213Y-67510292D01*
X193489707Y-67621786D01*
X193489711Y-67621789D01*
X193620814Y-67709390D01*
X193620827Y-67709397D01*
X193766498Y-67769735D01*
X193766503Y-67769737D01*
X193921153Y-67800499D01*
X193921156Y-67800500D01*
X193921158Y-67800500D01*
X194078844Y-67800500D01*
X194078845Y-67800499D01*
X194233497Y-67769737D01*
X194379179Y-67709394D01*
X194510289Y-67621789D01*
X194621789Y-67510289D01*
X194681348Y-67421153D01*
X196199500Y-67421153D01*
X196199500Y-67578846D01*
X196230261Y-67733489D01*
X196230264Y-67733501D01*
X196290602Y-67879172D01*
X196290609Y-67879185D01*
X196378210Y-68010288D01*
X196378213Y-68010292D01*
X196489707Y-68121786D01*
X196489711Y-68121789D01*
X196620814Y-68209390D01*
X196620827Y-68209397D01*
X196718853Y-68250000D01*
X196766503Y-68269737D01*
X196921153Y-68300499D01*
X196921156Y-68300500D01*
X196921158Y-68300500D01*
X197078844Y-68300500D01*
X197078845Y-68300499D01*
X197233497Y-68269737D01*
X197379179Y-68209394D01*
X197510289Y-68121789D01*
X197621789Y-68010289D01*
X197635309Y-67990055D01*
X197646898Y-67972712D01*
X197700510Y-67927906D01*
X197769835Y-67919199D01*
X197832862Y-67949353D01*
X197853102Y-67972712D01*
X197878207Y-68010284D01*
X197878213Y-68010292D01*
X197989707Y-68121786D01*
X197989711Y-68121789D01*
X198120814Y-68209390D01*
X198120827Y-68209397D01*
X198218853Y-68250000D01*
X198266503Y-68269737D01*
X198421153Y-68300499D01*
X198421156Y-68300500D01*
X198421158Y-68300500D01*
X198578844Y-68300500D01*
X198578845Y-68300499D01*
X198733497Y-68269737D01*
X198879179Y-68209394D01*
X199010289Y-68121789D01*
X199121789Y-68010289D01*
X199135309Y-67990055D01*
X199146898Y-67972712D01*
X199200510Y-67927906D01*
X199269835Y-67919199D01*
X199332862Y-67949353D01*
X199353102Y-67972712D01*
X199378207Y-68010284D01*
X199378213Y-68010292D01*
X199489707Y-68121786D01*
X199489711Y-68121789D01*
X199620814Y-68209390D01*
X199620827Y-68209397D01*
X199718853Y-68250000D01*
X199766503Y-68269737D01*
X199921153Y-68300499D01*
X199921156Y-68300500D01*
X199921158Y-68300500D01*
X200078844Y-68300500D01*
X200078845Y-68300499D01*
X200233497Y-68269737D01*
X200379179Y-68209394D01*
X200431110Y-68174694D01*
X200497785Y-68153816D01*
X200565165Y-68172300D01*
X200568863Y-68174676D01*
X200620821Y-68209394D01*
X200620823Y-68209395D01*
X200620825Y-68209396D01*
X200718853Y-68250000D01*
X200766503Y-68269737D01*
X200921153Y-68300499D01*
X200921156Y-68300500D01*
X200921158Y-68300500D01*
X201078844Y-68300500D01*
X201078845Y-68300499D01*
X201233497Y-68269737D01*
X201379179Y-68209394D01*
X201510289Y-68121789D01*
X201621789Y-68010289D01*
X201635309Y-67990055D01*
X201646898Y-67972712D01*
X201700510Y-67927906D01*
X201769835Y-67919199D01*
X201832862Y-67949353D01*
X201853102Y-67972712D01*
X201878207Y-68010284D01*
X201878213Y-68010292D01*
X201989707Y-68121786D01*
X201989711Y-68121789D01*
X202120814Y-68209390D01*
X202120827Y-68209397D01*
X202218853Y-68250000D01*
X202266503Y-68269737D01*
X202421153Y-68300499D01*
X202421156Y-68300500D01*
X202421158Y-68300500D01*
X202578844Y-68300500D01*
X202578845Y-68300499D01*
X202733497Y-68269737D01*
X202879179Y-68209394D01*
X203010289Y-68121789D01*
X203121789Y-68010289D01*
X203135309Y-67990055D01*
X203146898Y-67972712D01*
X203200510Y-67927906D01*
X203269835Y-67919199D01*
X203332862Y-67949353D01*
X203353102Y-67972712D01*
X203378207Y-68010284D01*
X203378213Y-68010292D01*
X203489707Y-68121786D01*
X203489711Y-68121789D01*
X203620814Y-68209390D01*
X203620827Y-68209397D01*
X203718853Y-68250000D01*
X203766503Y-68269737D01*
X203921153Y-68300499D01*
X203921156Y-68300500D01*
X203921158Y-68300500D01*
X204078844Y-68300500D01*
X204078845Y-68300499D01*
X204233497Y-68269737D01*
X204379179Y-68209394D01*
X204510289Y-68121789D01*
X204621789Y-68010289D01*
X204635309Y-67990055D01*
X204646898Y-67972712D01*
X204700510Y-67927906D01*
X204769835Y-67919199D01*
X204832862Y-67949353D01*
X204853102Y-67972712D01*
X204878207Y-68010284D01*
X204878213Y-68010292D01*
X204989707Y-68121786D01*
X204989711Y-68121789D01*
X205120814Y-68209390D01*
X205120827Y-68209397D01*
X205218853Y-68250000D01*
X205266503Y-68269737D01*
X205421153Y-68300499D01*
X205421156Y-68300500D01*
X205421158Y-68300500D01*
X205578844Y-68300500D01*
X205578845Y-68300499D01*
X205733497Y-68269737D01*
X205879179Y-68209394D01*
X206010289Y-68121789D01*
X206121789Y-68010289D01*
X206209394Y-67879179D01*
X206269737Y-67733497D01*
X206300500Y-67578842D01*
X206300500Y-67421158D01*
X206300500Y-67421155D01*
X206300499Y-67421153D01*
X206699500Y-67421153D01*
X206699500Y-67578846D01*
X206730261Y-67733489D01*
X206730264Y-67733501D01*
X206790602Y-67879172D01*
X206790609Y-67879185D01*
X206878210Y-68010288D01*
X206878213Y-68010292D01*
X206989707Y-68121786D01*
X206989711Y-68121789D01*
X207120814Y-68209390D01*
X207120827Y-68209397D01*
X207218853Y-68250000D01*
X207266503Y-68269737D01*
X207421153Y-68300499D01*
X207421156Y-68300500D01*
X207421158Y-68300500D01*
X207578844Y-68300500D01*
X207578845Y-68300499D01*
X207733497Y-68269737D01*
X207879179Y-68209394D01*
X208010289Y-68121789D01*
X208121789Y-68010289D01*
X208209394Y-67879179D01*
X208269737Y-67733497D01*
X208300500Y-67578842D01*
X208300500Y-67421158D01*
X208300500Y-67421155D01*
X208300499Y-67421153D01*
X208276499Y-67300499D01*
X208269737Y-67266503D01*
X208235719Y-67184376D01*
X208209397Y-67120827D01*
X208209390Y-67120814D01*
X208121789Y-66989711D01*
X208121786Y-66989707D01*
X208010292Y-66878213D01*
X208010288Y-66878210D01*
X207879185Y-66790609D01*
X207879172Y-66790602D01*
X207733501Y-66730264D01*
X207733489Y-66730261D01*
X207578845Y-66699500D01*
X207578842Y-66699500D01*
X207421158Y-66699500D01*
X207421155Y-66699500D01*
X207266510Y-66730261D01*
X207266498Y-66730264D01*
X207120827Y-66790602D01*
X207120814Y-66790609D01*
X206989711Y-66878210D01*
X206989707Y-66878213D01*
X206878213Y-66989707D01*
X206878210Y-66989711D01*
X206790609Y-67120814D01*
X206790602Y-67120827D01*
X206730264Y-67266498D01*
X206730261Y-67266510D01*
X206699500Y-67421153D01*
X206300499Y-67421153D01*
X206276499Y-67300499D01*
X206269737Y-67266503D01*
X206235719Y-67184376D01*
X206209397Y-67120827D01*
X206209390Y-67120814D01*
X206121789Y-66989711D01*
X206121786Y-66989707D01*
X206010292Y-66878213D01*
X206010288Y-66878210D01*
X205879185Y-66790609D01*
X205879172Y-66790602D01*
X205733501Y-66730264D01*
X205733489Y-66730261D01*
X205578845Y-66699500D01*
X205578842Y-66699500D01*
X205421158Y-66699500D01*
X205421155Y-66699500D01*
X205266510Y-66730261D01*
X205266498Y-66730264D01*
X205120827Y-66790602D01*
X205120814Y-66790609D01*
X204989711Y-66878210D01*
X204989707Y-66878213D01*
X204878213Y-66989707D01*
X204853102Y-67027289D01*
X204799489Y-67072093D01*
X204730164Y-67080800D01*
X204667137Y-67050645D01*
X204646898Y-67027289D01*
X204621786Y-66989707D01*
X204510292Y-66878213D01*
X204510288Y-66878210D01*
X204379185Y-66790609D01*
X204379172Y-66790602D01*
X204233501Y-66730264D01*
X204233489Y-66730261D01*
X204078845Y-66699500D01*
X204078842Y-66699500D01*
X203921158Y-66699500D01*
X203921155Y-66699500D01*
X203766510Y-66730261D01*
X203766498Y-66730264D01*
X203620827Y-66790602D01*
X203620814Y-66790609D01*
X203489711Y-66878210D01*
X203489707Y-66878213D01*
X203378213Y-66989707D01*
X203353102Y-67027289D01*
X203299489Y-67072093D01*
X203230164Y-67080800D01*
X203167137Y-67050645D01*
X203146898Y-67027289D01*
X203121786Y-66989707D01*
X203010292Y-66878213D01*
X203010288Y-66878210D01*
X202879185Y-66790609D01*
X202879172Y-66790602D01*
X202733501Y-66730264D01*
X202733489Y-66730261D01*
X202578845Y-66699500D01*
X202578842Y-66699500D01*
X202421158Y-66699500D01*
X202421155Y-66699500D01*
X202266510Y-66730261D01*
X202266498Y-66730264D01*
X202120827Y-66790602D01*
X202120814Y-66790609D01*
X201989711Y-66878210D01*
X201989707Y-66878213D01*
X201878213Y-66989707D01*
X201853102Y-67027289D01*
X201799489Y-67072093D01*
X201730164Y-67080800D01*
X201667137Y-67050645D01*
X201646898Y-67027289D01*
X201621786Y-66989707D01*
X201510292Y-66878213D01*
X201510288Y-66878210D01*
X201379185Y-66790609D01*
X201379172Y-66790602D01*
X201233501Y-66730264D01*
X201233489Y-66730261D01*
X201078845Y-66699500D01*
X201078842Y-66699500D01*
X200921158Y-66699500D01*
X200921155Y-66699500D01*
X200766510Y-66730261D01*
X200766498Y-66730264D01*
X200620827Y-66790602D01*
X200620814Y-66790609D01*
X200568891Y-66825304D01*
X200502214Y-66846182D01*
X200434833Y-66827698D01*
X200431109Y-66825304D01*
X200379185Y-66790609D01*
X200379172Y-66790602D01*
X200233501Y-66730264D01*
X200233489Y-66730261D01*
X200078845Y-66699500D01*
X200078842Y-66699500D01*
X199921158Y-66699500D01*
X199921155Y-66699500D01*
X199766510Y-66730261D01*
X199766498Y-66730264D01*
X199620827Y-66790602D01*
X199620814Y-66790609D01*
X199489711Y-66878210D01*
X199489707Y-66878213D01*
X199378213Y-66989707D01*
X199353102Y-67027289D01*
X199299489Y-67072093D01*
X199230164Y-67080800D01*
X199167137Y-67050645D01*
X199146898Y-67027289D01*
X199121786Y-66989707D01*
X199010292Y-66878213D01*
X199010288Y-66878210D01*
X198879185Y-66790609D01*
X198879172Y-66790602D01*
X198733501Y-66730264D01*
X198733489Y-66730261D01*
X198578845Y-66699500D01*
X198578842Y-66699500D01*
X198421158Y-66699500D01*
X198421155Y-66699500D01*
X198266510Y-66730261D01*
X198266498Y-66730264D01*
X198120827Y-66790602D01*
X198120814Y-66790609D01*
X197989711Y-66878210D01*
X197989707Y-66878213D01*
X197878213Y-66989707D01*
X197853102Y-67027289D01*
X197799489Y-67072093D01*
X197730164Y-67080800D01*
X197667137Y-67050645D01*
X197646898Y-67027289D01*
X197621786Y-66989707D01*
X197510292Y-66878213D01*
X197510288Y-66878210D01*
X197379185Y-66790609D01*
X197379172Y-66790602D01*
X197233501Y-66730264D01*
X197233489Y-66730261D01*
X197078845Y-66699500D01*
X197078842Y-66699500D01*
X196921158Y-66699500D01*
X196921155Y-66699500D01*
X196766510Y-66730261D01*
X196766498Y-66730264D01*
X196620827Y-66790602D01*
X196620814Y-66790609D01*
X196489711Y-66878210D01*
X196489707Y-66878213D01*
X196378213Y-66989707D01*
X196378210Y-66989711D01*
X196290609Y-67120814D01*
X196290602Y-67120827D01*
X196230264Y-67266498D01*
X196230261Y-67266510D01*
X196199500Y-67421153D01*
X194681348Y-67421153D01*
X194709394Y-67379179D01*
X194769737Y-67233497D01*
X194800500Y-67078842D01*
X194800500Y-66921158D01*
X194800500Y-66921155D01*
X194800499Y-66921153D01*
X194785586Y-66846182D01*
X194769737Y-66766503D01*
X194755926Y-66733160D01*
X194709397Y-66620827D01*
X194709390Y-66620814D01*
X194621789Y-66489711D01*
X194621786Y-66489707D01*
X194510292Y-66378213D01*
X194510288Y-66378210D01*
X194379185Y-66290609D01*
X194379172Y-66290602D01*
X194233501Y-66230264D01*
X194233489Y-66230261D01*
X194078845Y-66199500D01*
X194078842Y-66199500D01*
X193921158Y-66199500D01*
X193921155Y-66199500D01*
X193766510Y-66230261D01*
X193766498Y-66230264D01*
X193620827Y-66290602D01*
X193620814Y-66290609D01*
X193489711Y-66378210D01*
X193489707Y-66378213D01*
X193378213Y-66489707D01*
X193378210Y-66489711D01*
X193290609Y-66620814D01*
X193290602Y-66620827D01*
X193230264Y-66766498D01*
X193230261Y-66766510D01*
X193199500Y-66921153D01*
X192800499Y-66921153D01*
X192785586Y-66846182D01*
X192769737Y-66766503D01*
X192755926Y-66733160D01*
X192709397Y-66620827D01*
X192709390Y-66620814D01*
X192621789Y-66489711D01*
X192621786Y-66489707D01*
X192510292Y-66378213D01*
X192510288Y-66378210D01*
X192379185Y-66290609D01*
X192379172Y-66290602D01*
X192233501Y-66230264D01*
X192233489Y-66230261D01*
X192078845Y-66199500D01*
X192078842Y-66199500D01*
X191921158Y-66199500D01*
X191921155Y-66199500D01*
X191766510Y-66230261D01*
X191766498Y-66230264D01*
X191620827Y-66290602D01*
X191620814Y-66290609D01*
X191489711Y-66378210D01*
X191489708Y-66378212D01*
X191488798Y-66379123D01*
X191488204Y-66379446D01*
X191485001Y-66382076D01*
X191484502Y-66381468D01*
X191427471Y-66412602D01*
X191357780Y-66407611D01*
X191301851Y-66365734D01*
X191279508Y-66315624D01*
X191269738Y-66266509D01*
X191269737Y-66266503D01*
X191262015Y-66247860D01*
X191209397Y-66120827D01*
X191209390Y-66120814D01*
X191121789Y-65989711D01*
X191121786Y-65989707D01*
X191010292Y-65878213D01*
X191010288Y-65878210D01*
X190879185Y-65790609D01*
X190879172Y-65790602D01*
X190754738Y-65739061D01*
X190700334Y-65695221D01*
X190678269Y-65628926D01*
X190695548Y-65561227D01*
X190746685Y-65513616D01*
X190802190Y-65500500D01*
X205934108Y-65500500D01*
X205996949Y-65500500D01*
X206003032Y-65500648D01*
X206336929Y-65517052D01*
X206349037Y-65518245D01*
X206362116Y-65520185D01*
X206676699Y-65566849D01*
X206688617Y-65569219D01*
X207009951Y-65649709D01*
X207021588Y-65653240D01*
X207092806Y-65678722D01*
X207333467Y-65764832D01*
X207344688Y-65769479D01*
X207644163Y-65911120D01*
X207654871Y-65916844D01*
X207928415Y-66080800D01*
X207938988Y-66087137D01*
X207949103Y-66093895D01*
X208169913Y-66257659D01*
X208215170Y-66291224D01*
X208224576Y-66298944D01*
X208470013Y-66521395D01*
X208478604Y-66529986D01*
X208660125Y-66730264D01*
X208701055Y-66775423D01*
X208708775Y-66784829D01*
X208906102Y-67050893D01*
X208912862Y-67061011D01*
X208923551Y-67078844D01*
X209056405Y-67300499D01*
X209083148Y-67345116D01*
X209088883Y-67355844D01*
X209161931Y-67510292D01*
X209230514Y-67655297D01*
X209235170Y-67666540D01*
X209346759Y-67978411D01*
X209350292Y-67990055D01*
X209430777Y-68311369D01*
X209433151Y-68323305D01*
X209481754Y-68650962D01*
X209482947Y-68663071D01*
X209499351Y-68996966D01*
X209499500Y-69003051D01*
X209499500Y-104496948D01*
X209499351Y-104503033D01*
X209482947Y-104836928D01*
X209481754Y-104849037D01*
X209433151Y-105176694D01*
X209430777Y-105188630D01*
X209350292Y-105509944D01*
X209346759Y-105521588D01*
X209235170Y-105833459D01*
X209230514Y-105844702D01*
X209088885Y-106144151D01*
X209083148Y-106154883D01*
X208912862Y-106438988D01*
X208906102Y-106449106D01*
X208708775Y-106715170D01*
X208701055Y-106724576D01*
X208478611Y-106970006D01*
X208470006Y-106978611D01*
X208224576Y-107201055D01*
X208215170Y-107208775D01*
X207949106Y-107406102D01*
X207938988Y-107412862D01*
X207654883Y-107583148D01*
X207644151Y-107588885D01*
X207344702Y-107730514D01*
X207333459Y-107735170D01*
X207021588Y-107846759D01*
X207009944Y-107850292D01*
X206688630Y-107930777D01*
X206676694Y-107933151D01*
X206349037Y-107981754D01*
X206336928Y-107982947D01*
X206021989Y-107998419D01*
X206003031Y-107999351D01*
X205996949Y-107999500D01*
X201802190Y-107999500D01*
X201735151Y-107979815D01*
X201689396Y-107927011D01*
X201679452Y-107857853D01*
X201708477Y-107794297D01*
X201754738Y-107760939D01*
X201879172Y-107709397D01*
X201879172Y-107709396D01*
X201879179Y-107709394D01*
X202010289Y-107621789D01*
X202121789Y-107510289D01*
X202209394Y-107379179D01*
X202269737Y-107233497D01*
X202300500Y-107078842D01*
X202300500Y-106921158D01*
X202300500Y-106921155D01*
X202300499Y-106921153D01*
X202292148Y-106879172D01*
X202269737Y-106766503D01*
X202256062Y-106733489D01*
X202209397Y-106620827D01*
X202209390Y-106620814D01*
X202121789Y-106489711D01*
X202121786Y-106489707D01*
X202084746Y-106452667D01*
X202051261Y-106391344D01*
X202056245Y-106321652D01*
X202098117Y-106265719D01*
X202163581Y-106241302D01*
X202219878Y-106250424D01*
X202266503Y-106269737D01*
X202421153Y-106300499D01*
X202421156Y-106300500D01*
X202421158Y-106300500D01*
X202578844Y-106300500D01*
X202578845Y-106300499D01*
X202733497Y-106269737D01*
X202879179Y-106209394D01*
X203010289Y-106121789D01*
X203121789Y-106010289D01*
X203209394Y-105879179D01*
X203269737Y-105733497D01*
X203300500Y-105578842D01*
X203300500Y-105421158D01*
X203300500Y-105421155D01*
X203300499Y-105421153D01*
X203699500Y-105421153D01*
X203699500Y-105578846D01*
X203730261Y-105733489D01*
X203730264Y-105733501D01*
X203790602Y-105879172D01*
X203790609Y-105879185D01*
X203878210Y-106010288D01*
X203878213Y-106010292D01*
X203989707Y-106121786D01*
X203989711Y-106121789D01*
X204120814Y-106209390D01*
X204120827Y-106209397D01*
X204258683Y-106266498D01*
X204266503Y-106269737D01*
X204421153Y-106300499D01*
X204421156Y-106300500D01*
X204421158Y-106300500D01*
X204578844Y-106300500D01*
X204578845Y-106300499D01*
X204733497Y-106269737D01*
X204879179Y-106209394D01*
X205010289Y-106121789D01*
X205047331Y-106084747D01*
X205108653Y-106051261D01*
X205178345Y-106056245D01*
X205234279Y-106098115D01*
X205258697Y-106163579D01*
X205249575Y-106219878D01*
X205230263Y-106266502D01*
X205230261Y-106266510D01*
X205199500Y-106421153D01*
X205199500Y-106578846D01*
X205230261Y-106733489D01*
X205230264Y-106733501D01*
X205290602Y-106879172D01*
X205290609Y-106879185D01*
X205378210Y-107010288D01*
X205378213Y-107010292D01*
X205489707Y-107121786D01*
X205489711Y-107121789D01*
X205620814Y-107209390D01*
X205620827Y-107209397D01*
X205756450Y-107265573D01*
X205766503Y-107269737D01*
X205921153Y-107300499D01*
X205921156Y-107300500D01*
X205921158Y-107300500D01*
X206078844Y-107300500D01*
X206078845Y-107300499D01*
X206233497Y-107269737D01*
X206379179Y-107209394D01*
X206510289Y-107121789D01*
X206621789Y-107010289D01*
X206709394Y-106879179D01*
X206769737Y-106733497D01*
X206800500Y-106578842D01*
X206800500Y-106421158D01*
X206800500Y-106421155D01*
X206800499Y-106421153D01*
X206782937Y-106332863D01*
X206769737Y-106266503D01*
X206762901Y-106250000D01*
X206709397Y-106120827D01*
X206709390Y-106120814D01*
X206621789Y-105989711D01*
X206621786Y-105989707D01*
X206510292Y-105878213D01*
X206510284Y-105878207D01*
X206472712Y-105853102D01*
X206427906Y-105799490D01*
X206419199Y-105730165D01*
X206449353Y-105667138D01*
X206472712Y-105646898D01*
X206499279Y-105629145D01*
X206510289Y-105621789D01*
X206621789Y-105510289D01*
X206709394Y-105379179D01*
X206769737Y-105233497D01*
X206800500Y-105078842D01*
X206800500Y-104921158D01*
X206800500Y-104921155D01*
X206800499Y-104921153D01*
X206774531Y-104790606D01*
X206769737Y-104766503D01*
X206756062Y-104733489D01*
X206709397Y-104620827D01*
X206709390Y-104620814D01*
X206621789Y-104489711D01*
X206621786Y-104489707D01*
X206620885Y-104488806D01*
X206620563Y-104488217D01*
X206617924Y-104485001D01*
X206618533Y-104484500D01*
X206587400Y-104427483D01*
X206592384Y-104357791D01*
X206634256Y-104301858D01*
X206684372Y-104279508D01*
X206733497Y-104269737D01*
X206879179Y-104209394D01*
X207010289Y-104121789D01*
X207121789Y-104010289D01*
X207209394Y-103879179D01*
X207269737Y-103733497D01*
X207300500Y-103578842D01*
X207300500Y-103421158D01*
X207300500Y-103421155D01*
X207300499Y-103421153D01*
X207292148Y-103379172D01*
X207269737Y-103266503D01*
X207239065Y-103192454D01*
X207209396Y-103120825D01*
X207209394Y-103120822D01*
X207209394Y-103120821D01*
X207174694Y-103068889D01*
X207153816Y-103002215D01*
X207172300Y-102934835D01*
X207174676Y-102931136D01*
X207209394Y-102879179D01*
X207269737Y-102733497D01*
X207300500Y-102578842D01*
X207300500Y-102421158D01*
X207300500Y-102421155D01*
X207300499Y-102421153D01*
X207274531Y-102290606D01*
X207269737Y-102266503D01*
X207256062Y-102233489D01*
X207209397Y-102120827D01*
X207209390Y-102120814D01*
X207121789Y-101989711D01*
X207121786Y-101989707D01*
X207010292Y-101878213D01*
X207010288Y-101878210D01*
X206879185Y-101790609D01*
X206879172Y-101790602D01*
X206733501Y-101730264D01*
X206733491Y-101730261D01*
X206684374Y-101720491D01*
X206622463Y-101688106D01*
X206587889Y-101627389D01*
X206591630Y-101557620D01*
X206618296Y-101515304D01*
X206617924Y-101514999D01*
X206620357Y-101512033D01*
X206620891Y-101511186D01*
X206621789Y-101510289D01*
X206709394Y-101379179D01*
X206769737Y-101233497D01*
X206800500Y-101078842D01*
X206800500Y-100921158D01*
X206800500Y-100921155D01*
X206787426Y-100855431D01*
X206793653Y-100785840D01*
X206836515Y-100730662D01*
X206861589Y-100716679D01*
X206879179Y-100709394D01*
X207010289Y-100621789D01*
X207121789Y-100510289D01*
X207209394Y-100379179D01*
X207269737Y-100233497D01*
X207300500Y-100078842D01*
X207300500Y-99921158D01*
X207300500Y-99921155D01*
X207300499Y-99921153D01*
X207274531Y-99790606D01*
X207269737Y-99766503D01*
X207246080Y-99709390D01*
X207209397Y-99620827D01*
X207209390Y-99620814D01*
X207121789Y-99489711D01*
X207121786Y-99489707D01*
X207010292Y-99378213D01*
X207010284Y-99378207D01*
X206972712Y-99353102D01*
X206927906Y-99299490D01*
X206919199Y-99230165D01*
X206949353Y-99167138D01*
X206972712Y-99146898D01*
X206999279Y-99129145D01*
X207010289Y-99121789D01*
X207121789Y-99010289D01*
X207209394Y-98879179D01*
X207269737Y-98733497D01*
X207300500Y-98578842D01*
X207300500Y-98421158D01*
X207300500Y-98421155D01*
X207300499Y-98421153D01*
X207287426Y-98355431D01*
X207269737Y-98266503D01*
X207256062Y-98233489D01*
X207209397Y-98120827D01*
X207209390Y-98120814D01*
X207121789Y-97989711D01*
X207121786Y-97989707D01*
X207010292Y-97878213D01*
X207010288Y-97878210D01*
X206879185Y-97790609D01*
X206879179Y-97790606D01*
X206861589Y-97783320D01*
X206807186Y-97739478D01*
X206785122Y-97673184D01*
X206787425Y-97644571D01*
X206800500Y-97578842D01*
X206800500Y-97421158D01*
X206800500Y-97421155D01*
X206800499Y-97421153D01*
X206774531Y-97290606D01*
X206769737Y-97266503D01*
X206748056Y-97214159D01*
X206709397Y-97120827D01*
X206709390Y-97120814D01*
X206621789Y-96989711D01*
X206621786Y-96989707D01*
X206510292Y-96878213D01*
X206510284Y-96878207D01*
X206472712Y-96853102D01*
X206427906Y-96799490D01*
X206419199Y-96730165D01*
X206449353Y-96667138D01*
X206472712Y-96646898D01*
X206499279Y-96629145D01*
X206510289Y-96621789D01*
X206621789Y-96510289D01*
X206709394Y-96379179D01*
X206769737Y-96233497D01*
X206800500Y-96078842D01*
X206800500Y-95921158D01*
X206800500Y-95921155D01*
X206800499Y-95921153D01*
X206769738Y-95766510D01*
X206769737Y-95766503D01*
X206709794Y-95621786D01*
X206709397Y-95620827D01*
X206709390Y-95620814D01*
X206621789Y-95489711D01*
X206621786Y-95489707D01*
X206620885Y-95488806D01*
X206620563Y-95488217D01*
X206617924Y-95485001D01*
X206618533Y-95484500D01*
X206587400Y-95427483D01*
X206592384Y-95357791D01*
X206634256Y-95301858D01*
X206684372Y-95279508D01*
X206733497Y-95269737D01*
X206879179Y-95209394D01*
X207010289Y-95121789D01*
X207121789Y-95010289D01*
X207209394Y-94879179D01*
X207269737Y-94733497D01*
X207300500Y-94578842D01*
X207300500Y-94421158D01*
X207300500Y-94421155D01*
X207300499Y-94421153D01*
X207274531Y-94290606D01*
X207269737Y-94266503D01*
X207256062Y-94233489D01*
X207209396Y-94120825D01*
X207209394Y-94120822D01*
X207209394Y-94120821D01*
X207174694Y-94068889D01*
X207153816Y-94002215D01*
X207172300Y-93934835D01*
X207174676Y-93931136D01*
X207209394Y-93879179D01*
X207269737Y-93733497D01*
X207300500Y-93578842D01*
X207300500Y-93421158D01*
X207300500Y-93421155D01*
X207300499Y-93421153D01*
X207292150Y-93379179D01*
X207269737Y-93266503D01*
X207209794Y-93121786D01*
X207209397Y-93120827D01*
X207209390Y-93120814D01*
X207121789Y-92989711D01*
X207121786Y-92989707D01*
X207010292Y-92878213D01*
X207010288Y-92878210D01*
X206879185Y-92790609D01*
X206879172Y-92790602D01*
X206733501Y-92730264D01*
X206733491Y-92730261D01*
X206684374Y-92720491D01*
X206622463Y-92688106D01*
X206587889Y-92627389D01*
X206591630Y-92557620D01*
X206618296Y-92515304D01*
X206617924Y-92514999D01*
X206620357Y-92512033D01*
X206620891Y-92511186D01*
X206621789Y-92510289D01*
X206709394Y-92379179D01*
X206769737Y-92233497D01*
X206800500Y-92078842D01*
X206800500Y-91921158D01*
X206800500Y-91921155D01*
X206787426Y-91855431D01*
X206793653Y-91785840D01*
X206836515Y-91730662D01*
X206861589Y-91716679D01*
X206879179Y-91709394D01*
X207010289Y-91621789D01*
X207121789Y-91510289D01*
X207209394Y-91379179D01*
X207269737Y-91233497D01*
X207300500Y-91078842D01*
X207300500Y-90921158D01*
X207300500Y-90921155D01*
X207300499Y-90921153D01*
X207287895Y-90857791D01*
X207269737Y-90766503D01*
X207257011Y-90735779D01*
X207209397Y-90620827D01*
X207209390Y-90620814D01*
X207121789Y-90489711D01*
X207121786Y-90489707D01*
X207010292Y-90378213D01*
X207010284Y-90378207D01*
X206972712Y-90353102D01*
X206927906Y-90299490D01*
X206919199Y-90230165D01*
X206949353Y-90167138D01*
X206972712Y-90146898D01*
X206999279Y-90129145D01*
X207010289Y-90121789D01*
X207121789Y-90010289D01*
X207209394Y-89879179D01*
X207269737Y-89733497D01*
X207300500Y-89578842D01*
X207300500Y-89421158D01*
X207300500Y-89421155D01*
X207300499Y-89421153D01*
X207294474Y-89390865D01*
X207269737Y-89266503D01*
X207257189Y-89236210D01*
X207209397Y-89120827D01*
X207209390Y-89120814D01*
X207121789Y-88989711D01*
X207121786Y-88989707D01*
X207010292Y-88878213D01*
X207010288Y-88878210D01*
X206879185Y-88790609D01*
X206879172Y-88790602D01*
X206733501Y-88730264D01*
X206733491Y-88730261D01*
X206684374Y-88720491D01*
X206622463Y-88688106D01*
X206587889Y-88627389D01*
X206591630Y-88557620D01*
X206618296Y-88515304D01*
X206617924Y-88514999D01*
X206620357Y-88512033D01*
X206620891Y-88511186D01*
X206621789Y-88510289D01*
X206709394Y-88379179D01*
X206769737Y-88233497D01*
X206800500Y-88078842D01*
X206800500Y-87921158D01*
X206800500Y-87921155D01*
X206800499Y-87921153D01*
X206782419Y-87830261D01*
X206769737Y-87766503D01*
X206769735Y-87766498D01*
X206709397Y-87620827D01*
X206709390Y-87620814D01*
X206621789Y-87489711D01*
X206621786Y-87489707D01*
X206510292Y-87378213D01*
X206510284Y-87378207D01*
X206472712Y-87353102D01*
X206427906Y-87299490D01*
X206419199Y-87230165D01*
X206449353Y-87167138D01*
X206472712Y-87146898D01*
X206499279Y-87129145D01*
X206510289Y-87121789D01*
X206621789Y-87010289D01*
X206709394Y-86879179D01*
X206769737Y-86733497D01*
X206800500Y-86578842D01*
X206800500Y-86421158D01*
X206800500Y-86421155D01*
X206800499Y-86421153D01*
X206769737Y-86266503D01*
X206735793Y-86184554D01*
X206709397Y-86120827D01*
X206709390Y-86120814D01*
X206621789Y-85989711D01*
X206621786Y-85989707D01*
X206620885Y-85988806D01*
X206620563Y-85988217D01*
X206617924Y-85985001D01*
X206618533Y-85984500D01*
X206587400Y-85927483D01*
X206592384Y-85857791D01*
X206634256Y-85801858D01*
X206684372Y-85779508D01*
X206733497Y-85769737D01*
X206879179Y-85709394D01*
X207010289Y-85621789D01*
X207121789Y-85510289D01*
X207209394Y-85379179D01*
X207269737Y-85233497D01*
X207300500Y-85078842D01*
X207300500Y-84921158D01*
X207300500Y-84921155D01*
X207300499Y-84921153D01*
X207269738Y-84766510D01*
X207269738Y-84766508D01*
X207269737Y-84766503D01*
X207209794Y-84621786D01*
X207209396Y-84620825D01*
X207209394Y-84620822D01*
X207209394Y-84620821D01*
X207174694Y-84568889D01*
X207153816Y-84502215D01*
X207172300Y-84434835D01*
X207174676Y-84431136D01*
X207209394Y-84379179D01*
X207269737Y-84233497D01*
X207300500Y-84078842D01*
X207300500Y-83921158D01*
X207300500Y-83921155D01*
X207300499Y-83921153D01*
X207274531Y-83790606D01*
X207269737Y-83766503D01*
X207256062Y-83733489D01*
X207209397Y-83620827D01*
X207209390Y-83620814D01*
X207121789Y-83489711D01*
X207121786Y-83489707D01*
X207010292Y-83378213D01*
X207010288Y-83378210D01*
X206879185Y-83290609D01*
X206879172Y-83290602D01*
X206733501Y-83230264D01*
X206733491Y-83230261D01*
X206684374Y-83220491D01*
X206622463Y-83188106D01*
X206587889Y-83127389D01*
X206591630Y-83057620D01*
X206618296Y-83015304D01*
X206617924Y-83014999D01*
X206620357Y-83012033D01*
X206620891Y-83011186D01*
X206621789Y-83010289D01*
X206709394Y-82879179D01*
X206769737Y-82733497D01*
X206800500Y-82578842D01*
X206800500Y-82421158D01*
X206800500Y-82421155D01*
X206787426Y-82355431D01*
X206793653Y-82285840D01*
X206836515Y-82230662D01*
X206861589Y-82216679D01*
X206879179Y-82209394D01*
X207010289Y-82121789D01*
X207121789Y-82010289D01*
X207209394Y-81879179D01*
X207269737Y-81733497D01*
X207300500Y-81578842D01*
X207300500Y-81421158D01*
X207300500Y-81421155D01*
X207300499Y-81421153D01*
X207287319Y-81354892D01*
X207269737Y-81266503D01*
X207256062Y-81233489D01*
X207209397Y-81120827D01*
X207209390Y-81120814D01*
X207121789Y-80989711D01*
X207121786Y-80989707D01*
X207010292Y-80878213D01*
X207010284Y-80878207D01*
X206972712Y-80853102D01*
X206927906Y-80799490D01*
X206919199Y-80730165D01*
X206949353Y-80667138D01*
X206972712Y-80646898D01*
X206999279Y-80629145D01*
X207010289Y-80621789D01*
X207121789Y-80510289D01*
X207209394Y-80379179D01*
X207269737Y-80233497D01*
X207300500Y-80078842D01*
X207300500Y-79921158D01*
X207300500Y-79921155D01*
X207300499Y-79921153D01*
X207269738Y-79766510D01*
X207269737Y-79766503D01*
X207256062Y-79733489D01*
X207209397Y-79620827D01*
X207209390Y-79620814D01*
X207121789Y-79489711D01*
X207121786Y-79489707D01*
X207010292Y-79378213D01*
X207010288Y-79378210D01*
X206879185Y-79290609D01*
X206879172Y-79290602D01*
X206733501Y-79230264D01*
X206733491Y-79230261D01*
X206684374Y-79220491D01*
X206622463Y-79188106D01*
X206587889Y-79127389D01*
X206591630Y-79057620D01*
X206618296Y-79015304D01*
X206617924Y-79014999D01*
X206620357Y-79012033D01*
X206620891Y-79011186D01*
X206621789Y-79010289D01*
X206709394Y-78879179D01*
X206769737Y-78733497D01*
X206800500Y-78578842D01*
X206800500Y-78421158D01*
X206800500Y-78421155D01*
X206800499Y-78421153D01*
X206769738Y-78266510D01*
X206769737Y-78266503D01*
X206769735Y-78266498D01*
X206709397Y-78120827D01*
X206709390Y-78120814D01*
X206621789Y-77989711D01*
X206621786Y-77989707D01*
X206510292Y-77878213D01*
X206510284Y-77878207D01*
X206472712Y-77853102D01*
X206427906Y-77799490D01*
X206419199Y-77730165D01*
X206449353Y-77667138D01*
X206472712Y-77646898D01*
X206499279Y-77629145D01*
X206510289Y-77621789D01*
X206621789Y-77510289D01*
X206709394Y-77379179D01*
X206769737Y-77233497D01*
X206800500Y-77078842D01*
X206800500Y-76921158D01*
X206800500Y-76921155D01*
X206800499Y-76921153D01*
X206776499Y-76800499D01*
X206769737Y-76766503D01*
X206753174Y-76726516D01*
X206709397Y-76620827D01*
X206709390Y-76620814D01*
X206621789Y-76489711D01*
X206621786Y-76489707D01*
X206620885Y-76488806D01*
X206620563Y-76488217D01*
X206617924Y-76485001D01*
X206618533Y-76484500D01*
X206587400Y-76427483D01*
X206592384Y-76357791D01*
X206634256Y-76301858D01*
X206684372Y-76279508D01*
X206733497Y-76269737D01*
X206879179Y-76209394D01*
X207010289Y-76121789D01*
X207121789Y-76010289D01*
X207209394Y-75879179D01*
X207269737Y-75733497D01*
X207300500Y-75578842D01*
X207300500Y-75421158D01*
X207300500Y-75421155D01*
X207300499Y-75421153D01*
X207274531Y-75290606D01*
X207269737Y-75266503D01*
X207269735Y-75266498D01*
X207209396Y-75120825D01*
X207209394Y-75120822D01*
X207209394Y-75120821D01*
X207174694Y-75068889D01*
X207153816Y-75002215D01*
X207172300Y-74934835D01*
X207174676Y-74931136D01*
X207209394Y-74879179D01*
X207269737Y-74733497D01*
X207300500Y-74578842D01*
X207300500Y-74421158D01*
X207300500Y-74421155D01*
X207300499Y-74421153D01*
X207269738Y-74266510D01*
X207269737Y-74266503D01*
X207256062Y-74233489D01*
X207209397Y-74120827D01*
X207209390Y-74120814D01*
X207121789Y-73989711D01*
X207121786Y-73989707D01*
X207010292Y-73878213D01*
X207010288Y-73878210D01*
X206879185Y-73790609D01*
X206879172Y-73790602D01*
X206733501Y-73730264D01*
X206733491Y-73730261D01*
X206684374Y-73720491D01*
X206622463Y-73688106D01*
X206587889Y-73627389D01*
X206591630Y-73557620D01*
X206618296Y-73515304D01*
X206617924Y-73514999D01*
X206620357Y-73512033D01*
X206620891Y-73511186D01*
X206621789Y-73510289D01*
X206709394Y-73379179D01*
X206769737Y-73233497D01*
X206800500Y-73078842D01*
X206800500Y-72921158D01*
X206800500Y-72921155D01*
X206787426Y-72855431D01*
X206793653Y-72785840D01*
X206836515Y-72730662D01*
X206861589Y-72716679D01*
X206879179Y-72709394D01*
X207010289Y-72621789D01*
X207121789Y-72510289D01*
X207209394Y-72379179D01*
X207269737Y-72233497D01*
X207300500Y-72078842D01*
X207300500Y-71921158D01*
X207300500Y-71921155D01*
X207300499Y-71921153D01*
X207269738Y-71766510D01*
X207269737Y-71766503D01*
X207209394Y-71620821D01*
X207209393Y-71620819D01*
X207209390Y-71620814D01*
X207121789Y-71489711D01*
X207121786Y-71489707D01*
X207010292Y-71378213D01*
X207010284Y-71378207D01*
X206972712Y-71353102D01*
X206927906Y-71299490D01*
X206919199Y-71230165D01*
X206949353Y-71167138D01*
X206972712Y-71146898D01*
X206999279Y-71129145D01*
X207010289Y-71121789D01*
X207121789Y-71010289D01*
X207209394Y-70879179D01*
X207269737Y-70733497D01*
X207300500Y-70578842D01*
X207300500Y-70421158D01*
X207300500Y-70421155D01*
X207300499Y-70421153D01*
X207292148Y-70379172D01*
X207269737Y-70266503D01*
X207229090Y-70168371D01*
X207209397Y-70120827D01*
X207209390Y-70120814D01*
X207121789Y-69989711D01*
X207121786Y-69989707D01*
X207010292Y-69878213D01*
X207010288Y-69878210D01*
X206879185Y-69790609D01*
X206879172Y-69790602D01*
X206733501Y-69730264D01*
X206733489Y-69730261D01*
X206578845Y-69699500D01*
X206578842Y-69699500D01*
X206421158Y-69699500D01*
X206421155Y-69699500D01*
X206266510Y-69730261D01*
X206266498Y-69730264D01*
X206120827Y-69790602D01*
X206120814Y-69790609D01*
X205989711Y-69878210D01*
X205989707Y-69878213D01*
X205878213Y-69989707D01*
X205878210Y-69989711D01*
X205790609Y-70120814D01*
X205790602Y-70120827D01*
X205730264Y-70266498D01*
X205730261Y-70266510D01*
X205699500Y-70421153D01*
X205699500Y-70578846D01*
X205730261Y-70733489D01*
X205730264Y-70733501D01*
X205790602Y-70879172D01*
X205790609Y-70879185D01*
X205878210Y-71010288D01*
X205878213Y-71010292D01*
X205989707Y-71121786D01*
X205989710Y-71121788D01*
X205989711Y-71121789D01*
X206015219Y-71138833D01*
X206027289Y-71146898D01*
X206072093Y-71200511D01*
X206080800Y-71269836D01*
X206050645Y-71332863D01*
X206027289Y-71353102D01*
X205989707Y-71378213D01*
X205878213Y-71489707D01*
X205878210Y-71489711D01*
X205790609Y-71620814D01*
X205790604Y-71620825D01*
X205730264Y-71766498D01*
X205730261Y-71766510D01*
X205699500Y-71921153D01*
X205699500Y-72078846D01*
X205712573Y-72144568D01*
X205706346Y-72214159D01*
X205663483Y-72269337D01*
X205638411Y-72283319D01*
X205620826Y-72290603D01*
X205620814Y-72290609D01*
X205489711Y-72378210D01*
X205489707Y-72378213D01*
X205378213Y-72489707D01*
X205378210Y-72489711D01*
X205290609Y-72620814D01*
X205290602Y-72620827D01*
X205230264Y-72766498D01*
X205230261Y-72766510D01*
X205199500Y-72921153D01*
X205199500Y-73078846D01*
X205230261Y-73233489D01*
X205230264Y-73233501D01*
X205290602Y-73379172D01*
X205290609Y-73379185D01*
X205378210Y-73510288D01*
X205378213Y-73510292D01*
X205489707Y-73621786D01*
X205489711Y-73621789D01*
X205620814Y-73709390D01*
X205620827Y-73709397D01*
X205758683Y-73766498D01*
X205766503Y-73769737D01*
X205793423Y-73775091D01*
X205815624Y-73779508D01*
X205877535Y-73811892D01*
X205912109Y-73872608D01*
X205908370Y-73942377D01*
X205881706Y-73984697D01*
X205882076Y-73985001D01*
X205879661Y-73987942D01*
X205879123Y-73988798D01*
X205878212Y-73989708D01*
X205878210Y-73989711D01*
X205790609Y-74120814D01*
X205790602Y-74120827D01*
X205730264Y-74266498D01*
X205730261Y-74266510D01*
X205699500Y-74421153D01*
X205699500Y-74578846D01*
X205730261Y-74733489D01*
X205730264Y-74733501D01*
X205790602Y-74879172D01*
X205790609Y-74879185D01*
X205825304Y-74931109D01*
X205846182Y-74997786D01*
X205827698Y-75065167D01*
X205825304Y-75068891D01*
X205790609Y-75120814D01*
X205790602Y-75120827D01*
X205730264Y-75266498D01*
X205730261Y-75266510D01*
X205699500Y-75421153D01*
X205699500Y-75578846D01*
X205730261Y-75733489D01*
X205730264Y-75733501D01*
X205790602Y-75879172D01*
X205790609Y-75879185D01*
X205878210Y-76010288D01*
X205878213Y-76010292D01*
X205879114Y-76011193D01*
X205879435Y-76011780D01*
X205882076Y-76014999D01*
X205881465Y-76015499D01*
X205912599Y-76072516D01*
X205907615Y-76142208D01*
X205865743Y-76198141D01*
X205815626Y-76220491D01*
X205766507Y-76230261D01*
X205766498Y-76230264D01*
X205620827Y-76290602D01*
X205620814Y-76290609D01*
X205489711Y-76378210D01*
X205489707Y-76378213D01*
X205378213Y-76489707D01*
X205378210Y-76489711D01*
X205290609Y-76620814D01*
X205290602Y-76620827D01*
X205230264Y-76766498D01*
X205230261Y-76766510D01*
X205199500Y-76921153D01*
X205199500Y-77078846D01*
X205230261Y-77233489D01*
X205230264Y-77233501D01*
X205290602Y-77379172D01*
X205290609Y-77379185D01*
X205378210Y-77510288D01*
X205378213Y-77510292D01*
X205489707Y-77621786D01*
X205489710Y-77621788D01*
X205489711Y-77621789D01*
X205515219Y-77638833D01*
X205527289Y-77646898D01*
X205572093Y-77700511D01*
X205580800Y-77769836D01*
X205550645Y-77832863D01*
X205527289Y-77853102D01*
X205489707Y-77878213D01*
X205378213Y-77989707D01*
X205378210Y-77989711D01*
X205290609Y-78120814D01*
X205290602Y-78120827D01*
X205230264Y-78266498D01*
X205230261Y-78266510D01*
X205199500Y-78421153D01*
X205199500Y-78578846D01*
X205230261Y-78733489D01*
X205230264Y-78733501D01*
X205290602Y-78879172D01*
X205290609Y-78879185D01*
X205378210Y-79010288D01*
X205378213Y-79010292D01*
X205489707Y-79121786D01*
X205489711Y-79121789D01*
X205620814Y-79209390D01*
X205620827Y-79209397D01*
X205734425Y-79256450D01*
X205766503Y-79269737D01*
X205793423Y-79275091D01*
X205815624Y-79279508D01*
X205877535Y-79311892D01*
X205912109Y-79372608D01*
X205908370Y-79442377D01*
X205881706Y-79484697D01*
X205882076Y-79485001D01*
X205879661Y-79487942D01*
X205879123Y-79488798D01*
X205878212Y-79489708D01*
X205878210Y-79489711D01*
X205790609Y-79620814D01*
X205790602Y-79620827D01*
X205730264Y-79766498D01*
X205730261Y-79766510D01*
X205699500Y-79921153D01*
X205699500Y-80078846D01*
X205730261Y-80233489D01*
X205730264Y-80233501D01*
X205790602Y-80379172D01*
X205790609Y-80379185D01*
X205878210Y-80510288D01*
X205878213Y-80510292D01*
X205989707Y-80621786D01*
X205989710Y-80621788D01*
X205989711Y-80621789D01*
X206015219Y-80638833D01*
X206027289Y-80646898D01*
X206072093Y-80700511D01*
X206080800Y-80769836D01*
X206050645Y-80832863D01*
X206027289Y-80853102D01*
X205989707Y-80878213D01*
X205878213Y-80989707D01*
X205878210Y-80989711D01*
X205790609Y-81120814D01*
X205790602Y-81120827D01*
X205730264Y-81266498D01*
X205730261Y-81266510D01*
X205699500Y-81421153D01*
X205699500Y-81578846D01*
X205712573Y-81644568D01*
X205706346Y-81714159D01*
X205663483Y-81769337D01*
X205638411Y-81783319D01*
X205620826Y-81790603D01*
X205620814Y-81790609D01*
X205489711Y-81878210D01*
X205489707Y-81878213D01*
X205378213Y-81989707D01*
X205378210Y-81989711D01*
X205290609Y-82120814D01*
X205290602Y-82120827D01*
X205230264Y-82266498D01*
X205230261Y-82266510D01*
X205199500Y-82421153D01*
X205199500Y-82578846D01*
X205230261Y-82733489D01*
X205230264Y-82733501D01*
X205290602Y-82879172D01*
X205290609Y-82879185D01*
X205378210Y-83010288D01*
X205378213Y-83010292D01*
X205489707Y-83121786D01*
X205489711Y-83121789D01*
X205620814Y-83209390D01*
X205620827Y-83209397D01*
X205758683Y-83266498D01*
X205766503Y-83269737D01*
X205793423Y-83275091D01*
X205815624Y-83279508D01*
X205877535Y-83311892D01*
X205912109Y-83372608D01*
X205908370Y-83442377D01*
X205881706Y-83484697D01*
X205882076Y-83485001D01*
X205879661Y-83487942D01*
X205879123Y-83488798D01*
X205878212Y-83489708D01*
X205878210Y-83489711D01*
X205790609Y-83620814D01*
X205790602Y-83620827D01*
X205730264Y-83766498D01*
X205730261Y-83766510D01*
X205699500Y-83921153D01*
X205699500Y-84078846D01*
X205730261Y-84233489D01*
X205730264Y-84233501D01*
X205790602Y-84379172D01*
X205790609Y-84379185D01*
X205825304Y-84431109D01*
X205846182Y-84497786D01*
X205827698Y-84565167D01*
X205825304Y-84568891D01*
X205790609Y-84620814D01*
X205790602Y-84620827D01*
X205730264Y-84766498D01*
X205730261Y-84766510D01*
X205699500Y-84921153D01*
X205699500Y-85078846D01*
X205730261Y-85233489D01*
X205730264Y-85233501D01*
X205790602Y-85379172D01*
X205790609Y-85379185D01*
X205878210Y-85510288D01*
X205878213Y-85510292D01*
X205879114Y-85511193D01*
X205879435Y-85511780D01*
X205882076Y-85514999D01*
X205881465Y-85515499D01*
X205912599Y-85572516D01*
X205907615Y-85642208D01*
X205865743Y-85698141D01*
X205815626Y-85720491D01*
X205766507Y-85730261D01*
X205766498Y-85730264D01*
X205620827Y-85790602D01*
X205620814Y-85790609D01*
X205489711Y-85878210D01*
X205489707Y-85878213D01*
X205378213Y-85989707D01*
X205378210Y-85989711D01*
X205290609Y-86120814D01*
X205290602Y-86120827D01*
X205230264Y-86266498D01*
X205230261Y-86266510D01*
X205199500Y-86421153D01*
X205199500Y-86578846D01*
X205230261Y-86733489D01*
X205230264Y-86733501D01*
X205290602Y-86879172D01*
X205290609Y-86879185D01*
X205378210Y-87010288D01*
X205378213Y-87010292D01*
X205489707Y-87121786D01*
X205489710Y-87121788D01*
X205489711Y-87121789D01*
X205515219Y-87138833D01*
X205527289Y-87146898D01*
X205572093Y-87200511D01*
X205580800Y-87269836D01*
X205550645Y-87332863D01*
X205527289Y-87353102D01*
X205489707Y-87378213D01*
X205378213Y-87489707D01*
X205378210Y-87489711D01*
X205290609Y-87620814D01*
X205290602Y-87620827D01*
X205230264Y-87766498D01*
X205230261Y-87766510D01*
X205199500Y-87921153D01*
X205199500Y-88078846D01*
X205230261Y-88233489D01*
X205230264Y-88233501D01*
X205290602Y-88379172D01*
X205290609Y-88379185D01*
X205378210Y-88510288D01*
X205378213Y-88510292D01*
X205489707Y-88621786D01*
X205489711Y-88621789D01*
X205620814Y-88709390D01*
X205620827Y-88709397D01*
X205723737Y-88752023D01*
X205766503Y-88769737D01*
X205772893Y-88771008D01*
X205815624Y-88779508D01*
X205877535Y-88811892D01*
X205912109Y-88872608D01*
X205908370Y-88942377D01*
X205881706Y-88984697D01*
X205882076Y-88985001D01*
X205879661Y-88987942D01*
X205879123Y-88988798D01*
X205878212Y-88989708D01*
X205878210Y-88989711D01*
X205790609Y-89120814D01*
X205790602Y-89120827D01*
X205730264Y-89266498D01*
X205730261Y-89266510D01*
X205699500Y-89421153D01*
X205699500Y-89578846D01*
X205730261Y-89733489D01*
X205730264Y-89733501D01*
X205790602Y-89879172D01*
X205790609Y-89879185D01*
X205878210Y-90010288D01*
X205878213Y-90010292D01*
X205989707Y-90121786D01*
X205989710Y-90121788D01*
X205989711Y-90121789D01*
X206015219Y-90138833D01*
X206027289Y-90146898D01*
X206072093Y-90200511D01*
X206080800Y-90269836D01*
X206050645Y-90332863D01*
X206027289Y-90353102D01*
X205989707Y-90378213D01*
X205878213Y-90489707D01*
X205878210Y-90489711D01*
X205790609Y-90620814D01*
X205790602Y-90620827D01*
X205730264Y-90766498D01*
X205730261Y-90766510D01*
X205699500Y-90921153D01*
X205699500Y-91078846D01*
X205712573Y-91144568D01*
X205706346Y-91214159D01*
X205663483Y-91269337D01*
X205638411Y-91283319D01*
X205620826Y-91290603D01*
X205620814Y-91290609D01*
X205489711Y-91378210D01*
X205489707Y-91378213D01*
X205378213Y-91489707D01*
X205378210Y-91489711D01*
X205290609Y-91620814D01*
X205290602Y-91620827D01*
X205230264Y-91766498D01*
X205230261Y-91766510D01*
X205199500Y-91921153D01*
X205199500Y-92078846D01*
X205230261Y-92233489D01*
X205230264Y-92233501D01*
X205290602Y-92379172D01*
X205290609Y-92379185D01*
X205378210Y-92510288D01*
X205378213Y-92510292D01*
X205489707Y-92621786D01*
X205489711Y-92621789D01*
X205620814Y-92709390D01*
X205620827Y-92709397D01*
X205758683Y-92766498D01*
X205766503Y-92769737D01*
X205793423Y-92775091D01*
X205815624Y-92779508D01*
X205877535Y-92811892D01*
X205912109Y-92872608D01*
X205908370Y-92942377D01*
X205881706Y-92984697D01*
X205882076Y-92985001D01*
X205879661Y-92987942D01*
X205879123Y-92988798D01*
X205878212Y-92989708D01*
X205878210Y-92989711D01*
X205790609Y-93120814D01*
X205790602Y-93120827D01*
X205730264Y-93266498D01*
X205730261Y-93266510D01*
X205699500Y-93421153D01*
X205699500Y-93578846D01*
X205730261Y-93733489D01*
X205730264Y-93733501D01*
X205790602Y-93879172D01*
X205790609Y-93879185D01*
X205825304Y-93931109D01*
X205846182Y-93997786D01*
X205827698Y-94065167D01*
X205825304Y-94068891D01*
X205790609Y-94120814D01*
X205790602Y-94120827D01*
X205730264Y-94266498D01*
X205730261Y-94266510D01*
X205699500Y-94421153D01*
X205699500Y-94578846D01*
X205730261Y-94733489D01*
X205730264Y-94733501D01*
X205790602Y-94879172D01*
X205790609Y-94879185D01*
X205878210Y-95010288D01*
X205878213Y-95010292D01*
X205879114Y-95011193D01*
X205879435Y-95011780D01*
X205882076Y-95014999D01*
X205881465Y-95015499D01*
X205912599Y-95072516D01*
X205907615Y-95142208D01*
X205865743Y-95198141D01*
X205815626Y-95220491D01*
X205766507Y-95230261D01*
X205766498Y-95230264D01*
X205620827Y-95290602D01*
X205620814Y-95290609D01*
X205489711Y-95378210D01*
X205489707Y-95378213D01*
X205378213Y-95489707D01*
X205378210Y-95489711D01*
X205290609Y-95620814D01*
X205290602Y-95620827D01*
X205230264Y-95766498D01*
X205230261Y-95766510D01*
X205199500Y-95921153D01*
X205199500Y-96078846D01*
X205230261Y-96233489D01*
X205230264Y-96233501D01*
X205290602Y-96379172D01*
X205290609Y-96379185D01*
X205378210Y-96510288D01*
X205378213Y-96510292D01*
X205489707Y-96621786D01*
X205489710Y-96621788D01*
X205489711Y-96621789D01*
X205515219Y-96638833D01*
X205527289Y-96646898D01*
X205572093Y-96700511D01*
X205580800Y-96769836D01*
X205550645Y-96832863D01*
X205527289Y-96853102D01*
X205489707Y-96878213D01*
X205378213Y-96989707D01*
X205378210Y-96989711D01*
X205290609Y-97120814D01*
X205290602Y-97120827D01*
X205230264Y-97266498D01*
X205230261Y-97266510D01*
X205199500Y-97421153D01*
X205199500Y-97578846D01*
X205230261Y-97733489D01*
X205230264Y-97733501D01*
X205290602Y-97879172D01*
X205290609Y-97879185D01*
X205378210Y-98010288D01*
X205378213Y-98010292D01*
X205489707Y-98121786D01*
X205489711Y-98121789D01*
X205620817Y-98209392D01*
X205620819Y-98209393D01*
X205620821Y-98209394D01*
X205638409Y-98216679D01*
X205692812Y-98260520D01*
X205714877Y-98326814D01*
X205712573Y-98355431D01*
X205699500Y-98421153D01*
X205699500Y-98578846D01*
X205730261Y-98733489D01*
X205730264Y-98733501D01*
X205790602Y-98879172D01*
X205790609Y-98879185D01*
X205878210Y-99010288D01*
X205878213Y-99010292D01*
X205989707Y-99121786D01*
X205989710Y-99121788D01*
X205989711Y-99121789D01*
X206015219Y-99138833D01*
X206027289Y-99146898D01*
X206072093Y-99200511D01*
X206080800Y-99269836D01*
X206050645Y-99332863D01*
X206027289Y-99353102D01*
X205989707Y-99378213D01*
X205878213Y-99489707D01*
X205878210Y-99489711D01*
X205790609Y-99620814D01*
X205790602Y-99620827D01*
X205730264Y-99766498D01*
X205730261Y-99766510D01*
X205699500Y-99921153D01*
X205699500Y-100078846D01*
X205712573Y-100144568D01*
X205706346Y-100214159D01*
X205663483Y-100269337D01*
X205638411Y-100283319D01*
X205620826Y-100290603D01*
X205620814Y-100290609D01*
X205489711Y-100378210D01*
X205489707Y-100378213D01*
X205378213Y-100489707D01*
X205378210Y-100489711D01*
X205290609Y-100620814D01*
X205290602Y-100620827D01*
X205230264Y-100766498D01*
X205230261Y-100766510D01*
X205199500Y-100921153D01*
X205199500Y-101078846D01*
X205230261Y-101233489D01*
X205230264Y-101233501D01*
X205290602Y-101379172D01*
X205290609Y-101379185D01*
X205378210Y-101510288D01*
X205378213Y-101510292D01*
X205489707Y-101621786D01*
X205489711Y-101621789D01*
X205620814Y-101709390D01*
X205620827Y-101709397D01*
X205758683Y-101766498D01*
X205766503Y-101769737D01*
X205793423Y-101775091D01*
X205815624Y-101779508D01*
X205877535Y-101811892D01*
X205912109Y-101872608D01*
X205908370Y-101942377D01*
X205881706Y-101984697D01*
X205882076Y-101985001D01*
X205879661Y-101987942D01*
X205879123Y-101988798D01*
X205878212Y-101989708D01*
X205878210Y-101989711D01*
X205790609Y-102120814D01*
X205790602Y-102120827D01*
X205730264Y-102266498D01*
X205730261Y-102266510D01*
X205699500Y-102421153D01*
X205699500Y-102578846D01*
X205730261Y-102733489D01*
X205730264Y-102733501D01*
X205790602Y-102879172D01*
X205790609Y-102879185D01*
X205825304Y-102931109D01*
X205846182Y-102997786D01*
X205827698Y-103065167D01*
X205825304Y-103068891D01*
X205790609Y-103120814D01*
X205790602Y-103120827D01*
X205730264Y-103266498D01*
X205730261Y-103266510D01*
X205699500Y-103421153D01*
X205699500Y-103578846D01*
X205730261Y-103733489D01*
X205730264Y-103733501D01*
X205790602Y-103879172D01*
X205790609Y-103879185D01*
X205878210Y-104010288D01*
X205878213Y-104010292D01*
X205879114Y-104011193D01*
X205879435Y-104011780D01*
X205882076Y-104014999D01*
X205881465Y-104015499D01*
X205912599Y-104072516D01*
X205907615Y-104142208D01*
X205865743Y-104198141D01*
X205815626Y-104220491D01*
X205766507Y-104230261D01*
X205766498Y-104230264D01*
X205620827Y-104290602D01*
X205620814Y-104290609D01*
X205489711Y-104378210D01*
X205489707Y-104378213D01*
X205378213Y-104489707D01*
X205378210Y-104489711D01*
X205290609Y-104620814D01*
X205290602Y-104620827D01*
X205230264Y-104766498D01*
X205230261Y-104766507D01*
X205220491Y-104815626D01*
X205188105Y-104877536D01*
X205127389Y-104912110D01*
X205057620Y-104908369D01*
X205015303Y-104881704D01*
X205014999Y-104882076D01*
X205012040Y-104879647D01*
X205011193Y-104879114D01*
X205010292Y-104878213D01*
X205010288Y-104878210D01*
X204879185Y-104790609D01*
X204879172Y-104790602D01*
X204733501Y-104730264D01*
X204733489Y-104730261D01*
X204578845Y-104699500D01*
X204578842Y-104699500D01*
X204421158Y-104699500D01*
X204421155Y-104699500D01*
X204266510Y-104730261D01*
X204266498Y-104730264D01*
X204120827Y-104790602D01*
X204120814Y-104790609D01*
X203989711Y-104878210D01*
X203989707Y-104878213D01*
X203878213Y-104989707D01*
X203878210Y-104989711D01*
X203790609Y-105120814D01*
X203790602Y-105120827D01*
X203730264Y-105266498D01*
X203730261Y-105266510D01*
X203699500Y-105421153D01*
X203300499Y-105421153D01*
X203292150Y-105379179D01*
X203269737Y-105266503D01*
X203256062Y-105233489D01*
X203209397Y-105120827D01*
X203209390Y-105120814D01*
X203121789Y-104989711D01*
X203121786Y-104989707D01*
X203010292Y-104878213D01*
X203010288Y-104878210D01*
X202879185Y-104790609D01*
X202879172Y-104790602D01*
X202733501Y-104730264D01*
X202733489Y-104730261D01*
X202578845Y-104699500D01*
X202578842Y-104699500D01*
X202421158Y-104699500D01*
X202421155Y-104699500D01*
X202266510Y-104730261D01*
X202266498Y-104730264D01*
X202120827Y-104790602D01*
X202120814Y-104790609D01*
X201989711Y-104878210D01*
X201989707Y-104878213D01*
X201878213Y-104989707D01*
X201853102Y-105027289D01*
X201799489Y-105072093D01*
X201730164Y-105080800D01*
X201667137Y-105050645D01*
X201646898Y-105027289D01*
X201628664Y-105000000D01*
X201621789Y-104989711D01*
X201621788Y-104989710D01*
X201621786Y-104989707D01*
X201510292Y-104878213D01*
X201510288Y-104878210D01*
X201379185Y-104790609D01*
X201379172Y-104790602D01*
X201233501Y-104730264D01*
X201233489Y-104730261D01*
X201078845Y-104699500D01*
X201078842Y-104699500D01*
X200921158Y-104699500D01*
X200921155Y-104699500D01*
X200766510Y-104730261D01*
X200766498Y-104730264D01*
X200620827Y-104790602D01*
X200620814Y-104790609D01*
X200489711Y-104878210D01*
X200489707Y-104878213D01*
X200378213Y-104989707D01*
X200353102Y-105027289D01*
X200299489Y-105072093D01*
X200230164Y-105080800D01*
X200167137Y-105050645D01*
X200146898Y-105027289D01*
X200128664Y-105000000D01*
X200121789Y-104989711D01*
X200121788Y-104989710D01*
X200121786Y-104989707D01*
X200010292Y-104878213D01*
X200010288Y-104878210D01*
X199879185Y-104790609D01*
X199879172Y-104790602D01*
X199733501Y-104730264D01*
X199733489Y-104730261D01*
X199578845Y-104699500D01*
X199578842Y-104699500D01*
X199421158Y-104699500D01*
X199421155Y-104699500D01*
X199266510Y-104730261D01*
X199266498Y-104730264D01*
X199120827Y-104790602D01*
X199120814Y-104790609D01*
X198989711Y-104878210D01*
X198989707Y-104878213D01*
X198878213Y-104989707D01*
X198878210Y-104989711D01*
X198790609Y-105120814D01*
X198790602Y-105120827D01*
X198730264Y-105266498D01*
X198730261Y-105266510D01*
X198699500Y-105421153D01*
X198699500Y-105578846D01*
X198730261Y-105733489D01*
X198730264Y-105733501D01*
X198790602Y-105879172D01*
X198790609Y-105879185D01*
X198878210Y-106010288D01*
X198878213Y-106010292D01*
X198989707Y-106121786D01*
X198989710Y-106121788D01*
X198989711Y-106121789D01*
X199008354Y-106134246D01*
X199027289Y-106146898D01*
X199072093Y-106200511D01*
X199080800Y-106269836D01*
X199050645Y-106332863D01*
X199027289Y-106353102D01*
X198989707Y-106378213D01*
X198878213Y-106489707D01*
X198853102Y-106527289D01*
X198799489Y-106572093D01*
X198730164Y-106580800D01*
X198667137Y-106550645D01*
X198646898Y-106527289D01*
X198628664Y-106500000D01*
X198621789Y-106489711D01*
X198621788Y-106489710D01*
X198621786Y-106489707D01*
X198510292Y-106378213D01*
X198510288Y-106378210D01*
X198379185Y-106290609D01*
X198379172Y-106290602D01*
X198233501Y-106230264D01*
X198233489Y-106230261D01*
X198078845Y-106199500D01*
X198078842Y-106199500D01*
X197921158Y-106199500D01*
X197921155Y-106199500D01*
X197766510Y-106230261D01*
X197766498Y-106230264D01*
X197620827Y-106290602D01*
X197620814Y-106290609D01*
X197489711Y-106378210D01*
X197489707Y-106378213D01*
X197378213Y-106489707D01*
X197353102Y-106527289D01*
X197299489Y-106572093D01*
X197230164Y-106580800D01*
X197167137Y-106550645D01*
X197146898Y-106527289D01*
X197128664Y-106500000D01*
X197121789Y-106489711D01*
X197121788Y-106489710D01*
X197121786Y-106489707D01*
X197010292Y-106378213D01*
X197010288Y-106378210D01*
X196879185Y-106290609D01*
X196879172Y-106290602D01*
X196733501Y-106230264D01*
X196733489Y-106230261D01*
X196578845Y-106199500D01*
X196578842Y-106199500D01*
X196421158Y-106199500D01*
X196421155Y-106199500D01*
X196266510Y-106230261D01*
X196266498Y-106230264D01*
X196120827Y-106290602D01*
X196120814Y-106290609D01*
X195989711Y-106378210D01*
X195989708Y-106378212D01*
X195988798Y-106379123D01*
X195988204Y-106379446D01*
X195985001Y-106382076D01*
X195984502Y-106381468D01*
X195927471Y-106412602D01*
X195857780Y-106407611D01*
X195801851Y-106365734D01*
X195779508Y-106315624D01*
X195769738Y-106266509D01*
X195769737Y-106266503D01*
X195762901Y-106250000D01*
X195709396Y-106120825D01*
X195709394Y-106120822D01*
X195709394Y-106120821D01*
X195674694Y-106068889D01*
X195653816Y-106002215D01*
X195672300Y-105934835D01*
X195674676Y-105931136D01*
X195709394Y-105879179D01*
X195769737Y-105733497D01*
X195800500Y-105578842D01*
X195800500Y-105421158D01*
X195800500Y-105421155D01*
X195800499Y-105421153D01*
X195792150Y-105379179D01*
X195769737Y-105266503D01*
X195756062Y-105233489D01*
X195709396Y-105120825D01*
X195709394Y-105120822D01*
X195709394Y-105120821D01*
X195674694Y-105068889D01*
X195653816Y-105002215D01*
X195672300Y-104934835D01*
X195674676Y-104931136D01*
X195709394Y-104879179D01*
X195769737Y-104733497D01*
X195800500Y-104578842D01*
X195800500Y-104421158D01*
X195800500Y-104421155D01*
X195800499Y-104421153D01*
X195787895Y-104357791D01*
X195769737Y-104266503D01*
X195756062Y-104233489D01*
X195709396Y-104120825D01*
X195709394Y-104120822D01*
X195709394Y-104120821D01*
X195674694Y-104068889D01*
X195653816Y-104002215D01*
X195672300Y-103934835D01*
X195674676Y-103931136D01*
X195709394Y-103879179D01*
X195769737Y-103733497D01*
X195800500Y-103578842D01*
X195800500Y-103421158D01*
X195800500Y-103421155D01*
X195800499Y-103421153D01*
X195792148Y-103379172D01*
X195769737Y-103266503D01*
X195739065Y-103192454D01*
X195709396Y-103120825D01*
X195709394Y-103120822D01*
X195709394Y-103120821D01*
X195674694Y-103068889D01*
X195653816Y-103002215D01*
X195672300Y-102934835D01*
X195674676Y-102931136D01*
X195709394Y-102879179D01*
X195769737Y-102733497D01*
X195800500Y-102578842D01*
X195800500Y-102421158D01*
X195800500Y-102421155D01*
X195800499Y-102421153D01*
X195774531Y-102290606D01*
X195769737Y-102266503D01*
X195756062Y-102233489D01*
X195709396Y-102120825D01*
X195709394Y-102120822D01*
X195709394Y-102120821D01*
X195674694Y-102068889D01*
X195653816Y-102002215D01*
X195672300Y-101934835D01*
X195674676Y-101931136D01*
X195709394Y-101879179D01*
X195769737Y-101733497D01*
X195800500Y-101578842D01*
X195800500Y-101421158D01*
X195800500Y-101421155D01*
X195800499Y-101421153D01*
X195787426Y-101355431D01*
X195769737Y-101266503D01*
X195756062Y-101233489D01*
X195709397Y-101120827D01*
X195709390Y-101120814D01*
X195621789Y-100989711D01*
X195621786Y-100989707D01*
X195510292Y-100878213D01*
X195510288Y-100878210D01*
X195379185Y-100790609D01*
X195379179Y-100790606D01*
X195361589Y-100783320D01*
X195307186Y-100739478D01*
X195285122Y-100673184D01*
X195287425Y-100644571D01*
X195300500Y-100578842D01*
X195300500Y-100421158D01*
X195300500Y-100421155D01*
X195287426Y-100355431D01*
X195293653Y-100285840D01*
X195336515Y-100230662D01*
X195361589Y-100216679D01*
X195379179Y-100209394D01*
X195510289Y-100121789D01*
X195621789Y-100010289D01*
X195709394Y-99879179D01*
X195769737Y-99733497D01*
X195800500Y-99578842D01*
X195800500Y-99421158D01*
X195800500Y-99421155D01*
X195800499Y-99421153D01*
X195782937Y-99332863D01*
X195769737Y-99266503D01*
X195756062Y-99233489D01*
X195709396Y-99120825D01*
X195709394Y-99120822D01*
X195709394Y-99120821D01*
X195674694Y-99068889D01*
X195653816Y-99002215D01*
X195672300Y-98934835D01*
X195674676Y-98931136D01*
X195709394Y-98879179D01*
X195769737Y-98733497D01*
X195800500Y-98578842D01*
X195800500Y-98421158D01*
X195800500Y-98421155D01*
X195800499Y-98421153D01*
X195787426Y-98355431D01*
X195769737Y-98266503D01*
X195756062Y-98233489D01*
X195709396Y-98120825D01*
X195709394Y-98120822D01*
X195709394Y-98120821D01*
X195674694Y-98068889D01*
X195653816Y-98002215D01*
X195672300Y-97934835D01*
X195674676Y-97931136D01*
X195709394Y-97879179D01*
X195769737Y-97733497D01*
X195800500Y-97578842D01*
X195800500Y-97421158D01*
X195800500Y-97421155D01*
X195800499Y-97421153D01*
X195774531Y-97290606D01*
X195769737Y-97266503D01*
X195748056Y-97214159D01*
X195709397Y-97120827D01*
X195709390Y-97120814D01*
X195621789Y-96989711D01*
X195621786Y-96989707D01*
X195510292Y-96878213D01*
X195510284Y-96878207D01*
X195472712Y-96853102D01*
X195427906Y-96799490D01*
X195419199Y-96730165D01*
X195449353Y-96667138D01*
X195472712Y-96646898D01*
X195499279Y-96629145D01*
X195510289Y-96621789D01*
X195621789Y-96510289D01*
X195709394Y-96379179D01*
X195769737Y-96233497D01*
X195800500Y-96078842D01*
X195800500Y-95921158D01*
X195800500Y-95921155D01*
X195800499Y-95921153D01*
X195769738Y-95766510D01*
X195769737Y-95766503D01*
X195709794Y-95621786D01*
X195709396Y-95620825D01*
X195709394Y-95620822D01*
X195709394Y-95620821D01*
X195674694Y-95568889D01*
X195653816Y-95502215D01*
X195672300Y-95434835D01*
X195674676Y-95431136D01*
X195709394Y-95379179D01*
X195769737Y-95233497D01*
X195800500Y-95078842D01*
X195800500Y-94921158D01*
X195800500Y-94921155D01*
X195787426Y-94855431D01*
X195793653Y-94785840D01*
X195836515Y-94730662D01*
X195861589Y-94716679D01*
X195879179Y-94709394D01*
X196010289Y-94621789D01*
X196121789Y-94510289D01*
X196209394Y-94379179D01*
X196269737Y-94233497D01*
X196300500Y-94078842D01*
X196300500Y-93921158D01*
X196300500Y-93921155D01*
X196287426Y-93855431D01*
X196293653Y-93785840D01*
X196336515Y-93730662D01*
X196361589Y-93716679D01*
X196379179Y-93709394D01*
X196510289Y-93621789D01*
X196621789Y-93510289D01*
X196709394Y-93379179D01*
X196716677Y-93361593D01*
X196760514Y-93307190D01*
X196826807Y-93285122D01*
X196855431Y-93287426D01*
X196921155Y-93300500D01*
X196921158Y-93300500D01*
X197078844Y-93300500D01*
X197078845Y-93300499D01*
X197233497Y-93269737D01*
X197379179Y-93209394D01*
X197510289Y-93121789D01*
X197621789Y-93010289D01*
X197709394Y-92879179D01*
X197769737Y-92733497D01*
X197800500Y-92578842D01*
X197800500Y-92421158D01*
X197800500Y-92421155D01*
X197800499Y-92421153D01*
X197777596Y-92306014D01*
X197769737Y-92266503D01*
X197750424Y-92219879D01*
X197742956Y-92150410D01*
X197774231Y-92087931D01*
X197834320Y-92052279D01*
X197904145Y-92054773D01*
X197952667Y-92084746D01*
X197989707Y-92121786D01*
X197989711Y-92121789D01*
X198120814Y-92209390D01*
X198120827Y-92209397D01*
X198258683Y-92266498D01*
X198266503Y-92269737D01*
X198382468Y-92292804D01*
X198421153Y-92300499D01*
X198421156Y-92300500D01*
X198421158Y-92300500D01*
X198578844Y-92300500D01*
X198578845Y-92300499D01*
X198733497Y-92269737D01*
X198879179Y-92209394D01*
X199010289Y-92121789D01*
X199121789Y-92010289D01*
X199209394Y-91879179D01*
X199269737Y-91733497D01*
X199300500Y-91578842D01*
X199300500Y-91421158D01*
X199300500Y-91421155D01*
X199300499Y-91421153D01*
X199274531Y-91290606D01*
X199269737Y-91266503D01*
X199256062Y-91233489D01*
X199209397Y-91120827D01*
X199209390Y-91120814D01*
X199121789Y-90989711D01*
X199121786Y-90989707D01*
X199120885Y-90988806D01*
X199120563Y-90988217D01*
X199117924Y-90985001D01*
X199118533Y-90984500D01*
X199087400Y-90927483D01*
X199092384Y-90857791D01*
X199134256Y-90801858D01*
X199184372Y-90779508D01*
X199233497Y-90769737D01*
X199379179Y-90709394D01*
X199510289Y-90621789D01*
X199621789Y-90510289D01*
X199709394Y-90379179D01*
X199769737Y-90233497D01*
X199800500Y-90078842D01*
X199800500Y-89921158D01*
X199800500Y-89921155D01*
X199800499Y-89921153D01*
X199776499Y-89800500D01*
X199769737Y-89766503D01*
X199756062Y-89733489D01*
X199709397Y-89620827D01*
X199709390Y-89620814D01*
X199621789Y-89489711D01*
X199621786Y-89489707D01*
X199510292Y-89378213D01*
X199510288Y-89378210D01*
X199379185Y-89290609D01*
X199379172Y-89290602D01*
X199233501Y-89230264D01*
X199233489Y-89230261D01*
X199078845Y-89199500D01*
X199078842Y-89199500D01*
X198921158Y-89199500D01*
X198921155Y-89199500D01*
X198766510Y-89230261D01*
X198766498Y-89230264D01*
X198620827Y-89290602D01*
X198620814Y-89290609D01*
X198489711Y-89378210D01*
X198489707Y-89378213D01*
X198378213Y-89489707D01*
X198378210Y-89489711D01*
X198290609Y-89620814D01*
X198290602Y-89620827D01*
X198230264Y-89766498D01*
X198230261Y-89766510D01*
X198199500Y-89921153D01*
X198199500Y-90078846D01*
X198230261Y-90233489D01*
X198230264Y-90233501D01*
X198290602Y-90379172D01*
X198290609Y-90379185D01*
X198378210Y-90510288D01*
X198378213Y-90510292D01*
X198379114Y-90511193D01*
X198379435Y-90511780D01*
X198382076Y-90514999D01*
X198381465Y-90515499D01*
X198412599Y-90572516D01*
X198407615Y-90642208D01*
X198365743Y-90698141D01*
X198315626Y-90720491D01*
X198266507Y-90730261D01*
X198266498Y-90730264D01*
X198120827Y-90790602D01*
X198120814Y-90790609D01*
X197989711Y-90878210D01*
X197989707Y-90878213D01*
X197878213Y-90989707D01*
X197878210Y-90989711D01*
X197790609Y-91120814D01*
X197790602Y-91120827D01*
X197730264Y-91266498D01*
X197730261Y-91266510D01*
X197699500Y-91421153D01*
X197699500Y-91578846D01*
X197729699Y-91730662D01*
X197730263Y-91733497D01*
X197749575Y-91780120D01*
X197757043Y-91849590D01*
X197725767Y-91912069D01*
X197665678Y-91947721D01*
X197595853Y-91945226D01*
X197547332Y-91915253D01*
X197510292Y-91878213D01*
X197510288Y-91878210D01*
X197379185Y-91790609D01*
X197379172Y-91790602D01*
X197233501Y-91730264D01*
X197233489Y-91730261D01*
X197078845Y-91699500D01*
X197078842Y-91699500D01*
X196921158Y-91699500D01*
X196921155Y-91699500D01*
X196766510Y-91730261D01*
X196766498Y-91730264D01*
X196620827Y-91790602D01*
X196620814Y-91790609D01*
X196489711Y-91878210D01*
X196489707Y-91878213D01*
X196378213Y-91989707D01*
X196378210Y-91989711D01*
X196290609Y-92120814D01*
X196290603Y-92120826D01*
X196283319Y-92138411D01*
X196239477Y-92192814D01*
X196173182Y-92214877D01*
X196144568Y-92212573D01*
X196078846Y-92199500D01*
X196078842Y-92199500D01*
X195924500Y-92199500D01*
X195857461Y-92179815D01*
X195811706Y-92127011D01*
X195800500Y-92075500D01*
X195800500Y-91921155D01*
X195800499Y-91921153D01*
X195774531Y-91790606D01*
X195769737Y-91766503D01*
X195754891Y-91730662D01*
X195709397Y-91620827D01*
X195709390Y-91620814D01*
X195621789Y-91489711D01*
X195621786Y-91489707D01*
X195510292Y-91378213D01*
X195510288Y-91378210D01*
X195379185Y-91290609D01*
X195379172Y-91290602D01*
X195233501Y-91230264D01*
X195233489Y-91230261D01*
X195078845Y-91199500D01*
X195078842Y-91199500D01*
X194921158Y-91199500D01*
X194921155Y-91199500D01*
X194766510Y-91230261D01*
X194766498Y-91230264D01*
X194620827Y-91290602D01*
X194620814Y-91290609D01*
X194489711Y-91378210D01*
X194489707Y-91378213D01*
X194378213Y-91489707D01*
X194378210Y-91489711D01*
X194290609Y-91620814D01*
X194290602Y-91620827D01*
X194230264Y-91766498D01*
X194230261Y-91766510D01*
X194199500Y-91921153D01*
X194199500Y-92078846D01*
X194212573Y-92144568D01*
X194206346Y-92214159D01*
X194163483Y-92269337D01*
X194138411Y-92283319D01*
X194120826Y-92290603D01*
X194120814Y-92290609D01*
X193989711Y-92378210D01*
X193989707Y-92378213D01*
X193878213Y-92489707D01*
X193878210Y-92489711D01*
X193790609Y-92620814D01*
X193790602Y-92620827D01*
X193730264Y-92766498D01*
X193730261Y-92766510D01*
X193699500Y-92921153D01*
X193699500Y-93078846D01*
X193730261Y-93233489D01*
X193730264Y-93233501D01*
X193790602Y-93379172D01*
X193790609Y-93379185D01*
X193878210Y-93510288D01*
X193878213Y-93510292D01*
X193989707Y-93621786D01*
X193989711Y-93621789D01*
X194120814Y-93709390D01*
X194120827Y-93709397D01*
X194218853Y-93750000D01*
X194266503Y-93769737D01*
X194421153Y-93800499D01*
X194421156Y-93800500D01*
X194575500Y-93800500D01*
X194642539Y-93820185D01*
X194688294Y-93872989D01*
X194699500Y-93924500D01*
X194699500Y-94078846D01*
X194712573Y-94144568D01*
X194706346Y-94214159D01*
X194663483Y-94269337D01*
X194638411Y-94283319D01*
X194620826Y-94290603D01*
X194620814Y-94290609D01*
X194489711Y-94378210D01*
X194489707Y-94378213D01*
X194378213Y-94489707D01*
X194378210Y-94489711D01*
X194290609Y-94620814D01*
X194290602Y-94620827D01*
X194230264Y-94766498D01*
X194230261Y-94766510D01*
X194199500Y-94921153D01*
X194199500Y-95078846D01*
X194230261Y-95233489D01*
X194230264Y-95233501D01*
X194290602Y-95379172D01*
X194290609Y-95379185D01*
X194325304Y-95431109D01*
X194346182Y-95497786D01*
X194327698Y-95565167D01*
X194325304Y-95568891D01*
X194290609Y-95620814D01*
X194290602Y-95620827D01*
X194230264Y-95766498D01*
X194230261Y-95766510D01*
X194199500Y-95921153D01*
X194199500Y-96078846D01*
X194230261Y-96233489D01*
X194230264Y-96233501D01*
X194290602Y-96379172D01*
X194290609Y-96379185D01*
X194378210Y-96510288D01*
X194378213Y-96510292D01*
X194489707Y-96621786D01*
X194489710Y-96621788D01*
X194489711Y-96621789D01*
X194515219Y-96638833D01*
X194527289Y-96646898D01*
X194572093Y-96700511D01*
X194580800Y-96769836D01*
X194550645Y-96832863D01*
X194527289Y-96853102D01*
X194489707Y-96878213D01*
X194378213Y-96989707D01*
X194378210Y-96989711D01*
X194290609Y-97120814D01*
X194290602Y-97120827D01*
X194230264Y-97266498D01*
X194230261Y-97266510D01*
X194199500Y-97421153D01*
X194199500Y-97578846D01*
X194230261Y-97733489D01*
X194230264Y-97733501D01*
X194290602Y-97879172D01*
X194290609Y-97879185D01*
X194325304Y-97931109D01*
X194346182Y-97997786D01*
X194327698Y-98065167D01*
X194325304Y-98068891D01*
X194290609Y-98120814D01*
X194290602Y-98120827D01*
X194230264Y-98266498D01*
X194230261Y-98266510D01*
X194199500Y-98421153D01*
X194199500Y-98578846D01*
X194230261Y-98733489D01*
X194230264Y-98733501D01*
X194290602Y-98879172D01*
X194290609Y-98879185D01*
X194325304Y-98931109D01*
X194346182Y-98997786D01*
X194327698Y-99065167D01*
X194325304Y-99068891D01*
X194290609Y-99120814D01*
X194290602Y-99120827D01*
X194230264Y-99266498D01*
X194230261Y-99266510D01*
X194199500Y-99421153D01*
X194199500Y-99578846D01*
X194212573Y-99644568D01*
X194206346Y-99714159D01*
X194163483Y-99769337D01*
X194138411Y-99783319D01*
X194120826Y-99790603D01*
X194120814Y-99790609D01*
X193989711Y-99878210D01*
X193989707Y-99878213D01*
X193878213Y-99989707D01*
X193878210Y-99989711D01*
X193790609Y-100120814D01*
X193790602Y-100120827D01*
X193730264Y-100266498D01*
X193730261Y-100266510D01*
X193699500Y-100421153D01*
X193699500Y-100578846D01*
X193730261Y-100733489D01*
X193730264Y-100733501D01*
X193790602Y-100879172D01*
X193790609Y-100879185D01*
X193878210Y-101010288D01*
X193878213Y-101010292D01*
X193989707Y-101121786D01*
X193989711Y-101121789D01*
X194120817Y-101209392D01*
X194120819Y-101209393D01*
X194120821Y-101209394D01*
X194138409Y-101216679D01*
X194192812Y-101260520D01*
X194214877Y-101326814D01*
X194212573Y-101355431D01*
X194199500Y-101421153D01*
X194199500Y-101578846D01*
X194230261Y-101733489D01*
X194230264Y-101733501D01*
X194290602Y-101879172D01*
X194290609Y-101879185D01*
X194325304Y-101931109D01*
X194346182Y-101997786D01*
X194327698Y-102065167D01*
X194325304Y-102068891D01*
X194290609Y-102120814D01*
X194290602Y-102120827D01*
X194230264Y-102266498D01*
X194230261Y-102266510D01*
X194199500Y-102421153D01*
X194199500Y-102578846D01*
X194230261Y-102733489D01*
X194230264Y-102733501D01*
X194290602Y-102879172D01*
X194290609Y-102879185D01*
X194325304Y-102931109D01*
X194346182Y-102997786D01*
X194327698Y-103065167D01*
X194325304Y-103068891D01*
X194290609Y-103120814D01*
X194290602Y-103120827D01*
X194230264Y-103266498D01*
X194230261Y-103266510D01*
X194199500Y-103421153D01*
X194199500Y-103578846D01*
X194230261Y-103733489D01*
X194230264Y-103733501D01*
X194290602Y-103879172D01*
X194290609Y-103879185D01*
X194325304Y-103931109D01*
X194346182Y-103997786D01*
X194327698Y-104065167D01*
X194325304Y-104068891D01*
X194290609Y-104120814D01*
X194290602Y-104120827D01*
X194230264Y-104266498D01*
X194230261Y-104266510D01*
X194199500Y-104421153D01*
X194199500Y-104578846D01*
X194230261Y-104733489D01*
X194230264Y-104733501D01*
X194290602Y-104879172D01*
X194290609Y-104879185D01*
X194325304Y-104931109D01*
X194346182Y-104997786D01*
X194327698Y-105065167D01*
X194325304Y-105068891D01*
X194290609Y-105120814D01*
X194290602Y-105120827D01*
X194230264Y-105266498D01*
X194230261Y-105266510D01*
X194199500Y-105421153D01*
X194199500Y-105578846D01*
X194230261Y-105733489D01*
X194230264Y-105733501D01*
X194290602Y-105879172D01*
X194290609Y-105879185D01*
X194325304Y-105931109D01*
X194346182Y-105997786D01*
X194327698Y-106065167D01*
X194325304Y-106068891D01*
X194290609Y-106120814D01*
X194290603Y-106120826D01*
X194283319Y-106138411D01*
X194239477Y-106192814D01*
X194173182Y-106214877D01*
X194144568Y-106212573D01*
X194078846Y-106199500D01*
X194078842Y-106199500D01*
X193921158Y-106199500D01*
X193921155Y-106199500D01*
X193766510Y-106230261D01*
X193766498Y-106230264D01*
X193620827Y-106290602D01*
X193620814Y-106290609D01*
X193568891Y-106325304D01*
X193502214Y-106346182D01*
X193434833Y-106327698D01*
X193431109Y-106325304D01*
X193379185Y-106290609D01*
X193379172Y-106290602D01*
X193233501Y-106230264D01*
X193233489Y-106230261D01*
X193078845Y-106199500D01*
X193078842Y-106199500D01*
X192921158Y-106199500D01*
X192921155Y-106199500D01*
X192766510Y-106230261D01*
X192766498Y-106230264D01*
X192620827Y-106290602D01*
X192620814Y-106290609D01*
X192568891Y-106325304D01*
X192502214Y-106346182D01*
X192434833Y-106327698D01*
X192431109Y-106325304D01*
X192379185Y-106290609D01*
X192379172Y-106290602D01*
X192233501Y-106230264D01*
X192233489Y-106230261D01*
X192078845Y-106199500D01*
X192078842Y-106199500D01*
X191921158Y-106199500D01*
X191921155Y-106199500D01*
X191766510Y-106230261D01*
X191766498Y-106230264D01*
X191620827Y-106290602D01*
X191620814Y-106290609D01*
X191568891Y-106325304D01*
X191502214Y-106346182D01*
X191434833Y-106327698D01*
X191431109Y-106325304D01*
X191379185Y-106290609D01*
X191379172Y-106290602D01*
X191233501Y-106230264D01*
X191233489Y-106230261D01*
X191078845Y-106199500D01*
X191078842Y-106199500D01*
X190924500Y-106199500D01*
X190857461Y-106179815D01*
X190811706Y-106127011D01*
X190800500Y-106075500D01*
X190800500Y-105921155D01*
X190800499Y-105921153D01*
X190785292Y-105844702D01*
X190769737Y-105766503D01*
X190756062Y-105733489D01*
X190709396Y-105620825D01*
X190709394Y-105620822D01*
X190709394Y-105620821D01*
X190674694Y-105568889D01*
X190653816Y-105502215D01*
X190672300Y-105434835D01*
X190674676Y-105431136D01*
X190709394Y-105379179D01*
X190716181Y-105362792D01*
X190760022Y-105308389D01*
X190826316Y-105286323D01*
X190894015Y-105303601D01*
X190941626Y-105354738D01*
X190946925Y-105366911D01*
X190993702Y-105492328D01*
X190993706Y-105492335D01*
X191079952Y-105607544D01*
X191079955Y-105607547D01*
X191195164Y-105693793D01*
X191195171Y-105693797D01*
X191330017Y-105744091D01*
X191330016Y-105744091D01*
X191336944Y-105744835D01*
X191389627Y-105750500D01*
X193185372Y-105750499D01*
X193244983Y-105744091D01*
X193379831Y-105693796D01*
X193495046Y-105607546D01*
X193581296Y-105492331D01*
X193631591Y-105357483D01*
X193638000Y-105297873D01*
X193637999Y-103502128D01*
X193631591Y-103442517D01*
X193623623Y-103421155D01*
X193581297Y-103307671D01*
X193581293Y-103307664D01*
X193495047Y-103192455D01*
X193495044Y-103192452D01*
X193379835Y-103106206D01*
X193379828Y-103106202D01*
X193244982Y-103055908D01*
X193244983Y-103055908D01*
X193185383Y-103049501D01*
X193185381Y-103049500D01*
X193185373Y-103049500D01*
X193185364Y-103049500D01*
X191389629Y-103049500D01*
X191389623Y-103049501D01*
X191330016Y-103055908D01*
X191195171Y-103106202D01*
X191195164Y-103106206D01*
X191079955Y-103192452D01*
X190996095Y-103304473D01*
X190940161Y-103346343D01*
X190870469Y-103351327D01*
X190809146Y-103317841D01*
X190775662Y-103256517D01*
X190775212Y-103205972D01*
X190795058Y-103106202D01*
X190800500Y-103078844D01*
X190800500Y-102924500D01*
X190820185Y-102857461D01*
X190872989Y-102811706D01*
X190924500Y-102800500D01*
X191078844Y-102800500D01*
X191078845Y-102800499D01*
X191233497Y-102769737D01*
X191379179Y-102709394D01*
X191510289Y-102621789D01*
X191621789Y-102510289D01*
X191709394Y-102379179D01*
X191769737Y-102233497D01*
X191800500Y-102078842D01*
X191800500Y-101921158D01*
X191800500Y-101921155D01*
X191800499Y-101921153D01*
X191776499Y-101800500D01*
X191769737Y-101766503D01*
X191756062Y-101733489D01*
X191709396Y-101620825D01*
X191709394Y-101620822D01*
X191709394Y-101620821D01*
X191674694Y-101568889D01*
X191653816Y-101502215D01*
X191672300Y-101434835D01*
X191674676Y-101431136D01*
X191709394Y-101379179D01*
X191769737Y-101233497D01*
X191800500Y-101078842D01*
X191800500Y-100921158D01*
X191800500Y-100921155D01*
X191800499Y-100921153D01*
X191769738Y-100766510D01*
X191769737Y-100766503D01*
X191746080Y-100709390D01*
X191709396Y-100620825D01*
X191709394Y-100620822D01*
X191709394Y-100620821D01*
X191674694Y-100568889D01*
X191653816Y-100502215D01*
X191672300Y-100434835D01*
X191674676Y-100431136D01*
X191709394Y-100379179D01*
X191769737Y-100233497D01*
X191800500Y-100078842D01*
X191800500Y-99921158D01*
X191800500Y-99921155D01*
X191800499Y-99921153D01*
X191774531Y-99790606D01*
X191769737Y-99766503D01*
X191746080Y-99709390D01*
X191709396Y-99620825D01*
X191709394Y-99620822D01*
X191709394Y-99620821D01*
X191674694Y-99568889D01*
X191653816Y-99502215D01*
X191672300Y-99434835D01*
X191674676Y-99431136D01*
X191709394Y-99379179D01*
X191769737Y-99233497D01*
X191800500Y-99078842D01*
X191800500Y-98921158D01*
X191800500Y-98921155D01*
X191800499Y-98921153D01*
X191776499Y-98800500D01*
X191769737Y-98766503D01*
X191756062Y-98733489D01*
X191709396Y-98620825D01*
X191709394Y-98620822D01*
X191709394Y-98620821D01*
X191674694Y-98568889D01*
X191653816Y-98502215D01*
X191672300Y-98434835D01*
X191674676Y-98431136D01*
X191709394Y-98379179D01*
X191769737Y-98233497D01*
X191800500Y-98078842D01*
X191800500Y-97921158D01*
X191800500Y-97921155D01*
X191800499Y-97921153D01*
X191791957Y-97878210D01*
X191769737Y-97766503D01*
X191746080Y-97709390D01*
X191709396Y-97620825D01*
X191709394Y-97620822D01*
X191709394Y-97620821D01*
X191674694Y-97568889D01*
X191653816Y-97502215D01*
X191672300Y-97434835D01*
X191674676Y-97431136D01*
X191709394Y-97379179D01*
X191769737Y-97233497D01*
X191800500Y-97078842D01*
X191800500Y-96921158D01*
X191800500Y-96921155D01*
X191800499Y-96921153D01*
X191782937Y-96832863D01*
X191769737Y-96766503D01*
X191762901Y-96750000D01*
X191709397Y-96620827D01*
X191709390Y-96620814D01*
X191621789Y-96489711D01*
X191621786Y-96489707D01*
X191510292Y-96378213D01*
X191510288Y-96378210D01*
X191379185Y-96290609D01*
X191379172Y-96290602D01*
X191233501Y-96230264D01*
X191233489Y-96230261D01*
X191078845Y-96199500D01*
X191078842Y-96199500D01*
X190921158Y-96199500D01*
X190921155Y-96199500D01*
X190766510Y-96230261D01*
X190766498Y-96230264D01*
X190620827Y-96290602D01*
X190620814Y-96290609D01*
X190568891Y-96325304D01*
X190502214Y-96346182D01*
X190434833Y-96327698D01*
X190431109Y-96325304D01*
X190379185Y-96290609D01*
X190379172Y-96290602D01*
X190233501Y-96230264D01*
X190233489Y-96230261D01*
X190078845Y-96199500D01*
X190078842Y-96199500D01*
X189921158Y-96199500D01*
X189921155Y-96199500D01*
X189766510Y-96230261D01*
X189766498Y-96230264D01*
X189620827Y-96290602D01*
X189620814Y-96290609D01*
X189489711Y-96378210D01*
X189489707Y-96378213D01*
X189378213Y-96489707D01*
X189353102Y-96527289D01*
X189299489Y-96572093D01*
X189230164Y-96580800D01*
X189167137Y-96550645D01*
X189146898Y-96527289D01*
X189121786Y-96489707D01*
X189010292Y-96378213D01*
X189010288Y-96378210D01*
X188879185Y-96290609D01*
X188879179Y-96290606D01*
X188861589Y-96283320D01*
X188807186Y-96239478D01*
X188785122Y-96173184D01*
X188787425Y-96144571D01*
X188800500Y-96078842D01*
X188800500Y-95924500D01*
X188820185Y-95857461D01*
X188872989Y-95811706D01*
X188924500Y-95800500D01*
X189078844Y-95800500D01*
X189078845Y-95800499D01*
X189233497Y-95769737D01*
X189379179Y-95709394D01*
X189510289Y-95621789D01*
X189621789Y-95510289D01*
X189709394Y-95379179D01*
X189769737Y-95233497D01*
X189800500Y-95078842D01*
X189800500Y-94921158D01*
X189800500Y-94921155D01*
X189800499Y-94921153D01*
X189769738Y-94766510D01*
X189769737Y-94766503D01*
X189746080Y-94709390D01*
X189709397Y-94620827D01*
X189709390Y-94620814D01*
X189621789Y-94489711D01*
X189621786Y-94489707D01*
X189510292Y-94378213D01*
X189510288Y-94378210D01*
X189379185Y-94290609D01*
X189379172Y-94290602D01*
X189233501Y-94230264D01*
X189233489Y-94230261D01*
X189078845Y-94199500D01*
X189078842Y-94199500D01*
X188921158Y-94199500D01*
X188921155Y-94199500D01*
X188766510Y-94230261D01*
X188766502Y-94230263D01*
X188719878Y-94249575D01*
X188650408Y-94257042D01*
X188587930Y-94225766D01*
X188552278Y-94165677D01*
X188554773Y-94095852D01*
X188584747Y-94047331D01*
X188621786Y-94010292D01*
X188621789Y-94010289D01*
X188709394Y-93879179D01*
X188769737Y-93733497D01*
X188800500Y-93578842D01*
X188800500Y-93421158D01*
X188800500Y-93421155D01*
X188800499Y-93421153D01*
X188792150Y-93379179D01*
X188769737Y-93266503D01*
X188709794Y-93121786D01*
X188709396Y-93120825D01*
X188709394Y-93120822D01*
X188709394Y-93120821D01*
X188674694Y-93068889D01*
X188653816Y-93002215D01*
X188672300Y-92934835D01*
X188674676Y-92931136D01*
X188709394Y-92879179D01*
X188769737Y-92733497D01*
X188800500Y-92578842D01*
X188800500Y-92421158D01*
X188800500Y-92421155D01*
X188800499Y-92421153D01*
X188777596Y-92306014D01*
X188769737Y-92266503D01*
X188760229Y-92243549D01*
X188709396Y-92120825D01*
X188709394Y-92120822D01*
X188709394Y-92120821D01*
X188674694Y-92068889D01*
X188669603Y-92052632D01*
X188659954Y-92038590D01*
X188659379Y-92019981D01*
X188653816Y-92002215D01*
X188658311Y-91985400D01*
X188657797Y-91968754D01*
X188670072Y-91941406D01*
X188671461Y-91936212D01*
X188673003Y-91933640D01*
X188681347Y-91921153D01*
X190199500Y-91921153D01*
X190199500Y-92078846D01*
X190230261Y-92233489D01*
X190230264Y-92233501D01*
X190290602Y-92379172D01*
X190290609Y-92379185D01*
X190378210Y-92510288D01*
X190378213Y-92510292D01*
X190489707Y-92621786D01*
X190489711Y-92621789D01*
X190620814Y-92709390D01*
X190620827Y-92709397D01*
X190758683Y-92766498D01*
X190766503Y-92769737D01*
X190882468Y-92792804D01*
X190921153Y-92800499D01*
X190921156Y-92800500D01*
X190921158Y-92800500D01*
X191078844Y-92800500D01*
X191078845Y-92800499D01*
X191233497Y-92769737D01*
X191379179Y-92709394D01*
X191510289Y-92621789D01*
X191621789Y-92510289D01*
X191709394Y-92379179D01*
X191769737Y-92233497D01*
X191800500Y-92078842D01*
X191800500Y-91921158D01*
X191800500Y-91921155D01*
X191800499Y-91921153D01*
X191774531Y-91790606D01*
X191769737Y-91766503D01*
X191754891Y-91730662D01*
X191709397Y-91620827D01*
X191709390Y-91620814D01*
X191621789Y-91489711D01*
X191621786Y-91489707D01*
X191510292Y-91378213D01*
X191510288Y-91378210D01*
X191379185Y-91290609D01*
X191379172Y-91290602D01*
X191233501Y-91230264D01*
X191233489Y-91230261D01*
X191078845Y-91199500D01*
X191078842Y-91199500D01*
X190921158Y-91199500D01*
X190921155Y-91199500D01*
X190766510Y-91230261D01*
X190766498Y-91230264D01*
X190620827Y-91290602D01*
X190620814Y-91290609D01*
X190489711Y-91378210D01*
X190489707Y-91378213D01*
X190378213Y-91489707D01*
X190378210Y-91489711D01*
X190290609Y-91620814D01*
X190290602Y-91620827D01*
X190230264Y-91766498D01*
X190230261Y-91766510D01*
X190199500Y-91921153D01*
X188681347Y-91921153D01*
X188709394Y-91879179D01*
X188769737Y-91733497D01*
X188800500Y-91578842D01*
X188800500Y-91421158D01*
X188800500Y-91421155D01*
X188800499Y-91421153D01*
X188774531Y-91290606D01*
X188769737Y-91266503D01*
X188756062Y-91233489D01*
X188709396Y-91120825D01*
X188709394Y-91120822D01*
X188709394Y-91120821D01*
X188674694Y-91068889D01*
X188653816Y-91002215D01*
X188672300Y-90934835D01*
X188674676Y-90931136D01*
X188709394Y-90879179D01*
X188769737Y-90733497D01*
X188800500Y-90578842D01*
X188800500Y-90421158D01*
X188800500Y-90421155D01*
X188800499Y-90421153D01*
X188782937Y-90332863D01*
X188769737Y-90266503D01*
X188756062Y-90233489D01*
X188709397Y-90120827D01*
X188709390Y-90120814D01*
X188621789Y-89989711D01*
X188621786Y-89989707D01*
X188510292Y-89878213D01*
X188510288Y-89878210D01*
X188379185Y-89790609D01*
X188379172Y-89790602D01*
X188233501Y-89730264D01*
X188233489Y-89730261D01*
X188078845Y-89699500D01*
X188078842Y-89699500D01*
X187921158Y-89699500D01*
X187921155Y-89699500D01*
X187766510Y-89730261D01*
X187766498Y-89730264D01*
X187620827Y-89790602D01*
X187620814Y-89790609D01*
X187489711Y-89878210D01*
X187489707Y-89878213D01*
X187378213Y-89989707D01*
X187378210Y-89989711D01*
X187290609Y-90120814D01*
X187290602Y-90120827D01*
X187230264Y-90266498D01*
X187230261Y-90266510D01*
X187199500Y-90421153D01*
X187199500Y-90578846D01*
X187230261Y-90733489D01*
X187230264Y-90733501D01*
X187290602Y-90879172D01*
X187290609Y-90879185D01*
X187325304Y-90931109D01*
X187346182Y-90997786D01*
X187327698Y-91065167D01*
X187325304Y-91068891D01*
X187290609Y-91120814D01*
X187290602Y-91120827D01*
X187230264Y-91266498D01*
X187230261Y-91266510D01*
X187199500Y-91421153D01*
X187199500Y-91578846D01*
X187230261Y-91733489D01*
X187230264Y-91733501D01*
X187290602Y-91879172D01*
X187290609Y-91879185D01*
X187325304Y-91931109D01*
X187346182Y-91997786D01*
X187327698Y-92065167D01*
X187325304Y-92068891D01*
X187290609Y-92120814D01*
X187290602Y-92120827D01*
X187230264Y-92266498D01*
X187230261Y-92266510D01*
X187199500Y-92421153D01*
X187199500Y-92578846D01*
X187230261Y-92733489D01*
X187230264Y-92733501D01*
X187290602Y-92879172D01*
X187290609Y-92879185D01*
X187325304Y-92931109D01*
X187346182Y-92997786D01*
X187327698Y-93065167D01*
X187325304Y-93068891D01*
X187290609Y-93120814D01*
X187290602Y-93120827D01*
X187230264Y-93266498D01*
X187230261Y-93266510D01*
X187199500Y-93421153D01*
X187199500Y-93578846D01*
X187212573Y-93644568D01*
X187206346Y-93714159D01*
X187163483Y-93769337D01*
X187138411Y-93783319D01*
X187120826Y-93790603D01*
X187120814Y-93790609D01*
X186989711Y-93878210D01*
X186989707Y-93878213D01*
X186878213Y-93989707D01*
X186878210Y-93989711D01*
X186790609Y-94120814D01*
X186790602Y-94120827D01*
X186730264Y-94266498D01*
X186730261Y-94266510D01*
X186699500Y-94421153D01*
X186699500Y-94578846D01*
X186730261Y-94733489D01*
X186730264Y-94733501D01*
X186790602Y-94879172D01*
X186790609Y-94879185D01*
X186878210Y-95010288D01*
X186878213Y-95010292D01*
X186989707Y-95121786D01*
X186989711Y-95121789D01*
X187120814Y-95209390D01*
X187120827Y-95209397D01*
X187234425Y-95256450D01*
X187266503Y-95269737D01*
X187293423Y-95275091D01*
X187315624Y-95279508D01*
X187377535Y-95311892D01*
X187412109Y-95372608D01*
X187408370Y-95442377D01*
X187381706Y-95484697D01*
X187382076Y-95485001D01*
X187379661Y-95487942D01*
X187379123Y-95488798D01*
X187378212Y-95489708D01*
X187378210Y-95489711D01*
X187290609Y-95620814D01*
X187290602Y-95620827D01*
X187230264Y-95766498D01*
X187230261Y-95766510D01*
X187199500Y-95921153D01*
X187199500Y-96078846D01*
X187230261Y-96233489D01*
X187230264Y-96233501D01*
X187290602Y-96379172D01*
X187290609Y-96379185D01*
X187378210Y-96510288D01*
X187378213Y-96510292D01*
X187489707Y-96621786D01*
X187489711Y-96621789D01*
X187620817Y-96709392D01*
X187620819Y-96709393D01*
X187620821Y-96709394D01*
X187638409Y-96716679D01*
X187692812Y-96760520D01*
X187714877Y-96826814D01*
X187712573Y-96855431D01*
X187699500Y-96921153D01*
X187699500Y-97078846D01*
X187730261Y-97233489D01*
X187730264Y-97233501D01*
X187790602Y-97379172D01*
X187790609Y-97379185D01*
X187878210Y-97510288D01*
X187878213Y-97510292D01*
X187989707Y-97621786D01*
X187989711Y-97621789D01*
X188120814Y-97709390D01*
X188120827Y-97709397D01*
X188234425Y-97756450D01*
X188266503Y-97769737D01*
X188421153Y-97800499D01*
X188421156Y-97800500D01*
X188421158Y-97800500D01*
X188578844Y-97800500D01*
X188578845Y-97800499D01*
X188733497Y-97769737D01*
X188879179Y-97709394D01*
X189010289Y-97621789D01*
X189121789Y-97510289D01*
X189135539Y-97489711D01*
X189146898Y-97472712D01*
X189200510Y-97427906D01*
X189269835Y-97419199D01*
X189332862Y-97449353D01*
X189353102Y-97472712D01*
X189378207Y-97510284D01*
X189378213Y-97510292D01*
X189489707Y-97621786D01*
X189489711Y-97621789D01*
X189620814Y-97709390D01*
X189620827Y-97709397D01*
X189734425Y-97756450D01*
X189766503Y-97769737D01*
X189921153Y-97800499D01*
X189921156Y-97800500D01*
X190075500Y-97800500D01*
X190142539Y-97820185D01*
X190188294Y-97872989D01*
X190199500Y-97924500D01*
X190199500Y-98078846D01*
X190230261Y-98233489D01*
X190230264Y-98233501D01*
X190290602Y-98379172D01*
X190290609Y-98379185D01*
X190325304Y-98431109D01*
X190346182Y-98497786D01*
X190327698Y-98565167D01*
X190325304Y-98568891D01*
X190290609Y-98620814D01*
X190290602Y-98620827D01*
X190230264Y-98766498D01*
X190230261Y-98766510D01*
X190199500Y-98921153D01*
X190199500Y-99078846D01*
X190230261Y-99233489D01*
X190230264Y-99233501D01*
X190290602Y-99379172D01*
X190290609Y-99379185D01*
X190325304Y-99431109D01*
X190346182Y-99497786D01*
X190327698Y-99565167D01*
X190325304Y-99568891D01*
X190290609Y-99620814D01*
X190290602Y-99620827D01*
X190230264Y-99766498D01*
X190230261Y-99766510D01*
X190199500Y-99921153D01*
X190199500Y-100078846D01*
X190230261Y-100233489D01*
X190230264Y-100233501D01*
X190290602Y-100379172D01*
X190290609Y-100379185D01*
X190325304Y-100431109D01*
X190346182Y-100497786D01*
X190327698Y-100565167D01*
X190325304Y-100568891D01*
X190290609Y-100620814D01*
X190290602Y-100620827D01*
X190230264Y-100766498D01*
X190230261Y-100766510D01*
X190199500Y-100921153D01*
X190199500Y-101078846D01*
X190230261Y-101233489D01*
X190230264Y-101233501D01*
X190290602Y-101379172D01*
X190290609Y-101379185D01*
X190325304Y-101431109D01*
X190346182Y-101497786D01*
X190327698Y-101565167D01*
X190325304Y-101568891D01*
X190290609Y-101620814D01*
X190290602Y-101620827D01*
X190230264Y-101766498D01*
X190230261Y-101766510D01*
X190199500Y-101921153D01*
X190199500Y-102075500D01*
X190179815Y-102142539D01*
X190127011Y-102188294D01*
X190075500Y-102199500D01*
X189921155Y-102199500D01*
X189766510Y-102230261D01*
X189766498Y-102230264D01*
X189620827Y-102290602D01*
X189620814Y-102290609D01*
X189489711Y-102378210D01*
X189489707Y-102378213D01*
X189378213Y-102489707D01*
X189378210Y-102489711D01*
X189290609Y-102620814D01*
X189290602Y-102620827D01*
X189230264Y-102766498D01*
X189230261Y-102766510D01*
X189199500Y-102921153D01*
X189199500Y-103078846D01*
X189230261Y-103233489D01*
X189230264Y-103233501D01*
X189290602Y-103379172D01*
X189290609Y-103379185D01*
X189325304Y-103431109D01*
X189346182Y-103497786D01*
X189327698Y-103565167D01*
X189325304Y-103568891D01*
X189290609Y-103620814D01*
X189290602Y-103620827D01*
X189230264Y-103766498D01*
X189230261Y-103766510D01*
X189199500Y-103921153D01*
X189199500Y-104078846D01*
X189230261Y-104233489D01*
X189230264Y-104233501D01*
X189290602Y-104379172D01*
X189290609Y-104379185D01*
X189325304Y-104431109D01*
X189346182Y-104497786D01*
X189327698Y-104565167D01*
X189325304Y-104568891D01*
X189290609Y-104620814D01*
X189290602Y-104620827D01*
X189230264Y-104766498D01*
X189230261Y-104766510D01*
X189199500Y-104921153D01*
X189199500Y-105078846D01*
X189230261Y-105233489D01*
X189230264Y-105233501D01*
X189290602Y-105379172D01*
X189290609Y-105379185D01*
X189325304Y-105431109D01*
X189346182Y-105497786D01*
X189327698Y-105565167D01*
X189325304Y-105568891D01*
X189290609Y-105620814D01*
X189290602Y-105620827D01*
X189230264Y-105766498D01*
X189230261Y-105766510D01*
X189199500Y-105921153D01*
X189199500Y-106078846D01*
X189230261Y-106233489D01*
X189230264Y-106233501D01*
X189290602Y-106379172D01*
X189290609Y-106379185D01*
X189325304Y-106431109D01*
X189346182Y-106497786D01*
X189327698Y-106565167D01*
X189325304Y-106568891D01*
X189290609Y-106620814D01*
X189290602Y-106620827D01*
X189230264Y-106766498D01*
X189230261Y-106766510D01*
X189199500Y-106921153D01*
X189199500Y-107078846D01*
X189230261Y-107233489D01*
X189230264Y-107233501D01*
X189290602Y-107379172D01*
X189290609Y-107379185D01*
X189378210Y-107510288D01*
X189378213Y-107510292D01*
X189489707Y-107621786D01*
X189489711Y-107621789D01*
X189620814Y-107709390D01*
X189620827Y-107709397D01*
X189745262Y-107760939D01*
X189799666Y-107804779D01*
X189821731Y-107871074D01*
X189804452Y-107938773D01*
X189753315Y-107986384D01*
X189697810Y-107999500D01*
X187802190Y-107999500D01*
X187735151Y-107979815D01*
X187689396Y-107927011D01*
X187679452Y-107857853D01*
X187708477Y-107794297D01*
X187754738Y-107760939D01*
X187879172Y-107709397D01*
X187879172Y-107709396D01*
X187879179Y-107709394D01*
X188010289Y-107621789D01*
X188121789Y-107510289D01*
X188209394Y-107379179D01*
X188269737Y-107233497D01*
X188300500Y-107078842D01*
X188300500Y-106921158D01*
X188300500Y-106921155D01*
X188300499Y-106921153D01*
X188292148Y-106879172D01*
X188269737Y-106766503D01*
X188256062Y-106733489D01*
X188209397Y-106620827D01*
X188209390Y-106620814D01*
X188121789Y-106489711D01*
X188121786Y-106489707D01*
X188010292Y-106378213D01*
X188010288Y-106378210D01*
X187879185Y-106290609D01*
X187879172Y-106290602D01*
X187733501Y-106230264D01*
X187733489Y-106230261D01*
X187578845Y-106199500D01*
X187578842Y-106199500D01*
X187424500Y-106199500D01*
X187357461Y-106179815D01*
X187311706Y-106127011D01*
X187300500Y-106075500D01*
X187300500Y-105921155D01*
X187300499Y-105921153D01*
X187285292Y-105844702D01*
X187269737Y-105766503D01*
X187269735Y-105766498D01*
X187209397Y-105620827D01*
X187209390Y-105620814D01*
X187121789Y-105489711D01*
X187121786Y-105489707D01*
X187010292Y-105378213D01*
X187010288Y-105378210D01*
X186879185Y-105290609D01*
X186879172Y-105290602D01*
X186733501Y-105230264D01*
X186733489Y-105230261D01*
X186578845Y-105199500D01*
X186578842Y-105199500D01*
X186421158Y-105199500D01*
X186421155Y-105199500D01*
X186266510Y-105230261D01*
X186266498Y-105230264D01*
X186120827Y-105290602D01*
X186120814Y-105290609D01*
X185989711Y-105378210D01*
X185989707Y-105378213D01*
X185878213Y-105489707D01*
X185878210Y-105489711D01*
X185790609Y-105620814D01*
X185790602Y-105620827D01*
X185730264Y-105766498D01*
X185730261Y-105766510D01*
X185699500Y-105921153D01*
X185699500Y-106078846D01*
X185730261Y-106233489D01*
X185730264Y-106233501D01*
X185790602Y-106379172D01*
X185790609Y-106379185D01*
X185878210Y-106510288D01*
X185878213Y-106510292D01*
X185989707Y-106621786D01*
X185989711Y-106621789D01*
X186120814Y-106709390D01*
X186120827Y-106709397D01*
X186258683Y-106766498D01*
X186266503Y-106769737D01*
X186421153Y-106800499D01*
X186421156Y-106800500D01*
X186575500Y-106800500D01*
X186642539Y-106820185D01*
X186688294Y-106872989D01*
X186699500Y-106924500D01*
X186699500Y-107078846D01*
X186730261Y-107233489D01*
X186730264Y-107233501D01*
X186790602Y-107379172D01*
X186790609Y-107379185D01*
X186878210Y-107510288D01*
X186878213Y-107510292D01*
X186989707Y-107621786D01*
X186989711Y-107621789D01*
X187120814Y-107709390D01*
X187120827Y-107709397D01*
X187245262Y-107760939D01*
X187299666Y-107804779D01*
X187321731Y-107871074D01*
X187304452Y-107938773D01*
X187253315Y-107986384D01*
X187197810Y-107999500D01*
X166503051Y-107999500D01*
X166496968Y-107999351D01*
X166476900Y-107998365D01*
X166163071Y-107982947D01*
X166150962Y-107981754D01*
X165823305Y-107933151D01*
X165811369Y-107930777D01*
X165490055Y-107850292D01*
X165478411Y-107846759D01*
X165166540Y-107735170D01*
X165155301Y-107730515D01*
X164855844Y-107588883D01*
X164845121Y-107583150D01*
X164642498Y-107461703D01*
X164561011Y-107412862D01*
X164550893Y-107406102D01*
X164284829Y-107208775D01*
X164275423Y-107201055D01*
X164201710Y-107134246D01*
X164029986Y-106978604D01*
X164021395Y-106970013D01*
X163798944Y-106724576D01*
X163791224Y-106715170D01*
X163593895Y-106449103D01*
X163587137Y-106438988D01*
X163576450Y-106421158D01*
X163416844Y-106154871D01*
X163411120Y-106144163D01*
X163269479Y-105844688D01*
X163264829Y-105833459D01*
X163261911Y-105825304D01*
X163173726Y-105578842D01*
X163153240Y-105521588D01*
X163149707Y-105509944D01*
X163147771Y-105502215D01*
X163127466Y-105421153D01*
X164199500Y-105421153D01*
X164199500Y-105578846D01*
X164230261Y-105733489D01*
X164230264Y-105733501D01*
X164290602Y-105879172D01*
X164290609Y-105879185D01*
X164378210Y-106010288D01*
X164378213Y-106010292D01*
X164489707Y-106121786D01*
X164489711Y-106121789D01*
X164620814Y-106209390D01*
X164620827Y-106209397D01*
X164758683Y-106266498D01*
X164766503Y-106269737D01*
X164921153Y-106300499D01*
X164921156Y-106300500D01*
X164921158Y-106300500D01*
X165078844Y-106300500D01*
X165078845Y-106300499D01*
X165233497Y-106269737D01*
X165379179Y-106209394D01*
X165510289Y-106121789D01*
X165511186Y-106120891D01*
X165511773Y-106120571D01*
X165514999Y-106117924D01*
X165515500Y-106118535D01*
X165572504Y-106087402D01*
X165642196Y-106092380D01*
X165698134Y-106134246D01*
X165720491Y-106184374D01*
X165730261Y-106233491D01*
X165730264Y-106233501D01*
X165790602Y-106379172D01*
X165790609Y-106379185D01*
X165878210Y-106510288D01*
X165878213Y-106510292D01*
X165989707Y-106621786D01*
X165989711Y-106621789D01*
X166120814Y-106709390D01*
X166120827Y-106709397D01*
X166258683Y-106766498D01*
X166266503Y-106769737D01*
X166421153Y-106800499D01*
X166421156Y-106800500D01*
X166421158Y-106800500D01*
X166578844Y-106800500D01*
X166578845Y-106800499D01*
X166733497Y-106769737D01*
X166856343Y-106718853D01*
X166879172Y-106709397D01*
X166879172Y-106709396D01*
X166879179Y-106709394D01*
X167010289Y-106621789D01*
X167121789Y-106510289D01*
X167209394Y-106379179D01*
X167269737Y-106233497D01*
X167300500Y-106078842D01*
X167300500Y-105921158D01*
X167300500Y-105921155D01*
X167300499Y-105921153D01*
X167699500Y-105921153D01*
X167699500Y-106078846D01*
X167730261Y-106233489D01*
X167730264Y-106233501D01*
X167790602Y-106379172D01*
X167790609Y-106379185D01*
X167878210Y-106510288D01*
X167878213Y-106510292D01*
X167989707Y-106621786D01*
X167989711Y-106621789D01*
X168120814Y-106709390D01*
X168120827Y-106709397D01*
X168258683Y-106766498D01*
X168266503Y-106769737D01*
X168421153Y-106800499D01*
X168421156Y-106800500D01*
X168421158Y-106800500D01*
X168578844Y-106800500D01*
X168578845Y-106800499D01*
X168733497Y-106769737D01*
X168856343Y-106718853D01*
X168879172Y-106709397D01*
X168879172Y-106709396D01*
X168879179Y-106709394D01*
X169010289Y-106621789D01*
X169121789Y-106510289D01*
X169181348Y-106421153D01*
X170699500Y-106421153D01*
X170699500Y-106578846D01*
X170730261Y-106733489D01*
X170730264Y-106733501D01*
X170790602Y-106879172D01*
X170790609Y-106879185D01*
X170878210Y-107010288D01*
X170878213Y-107010292D01*
X170989707Y-107121786D01*
X170989711Y-107121789D01*
X171120814Y-107209390D01*
X171120827Y-107209397D01*
X171256450Y-107265573D01*
X171266503Y-107269737D01*
X171421153Y-107300499D01*
X171421156Y-107300500D01*
X171421158Y-107300500D01*
X171578844Y-107300500D01*
X171578845Y-107300499D01*
X171733497Y-107269737D01*
X171879179Y-107209394D01*
X172010289Y-107121789D01*
X172121789Y-107010289D01*
X172142956Y-106978611D01*
X172146898Y-106972712D01*
X172200510Y-106927906D01*
X172269835Y-106919199D01*
X172332862Y-106949353D01*
X172353102Y-106972712D01*
X172378207Y-107010284D01*
X172378213Y-107010292D01*
X172489707Y-107121786D01*
X172489711Y-107121789D01*
X172620814Y-107209390D01*
X172620827Y-107209397D01*
X172756450Y-107265573D01*
X172766503Y-107269737D01*
X172921153Y-107300499D01*
X172921156Y-107300500D01*
X172921158Y-107300500D01*
X173078844Y-107300500D01*
X173078845Y-107300499D01*
X173233497Y-107269737D01*
X173379179Y-107209394D01*
X173510289Y-107121789D01*
X173621789Y-107010289D01*
X173642956Y-106978611D01*
X173646898Y-106972712D01*
X173700510Y-106927906D01*
X173769835Y-106919199D01*
X173832862Y-106949353D01*
X173853102Y-106972712D01*
X173878207Y-107010284D01*
X173878213Y-107010292D01*
X173989707Y-107121786D01*
X173989711Y-107121789D01*
X174120814Y-107209390D01*
X174120827Y-107209397D01*
X174256450Y-107265573D01*
X174266503Y-107269737D01*
X174421153Y-107300499D01*
X174421156Y-107300500D01*
X174421158Y-107300500D01*
X174578844Y-107300500D01*
X174578845Y-107300499D01*
X174733497Y-107269737D01*
X174879179Y-107209394D01*
X174931110Y-107174694D01*
X174997785Y-107153816D01*
X175065165Y-107172300D01*
X175068863Y-107174676D01*
X175120821Y-107209394D01*
X175120823Y-107209395D01*
X175120825Y-107209396D01*
X175256450Y-107265573D01*
X175266503Y-107269737D01*
X175421153Y-107300499D01*
X175421156Y-107300500D01*
X175421158Y-107300500D01*
X175578844Y-107300500D01*
X175578845Y-107300499D01*
X175733497Y-107269737D01*
X175879179Y-107209394D01*
X176010289Y-107121789D01*
X176121789Y-107010289D01*
X176142956Y-106978611D01*
X176146898Y-106972712D01*
X176200510Y-106927906D01*
X176269835Y-106919199D01*
X176332862Y-106949353D01*
X176353102Y-106972712D01*
X176378207Y-107010284D01*
X176378213Y-107010292D01*
X176489707Y-107121786D01*
X176489711Y-107121789D01*
X176620814Y-107209390D01*
X176620827Y-107209397D01*
X176756450Y-107265573D01*
X176766503Y-107269737D01*
X176921153Y-107300499D01*
X176921156Y-107300500D01*
X176921158Y-107300500D01*
X177078844Y-107300500D01*
X177078845Y-107300499D01*
X177233497Y-107269737D01*
X177379179Y-107209394D01*
X177510289Y-107121789D01*
X177621789Y-107010289D01*
X177642956Y-106978611D01*
X177646898Y-106972712D01*
X177700510Y-106927906D01*
X177769835Y-106919199D01*
X177832862Y-106949353D01*
X177853102Y-106972712D01*
X177878207Y-107010284D01*
X177878213Y-107010292D01*
X177989707Y-107121786D01*
X177989711Y-107121789D01*
X178120814Y-107209390D01*
X178120827Y-107209397D01*
X178256450Y-107265573D01*
X178266503Y-107269737D01*
X178421153Y-107300499D01*
X178421156Y-107300500D01*
X178421158Y-107300500D01*
X178578844Y-107300500D01*
X178578845Y-107300499D01*
X178733497Y-107269737D01*
X178879179Y-107209394D01*
X179010289Y-107121789D01*
X179121789Y-107010289D01*
X179142956Y-106978611D01*
X179146898Y-106972712D01*
X179200510Y-106927906D01*
X179269835Y-106919199D01*
X179332862Y-106949353D01*
X179353102Y-106972712D01*
X179378207Y-107010284D01*
X179378213Y-107010292D01*
X179489707Y-107121786D01*
X179489711Y-107121789D01*
X179620814Y-107209390D01*
X179620827Y-107209397D01*
X179756450Y-107265573D01*
X179766503Y-107269737D01*
X179921153Y-107300499D01*
X179921156Y-107300500D01*
X179921158Y-107300500D01*
X180078844Y-107300500D01*
X180078845Y-107300499D01*
X180233497Y-107269737D01*
X180379179Y-107209394D01*
X180510289Y-107121789D01*
X180621789Y-107010289D01*
X180709394Y-106879179D01*
X180769737Y-106733497D01*
X180800500Y-106578842D01*
X180800500Y-106421158D01*
X180800500Y-106421155D01*
X180800499Y-106421153D01*
X181199500Y-106421153D01*
X181199500Y-106578846D01*
X181230261Y-106733489D01*
X181230264Y-106733501D01*
X181290602Y-106879172D01*
X181290609Y-106879185D01*
X181378210Y-107010288D01*
X181378213Y-107010292D01*
X181489707Y-107121786D01*
X181489711Y-107121789D01*
X181620814Y-107209390D01*
X181620827Y-107209397D01*
X181756450Y-107265573D01*
X181766503Y-107269737D01*
X181921153Y-107300499D01*
X181921156Y-107300500D01*
X181921158Y-107300500D01*
X182078844Y-107300500D01*
X182078845Y-107300499D01*
X182233497Y-107269737D01*
X182379179Y-107209394D01*
X182510289Y-107121789D01*
X182621789Y-107010289D01*
X182709394Y-106879179D01*
X182769737Y-106733497D01*
X182800500Y-106578842D01*
X182800500Y-106421158D01*
X182800500Y-106421155D01*
X182800499Y-106421153D01*
X183699500Y-106421153D01*
X183699500Y-106578846D01*
X183730261Y-106733489D01*
X183730264Y-106733501D01*
X183790602Y-106879172D01*
X183790609Y-106879185D01*
X183878210Y-107010288D01*
X183878213Y-107010292D01*
X183989707Y-107121786D01*
X183989711Y-107121789D01*
X184120814Y-107209390D01*
X184120827Y-107209397D01*
X184256450Y-107265573D01*
X184266503Y-107269737D01*
X184421153Y-107300499D01*
X184421156Y-107300500D01*
X184421158Y-107300500D01*
X184578844Y-107300500D01*
X184578845Y-107300499D01*
X184733497Y-107269737D01*
X184879179Y-107209394D01*
X185010289Y-107121789D01*
X185121789Y-107010289D01*
X185209394Y-106879179D01*
X185269737Y-106733497D01*
X185300500Y-106578842D01*
X185300500Y-106421158D01*
X185300500Y-106421155D01*
X185300499Y-106421153D01*
X185282937Y-106332863D01*
X185269737Y-106266503D01*
X185262901Y-106250000D01*
X185209397Y-106120827D01*
X185209390Y-106120814D01*
X185121789Y-105989711D01*
X185121786Y-105989707D01*
X185010292Y-105878213D01*
X185010288Y-105878210D01*
X184879185Y-105790609D01*
X184879172Y-105790602D01*
X184733501Y-105730264D01*
X184733489Y-105730261D01*
X184578845Y-105699500D01*
X184578842Y-105699500D01*
X184421158Y-105699500D01*
X184421155Y-105699500D01*
X184266510Y-105730261D01*
X184266498Y-105730264D01*
X184120827Y-105790602D01*
X184120814Y-105790609D01*
X183989711Y-105878210D01*
X183989707Y-105878213D01*
X183878213Y-105989707D01*
X183878210Y-105989711D01*
X183790609Y-106120814D01*
X183790602Y-106120827D01*
X183730264Y-106266498D01*
X183730261Y-106266510D01*
X183699500Y-106421153D01*
X182800499Y-106421153D01*
X182782937Y-106332863D01*
X182769737Y-106266503D01*
X182762901Y-106250000D01*
X182709397Y-106120827D01*
X182709390Y-106120814D01*
X182621789Y-105989711D01*
X182621786Y-105989707D01*
X182510292Y-105878213D01*
X182510288Y-105878210D01*
X182379185Y-105790609D01*
X182379172Y-105790602D01*
X182233501Y-105730264D01*
X182233489Y-105730261D01*
X182078845Y-105699500D01*
X182078842Y-105699500D01*
X181921158Y-105699500D01*
X181921155Y-105699500D01*
X181766510Y-105730261D01*
X181766498Y-105730264D01*
X181620827Y-105790602D01*
X181620814Y-105790609D01*
X181489711Y-105878210D01*
X181489707Y-105878213D01*
X181378213Y-105989707D01*
X181378210Y-105989711D01*
X181290609Y-106120814D01*
X181290602Y-106120827D01*
X181230264Y-106266498D01*
X181230261Y-106266510D01*
X181199500Y-106421153D01*
X180800499Y-106421153D01*
X180782937Y-106332863D01*
X180769737Y-106266503D01*
X180762901Y-106250000D01*
X180709397Y-106120827D01*
X180709390Y-106120814D01*
X180621789Y-105989711D01*
X180621786Y-105989707D01*
X180510292Y-105878213D01*
X180510288Y-105878210D01*
X180379185Y-105790609D01*
X180379172Y-105790602D01*
X180233501Y-105730264D01*
X180233489Y-105730261D01*
X180078845Y-105699500D01*
X180078842Y-105699500D01*
X179921158Y-105699500D01*
X179921155Y-105699500D01*
X179766510Y-105730261D01*
X179766498Y-105730264D01*
X179620827Y-105790602D01*
X179620814Y-105790609D01*
X179489711Y-105878210D01*
X179489707Y-105878213D01*
X179378213Y-105989707D01*
X179353102Y-106027289D01*
X179299489Y-106072093D01*
X179230164Y-106080800D01*
X179167137Y-106050645D01*
X179146898Y-106027289D01*
X179128664Y-106000000D01*
X179121789Y-105989711D01*
X179121788Y-105989710D01*
X179121786Y-105989707D01*
X179010292Y-105878213D01*
X179010288Y-105878210D01*
X178879185Y-105790609D01*
X178879172Y-105790602D01*
X178733501Y-105730264D01*
X178733489Y-105730261D01*
X178578845Y-105699500D01*
X178578842Y-105699500D01*
X178421158Y-105699500D01*
X178421155Y-105699500D01*
X178266510Y-105730261D01*
X178266498Y-105730264D01*
X178120827Y-105790602D01*
X178120814Y-105790609D01*
X177989711Y-105878210D01*
X177989707Y-105878213D01*
X177878213Y-105989707D01*
X177853102Y-106027289D01*
X177799489Y-106072093D01*
X177730164Y-106080800D01*
X177667137Y-106050645D01*
X177646898Y-106027289D01*
X177628664Y-106000000D01*
X177621789Y-105989711D01*
X177621788Y-105989710D01*
X177621786Y-105989707D01*
X177510292Y-105878213D01*
X177510288Y-105878210D01*
X177379185Y-105790609D01*
X177379172Y-105790602D01*
X177233501Y-105730264D01*
X177233489Y-105730261D01*
X177078845Y-105699500D01*
X177078842Y-105699500D01*
X176921158Y-105699500D01*
X176921155Y-105699500D01*
X176766510Y-105730261D01*
X176766498Y-105730264D01*
X176620827Y-105790602D01*
X176620814Y-105790609D01*
X176489711Y-105878210D01*
X176489707Y-105878213D01*
X176378213Y-105989707D01*
X176353102Y-106027289D01*
X176299489Y-106072093D01*
X176230164Y-106080800D01*
X176167137Y-106050645D01*
X176146898Y-106027289D01*
X176128664Y-106000000D01*
X176121789Y-105989711D01*
X176121788Y-105989710D01*
X176121786Y-105989707D01*
X176010292Y-105878213D01*
X176010288Y-105878210D01*
X175879185Y-105790609D01*
X175879172Y-105790602D01*
X175733501Y-105730264D01*
X175733489Y-105730261D01*
X175578845Y-105699500D01*
X175578842Y-105699500D01*
X175421158Y-105699500D01*
X175421155Y-105699500D01*
X175266510Y-105730261D01*
X175266498Y-105730264D01*
X175120827Y-105790602D01*
X175120814Y-105790609D01*
X175068891Y-105825304D01*
X175002214Y-105846182D01*
X174934833Y-105827698D01*
X174931109Y-105825304D01*
X174879185Y-105790609D01*
X174879172Y-105790602D01*
X174733501Y-105730264D01*
X174733489Y-105730261D01*
X174578845Y-105699500D01*
X174578842Y-105699500D01*
X174421158Y-105699500D01*
X174421155Y-105699500D01*
X174266510Y-105730261D01*
X174266498Y-105730264D01*
X174120827Y-105790602D01*
X174120814Y-105790609D01*
X173989711Y-105878210D01*
X173989707Y-105878213D01*
X173878213Y-105989707D01*
X173853102Y-106027289D01*
X173799489Y-106072093D01*
X173730164Y-106080800D01*
X173667137Y-106050645D01*
X173646898Y-106027289D01*
X173628664Y-106000000D01*
X173621789Y-105989711D01*
X173621788Y-105989710D01*
X173621786Y-105989707D01*
X173510292Y-105878213D01*
X173510288Y-105878210D01*
X173379185Y-105790609D01*
X173379172Y-105790602D01*
X173233501Y-105730264D01*
X173233489Y-105730261D01*
X173078845Y-105699500D01*
X173078842Y-105699500D01*
X172921158Y-105699500D01*
X172921155Y-105699500D01*
X172766510Y-105730261D01*
X172766498Y-105730264D01*
X172620827Y-105790602D01*
X172620814Y-105790609D01*
X172489711Y-105878210D01*
X172489707Y-105878213D01*
X172378213Y-105989707D01*
X172353102Y-106027289D01*
X172299489Y-106072093D01*
X172230164Y-106080800D01*
X172167137Y-106050645D01*
X172146898Y-106027289D01*
X172128664Y-106000000D01*
X172121789Y-105989711D01*
X172121788Y-105989710D01*
X172121786Y-105989707D01*
X172010292Y-105878213D01*
X172010288Y-105878210D01*
X171879185Y-105790609D01*
X171879172Y-105790602D01*
X171733501Y-105730264D01*
X171733489Y-105730261D01*
X171578845Y-105699500D01*
X171578842Y-105699500D01*
X171421158Y-105699500D01*
X171421155Y-105699500D01*
X171266510Y-105730261D01*
X171266498Y-105730264D01*
X171120827Y-105790602D01*
X171120814Y-105790609D01*
X170989711Y-105878210D01*
X170989707Y-105878213D01*
X170878213Y-105989707D01*
X170878210Y-105989711D01*
X170790609Y-106120814D01*
X170790602Y-106120827D01*
X170730264Y-106266498D01*
X170730261Y-106266510D01*
X170699500Y-106421153D01*
X169181348Y-106421153D01*
X169209394Y-106379179D01*
X169269737Y-106233497D01*
X169300500Y-106078842D01*
X169300500Y-105921158D01*
X169300500Y-105921155D01*
X169300499Y-105921153D01*
X169285292Y-105844702D01*
X169269737Y-105766503D01*
X169269735Y-105766498D01*
X169209397Y-105620827D01*
X169209390Y-105620814D01*
X169121789Y-105489711D01*
X169121786Y-105489707D01*
X169010292Y-105378213D01*
X169010288Y-105378210D01*
X168879185Y-105290609D01*
X168879172Y-105290602D01*
X168733501Y-105230264D01*
X168733489Y-105230261D01*
X168578845Y-105199500D01*
X168578842Y-105199500D01*
X168421158Y-105199500D01*
X168421155Y-105199500D01*
X168266510Y-105230261D01*
X168266498Y-105230264D01*
X168120827Y-105290602D01*
X168120814Y-105290609D01*
X167989711Y-105378210D01*
X167989707Y-105378213D01*
X167878213Y-105489707D01*
X167878210Y-105489711D01*
X167790609Y-105620814D01*
X167790602Y-105620827D01*
X167730264Y-105766498D01*
X167730261Y-105766510D01*
X167699500Y-105921153D01*
X167300499Y-105921153D01*
X167285292Y-105844702D01*
X167269737Y-105766503D01*
X167269735Y-105766498D01*
X167209397Y-105620827D01*
X167209390Y-105620814D01*
X167121789Y-105489711D01*
X167121786Y-105489707D01*
X167010292Y-105378213D01*
X167010288Y-105378210D01*
X166879185Y-105290609D01*
X166879172Y-105290602D01*
X166733501Y-105230264D01*
X166733489Y-105230261D01*
X166578845Y-105199500D01*
X166578842Y-105199500D01*
X166421158Y-105199500D01*
X166421155Y-105199500D01*
X166266510Y-105230261D01*
X166266498Y-105230264D01*
X166120827Y-105290602D01*
X166120814Y-105290609D01*
X165989711Y-105378210D01*
X165989708Y-105378212D01*
X165988798Y-105379123D01*
X165988204Y-105379446D01*
X165985001Y-105382076D01*
X165984502Y-105381468D01*
X165927471Y-105412602D01*
X165857780Y-105407611D01*
X165801851Y-105365734D01*
X165779508Y-105315624D01*
X165769738Y-105266509D01*
X165769737Y-105266503D01*
X165756062Y-105233489D01*
X165709397Y-105120827D01*
X165709390Y-105120814D01*
X165621789Y-104989711D01*
X165621786Y-104989707D01*
X165510292Y-104878213D01*
X165510288Y-104878210D01*
X165379185Y-104790609D01*
X165379172Y-104790602D01*
X165233501Y-104730264D01*
X165233489Y-104730261D01*
X165078845Y-104699500D01*
X165078842Y-104699500D01*
X164921158Y-104699500D01*
X164921155Y-104699500D01*
X164766510Y-104730261D01*
X164766498Y-104730264D01*
X164620827Y-104790602D01*
X164620814Y-104790609D01*
X164489711Y-104878210D01*
X164489707Y-104878213D01*
X164378213Y-104989707D01*
X164378210Y-104989711D01*
X164290609Y-105120814D01*
X164290602Y-105120827D01*
X164230264Y-105266498D01*
X164230261Y-105266510D01*
X164199500Y-105421153D01*
X163127466Y-105421153D01*
X163069220Y-105188621D01*
X163066848Y-105176694D01*
X163052333Y-105078844D01*
X163023091Y-104881704D01*
X163018245Y-104849037D01*
X163017052Y-104836927D01*
X163014776Y-104790606D01*
X163000649Y-104503032D01*
X163000500Y-104496948D01*
X163000500Y-69921153D01*
X163699500Y-69921153D01*
X163699500Y-70078846D01*
X163730261Y-70233489D01*
X163730264Y-70233501D01*
X163790602Y-70379172D01*
X163790609Y-70379185D01*
X163878210Y-70510288D01*
X163878213Y-70510292D01*
X163989707Y-70621786D01*
X163989711Y-70621789D01*
X164120814Y-70709390D01*
X164120827Y-70709397D01*
X164266498Y-70769735D01*
X164266503Y-70769737D01*
X164293423Y-70775091D01*
X164315624Y-70779508D01*
X164377535Y-70811892D01*
X164412109Y-70872608D01*
X164408370Y-70942377D01*
X164381706Y-70984697D01*
X164382076Y-70985001D01*
X164379661Y-70987942D01*
X164379123Y-70988798D01*
X164378212Y-70989708D01*
X164378210Y-70989711D01*
X164290609Y-71120814D01*
X164290602Y-71120827D01*
X164230264Y-71266498D01*
X164230261Y-71266510D01*
X164199500Y-71421153D01*
X164199500Y-71578846D01*
X164230261Y-71733489D01*
X164230264Y-71733501D01*
X164290602Y-71879172D01*
X164290609Y-71879185D01*
X164325304Y-71931109D01*
X164346182Y-71997786D01*
X164327698Y-72065167D01*
X164325304Y-72068891D01*
X164290609Y-72120814D01*
X164290602Y-72120827D01*
X164230264Y-72266498D01*
X164230261Y-72266510D01*
X164199500Y-72421153D01*
X164199500Y-72578846D01*
X164230261Y-72733489D01*
X164230264Y-72733501D01*
X164290602Y-72879172D01*
X164290609Y-72879185D01*
X164378210Y-73010288D01*
X164378213Y-73010292D01*
X164379114Y-73011193D01*
X164379435Y-73011780D01*
X164382076Y-73014999D01*
X164381465Y-73015499D01*
X164412599Y-73072516D01*
X164407615Y-73142208D01*
X164365743Y-73198141D01*
X164315626Y-73220491D01*
X164266507Y-73230261D01*
X164266498Y-73230264D01*
X164120827Y-73290602D01*
X164120814Y-73290609D01*
X163989711Y-73378210D01*
X163989707Y-73378213D01*
X163878213Y-73489707D01*
X163878210Y-73489711D01*
X163790609Y-73620814D01*
X163790602Y-73620827D01*
X163730264Y-73766498D01*
X163730261Y-73766510D01*
X163699500Y-73921153D01*
X163699500Y-74078846D01*
X163730261Y-74233489D01*
X163730264Y-74233501D01*
X163790602Y-74379172D01*
X163790609Y-74379185D01*
X163878210Y-74510288D01*
X163878213Y-74510292D01*
X163989707Y-74621786D01*
X163989710Y-74621788D01*
X163989711Y-74621789D01*
X164015219Y-74638833D01*
X164027289Y-74646898D01*
X164072093Y-74700511D01*
X164080800Y-74769836D01*
X164050645Y-74832863D01*
X164027289Y-74853102D01*
X163989707Y-74878213D01*
X163878213Y-74989707D01*
X163878210Y-74989711D01*
X163790609Y-75120814D01*
X163790602Y-75120827D01*
X163730264Y-75266498D01*
X163730261Y-75266510D01*
X163699500Y-75421153D01*
X163699500Y-75578846D01*
X163730261Y-75733489D01*
X163730264Y-75733501D01*
X163790602Y-75879172D01*
X163790609Y-75879185D01*
X163878210Y-76010288D01*
X163878213Y-76010292D01*
X163989707Y-76121786D01*
X163989711Y-76121789D01*
X164120814Y-76209390D01*
X164120827Y-76209397D01*
X164266498Y-76269735D01*
X164266503Y-76269737D01*
X164293423Y-76275091D01*
X164315624Y-76279508D01*
X164377535Y-76311892D01*
X164412109Y-76372608D01*
X164408370Y-76442377D01*
X164381706Y-76484697D01*
X164382076Y-76485001D01*
X164379661Y-76487942D01*
X164379123Y-76488798D01*
X164378212Y-76489708D01*
X164378210Y-76489711D01*
X164290609Y-76620814D01*
X164290602Y-76620827D01*
X164230264Y-76766498D01*
X164230261Y-76766510D01*
X164199500Y-76921153D01*
X164199500Y-77078846D01*
X164230261Y-77233489D01*
X164230264Y-77233501D01*
X164290602Y-77379172D01*
X164290609Y-77379185D01*
X164378210Y-77510288D01*
X164378213Y-77510292D01*
X164489707Y-77621786D01*
X164489710Y-77621788D01*
X164489711Y-77621789D01*
X164515219Y-77638833D01*
X164527289Y-77646898D01*
X164572093Y-77700511D01*
X164580800Y-77769836D01*
X164550645Y-77832863D01*
X164527289Y-77853102D01*
X164489707Y-77878213D01*
X164378213Y-77989707D01*
X164378210Y-77989711D01*
X164290609Y-78120814D01*
X164290602Y-78120827D01*
X164230264Y-78266498D01*
X164230261Y-78266510D01*
X164199500Y-78421153D01*
X164199500Y-78578846D01*
X164212573Y-78644568D01*
X164206346Y-78714159D01*
X164163483Y-78769337D01*
X164138411Y-78783319D01*
X164120826Y-78790603D01*
X164120814Y-78790609D01*
X163989711Y-78878210D01*
X163989707Y-78878213D01*
X163878213Y-78989707D01*
X163878210Y-78989711D01*
X163790609Y-79120814D01*
X163790602Y-79120827D01*
X163730264Y-79266498D01*
X163730261Y-79266510D01*
X163699500Y-79421153D01*
X163699500Y-79578846D01*
X163730261Y-79733489D01*
X163730264Y-79733501D01*
X163790602Y-79879172D01*
X163790609Y-79879185D01*
X163878210Y-80010288D01*
X163878213Y-80010292D01*
X163989707Y-80121786D01*
X163989711Y-80121789D01*
X164120814Y-80209390D01*
X164120827Y-80209397D01*
X164224191Y-80252211D01*
X164266503Y-80269737D01*
X164293423Y-80275091D01*
X164315624Y-80279508D01*
X164377535Y-80311892D01*
X164412109Y-80372608D01*
X164408370Y-80442377D01*
X164381706Y-80484697D01*
X164382076Y-80485001D01*
X164379661Y-80487942D01*
X164379123Y-80488798D01*
X164378212Y-80489708D01*
X164378210Y-80489711D01*
X164290609Y-80620814D01*
X164290602Y-80620827D01*
X164230264Y-80766498D01*
X164230261Y-80766510D01*
X164199500Y-80921153D01*
X164199500Y-81078846D01*
X164230261Y-81233489D01*
X164230264Y-81233501D01*
X164290602Y-81379172D01*
X164290609Y-81379185D01*
X164325304Y-81431109D01*
X164346182Y-81497786D01*
X164327698Y-81565167D01*
X164325304Y-81568891D01*
X164290609Y-81620814D01*
X164290602Y-81620827D01*
X164230264Y-81766498D01*
X164230261Y-81766510D01*
X164199500Y-81921153D01*
X164199500Y-82078846D01*
X164230261Y-82233489D01*
X164230264Y-82233501D01*
X164290602Y-82379172D01*
X164290609Y-82379185D01*
X164378210Y-82510288D01*
X164378213Y-82510292D01*
X164379114Y-82511193D01*
X164379435Y-82511780D01*
X164382076Y-82514999D01*
X164381465Y-82515499D01*
X164412599Y-82572516D01*
X164407615Y-82642208D01*
X164365743Y-82698141D01*
X164315626Y-82720491D01*
X164266507Y-82730261D01*
X164266498Y-82730264D01*
X164120827Y-82790602D01*
X164120814Y-82790609D01*
X163989711Y-82878210D01*
X163989707Y-82878213D01*
X163878213Y-82989707D01*
X163878210Y-82989711D01*
X163790609Y-83120814D01*
X163790602Y-83120827D01*
X163730264Y-83266498D01*
X163730261Y-83266510D01*
X163699500Y-83421153D01*
X163699500Y-83578846D01*
X163730261Y-83733489D01*
X163730264Y-83733501D01*
X163790602Y-83879172D01*
X163790609Y-83879185D01*
X163878210Y-84010288D01*
X163878213Y-84010292D01*
X163989707Y-84121786D01*
X163989710Y-84121788D01*
X163989711Y-84121789D01*
X164015219Y-84138833D01*
X164027289Y-84146898D01*
X164072093Y-84200511D01*
X164080800Y-84269836D01*
X164050645Y-84332863D01*
X164027289Y-84353102D01*
X163989707Y-84378213D01*
X163878213Y-84489707D01*
X163878210Y-84489711D01*
X163790609Y-84620814D01*
X163790602Y-84620827D01*
X163730264Y-84766498D01*
X163730261Y-84766510D01*
X163699500Y-84921153D01*
X163699500Y-85078846D01*
X163730261Y-85233489D01*
X163730264Y-85233501D01*
X163790602Y-85379172D01*
X163790609Y-85379185D01*
X163878210Y-85510288D01*
X163878213Y-85510292D01*
X163989707Y-85621786D01*
X163989711Y-85621789D01*
X164120814Y-85709390D01*
X164120827Y-85709397D01*
X164266498Y-85769735D01*
X164266503Y-85769737D01*
X164293423Y-85775091D01*
X164315624Y-85779508D01*
X164377535Y-85811892D01*
X164412109Y-85872608D01*
X164408370Y-85942377D01*
X164381706Y-85984697D01*
X164382076Y-85985001D01*
X164379661Y-85987942D01*
X164379123Y-85988798D01*
X164378212Y-85989708D01*
X164378210Y-85989711D01*
X164290609Y-86120814D01*
X164290602Y-86120827D01*
X164230264Y-86266498D01*
X164230261Y-86266510D01*
X164199500Y-86421153D01*
X164199500Y-86578846D01*
X164230261Y-86733489D01*
X164230264Y-86733501D01*
X164290602Y-86879172D01*
X164290609Y-86879185D01*
X164378210Y-87010288D01*
X164378213Y-87010292D01*
X164489707Y-87121786D01*
X164489710Y-87121788D01*
X164489711Y-87121789D01*
X164515219Y-87138833D01*
X164527289Y-87146898D01*
X164572093Y-87200511D01*
X164580800Y-87269836D01*
X164550645Y-87332863D01*
X164527289Y-87353102D01*
X164489707Y-87378213D01*
X164378213Y-87489707D01*
X164378210Y-87489711D01*
X164290609Y-87620814D01*
X164290602Y-87620827D01*
X164230264Y-87766498D01*
X164230261Y-87766510D01*
X164199500Y-87921153D01*
X164199500Y-88078846D01*
X164212573Y-88144568D01*
X164206346Y-88214159D01*
X164163483Y-88269337D01*
X164138411Y-88283319D01*
X164120826Y-88290603D01*
X164120814Y-88290609D01*
X163989711Y-88378210D01*
X163989707Y-88378213D01*
X163878213Y-88489707D01*
X163878210Y-88489711D01*
X163790609Y-88620814D01*
X163790602Y-88620827D01*
X163730264Y-88766498D01*
X163730261Y-88766510D01*
X163699500Y-88921153D01*
X163699500Y-89078846D01*
X163730261Y-89233489D01*
X163730264Y-89233501D01*
X163790602Y-89379172D01*
X163790609Y-89379185D01*
X163878210Y-89510288D01*
X163878213Y-89510292D01*
X163989707Y-89621786D01*
X163989711Y-89621789D01*
X164120814Y-89709390D01*
X164120827Y-89709397D01*
X164258683Y-89766498D01*
X164266503Y-89769737D01*
X164293423Y-89775091D01*
X164315624Y-89779508D01*
X164377535Y-89811892D01*
X164412109Y-89872608D01*
X164408370Y-89942377D01*
X164381706Y-89984697D01*
X164382076Y-89985001D01*
X164379661Y-89987942D01*
X164379123Y-89988798D01*
X164378212Y-89989708D01*
X164378210Y-89989711D01*
X164290609Y-90120814D01*
X164290602Y-90120827D01*
X164230264Y-90266498D01*
X164230261Y-90266510D01*
X164199500Y-90421153D01*
X164199500Y-90578846D01*
X164230261Y-90733489D01*
X164230264Y-90733501D01*
X164290602Y-90879172D01*
X164290609Y-90879185D01*
X164325304Y-90931109D01*
X164346182Y-90997786D01*
X164327698Y-91065167D01*
X164325304Y-91068891D01*
X164290609Y-91120814D01*
X164290602Y-91120827D01*
X164230264Y-91266498D01*
X164230261Y-91266510D01*
X164199500Y-91421153D01*
X164199500Y-91578846D01*
X164230261Y-91733489D01*
X164230264Y-91733501D01*
X164290602Y-91879172D01*
X164290609Y-91879185D01*
X164378210Y-92010288D01*
X164378213Y-92010292D01*
X164379114Y-92011193D01*
X164379435Y-92011780D01*
X164382076Y-92014999D01*
X164381465Y-92015499D01*
X164412599Y-92072516D01*
X164407615Y-92142208D01*
X164365743Y-92198141D01*
X164315626Y-92220491D01*
X164266507Y-92230261D01*
X164266498Y-92230264D01*
X164120827Y-92290602D01*
X164120814Y-92290609D01*
X163989711Y-92378210D01*
X163989707Y-92378213D01*
X163878213Y-92489707D01*
X163878210Y-92489711D01*
X163790609Y-92620814D01*
X163790602Y-92620827D01*
X163730264Y-92766498D01*
X163730261Y-92766510D01*
X163699500Y-92921153D01*
X163699500Y-93078846D01*
X163730261Y-93233489D01*
X163730264Y-93233501D01*
X163790602Y-93379172D01*
X163790609Y-93379185D01*
X163878210Y-93510288D01*
X163878213Y-93510292D01*
X163989707Y-93621786D01*
X163989710Y-93621788D01*
X163989711Y-93621789D01*
X164015219Y-93638833D01*
X164027289Y-93646898D01*
X164072093Y-93700511D01*
X164080800Y-93769836D01*
X164050645Y-93832863D01*
X164027289Y-93853102D01*
X163989707Y-93878213D01*
X163878213Y-93989707D01*
X163878210Y-93989711D01*
X163790609Y-94120814D01*
X163790602Y-94120827D01*
X163730264Y-94266498D01*
X163730261Y-94266510D01*
X163699500Y-94421153D01*
X163699500Y-94578846D01*
X163730261Y-94733489D01*
X163730264Y-94733501D01*
X163790602Y-94879172D01*
X163790609Y-94879185D01*
X163878210Y-95010288D01*
X163878213Y-95010292D01*
X163989707Y-95121786D01*
X163989711Y-95121789D01*
X164120817Y-95209392D01*
X164120819Y-95209393D01*
X164120821Y-95209394D01*
X164138409Y-95216679D01*
X164192812Y-95260520D01*
X164214877Y-95326814D01*
X164212573Y-95355431D01*
X164199500Y-95421153D01*
X164199500Y-95578846D01*
X164230261Y-95733489D01*
X164230264Y-95733501D01*
X164290602Y-95879172D01*
X164290609Y-95879185D01*
X164378210Y-96010288D01*
X164378213Y-96010292D01*
X164489707Y-96121786D01*
X164489710Y-96121788D01*
X164489711Y-96121789D01*
X164515219Y-96138833D01*
X164527289Y-96146898D01*
X164572093Y-96200511D01*
X164580800Y-96269836D01*
X164550645Y-96332863D01*
X164527289Y-96353102D01*
X164489707Y-96378213D01*
X164378213Y-96489707D01*
X164378210Y-96489711D01*
X164290609Y-96620814D01*
X164290602Y-96620827D01*
X164230264Y-96766498D01*
X164230261Y-96766510D01*
X164199500Y-96921153D01*
X164199500Y-97078846D01*
X164212573Y-97144568D01*
X164206346Y-97214159D01*
X164163483Y-97269337D01*
X164138411Y-97283319D01*
X164120826Y-97290603D01*
X164120814Y-97290609D01*
X163989711Y-97378210D01*
X163989707Y-97378213D01*
X163878213Y-97489707D01*
X163878210Y-97489711D01*
X163790609Y-97620814D01*
X163790602Y-97620827D01*
X163730264Y-97766498D01*
X163730261Y-97766510D01*
X163699500Y-97921153D01*
X163699500Y-98078846D01*
X163730261Y-98233489D01*
X163730264Y-98233501D01*
X163790602Y-98379172D01*
X163790609Y-98379185D01*
X163878210Y-98510288D01*
X163878213Y-98510292D01*
X163989707Y-98621786D01*
X163989711Y-98621789D01*
X164120814Y-98709390D01*
X164120827Y-98709397D01*
X164258683Y-98766498D01*
X164266503Y-98769737D01*
X164293423Y-98775091D01*
X164315624Y-98779508D01*
X164377535Y-98811892D01*
X164412109Y-98872608D01*
X164408370Y-98942377D01*
X164381706Y-98984697D01*
X164382076Y-98985001D01*
X164379661Y-98987942D01*
X164379123Y-98988798D01*
X164378212Y-98989708D01*
X164378210Y-98989711D01*
X164290609Y-99120814D01*
X164290602Y-99120827D01*
X164230264Y-99266498D01*
X164230261Y-99266510D01*
X164199500Y-99421153D01*
X164199500Y-99578846D01*
X164230261Y-99733489D01*
X164230264Y-99733501D01*
X164290602Y-99879172D01*
X164290609Y-99879185D01*
X164325304Y-99931109D01*
X164346182Y-99997786D01*
X164327698Y-100065167D01*
X164325304Y-100068891D01*
X164290609Y-100120814D01*
X164290602Y-100120827D01*
X164230264Y-100266498D01*
X164230261Y-100266510D01*
X164199500Y-100421153D01*
X164199500Y-100578846D01*
X164230261Y-100733489D01*
X164230264Y-100733501D01*
X164290602Y-100879172D01*
X164290609Y-100879185D01*
X164378210Y-101010288D01*
X164378213Y-101010292D01*
X164379114Y-101011193D01*
X164379435Y-101011780D01*
X164382076Y-101014999D01*
X164381465Y-101015499D01*
X164412599Y-101072516D01*
X164407615Y-101142208D01*
X164365743Y-101198141D01*
X164315626Y-101220491D01*
X164266507Y-101230261D01*
X164266498Y-101230264D01*
X164120827Y-101290602D01*
X164120814Y-101290609D01*
X163989711Y-101378210D01*
X163989707Y-101378213D01*
X163878213Y-101489707D01*
X163878210Y-101489711D01*
X163790609Y-101620814D01*
X163790602Y-101620827D01*
X163730264Y-101766498D01*
X163730261Y-101766510D01*
X163699500Y-101921153D01*
X163699500Y-102078846D01*
X163730261Y-102233489D01*
X163730264Y-102233501D01*
X163790602Y-102379172D01*
X163790609Y-102379185D01*
X163878210Y-102510288D01*
X163878213Y-102510292D01*
X163989707Y-102621786D01*
X163989710Y-102621788D01*
X163989711Y-102621789D01*
X164015219Y-102638833D01*
X164027289Y-102646898D01*
X164072093Y-102700511D01*
X164080800Y-102769836D01*
X164050645Y-102832863D01*
X164027289Y-102853102D01*
X163989707Y-102878213D01*
X163878213Y-102989707D01*
X163878210Y-102989711D01*
X163790609Y-103120814D01*
X163790602Y-103120827D01*
X163730264Y-103266498D01*
X163730261Y-103266510D01*
X163699500Y-103421153D01*
X163699500Y-103578846D01*
X163730261Y-103733489D01*
X163730264Y-103733501D01*
X163790602Y-103879172D01*
X163790609Y-103879185D01*
X163878210Y-104010288D01*
X163878213Y-104010292D01*
X163989707Y-104121786D01*
X163989711Y-104121789D01*
X164120814Y-104209390D01*
X164120827Y-104209397D01*
X164258683Y-104266498D01*
X164266503Y-104269737D01*
X164382468Y-104292804D01*
X164421153Y-104300499D01*
X164421156Y-104300500D01*
X164421158Y-104300500D01*
X164578844Y-104300500D01*
X164578845Y-104300499D01*
X164733497Y-104269737D01*
X164879179Y-104209394D01*
X165010289Y-104121789D01*
X165121789Y-104010289D01*
X165209394Y-103879179D01*
X165269737Y-103733497D01*
X165300500Y-103578842D01*
X165300500Y-103421158D01*
X165300500Y-103421155D01*
X165300499Y-103421153D01*
X165292148Y-103379172D01*
X165269737Y-103266503D01*
X165239065Y-103192454D01*
X165209397Y-103120827D01*
X165209390Y-103120814D01*
X165121789Y-102989711D01*
X165121786Y-102989707D01*
X165010292Y-102878213D01*
X165010284Y-102878207D01*
X164972712Y-102853102D01*
X164927906Y-102799490D01*
X164919199Y-102730165D01*
X164949353Y-102667138D01*
X164972712Y-102646898D01*
X164999279Y-102629145D01*
X165010289Y-102621789D01*
X165121789Y-102510289D01*
X165209394Y-102379179D01*
X165269737Y-102233497D01*
X165300500Y-102078842D01*
X165300500Y-101921158D01*
X165300500Y-101921155D01*
X165300499Y-101921153D01*
X165276499Y-101800500D01*
X165269737Y-101766503D01*
X165256062Y-101733489D01*
X165209397Y-101620827D01*
X165209390Y-101620814D01*
X165121789Y-101489711D01*
X165121786Y-101489707D01*
X165120885Y-101488806D01*
X165120563Y-101488217D01*
X165117924Y-101485001D01*
X165118533Y-101484500D01*
X165087400Y-101427483D01*
X165092384Y-101357791D01*
X165134256Y-101301858D01*
X165184372Y-101279508D01*
X165233497Y-101269737D01*
X165379179Y-101209394D01*
X165510289Y-101121789D01*
X165621789Y-101010289D01*
X165709394Y-100879179D01*
X165769737Y-100733497D01*
X165800500Y-100578842D01*
X165800500Y-100421158D01*
X165800500Y-100421155D01*
X165800499Y-100421153D01*
X165774531Y-100290606D01*
X165769737Y-100266503D01*
X165746080Y-100209390D01*
X165709396Y-100120825D01*
X165709394Y-100120822D01*
X165709394Y-100120821D01*
X165674694Y-100068889D01*
X165653816Y-100002215D01*
X165672300Y-99934835D01*
X165674676Y-99931136D01*
X165709394Y-99879179D01*
X165769737Y-99733497D01*
X165800500Y-99578842D01*
X165800500Y-99421158D01*
X165800500Y-99421155D01*
X165800499Y-99421153D01*
X165782937Y-99332863D01*
X165769737Y-99266503D01*
X165756062Y-99233489D01*
X165709397Y-99120827D01*
X165709390Y-99120814D01*
X165621790Y-98989712D01*
X165621784Y-98989705D01*
X165553232Y-98921153D01*
X183199500Y-98921153D01*
X183199500Y-99078846D01*
X183230261Y-99233489D01*
X183230264Y-99233501D01*
X183290602Y-99379172D01*
X183290609Y-99379185D01*
X183378210Y-99510288D01*
X183378213Y-99510292D01*
X183489707Y-99621786D01*
X183489711Y-99621789D01*
X183620814Y-99709390D01*
X183620827Y-99709397D01*
X183758683Y-99766498D01*
X183766503Y-99769737D01*
X183921153Y-99800499D01*
X183921156Y-99800500D01*
X183921158Y-99800500D01*
X184078844Y-99800500D01*
X184078845Y-99800499D01*
X184233497Y-99769737D01*
X184379179Y-99709394D01*
X184510289Y-99621789D01*
X184621789Y-99510289D01*
X184709394Y-99379179D01*
X184769737Y-99233497D01*
X184800500Y-99078842D01*
X184800500Y-98921158D01*
X184800500Y-98921155D01*
X184800499Y-98921153D01*
X184776499Y-98800500D01*
X184769737Y-98766503D01*
X184756062Y-98733489D01*
X184709397Y-98620827D01*
X184709390Y-98620814D01*
X184621789Y-98489711D01*
X184621786Y-98489707D01*
X184510292Y-98378213D01*
X184510288Y-98378210D01*
X184379185Y-98290609D01*
X184379172Y-98290602D01*
X184233501Y-98230264D01*
X184233489Y-98230261D01*
X184078845Y-98199500D01*
X184078842Y-98199500D01*
X183921158Y-98199500D01*
X183921155Y-98199500D01*
X183766510Y-98230261D01*
X183766498Y-98230264D01*
X183620827Y-98290602D01*
X183620814Y-98290609D01*
X183489711Y-98378210D01*
X183489707Y-98378213D01*
X183378213Y-98489707D01*
X183378210Y-98489711D01*
X183290609Y-98620814D01*
X183290602Y-98620827D01*
X183230264Y-98766498D01*
X183230261Y-98766510D01*
X183199500Y-98921153D01*
X165553232Y-98921153D01*
X165510292Y-98878213D01*
X165510288Y-98878210D01*
X165379185Y-98790609D01*
X165379172Y-98790602D01*
X165233501Y-98730264D01*
X165233491Y-98730261D01*
X165184374Y-98720491D01*
X165122463Y-98688106D01*
X165087889Y-98627389D01*
X165091630Y-98557620D01*
X165118296Y-98515304D01*
X165117924Y-98514999D01*
X165120357Y-98512033D01*
X165120891Y-98511186D01*
X165121789Y-98510289D01*
X165209394Y-98379179D01*
X165269737Y-98233497D01*
X165300500Y-98078842D01*
X165300500Y-97921158D01*
X165300500Y-97921155D01*
X165287426Y-97855431D01*
X165293653Y-97785840D01*
X165336515Y-97730662D01*
X165361589Y-97716679D01*
X165379179Y-97709394D01*
X165510289Y-97621789D01*
X165621789Y-97510289D01*
X165709394Y-97379179D01*
X165769737Y-97233497D01*
X165800500Y-97078842D01*
X165800500Y-96921158D01*
X165800500Y-96921155D01*
X165800499Y-96921153D01*
X165782937Y-96832863D01*
X165769737Y-96766503D01*
X165762901Y-96750000D01*
X165709397Y-96620827D01*
X165709390Y-96620814D01*
X165621789Y-96489711D01*
X165621786Y-96489707D01*
X165510292Y-96378213D01*
X165510284Y-96378207D01*
X165472712Y-96353102D01*
X165427906Y-96299490D01*
X165419199Y-96230165D01*
X165449353Y-96167138D01*
X165472712Y-96146898D01*
X165499279Y-96129145D01*
X165510289Y-96121789D01*
X165621789Y-96010289D01*
X165709394Y-95879179D01*
X165769737Y-95733497D01*
X165800500Y-95578842D01*
X165800500Y-95421158D01*
X165800500Y-95421155D01*
X165800499Y-95421153D01*
X165787426Y-95355431D01*
X165769737Y-95266503D01*
X165756062Y-95233489D01*
X165709397Y-95120827D01*
X165709390Y-95120814D01*
X165621789Y-94989711D01*
X165621786Y-94989707D01*
X165510292Y-94878213D01*
X165510288Y-94878210D01*
X165379185Y-94790609D01*
X165379179Y-94790606D01*
X165361589Y-94783320D01*
X165307186Y-94739478D01*
X165285122Y-94673184D01*
X165287425Y-94644571D01*
X165300500Y-94578842D01*
X165300500Y-94421158D01*
X165300500Y-94421155D01*
X165300499Y-94421153D01*
X165274531Y-94290606D01*
X165269737Y-94266503D01*
X165256062Y-94233489D01*
X165209397Y-94120827D01*
X165209390Y-94120814D01*
X165121789Y-93989711D01*
X165121786Y-93989707D01*
X165010292Y-93878213D01*
X165010284Y-93878207D01*
X164972712Y-93853102D01*
X164927906Y-93799490D01*
X164919199Y-93730165D01*
X164949353Y-93667138D01*
X164972712Y-93646898D01*
X164999279Y-93629145D01*
X165010289Y-93621789D01*
X165121789Y-93510289D01*
X165209394Y-93379179D01*
X165269737Y-93233497D01*
X165300500Y-93078842D01*
X165300500Y-92921158D01*
X165300500Y-92921155D01*
X165300499Y-92921153D01*
X165276499Y-92800499D01*
X165269737Y-92766503D01*
X165256062Y-92733489D01*
X165209397Y-92620827D01*
X165209390Y-92620814D01*
X165121789Y-92489711D01*
X165121786Y-92489707D01*
X165120885Y-92488806D01*
X165120563Y-92488217D01*
X165117924Y-92485001D01*
X165118533Y-92484500D01*
X165087400Y-92427483D01*
X165092384Y-92357791D01*
X165134256Y-92301858D01*
X165184372Y-92279508D01*
X165233497Y-92269737D01*
X165379179Y-92209394D01*
X165510289Y-92121789D01*
X165621789Y-92010289D01*
X165709394Y-91879179D01*
X165769737Y-91733497D01*
X165800500Y-91578842D01*
X165800500Y-91426668D01*
X179205015Y-91426668D01*
X179205015Y-91584361D01*
X179235776Y-91739004D01*
X179235779Y-91739016D01*
X179296117Y-91884687D01*
X179296124Y-91884700D01*
X179383725Y-92015803D01*
X179383728Y-92015807D01*
X179495222Y-92127301D01*
X179495226Y-92127304D01*
X179626329Y-92214905D01*
X179626342Y-92214912D01*
X179758706Y-92269738D01*
X179772018Y-92275252D01*
X179926668Y-92306014D01*
X179926671Y-92306015D01*
X179926673Y-92306015D01*
X180084359Y-92306015D01*
X180084360Y-92306014D01*
X180239012Y-92275252D01*
X180384694Y-92214909D01*
X180515804Y-92127304D01*
X180627304Y-92015804D01*
X180714909Y-91884694D01*
X180717594Y-91878213D01*
X180755855Y-91785840D01*
X180775252Y-91739012D01*
X180806015Y-91584357D01*
X180806015Y-91426673D01*
X180806015Y-91426670D01*
X180806014Y-91426668D01*
X180778949Y-91290606D01*
X180775252Y-91272018D01*
X180751286Y-91214159D01*
X180714912Y-91126342D01*
X180714905Y-91126329D01*
X180627304Y-90995226D01*
X180627301Y-90995222D01*
X180515807Y-90883728D01*
X180515803Y-90883725D01*
X180384700Y-90796124D01*
X180384687Y-90796117D01*
X180239016Y-90735779D01*
X180239004Y-90735776D01*
X180084360Y-90705015D01*
X180084357Y-90705015D01*
X179926673Y-90705015D01*
X179926670Y-90705015D01*
X179772025Y-90735776D01*
X179772013Y-90735779D01*
X179626342Y-90796117D01*
X179626329Y-90796124D01*
X179495226Y-90883725D01*
X179495222Y-90883728D01*
X179383728Y-90995222D01*
X179383725Y-90995226D01*
X179296124Y-91126329D01*
X179296117Y-91126342D01*
X179235779Y-91272013D01*
X179235776Y-91272025D01*
X179205015Y-91426668D01*
X165800500Y-91426668D01*
X165800500Y-91421158D01*
X165800500Y-91421155D01*
X165800499Y-91421153D01*
X165774531Y-91290606D01*
X165769737Y-91266503D01*
X165756062Y-91233489D01*
X165709396Y-91120825D01*
X165709394Y-91120822D01*
X165709394Y-91120821D01*
X165674694Y-91068889D01*
X165653816Y-91002215D01*
X165672300Y-90934835D01*
X165674676Y-90931136D01*
X165709394Y-90879179D01*
X165769737Y-90733497D01*
X165800500Y-90578842D01*
X165800500Y-90421158D01*
X165800500Y-90421155D01*
X165800499Y-90421153D01*
X165782937Y-90332863D01*
X165769737Y-90266503D01*
X165756062Y-90233489D01*
X165709397Y-90120827D01*
X165709390Y-90120814D01*
X165621789Y-89989711D01*
X165621786Y-89989707D01*
X165510292Y-89878213D01*
X165510288Y-89878210D01*
X165379185Y-89790609D01*
X165379172Y-89790602D01*
X165233501Y-89730264D01*
X165233491Y-89730261D01*
X165184374Y-89720491D01*
X165122463Y-89688106D01*
X165087889Y-89627389D01*
X165091630Y-89557620D01*
X165118296Y-89515304D01*
X165117924Y-89514999D01*
X165120357Y-89512033D01*
X165120891Y-89511186D01*
X165121789Y-89510289D01*
X165209394Y-89379179D01*
X165269737Y-89233497D01*
X165300500Y-89078842D01*
X165300500Y-89078517D01*
X178089500Y-89078517D01*
X178089500Y-89236210D01*
X178120261Y-89390853D01*
X178120264Y-89390865D01*
X178180602Y-89536536D01*
X178180609Y-89536549D01*
X178268210Y-89667652D01*
X178268213Y-89667656D01*
X178379707Y-89779150D01*
X178379711Y-89779153D01*
X178510814Y-89866754D01*
X178510827Y-89866761D01*
X178642143Y-89921153D01*
X178656503Y-89927101D01*
X178811153Y-89957863D01*
X178811156Y-89957864D01*
X178811158Y-89957864D01*
X178968844Y-89957864D01*
X178968845Y-89957863D01*
X179123497Y-89927101D01*
X179269179Y-89866758D01*
X179400289Y-89779153D01*
X179511789Y-89667653D01*
X179599394Y-89536543D01*
X179659737Y-89390861D01*
X179690500Y-89236206D01*
X179690500Y-89078522D01*
X179690500Y-89078519D01*
X179690499Y-89078517D01*
X179672834Y-88989711D01*
X179659737Y-88923867D01*
X179640826Y-88878211D01*
X179599397Y-88778191D01*
X179599390Y-88778178D01*
X179511789Y-88647075D01*
X179511786Y-88647071D01*
X179400292Y-88535577D01*
X179400288Y-88535574D01*
X179378706Y-88521153D01*
X188199500Y-88521153D01*
X188199500Y-88678846D01*
X188230261Y-88833489D01*
X188230264Y-88833501D01*
X188290602Y-88979172D01*
X188290609Y-88979185D01*
X188378210Y-89110288D01*
X188378213Y-89110292D01*
X188489707Y-89221786D01*
X188489711Y-89221789D01*
X188620814Y-89309390D01*
X188620827Y-89309397D01*
X188766498Y-89369735D01*
X188766503Y-89369737D01*
X188921153Y-89400499D01*
X188921156Y-89400500D01*
X188921158Y-89400500D01*
X189078844Y-89400500D01*
X189078845Y-89400499D01*
X189233497Y-89369737D01*
X189379179Y-89309394D01*
X189510289Y-89221789D01*
X189621789Y-89110289D01*
X189709394Y-88979179D01*
X189769737Y-88833497D01*
X189800500Y-88678842D01*
X189800500Y-88521158D01*
X189800500Y-88521155D01*
X189800499Y-88521153D01*
X189794244Y-88489707D01*
X189769737Y-88366503D01*
X189769735Y-88366498D01*
X189709397Y-88220827D01*
X189709390Y-88220814D01*
X189621789Y-88089711D01*
X189621786Y-88089707D01*
X189510292Y-87978213D01*
X189510288Y-87978210D01*
X189379185Y-87890609D01*
X189379172Y-87890602D01*
X189233501Y-87830264D01*
X189233489Y-87830261D01*
X189078845Y-87799500D01*
X189078842Y-87799500D01*
X188921158Y-87799500D01*
X188921155Y-87799500D01*
X188766510Y-87830261D01*
X188766498Y-87830264D01*
X188620827Y-87890602D01*
X188620814Y-87890609D01*
X188489711Y-87978210D01*
X188489707Y-87978213D01*
X188378213Y-88089707D01*
X188378210Y-88089711D01*
X188290609Y-88220814D01*
X188290602Y-88220827D01*
X188230264Y-88366498D01*
X188230261Y-88366510D01*
X188199500Y-88521153D01*
X179378706Y-88521153D01*
X179269185Y-88447973D01*
X179269172Y-88447966D01*
X179123501Y-88387628D01*
X179123489Y-88387625D01*
X178968845Y-88356864D01*
X178968842Y-88356864D01*
X178811158Y-88356864D01*
X178811155Y-88356864D01*
X178656510Y-88387625D01*
X178656498Y-88387628D01*
X178510827Y-88447966D01*
X178510814Y-88447973D01*
X178379711Y-88535574D01*
X178379707Y-88535577D01*
X178268213Y-88647071D01*
X178268210Y-88647075D01*
X178180609Y-88778178D01*
X178180602Y-88778191D01*
X178120264Y-88923862D01*
X178120261Y-88923874D01*
X178089500Y-89078517D01*
X165300500Y-89078517D01*
X165300500Y-88921158D01*
X165285822Y-88847370D01*
X165285297Y-88839169D01*
X165291242Y-88812781D01*
X165293653Y-88785840D01*
X165298807Y-88779204D01*
X165300654Y-88771008D01*
X165319921Y-88752023D01*
X165336515Y-88730662D01*
X165348233Y-88724127D01*
X165350423Y-88721970D01*
X165353115Y-88721405D01*
X165361589Y-88716679D01*
X165379179Y-88709394D01*
X165510289Y-88621789D01*
X165621789Y-88510289D01*
X165709394Y-88379179D01*
X165769737Y-88233497D01*
X165800500Y-88078842D01*
X165800500Y-87921158D01*
X165800500Y-87921155D01*
X165800499Y-87921153D01*
X165782419Y-87830261D01*
X165769737Y-87766503D01*
X165769735Y-87766498D01*
X165709397Y-87620827D01*
X165709390Y-87620814D01*
X165621789Y-87489711D01*
X165621786Y-87489707D01*
X165510292Y-87378213D01*
X165510284Y-87378207D01*
X165472712Y-87353102D01*
X165427906Y-87299490D01*
X165419199Y-87230165D01*
X165449353Y-87167138D01*
X165472712Y-87146898D01*
X165499279Y-87129145D01*
X165510289Y-87121789D01*
X165621789Y-87010289D01*
X165709394Y-86879179D01*
X165769737Y-86733497D01*
X165800500Y-86578842D01*
X165800500Y-86421158D01*
X165800500Y-86421155D01*
X165800499Y-86421153D01*
X178199500Y-86421153D01*
X178199500Y-86578846D01*
X178230261Y-86733489D01*
X178230264Y-86733501D01*
X178290602Y-86879172D01*
X178290609Y-86879185D01*
X178378210Y-87010288D01*
X178378213Y-87010292D01*
X178489707Y-87121786D01*
X178489711Y-87121789D01*
X178620814Y-87209390D01*
X178620827Y-87209397D01*
X178718853Y-87250000D01*
X178766503Y-87269737D01*
X178921153Y-87300499D01*
X178921156Y-87300500D01*
X178921158Y-87300500D01*
X179078844Y-87300500D01*
X179078845Y-87300499D01*
X179233497Y-87269737D01*
X179379179Y-87209394D01*
X179510289Y-87121789D01*
X179621789Y-87010289D01*
X179709394Y-86879179D01*
X179769737Y-86733497D01*
X179800500Y-86578842D01*
X179800500Y-86421158D01*
X179800500Y-86421155D01*
X179800499Y-86421153D01*
X179769737Y-86266503D01*
X179735793Y-86184554D01*
X179709397Y-86120827D01*
X179709390Y-86120814D01*
X179621789Y-85989711D01*
X179621786Y-85989707D01*
X179510292Y-85878213D01*
X179510288Y-85878210D01*
X179379185Y-85790609D01*
X179379172Y-85790602D01*
X179233501Y-85730264D01*
X179233491Y-85730261D01*
X179136397Y-85710948D01*
X179136396Y-85710947D01*
X179078845Y-85699500D01*
X179078842Y-85699500D01*
X178921158Y-85699500D01*
X178921155Y-85699500D01*
X178766510Y-85730261D01*
X178766498Y-85730264D01*
X178620827Y-85790602D01*
X178620814Y-85790609D01*
X178489711Y-85878210D01*
X178489707Y-85878213D01*
X178378213Y-85989707D01*
X178378210Y-85989711D01*
X178290609Y-86120814D01*
X178290602Y-86120827D01*
X178230264Y-86266498D01*
X178230261Y-86266510D01*
X178199500Y-86421153D01*
X165800499Y-86421153D01*
X165769737Y-86266503D01*
X165735793Y-86184554D01*
X165709397Y-86120827D01*
X165709390Y-86120814D01*
X165621789Y-85989711D01*
X165621786Y-85989707D01*
X165510292Y-85878213D01*
X165510288Y-85878210D01*
X165379185Y-85790609D01*
X165379172Y-85790602D01*
X165233501Y-85730264D01*
X165233491Y-85730261D01*
X165184374Y-85720491D01*
X165122463Y-85688106D01*
X165087889Y-85627389D01*
X165089603Y-85595418D01*
X185525235Y-85595418D01*
X185525235Y-85753111D01*
X185555996Y-85907754D01*
X185555999Y-85907766D01*
X185616337Y-86053437D01*
X185616344Y-86053450D01*
X185703945Y-86184553D01*
X185703948Y-86184557D01*
X185815442Y-86296051D01*
X185815446Y-86296054D01*
X185946549Y-86383655D01*
X185946562Y-86383662D01*
X186037087Y-86421158D01*
X186092238Y-86444002D01*
X186246888Y-86474764D01*
X186246891Y-86474765D01*
X186246893Y-86474765D01*
X186404579Y-86474765D01*
X186404580Y-86474764D01*
X186559232Y-86444002D01*
X186704914Y-86383659D01*
X186836024Y-86296054D01*
X186947524Y-86184554D01*
X187035129Y-86053444D01*
X187095472Y-85907762D01*
X187104406Y-85862844D01*
X187136789Y-85800936D01*
X187197504Y-85766361D01*
X187262021Y-85768377D01*
X187266510Y-85769739D01*
X187421153Y-85800499D01*
X187421156Y-85800500D01*
X187421158Y-85800500D01*
X187578844Y-85800500D01*
X187578845Y-85800499D01*
X187733497Y-85769737D01*
X187879179Y-85709394D01*
X188010289Y-85621789D01*
X188121789Y-85510289D01*
X188209394Y-85379179D01*
X188269737Y-85233497D01*
X188300500Y-85078842D01*
X188300500Y-84921158D01*
X188300500Y-84921155D01*
X188300499Y-84921153D01*
X188269738Y-84766510D01*
X188269738Y-84766508D01*
X188269737Y-84766503D01*
X188209794Y-84621786D01*
X188209397Y-84620827D01*
X188209390Y-84620814D01*
X188121790Y-84489712D01*
X188121784Y-84489705D01*
X188053232Y-84421153D01*
X188699500Y-84421153D01*
X188699500Y-84578846D01*
X188730261Y-84733489D01*
X188730264Y-84733501D01*
X188790602Y-84879172D01*
X188790609Y-84879185D01*
X188878210Y-85010288D01*
X188878213Y-85010292D01*
X188989707Y-85121786D01*
X188989711Y-85121789D01*
X189120814Y-85209390D01*
X189120827Y-85209397D01*
X189266498Y-85269735D01*
X189266503Y-85269737D01*
X189421153Y-85300499D01*
X189421156Y-85300500D01*
X189421158Y-85300500D01*
X189578844Y-85300500D01*
X189578845Y-85300499D01*
X189733497Y-85269737D01*
X189879179Y-85209394D01*
X190010289Y-85121789D01*
X190121789Y-85010289D01*
X190209394Y-84879179D01*
X190269737Y-84733497D01*
X190300500Y-84578842D01*
X190300500Y-84421158D01*
X190300500Y-84421155D01*
X190300499Y-84421153D01*
X190276499Y-84300499D01*
X190269737Y-84266503D01*
X190256062Y-84233489D01*
X190209397Y-84120827D01*
X190209390Y-84120814D01*
X190121789Y-83989711D01*
X190121786Y-83989707D01*
X190010292Y-83878213D01*
X190010288Y-83878210D01*
X189879185Y-83790609D01*
X189879172Y-83790602D01*
X189733501Y-83730264D01*
X189733489Y-83730261D01*
X189578845Y-83699500D01*
X189578842Y-83699500D01*
X189421158Y-83699500D01*
X189421155Y-83699500D01*
X189266510Y-83730261D01*
X189266498Y-83730264D01*
X189120827Y-83790602D01*
X189120814Y-83790609D01*
X188989711Y-83878210D01*
X188989707Y-83878213D01*
X188878213Y-83989707D01*
X188878210Y-83989711D01*
X188790609Y-84120814D01*
X188790602Y-84120827D01*
X188730264Y-84266498D01*
X188730261Y-84266510D01*
X188699500Y-84421153D01*
X188053232Y-84421153D01*
X188010292Y-84378213D01*
X188010288Y-84378210D01*
X187879185Y-84290609D01*
X187879172Y-84290602D01*
X187733501Y-84230264D01*
X187733489Y-84230261D01*
X187578845Y-84199500D01*
X187578842Y-84199500D01*
X187421158Y-84199500D01*
X187421155Y-84199500D01*
X187266510Y-84230261D01*
X187266498Y-84230264D01*
X187120827Y-84290602D01*
X187120814Y-84290609D01*
X186989711Y-84378210D01*
X186989707Y-84378213D01*
X186878213Y-84489707D01*
X186878210Y-84489711D01*
X186790609Y-84620814D01*
X186790602Y-84620827D01*
X186730264Y-84766498D01*
X186730261Y-84766508D01*
X186721328Y-84811419D01*
X186688943Y-84873330D01*
X186628227Y-84907904D01*
X186563720Y-84905889D01*
X186559229Y-84904526D01*
X186404580Y-84873765D01*
X186404577Y-84873765D01*
X186246893Y-84873765D01*
X186246890Y-84873765D01*
X186092245Y-84904526D01*
X186092233Y-84904529D01*
X185946562Y-84964867D01*
X185946549Y-84964874D01*
X185815446Y-85052475D01*
X185815442Y-85052478D01*
X185703948Y-85163972D01*
X185703945Y-85163976D01*
X185616344Y-85295079D01*
X185616337Y-85295092D01*
X185555999Y-85440763D01*
X185555996Y-85440775D01*
X185525235Y-85595418D01*
X165089603Y-85595418D01*
X165091630Y-85557620D01*
X165118296Y-85515304D01*
X165117924Y-85514999D01*
X165120357Y-85512033D01*
X165120891Y-85511186D01*
X165121789Y-85510289D01*
X165209394Y-85379179D01*
X165269737Y-85233497D01*
X165300500Y-85078842D01*
X165300500Y-84921158D01*
X165300500Y-84921155D01*
X165300499Y-84921153D01*
X165269738Y-84766510D01*
X165269738Y-84766508D01*
X165269737Y-84766503D01*
X165209794Y-84621786D01*
X165209397Y-84620827D01*
X165209390Y-84620814D01*
X165121789Y-84489711D01*
X165121786Y-84489707D01*
X165010292Y-84378213D01*
X165010284Y-84378207D01*
X164972712Y-84353102D01*
X164927906Y-84299490D01*
X164919199Y-84230165D01*
X164949353Y-84167138D01*
X164972712Y-84146898D01*
X164999279Y-84129145D01*
X165010289Y-84121789D01*
X165121789Y-84010289D01*
X165181348Y-83921153D01*
X173199500Y-83921153D01*
X173199500Y-84078846D01*
X173230261Y-84233489D01*
X173230264Y-84233501D01*
X173290602Y-84379172D01*
X173290609Y-84379185D01*
X173378210Y-84510288D01*
X173378213Y-84510292D01*
X173489707Y-84621786D01*
X173489711Y-84621789D01*
X173620814Y-84709390D01*
X173620827Y-84709397D01*
X173758683Y-84766498D01*
X173766503Y-84769737D01*
X173921153Y-84800499D01*
X173921156Y-84800500D01*
X173921158Y-84800500D01*
X174078844Y-84800500D01*
X174078845Y-84800499D01*
X174233497Y-84769737D01*
X174379179Y-84709394D01*
X174510289Y-84621789D01*
X174621789Y-84510289D01*
X174709394Y-84379179D01*
X174769737Y-84233497D01*
X174800500Y-84078842D01*
X174800500Y-83921158D01*
X174800500Y-83921155D01*
X174800499Y-83921153D01*
X174774531Y-83790606D01*
X174769737Y-83766503D01*
X174756062Y-83733489D01*
X174709397Y-83620827D01*
X174709390Y-83620814D01*
X174621790Y-83489712D01*
X174621784Y-83489705D01*
X174553232Y-83421153D01*
X199199500Y-83421153D01*
X199199500Y-83578846D01*
X199230261Y-83733489D01*
X199230264Y-83733501D01*
X199290602Y-83879172D01*
X199290609Y-83879185D01*
X199378210Y-84010288D01*
X199378213Y-84010292D01*
X199489707Y-84121786D01*
X199489711Y-84121789D01*
X199620814Y-84209390D01*
X199620827Y-84209397D01*
X199718853Y-84250000D01*
X199766503Y-84269737D01*
X199921153Y-84300499D01*
X199921156Y-84300500D01*
X199921158Y-84300500D01*
X200078844Y-84300500D01*
X200078845Y-84300499D01*
X200233497Y-84269737D01*
X200379179Y-84209394D01*
X200510289Y-84121789D01*
X200621789Y-84010289D01*
X200709394Y-83879179D01*
X200769737Y-83733497D01*
X200800500Y-83578842D01*
X200800500Y-83421158D01*
X200800500Y-83421155D01*
X200800499Y-83421153D01*
X200776499Y-83300500D01*
X200769737Y-83266503D01*
X200769735Y-83266498D01*
X200709397Y-83120827D01*
X200709390Y-83120814D01*
X200621789Y-82989711D01*
X200621786Y-82989707D01*
X200510292Y-82878213D01*
X200510288Y-82878210D01*
X200379185Y-82790609D01*
X200379172Y-82790602D01*
X200233501Y-82730264D01*
X200233489Y-82730261D01*
X200078845Y-82699500D01*
X200078842Y-82699500D01*
X199921158Y-82699500D01*
X199921155Y-82699500D01*
X199766510Y-82730261D01*
X199766498Y-82730264D01*
X199620827Y-82790602D01*
X199620814Y-82790609D01*
X199489711Y-82878210D01*
X199489707Y-82878213D01*
X199378213Y-82989707D01*
X199378210Y-82989711D01*
X199290609Y-83120814D01*
X199290602Y-83120827D01*
X199230264Y-83266498D01*
X199230261Y-83266510D01*
X199199500Y-83421153D01*
X174553232Y-83421153D01*
X174510292Y-83378213D01*
X174510288Y-83378210D01*
X174379185Y-83290609D01*
X174379172Y-83290602D01*
X174233501Y-83230264D01*
X174233489Y-83230261D01*
X174078845Y-83199500D01*
X174078842Y-83199500D01*
X173921158Y-83199500D01*
X173921155Y-83199500D01*
X173766510Y-83230261D01*
X173766498Y-83230264D01*
X173620827Y-83290602D01*
X173620814Y-83290609D01*
X173489711Y-83378210D01*
X173489707Y-83378213D01*
X173378213Y-83489707D01*
X173378210Y-83489711D01*
X173290609Y-83620814D01*
X173290602Y-83620827D01*
X173230264Y-83766498D01*
X173230261Y-83766510D01*
X173199500Y-83921153D01*
X165181348Y-83921153D01*
X165209394Y-83879179D01*
X165269737Y-83733497D01*
X165300500Y-83578842D01*
X165300500Y-83421158D01*
X165300500Y-83421155D01*
X165300499Y-83421153D01*
X165276499Y-83300500D01*
X165269737Y-83266503D01*
X165269735Y-83266498D01*
X165209397Y-83120827D01*
X165209390Y-83120814D01*
X165121789Y-82989711D01*
X165121786Y-82989707D01*
X165120885Y-82988806D01*
X165120563Y-82988217D01*
X165117924Y-82985001D01*
X165118533Y-82984500D01*
X165087400Y-82927483D01*
X165092384Y-82857791D01*
X165134256Y-82801858D01*
X165184372Y-82779508D01*
X165233497Y-82769737D01*
X165379179Y-82709394D01*
X165510289Y-82621789D01*
X165621789Y-82510289D01*
X165709394Y-82379179D01*
X165710428Y-82376684D01*
X165748056Y-82285840D01*
X165769737Y-82233497D01*
X165800500Y-82078842D01*
X165800500Y-81921158D01*
X165800500Y-81921155D01*
X165800499Y-81921153D01*
X165774531Y-81790606D01*
X165769737Y-81766503D01*
X165725568Y-81659869D01*
X165709396Y-81620825D01*
X165709394Y-81620822D01*
X165709394Y-81620821D01*
X165674694Y-81568889D01*
X165653816Y-81502215D01*
X165672300Y-81434835D01*
X165674676Y-81431136D01*
X165709394Y-81379179D01*
X165769737Y-81233497D01*
X165800500Y-81078842D01*
X165800500Y-80921158D01*
X165800500Y-80921155D01*
X165800499Y-80921153D01*
X165784624Y-80841344D01*
X165769737Y-80766503D01*
X165769735Y-80766498D01*
X165752554Y-80725018D01*
X165735420Y-80683653D01*
X171199500Y-80683653D01*
X171199500Y-80841346D01*
X171230261Y-80995989D01*
X171230264Y-80996001D01*
X171290602Y-81141672D01*
X171290609Y-81141685D01*
X171378210Y-81272788D01*
X171378213Y-81272792D01*
X171398990Y-81293569D01*
X171432475Y-81354892D01*
X171427491Y-81424584D01*
X171398990Y-81468931D01*
X171378213Y-81489707D01*
X171378210Y-81489711D01*
X171290609Y-81620814D01*
X171290602Y-81620827D01*
X171230264Y-81766498D01*
X171230261Y-81766510D01*
X171199500Y-81921153D01*
X171199500Y-82078846D01*
X171230261Y-82233489D01*
X171230264Y-82233501D01*
X171290602Y-82379172D01*
X171290609Y-82379185D01*
X171378210Y-82510288D01*
X171378213Y-82510292D01*
X171489707Y-82621786D01*
X171489711Y-82621789D01*
X171620814Y-82709390D01*
X171620827Y-82709397D01*
X171766498Y-82769735D01*
X171766503Y-82769737D01*
X171882468Y-82792804D01*
X171921153Y-82800499D01*
X171921156Y-82800500D01*
X171921158Y-82800500D01*
X172078844Y-82800500D01*
X172078845Y-82800499D01*
X172233497Y-82769737D01*
X172379179Y-82709394D01*
X172510289Y-82621789D01*
X172621789Y-82510289D01*
X172709394Y-82379179D01*
X172710428Y-82376684D01*
X172748056Y-82285840D01*
X172769737Y-82233497D01*
X172774531Y-82209396D01*
X172775841Y-82202809D01*
X178239557Y-82202809D01*
X178239557Y-82360502D01*
X178270318Y-82515145D01*
X178270321Y-82515157D01*
X178330659Y-82660828D01*
X178330666Y-82660841D01*
X178418267Y-82791944D01*
X178418270Y-82791948D01*
X178529764Y-82903442D01*
X178529768Y-82903445D01*
X178660871Y-82991046D01*
X178660884Y-82991053D01*
X178806555Y-83051391D01*
X178806560Y-83051393D01*
X178961210Y-83082155D01*
X178961213Y-83082156D01*
X178961215Y-83082156D01*
X179118901Y-83082156D01*
X179118902Y-83082155D01*
X179273554Y-83051393D01*
X179419236Y-82991050D01*
X179439717Y-82977364D01*
X179506389Y-82956486D01*
X179573770Y-82974968D01*
X179577439Y-82977325D01*
X179622197Y-83007232D01*
X179622200Y-83007233D01*
X179622203Y-83007235D01*
X179728814Y-83051394D01*
X179767879Y-83067575D01*
X179922529Y-83098337D01*
X179922532Y-83098338D01*
X179922534Y-83098338D01*
X180080220Y-83098338D01*
X180080221Y-83098337D01*
X180234873Y-83067575D01*
X180371014Y-83011184D01*
X180380548Y-83007235D01*
X180380548Y-83007234D01*
X180380555Y-83007232D01*
X180511665Y-82919627D01*
X180623165Y-82808127D01*
X180710770Y-82677017D01*
X180771113Y-82531335D01*
X180801876Y-82376680D01*
X180801876Y-82218996D01*
X180801876Y-82218993D01*
X180801875Y-82218991D01*
X180782349Y-82120827D01*
X180771113Y-82064341D01*
X180764408Y-82048154D01*
X180710773Y-81918665D01*
X180710766Y-81918652D01*
X180623165Y-81787549D01*
X180623162Y-81787545D01*
X180511668Y-81676051D01*
X180511664Y-81676048D01*
X180380561Y-81588447D01*
X180380548Y-81588440D01*
X180234877Y-81528102D01*
X180234865Y-81528099D01*
X180080221Y-81497338D01*
X180080218Y-81497338D01*
X179922534Y-81497338D01*
X179922531Y-81497338D01*
X179767886Y-81528099D01*
X179767874Y-81528102D01*
X179622204Y-81588440D01*
X179622190Y-81588448D01*
X179601713Y-81602130D01*
X179535035Y-81623006D01*
X179467655Y-81604520D01*
X179463934Y-81602128D01*
X179419241Y-81572265D01*
X179419229Y-81572258D01*
X179273558Y-81511920D01*
X179273546Y-81511917D01*
X179118902Y-81481156D01*
X179118899Y-81481156D01*
X178961215Y-81481156D01*
X178961212Y-81481156D01*
X178806567Y-81511917D01*
X178806555Y-81511920D01*
X178660884Y-81572258D01*
X178660871Y-81572265D01*
X178529768Y-81659866D01*
X178529764Y-81659869D01*
X178418270Y-81771363D01*
X178418267Y-81771367D01*
X178330666Y-81902470D01*
X178330659Y-81902483D01*
X178270321Y-82048154D01*
X178270318Y-82048166D01*
X178239557Y-82202809D01*
X172775841Y-82202809D01*
X172781865Y-82172530D01*
X172781865Y-82172529D01*
X172800499Y-82078846D01*
X172800500Y-82078844D01*
X172800500Y-81921155D01*
X172800499Y-81921153D01*
X172774531Y-81790606D01*
X172769737Y-81766503D01*
X172725568Y-81659869D01*
X172709397Y-81620827D01*
X172709390Y-81620814D01*
X172621789Y-81489711D01*
X172601011Y-81468933D01*
X172567524Y-81407611D01*
X172572507Y-81337919D01*
X172601011Y-81293567D01*
X172621789Y-81272789D01*
X172709394Y-81141679D01*
X172769737Y-80995997D01*
X172800500Y-80841342D01*
X172800500Y-80683658D01*
X172800500Y-80683655D01*
X172800499Y-80683653D01*
X172769738Y-80529010D01*
X172769737Y-80529003D01*
X172761987Y-80510292D01*
X172709397Y-80383327D01*
X172709390Y-80383314D01*
X172621789Y-80252211D01*
X172621786Y-80252207D01*
X172510292Y-80140713D01*
X172510288Y-80140710D01*
X172379185Y-80053109D01*
X172379172Y-80053102D01*
X172322496Y-80029627D01*
X172233501Y-79992764D01*
X172233489Y-79992761D01*
X172078845Y-79962000D01*
X172078842Y-79962000D01*
X171921158Y-79962000D01*
X171921155Y-79962000D01*
X171766510Y-79992761D01*
X171766498Y-79992764D01*
X171620827Y-80053102D01*
X171620814Y-80053109D01*
X171489711Y-80140710D01*
X171489707Y-80140713D01*
X171378213Y-80252207D01*
X171378210Y-80252211D01*
X171290609Y-80383314D01*
X171290602Y-80383327D01*
X171230264Y-80528998D01*
X171230261Y-80529010D01*
X171199500Y-80683653D01*
X165735420Y-80683653D01*
X165709397Y-80620827D01*
X165709390Y-80620814D01*
X165621789Y-80489711D01*
X165621786Y-80489707D01*
X165510292Y-80378213D01*
X165510288Y-80378210D01*
X165379185Y-80290609D01*
X165379172Y-80290602D01*
X165233501Y-80230264D01*
X165233491Y-80230261D01*
X165184374Y-80220491D01*
X165122463Y-80188106D01*
X165087889Y-80127389D01*
X165091630Y-80057620D01*
X165118296Y-80015304D01*
X165117924Y-80014999D01*
X165120357Y-80012033D01*
X165120891Y-80011186D01*
X165121789Y-80010289D01*
X165181348Y-79921153D01*
X175699500Y-79921153D01*
X175699500Y-80078846D01*
X175730261Y-80233489D01*
X175730264Y-80233501D01*
X175790602Y-80379172D01*
X175790609Y-80379185D01*
X175878210Y-80510288D01*
X175878213Y-80510292D01*
X175989707Y-80621786D01*
X175989711Y-80621789D01*
X176120814Y-80709390D01*
X176120827Y-80709397D01*
X176218853Y-80750000D01*
X176266503Y-80769737D01*
X176421153Y-80800499D01*
X176421156Y-80800500D01*
X176421158Y-80800500D01*
X176578844Y-80800500D01*
X176578845Y-80800499D01*
X176733497Y-80769737D01*
X176879179Y-80709394D01*
X177010289Y-80621789D01*
X177121789Y-80510289D01*
X177209394Y-80379179D01*
X177269737Y-80233497D01*
X177300500Y-80078842D01*
X177300500Y-79921158D01*
X177300500Y-79921155D01*
X177300499Y-79921153D01*
X177269738Y-79766510D01*
X177269737Y-79766503D01*
X177256062Y-79733489D01*
X177209397Y-79620827D01*
X177209390Y-79620814D01*
X177121789Y-79489711D01*
X177121786Y-79489707D01*
X177010292Y-79378213D01*
X177010288Y-79378210D01*
X176879185Y-79290609D01*
X176879172Y-79290602D01*
X176733501Y-79230264D01*
X176733489Y-79230261D01*
X176578845Y-79199500D01*
X176578842Y-79199500D01*
X176421158Y-79199500D01*
X176421155Y-79199500D01*
X176266510Y-79230261D01*
X176266498Y-79230264D01*
X176120827Y-79290602D01*
X176120814Y-79290609D01*
X175989711Y-79378210D01*
X175989707Y-79378213D01*
X175878213Y-79489707D01*
X175878210Y-79489711D01*
X175790609Y-79620814D01*
X175790602Y-79620827D01*
X175730264Y-79766498D01*
X175730261Y-79766510D01*
X175699500Y-79921153D01*
X165181348Y-79921153D01*
X165209394Y-79879179D01*
X165269737Y-79733497D01*
X165300500Y-79578842D01*
X165300500Y-79421158D01*
X165300500Y-79421155D01*
X165287426Y-79355431D01*
X165293653Y-79285840D01*
X165336515Y-79230662D01*
X165361589Y-79216679D01*
X165379179Y-79209394D01*
X165510289Y-79121789D01*
X165621789Y-79010289D01*
X165709394Y-78879179D01*
X165769737Y-78733497D01*
X165800500Y-78578842D01*
X165800500Y-78421158D01*
X165800500Y-78421155D01*
X165800499Y-78421153D01*
X179199500Y-78421153D01*
X179199500Y-78578846D01*
X179230261Y-78733489D01*
X179230264Y-78733501D01*
X179290602Y-78879172D01*
X179290609Y-78879185D01*
X179378210Y-79010288D01*
X179378213Y-79010292D01*
X179489707Y-79121786D01*
X179489711Y-79121789D01*
X179620814Y-79209390D01*
X179620827Y-79209397D01*
X179734425Y-79256450D01*
X179766503Y-79269737D01*
X179882468Y-79292804D01*
X179921153Y-79300499D01*
X179921156Y-79300500D01*
X179921158Y-79300500D01*
X180078844Y-79300500D01*
X180078845Y-79300499D01*
X180233497Y-79269737D01*
X180379179Y-79209394D01*
X180510289Y-79121789D01*
X180621789Y-79010289D01*
X180709394Y-78879179D01*
X180769737Y-78733497D01*
X180800500Y-78578842D01*
X180800500Y-78421158D01*
X180800500Y-78421155D01*
X180800499Y-78421153D01*
X180769738Y-78266510D01*
X180769737Y-78266503D01*
X180769735Y-78266498D01*
X180709397Y-78120827D01*
X180709390Y-78120814D01*
X180621789Y-77989711D01*
X180621786Y-77989707D01*
X180510292Y-77878213D01*
X180510288Y-77878210D01*
X180379185Y-77790609D01*
X180379172Y-77790602D01*
X180233501Y-77730264D01*
X180233489Y-77730261D01*
X180078845Y-77699500D01*
X180078842Y-77699500D01*
X179921158Y-77699500D01*
X179921155Y-77699500D01*
X179766510Y-77730261D01*
X179766498Y-77730264D01*
X179620827Y-77790602D01*
X179620814Y-77790609D01*
X179489711Y-77878210D01*
X179489707Y-77878213D01*
X179378213Y-77989707D01*
X179378210Y-77989711D01*
X179290609Y-78120814D01*
X179290602Y-78120827D01*
X179230264Y-78266498D01*
X179230261Y-78266510D01*
X179199500Y-78421153D01*
X165800499Y-78421153D01*
X165769738Y-78266510D01*
X165769737Y-78266503D01*
X165769735Y-78266498D01*
X165709397Y-78120827D01*
X165709390Y-78120814D01*
X165621789Y-77989711D01*
X165621786Y-77989707D01*
X165510292Y-77878213D01*
X165510284Y-77878207D01*
X165472712Y-77853102D01*
X165427906Y-77799490D01*
X165419199Y-77730165D01*
X165449353Y-77667138D01*
X165472712Y-77646898D01*
X165499279Y-77629145D01*
X165510289Y-77621789D01*
X165621789Y-77510289D01*
X165709394Y-77379179D01*
X165769737Y-77233497D01*
X165800500Y-77078842D01*
X165800500Y-76921158D01*
X165800500Y-76921155D01*
X165800499Y-76921153D01*
X165776499Y-76800499D01*
X165769737Y-76766503D01*
X165753174Y-76726516D01*
X165709397Y-76620827D01*
X165709390Y-76620814D01*
X165621789Y-76489711D01*
X165621786Y-76489707D01*
X165510292Y-76378213D01*
X165510288Y-76378210D01*
X165379185Y-76290609D01*
X165379172Y-76290602D01*
X165233501Y-76230264D01*
X165233491Y-76230261D01*
X165184374Y-76220491D01*
X165122463Y-76188106D01*
X165087889Y-76127389D01*
X165091630Y-76057620D01*
X165104781Y-76031016D01*
X165111805Y-76020272D01*
X165121789Y-76010289D01*
X165181348Y-75921153D01*
X170199500Y-75921153D01*
X170199500Y-76078846D01*
X170230261Y-76233489D01*
X170230264Y-76233501D01*
X170290602Y-76379172D01*
X170290609Y-76379185D01*
X170378210Y-76510288D01*
X170378213Y-76510292D01*
X170489707Y-76621786D01*
X170489711Y-76621789D01*
X170620814Y-76709390D01*
X170620827Y-76709397D01*
X170662157Y-76726516D01*
X170766503Y-76769737D01*
X170921153Y-76800499D01*
X170921156Y-76800500D01*
X170921158Y-76800500D01*
X171078844Y-76800500D01*
X171078845Y-76800499D01*
X171233497Y-76769737D01*
X171379179Y-76709394D01*
X171510289Y-76621789D01*
X171621789Y-76510289D01*
X171709394Y-76379179D01*
X171769737Y-76233497D01*
X171800500Y-76078842D01*
X171800500Y-75921158D01*
X171800500Y-75921155D01*
X171800499Y-75921153D01*
X174699500Y-75921153D01*
X174699500Y-76078846D01*
X174730261Y-76233489D01*
X174730264Y-76233501D01*
X174790602Y-76379172D01*
X174790609Y-76379185D01*
X174878210Y-76510288D01*
X174878213Y-76510292D01*
X174989707Y-76621786D01*
X174989715Y-76621792D01*
X175060498Y-76669088D01*
X175105304Y-76722700D01*
X175114011Y-76792025D01*
X175106169Y-76819642D01*
X175055999Y-76940763D01*
X175055996Y-76940775D01*
X175025235Y-77095418D01*
X175025235Y-77253111D01*
X175055996Y-77407754D01*
X175055999Y-77407766D01*
X175116337Y-77553437D01*
X175116344Y-77553450D01*
X175203945Y-77684553D01*
X175203948Y-77684557D01*
X175315442Y-77796051D01*
X175315446Y-77796054D01*
X175446549Y-77883655D01*
X175446562Y-77883662D01*
X175592233Y-77944000D01*
X175592238Y-77944002D01*
X175746888Y-77974764D01*
X175746891Y-77974765D01*
X175746893Y-77974765D01*
X175904579Y-77974765D01*
X175904580Y-77974764D01*
X176059232Y-77944002D01*
X176204914Y-77883659D01*
X176336024Y-77796054D01*
X176447524Y-77684554D01*
X176535129Y-77553444D01*
X176595472Y-77407762D01*
X176626235Y-77253107D01*
X176626235Y-77095423D01*
X176626235Y-77095420D01*
X176626234Y-77095418D01*
X176595473Y-76940775D01*
X176595472Y-76940768D01*
X176587347Y-76921153D01*
X176535132Y-76795092D01*
X176535125Y-76795079D01*
X176447524Y-76663976D01*
X176447521Y-76663972D01*
X176336027Y-76552478D01*
X176336023Y-76552475D01*
X176265235Y-76505176D01*
X176220430Y-76451564D01*
X176211723Y-76382239D01*
X176219562Y-76354630D01*
X176269737Y-76233497D01*
X176300500Y-76078842D01*
X176300500Y-75921158D01*
X176300500Y-75921155D01*
X176300499Y-75921153D01*
X176269738Y-75766510D01*
X176269737Y-75766503D01*
X176256062Y-75733489D01*
X176209397Y-75620827D01*
X176209390Y-75620814D01*
X176121790Y-75489712D01*
X176121784Y-75489705D01*
X176053232Y-75421153D01*
X184699500Y-75421153D01*
X184699500Y-75578846D01*
X184730261Y-75733489D01*
X184730264Y-75733501D01*
X184790602Y-75879172D01*
X184790609Y-75879185D01*
X184878210Y-76010288D01*
X184878213Y-76010292D01*
X184989707Y-76121786D01*
X184989711Y-76121789D01*
X185120814Y-76209390D01*
X185120827Y-76209397D01*
X185266498Y-76269735D01*
X185266503Y-76269737D01*
X185382468Y-76292804D01*
X185421153Y-76300499D01*
X185421156Y-76300500D01*
X185421158Y-76300500D01*
X185578844Y-76300500D01*
X185578845Y-76300499D01*
X185733497Y-76269737D01*
X185879179Y-76209394D01*
X186010289Y-76121789D01*
X186121789Y-76010289D01*
X186209394Y-75879179D01*
X186269737Y-75733497D01*
X186300500Y-75578842D01*
X186300500Y-75421158D01*
X186300500Y-75421155D01*
X186300499Y-75421153D01*
X186274531Y-75290606D01*
X186269737Y-75266503D01*
X186269735Y-75266498D01*
X186209397Y-75120827D01*
X186209390Y-75120814D01*
X186121789Y-74989711D01*
X186121786Y-74989707D01*
X186010292Y-74878213D01*
X186010288Y-74878210D01*
X185879185Y-74790609D01*
X185879172Y-74790602D01*
X185733501Y-74730264D01*
X185733489Y-74730261D01*
X185578845Y-74699500D01*
X185578842Y-74699500D01*
X185421158Y-74699500D01*
X185421155Y-74699500D01*
X185266510Y-74730261D01*
X185266498Y-74730264D01*
X185120827Y-74790602D01*
X185120814Y-74790609D01*
X184989711Y-74878210D01*
X184989707Y-74878213D01*
X184878213Y-74989707D01*
X184878210Y-74989711D01*
X184790609Y-75120814D01*
X184790602Y-75120827D01*
X184730264Y-75266498D01*
X184730261Y-75266510D01*
X184699500Y-75421153D01*
X176053232Y-75421153D01*
X176010292Y-75378213D01*
X176010288Y-75378210D01*
X175879185Y-75290609D01*
X175879172Y-75290602D01*
X175733501Y-75230264D01*
X175733489Y-75230261D01*
X175578845Y-75199500D01*
X175578842Y-75199500D01*
X175421158Y-75199500D01*
X175421155Y-75199500D01*
X175266510Y-75230261D01*
X175266498Y-75230264D01*
X175120827Y-75290602D01*
X175120814Y-75290609D01*
X174989711Y-75378210D01*
X174989707Y-75378213D01*
X174878213Y-75489707D01*
X174878210Y-75489711D01*
X174790609Y-75620814D01*
X174790602Y-75620827D01*
X174730264Y-75766498D01*
X174730261Y-75766510D01*
X174699500Y-75921153D01*
X171800499Y-75921153D01*
X171769738Y-75766510D01*
X171769737Y-75766503D01*
X171756062Y-75733489D01*
X171709397Y-75620827D01*
X171709390Y-75620814D01*
X171621789Y-75489711D01*
X171621786Y-75489707D01*
X171510292Y-75378213D01*
X171510288Y-75378210D01*
X171379185Y-75290609D01*
X171379172Y-75290602D01*
X171233501Y-75230264D01*
X171233489Y-75230261D01*
X171078845Y-75199500D01*
X171078842Y-75199500D01*
X170921158Y-75199500D01*
X170921155Y-75199500D01*
X170766510Y-75230261D01*
X170766498Y-75230264D01*
X170620827Y-75290602D01*
X170620814Y-75290609D01*
X170489711Y-75378210D01*
X170489707Y-75378213D01*
X170378213Y-75489707D01*
X170378210Y-75489711D01*
X170290609Y-75620814D01*
X170290602Y-75620827D01*
X170230264Y-75766498D01*
X170230261Y-75766510D01*
X170199500Y-75921153D01*
X165181348Y-75921153D01*
X165209394Y-75879179D01*
X165269737Y-75733497D01*
X165300500Y-75578842D01*
X165300500Y-75421158D01*
X165300500Y-75421155D01*
X165300499Y-75421153D01*
X165274531Y-75290606D01*
X165269737Y-75266503D01*
X165269735Y-75266498D01*
X165209397Y-75120827D01*
X165209390Y-75120814D01*
X165121789Y-74989711D01*
X165121786Y-74989707D01*
X165010292Y-74878213D01*
X165010284Y-74878207D01*
X164972712Y-74853102D01*
X164927906Y-74799490D01*
X164919199Y-74730165D01*
X164949353Y-74667138D01*
X164972712Y-74646898D01*
X164999279Y-74629145D01*
X165010289Y-74621789D01*
X165121789Y-74510289D01*
X165209394Y-74379179D01*
X165269737Y-74233497D01*
X165300500Y-74078842D01*
X165300500Y-73921158D01*
X165300500Y-73921155D01*
X165300499Y-73921153D01*
X165276499Y-73800500D01*
X165269737Y-73766503D01*
X165269735Y-73766498D01*
X165209397Y-73620827D01*
X165209390Y-73620814D01*
X165121789Y-73489711D01*
X165121786Y-73489707D01*
X165120885Y-73488806D01*
X165120563Y-73488217D01*
X165117924Y-73485001D01*
X165118533Y-73484500D01*
X165087400Y-73427483D01*
X165092384Y-73357791D01*
X165134256Y-73301858D01*
X165184372Y-73279508D01*
X165233497Y-73269737D01*
X165379179Y-73209394D01*
X165510289Y-73121789D01*
X165621789Y-73010289D01*
X165709394Y-72879179D01*
X165769737Y-72733497D01*
X165800500Y-72578842D01*
X165800500Y-72421158D01*
X165800500Y-72421155D01*
X165800499Y-72421153D01*
X165774531Y-72290606D01*
X165769737Y-72266503D01*
X165764369Y-72253543D01*
X178504499Y-72253543D01*
X178542947Y-72446829D01*
X178542950Y-72446839D01*
X178618364Y-72628907D01*
X178618371Y-72628920D01*
X178727860Y-72792781D01*
X178727863Y-72792785D01*
X178867214Y-72932136D01*
X178867218Y-72932139D01*
X179031079Y-73041628D01*
X179031092Y-73041635D01*
X179120924Y-73078844D01*
X179213165Y-73117051D01*
X179213169Y-73117051D01*
X179213170Y-73117052D01*
X179406456Y-73155500D01*
X179406459Y-73155500D01*
X179603543Y-73155500D01*
X179733582Y-73129632D01*
X179796835Y-73117051D01*
X179978914Y-73041632D01*
X180142782Y-72932139D01*
X180282139Y-72792782D01*
X180391632Y-72628914D01*
X180467051Y-72446835D01*
X180498127Y-72290609D01*
X180505500Y-72253543D01*
X180505500Y-71667049D01*
X180525185Y-71600010D01*
X180577989Y-71554255D01*
X180647147Y-71544311D01*
X180691499Y-71559662D01*
X180736025Y-71585369D01*
X180867133Y-71620500D01*
X180867135Y-71620500D01*
X181002865Y-71620500D01*
X181002867Y-71620500D01*
X181133975Y-71585369D01*
X181251524Y-71517502D01*
X181347502Y-71421524D01*
X181415369Y-71303975D01*
X181450500Y-71172867D01*
X181450500Y-71037133D01*
X186199500Y-71037133D01*
X186199500Y-71172867D01*
X186231049Y-71290606D01*
X186234632Y-71303978D01*
X186302495Y-71421520D01*
X186302497Y-71421522D01*
X186302498Y-71421524D01*
X186398476Y-71517502D01*
X186398477Y-71517503D01*
X186398479Y-71517504D01*
X186516021Y-71585367D01*
X186516022Y-71585367D01*
X186516025Y-71585369D01*
X186647133Y-71620500D01*
X186647135Y-71620500D01*
X186782865Y-71620500D01*
X186782867Y-71620500D01*
X186913975Y-71585369D01*
X186958499Y-71559662D01*
X187026398Y-71543189D01*
X187092425Y-71566040D01*
X187135617Y-71620961D01*
X187144500Y-71667049D01*
X187144500Y-72253541D01*
X187144500Y-72253543D01*
X187144499Y-72253543D01*
X187182947Y-72446829D01*
X187182950Y-72446839D01*
X187258364Y-72628907D01*
X187258371Y-72628920D01*
X187367860Y-72792781D01*
X187367863Y-72792785D01*
X187507214Y-72932136D01*
X187507218Y-72932139D01*
X187671079Y-73041628D01*
X187671092Y-73041635D01*
X187760924Y-73078844D01*
X187853165Y-73117051D01*
X187923893Y-73131119D01*
X187965966Y-73139489D01*
X188027877Y-73171874D01*
X188062451Y-73232589D01*
X188058712Y-73302359D01*
X188017845Y-73359031D01*
X188010668Y-73364206D01*
X187989716Y-73378206D01*
X187989707Y-73378213D01*
X187878213Y-73489707D01*
X187878210Y-73489711D01*
X187790609Y-73620814D01*
X187790602Y-73620827D01*
X187730264Y-73766498D01*
X187730261Y-73766510D01*
X187699500Y-73921153D01*
X187699500Y-74078846D01*
X187730261Y-74233489D01*
X187730264Y-74233501D01*
X187790602Y-74379172D01*
X187790609Y-74379185D01*
X187878210Y-74510288D01*
X187878213Y-74510292D01*
X187989707Y-74621786D01*
X187989711Y-74621789D01*
X188120814Y-74709390D01*
X188120827Y-74709397D01*
X188218853Y-74750000D01*
X188266503Y-74769737D01*
X188421153Y-74800499D01*
X188421156Y-74800500D01*
X188421158Y-74800500D01*
X188578844Y-74800500D01*
X188578845Y-74800499D01*
X188733497Y-74769737D01*
X188879179Y-74709394D01*
X189010289Y-74621789D01*
X189121789Y-74510289D01*
X189209394Y-74379179D01*
X189269737Y-74233497D01*
X189300500Y-74078842D01*
X189300500Y-73921158D01*
X189300500Y-73921155D01*
X189300499Y-73921153D01*
X189276499Y-73800500D01*
X189269737Y-73766503D01*
X189269735Y-73766498D01*
X189209397Y-73620827D01*
X189209390Y-73620814D01*
X189121789Y-73489711D01*
X189121786Y-73489707D01*
X189010292Y-73378213D01*
X189010288Y-73378210D01*
X188879185Y-73290609D01*
X188879172Y-73290602D01*
X188733501Y-73230264D01*
X188733495Y-73230262D01*
X188721262Y-73227829D01*
X188659352Y-73195442D01*
X188624780Y-73134725D01*
X188628522Y-73064955D01*
X188669390Y-73008285D01*
X188676567Y-73003110D01*
X188738065Y-72962017D01*
X188782782Y-72932139D01*
X188922139Y-72792782D01*
X189031632Y-72628914D01*
X189107051Y-72446835D01*
X189138127Y-72290609D01*
X189145500Y-72253543D01*
X189145500Y-70956456D01*
X189107052Y-70763170D01*
X189107051Y-70763169D01*
X189107051Y-70763165D01*
X189084780Y-70709397D01*
X189031635Y-70581092D01*
X189031628Y-70581079D01*
X188922139Y-70417218D01*
X188922136Y-70417214D01*
X188782785Y-70277863D01*
X188782781Y-70277860D01*
X188618920Y-70168371D01*
X188618907Y-70168364D01*
X188436839Y-70092950D01*
X188436829Y-70092947D01*
X188243543Y-70054500D01*
X188243541Y-70054500D01*
X188046459Y-70054500D01*
X188046457Y-70054500D01*
X187853170Y-70092947D01*
X187853160Y-70092950D01*
X187671092Y-70168364D01*
X187671079Y-70168371D01*
X187507218Y-70277860D01*
X187507214Y-70277863D01*
X187367863Y-70417214D01*
X187367860Y-70417218D01*
X187258371Y-70581079D01*
X187258364Y-70581092D01*
X187230313Y-70648816D01*
X187186472Y-70703220D01*
X187120178Y-70725285D01*
X187052479Y-70708006D01*
X187038311Y-70697000D01*
X187037970Y-70697445D01*
X187031520Y-70692495D01*
X186913978Y-70624632D01*
X186913979Y-70624632D01*
X186898484Y-70620480D01*
X186782867Y-70589500D01*
X186647133Y-70589500D01*
X186531515Y-70620480D01*
X186516021Y-70624632D01*
X186398479Y-70692495D01*
X186398473Y-70692500D01*
X186302500Y-70788473D01*
X186302495Y-70788479D01*
X186234632Y-70906021D01*
X186234631Y-70906025D01*
X186199500Y-71037133D01*
X181450500Y-71037133D01*
X181415369Y-70906025D01*
X181399869Y-70879179D01*
X181347504Y-70788479D01*
X181347499Y-70788473D01*
X181251526Y-70692500D01*
X181251520Y-70692495D01*
X181133978Y-70624632D01*
X181133979Y-70624632D01*
X181118484Y-70620480D01*
X181002867Y-70589500D01*
X180867133Y-70589500D01*
X180751515Y-70620480D01*
X180736021Y-70624632D01*
X180618479Y-70692495D01*
X180612030Y-70697445D01*
X180610413Y-70695338D01*
X180560579Y-70722536D01*
X180490888Y-70717536D01*
X180434964Y-70675653D01*
X180419686Y-70648816D01*
X180391632Y-70581086D01*
X180391628Y-70581079D01*
X180282139Y-70417218D01*
X180282136Y-70417214D01*
X180142785Y-70277863D01*
X180142781Y-70277860D01*
X179978920Y-70168371D01*
X179978907Y-70168364D01*
X179796839Y-70092950D01*
X179796829Y-70092947D01*
X179603543Y-70054500D01*
X179603541Y-70054500D01*
X179406459Y-70054500D01*
X179406457Y-70054500D01*
X179213170Y-70092947D01*
X179213160Y-70092950D01*
X179031092Y-70168364D01*
X179031079Y-70168371D01*
X178867218Y-70277860D01*
X178867214Y-70277863D01*
X178727863Y-70417214D01*
X178727860Y-70417218D01*
X178618371Y-70581079D01*
X178618364Y-70581092D01*
X178542950Y-70763160D01*
X178542947Y-70763170D01*
X178504500Y-70956456D01*
X178504500Y-70956459D01*
X178504500Y-72253541D01*
X178504500Y-72253543D01*
X178504499Y-72253543D01*
X165764369Y-72253543D01*
X165748056Y-72214159D01*
X165709396Y-72120825D01*
X165709394Y-72120822D01*
X165709394Y-72120821D01*
X165674694Y-72068889D01*
X165653816Y-72002215D01*
X165672300Y-71934835D01*
X165674676Y-71931136D01*
X165709394Y-71879179D01*
X165769737Y-71733497D01*
X165800500Y-71578842D01*
X165800500Y-71421158D01*
X165800500Y-71421155D01*
X165800499Y-71421153D01*
X165777191Y-71303978D01*
X165769737Y-71266503D01*
X165762901Y-71250000D01*
X165709397Y-71120827D01*
X165709390Y-71120814D01*
X165641532Y-71019258D01*
X165621789Y-70989711D01*
X165621786Y-70989707D01*
X165510292Y-70878213D01*
X165510288Y-70878210D01*
X165379185Y-70790609D01*
X165379172Y-70790602D01*
X165233501Y-70730264D01*
X165233491Y-70730261D01*
X165184374Y-70720491D01*
X165122463Y-70688106D01*
X165087889Y-70627389D01*
X165091630Y-70557620D01*
X165118296Y-70515304D01*
X165117924Y-70514999D01*
X165120357Y-70512033D01*
X165120891Y-70511186D01*
X165121789Y-70510289D01*
X165209394Y-70379179D01*
X165269737Y-70233497D01*
X165300500Y-70078842D01*
X165300500Y-69921158D01*
X165300500Y-69921155D01*
X165287426Y-69855431D01*
X165293653Y-69785840D01*
X165336515Y-69730662D01*
X165361589Y-69716679D01*
X165379179Y-69709394D01*
X165510289Y-69621789D01*
X165621789Y-69510289D01*
X165709394Y-69379179D01*
X165769737Y-69233497D01*
X165800500Y-69078842D01*
X165800500Y-68921158D01*
X165800500Y-68921155D01*
X165800499Y-68921153D01*
X165769738Y-68766510D01*
X165769737Y-68766503D01*
X165726895Y-68663072D01*
X165709397Y-68620827D01*
X165709390Y-68620814D01*
X165621789Y-68489711D01*
X165621786Y-68489707D01*
X165510292Y-68378213D01*
X165510284Y-68378207D01*
X165472712Y-68353102D01*
X165427906Y-68299490D01*
X165419199Y-68230165D01*
X165449353Y-68167138D01*
X165472712Y-68146898D01*
X165500001Y-68128663D01*
X165510289Y-68121789D01*
X165621789Y-68010289D01*
X165709394Y-67879179D01*
X165769737Y-67733497D01*
X165779508Y-67684373D01*
X165811892Y-67622464D01*
X165872607Y-67587890D01*
X165942377Y-67591629D01*
X165984696Y-67618295D01*
X165985001Y-67617924D01*
X165987957Y-67620350D01*
X165988806Y-67620885D01*
X165989707Y-67621786D01*
X165989711Y-67621789D01*
X166120814Y-67709390D01*
X166120827Y-67709397D01*
X166266498Y-67769735D01*
X166266503Y-67769737D01*
X166421153Y-67800499D01*
X166421156Y-67800500D01*
X166421158Y-67800500D01*
X166578844Y-67800500D01*
X166578845Y-67800499D01*
X166733497Y-67769737D01*
X166879179Y-67709394D01*
X167010289Y-67621789D01*
X167121789Y-67510289D01*
X167129145Y-67499279D01*
X167146898Y-67472712D01*
X167200510Y-67427906D01*
X167269835Y-67419199D01*
X167332862Y-67449353D01*
X167353102Y-67472712D01*
X167378207Y-67510284D01*
X167378213Y-67510292D01*
X167489707Y-67621786D01*
X167489711Y-67621789D01*
X167620814Y-67709390D01*
X167620827Y-67709397D01*
X167766498Y-67769735D01*
X167766503Y-67769737D01*
X167921153Y-67800499D01*
X167921156Y-67800500D01*
X167921158Y-67800500D01*
X168078844Y-67800500D01*
X168078845Y-67800499D01*
X168233497Y-67769737D01*
X168379179Y-67709394D01*
X168510289Y-67621789D01*
X168621789Y-67510289D01*
X168629145Y-67499279D01*
X168646898Y-67472712D01*
X168700510Y-67427906D01*
X168769835Y-67419199D01*
X168832862Y-67449353D01*
X168853102Y-67472712D01*
X168878207Y-67510284D01*
X168878213Y-67510292D01*
X168989707Y-67621786D01*
X168989711Y-67621789D01*
X169120814Y-67709390D01*
X169120827Y-67709397D01*
X169266498Y-67769735D01*
X169266503Y-67769737D01*
X169421153Y-67800499D01*
X169421156Y-67800500D01*
X169421158Y-67800500D01*
X169578844Y-67800500D01*
X169578845Y-67800499D01*
X169733497Y-67769737D01*
X169879179Y-67709394D01*
X170010289Y-67621789D01*
X170121789Y-67510289D01*
X170209394Y-67379179D01*
X170269737Y-67233497D01*
X170300500Y-67078842D01*
X170300500Y-66921158D01*
X170300500Y-66921155D01*
X170300499Y-66921153D01*
X170285586Y-66846182D01*
X170269737Y-66766503D01*
X170255926Y-66733160D01*
X170209397Y-66620827D01*
X170209390Y-66620814D01*
X170121789Y-66489711D01*
X170121786Y-66489707D01*
X170010292Y-66378213D01*
X170010288Y-66378210D01*
X169879185Y-66290609D01*
X169879172Y-66290602D01*
X169733501Y-66230264D01*
X169733489Y-66230261D01*
X169578845Y-66199500D01*
X169578842Y-66199500D01*
X169421158Y-66199500D01*
X169421155Y-66199500D01*
X169266510Y-66230261D01*
X169266498Y-66230264D01*
X169120827Y-66290602D01*
X169120814Y-66290609D01*
X168989711Y-66378210D01*
X168989707Y-66378213D01*
X168878213Y-66489707D01*
X168853102Y-66527289D01*
X168799489Y-66572093D01*
X168730164Y-66580800D01*
X168667137Y-66550645D01*
X168646898Y-66527289D01*
X168621786Y-66489707D01*
X168510292Y-66378213D01*
X168510288Y-66378210D01*
X168379185Y-66290609D01*
X168379172Y-66290602D01*
X168233501Y-66230264D01*
X168233489Y-66230261D01*
X168078845Y-66199500D01*
X168078842Y-66199500D01*
X167921158Y-66199500D01*
X167921155Y-66199500D01*
X167766510Y-66230261D01*
X167766498Y-66230264D01*
X167620827Y-66290602D01*
X167620814Y-66290609D01*
X167489711Y-66378210D01*
X167489707Y-66378213D01*
X167378213Y-66489707D01*
X167353102Y-66527289D01*
X167299489Y-66572093D01*
X167230164Y-66580800D01*
X167167137Y-66550645D01*
X167146898Y-66527289D01*
X167121786Y-66489707D01*
X167010292Y-66378213D01*
X167010288Y-66378210D01*
X166879185Y-66290609D01*
X166879172Y-66290602D01*
X166733501Y-66230264D01*
X166733489Y-66230261D01*
X166578845Y-66199500D01*
X166578842Y-66199500D01*
X166421158Y-66199500D01*
X166421155Y-66199500D01*
X166266510Y-66230261D01*
X166266498Y-66230264D01*
X166120827Y-66290602D01*
X166120814Y-66290609D01*
X165989711Y-66378210D01*
X165989707Y-66378213D01*
X165878213Y-66489707D01*
X165878210Y-66489711D01*
X165790609Y-66620814D01*
X165790602Y-66620827D01*
X165730264Y-66766498D01*
X165730261Y-66766507D01*
X165720491Y-66815626D01*
X165688105Y-66877536D01*
X165627389Y-66912110D01*
X165557620Y-66908369D01*
X165515303Y-66881704D01*
X165514999Y-66882076D01*
X165512040Y-66879647D01*
X165511193Y-66879114D01*
X165510292Y-66878213D01*
X165510288Y-66878210D01*
X165379185Y-66790609D01*
X165379172Y-66790602D01*
X165233501Y-66730264D01*
X165233489Y-66730261D01*
X165078845Y-66699500D01*
X165078842Y-66699500D01*
X164921158Y-66699500D01*
X164921155Y-66699500D01*
X164766510Y-66730261D01*
X164766498Y-66730264D01*
X164620827Y-66790602D01*
X164620814Y-66790609D01*
X164489711Y-66878210D01*
X164489707Y-66878213D01*
X164378213Y-66989707D01*
X164378210Y-66989711D01*
X164290609Y-67120814D01*
X164290602Y-67120827D01*
X164230264Y-67266498D01*
X164230261Y-67266510D01*
X164199500Y-67421153D01*
X164199500Y-67578846D01*
X164230261Y-67733489D01*
X164230264Y-67733501D01*
X164290602Y-67879172D01*
X164290609Y-67879185D01*
X164378210Y-68010288D01*
X164378213Y-68010292D01*
X164489707Y-68121786D01*
X164489710Y-68121788D01*
X164489711Y-68121789D01*
X164499999Y-68128663D01*
X164527289Y-68146898D01*
X164572093Y-68200511D01*
X164580800Y-68269836D01*
X164550645Y-68332863D01*
X164527289Y-68353102D01*
X164489707Y-68378213D01*
X164378213Y-68489707D01*
X164378210Y-68489711D01*
X164290609Y-68620814D01*
X164290602Y-68620827D01*
X164230264Y-68766498D01*
X164230261Y-68766510D01*
X164199500Y-68921153D01*
X164199500Y-69078846D01*
X164212573Y-69144568D01*
X164206346Y-69214159D01*
X164163483Y-69269337D01*
X164138411Y-69283319D01*
X164120826Y-69290603D01*
X164120814Y-69290609D01*
X163989711Y-69378210D01*
X163989707Y-69378213D01*
X163878213Y-69489707D01*
X163878210Y-69489711D01*
X163790609Y-69620814D01*
X163790602Y-69620827D01*
X163730264Y-69766498D01*
X163730261Y-69766510D01*
X163699500Y-69921153D01*
X163000500Y-69921153D01*
X163000500Y-69003051D01*
X163000649Y-68996967D01*
X163010961Y-68787051D01*
X163017052Y-68663068D01*
X163018245Y-68650962D01*
X163046159Y-68462781D01*
X163066849Y-68323296D01*
X163069218Y-68311385D01*
X163149710Y-67990043D01*
X163153240Y-67978411D01*
X163172873Y-67923541D01*
X163264835Y-67666525D01*
X163269476Y-67655318D01*
X163411124Y-67355828D01*
X163416840Y-67345136D01*
X163587145Y-67060998D01*
X163593888Y-67050905D01*
X163791232Y-66784818D01*
X163798935Y-66775433D01*
X164021405Y-66529975D01*
X164029975Y-66521405D01*
X164275433Y-66298935D01*
X164284818Y-66291232D01*
X164550905Y-66093888D01*
X164560998Y-66087145D01*
X164845136Y-65916840D01*
X164855828Y-65911124D01*
X165155318Y-65769476D01*
X165166525Y-65764835D01*
X165478412Y-65653239D01*
X165490043Y-65649710D01*
X165811385Y-65569218D01*
X165823296Y-65566849D01*
X166150962Y-65518244D01*
X166163068Y-65517052D01*
X166496967Y-65500648D01*
X166503051Y-65500500D01*
X166565892Y-65500500D01*
X172697810Y-65500500D01*
X172764849Y-65520185D01*
G37*
%TD.AperFunction*%
%TD*%
M02*
