M48
; DRILL file KiCad 10.0.5 date 2026-09-21T05:07:03
; FORMAT={-:-/ absolute / metric / decimal}
; #@! TF.CreationDate,2026-09-21T05:07:03+05:30
; #@! TF.GenerationSoftware,Kicad,Pcbnew,10.0.5
; #@! TF.FileFunction,Plated,1,4,PTH
FMAT,2
METRIC
; #@! TA.AperFunction,Plated,PTH,ViaDrill
T1C0.300
; #@! TA.AperFunction,Plated,PTH,ComponentDrill
T2C0.600
; #@! TA.AperFunction,Plated,PTH,ComponentDrill
T3C1.000
%
G90
G05
T1
X164.5Y-70.0
X164.5Y-74.0
X164.5Y-75.5
X164.5Y-79.5
X164.5Y-83.5
X164.5Y-85.0
X164.5Y-89.0
X164.5Y-93.0
X164.5Y-94.5
X164.5Y-98.0
X164.5Y-102.0
X164.5Y-103.5
X165.0Y-67.5
X165.0Y-69.0
X165.0Y-71.5
X165.0Y-72.5
X165.0Y-77.0
X165.0Y-78.5
X165.0Y-81.0
X165.0Y-82.0
X165.0Y-86.5
X165.0Y-88.0
X165.0Y-90.5
X165.0Y-91.5
X165.0Y-95.5
X165.0Y-97.0
X165.0Y-99.5
X165.0Y-100.5
X165.0Y-105.5
X166.5Y-67.0
X166.5Y-106.0
X168.0Y-67.0
X168.5Y-106.0
X169.5Y-67.0
X171.0Y-76.0
X171.5Y-67.0
X171.5Y-106.5
X172.0Y-80.763
X172.0Y-82.0
X173.0Y-66.5
X173.0Y-106.5
X174.0Y-82.0
X174.0Y-84.0
X174.5Y-66.5
X174.5Y-106.5
X175.0Y-85.0
X175.5Y-76.0
X175.5Y-106.5
X175.826Y-77.174
X176.0Y-66.5
X176.0Y-74.5
X176.5Y-80.0
X177.0Y-106.5
X178.0Y-66.5
X178.5Y-106.5
X178.89Y-89.157
X179.0Y-86.5
X179.04Y-82.282
X180.0Y-78.5
X180.0Y-106.5
X180.001Y-82.298
X180.006Y-91.506
X180.5Y-80.0
X182.0Y-106.5
X182.1Y-80.5
X184.0Y-99.0
X184.5Y-81.0
X184.5Y-106.5
X185.5Y-75.5
X185.5Y-90.0
X186.01Y-86.5
X186.326Y-85.674
X186.5Y-106.0
X187.5Y-85.0
X187.5Y-94.5
X187.5Y-107.0
X188.0Y-90.5
X188.0Y-91.5
X188.0Y-92.5
X188.0Y-93.5
X188.0Y-96.0
X188.5Y-74.0
X188.5Y-97.0
X189.0Y-88.6
X189.0Y-95.0
X189.5Y-84.5
X190.0Y-97.0
X190.0Y-103.0
X190.0Y-104.0
X190.0Y-105.0
X190.0Y-106.0
X190.0Y-107.0
X190.5Y-66.5
X191.0Y-92.0
X191.0Y-97.0
X191.0Y-98.0
X191.0Y-99.0
X191.0Y-100.0
X191.0Y-101.0
X191.0Y-102.0
X191.0Y-107.0
X191.5Y-82.0
X192.0Y-67.0
X192.0Y-107.0
X193.0Y-107.0
X194.0Y-67.0
X194.0Y-96.0
X194.0Y-107.0
X194.5Y-93.0
X194.5Y-100.5
X195.0Y-92.0
X195.0Y-95.0
X195.0Y-96.0
X195.0Y-97.5
X195.0Y-98.5
X195.0Y-99.5
X195.0Y-101.5
X195.0Y-102.5
X195.0Y-103.5
X195.0Y-104.5
X195.0Y-105.5
X195.0Y-106.5
X195.5Y-94.0
X196.0Y-93.0
X196.5Y-88.5
X196.5Y-107.0
X197.0Y-67.5
X197.0Y-92.5
X198.0Y-107.0
X198.5Y-67.5
X198.5Y-91.5
X199.0Y-90.0
X199.5Y-105.5
X199.5Y-107.0
X200.0Y-67.5
X200.0Y-83.5
X201.0Y-67.5
X201.0Y-105.5
X201.5Y-107.0
X202.5Y-67.5
X202.5Y-105.5
X204.0Y-67.5
X204.5Y-105.5
X205.5Y-67.5
X206.0Y-73.0
X206.0Y-77.0
X206.0Y-78.5
X206.0Y-82.5
X206.0Y-86.5
X206.0Y-88.0
X206.0Y-92.0
X206.0Y-96.0
X206.0Y-97.5
X206.0Y-101.0
X206.0Y-105.0
X206.0Y-106.5
X206.5Y-70.5
X206.5Y-72.0
X206.5Y-74.5
X206.5Y-75.5
X206.5Y-80.0
X206.5Y-81.5
X206.5Y-84.0
X206.5Y-85.0
X206.5Y-89.5
X206.5Y-91.0
X206.5Y-93.5
X206.5Y-94.5
X206.5Y-98.5
X206.5Y-100.0
X206.5Y-102.5
X206.5Y-103.5
X207.5Y-67.5
T3
X192.287Y-104.4
T2
G00X179.505Y-67.825
M15
G01X179.505Y-67.025
M16
G05
G00X179.505Y-72.155
M15
G01X179.505Y-71.055
M16
G05
G00X188.145Y-67.825
M15
G01X188.145Y-67.025
M16
G05
G00X188.145Y-72.155
M15
G01X188.145Y-71.055
M16
G05
M30
