%TF.GenerationSoftware,KiCad,Pcbnew,10.0.5*%
%TF.CreationDate,2026-09-16T00:15:51+05:30*%
%TF.ProjectId,lora-v2,6c6f7261-2d76-4322-9e6b-696361645f70,rev?*%
%TF.SameCoordinates,Original*%
%TF.FileFunction,Paste,Top*%
%TF.FilePolarity,Positive*%
%FSLAX46Y46*%
G04 Gerber Fmt 4.6, Leading zero omitted, Abs format (unit mm)*
G04 Created by KiCad (PCBNEW 10.0.5) date 2026-09-16 00:15:51*
%MOMM*%
%LPD*%
G01*
G04 APERTURE LIST*
G04 Aperture macros list*
%AMRoundRect*
0 Rectangle with rounded corners*
0 $1 Rounding radius*
0 $2 $3 $4 $5 $6 $7 $8 $9 X,Y pos of 4 corners*
0 Add a 4 corners polygon primitive as box body*
4,1,4,$2,$3,$4,$5,$6,$7,$8,$9,$2,$3,0*
0 Add four circle primitives for the rounded corners*
1,1,$1+$1,$2,$3*
1,1,$1+$1,$4,$5*
1,1,$1+$1,$6,$7*
1,1,$1+$1,$8,$9*
0 Add four rect primitives between the rounded corners*
20,1,$1+$1,$2,$3,$4,$5,0*
20,1,$1+$1,$4,$5,$6,$7,0*
20,1,$1+$1,$6,$7,$8,$9,0*
20,1,$1+$1,$8,$9,$2,$3,0*%
G04 Aperture macros list end*
%ADD10RoundRect,0.150000X0.150000X0.425000X-0.150000X0.425000X-0.150000X-0.425000X0.150000X-0.425000X0*%
%ADD11RoundRect,0.075000X0.075000X0.500000X-0.075000X0.500000X-0.075000X-0.500000X0.075000X-0.500000X0*%
%ADD12O,1.000000X2.100000*%
%ADD13O,1.000000X1.800000*%
%ADD14RoundRect,0.140000X-0.170000X0.140000X-0.170000X-0.140000X0.170000X-0.140000X0.170000X0.140000X0*%
%ADD15R,1.250000X1.000000*%
%ADD16R,1.000000X1.250000*%
%ADD17RoundRect,0.135000X0.185000X-0.135000X0.185000X0.135000X-0.185000X0.135000X-0.185000X-0.135000X0*%
%ADD18RoundRect,0.135000X0.135000X0.185000X-0.135000X0.185000X-0.135000X-0.185000X0.135000X-0.185000X0*%
%ADD19RoundRect,0.140000X0.140000X0.170000X-0.140000X0.170000X-0.140000X-0.170000X0.140000X-0.170000X0*%
%ADD20RoundRect,0.140000X0.170000X-0.140000X0.170000X0.140000X-0.170000X0.140000X-0.170000X-0.140000X0*%
%ADD21RoundRect,0.140000X-0.140000X-0.170000X0.140000X-0.170000X0.140000X0.170000X-0.140000X0.170000X0*%
%ADD22RoundRect,0.249999X-0.395001X-0.395001X0.395001X-0.395001X0.395001X0.395001X-0.395001X0.395001X0*%
%ADD23RoundRect,0.050000X-0.387500X-0.050000X0.387500X-0.050000X0.387500X0.050000X-0.387500X0.050000X0*%
%ADD24RoundRect,0.050000X-0.050000X-0.387500X0.050000X-0.387500X0.050000X0.387500X-0.050000X0.387500X0*%
%ADD25RoundRect,0.087500X-0.087500X0.425000X-0.087500X-0.425000X0.087500X-0.425000X0.087500X0.425000X0*%
%ADD26RoundRect,0.147500X-0.147500X-0.172500X0.147500X-0.172500X0.147500X0.172500X-0.147500X0.172500X0*%
%ADD27RoundRect,0.250000X-0.350000X0.450000X-0.350000X-0.450000X0.350000X-0.450000X0.350000X0.450000X0*%
%ADD28RoundRect,0.150000X-0.150000X0.512500X-0.150000X-0.512500X0.150000X-0.512500X0.150000X0.512500X0*%
%ADD29RoundRect,0.147500X0.147500X0.172500X-0.147500X0.172500X-0.147500X-0.172500X0.147500X-0.172500X0*%
%ADD30RoundRect,0.250000X0.275000X0.275000X-0.275000X0.275000X-0.275000X-0.275000X0.275000X-0.275000X0*%
%ADD31RoundRect,0.062500X0.350000X0.062500X-0.350000X0.062500X-0.350000X-0.062500X0.350000X-0.062500X0*%
%ADD32RoundRect,0.062500X0.062500X0.350000X-0.062500X0.350000X-0.062500X-0.350000X0.062500X-0.350000X0*%
%ADD33RoundRect,0.162500X-0.650000X-0.162500X0.650000X-0.162500X0.650000X0.162500X-0.650000X0.162500X0*%
%ADD34RoundRect,0.147500X-0.172500X0.147500X-0.172500X-0.147500X0.172500X-0.147500X0.172500X0.147500X0*%
%ADD35RoundRect,0.135000X-0.185000X0.135000X-0.185000X-0.135000X0.185000X-0.135000X0.185000X0.135000X0*%
%ADD36RoundRect,0.075000X-0.075000X0.225000X-0.075000X-0.225000X0.075000X-0.225000X0.075000X0.225000X0*%
%ADD37RoundRect,0.075000X-0.237500X0.075000X-0.237500X-0.075000X0.237500X-0.075000X0.237500X0.075000X0*%
G04 APERTURE END LIST*
D10*
%TO.C,J1*%
X187025000Y-72180000D03*
X186225000Y-72180000D03*
D11*
X185075000Y-72180000D03*
X184075000Y-72180000D03*
X183575000Y-72180000D03*
X182575000Y-72180000D03*
D10*
X181425000Y-72180000D03*
X180625000Y-72180000D03*
X180625000Y-72180000D03*
X181425000Y-72180000D03*
D11*
X182075000Y-72180000D03*
X183075000Y-72180000D03*
X184575000Y-72180000D03*
X185575000Y-72180000D03*
D10*
X186225000Y-72180000D03*
X187025000Y-72180000D03*
D12*
X188145000Y-71605000D03*
D13*
X188145000Y-67425000D03*
D12*
X179505000Y-71605000D03*
D13*
X179505000Y-67425000D03*
%TD*%
D14*
%TO.C,C14*%
X174500000Y-82520000D03*
X174500000Y-83480000D03*
%TD*%
D15*
%TO.C,SW1*%
X177375000Y-71000000D03*
X169625000Y-71000000D03*
%TD*%
D14*
%TO.C,C7*%
X192767500Y-96920000D03*
X192767500Y-97880000D03*
%TD*%
D16*
%TO.C,SW2*%
X182500000Y-98737500D03*
X182500000Y-90987500D03*
%TD*%
D17*
%TO.C,R7*%
X169500000Y-73500000D03*
X169500000Y-72480000D03*
%TD*%
D18*
%TO.C,R6*%
X182010000Y-74000000D03*
X180990000Y-74000000D03*
%TD*%
D19*
%TO.C,C20*%
X185980000Y-82000000D03*
X185020000Y-82000000D03*
%TD*%
%TO.C,C28*%
X174980000Y-86000000D03*
X174020000Y-86000000D03*
%TD*%
D20*
%TO.C,C17*%
X179500000Y-79480000D03*
X179500000Y-78520000D03*
%TD*%
D21*
%TO.C,C13*%
X185040000Y-84000000D03*
X186000000Y-84000000D03*
%TD*%
D14*
%TO.C,C5*%
X197287500Y-89920000D03*
X197287500Y-90880000D03*
%TD*%
D22*
%TO.C,U1*%
X179300000Y-84000000D03*
X179300000Y-85600000D03*
X180900000Y-84000000D03*
X180900000Y-85600000D03*
D23*
X176662500Y-82200000D03*
X176662500Y-82600000D03*
X176662500Y-83000000D03*
X176662500Y-83400000D03*
X176662500Y-83800000D03*
X176662500Y-84200000D03*
X176662500Y-84600000D03*
X176662500Y-85000000D03*
X176662500Y-85400000D03*
X176662500Y-85800000D03*
X176662500Y-86200000D03*
X176662500Y-86600000D03*
X176662500Y-87000000D03*
X176662500Y-87400000D03*
D24*
X177500000Y-88237500D03*
X177900000Y-88237500D03*
X178300000Y-88237500D03*
X178700000Y-88237500D03*
X179100000Y-88237500D03*
X179500000Y-88237500D03*
X179900000Y-88237500D03*
X180300000Y-88237500D03*
X180700000Y-88237500D03*
X181100000Y-88237500D03*
X181500000Y-88237500D03*
X181900000Y-88237500D03*
X182300000Y-88237500D03*
X182700000Y-88237500D03*
D23*
X183537500Y-87400000D03*
X183537500Y-87000000D03*
X183537500Y-86600000D03*
X183537500Y-86200000D03*
X183537500Y-85800000D03*
X183537500Y-85400000D03*
X183537500Y-85000000D03*
X183537500Y-84600000D03*
X183537500Y-84200000D03*
X183537500Y-83800000D03*
X183537500Y-83400000D03*
X183537500Y-83000000D03*
X183537500Y-82600000D03*
X183537500Y-82200000D03*
D24*
X182700000Y-81362500D03*
X182300000Y-81362500D03*
X181900000Y-81362500D03*
X181500000Y-81362500D03*
X181100000Y-81362500D03*
X180700000Y-81362500D03*
X180300000Y-81362500D03*
X179900000Y-81362500D03*
X179500000Y-81362500D03*
X179100000Y-81362500D03*
X178700000Y-81362500D03*
X178300000Y-81362500D03*
X177900000Y-81362500D03*
X177500000Y-81362500D03*
%TD*%
D20*
%TO.C,C11*%
X183000000Y-79480000D03*
X183000000Y-78520000D03*
%TD*%
D25*
%TO.C,U3*%
X193437500Y-94062500D03*
X192787500Y-94062500D03*
X192137500Y-94062500D03*
X192137500Y-95737500D03*
X192787500Y-95737500D03*
X193437500Y-95737500D03*
%TD*%
D21*
%TO.C,C8*%
X192807500Y-98900000D03*
X193767500Y-98900000D03*
%TD*%
D20*
%TO.C,C21*%
X174500000Y-91980000D03*
X174500000Y-91020000D03*
%TD*%
%TO.C,C10*%
X185000000Y-79480000D03*
X185000000Y-78520000D03*
%TD*%
D26*
%TO.C,L1*%
X192802500Y-81400000D03*
X193772500Y-81400000D03*
%TD*%
D21*
%TO.C,C23*%
X186520000Y-74000000D03*
X187480000Y-74000000D03*
%TD*%
D17*
%TO.C,R3*%
X181490000Y-77010000D03*
X181490000Y-75990000D03*
%TD*%
D14*
%TO.C,C12*%
X175500000Y-82520000D03*
X175500000Y-83480000D03*
%TD*%
D18*
%TO.C,R8*%
X186010000Y-86500000D03*
X184990000Y-86500000D03*
%TD*%
D27*
%TO.C,Y1*%
X197937500Y-84800000D03*
X197937500Y-87000000D03*
X199637500Y-87000000D03*
X199637500Y-84800000D03*
%TD*%
D21*
%TO.C,C9*%
X192807500Y-101900000D03*
X193767500Y-101900000D03*
%TD*%
D14*
%TO.C,C19*%
X184000000Y-78520000D03*
X184000000Y-79480000D03*
%TD*%
D28*
%TO.C,U4*%
X188450000Y-75500000D03*
X187500000Y-75500000D03*
X186550000Y-75500000D03*
X186550000Y-77775000D03*
X188450000Y-77775000D03*
%TD*%
D20*
%TO.C,C2*%
X195787500Y-88380000D03*
X195787500Y-87420000D03*
%TD*%
D29*
%TO.C,FB1*%
X179985000Y-74000000D03*
X179015000Y-74000000D03*
%TD*%
D21*
%TO.C,C16*%
X185000000Y-83000000D03*
X185960000Y-83000000D03*
%TD*%
D18*
%TO.C,R2*%
X185520000Y-90862500D03*
X184500000Y-90862500D03*
%TD*%
D19*
%TO.C,C15*%
X174980000Y-87000000D03*
X174020000Y-87000000D03*
%TD*%
%TO.C,C3*%
X193787500Y-82900000D03*
X192827500Y-82900000D03*
%TD*%
D21*
%TO.C,C27*%
X197020000Y-83000000D03*
X197980000Y-83000000D03*
%TD*%
D30*
%TO.C,U2*%
X193087500Y-86900000D03*
X193087500Y-85600000D03*
X191787500Y-86900000D03*
X191787500Y-85600000D03*
D31*
X194375000Y-87500000D03*
X194375000Y-87000000D03*
X194375000Y-86500000D03*
X194375000Y-86000000D03*
X194375000Y-85500000D03*
X194375000Y-85000000D03*
D32*
X193687500Y-84312500D03*
X193187500Y-84312500D03*
X192687500Y-84312500D03*
X192187500Y-84312500D03*
X191687500Y-84312500D03*
X191187500Y-84312500D03*
D31*
X190500000Y-85000000D03*
X190500000Y-85500000D03*
X190500000Y-86000000D03*
X190500000Y-86500000D03*
X190500000Y-87000000D03*
X190500000Y-87500000D03*
D32*
X191187500Y-88187500D03*
X191687500Y-88187500D03*
X192187500Y-88187500D03*
X192687500Y-88187500D03*
X193187500Y-88187500D03*
X193687500Y-88187500D03*
%TD*%
D27*
%TO.C,Y2*%
X176000000Y-90762500D03*
X176000000Y-92962500D03*
X177700000Y-92962500D03*
X177700000Y-90762500D03*
%TD*%
D33*
%TO.C,U5*%
X169912500Y-74595000D03*
X169912500Y-75865000D03*
X169912500Y-77135000D03*
X169912500Y-78405000D03*
X177087500Y-78405000D03*
X177087500Y-77135000D03*
X177087500Y-75865000D03*
X177087500Y-74595000D03*
%TD*%
D29*
%TO.C,L2*%
X195272500Y-89900000D03*
X194302500Y-89900000D03*
%TD*%
D14*
%TO.C,C4*%
X196287500Y-89920000D03*
X196287500Y-90880000D03*
%TD*%
D20*
%TO.C,C6*%
X189787500Y-95880000D03*
X189787500Y-94920000D03*
%TD*%
D17*
%TO.C,R1*%
X190787500Y-95910000D03*
X190787500Y-94890000D03*
%TD*%
D21*
%TO.C,C22*%
X177020000Y-94862500D03*
X177980000Y-94862500D03*
%TD*%
D34*
%TO.C,L3*%
X192787500Y-99915000D03*
X192787500Y-100885000D03*
%TD*%
D14*
%TO.C,C25*%
X177500000Y-72520000D03*
X177500000Y-73480000D03*
%TD*%
D17*
%TO.C,R4*%
X180500000Y-77010000D03*
X180500000Y-75990000D03*
%TD*%
D20*
%TO.C,C24*%
X190000000Y-76980000D03*
X190000000Y-76020000D03*
%TD*%
D19*
%TO.C,C1*%
X191480000Y-83000000D03*
X190520000Y-83000000D03*
%TD*%
D14*
%TO.C,C18*%
X180500000Y-89520000D03*
X180500000Y-90480000D03*
%TD*%
D21*
%TO.C,C26*%
X199020000Y-88500000D03*
X199980000Y-88500000D03*
%TD*%
D35*
%TO.C,R5*%
X185000000Y-73990000D03*
X185000000Y-75010000D03*
%TD*%
D36*
%TO.C,FL1*%
X193600000Y-91200000D03*
X193100000Y-91200000D03*
X192600000Y-91200000D03*
X192100000Y-91200000D03*
D37*
X191787500Y-91900000D03*
D36*
X192100000Y-92600000D03*
X192600000Y-92600000D03*
X193100000Y-92600000D03*
X193600000Y-92600000D03*
D37*
X193912500Y-91900000D03*
%TD*%
M02*
