%TF.GenerationSoftware,KiCad,Pcbnew,10.0.5*%
%TF.CreationDate,2026-09-16T00:15:51+05:30*%
%TF.ProjectId,lora-v2,6c6f7261-2d76-4322-9e6b-696361645f70,rev?*%
%TF.SameCoordinates,Original*%
%TF.FileFunction,Legend,Top*%
%TF.FilePolarity,Positive*%
%FSLAX46Y46*%
G04 Gerber Fmt 4.6, Leading zero omitted, Abs format (unit mm)*
G04 Created by KiCad (PCBNEW 10.0.5) date 2026-09-16 00:15:51*
%MOMM*%
%LPD*%
G01*
G04 APERTURE LIST*
%ADD10C,0.150000*%
%ADD11C,0.120000*%
G04 APERTURE END LIST*
D10*
X184158333Y-74545180D02*
X184158333Y-73830895D01*
X184158333Y-73830895D02*
X184205952Y-73688038D01*
X184205952Y-73688038D02*
X184301190Y-73592800D01*
X184301190Y-73592800D02*
X184444047Y-73545180D01*
X184444047Y-73545180D02*
X184539285Y-73545180D01*
X183158333Y-73545180D02*
X183729761Y-73545180D01*
X183444047Y-73545180D02*
X183444047Y-74545180D01*
X183444047Y-74545180D02*
X183539285Y-74402323D01*
X183539285Y-74402323D02*
X183634523Y-74307085D01*
X183634523Y-74307085D02*
X183729761Y-74259466D01*
X176019580Y-83642857D02*
X176067200Y-83690476D01*
X176067200Y-83690476D02*
X176114819Y-83833333D01*
X176114819Y-83833333D02*
X176114819Y-83928571D01*
X176114819Y-83928571D02*
X176067200Y-84071428D01*
X176067200Y-84071428D02*
X175971961Y-84166666D01*
X175971961Y-84166666D02*
X175876723Y-84214285D01*
X175876723Y-84214285D02*
X175686247Y-84261904D01*
X175686247Y-84261904D02*
X175543390Y-84261904D01*
X175543390Y-84261904D02*
X175352914Y-84214285D01*
X175352914Y-84214285D02*
X175257676Y-84166666D01*
X175257676Y-84166666D02*
X175162438Y-84071428D01*
X175162438Y-84071428D02*
X175114819Y-83928571D01*
X175114819Y-83928571D02*
X175114819Y-83833333D01*
X175114819Y-83833333D02*
X175162438Y-83690476D01*
X175162438Y-83690476D02*
X175210057Y-83642857D01*
X176114819Y-82690476D02*
X176114819Y-83261904D01*
X176114819Y-82976190D02*
X175114819Y-82976190D01*
X175114819Y-82976190D02*
X175257676Y-83071428D01*
X175257676Y-83071428D02*
X175352914Y-83166666D01*
X175352914Y-83166666D02*
X175400533Y-83261904D01*
X175448152Y-81833333D02*
X176114819Y-81833333D01*
X175067200Y-82071428D02*
X175781485Y-82309523D01*
X175781485Y-82309523D02*
X175781485Y-81690476D01*
X174833332Y-73592800D02*
X174690475Y-73545180D01*
X174690475Y-73545180D02*
X174452380Y-73545180D01*
X174452380Y-73545180D02*
X174357142Y-73592800D01*
X174357142Y-73592800D02*
X174309523Y-73640419D01*
X174309523Y-73640419D02*
X174261904Y-73735657D01*
X174261904Y-73735657D02*
X174261904Y-73830895D01*
X174261904Y-73830895D02*
X174309523Y-73926133D01*
X174309523Y-73926133D02*
X174357142Y-73973752D01*
X174357142Y-73973752D02*
X174452380Y-74021371D01*
X174452380Y-74021371D02*
X174642856Y-74068990D01*
X174642856Y-74068990D02*
X174738094Y-74116609D01*
X174738094Y-74116609D02*
X174785713Y-74164228D01*
X174785713Y-74164228D02*
X174833332Y-74259466D01*
X174833332Y-74259466D02*
X174833332Y-74354704D01*
X174833332Y-74354704D02*
X174785713Y-74449942D01*
X174785713Y-74449942D02*
X174738094Y-74497561D01*
X174738094Y-74497561D02*
X174642856Y-74545180D01*
X174642856Y-74545180D02*
X174404761Y-74545180D01*
X174404761Y-74545180D02*
X174261904Y-74497561D01*
X173928570Y-74545180D02*
X173690475Y-73545180D01*
X173690475Y-73545180D02*
X173499999Y-74259466D01*
X173499999Y-74259466D02*
X173309523Y-73545180D01*
X173309523Y-73545180D02*
X173071428Y-74545180D01*
X172166666Y-73545180D02*
X172738094Y-73545180D01*
X172452380Y-73545180D02*
X172452380Y-74545180D01*
X172452380Y-74545180D02*
X172547618Y-74402323D01*
X172547618Y-74402323D02*
X172642856Y-74307085D01*
X172642856Y-74307085D02*
X172738094Y-74259466D01*
X194287080Y-97566666D02*
X194334700Y-97614285D01*
X194334700Y-97614285D02*
X194382319Y-97757142D01*
X194382319Y-97757142D02*
X194382319Y-97852380D01*
X194382319Y-97852380D02*
X194334700Y-97995237D01*
X194334700Y-97995237D02*
X194239461Y-98090475D01*
X194239461Y-98090475D02*
X194144223Y-98138094D01*
X194144223Y-98138094D02*
X193953747Y-98185713D01*
X193953747Y-98185713D02*
X193810890Y-98185713D01*
X193810890Y-98185713D02*
X193620414Y-98138094D01*
X193620414Y-98138094D02*
X193525176Y-98090475D01*
X193525176Y-98090475D02*
X193429938Y-97995237D01*
X193429938Y-97995237D02*
X193382319Y-97852380D01*
X193382319Y-97852380D02*
X193382319Y-97757142D01*
X193382319Y-97757142D02*
X193429938Y-97614285D01*
X193429938Y-97614285D02*
X193477557Y-97566666D01*
X193382319Y-97233332D02*
X193382319Y-96566666D01*
X193382319Y-96566666D02*
X194382319Y-96995237D01*
X179907200Y-96195832D02*
X179954819Y-96052975D01*
X179954819Y-96052975D02*
X179954819Y-95814880D01*
X179954819Y-95814880D02*
X179907200Y-95719642D01*
X179907200Y-95719642D02*
X179859580Y-95672023D01*
X179859580Y-95672023D02*
X179764342Y-95624404D01*
X179764342Y-95624404D02*
X179669104Y-95624404D01*
X179669104Y-95624404D02*
X179573866Y-95672023D01*
X179573866Y-95672023D02*
X179526247Y-95719642D01*
X179526247Y-95719642D02*
X179478628Y-95814880D01*
X179478628Y-95814880D02*
X179431009Y-96005356D01*
X179431009Y-96005356D02*
X179383390Y-96100594D01*
X179383390Y-96100594D02*
X179335771Y-96148213D01*
X179335771Y-96148213D02*
X179240533Y-96195832D01*
X179240533Y-96195832D02*
X179145295Y-96195832D01*
X179145295Y-96195832D02*
X179050057Y-96148213D01*
X179050057Y-96148213D02*
X179002438Y-96100594D01*
X179002438Y-96100594D02*
X178954819Y-96005356D01*
X178954819Y-96005356D02*
X178954819Y-95767261D01*
X178954819Y-95767261D02*
X179002438Y-95624404D01*
X178954819Y-95291070D02*
X179954819Y-95052975D01*
X179954819Y-95052975D02*
X179240533Y-94862499D01*
X179240533Y-94862499D02*
X179954819Y-94672023D01*
X179954819Y-94672023D02*
X178954819Y-94433928D01*
X179050057Y-94100594D02*
X179002438Y-94052975D01*
X179002438Y-94052975D02*
X178954819Y-93957737D01*
X178954819Y-93957737D02*
X178954819Y-93719642D01*
X178954819Y-93719642D02*
X179002438Y-93624404D01*
X179002438Y-93624404D02*
X179050057Y-93576785D01*
X179050057Y-93576785D02*
X179145295Y-93529166D01*
X179145295Y-93529166D02*
X179240533Y-93529166D01*
X179240533Y-93529166D02*
X179383390Y-93576785D01*
X179383390Y-93576785D02*
X179954819Y-94148213D01*
X179954819Y-94148213D02*
X179954819Y-93529166D01*
X168784819Y-73156666D02*
X168308628Y-73489999D01*
X168784819Y-73728094D02*
X167784819Y-73728094D01*
X167784819Y-73728094D02*
X167784819Y-73347142D01*
X167784819Y-73347142D02*
X167832438Y-73251904D01*
X167832438Y-73251904D02*
X167880057Y-73204285D01*
X167880057Y-73204285D02*
X167975295Y-73156666D01*
X167975295Y-73156666D02*
X168118152Y-73156666D01*
X168118152Y-73156666D02*
X168213390Y-73204285D01*
X168213390Y-73204285D02*
X168261009Y-73251904D01*
X168261009Y-73251904D02*
X168308628Y-73347142D01*
X168308628Y-73347142D02*
X168308628Y-73728094D01*
X167784819Y-72823332D02*
X167784819Y-72156666D01*
X167784819Y-72156666D02*
X168784819Y-72585237D01*
X181333333Y-75624819D02*
X181000000Y-75148628D01*
X180761905Y-75624819D02*
X180761905Y-74624819D01*
X180761905Y-74624819D02*
X181142857Y-74624819D01*
X181142857Y-74624819D02*
X181238095Y-74672438D01*
X181238095Y-74672438D02*
X181285714Y-74720057D01*
X181285714Y-74720057D02*
X181333333Y-74815295D01*
X181333333Y-74815295D02*
X181333333Y-74958152D01*
X181333333Y-74958152D02*
X181285714Y-75053390D01*
X181285714Y-75053390D02*
X181238095Y-75101009D01*
X181238095Y-75101009D02*
X181142857Y-75148628D01*
X181142857Y-75148628D02*
X180761905Y-75148628D01*
X182190476Y-74624819D02*
X182000000Y-74624819D01*
X182000000Y-74624819D02*
X181904762Y-74672438D01*
X181904762Y-74672438D02*
X181857143Y-74720057D01*
X181857143Y-74720057D02*
X181761905Y-74862914D01*
X181761905Y-74862914D02*
X181714286Y-75053390D01*
X181714286Y-75053390D02*
X181714286Y-75434342D01*
X181714286Y-75434342D02*
X181761905Y-75529580D01*
X181761905Y-75529580D02*
X181809524Y-75577200D01*
X181809524Y-75577200D02*
X181904762Y-75624819D01*
X181904762Y-75624819D02*
X182095238Y-75624819D01*
X182095238Y-75624819D02*
X182190476Y-75577200D01*
X182190476Y-75577200D02*
X182238095Y-75529580D01*
X182238095Y-75529580D02*
X182285714Y-75434342D01*
X182285714Y-75434342D02*
X182285714Y-75196247D01*
X182285714Y-75196247D02*
X182238095Y-75101009D01*
X182238095Y-75101009D02*
X182190476Y-75053390D01*
X182190476Y-75053390D02*
X182095238Y-75005771D01*
X182095238Y-75005771D02*
X181904762Y-75005771D01*
X181904762Y-75005771D02*
X181809524Y-75053390D01*
X181809524Y-75053390D02*
X181761905Y-75101009D01*
X181761905Y-75101009D02*
X181714286Y-75196247D01*
X184857142Y-83519580D02*
X184809523Y-83567200D01*
X184809523Y-83567200D02*
X184666666Y-83614819D01*
X184666666Y-83614819D02*
X184571428Y-83614819D01*
X184571428Y-83614819D02*
X184428571Y-83567200D01*
X184428571Y-83567200D02*
X184333333Y-83471961D01*
X184333333Y-83471961D02*
X184285714Y-83376723D01*
X184285714Y-83376723D02*
X184238095Y-83186247D01*
X184238095Y-83186247D02*
X184238095Y-83043390D01*
X184238095Y-83043390D02*
X184285714Y-82852914D01*
X184285714Y-82852914D02*
X184333333Y-82757676D01*
X184333333Y-82757676D02*
X184428571Y-82662438D01*
X184428571Y-82662438D02*
X184571428Y-82614819D01*
X184571428Y-82614819D02*
X184666666Y-82614819D01*
X184666666Y-82614819D02*
X184809523Y-82662438D01*
X184809523Y-82662438D02*
X184857142Y-82710057D01*
X185238095Y-82710057D02*
X185285714Y-82662438D01*
X185285714Y-82662438D02*
X185380952Y-82614819D01*
X185380952Y-82614819D02*
X185619047Y-82614819D01*
X185619047Y-82614819D02*
X185714285Y-82662438D01*
X185714285Y-82662438D02*
X185761904Y-82710057D01*
X185761904Y-82710057D02*
X185809523Y-82805295D01*
X185809523Y-82805295D02*
X185809523Y-82900533D01*
X185809523Y-82900533D02*
X185761904Y-83043390D01*
X185761904Y-83043390D02*
X185190476Y-83614819D01*
X185190476Y-83614819D02*
X185809523Y-83614819D01*
X186428571Y-82614819D02*
X186523809Y-82614819D01*
X186523809Y-82614819D02*
X186619047Y-82662438D01*
X186619047Y-82662438D02*
X186666666Y-82710057D01*
X186666666Y-82710057D02*
X186714285Y-82805295D01*
X186714285Y-82805295D02*
X186761904Y-82995771D01*
X186761904Y-82995771D02*
X186761904Y-83233866D01*
X186761904Y-83233866D02*
X186714285Y-83424342D01*
X186714285Y-83424342D02*
X186666666Y-83519580D01*
X186666666Y-83519580D02*
X186619047Y-83567200D01*
X186619047Y-83567200D02*
X186523809Y-83614819D01*
X186523809Y-83614819D02*
X186428571Y-83614819D01*
X186428571Y-83614819D02*
X186333333Y-83567200D01*
X186333333Y-83567200D02*
X186285714Y-83519580D01*
X186285714Y-83519580D02*
X186238095Y-83424342D01*
X186238095Y-83424342D02*
X186190476Y-83233866D01*
X186190476Y-83233866D02*
X186190476Y-82995771D01*
X186190476Y-82995771D02*
X186238095Y-82805295D01*
X186238095Y-82805295D02*
X186285714Y-82710057D01*
X186285714Y-82710057D02*
X186333333Y-82662438D01*
X186333333Y-82662438D02*
X186428571Y-82614819D01*
X173857142Y-87519580D02*
X173809523Y-87567200D01*
X173809523Y-87567200D02*
X173666666Y-87614819D01*
X173666666Y-87614819D02*
X173571428Y-87614819D01*
X173571428Y-87614819D02*
X173428571Y-87567200D01*
X173428571Y-87567200D02*
X173333333Y-87471961D01*
X173333333Y-87471961D02*
X173285714Y-87376723D01*
X173285714Y-87376723D02*
X173238095Y-87186247D01*
X173238095Y-87186247D02*
X173238095Y-87043390D01*
X173238095Y-87043390D02*
X173285714Y-86852914D01*
X173285714Y-86852914D02*
X173333333Y-86757676D01*
X173333333Y-86757676D02*
X173428571Y-86662438D01*
X173428571Y-86662438D02*
X173571428Y-86614819D01*
X173571428Y-86614819D02*
X173666666Y-86614819D01*
X173666666Y-86614819D02*
X173809523Y-86662438D01*
X173809523Y-86662438D02*
X173857142Y-86710057D01*
X174238095Y-86710057D02*
X174285714Y-86662438D01*
X174285714Y-86662438D02*
X174380952Y-86614819D01*
X174380952Y-86614819D02*
X174619047Y-86614819D01*
X174619047Y-86614819D02*
X174714285Y-86662438D01*
X174714285Y-86662438D02*
X174761904Y-86710057D01*
X174761904Y-86710057D02*
X174809523Y-86805295D01*
X174809523Y-86805295D02*
X174809523Y-86900533D01*
X174809523Y-86900533D02*
X174761904Y-87043390D01*
X174761904Y-87043390D02*
X174190476Y-87614819D01*
X174190476Y-87614819D02*
X174809523Y-87614819D01*
X175380952Y-87043390D02*
X175285714Y-86995771D01*
X175285714Y-86995771D02*
X175238095Y-86948152D01*
X175238095Y-86948152D02*
X175190476Y-86852914D01*
X175190476Y-86852914D02*
X175190476Y-86805295D01*
X175190476Y-86805295D02*
X175238095Y-86710057D01*
X175238095Y-86710057D02*
X175285714Y-86662438D01*
X175285714Y-86662438D02*
X175380952Y-86614819D01*
X175380952Y-86614819D02*
X175571428Y-86614819D01*
X175571428Y-86614819D02*
X175666666Y-86662438D01*
X175666666Y-86662438D02*
X175714285Y-86710057D01*
X175714285Y-86710057D02*
X175761904Y-86805295D01*
X175761904Y-86805295D02*
X175761904Y-86852914D01*
X175761904Y-86852914D02*
X175714285Y-86948152D01*
X175714285Y-86948152D02*
X175666666Y-86995771D01*
X175666666Y-86995771D02*
X175571428Y-87043390D01*
X175571428Y-87043390D02*
X175380952Y-87043390D01*
X175380952Y-87043390D02*
X175285714Y-87091009D01*
X175285714Y-87091009D02*
X175238095Y-87138628D01*
X175238095Y-87138628D02*
X175190476Y-87233866D01*
X175190476Y-87233866D02*
X175190476Y-87424342D01*
X175190476Y-87424342D02*
X175238095Y-87519580D01*
X175238095Y-87519580D02*
X175285714Y-87567200D01*
X175285714Y-87567200D02*
X175380952Y-87614819D01*
X175380952Y-87614819D02*
X175571428Y-87614819D01*
X175571428Y-87614819D02*
X175666666Y-87567200D01*
X175666666Y-87567200D02*
X175714285Y-87519580D01*
X175714285Y-87519580D02*
X175761904Y-87424342D01*
X175761904Y-87424342D02*
X175761904Y-87233866D01*
X175761904Y-87233866D02*
X175714285Y-87138628D01*
X175714285Y-87138628D02*
X175666666Y-87091009D01*
X175666666Y-87091009D02*
X175571428Y-87043390D01*
X178699580Y-79642857D02*
X178747200Y-79690476D01*
X178747200Y-79690476D02*
X178794819Y-79833333D01*
X178794819Y-79833333D02*
X178794819Y-79928571D01*
X178794819Y-79928571D02*
X178747200Y-80071428D01*
X178747200Y-80071428D02*
X178651961Y-80166666D01*
X178651961Y-80166666D02*
X178556723Y-80214285D01*
X178556723Y-80214285D02*
X178366247Y-80261904D01*
X178366247Y-80261904D02*
X178223390Y-80261904D01*
X178223390Y-80261904D02*
X178032914Y-80214285D01*
X178032914Y-80214285D02*
X177937676Y-80166666D01*
X177937676Y-80166666D02*
X177842438Y-80071428D01*
X177842438Y-80071428D02*
X177794819Y-79928571D01*
X177794819Y-79928571D02*
X177794819Y-79833333D01*
X177794819Y-79833333D02*
X177842438Y-79690476D01*
X177842438Y-79690476D02*
X177890057Y-79642857D01*
X178794819Y-78690476D02*
X178794819Y-79261904D01*
X178794819Y-78976190D02*
X177794819Y-78976190D01*
X177794819Y-78976190D02*
X177937676Y-79071428D01*
X177937676Y-79071428D02*
X178032914Y-79166666D01*
X178032914Y-79166666D02*
X178080533Y-79261904D01*
X177794819Y-78357142D02*
X177794819Y-77690476D01*
X177794819Y-77690476D02*
X178794819Y-78119047D01*
X184877142Y-83199580D02*
X184829523Y-83247200D01*
X184829523Y-83247200D02*
X184686666Y-83294819D01*
X184686666Y-83294819D02*
X184591428Y-83294819D01*
X184591428Y-83294819D02*
X184448571Y-83247200D01*
X184448571Y-83247200D02*
X184353333Y-83151961D01*
X184353333Y-83151961D02*
X184305714Y-83056723D01*
X184305714Y-83056723D02*
X184258095Y-82866247D01*
X184258095Y-82866247D02*
X184258095Y-82723390D01*
X184258095Y-82723390D02*
X184305714Y-82532914D01*
X184305714Y-82532914D02*
X184353333Y-82437676D01*
X184353333Y-82437676D02*
X184448571Y-82342438D01*
X184448571Y-82342438D02*
X184591428Y-82294819D01*
X184591428Y-82294819D02*
X184686666Y-82294819D01*
X184686666Y-82294819D02*
X184829523Y-82342438D01*
X184829523Y-82342438D02*
X184877142Y-82390057D01*
X185829523Y-83294819D02*
X185258095Y-83294819D01*
X185543809Y-83294819D02*
X185543809Y-82294819D01*
X185543809Y-82294819D02*
X185448571Y-82437676D01*
X185448571Y-82437676D02*
X185353333Y-82532914D01*
X185353333Y-82532914D02*
X185258095Y-82580533D01*
X186162857Y-82294819D02*
X186781904Y-82294819D01*
X186781904Y-82294819D02*
X186448571Y-82675771D01*
X186448571Y-82675771D02*
X186591428Y-82675771D01*
X186591428Y-82675771D02*
X186686666Y-82723390D01*
X186686666Y-82723390D02*
X186734285Y-82771009D01*
X186734285Y-82771009D02*
X186781904Y-82866247D01*
X186781904Y-82866247D02*
X186781904Y-83104342D01*
X186781904Y-83104342D02*
X186734285Y-83199580D01*
X186734285Y-83199580D02*
X186686666Y-83247200D01*
X186686666Y-83247200D02*
X186591428Y-83294819D01*
X186591428Y-83294819D02*
X186305714Y-83294819D01*
X186305714Y-83294819D02*
X186210476Y-83247200D01*
X186210476Y-83247200D02*
X186162857Y-83199580D01*
X198147080Y-92586666D02*
X198194700Y-92634285D01*
X198194700Y-92634285D02*
X198242319Y-92777142D01*
X198242319Y-92777142D02*
X198242319Y-92872380D01*
X198242319Y-92872380D02*
X198194700Y-93015237D01*
X198194700Y-93015237D02*
X198099461Y-93110475D01*
X198099461Y-93110475D02*
X198004223Y-93158094D01*
X198004223Y-93158094D02*
X197813747Y-93205713D01*
X197813747Y-93205713D02*
X197670890Y-93205713D01*
X197670890Y-93205713D02*
X197480414Y-93158094D01*
X197480414Y-93158094D02*
X197385176Y-93110475D01*
X197385176Y-93110475D02*
X197289938Y-93015237D01*
X197289938Y-93015237D02*
X197242319Y-92872380D01*
X197242319Y-92872380D02*
X197242319Y-92777142D01*
X197242319Y-92777142D02*
X197289938Y-92634285D01*
X197289938Y-92634285D02*
X197337557Y-92586666D01*
X197242319Y-91681904D02*
X197242319Y-92158094D01*
X197242319Y-92158094D02*
X197718509Y-92205713D01*
X197718509Y-92205713D02*
X197670890Y-92158094D01*
X197670890Y-92158094D02*
X197623271Y-92062856D01*
X197623271Y-92062856D02*
X197623271Y-91824761D01*
X197623271Y-91824761D02*
X197670890Y-91729523D01*
X197670890Y-91729523D02*
X197718509Y-91681904D01*
X197718509Y-91681904D02*
X197813747Y-91634285D01*
X197813747Y-91634285D02*
X198051842Y-91634285D01*
X198051842Y-91634285D02*
X198147080Y-91681904D01*
X198147080Y-91681904D02*
X198194700Y-91729523D01*
X198194700Y-91729523D02*
X198242319Y-91824761D01*
X198242319Y-91824761D02*
X198242319Y-92062856D01*
X198242319Y-92062856D02*
X198194700Y-92158094D01*
X198194700Y-92158094D02*
X198147080Y-92205713D01*
X179338095Y-79424819D02*
X179338095Y-80234342D01*
X179338095Y-80234342D02*
X179385714Y-80329580D01*
X179385714Y-80329580D02*
X179433333Y-80377200D01*
X179433333Y-80377200D02*
X179528571Y-80424819D01*
X179528571Y-80424819D02*
X179719047Y-80424819D01*
X179719047Y-80424819D02*
X179814285Y-80377200D01*
X179814285Y-80377200D02*
X179861904Y-80329580D01*
X179861904Y-80329580D02*
X179909523Y-80234342D01*
X179909523Y-80234342D02*
X179909523Y-79424819D01*
X180909523Y-80424819D02*
X180338095Y-80424819D01*
X180623809Y-80424819D02*
X180623809Y-79424819D01*
X180623809Y-79424819D02*
X180528571Y-79567676D01*
X180528571Y-79567676D02*
X180433333Y-79662914D01*
X180433333Y-79662914D02*
X180338095Y-79710533D01*
X182199580Y-79642857D02*
X182247200Y-79690476D01*
X182247200Y-79690476D02*
X182294819Y-79833333D01*
X182294819Y-79833333D02*
X182294819Y-79928571D01*
X182294819Y-79928571D02*
X182247200Y-80071428D01*
X182247200Y-80071428D02*
X182151961Y-80166666D01*
X182151961Y-80166666D02*
X182056723Y-80214285D01*
X182056723Y-80214285D02*
X181866247Y-80261904D01*
X181866247Y-80261904D02*
X181723390Y-80261904D01*
X181723390Y-80261904D02*
X181532914Y-80214285D01*
X181532914Y-80214285D02*
X181437676Y-80166666D01*
X181437676Y-80166666D02*
X181342438Y-80071428D01*
X181342438Y-80071428D02*
X181294819Y-79928571D01*
X181294819Y-79928571D02*
X181294819Y-79833333D01*
X181294819Y-79833333D02*
X181342438Y-79690476D01*
X181342438Y-79690476D02*
X181390057Y-79642857D01*
X182294819Y-78690476D02*
X182294819Y-79261904D01*
X182294819Y-78976190D02*
X181294819Y-78976190D01*
X181294819Y-78976190D02*
X181437676Y-79071428D01*
X181437676Y-79071428D02*
X181532914Y-79166666D01*
X181532914Y-79166666D02*
X181580533Y-79261904D01*
X182294819Y-77738095D02*
X182294819Y-78309523D01*
X182294819Y-78023809D02*
X181294819Y-78023809D01*
X181294819Y-78023809D02*
X181437676Y-78119047D01*
X181437676Y-78119047D02*
X181532914Y-78214285D01*
X181532914Y-78214285D02*
X181580533Y-78309523D01*
X194042319Y-95661904D02*
X194851842Y-95661904D01*
X194851842Y-95661904D02*
X194947080Y-95614285D01*
X194947080Y-95614285D02*
X194994700Y-95566666D01*
X194994700Y-95566666D02*
X195042319Y-95471428D01*
X195042319Y-95471428D02*
X195042319Y-95280952D01*
X195042319Y-95280952D02*
X194994700Y-95185714D01*
X194994700Y-95185714D02*
X194947080Y-95138095D01*
X194947080Y-95138095D02*
X194851842Y-95090476D01*
X194851842Y-95090476D02*
X194042319Y-95090476D01*
X194042319Y-94709523D02*
X194042319Y-94090476D01*
X194042319Y-94090476D02*
X194423271Y-94423809D01*
X194423271Y-94423809D02*
X194423271Y-94280952D01*
X194423271Y-94280952D02*
X194470890Y-94185714D01*
X194470890Y-94185714D02*
X194518509Y-94138095D01*
X194518509Y-94138095D02*
X194613747Y-94090476D01*
X194613747Y-94090476D02*
X194851842Y-94090476D01*
X194851842Y-94090476D02*
X194947080Y-94138095D01*
X194947080Y-94138095D02*
X194994700Y-94185714D01*
X194994700Y-94185714D02*
X195042319Y-94280952D01*
X195042319Y-94280952D02*
X195042319Y-94566666D01*
X195042319Y-94566666D02*
X194994700Y-94661904D01*
X194994700Y-94661904D02*
X194947080Y-94709523D01*
X193120833Y-98099580D02*
X193073214Y-98147200D01*
X193073214Y-98147200D02*
X192930357Y-98194819D01*
X192930357Y-98194819D02*
X192835119Y-98194819D01*
X192835119Y-98194819D02*
X192692262Y-98147200D01*
X192692262Y-98147200D02*
X192597024Y-98051961D01*
X192597024Y-98051961D02*
X192549405Y-97956723D01*
X192549405Y-97956723D02*
X192501786Y-97766247D01*
X192501786Y-97766247D02*
X192501786Y-97623390D01*
X192501786Y-97623390D02*
X192549405Y-97432914D01*
X192549405Y-97432914D02*
X192597024Y-97337676D01*
X192597024Y-97337676D02*
X192692262Y-97242438D01*
X192692262Y-97242438D02*
X192835119Y-97194819D01*
X192835119Y-97194819D02*
X192930357Y-97194819D01*
X192930357Y-97194819D02*
X193073214Y-97242438D01*
X193073214Y-97242438D02*
X193120833Y-97290057D01*
X193692262Y-97623390D02*
X193597024Y-97575771D01*
X193597024Y-97575771D02*
X193549405Y-97528152D01*
X193549405Y-97528152D02*
X193501786Y-97432914D01*
X193501786Y-97432914D02*
X193501786Y-97385295D01*
X193501786Y-97385295D02*
X193549405Y-97290057D01*
X193549405Y-97290057D02*
X193597024Y-97242438D01*
X193597024Y-97242438D02*
X193692262Y-97194819D01*
X193692262Y-97194819D02*
X193882738Y-97194819D01*
X193882738Y-97194819D02*
X193977976Y-97242438D01*
X193977976Y-97242438D02*
X194025595Y-97290057D01*
X194025595Y-97290057D02*
X194073214Y-97385295D01*
X194073214Y-97385295D02*
X194073214Y-97432914D01*
X194073214Y-97432914D02*
X194025595Y-97528152D01*
X194025595Y-97528152D02*
X193977976Y-97575771D01*
X193977976Y-97575771D02*
X193882738Y-97623390D01*
X193882738Y-97623390D02*
X193692262Y-97623390D01*
X193692262Y-97623390D02*
X193597024Y-97671009D01*
X193597024Y-97671009D02*
X193549405Y-97718628D01*
X193549405Y-97718628D02*
X193501786Y-97813866D01*
X193501786Y-97813866D02*
X193501786Y-98004342D01*
X193501786Y-98004342D02*
X193549405Y-98099580D01*
X193549405Y-98099580D02*
X193597024Y-98147200D01*
X193597024Y-98147200D02*
X193692262Y-98194819D01*
X193692262Y-98194819D02*
X193882738Y-98194819D01*
X193882738Y-98194819D02*
X193977976Y-98147200D01*
X193977976Y-98147200D02*
X194025595Y-98099580D01*
X194025595Y-98099580D02*
X194073214Y-98004342D01*
X194073214Y-98004342D02*
X194073214Y-97813866D01*
X194073214Y-97813866D02*
X194025595Y-97718628D01*
X194025595Y-97718628D02*
X193977976Y-97671009D01*
X193977976Y-97671009D02*
X193882738Y-97623390D01*
X191120833Y-101799104D02*
X191597023Y-101799104D01*
X191025595Y-102084819D02*
X191358928Y-101084819D01*
X191358928Y-101084819D02*
X191692261Y-102084819D01*
X192025595Y-101561009D02*
X192358928Y-101561009D01*
X192501785Y-102084819D02*
X192025595Y-102084819D01*
X192025595Y-102084819D02*
X192025595Y-101084819D01*
X192025595Y-101084819D02*
X192501785Y-101084819D01*
X193454166Y-102084819D02*
X192882738Y-102084819D01*
X193168452Y-102084819D02*
X193168452Y-101084819D01*
X193168452Y-101084819D02*
X193073214Y-101227676D01*
X193073214Y-101227676D02*
X192977976Y-101322914D01*
X192977976Y-101322914D02*
X192882738Y-101370533D01*
X173699580Y-92142857D02*
X173747200Y-92190476D01*
X173747200Y-92190476D02*
X173794819Y-92333333D01*
X173794819Y-92333333D02*
X173794819Y-92428571D01*
X173794819Y-92428571D02*
X173747200Y-92571428D01*
X173747200Y-92571428D02*
X173651961Y-92666666D01*
X173651961Y-92666666D02*
X173556723Y-92714285D01*
X173556723Y-92714285D02*
X173366247Y-92761904D01*
X173366247Y-92761904D02*
X173223390Y-92761904D01*
X173223390Y-92761904D02*
X173032914Y-92714285D01*
X173032914Y-92714285D02*
X172937676Y-92666666D01*
X172937676Y-92666666D02*
X172842438Y-92571428D01*
X172842438Y-92571428D02*
X172794819Y-92428571D01*
X172794819Y-92428571D02*
X172794819Y-92333333D01*
X172794819Y-92333333D02*
X172842438Y-92190476D01*
X172842438Y-92190476D02*
X172890057Y-92142857D01*
X172890057Y-91761904D02*
X172842438Y-91714285D01*
X172842438Y-91714285D02*
X172794819Y-91619047D01*
X172794819Y-91619047D02*
X172794819Y-91380952D01*
X172794819Y-91380952D02*
X172842438Y-91285714D01*
X172842438Y-91285714D02*
X172890057Y-91238095D01*
X172890057Y-91238095D02*
X172985295Y-91190476D01*
X172985295Y-91190476D02*
X173080533Y-91190476D01*
X173080533Y-91190476D02*
X173223390Y-91238095D01*
X173223390Y-91238095D02*
X173794819Y-91809523D01*
X173794819Y-91809523D02*
X173794819Y-91190476D01*
X173794819Y-90238095D02*
X173794819Y-90809523D01*
X173794819Y-90523809D02*
X172794819Y-90523809D01*
X172794819Y-90523809D02*
X172937676Y-90619047D01*
X172937676Y-90619047D02*
X173032914Y-90714285D01*
X173032914Y-90714285D02*
X173080533Y-90809523D01*
X184199580Y-79642857D02*
X184247200Y-79690476D01*
X184247200Y-79690476D02*
X184294819Y-79833333D01*
X184294819Y-79833333D02*
X184294819Y-79928571D01*
X184294819Y-79928571D02*
X184247200Y-80071428D01*
X184247200Y-80071428D02*
X184151961Y-80166666D01*
X184151961Y-80166666D02*
X184056723Y-80214285D01*
X184056723Y-80214285D02*
X183866247Y-80261904D01*
X183866247Y-80261904D02*
X183723390Y-80261904D01*
X183723390Y-80261904D02*
X183532914Y-80214285D01*
X183532914Y-80214285D02*
X183437676Y-80166666D01*
X183437676Y-80166666D02*
X183342438Y-80071428D01*
X183342438Y-80071428D02*
X183294819Y-79928571D01*
X183294819Y-79928571D02*
X183294819Y-79833333D01*
X183294819Y-79833333D02*
X183342438Y-79690476D01*
X183342438Y-79690476D02*
X183390057Y-79642857D01*
X184294819Y-78690476D02*
X184294819Y-79261904D01*
X184294819Y-78976190D02*
X183294819Y-78976190D01*
X183294819Y-78976190D02*
X183437676Y-79071428D01*
X183437676Y-79071428D02*
X183532914Y-79166666D01*
X183532914Y-79166666D02*
X183580533Y-79261904D01*
X183294819Y-78071428D02*
X183294819Y-77976190D01*
X183294819Y-77976190D02*
X183342438Y-77880952D01*
X183342438Y-77880952D02*
X183390057Y-77833333D01*
X183390057Y-77833333D02*
X183485295Y-77785714D01*
X183485295Y-77785714D02*
X183675771Y-77738095D01*
X183675771Y-77738095D02*
X183913866Y-77738095D01*
X183913866Y-77738095D02*
X184104342Y-77785714D01*
X184104342Y-77785714D02*
X184199580Y-77833333D01*
X184199580Y-77833333D02*
X184247200Y-77880952D01*
X184247200Y-77880952D02*
X184294819Y-77976190D01*
X184294819Y-77976190D02*
X184294819Y-78071428D01*
X184294819Y-78071428D02*
X184247200Y-78166666D01*
X184247200Y-78166666D02*
X184199580Y-78214285D01*
X184199580Y-78214285D02*
X184104342Y-78261904D01*
X184104342Y-78261904D02*
X183913866Y-78309523D01*
X183913866Y-78309523D02*
X183675771Y-78309523D01*
X183675771Y-78309523D02*
X183485295Y-78261904D01*
X183485295Y-78261904D02*
X183390057Y-78214285D01*
X183390057Y-78214285D02*
X183342438Y-78166666D01*
X183342438Y-78166666D02*
X183294819Y-78071428D01*
X193120833Y-80684819D02*
X192644643Y-80684819D01*
X192644643Y-80684819D02*
X192644643Y-79684819D01*
X193977976Y-80684819D02*
X193406548Y-80684819D01*
X193692262Y-80684819D02*
X193692262Y-79684819D01*
X193692262Y-79684819D02*
X193597024Y-79827676D01*
X193597024Y-79827676D02*
X193501786Y-79922914D01*
X193501786Y-79922914D02*
X193406548Y-79970533D01*
X186357142Y-73199580D02*
X186309523Y-73247200D01*
X186309523Y-73247200D02*
X186166666Y-73294819D01*
X186166666Y-73294819D02*
X186071428Y-73294819D01*
X186071428Y-73294819D02*
X185928571Y-73247200D01*
X185928571Y-73247200D02*
X185833333Y-73151961D01*
X185833333Y-73151961D02*
X185785714Y-73056723D01*
X185785714Y-73056723D02*
X185738095Y-72866247D01*
X185738095Y-72866247D02*
X185738095Y-72723390D01*
X185738095Y-72723390D02*
X185785714Y-72532914D01*
X185785714Y-72532914D02*
X185833333Y-72437676D01*
X185833333Y-72437676D02*
X185928571Y-72342438D01*
X185928571Y-72342438D02*
X186071428Y-72294819D01*
X186071428Y-72294819D02*
X186166666Y-72294819D01*
X186166666Y-72294819D02*
X186309523Y-72342438D01*
X186309523Y-72342438D02*
X186357142Y-72390057D01*
X186738095Y-72390057D02*
X186785714Y-72342438D01*
X186785714Y-72342438D02*
X186880952Y-72294819D01*
X186880952Y-72294819D02*
X187119047Y-72294819D01*
X187119047Y-72294819D02*
X187214285Y-72342438D01*
X187214285Y-72342438D02*
X187261904Y-72390057D01*
X187261904Y-72390057D02*
X187309523Y-72485295D01*
X187309523Y-72485295D02*
X187309523Y-72580533D01*
X187309523Y-72580533D02*
X187261904Y-72723390D01*
X187261904Y-72723390D02*
X186690476Y-73294819D01*
X186690476Y-73294819D02*
X187309523Y-73294819D01*
X187642857Y-72294819D02*
X188261904Y-72294819D01*
X188261904Y-72294819D02*
X187928571Y-72675771D01*
X187928571Y-72675771D02*
X188071428Y-72675771D01*
X188071428Y-72675771D02*
X188166666Y-72723390D01*
X188166666Y-72723390D02*
X188214285Y-72771009D01*
X188214285Y-72771009D02*
X188261904Y-72866247D01*
X188261904Y-72866247D02*
X188261904Y-73104342D01*
X188261904Y-73104342D02*
X188214285Y-73199580D01*
X188214285Y-73199580D02*
X188166666Y-73247200D01*
X188166666Y-73247200D02*
X188071428Y-73294819D01*
X188071428Y-73294819D02*
X187785714Y-73294819D01*
X187785714Y-73294819D02*
X187690476Y-73247200D01*
X187690476Y-73247200D02*
X187642857Y-73199580D01*
X180774819Y-76666666D02*
X180298628Y-76999999D01*
X180774819Y-77238094D02*
X179774819Y-77238094D01*
X179774819Y-77238094D02*
X179774819Y-76857142D01*
X179774819Y-76857142D02*
X179822438Y-76761904D01*
X179822438Y-76761904D02*
X179870057Y-76714285D01*
X179870057Y-76714285D02*
X179965295Y-76666666D01*
X179965295Y-76666666D02*
X180108152Y-76666666D01*
X180108152Y-76666666D02*
X180203390Y-76714285D01*
X180203390Y-76714285D02*
X180251009Y-76761904D01*
X180251009Y-76761904D02*
X180298628Y-76857142D01*
X180298628Y-76857142D02*
X180298628Y-77238094D01*
X179774819Y-76333332D02*
X179774819Y-75714285D01*
X179774819Y-75714285D02*
X180155771Y-76047618D01*
X180155771Y-76047618D02*
X180155771Y-75904761D01*
X180155771Y-75904761D02*
X180203390Y-75809523D01*
X180203390Y-75809523D02*
X180251009Y-75761904D01*
X180251009Y-75761904D02*
X180346247Y-75714285D01*
X180346247Y-75714285D02*
X180584342Y-75714285D01*
X180584342Y-75714285D02*
X180679580Y-75761904D01*
X180679580Y-75761904D02*
X180727200Y-75809523D01*
X180727200Y-75809523D02*
X180774819Y-75904761D01*
X180774819Y-75904761D02*
X180774819Y-76190475D01*
X180774819Y-76190475D02*
X180727200Y-76285713D01*
X180727200Y-76285713D02*
X180679580Y-76333332D01*
X177019580Y-83642857D02*
X177067200Y-83690476D01*
X177067200Y-83690476D02*
X177114819Y-83833333D01*
X177114819Y-83833333D02*
X177114819Y-83928571D01*
X177114819Y-83928571D02*
X177067200Y-84071428D01*
X177067200Y-84071428D02*
X176971961Y-84166666D01*
X176971961Y-84166666D02*
X176876723Y-84214285D01*
X176876723Y-84214285D02*
X176686247Y-84261904D01*
X176686247Y-84261904D02*
X176543390Y-84261904D01*
X176543390Y-84261904D02*
X176352914Y-84214285D01*
X176352914Y-84214285D02*
X176257676Y-84166666D01*
X176257676Y-84166666D02*
X176162438Y-84071428D01*
X176162438Y-84071428D02*
X176114819Y-83928571D01*
X176114819Y-83928571D02*
X176114819Y-83833333D01*
X176114819Y-83833333D02*
X176162438Y-83690476D01*
X176162438Y-83690476D02*
X176210057Y-83642857D01*
X177114819Y-82690476D02*
X177114819Y-83261904D01*
X177114819Y-82976190D02*
X176114819Y-82976190D01*
X176114819Y-82976190D02*
X176257676Y-83071428D01*
X176257676Y-83071428D02*
X176352914Y-83166666D01*
X176352914Y-83166666D02*
X176400533Y-83261904D01*
X176210057Y-82309523D02*
X176162438Y-82261904D01*
X176162438Y-82261904D02*
X176114819Y-82166666D01*
X176114819Y-82166666D02*
X176114819Y-81928571D01*
X176114819Y-81928571D02*
X176162438Y-81833333D01*
X176162438Y-81833333D02*
X176210057Y-81785714D01*
X176210057Y-81785714D02*
X176305295Y-81738095D01*
X176305295Y-81738095D02*
X176400533Y-81738095D01*
X176400533Y-81738095D02*
X176543390Y-81785714D01*
X176543390Y-81785714D02*
X177114819Y-82357142D01*
X177114819Y-82357142D02*
X177114819Y-81738095D01*
X185333333Y-88124819D02*
X185000000Y-87648628D01*
X184761905Y-88124819D02*
X184761905Y-87124819D01*
X184761905Y-87124819D02*
X185142857Y-87124819D01*
X185142857Y-87124819D02*
X185238095Y-87172438D01*
X185238095Y-87172438D02*
X185285714Y-87220057D01*
X185285714Y-87220057D02*
X185333333Y-87315295D01*
X185333333Y-87315295D02*
X185333333Y-87458152D01*
X185333333Y-87458152D02*
X185285714Y-87553390D01*
X185285714Y-87553390D02*
X185238095Y-87601009D01*
X185238095Y-87601009D02*
X185142857Y-87648628D01*
X185142857Y-87648628D02*
X184761905Y-87648628D01*
X185904762Y-87553390D02*
X185809524Y-87505771D01*
X185809524Y-87505771D02*
X185761905Y-87458152D01*
X185761905Y-87458152D02*
X185714286Y-87362914D01*
X185714286Y-87362914D02*
X185714286Y-87315295D01*
X185714286Y-87315295D02*
X185761905Y-87220057D01*
X185761905Y-87220057D02*
X185809524Y-87172438D01*
X185809524Y-87172438D02*
X185904762Y-87124819D01*
X185904762Y-87124819D02*
X186095238Y-87124819D01*
X186095238Y-87124819D02*
X186190476Y-87172438D01*
X186190476Y-87172438D02*
X186238095Y-87220057D01*
X186238095Y-87220057D02*
X186285714Y-87315295D01*
X186285714Y-87315295D02*
X186285714Y-87362914D01*
X186285714Y-87362914D02*
X186238095Y-87458152D01*
X186238095Y-87458152D02*
X186190476Y-87505771D01*
X186190476Y-87505771D02*
X186095238Y-87553390D01*
X186095238Y-87553390D02*
X185904762Y-87553390D01*
X185904762Y-87553390D02*
X185809524Y-87601009D01*
X185809524Y-87601009D02*
X185761905Y-87648628D01*
X185761905Y-87648628D02*
X185714286Y-87743866D01*
X185714286Y-87743866D02*
X185714286Y-87934342D01*
X185714286Y-87934342D02*
X185761905Y-88029580D01*
X185761905Y-88029580D02*
X185809524Y-88077200D01*
X185809524Y-88077200D02*
X185904762Y-88124819D01*
X185904762Y-88124819D02*
X186095238Y-88124819D01*
X186095238Y-88124819D02*
X186190476Y-88077200D01*
X186190476Y-88077200D02*
X186238095Y-88029580D01*
X186238095Y-88029580D02*
X186285714Y-87934342D01*
X186285714Y-87934342D02*
X186285714Y-87743866D01*
X186285714Y-87743866D02*
X186238095Y-87648628D01*
X186238095Y-87648628D02*
X186190476Y-87601009D01*
X186190476Y-87601009D02*
X186095238Y-87553390D01*
X201216128Y-86376190D02*
X201692319Y-86376190D01*
X200692319Y-86709523D02*
X201216128Y-86376190D01*
X201216128Y-86376190D02*
X200692319Y-86042857D01*
X201692319Y-85185714D02*
X201692319Y-85757142D01*
X201692319Y-85471428D02*
X200692319Y-85471428D01*
X200692319Y-85471428D02*
X200835176Y-85566666D01*
X200835176Y-85566666D02*
X200930414Y-85661904D01*
X200930414Y-85661904D02*
X200978033Y-85757142D01*
X193120833Y-101099580D02*
X193073214Y-101147200D01*
X193073214Y-101147200D02*
X192930357Y-101194819D01*
X192930357Y-101194819D02*
X192835119Y-101194819D01*
X192835119Y-101194819D02*
X192692262Y-101147200D01*
X192692262Y-101147200D02*
X192597024Y-101051961D01*
X192597024Y-101051961D02*
X192549405Y-100956723D01*
X192549405Y-100956723D02*
X192501786Y-100766247D01*
X192501786Y-100766247D02*
X192501786Y-100623390D01*
X192501786Y-100623390D02*
X192549405Y-100432914D01*
X192549405Y-100432914D02*
X192597024Y-100337676D01*
X192597024Y-100337676D02*
X192692262Y-100242438D01*
X192692262Y-100242438D02*
X192835119Y-100194819D01*
X192835119Y-100194819D02*
X192930357Y-100194819D01*
X192930357Y-100194819D02*
X193073214Y-100242438D01*
X193073214Y-100242438D02*
X193120833Y-100290057D01*
X193597024Y-101194819D02*
X193787500Y-101194819D01*
X193787500Y-101194819D02*
X193882738Y-101147200D01*
X193882738Y-101147200D02*
X193930357Y-101099580D01*
X193930357Y-101099580D02*
X194025595Y-100956723D01*
X194025595Y-100956723D02*
X194073214Y-100766247D01*
X194073214Y-100766247D02*
X194073214Y-100385295D01*
X194073214Y-100385295D02*
X194025595Y-100290057D01*
X194025595Y-100290057D02*
X193977976Y-100242438D01*
X193977976Y-100242438D02*
X193882738Y-100194819D01*
X193882738Y-100194819D02*
X193692262Y-100194819D01*
X193692262Y-100194819D02*
X193597024Y-100242438D01*
X193597024Y-100242438D02*
X193549405Y-100290057D01*
X193549405Y-100290057D02*
X193501786Y-100385295D01*
X193501786Y-100385295D02*
X193501786Y-100623390D01*
X193501786Y-100623390D02*
X193549405Y-100718628D01*
X193549405Y-100718628D02*
X193597024Y-100766247D01*
X193597024Y-100766247D02*
X193692262Y-100813866D01*
X193692262Y-100813866D02*
X193882738Y-100813866D01*
X193882738Y-100813866D02*
X193977976Y-100766247D01*
X193977976Y-100766247D02*
X194025595Y-100718628D01*
X194025595Y-100718628D02*
X194073214Y-100623390D01*
X185519580Y-79642857D02*
X185567200Y-79690476D01*
X185567200Y-79690476D02*
X185614819Y-79833333D01*
X185614819Y-79833333D02*
X185614819Y-79928571D01*
X185614819Y-79928571D02*
X185567200Y-80071428D01*
X185567200Y-80071428D02*
X185471961Y-80166666D01*
X185471961Y-80166666D02*
X185376723Y-80214285D01*
X185376723Y-80214285D02*
X185186247Y-80261904D01*
X185186247Y-80261904D02*
X185043390Y-80261904D01*
X185043390Y-80261904D02*
X184852914Y-80214285D01*
X184852914Y-80214285D02*
X184757676Y-80166666D01*
X184757676Y-80166666D02*
X184662438Y-80071428D01*
X184662438Y-80071428D02*
X184614819Y-79928571D01*
X184614819Y-79928571D02*
X184614819Y-79833333D01*
X184614819Y-79833333D02*
X184662438Y-79690476D01*
X184662438Y-79690476D02*
X184710057Y-79642857D01*
X185614819Y-78690476D02*
X185614819Y-79261904D01*
X185614819Y-78976190D02*
X184614819Y-78976190D01*
X184614819Y-78976190D02*
X184757676Y-79071428D01*
X184757676Y-79071428D02*
X184852914Y-79166666D01*
X184852914Y-79166666D02*
X184900533Y-79261904D01*
X185614819Y-78214285D02*
X185614819Y-78023809D01*
X185614819Y-78023809D02*
X185567200Y-77928571D01*
X185567200Y-77928571D02*
X185519580Y-77880952D01*
X185519580Y-77880952D02*
X185376723Y-77785714D01*
X185376723Y-77785714D02*
X185186247Y-77738095D01*
X185186247Y-77738095D02*
X184805295Y-77738095D01*
X184805295Y-77738095D02*
X184710057Y-77785714D01*
X184710057Y-77785714D02*
X184662438Y-77833333D01*
X184662438Y-77833333D02*
X184614819Y-77928571D01*
X184614819Y-77928571D02*
X184614819Y-78119047D01*
X184614819Y-78119047D02*
X184662438Y-78214285D01*
X184662438Y-78214285D02*
X184710057Y-78261904D01*
X184710057Y-78261904D02*
X184805295Y-78309523D01*
X184805295Y-78309523D02*
X185043390Y-78309523D01*
X185043390Y-78309523D02*
X185138628Y-78261904D01*
X185138628Y-78261904D02*
X185186247Y-78214285D01*
X185186247Y-78214285D02*
X185233866Y-78119047D01*
X185233866Y-78119047D02*
X185233866Y-77928571D01*
X185233866Y-77928571D02*
X185186247Y-77833333D01*
X185186247Y-77833333D02*
X185138628Y-77785714D01*
X185138628Y-77785714D02*
X185043390Y-77738095D01*
X189354819Y-77399404D02*
X190164342Y-77399404D01*
X190164342Y-77399404D02*
X190259580Y-77351785D01*
X190259580Y-77351785D02*
X190307200Y-77304166D01*
X190307200Y-77304166D02*
X190354819Y-77208928D01*
X190354819Y-77208928D02*
X190354819Y-77018452D01*
X190354819Y-77018452D02*
X190307200Y-76923214D01*
X190307200Y-76923214D02*
X190259580Y-76875595D01*
X190259580Y-76875595D02*
X190164342Y-76827976D01*
X190164342Y-76827976D02*
X189354819Y-76827976D01*
X189688152Y-75923214D02*
X190354819Y-75923214D01*
X189307200Y-76161309D02*
X190021485Y-76399404D01*
X190021485Y-76399404D02*
X190021485Y-75780357D01*
X197120833Y-89259580D02*
X197073214Y-89307200D01*
X197073214Y-89307200D02*
X196930357Y-89354819D01*
X196930357Y-89354819D02*
X196835119Y-89354819D01*
X196835119Y-89354819D02*
X196692262Y-89307200D01*
X196692262Y-89307200D02*
X196597024Y-89211961D01*
X196597024Y-89211961D02*
X196549405Y-89116723D01*
X196549405Y-89116723D02*
X196501786Y-88926247D01*
X196501786Y-88926247D02*
X196501786Y-88783390D01*
X196501786Y-88783390D02*
X196549405Y-88592914D01*
X196549405Y-88592914D02*
X196597024Y-88497676D01*
X196597024Y-88497676D02*
X196692262Y-88402438D01*
X196692262Y-88402438D02*
X196835119Y-88354819D01*
X196835119Y-88354819D02*
X196930357Y-88354819D01*
X196930357Y-88354819D02*
X197073214Y-88402438D01*
X197073214Y-88402438D02*
X197120833Y-88450057D01*
X197501786Y-88450057D02*
X197549405Y-88402438D01*
X197549405Y-88402438D02*
X197644643Y-88354819D01*
X197644643Y-88354819D02*
X197882738Y-88354819D01*
X197882738Y-88354819D02*
X197977976Y-88402438D01*
X197977976Y-88402438D02*
X198025595Y-88450057D01*
X198025595Y-88450057D02*
X198073214Y-88545295D01*
X198073214Y-88545295D02*
X198073214Y-88640533D01*
X198073214Y-88640533D02*
X198025595Y-88783390D01*
X198025595Y-88783390D02*
X197454167Y-89354819D01*
X197454167Y-89354819D02*
X198073214Y-89354819D01*
X178666666Y-75101009D02*
X178333333Y-75101009D01*
X178333333Y-75624819D02*
X178333333Y-74624819D01*
X178333333Y-74624819D02*
X178809523Y-74624819D01*
X179523809Y-75101009D02*
X179666666Y-75148628D01*
X179666666Y-75148628D02*
X179714285Y-75196247D01*
X179714285Y-75196247D02*
X179761904Y-75291485D01*
X179761904Y-75291485D02*
X179761904Y-75434342D01*
X179761904Y-75434342D02*
X179714285Y-75529580D01*
X179714285Y-75529580D02*
X179666666Y-75577200D01*
X179666666Y-75577200D02*
X179571428Y-75624819D01*
X179571428Y-75624819D02*
X179190476Y-75624819D01*
X179190476Y-75624819D02*
X179190476Y-74624819D01*
X179190476Y-74624819D02*
X179523809Y-74624819D01*
X179523809Y-74624819D02*
X179619047Y-74672438D01*
X179619047Y-74672438D02*
X179666666Y-74720057D01*
X179666666Y-74720057D02*
X179714285Y-74815295D01*
X179714285Y-74815295D02*
X179714285Y-74910533D01*
X179714285Y-74910533D02*
X179666666Y-75005771D01*
X179666666Y-75005771D02*
X179619047Y-75053390D01*
X179619047Y-75053390D02*
X179523809Y-75101009D01*
X179523809Y-75101009D02*
X179190476Y-75101009D01*
X180714285Y-75624819D02*
X180142857Y-75624819D01*
X180428571Y-75624819D02*
X180428571Y-74624819D01*
X180428571Y-74624819D02*
X180333333Y-74767676D01*
X180333333Y-74767676D02*
X180238095Y-74862914D01*
X180238095Y-74862914D02*
X180142857Y-74910533D01*
X184837142Y-82199580D02*
X184789523Y-82247200D01*
X184789523Y-82247200D02*
X184646666Y-82294819D01*
X184646666Y-82294819D02*
X184551428Y-82294819D01*
X184551428Y-82294819D02*
X184408571Y-82247200D01*
X184408571Y-82247200D02*
X184313333Y-82151961D01*
X184313333Y-82151961D02*
X184265714Y-82056723D01*
X184265714Y-82056723D02*
X184218095Y-81866247D01*
X184218095Y-81866247D02*
X184218095Y-81723390D01*
X184218095Y-81723390D02*
X184265714Y-81532914D01*
X184265714Y-81532914D02*
X184313333Y-81437676D01*
X184313333Y-81437676D02*
X184408571Y-81342438D01*
X184408571Y-81342438D02*
X184551428Y-81294819D01*
X184551428Y-81294819D02*
X184646666Y-81294819D01*
X184646666Y-81294819D02*
X184789523Y-81342438D01*
X184789523Y-81342438D02*
X184837142Y-81390057D01*
X185789523Y-82294819D02*
X185218095Y-82294819D01*
X185503809Y-82294819D02*
X185503809Y-81294819D01*
X185503809Y-81294819D02*
X185408571Y-81437676D01*
X185408571Y-81437676D02*
X185313333Y-81532914D01*
X185313333Y-81532914D02*
X185218095Y-81580533D01*
X186646666Y-81294819D02*
X186456190Y-81294819D01*
X186456190Y-81294819D02*
X186360952Y-81342438D01*
X186360952Y-81342438D02*
X186313333Y-81390057D01*
X186313333Y-81390057D02*
X186218095Y-81532914D01*
X186218095Y-81532914D02*
X186170476Y-81723390D01*
X186170476Y-81723390D02*
X186170476Y-82104342D01*
X186170476Y-82104342D02*
X186218095Y-82199580D01*
X186218095Y-82199580D02*
X186265714Y-82247200D01*
X186265714Y-82247200D02*
X186360952Y-82294819D01*
X186360952Y-82294819D02*
X186551428Y-82294819D01*
X186551428Y-82294819D02*
X186646666Y-82247200D01*
X186646666Y-82247200D02*
X186694285Y-82199580D01*
X186694285Y-82199580D02*
X186741904Y-82104342D01*
X186741904Y-82104342D02*
X186741904Y-81866247D01*
X186741904Y-81866247D02*
X186694285Y-81771009D01*
X186694285Y-81771009D02*
X186646666Y-81723390D01*
X186646666Y-81723390D02*
X186551428Y-81675771D01*
X186551428Y-81675771D02*
X186360952Y-81675771D01*
X186360952Y-81675771D02*
X186265714Y-81723390D01*
X186265714Y-81723390D02*
X186218095Y-81771009D01*
X186218095Y-81771009D02*
X186170476Y-81866247D01*
X184843333Y-92487319D02*
X184510000Y-92011128D01*
X184271905Y-92487319D02*
X184271905Y-91487319D01*
X184271905Y-91487319D02*
X184652857Y-91487319D01*
X184652857Y-91487319D02*
X184748095Y-91534938D01*
X184748095Y-91534938D02*
X184795714Y-91582557D01*
X184795714Y-91582557D02*
X184843333Y-91677795D01*
X184843333Y-91677795D02*
X184843333Y-91820652D01*
X184843333Y-91820652D02*
X184795714Y-91915890D01*
X184795714Y-91915890D02*
X184748095Y-91963509D01*
X184748095Y-91963509D02*
X184652857Y-92011128D01*
X184652857Y-92011128D02*
X184271905Y-92011128D01*
X185224286Y-91582557D02*
X185271905Y-91534938D01*
X185271905Y-91534938D02*
X185367143Y-91487319D01*
X185367143Y-91487319D02*
X185605238Y-91487319D01*
X185605238Y-91487319D02*
X185700476Y-91534938D01*
X185700476Y-91534938D02*
X185748095Y-91582557D01*
X185748095Y-91582557D02*
X185795714Y-91677795D01*
X185795714Y-91677795D02*
X185795714Y-91773033D01*
X185795714Y-91773033D02*
X185748095Y-91915890D01*
X185748095Y-91915890D02*
X185176667Y-92487319D01*
X185176667Y-92487319D02*
X185795714Y-92487319D01*
X173857142Y-88519580D02*
X173809523Y-88567200D01*
X173809523Y-88567200D02*
X173666666Y-88614819D01*
X173666666Y-88614819D02*
X173571428Y-88614819D01*
X173571428Y-88614819D02*
X173428571Y-88567200D01*
X173428571Y-88567200D02*
X173333333Y-88471961D01*
X173333333Y-88471961D02*
X173285714Y-88376723D01*
X173285714Y-88376723D02*
X173238095Y-88186247D01*
X173238095Y-88186247D02*
X173238095Y-88043390D01*
X173238095Y-88043390D02*
X173285714Y-87852914D01*
X173285714Y-87852914D02*
X173333333Y-87757676D01*
X173333333Y-87757676D02*
X173428571Y-87662438D01*
X173428571Y-87662438D02*
X173571428Y-87614819D01*
X173571428Y-87614819D02*
X173666666Y-87614819D01*
X173666666Y-87614819D02*
X173809523Y-87662438D01*
X173809523Y-87662438D02*
X173857142Y-87710057D01*
X174809523Y-88614819D02*
X174238095Y-88614819D01*
X174523809Y-88614819D02*
X174523809Y-87614819D01*
X174523809Y-87614819D02*
X174428571Y-87757676D01*
X174428571Y-87757676D02*
X174333333Y-87852914D01*
X174333333Y-87852914D02*
X174238095Y-87900533D01*
X175714285Y-87614819D02*
X175238095Y-87614819D01*
X175238095Y-87614819D02*
X175190476Y-88091009D01*
X175190476Y-88091009D02*
X175238095Y-88043390D01*
X175238095Y-88043390D02*
X175333333Y-87995771D01*
X175333333Y-87995771D02*
X175571428Y-87995771D01*
X175571428Y-87995771D02*
X175666666Y-88043390D01*
X175666666Y-88043390D02*
X175714285Y-88091009D01*
X175714285Y-88091009D02*
X175761904Y-88186247D01*
X175761904Y-88186247D02*
X175761904Y-88424342D01*
X175761904Y-88424342D02*
X175714285Y-88519580D01*
X175714285Y-88519580D02*
X175666666Y-88567200D01*
X175666666Y-88567200D02*
X175571428Y-88614819D01*
X175571428Y-88614819D02*
X175333333Y-88614819D01*
X175333333Y-88614819D02*
X175238095Y-88567200D01*
X175238095Y-88567200D02*
X175190476Y-88519580D01*
X195120833Y-83259580D02*
X195073214Y-83307200D01*
X195073214Y-83307200D02*
X194930357Y-83354819D01*
X194930357Y-83354819D02*
X194835119Y-83354819D01*
X194835119Y-83354819D02*
X194692262Y-83307200D01*
X194692262Y-83307200D02*
X194597024Y-83211961D01*
X194597024Y-83211961D02*
X194549405Y-83116723D01*
X194549405Y-83116723D02*
X194501786Y-82926247D01*
X194501786Y-82926247D02*
X194501786Y-82783390D01*
X194501786Y-82783390D02*
X194549405Y-82592914D01*
X194549405Y-82592914D02*
X194597024Y-82497676D01*
X194597024Y-82497676D02*
X194692262Y-82402438D01*
X194692262Y-82402438D02*
X194835119Y-82354819D01*
X194835119Y-82354819D02*
X194930357Y-82354819D01*
X194930357Y-82354819D02*
X195073214Y-82402438D01*
X195073214Y-82402438D02*
X195120833Y-82450057D01*
X195454167Y-82354819D02*
X196073214Y-82354819D01*
X196073214Y-82354819D02*
X195739881Y-82735771D01*
X195739881Y-82735771D02*
X195882738Y-82735771D01*
X195882738Y-82735771D02*
X195977976Y-82783390D01*
X195977976Y-82783390D02*
X196025595Y-82831009D01*
X196025595Y-82831009D02*
X196073214Y-82926247D01*
X196073214Y-82926247D02*
X196073214Y-83164342D01*
X196073214Y-83164342D02*
X196025595Y-83259580D01*
X196025595Y-83259580D02*
X195977976Y-83307200D01*
X195977976Y-83307200D02*
X195882738Y-83354819D01*
X195882738Y-83354819D02*
X195597024Y-83354819D01*
X195597024Y-83354819D02*
X195501786Y-83307200D01*
X195501786Y-83307200D02*
X195454167Y-83259580D01*
X196857142Y-82199580D02*
X196809523Y-82247200D01*
X196809523Y-82247200D02*
X196666666Y-82294819D01*
X196666666Y-82294819D02*
X196571428Y-82294819D01*
X196571428Y-82294819D02*
X196428571Y-82247200D01*
X196428571Y-82247200D02*
X196333333Y-82151961D01*
X196333333Y-82151961D02*
X196285714Y-82056723D01*
X196285714Y-82056723D02*
X196238095Y-81866247D01*
X196238095Y-81866247D02*
X196238095Y-81723390D01*
X196238095Y-81723390D02*
X196285714Y-81532914D01*
X196285714Y-81532914D02*
X196333333Y-81437676D01*
X196333333Y-81437676D02*
X196428571Y-81342438D01*
X196428571Y-81342438D02*
X196571428Y-81294819D01*
X196571428Y-81294819D02*
X196666666Y-81294819D01*
X196666666Y-81294819D02*
X196809523Y-81342438D01*
X196809523Y-81342438D02*
X196857142Y-81390057D01*
X197238095Y-81390057D02*
X197285714Y-81342438D01*
X197285714Y-81342438D02*
X197380952Y-81294819D01*
X197380952Y-81294819D02*
X197619047Y-81294819D01*
X197619047Y-81294819D02*
X197714285Y-81342438D01*
X197714285Y-81342438D02*
X197761904Y-81390057D01*
X197761904Y-81390057D02*
X197809523Y-81485295D01*
X197809523Y-81485295D02*
X197809523Y-81580533D01*
X197809523Y-81580533D02*
X197761904Y-81723390D01*
X197761904Y-81723390D02*
X197190476Y-82294819D01*
X197190476Y-82294819D02*
X197809523Y-82294819D01*
X198142857Y-81294819D02*
X198809523Y-81294819D01*
X198809523Y-81294819D02*
X198380952Y-82294819D01*
X191675595Y-89004819D02*
X191675595Y-89814342D01*
X191675595Y-89814342D02*
X191723214Y-89909580D01*
X191723214Y-89909580D02*
X191770833Y-89957200D01*
X191770833Y-89957200D02*
X191866071Y-90004819D01*
X191866071Y-90004819D02*
X192056547Y-90004819D01*
X192056547Y-90004819D02*
X192151785Y-89957200D01*
X192151785Y-89957200D02*
X192199404Y-89909580D01*
X192199404Y-89909580D02*
X192247023Y-89814342D01*
X192247023Y-89814342D02*
X192247023Y-89004819D01*
X192675595Y-89100057D02*
X192723214Y-89052438D01*
X192723214Y-89052438D02*
X192818452Y-89004819D01*
X192818452Y-89004819D02*
X193056547Y-89004819D01*
X193056547Y-89004819D02*
X193151785Y-89052438D01*
X193151785Y-89052438D02*
X193199404Y-89100057D01*
X193199404Y-89100057D02*
X193247023Y-89195295D01*
X193247023Y-89195295D02*
X193247023Y-89290533D01*
X193247023Y-89290533D02*
X193199404Y-89433390D01*
X193199404Y-89433390D02*
X192627976Y-90004819D01*
X192627976Y-90004819D02*
X193247023Y-90004819D01*
X179278628Y-92338690D02*
X179754819Y-92338690D01*
X178754819Y-92672023D02*
X179278628Y-92338690D01*
X179278628Y-92338690D02*
X178754819Y-92005357D01*
X178850057Y-91719642D02*
X178802438Y-91672023D01*
X178802438Y-91672023D02*
X178754819Y-91576785D01*
X178754819Y-91576785D02*
X178754819Y-91338690D01*
X178754819Y-91338690D02*
X178802438Y-91243452D01*
X178802438Y-91243452D02*
X178850057Y-91195833D01*
X178850057Y-91195833D02*
X178945295Y-91148214D01*
X178945295Y-91148214D02*
X179040533Y-91148214D01*
X179040533Y-91148214D02*
X179183390Y-91195833D01*
X179183390Y-91195833D02*
X179754819Y-91767261D01*
X179754819Y-91767261D02*
X179754819Y-91148214D01*
X172738095Y-72354819D02*
X172738095Y-73164342D01*
X172738095Y-73164342D02*
X172785714Y-73259580D01*
X172785714Y-73259580D02*
X172833333Y-73307200D01*
X172833333Y-73307200D02*
X172928571Y-73354819D01*
X172928571Y-73354819D02*
X173119047Y-73354819D01*
X173119047Y-73354819D02*
X173214285Y-73307200D01*
X173214285Y-73307200D02*
X173261904Y-73259580D01*
X173261904Y-73259580D02*
X173309523Y-73164342D01*
X173309523Y-73164342D02*
X173309523Y-72354819D01*
X174261904Y-72354819D02*
X173785714Y-72354819D01*
X173785714Y-72354819D02*
X173738095Y-72831009D01*
X173738095Y-72831009D02*
X173785714Y-72783390D01*
X173785714Y-72783390D02*
X173880952Y-72735771D01*
X173880952Y-72735771D02*
X174119047Y-72735771D01*
X174119047Y-72735771D02*
X174214285Y-72783390D01*
X174214285Y-72783390D02*
X174261904Y-72831009D01*
X174261904Y-72831009D02*
X174309523Y-72926247D01*
X174309523Y-72926247D02*
X174309523Y-73164342D01*
X174309523Y-73164342D02*
X174261904Y-73259580D01*
X174261904Y-73259580D02*
X174214285Y-73307200D01*
X174214285Y-73307200D02*
X174119047Y-73354819D01*
X174119047Y-73354819D02*
X173880952Y-73354819D01*
X173880952Y-73354819D02*
X173785714Y-73307200D01*
X173785714Y-73307200D02*
X173738095Y-73259580D01*
X194620833Y-91524819D02*
X194144643Y-91524819D01*
X194144643Y-91524819D02*
X194144643Y-90524819D01*
X194906548Y-90620057D02*
X194954167Y-90572438D01*
X194954167Y-90572438D02*
X195049405Y-90524819D01*
X195049405Y-90524819D02*
X195287500Y-90524819D01*
X195287500Y-90524819D02*
X195382738Y-90572438D01*
X195382738Y-90572438D02*
X195430357Y-90620057D01*
X195430357Y-90620057D02*
X195477976Y-90715295D01*
X195477976Y-90715295D02*
X195477976Y-90810533D01*
X195477976Y-90810533D02*
X195430357Y-90953390D01*
X195430357Y-90953390D02*
X194858929Y-91524819D01*
X194858929Y-91524819D02*
X195477976Y-91524819D01*
X196647080Y-92536666D02*
X196694700Y-92584285D01*
X196694700Y-92584285D02*
X196742319Y-92727142D01*
X196742319Y-92727142D02*
X196742319Y-92822380D01*
X196742319Y-92822380D02*
X196694700Y-92965237D01*
X196694700Y-92965237D02*
X196599461Y-93060475D01*
X196599461Y-93060475D02*
X196504223Y-93108094D01*
X196504223Y-93108094D02*
X196313747Y-93155713D01*
X196313747Y-93155713D02*
X196170890Y-93155713D01*
X196170890Y-93155713D02*
X195980414Y-93108094D01*
X195980414Y-93108094D02*
X195885176Y-93060475D01*
X195885176Y-93060475D02*
X195789938Y-92965237D01*
X195789938Y-92965237D02*
X195742319Y-92822380D01*
X195742319Y-92822380D02*
X195742319Y-92727142D01*
X195742319Y-92727142D02*
X195789938Y-92584285D01*
X195789938Y-92584285D02*
X195837557Y-92536666D01*
X196075652Y-91679523D02*
X196742319Y-91679523D01*
X195694700Y-91917618D02*
X196408985Y-92155713D01*
X196408985Y-92155713D02*
X196408985Y-91536666D01*
X188987080Y-95566666D02*
X189034700Y-95614285D01*
X189034700Y-95614285D02*
X189082319Y-95757142D01*
X189082319Y-95757142D02*
X189082319Y-95852380D01*
X189082319Y-95852380D02*
X189034700Y-95995237D01*
X189034700Y-95995237D02*
X188939461Y-96090475D01*
X188939461Y-96090475D02*
X188844223Y-96138094D01*
X188844223Y-96138094D02*
X188653747Y-96185713D01*
X188653747Y-96185713D02*
X188510890Y-96185713D01*
X188510890Y-96185713D02*
X188320414Y-96138094D01*
X188320414Y-96138094D02*
X188225176Y-96090475D01*
X188225176Y-96090475D02*
X188129938Y-95995237D01*
X188129938Y-95995237D02*
X188082319Y-95852380D01*
X188082319Y-95852380D02*
X188082319Y-95757142D01*
X188082319Y-95757142D02*
X188129938Y-95614285D01*
X188129938Y-95614285D02*
X188177557Y-95566666D01*
X188082319Y-94709523D02*
X188082319Y-94899999D01*
X188082319Y-94899999D02*
X188129938Y-94995237D01*
X188129938Y-94995237D02*
X188177557Y-95042856D01*
X188177557Y-95042856D02*
X188320414Y-95138094D01*
X188320414Y-95138094D02*
X188510890Y-95185713D01*
X188510890Y-95185713D02*
X188891842Y-95185713D01*
X188891842Y-95185713D02*
X188987080Y-95138094D01*
X188987080Y-95138094D02*
X189034700Y-95090475D01*
X189034700Y-95090475D02*
X189082319Y-94995237D01*
X189082319Y-94995237D02*
X189082319Y-94804761D01*
X189082319Y-94804761D02*
X189034700Y-94709523D01*
X189034700Y-94709523D02*
X188987080Y-94661904D01*
X188987080Y-94661904D02*
X188891842Y-94614285D01*
X188891842Y-94614285D02*
X188653747Y-94614285D01*
X188653747Y-94614285D02*
X188558509Y-94661904D01*
X188558509Y-94661904D02*
X188510890Y-94709523D01*
X188510890Y-94709523D02*
X188463271Y-94804761D01*
X188463271Y-94804761D02*
X188463271Y-94995237D01*
X188463271Y-94995237D02*
X188510890Y-95090475D01*
X188510890Y-95090475D02*
X188558509Y-95138094D01*
X188558509Y-95138094D02*
X188653747Y-95185713D01*
X190072319Y-95566666D02*
X189596128Y-95899999D01*
X190072319Y-96138094D02*
X189072319Y-96138094D01*
X189072319Y-96138094D02*
X189072319Y-95757142D01*
X189072319Y-95757142D02*
X189119938Y-95661904D01*
X189119938Y-95661904D02*
X189167557Y-95614285D01*
X189167557Y-95614285D02*
X189262795Y-95566666D01*
X189262795Y-95566666D02*
X189405652Y-95566666D01*
X189405652Y-95566666D02*
X189500890Y-95614285D01*
X189500890Y-95614285D02*
X189548509Y-95661904D01*
X189548509Y-95661904D02*
X189596128Y-95757142D01*
X189596128Y-95757142D02*
X189596128Y-96138094D01*
X190072319Y-94614285D02*
X190072319Y-95185713D01*
X190072319Y-94899999D02*
X189072319Y-94899999D01*
X189072319Y-94899999D02*
X189215176Y-94995237D01*
X189215176Y-94995237D02*
X189310414Y-95090475D01*
X189310414Y-95090475D02*
X189358033Y-95185713D01*
X176857142Y-94062080D02*
X176809523Y-94109700D01*
X176809523Y-94109700D02*
X176666666Y-94157319D01*
X176666666Y-94157319D02*
X176571428Y-94157319D01*
X176571428Y-94157319D02*
X176428571Y-94109700D01*
X176428571Y-94109700D02*
X176333333Y-94014461D01*
X176333333Y-94014461D02*
X176285714Y-93919223D01*
X176285714Y-93919223D02*
X176238095Y-93728747D01*
X176238095Y-93728747D02*
X176238095Y-93585890D01*
X176238095Y-93585890D02*
X176285714Y-93395414D01*
X176285714Y-93395414D02*
X176333333Y-93300176D01*
X176333333Y-93300176D02*
X176428571Y-93204938D01*
X176428571Y-93204938D02*
X176571428Y-93157319D01*
X176571428Y-93157319D02*
X176666666Y-93157319D01*
X176666666Y-93157319D02*
X176809523Y-93204938D01*
X176809523Y-93204938D02*
X176857142Y-93252557D01*
X177238095Y-93252557D02*
X177285714Y-93204938D01*
X177285714Y-93204938D02*
X177380952Y-93157319D01*
X177380952Y-93157319D02*
X177619047Y-93157319D01*
X177619047Y-93157319D02*
X177714285Y-93204938D01*
X177714285Y-93204938D02*
X177761904Y-93252557D01*
X177761904Y-93252557D02*
X177809523Y-93347795D01*
X177809523Y-93347795D02*
X177809523Y-93443033D01*
X177809523Y-93443033D02*
X177761904Y-93585890D01*
X177761904Y-93585890D02*
X177190476Y-94157319D01*
X177190476Y-94157319D02*
X177809523Y-94157319D01*
X178190476Y-93252557D02*
X178238095Y-93204938D01*
X178238095Y-93204938D02*
X178333333Y-93157319D01*
X178333333Y-93157319D02*
X178571428Y-93157319D01*
X178571428Y-93157319D02*
X178666666Y-93204938D01*
X178666666Y-93204938D02*
X178714285Y-93252557D01*
X178714285Y-93252557D02*
X178761904Y-93347795D01*
X178761904Y-93347795D02*
X178761904Y-93443033D01*
X178761904Y-93443033D02*
X178714285Y-93585890D01*
X178714285Y-93585890D02*
X178142857Y-94157319D01*
X178142857Y-94157319D02*
X178761904Y-94157319D01*
X194412319Y-100566666D02*
X194412319Y-101042856D01*
X194412319Y-101042856D02*
X193412319Y-101042856D01*
X193412319Y-100328570D02*
X193412319Y-99709523D01*
X193412319Y-99709523D02*
X193793271Y-100042856D01*
X193793271Y-100042856D02*
X193793271Y-99899999D01*
X193793271Y-99899999D02*
X193840890Y-99804761D01*
X193840890Y-99804761D02*
X193888509Y-99757142D01*
X193888509Y-99757142D02*
X193983747Y-99709523D01*
X193983747Y-99709523D02*
X194221842Y-99709523D01*
X194221842Y-99709523D02*
X194317080Y-99757142D01*
X194317080Y-99757142D02*
X194364700Y-99804761D01*
X194364700Y-99804761D02*
X194412319Y-99899999D01*
X194412319Y-99899999D02*
X194412319Y-100185713D01*
X194412319Y-100185713D02*
X194364700Y-100280951D01*
X194364700Y-100280951D02*
X194317080Y-100328570D01*
X179019580Y-73642857D02*
X179067200Y-73690476D01*
X179067200Y-73690476D02*
X179114819Y-73833333D01*
X179114819Y-73833333D02*
X179114819Y-73928571D01*
X179114819Y-73928571D02*
X179067200Y-74071428D01*
X179067200Y-74071428D02*
X178971961Y-74166666D01*
X178971961Y-74166666D02*
X178876723Y-74214285D01*
X178876723Y-74214285D02*
X178686247Y-74261904D01*
X178686247Y-74261904D02*
X178543390Y-74261904D01*
X178543390Y-74261904D02*
X178352914Y-74214285D01*
X178352914Y-74214285D02*
X178257676Y-74166666D01*
X178257676Y-74166666D02*
X178162438Y-74071428D01*
X178162438Y-74071428D02*
X178114819Y-73928571D01*
X178114819Y-73928571D02*
X178114819Y-73833333D01*
X178114819Y-73833333D02*
X178162438Y-73690476D01*
X178162438Y-73690476D02*
X178210057Y-73642857D01*
X178210057Y-73261904D02*
X178162438Y-73214285D01*
X178162438Y-73214285D02*
X178114819Y-73119047D01*
X178114819Y-73119047D02*
X178114819Y-72880952D01*
X178114819Y-72880952D02*
X178162438Y-72785714D01*
X178162438Y-72785714D02*
X178210057Y-72738095D01*
X178210057Y-72738095D02*
X178305295Y-72690476D01*
X178305295Y-72690476D02*
X178400533Y-72690476D01*
X178400533Y-72690476D02*
X178543390Y-72738095D01*
X178543390Y-72738095D02*
X179114819Y-73309523D01*
X179114819Y-73309523D02*
X179114819Y-72690476D01*
X178114819Y-71785714D02*
X178114819Y-72261904D01*
X178114819Y-72261904D02*
X178591009Y-72309523D01*
X178591009Y-72309523D02*
X178543390Y-72261904D01*
X178543390Y-72261904D02*
X178495771Y-72166666D01*
X178495771Y-72166666D02*
X178495771Y-71928571D01*
X178495771Y-71928571D02*
X178543390Y-71833333D01*
X178543390Y-71833333D02*
X178591009Y-71785714D01*
X178591009Y-71785714D02*
X178686247Y-71738095D01*
X178686247Y-71738095D02*
X178924342Y-71738095D01*
X178924342Y-71738095D02*
X179019580Y-71785714D01*
X179019580Y-71785714D02*
X179067200Y-71833333D01*
X179067200Y-71833333D02*
X179114819Y-71928571D01*
X179114819Y-71928571D02*
X179114819Y-72166666D01*
X179114819Y-72166666D02*
X179067200Y-72261904D01*
X179067200Y-72261904D02*
X179019580Y-72309523D01*
X179784819Y-76666666D02*
X179308628Y-76999999D01*
X179784819Y-77238094D02*
X178784819Y-77238094D01*
X178784819Y-77238094D02*
X178784819Y-76857142D01*
X178784819Y-76857142D02*
X178832438Y-76761904D01*
X178832438Y-76761904D02*
X178880057Y-76714285D01*
X178880057Y-76714285D02*
X178975295Y-76666666D01*
X178975295Y-76666666D02*
X179118152Y-76666666D01*
X179118152Y-76666666D02*
X179213390Y-76714285D01*
X179213390Y-76714285D02*
X179261009Y-76761904D01*
X179261009Y-76761904D02*
X179308628Y-76857142D01*
X179308628Y-76857142D02*
X179308628Y-77238094D01*
X179118152Y-75809523D02*
X179784819Y-75809523D01*
X178737200Y-76047618D02*
X179451485Y-76285713D01*
X179451485Y-76285713D02*
X179451485Y-75666666D01*
X189199580Y-77142857D02*
X189247200Y-77190476D01*
X189247200Y-77190476D02*
X189294819Y-77333333D01*
X189294819Y-77333333D02*
X189294819Y-77428571D01*
X189294819Y-77428571D02*
X189247200Y-77571428D01*
X189247200Y-77571428D02*
X189151961Y-77666666D01*
X189151961Y-77666666D02*
X189056723Y-77714285D01*
X189056723Y-77714285D02*
X188866247Y-77761904D01*
X188866247Y-77761904D02*
X188723390Y-77761904D01*
X188723390Y-77761904D02*
X188532914Y-77714285D01*
X188532914Y-77714285D02*
X188437676Y-77666666D01*
X188437676Y-77666666D02*
X188342438Y-77571428D01*
X188342438Y-77571428D02*
X188294819Y-77428571D01*
X188294819Y-77428571D02*
X188294819Y-77333333D01*
X188294819Y-77333333D02*
X188342438Y-77190476D01*
X188342438Y-77190476D02*
X188390057Y-77142857D01*
X188390057Y-76761904D02*
X188342438Y-76714285D01*
X188342438Y-76714285D02*
X188294819Y-76619047D01*
X188294819Y-76619047D02*
X188294819Y-76380952D01*
X188294819Y-76380952D02*
X188342438Y-76285714D01*
X188342438Y-76285714D02*
X188390057Y-76238095D01*
X188390057Y-76238095D02*
X188485295Y-76190476D01*
X188485295Y-76190476D02*
X188580533Y-76190476D01*
X188580533Y-76190476D02*
X188723390Y-76238095D01*
X188723390Y-76238095D02*
X189294819Y-76809523D01*
X189294819Y-76809523D02*
X189294819Y-76190476D01*
X188628152Y-75333333D02*
X189294819Y-75333333D01*
X188247200Y-75571428D02*
X188961485Y-75809523D01*
X188961485Y-75809523D02*
X188961485Y-75190476D01*
X188833333Y-83359580D02*
X188785714Y-83407200D01*
X188785714Y-83407200D02*
X188642857Y-83454819D01*
X188642857Y-83454819D02*
X188547619Y-83454819D01*
X188547619Y-83454819D02*
X188404762Y-83407200D01*
X188404762Y-83407200D02*
X188309524Y-83311961D01*
X188309524Y-83311961D02*
X188261905Y-83216723D01*
X188261905Y-83216723D02*
X188214286Y-83026247D01*
X188214286Y-83026247D02*
X188214286Y-82883390D01*
X188214286Y-82883390D02*
X188261905Y-82692914D01*
X188261905Y-82692914D02*
X188309524Y-82597676D01*
X188309524Y-82597676D02*
X188404762Y-82502438D01*
X188404762Y-82502438D02*
X188547619Y-82454819D01*
X188547619Y-82454819D02*
X188642857Y-82454819D01*
X188642857Y-82454819D02*
X188785714Y-82502438D01*
X188785714Y-82502438D02*
X188833333Y-82550057D01*
X189785714Y-83454819D02*
X189214286Y-83454819D01*
X189500000Y-83454819D02*
X189500000Y-82454819D01*
X189500000Y-82454819D02*
X189404762Y-82597676D01*
X189404762Y-82597676D02*
X189309524Y-82692914D01*
X189309524Y-82692914D02*
X189214286Y-82740533D01*
X182019580Y-90642857D02*
X182067200Y-90690476D01*
X182067200Y-90690476D02*
X182114819Y-90833333D01*
X182114819Y-90833333D02*
X182114819Y-90928571D01*
X182114819Y-90928571D02*
X182067200Y-91071428D01*
X182067200Y-91071428D02*
X181971961Y-91166666D01*
X181971961Y-91166666D02*
X181876723Y-91214285D01*
X181876723Y-91214285D02*
X181686247Y-91261904D01*
X181686247Y-91261904D02*
X181543390Y-91261904D01*
X181543390Y-91261904D02*
X181352914Y-91214285D01*
X181352914Y-91214285D02*
X181257676Y-91166666D01*
X181257676Y-91166666D02*
X181162438Y-91071428D01*
X181162438Y-91071428D02*
X181114819Y-90928571D01*
X181114819Y-90928571D02*
X181114819Y-90833333D01*
X181114819Y-90833333D02*
X181162438Y-90690476D01*
X181162438Y-90690476D02*
X181210057Y-90642857D01*
X182114819Y-89690476D02*
X182114819Y-90261904D01*
X182114819Y-89976190D02*
X181114819Y-89976190D01*
X181114819Y-89976190D02*
X181257676Y-90071428D01*
X181257676Y-90071428D02*
X181352914Y-90166666D01*
X181352914Y-90166666D02*
X181400533Y-90261904D01*
X181543390Y-89119047D02*
X181495771Y-89214285D01*
X181495771Y-89214285D02*
X181448152Y-89261904D01*
X181448152Y-89261904D02*
X181352914Y-89309523D01*
X181352914Y-89309523D02*
X181305295Y-89309523D01*
X181305295Y-89309523D02*
X181210057Y-89261904D01*
X181210057Y-89261904D02*
X181162438Y-89214285D01*
X181162438Y-89214285D02*
X181114819Y-89119047D01*
X181114819Y-89119047D02*
X181114819Y-88928571D01*
X181114819Y-88928571D02*
X181162438Y-88833333D01*
X181162438Y-88833333D02*
X181210057Y-88785714D01*
X181210057Y-88785714D02*
X181305295Y-88738095D01*
X181305295Y-88738095D02*
X181352914Y-88738095D01*
X181352914Y-88738095D02*
X181448152Y-88785714D01*
X181448152Y-88785714D02*
X181495771Y-88833333D01*
X181495771Y-88833333D02*
X181543390Y-88928571D01*
X181543390Y-88928571D02*
X181543390Y-89119047D01*
X181543390Y-89119047D02*
X181591009Y-89214285D01*
X181591009Y-89214285D02*
X181638628Y-89261904D01*
X181638628Y-89261904D02*
X181733866Y-89309523D01*
X181733866Y-89309523D02*
X181924342Y-89309523D01*
X181924342Y-89309523D02*
X182019580Y-89261904D01*
X182019580Y-89261904D02*
X182067200Y-89214285D01*
X182067200Y-89214285D02*
X182114819Y-89119047D01*
X182114819Y-89119047D02*
X182114819Y-88928571D01*
X182114819Y-88928571D02*
X182067200Y-88833333D01*
X182067200Y-88833333D02*
X182019580Y-88785714D01*
X182019580Y-88785714D02*
X181924342Y-88738095D01*
X181924342Y-88738095D02*
X181733866Y-88738095D01*
X181733866Y-88738095D02*
X181638628Y-88785714D01*
X181638628Y-88785714D02*
X181591009Y-88833333D01*
X181591009Y-88833333D02*
X181543390Y-88928571D01*
X198857142Y-87699580D02*
X198809523Y-87747200D01*
X198809523Y-87747200D02*
X198666666Y-87794819D01*
X198666666Y-87794819D02*
X198571428Y-87794819D01*
X198571428Y-87794819D02*
X198428571Y-87747200D01*
X198428571Y-87747200D02*
X198333333Y-87651961D01*
X198333333Y-87651961D02*
X198285714Y-87556723D01*
X198285714Y-87556723D02*
X198238095Y-87366247D01*
X198238095Y-87366247D02*
X198238095Y-87223390D01*
X198238095Y-87223390D02*
X198285714Y-87032914D01*
X198285714Y-87032914D02*
X198333333Y-86937676D01*
X198333333Y-86937676D02*
X198428571Y-86842438D01*
X198428571Y-86842438D02*
X198571428Y-86794819D01*
X198571428Y-86794819D02*
X198666666Y-86794819D01*
X198666666Y-86794819D02*
X198809523Y-86842438D01*
X198809523Y-86842438D02*
X198857142Y-86890057D01*
X199238095Y-86890057D02*
X199285714Y-86842438D01*
X199285714Y-86842438D02*
X199380952Y-86794819D01*
X199380952Y-86794819D02*
X199619047Y-86794819D01*
X199619047Y-86794819D02*
X199714285Y-86842438D01*
X199714285Y-86842438D02*
X199761904Y-86890057D01*
X199761904Y-86890057D02*
X199809523Y-86985295D01*
X199809523Y-86985295D02*
X199809523Y-87080533D01*
X199809523Y-87080533D02*
X199761904Y-87223390D01*
X199761904Y-87223390D02*
X199190476Y-87794819D01*
X199190476Y-87794819D02*
X199809523Y-87794819D01*
X200666666Y-86794819D02*
X200476190Y-86794819D01*
X200476190Y-86794819D02*
X200380952Y-86842438D01*
X200380952Y-86842438D02*
X200333333Y-86890057D01*
X200333333Y-86890057D02*
X200238095Y-87032914D01*
X200238095Y-87032914D02*
X200190476Y-87223390D01*
X200190476Y-87223390D02*
X200190476Y-87604342D01*
X200190476Y-87604342D02*
X200238095Y-87699580D01*
X200238095Y-87699580D02*
X200285714Y-87747200D01*
X200285714Y-87747200D02*
X200380952Y-87794819D01*
X200380952Y-87794819D02*
X200571428Y-87794819D01*
X200571428Y-87794819D02*
X200666666Y-87747200D01*
X200666666Y-87747200D02*
X200714285Y-87699580D01*
X200714285Y-87699580D02*
X200761904Y-87604342D01*
X200761904Y-87604342D02*
X200761904Y-87366247D01*
X200761904Y-87366247D02*
X200714285Y-87271009D01*
X200714285Y-87271009D02*
X200666666Y-87223390D01*
X200666666Y-87223390D02*
X200571428Y-87175771D01*
X200571428Y-87175771D02*
X200380952Y-87175771D01*
X200380952Y-87175771D02*
X200285714Y-87223390D01*
X200285714Y-87223390D02*
X200238095Y-87271009D01*
X200238095Y-87271009D02*
X200190476Y-87366247D01*
X186624819Y-74666666D02*
X186148628Y-74999999D01*
X186624819Y-75238094D02*
X185624819Y-75238094D01*
X185624819Y-75238094D02*
X185624819Y-74857142D01*
X185624819Y-74857142D02*
X185672438Y-74761904D01*
X185672438Y-74761904D02*
X185720057Y-74714285D01*
X185720057Y-74714285D02*
X185815295Y-74666666D01*
X185815295Y-74666666D02*
X185958152Y-74666666D01*
X185958152Y-74666666D02*
X186053390Y-74714285D01*
X186053390Y-74714285D02*
X186101009Y-74761904D01*
X186101009Y-74761904D02*
X186148628Y-74857142D01*
X186148628Y-74857142D02*
X186148628Y-75238094D01*
X185624819Y-73761904D02*
X185624819Y-74238094D01*
X185624819Y-74238094D02*
X186101009Y-74285713D01*
X186101009Y-74285713D02*
X186053390Y-74238094D01*
X186053390Y-74238094D02*
X186005771Y-74142856D01*
X186005771Y-74142856D02*
X186005771Y-73904761D01*
X186005771Y-73904761D02*
X186053390Y-73809523D01*
X186053390Y-73809523D02*
X186101009Y-73761904D01*
X186101009Y-73761904D02*
X186196247Y-73714285D01*
X186196247Y-73714285D02*
X186434342Y-73714285D01*
X186434342Y-73714285D02*
X186529580Y-73761904D01*
X186529580Y-73761904D02*
X186577200Y-73809523D01*
X186577200Y-73809523D02*
X186624819Y-73904761D01*
X186624819Y-73904761D02*
X186624819Y-74142856D01*
X186624819Y-74142856D02*
X186577200Y-74238094D01*
X186577200Y-74238094D02*
X186529580Y-74285713D01*
X195111009Y-92638095D02*
X195111009Y-92971428D01*
X195634819Y-92971428D02*
X194634819Y-92971428D01*
X194634819Y-92971428D02*
X194634819Y-92495238D01*
X195634819Y-91638095D02*
X195634819Y-92114285D01*
X195634819Y-92114285D02*
X194634819Y-92114285D01*
X195634819Y-90780952D02*
X195634819Y-91352380D01*
X195634819Y-91066666D02*
X194634819Y-91066666D01*
X194634819Y-91066666D02*
X194777676Y-91161904D01*
X194777676Y-91161904D02*
X194872914Y-91257142D01*
X194872914Y-91257142D02*
X194920533Y-91352380D01*
%TO.C,J1*%
D11*
X179155000Y-68600000D02*
X179155000Y-70300000D01*
X188495000Y-68600000D02*
X188495000Y-70300000D01*
%TO.C,C14*%
X174140000Y-82892164D02*
X174140000Y-83107836D01*
X174860000Y-82892164D02*
X174860000Y-83107836D01*
%TO.C,SW1*%
X170300000Y-69000000D02*
X170300000Y-70200000D01*
X170300000Y-71800000D02*
X170300000Y-73000000D01*
X170300000Y-73000000D02*
X176700000Y-73000000D01*
X176700000Y-69000000D02*
X170300000Y-69000000D01*
X176700000Y-70200000D02*
X176700000Y-69000000D01*
X176700000Y-73000000D02*
X176700000Y-71800000D01*
%TO.C,C7*%
X192407500Y-97292164D02*
X192407500Y-97507836D01*
X193127500Y-97292164D02*
X193127500Y-97507836D01*
%TO.C,SW2*%
X180500000Y-91662500D02*
X180500000Y-98062500D01*
X180500000Y-98062500D02*
X181700000Y-98062500D01*
X181700000Y-91662500D02*
X180500000Y-91662500D01*
X183300000Y-98062500D02*
X184500000Y-98062500D01*
X184500000Y-91662500D02*
X183300000Y-91662500D01*
X184500000Y-98062500D02*
X184500000Y-91662500D01*
%TO.C,R7*%
X169120000Y-73143641D02*
X169120000Y-72836359D01*
X169880000Y-73143641D02*
X169880000Y-72836359D01*
%TO.C,R6*%
X181653641Y-73620000D02*
X181346359Y-73620000D01*
X181653641Y-74380000D02*
X181346359Y-74380000D01*
%TO.C,C20*%
X185607836Y-81640000D02*
X185392164Y-81640000D01*
X185607836Y-82360000D02*
X185392164Y-82360000D01*
%TO.C,C28*%
X174607836Y-85640000D02*
X174392164Y-85640000D01*
X174607836Y-86360000D02*
X174392164Y-86360000D01*
%TO.C,C17*%
X179140000Y-79107836D02*
X179140000Y-78892164D01*
X179860000Y-79107836D02*
X179860000Y-78892164D01*
%TO.C,C13*%
X185412164Y-83640000D02*
X185627836Y-83640000D01*
X185412164Y-84360000D02*
X185627836Y-84360000D01*
%TO.C,C5*%
X196927500Y-90292164D02*
X196927500Y-90507836D01*
X197647500Y-90292164D02*
X197647500Y-90507836D01*
%TO.C,U1*%
X176490000Y-81190000D02*
X177140000Y-81190000D01*
X176490000Y-81840000D02*
X176490000Y-81190000D01*
X176490000Y-88410000D02*
X176490000Y-87760000D01*
X177140000Y-88410000D02*
X176490000Y-88410000D01*
X183060000Y-81190000D02*
X183710000Y-81190000D01*
X183710000Y-81190000D02*
X183710000Y-81840000D01*
X183710000Y-87760000D02*
X183710000Y-88410000D01*
X183710000Y-88410000D02*
X183060000Y-88410000D01*
X175960000Y-82200000D02*
X175630000Y-82440000D01*
X175630000Y-81960000D01*
X175960000Y-82200000D01*
G36*
X175960000Y-82200000D02*
G01*
X175630000Y-82440000D01*
X175630000Y-81960000D01*
X175960000Y-82200000D01*
G37*
%TO.C,C11*%
X182640000Y-79107836D02*
X182640000Y-78892164D01*
X183360000Y-79107836D02*
X183360000Y-78892164D01*
%TO.C,U3*%
X191677500Y-94165000D02*
X191702500Y-94165000D01*
X191677500Y-95635000D02*
X191677500Y-94165000D01*
X191702500Y-95635000D02*
X191677500Y-95635000D01*
X193872500Y-94165000D02*
X193897500Y-94165000D01*
X193897500Y-94165000D02*
X193897500Y-95635000D01*
X193897500Y-95635000D02*
X193872500Y-95635000D01*
X193877500Y-93720000D02*
X194067500Y-93580000D01*
X194067500Y-93860000D01*
X193877500Y-93720000D01*
G36*
X194067500Y-93860000D02*
G01*
X193877500Y-93720000D01*
X194067500Y-93580000D01*
X194067500Y-93860000D01*
G37*
%TO.C,C8*%
X193179664Y-98540000D02*
X193395336Y-98540000D01*
X193179664Y-99260000D02*
X193395336Y-99260000D01*
%TO.C,AE1*%
X190957500Y-105610000D02*
X190957500Y-105730000D01*
X190957500Y-105730000D02*
X193617500Y-105730000D01*
X192287500Y-103070000D02*
X193617500Y-103070000D01*
X193617500Y-103070000D02*
X193617500Y-104400000D01*
X193617500Y-105610000D02*
X193617500Y-105730000D01*
%TO.C,C21*%
X174140000Y-91607836D02*
X174140000Y-91392164D01*
X174860000Y-91607836D02*
X174860000Y-91392164D01*
%TO.C,C10*%
X184640000Y-79107836D02*
X184640000Y-78892164D01*
X185360000Y-79107836D02*
X185360000Y-78892164D01*
%TO.C,C23*%
X186892164Y-73640000D02*
X187107836Y-73640000D01*
X186892164Y-74360000D02*
X187107836Y-74360000D01*
%TO.C,R3*%
X181110000Y-76653641D02*
X181110000Y-76346359D01*
X181870000Y-76653641D02*
X181870000Y-76346359D01*
%TO.C,C12*%
X175140000Y-82892164D02*
X175140000Y-83107836D01*
X175860000Y-82892164D02*
X175860000Y-83107836D01*
%TO.C,R8*%
X185653641Y-86120000D02*
X185346359Y-86120000D01*
X185653641Y-86880000D02*
X185346359Y-86880000D01*
%TO.C,Y1*%
X197077500Y-83840000D02*
X197077500Y-87960000D01*
X200497500Y-83840000D02*
X197077500Y-83840000D01*
%TO.C,C9*%
X193179664Y-101540000D02*
X193395336Y-101540000D01*
X193179664Y-102260000D02*
X193395336Y-102260000D01*
%TO.C,C19*%
X183640000Y-78892164D02*
X183640000Y-79107836D01*
X184360000Y-78892164D02*
X184360000Y-79107836D01*
%TO.C,U4*%
X185940000Y-75727500D02*
X185990000Y-75727500D01*
X185940000Y-77547500D02*
X185940000Y-75727500D01*
X185990000Y-77547500D02*
X185940000Y-77547500D01*
X187890000Y-77547500D02*
X187110000Y-77547500D01*
X189010000Y-75727500D02*
X189060000Y-75727500D01*
X189060000Y-75727500D02*
X189060000Y-77547500D01*
X189060000Y-77547500D02*
X189010000Y-77547500D01*
X189010000Y-75187500D02*
X189340000Y-74947500D01*
X189340000Y-75427500D01*
X189010000Y-75187500D01*
G36*
X189340000Y-75427500D02*
G01*
X189010000Y-75187500D01*
X189340000Y-74947500D01*
X189340000Y-75427500D01*
G37*
%TO.C,C2*%
X195427500Y-88007836D02*
X195427500Y-87792164D01*
X196147500Y-88007836D02*
X196147500Y-87792164D01*
%TO.C,C16*%
X185372164Y-82640000D02*
X185587836Y-82640000D01*
X185372164Y-83360000D02*
X185587836Y-83360000D01*
%TO.C,R2*%
X185163641Y-90482500D02*
X184856359Y-90482500D01*
X185163641Y-91242500D02*
X184856359Y-91242500D01*
%TO.C,C15*%
X174607836Y-86640000D02*
X174392164Y-86640000D01*
X174607836Y-87360000D02*
X174392164Y-87360000D01*
%TO.C,C3*%
X193415336Y-82540000D02*
X193199664Y-82540000D01*
X193415336Y-83260000D02*
X193199664Y-83260000D01*
%TO.C,C27*%
X197392164Y-82640000D02*
X197607836Y-82640000D01*
X197392164Y-83360000D02*
X197607836Y-83360000D01*
%TO.C,U2*%
X190327500Y-84140000D02*
X190802500Y-84140000D01*
X190327500Y-84615000D02*
X190327500Y-84140000D01*
X190327500Y-88360000D02*
X190327500Y-87885000D01*
X190802500Y-88360000D02*
X190327500Y-88360000D01*
X194072500Y-84140000D02*
X194547500Y-84140000D01*
X194547500Y-84140000D02*
X194547500Y-84615000D01*
X194547500Y-87885000D02*
X194547500Y-88360000D01*
X194547500Y-88360000D02*
X194072500Y-88360000D01*
X195047500Y-87500000D02*
X195377500Y-87260000D01*
X195377500Y-87740000D01*
X195047500Y-87500000D01*
G36*
X195377500Y-87740000D02*
G01*
X195047500Y-87500000D01*
X195377500Y-87260000D01*
X195377500Y-87740000D01*
G37*
%TO.C,Y2*%
X175140000Y-89802500D02*
X175140000Y-93922500D01*
X178560000Y-89802500D02*
X175140000Y-89802500D01*
%TO.C,U5*%
X170740000Y-73740000D02*
X176260000Y-73740000D01*
X170740000Y-74010000D02*
X170740000Y-73740000D01*
X170740000Y-79260000D02*
X170740000Y-78990000D01*
X176260000Y-73740000D02*
X176260000Y-74010000D01*
X176260000Y-78990000D02*
X176260000Y-79260000D01*
X176260000Y-79260000D02*
X170740000Y-79260000D01*
X169910000Y-74000000D02*
X169570000Y-73530000D01*
X170250000Y-73530000D01*
X169910000Y-74000000D01*
G36*
X169910000Y-74000000D02*
G01*
X169570000Y-73530000D01*
X170250000Y-73530000D01*
X169910000Y-74000000D01*
G37*
%TO.C,C4*%
X195927500Y-90292164D02*
X195927500Y-90507836D01*
X196647500Y-90292164D02*
X196647500Y-90507836D01*
%TO.C,C6*%
X189427500Y-95507836D02*
X189427500Y-95292164D01*
X190147500Y-95507836D02*
X190147500Y-95292164D01*
%TO.C,R1*%
X190407500Y-95553641D02*
X190407500Y-95246359D01*
X191167500Y-95553641D02*
X191167500Y-95246359D01*
%TO.C,C22*%
X177392164Y-94502500D02*
X177607836Y-94502500D01*
X177392164Y-95222500D02*
X177607836Y-95222500D01*
%TO.C,C25*%
X177140000Y-72892164D02*
X177140000Y-73107836D01*
X177860000Y-72892164D02*
X177860000Y-73107836D01*
%TO.C,R4*%
X180120000Y-76653641D02*
X180120000Y-76346359D01*
X180880000Y-76653641D02*
X180880000Y-76346359D01*
%TO.C,C24*%
X189640000Y-76607836D02*
X189640000Y-76392164D01*
X190360000Y-76607836D02*
X190360000Y-76392164D01*
%TO.C,C1*%
X191107836Y-82640000D02*
X190892164Y-82640000D01*
X191107836Y-83360000D02*
X190892164Y-83360000D01*
%TO.C,C18*%
X180140000Y-89892164D02*
X180140000Y-90107836D01*
X180860000Y-89892164D02*
X180860000Y-90107836D01*
%TO.C,C26*%
X199392164Y-88140000D02*
X199607836Y-88140000D01*
X199392164Y-88860000D02*
X199607836Y-88860000D01*
%TO.C,R5*%
X184620000Y-74346359D02*
X184620000Y-74653641D01*
X185380000Y-74346359D02*
X185380000Y-74653641D01*
%TO.C,FL1*%
X191690000Y-91490000D02*
X191690000Y-91165000D01*
X191690000Y-92635000D02*
X191690000Y-92310000D01*
X194010000Y-91489487D02*
X194010000Y-91490000D01*
X194010000Y-92310000D02*
X194010000Y-92635000D01*
X194020000Y-91200000D02*
X194350000Y-90960000D01*
X194350000Y-91440000D01*
X194020000Y-91200000D01*
G36*
X194350000Y-91440000D02*
G01*
X194020000Y-91200000D01*
X194350000Y-90960000D01*
X194350000Y-91440000D01*
G37*
%TD*%
M02*
