%TF.GenerationSoftware,KiCad,Pcbnew,10.0.5*%
%TF.CreationDate,2026-09-16T00:15:51+05:30*%
%TF.ProjectId,lora-v2,6c6f7261-2d76-4322-9e6b-696361645f70,rev?*%
%TF.SameCoordinates,Original*%
%TF.FileFunction,Copper,L3,Inr*%
%TF.FilePolarity,Positive*%
%FSLAX46Y46*%
G04 Gerber Fmt 4.6, Leading zero omitted, Abs format (unit mm)*
G04 Created by KiCad (PCBNEW 10.0.5) date 2026-09-16 00:15:51*
%MOMM*%
%LPD*%
G01*
G04 APERTURE LIST*
%TA.AperFunction,ComponentPad*%
%ADD10O,1.000000X2.100000*%
%TD*%
%TA.AperFunction,ComponentPad*%
%ADD11O,1.000000X1.800000*%
%TD*%
%TA.AperFunction,ComponentPad*%
%ADD12R,1.700000X1.700000*%
%TD*%
%TA.AperFunction,ViaPad*%
%ADD13C,0.600000*%
%TD*%
G04 APERTURE END LIST*
D10*
%TO.N,Net-(J1-SHIELD)*%
%TO.C,J1*%
X188145000Y-71605000D03*
D11*
X188145000Y-67425000D03*
D10*
X179505000Y-71605000D03*
D11*
X179505000Y-67425000D03*
%TD*%
D12*
%TO.N,Net-(AE1-A)*%
%TO.C,AE1*%
X192287500Y-104400000D03*
%TD*%
D13*
%TO.N,Earth*%
X191000000Y-92000000D03*
X178890000Y-89157364D03*
X188500000Y-74000000D03*
X180000000Y-78500000D03*
X185500000Y-75500000D03*
X189000000Y-95000000D03*
X172000000Y-82000000D03*
X184000000Y-99000000D03*
X172000000Y-80762500D03*
X174000000Y-84000000D03*
X194500000Y-93000000D03*
X200000000Y-83500000D03*
X180005515Y-91505515D03*
X195000000Y-92000000D03*
X179000000Y-86500000D03*
%TO.N,+3V3*%
X194000000Y-96000000D03*
X184500000Y-81000000D03*
X182100000Y-80500000D03*
X186010000Y-86500000D03*
X176000000Y-74500000D03*
X196500000Y-88500000D03*
X174000000Y-82000000D03*
X180500000Y-80000000D03*
X185500000Y-90000000D03*
X191500000Y-82000000D03*
X175000000Y-85000000D03*
%TO.N,/SX_BUSY*%
X187500000Y-85000000D03*
X186325735Y-85674265D03*
%TO.N,/QSPI_SD3*%
X180001376Y-82297838D03*
X175500000Y-76000000D03*
%TO.N,/QSPI_SCLK*%
X179040057Y-82281656D03*
X175825735Y-77174265D03*
%TO.N,/QSPI_SD1*%
X171000000Y-76000000D03*
X176500000Y-80000000D03*
%TO.N,/SX_DIO2*%
X189000000Y-88600000D03*
X189500000Y-84500000D03*
%TD*%
%TA.AperFunction,Conductor*%
%TO.N,+3V3*%
G36*
X206003032Y-65500648D02*
G01*
X206336929Y-65517052D01*
X206349037Y-65518245D01*
X206452146Y-65533539D01*
X206676699Y-65566849D01*
X206688617Y-65569219D01*
X207009951Y-65649709D01*
X207021588Y-65653240D01*
X207092806Y-65678722D01*
X207333467Y-65764832D01*
X207344688Y-65769479D01*
X207644163Y-65911120D01*
X207654871Y-65916844D01*
X207898634Y-66062950D01*
X207938988Y-66087137D01*
X207949103Y-66093895D01*
X208169913Y-66257659D01*
X208215170Y-66291224D01*
X208224576Y-66298944D01*
X208470013Y-66521395D01*
X208478604Y-66529986D01*
X208662750Y-66733160D01*
X208701055Y-66775423D01*
X208708775Y-66784829D01*
X208906102Y-67050893D01*
X208912862Y-67061011D01*
X209041776Y-67276092D01*
X209083148Y-67345116D01*
X209088885Y-67355848D01*
X209230514Y-67655297D01*
X209235170Y-67666540D01*
X209346759Y-67978411D01*
X209350292Y-67990055D01*
X209430777Y-68311369D01*
X209433151Y-68323305D01*
X209481754Y-68650962D01*
X209482947Y-68663071D01*
X209499351Y-68996966D01*
X209499500Y-69003051D01*
X209499500Y-104496948D01*
X209499351Y-104503033D01*
X209482947Y-104836928D01*
X209481754Y-104849037D01*
X209433151Y-105176694D01*
X209430777Y-105188630D01*
X209350292Y-105509944D01*
X209346759Y-105521588D01*
X209235170Y-105833459D01*
X209230514Y-105844702D01*
X209088885Y-106144151D01*
X209083148Y-106154883D01*
X208912862Y-106438988D01*
X208906102Y-106449106D01*
X208708775Y-106715170D01*
X208701055Y-106724576D01*
X208478611Y-106970006D01*
X208470006Y-106978611D01*
X208224576Y-107201055D01*
X208215170Y-107208775D01*
X207949106Y-107406102D01*
X207938988Y-107412862D01*
X207654883Y-107583148D01*
X207644151Y-107588885D01*
X207344702Y-107730514D01*
X207333459Y-107735170D01*
X207021588Y-107846759D01*
X207009944Y-107850292D01*
X206688630Y-107930777D01*
X206676694Y-107933151D01*
X206349037Y-107981754D01*
X206336928Y-107982947D01*
X206021989Y-107998419D01*
X206003031Y-107999351D01*
X205996949Y-107999500D01*
X166503051Y-107999500D01*
X166496968Y-107999351D01*
X166476900Y-107998365D01*
X166163071Y-107982947D01*
X166150962Y-107981754D01*
X165823305Y-107933151D01*
X165811369Y-107930777D01*
X165490055Y-107850292D01*
X165478411Y-107846759D01*
X165166540Y-107735170D01*
X165155301Y-107730515D01*
X164855844Y-107588883D01*
X164845121Y-107583150D01*
X164561011Y-107412862D01*
X164550893Y-107406102D01*
X164284829Y-107208775D01*
X164275423Y-107201055D01*
X164236475Y-107165755D01*
X164029986Y-106978604D01*
X164021395Y-106970013D01*
X163798944Y-106724576D01*
X163791224Y-106715170D01*
X163593897Y-106449106D01*
X163587137Y-106438988D01*
X163416844Y-106154871D01*
X163411120Y-106144163D01*
X163269479Y-105844688D01*
X163264829Y-105833459D01*
X163235145Y-105750499D01*
X163153240Y-105521588D01*
X163149707Y-105509944D01*
X163069219Y-105188617D01*
X163066848Y-105176694D01*
X163018245Y-104849037D01*
X163017052Y-104836927D01*
X163000649Y-104503032D01*
X163000500Y-104496948D01*
X163000500Y-103502135D01*
X190937000Y-103502135D01*
X190937000Y-105297870D01*
X190937001Y-105297876D01*
X190943408Y-105357483D01*
X190993702Y-105492328D01*
X190993706Y-105492335D01*
X191079952Y-105607544D01*
X191079955Y-105607547D01*
X191195164Y-105693793D01*
X191195171Y-105693797D01*
X191330017Y-105744091D01*
X191330016Y-105744091D01*
X191336944Y-105744835D01*
X191389627Y-105750500D01*
X193185372Y-105750499D01*
X193244983Y-105744091D01*
X193379831Y-105693796D01*
X193495046Y-105607546D01*
X193581296Y-105492331D01*
X193631591Y-105357483D01*
X193638000Y-105297873D01*
X193637999Y-103502128D01*
X193631591Y-103442517D01*
X193581296Y-103307669D01*
X193581295Y-103307668D01*
X193581293Y-103307664D01*
X193495047Y-103192455D01*
X193495044Y-103192452D01*
X193379835Y-103106206D01*
X193379828Y-103106202D01*
X193244982Y-103055908D01*
X193244983Y-103055908D01*
X193185383Y-103049501D01*
X193185381Y-103049500D01*
X193185373Y-103049500D01*
X193185364Y-103049500D01*
X191389629Y-103049500D01*
X191389623Y-103049501D01*
X191330016Y-103055908D01*
X191195171Y-103106202D01*
X191195164Y-103106206D01*
X191079955Y-103192452D01*
X191079952Y-103192455D01*
X190993706Y-103307664D01*
X190993702Y-103307671D01*
X190943408Y-103442517D01*
X190937001Y-103502116D01*
X190937001Y-103502123D01*
X190937000Y-103502135D01*
X163000500Y-103502135D01*
X163000500Y-98921153D01*
X183199500Y-98921153D01*
X183199500Y-99078846D01*
X183230261Y-99233489D01*
X183230264Y-99233501D01*
X183290602Y-99379172D01*
X183290609Y-99379185D01*
X183378210Y-99510288D01*
X183378213Y-99510292D01*
X183489707Y-99621786D01*
X183489711Y-99621789D01*
X183620814Y-99709390D01*
X183620827Y-99709397D01*
X183766498Y-99769735D01*
X183766503Y-99769737D01*
X183921153Y-99800499D01*
X183921156Y-99800500D01*
X183921158Y-99800500D01*
X184078844Y-99800500D01*
X184078845Y-99800499D01*
X184233497Y-99769737D01*
X184379179Y-99709394D01*
X184510289Y-99621789D01*
X184621789Y-99510289D01*
X184709394Y-99379179D01*
X184769737Y-99233497D01*
X184800500Y-99078842D01*
X184800500Y-98921158D01*
X184800500Y-98921155D01*
X184800499Y-98921153D01*
X184769738Y-98766510D01*
X184769737Y-98766503D01*
X184769735Y-98766498D01*
X184709397Y-98620827D01*
X184709390Y-98620814D01*
X184621789Y-98489711D01*
X184621786Y-98489707D01*
X184510292Y-98378213D01*
X184510288Y-98378210D01*
X184379185Y-98290609D01*
X184379172Y-98290602D01*
X184233501Y-98230264D01*
X184233489Y-98230261D01*
X184078845Y-98199500D01*
X184078842Y-98199500D01*
X183921158Y-98199500D01*
X183921155Y-98199500D01*
X183766510Y-98230261D01*
X183766498Y-98230264D01*
X183620827Y-98290602D01*
X183620814Y-98290609D01*
X183489711Y-98378210D01*
X183489707Y-98378213D01*
X183378213Y-98489707D01*
X183378210Y-98489711D01*
X183290609Y-98620814D01*
X183290602Y-98620827D01*
X183230264Y-98766498D01*
X183230261Y-98766510D01*
X183199500Y-98921153D01*
X163000500Y-98921153D01*
X163000500Y-94921153D01*
X188199500Y-94921153D01*
X188199500Y-95078846D01*
X188230261Y-95233489D01*
X188230264Y-95233501D01*
X188290602Y-95379172D01*
X188290609Y-95379185D01*
X188378210Y-95510288D01*
X188378213Y-95510292D01*
X188489707Y-95621786D01*
X188489711Y-95621789D01*
X188620814Y-95709390D01*
X188620827Y-95709397D01*
X188766498Y-95769735D01*
X188766503Y-95769737D01*
X188921153Y-95800499D01*
X188921156Y-95800500D01*
X188921158Y-95800500D01*
X189078844Y-95800500D01*
X189078845Y-95800499D01*
X189233497Y-95769737D01*
X189379179Y-95709394D01*
X189510289Y-95621789D01*
X189621789Y-95510289D01*
X189709394Y-95379179D01*
X189769737Y-95233497D01*
X189800500Y-95078842D01*
X189800500Y-94921158D01*
X189800500Y-94921155D01*
X189800499Y-94921153D01*
X189769738Y-94766510D01*
X189769737Y-94766503D01*
X189769735Y-94766498D01*
X189709397Y-94620827D01*
X189709390Y-94620814D01*
X189621789Y-94489711D01*
X189621786Y-94489707D01*
X189510292Y-94378213D01*
X189510288Y-94378210D01*
X189379185Y-94290609D01*
X189379172Y-94290602D01*
X189233501Y-94230264D01*
X189233489Y-94230261D01*
X189078845Y-94199500D01*
X189078842Y-94199500D01*
X188921158Y-94199500D01*
X188921155Y-94199500D01*
X188766510Y-94230261D01*
X188766498Y-94230264D01*
X188620827Y-94290602D01*
X188620814Y-94290609D01*
X188489711Y-94378210D01*
X188489707Y-94378213D01*
X188378213Y-94489707D01*
X188378210Y-94489711D01*
X188290609Y-94620814D01*
X188290602Y-94620827D01*
X188230264Y-94766498D01*
X188230261Y-94766510D01*
X188199500Y-94921153D01*
X163000500Y-94921153D01*
X163000500Y-92921153D01*
X193699500Y-92921153D01*
X193699500Y-93078846D01*
X193730261Y-93233489D01*
X193730264Y-93233501D01*
X193790602Y-93379172D01*
X193790609Y-93379185D01*
X193878210Y-93510288D01*
X193878213Y-93510292D01*
X193989707Y-93621786D01*
X193989711Y-93621789D01*
X194120814Y-93709390D01*
X194120827Y-93709397D01*
X194266498Y-93769735D01*
X194266503Y-93769737D01*
X194421153Y-93800499D01*
X194421156Y-93800500D01*
X194421158Y-93800500D01*
X194578844Y-93800500D01*
X194578845Y-93800499D01*
X194733497Y-93769737D01*
X194879179Y-93709394D01*
X195010289Y-93621789D01*
X195121789Y-93510289D01*
X195209394Y-93379179D01*
X195269737Y-93233497D01*
X195300500Y-93078842D01*
X195300500Y-92921158D01*
X195300500Y-92921155D01*
X195287426Y-92855431D01*
X195293653Y-92785840D01*
X195336515Y-92730662D01*
X195361589Y-92716679D01*
X195379179Y-92709394D01*
X195510289Y-92621789D01*
X195621789Y-92510289D01*
X195709394Y-92379179D01*
X195769737Y-92233497D01*
X195800500Y-92078842D01*
X195800500Y-91921158D01*
X195800500Y-91921155D01*
X195800499Y-91921153D01*
X195793245Y-91884687D01*
X195769737Y-91766503D01*
X195758347Y-91739004D01*
X195709397Y-91620827D01*
X195709390Y-91620814D01*
X195621789Y-91489711D01*
X195621786Y-91489707D01*
X195510292Y-91378213D01*
X195510288Y-91378210D01*
X195379185Y-91290609D01*
X195379172Y-91290602D01*
X195233501Y-91230264D01*
X195233489Y-91230261D01*
X195078845Y-91199500D01*
X195078842Y-91199500D01*
X194921158Y-91199500D01*
X194921155Y-91199500D01*
X194766510Y-91230261D01*
X194766498Y-91230264D01*
X194620827Y-91290602D01*
X194620814Y-91290609D01*
X194489711Y-91378210D01*
X194489707Y-91378213D01*
X194378213Y-91489707D01*
X194378210Y-91489711D01*
X194290609Y-91620814D01*
X194290602Y-91620827D01*
X194230264Y-91766498D01*
X194230261Y-91766510D01*
X194199500Y-91921153D01*
X194199500Y-92078846D01*
X194212573Y-92144568D01*
X194206346Y-92214159D01*
X194163483Y-92269337D01*
X194138411Y-92283319D01*
X194120826Y-92290603D01*
X194120814Y-92290609D01*
X193989711Y-92378210D01*
X193989707Y-92378213D01*
X193878213Y-92489707D01*
X193878210Y-92489711D01*
X193790609Y-92620814D01*
X193790602Y-92620827D01*
X193730264Y-92766498D01*
X193730261Y-92766510D01*
X193699500Y-92921153D01*
X163000500Y-92921153D01*
X163000500Y-91426668D01*
X179205015Y-91426668D01*
X179205015Y-91584361D01*
X179235776Y-91739004D01*
X179235779Y-91739016D01*
X179296117Y-91884687D01*
X179296124Y-91884700D01*
X179383725Y-92015803D01*
X179383728Y-92015807D01*
X179495222Y-92127301D01*
X179495226Y-92127304D01*
X179626329Y-92214905D01*
X179626342Y-92214912D01*
X179757738Y-92269337D01*
X179772018Y-92275252D01*
X179926668Y-92306014D01*
X179926671Y-92306015D01*
X179926673Y-92306015D01*
X180084359Y-92306015D01*
X180084360Y-92306014D01*
X180239012Y-92275252D01*
X180384694Y-92214909D01*
X180515804Y-92127304D01*
X180627304Y-92015804D01*
X180690548Y-91921153D01*
X190199500Y-91921153D01*
X190199500Y-92078846D01*
X190230261Y-92233489D01*
X190230264Y-92233501D01*
X190290602Y-92379172D01*
X190290609Y-92379185D01*
X190378210Y-92510288D01*
X190378213Y-92510292D01*
X190489707Y-92621786D01*
X190489711Y-92621789D01*
X190620814Y-92709390D01*
X190620827Y-92709397D01*
X190734425Y-92756450D01*
X190766503Y-92769737D01*
X190921153Y-92800499D01*
X190921156Y-92800500D01*
X190921158Y-92800500D01*
X191078844Y-92800500D01*
X191078845Y-92800499D01*
X191089179Y-92798443D01*
X191114287Y-92793450D01*
X191114292Y-92793449D01*
X191199800Y-92776439D01*
X191233497Y-92769737D01*
X191379179Y-92709394D01*
X191510289Y-92621789D01*
X191621789Y-92510289D01*
X191709394Y-92379179D01*
X191769737Y-92233497D01*
X191800500Y-92078842D01*
X191800500Y-91921158D01*
X191800500Y-91921155D01*
X191800499Y-91921153D01*
X191793245Y-91884687D01*
X191769737Y-91766503D01*
X191758347Y-91739004D01*
X191709397Y-91620827D01*
X191709390Y-91620814D01*
X191621789Y-91489711D01*
X191621786Y-91489707D01*
X191510292Y-91378213D01*
X191510288Y-91378210D01*
X191379185Y-91290609D01*
X191379172Y-91290602D01*
X191233501Y-91230264D01*
X191233489Y-91230261D01*
X191078845Y-91199500D01*
X191078842Y-91199500D01*
X190921158Y-91199500D01*
X190921155Y-91199500D01*
X190766510Y-91230261D01*
X190766498Y-91230264D01*
X190620827Y-91290602D01*
X190620814Y-91290609D01*
X190489711Y-91378210D01*
X190489707Y-91378213D01*
X190378213Y-91489707D01*
X190378210Y-91489711D01*
X190290609Y-91620814D01*
X190290602Y-91620827D01*
X190230264Y-91766498D01*
X190230261Y-91766510D01*
X190199500Y-91921153D01*
X180690548Y-91921153D01*
X180714909Y-91884694D01*
X180775252Y-91739012D01*
X180806015Y-91584357D01*
X180806015Y-91426673D01*
X180806015Y-91426670D01*
X180806014Y-91426668D01*
X180778949Y-91290606D01*
X180775252Y-91272018D01*
X180757956Y-91230261D01*
X180714912Y-91126342D01*
X180714905Y-91126329D01*
X180627304Y-90995226D01*
X180627301Y-90995222D01*
X180515807Y-90883728D01*
X180515803Y-90883725D01*
X180384700Y-90796124D01*
X180384687Y-90796117D01*
X180239016Y-90735779D01*
X180239004Y-90735776D01*
X180084360Y-90705015D01*
X180084357Y-90705015D01*
X179926673Y-90705015D01*
X179926670Y-90705015D01*
X179772025Y-90735776D01*
X179772013Y-90735779D01*
X179626342Y-90796117D01*
X179626329Y-90796124D01*
X179495226Y-90883725D01*
X179495222Y-90883728D01*
X179383728Y-90995222D01*
X179383725Y-90995226D01*
X179296124Y-91126329D01*
X179296117Y-91126342D01*
X179235779Y-91272013D01*
X179235776Y-91272025D01*
X179205015Y-91426668D01*
X163000500Y-91426668D01*
X163000500Y-89078517D01*
X178089500Y-89078517D01*
X178089500Y-89236210D01*
X178120261Y-89390853D01*
X178120264Y-89390865D01*
X178180602Y-89536536D01*
X178180609Y-89536549D01*
X178268210Y-89667652D01*
X178268213Y-89667656D01*
X178379707Y-89779150D01*
X178379711Y-89779153D01*
X178510814Y-89866754D01*
X178510827Y-89866761D01*
X178656498Y-89927099D01*
X178656503Y-89927101D01*
X178811153Y-89957863D01*
X178811156Y-89957864D01*
X178811158Y-89957864D01*
X178968844Y-89957864D01*
X178968845Y-89957863D01*
X179123497Y-89927101D01*
X179269179Y-89866758D01*
X179400289Y-89779153D01*
X179511789Y-89667653D01*
X179599394Y-89536543D01*
X179659737Y-89390861D01*
X179690500Y-89236206D01*
X179690500Y-89078522D01*
X179690500Y-89078519D01*
X179690499Y-89078517D01*
X179659737Y-88923867D01*
X179659735Y-88923862D01*
X179599397Y-88778191D01*
X179599390Y-88778178D01*
X179511789Y-88647075D01*
X179511786Y-88647071D01*
X179400292Y-88535577D01*
X179400288Y-88535574D01*
X179378706Y-88521153D01*
X188199500Y-88521153D01*
X188199500Y-88678846D01*
X188230261Y-88833489D01*
X188230264Y-88833501D01*
X188290602Y-88979172D01*
X188290609Y-88979185D01*
X188378210Y-89110288D01*
X188378213Y-89110292D01*
X188489707Y-89221786D01*
X188489711Y-89221789D01*
X188620814Y-89309390D01*
X188620827Y-89309397D01*
X188766498Y-89369735D01*
X188766503Y-89369737D01*
X188921153Y-89400499D01*
X188921156Y-89400500D01*
X188921158Y-89400500D01*
X189078844Y-89400500D01*
X189078845Y-89400499D01*
X189233497Y-89369737D01*
X189379179Y-89309394D01*
X189510289Y-89221789D01*
X189621789Y-89110289D01*
X189709394Y-88979179D01*
X189769737Y-88833497D01*
X189800500Y-88678842D01*
X189800500Y-88521158D01*
X189800500Y-88521155D01*
X189800499Y-88521153D01*
X189769737Y-88366503D01*
X189769735Y-88366498D01*
X189709397Y-88220827D01*
X189709390Y-88220814D01*
X189621789Y-88089711D01*
X189621786Y-88089707D01*
X189510292Y-87978213D01*
X189510288Y-87978210D01*
X189379185Y-87890609D01*
X189379172Y-87890602D01*
X189233501Y-87830264D01*
X189233489Y-87830261D01*
X189078845Y-87799500D01*
X189078842Y-87799500D01*
X188921158Y-87799500D01*
X188921155Y-87799500D01*
X188766510Y-87830261D01*
X188766498Y-87830264D01*
X188620827Y-87890602D01*
X188620814Y-87890609D01*
X188489711Y-87978210D01*
X188489707Y-87978213D01*
X188378213Y-88089707D01*
X188378210Y-88089711D01*
X188290609Y-88220814D01*
X188290602Y-88220827D01*
X188230264Y-88366498D01*
X188230261Y-88366510D01*
X188199500Y-88521153D01*
X179378706Y-88521153D01*
X179269185Y-88447973D01*
X179269172Y-88447966D01*
X179123501Y-88387628D01*
X179123489Y-88387625D01*
X178968845Y-88356864D01*
X178968842Y-88356864D01*
X178811158Y-88356864D01*
X178811155Y-88356864D01*
X178656510Y-88387625D01*
X178656498Y-88387628D01*
X178510827Y-88447966D01*
X178510814Y-88447973D01*
X178379711Y-88535574D01*
X178379707Y-88535577D01*
X178268213Y-88647071D01*
X178268210Y-88647075D01*
X178180609Y-88778178D01*
X178180602Y-88778191D01*
X178120264Y-88923862D01*
X178120261Y-88923874D01*
X178089500Y-89078517D01*
X163000500Y-89078517D01*
X163000500Y-86421153D01*
X178199500Y-86421153D01*
X178199500Y-86578846D01*
X178230261Y-86733489D01*
X178230264Y-86733501D01*
X178290602Y-86879172D01*
X178290609Y-86879185D01*
X178378210Y-87010288D01*
X178378213Y-87010292D01*
X178489707Y-87121786D01*
X178489711Y-87121789D01*
X178620814Y-87209390D01*
X178620827Y-87209397D01*
X178766498Y-87269735D01*
X178766503Y-87269737D01*
X178921153Y-87300499D01*
X178921156Y-87300500D01*
X178921158Y-87300500D01*
X179078844Y-87300500D01*
X179078845Y-87300499D01*
X179233497Y-87269737D01*
X179379179Y-87209394D01*
X179510289Y-87121789D01*
X179621789Y-87010289D01*
X179709394Y-86879179D01*
X179769737Y-86733497D01*
X179800500Y-86578842D01*
X179800500Y-86421158D01*
X179800500Y-86421155D01*
X179800499Y-86421153D01*
X179769737Y-86266503D01*
X179735793Y-86184554D01*
X179709397Y-86120827D01*
X179709390Y-86120814D01*
X179621789Y-85989711D01*
X179621786Y-85989707D01*
X179510292Y-85878213D01*
X179510288Y-85878210D01*
X179379185Y-85790609D01*
X179379172Y-85790602D01*
X179233501Y-85730264D01*
X179233491Y-85730261D01*
X179136397Y-85710948D01*
X179136396Y-85710947D01*
X179078845Y-85699500D01*
X179078842Y-85699500D01*
X178921158Y-85699500D01*
X178921155Y-85699500D01*
X178766510Y-85730261D01*
X178766498Y-85730264D01*
X178620827Y-85790602D01*
X178620814Y-85790609D01*
X178489711Y-85878210D01*
X178489707Y-85878213D01*
X178378213Y-85989707D01*
X178378210Y-85989711D01*
X178290609Y-86120814D01*
X178290602Y-86120827D01*
X178230264Y-86266498D01*
X178230261Y-86266510D01*
X178199500Y-86421153D01*
X163000500Y-86421153D01*
X163000500Y-85595418D01*
X185525235Y-85595418D01*
X185525235Y-85753111D01*
X185555996Y-85907754D01*
X185555999Y-85907766D01*
X185616337Y-86053437D01*
X185616344Y-86053450D01*
X185703945Y-86184553D01*
X185703948Y-86184557D01*
X185815442Y-86296051D01*
X185815446Y-86296054D01*
X185946549Y-86383655D01*
X185946562Y-86383662D01*
X186037087Y-86421158D01*
X186092238Y-86444002D01*
X186246888Y-86474764D01*
X186246891Y-86474765D01*
X186246893Y-86474765D01*
X186404579Y-86474765D01*
X186404580Y-86474764D01*
X186559232Y-86444002D01*
X186704914Y-86383659D01*
X186836024Y-86296054D01*
X186947524Y-86184554D01*
X187035129Y-86053444D01*
X187095472Y-85907762D01*
X187104406Y-85862844D01*
X187136789Y-85800936D01*
X187197504Y-85766361D01*
X187262021Y-85768377D01*
X187266510Y-85769739D01*
X187421153Y-85800499D01*
X187421156Y-85800500D01*
X187421158Y-85800500D01*
X187578844Y-85800500D01*
X187578845Y-85800499D01*
X187733497Y-85769737D01*
X187879179Y-85709394D01*
X188010289Y-85621789D01*
X188121789Y-85510289D01*
X188209394Y-85379179D01*
X188269737Y-85233497D01*
X188300500Y-85078842D01*
X188300500Y-84921158D01*
X188300500Y-84921155D01*
X188300499Y-84921153D01*
X188269738Y-84766510D01*
X188269738Y-84766508D01*
X188269737Y-84766503D01*
X188209794Y-84621786D01*
X188209397Y-84620827D01*
X188209390Y-84620814D01*
X188121790Y-84489712D01*
X188121784Y-84489705D01*
X188053232Y-84421153D01*
X188699500Y-84421153D01*
X188699500Y-84578846D01*
X188730261Y-84733489D01*
X188730264Y-84733501D01*
X188790602Y-84879172D01*
X188790609Y-84879185D01*
X188878210Y-85010288D01*
X188878213Y-85010292D01*
X188989707Y-85121786D01*
X188989711Y-85121789D01*
X189120814Y-85209390D01*
X189120827Y-85209397D01*
X189266498Y-85269735D01*
X189266503Y-85269737D01*
X189421153Y-85300499D01*
X189421156Y-85300500D01*
X189421158Y-85300500D01*
X189578844Y-85300500D01*
X189578845Y-85300499D01*
X189733497Y-85269737D01*
X189879179Y-85209394D01*
X190010289Y-85121789D01*
X190121789Y-85010289D01*
X190209394Y-84879179D01*
X190269737Y-84733497D01*
X190300500Y-84578842D01*
X190300500Y-84421158D01*
X190300500Y-84421155D01*
X190300499Y-84421153D01*
X190274531Y-84290606D01*
X190269737Y-84266503D01*
X190256062Y-84233489D01*
X190209397Y-84120827D01*
X190209390Y-84120814D01*
X190121789Y-83989711D01*
X190121786Y-83989707D01*
X190010292Y-83878213D01*
X190010288Y-83878210D01*
X189879185Y-83790609D01*
X189879172Y-83790602D01*
X189733501Y-83730264D01*
X189733489Y-83730261D01*
X189578845Y-83699500D01*
X189578842Y-83699500D01*
X189421158Y-83699500D01*
X189421155Y-83699500D01*
X189266510Y-83730261D01*
X189266498Y-83730264D01*
X189120827Y-83790602D01*
X189120814Y-83790609D01*
X188989711Y-83878210D01*
X188989707Y-83878213D01*
X188878213Y-83989707D01*
X188878210Y-83989711D01*
X188790609Y-84120814D01*
X188790602Y-84120827D01*
X188730264Y-84266498D01*
X188730261Y-84266510D01*
X188699500Y-84421153D01*
X188053232Y-84421153D01*
X188010292Y-84378213D01*
X188010288Y-84378210D01*
X187879185Y-84290609D01*
X187879172Y-84290602D01*
X187733501Y-84230264D01*
X187733489Y-84230261D01*
X187578845Y-84199500D01*
X187578842Y-84199500D01*
X187421158Y-84199500D01*
X187421155Y-84199500D01*
X187266510Y-84230261D01*
X187266498Y-84230264D01*
X187120827Y-84290602D01*
X187120814Y-84290609D01*
X186989711Y-84378210D01*
X186989707Y-84378213D01*
X186878213Y-84489707D01*
X186878210Y-84489711D01*
X186790609Y-84620814D01*
X186790602Y-84620827D01*
X186730264Y-84766498D01*
X186730261Y-84766508D01*
X186721328Y-84811419D01*
X186688943Y-84873330D01*
X186628227Y-84907904D01*
X186563720Y-84905889D01*
X186559229Y-84904526D01*
X186404580Y-84873765D01*
X186404577Y-84873765D01*
X186246893Y-84873765D01*
X186246890Y-84873765D01*
X186092245Y-84904526D01*
X186092233Y-84904529D01*
X185946562Y-84964867D01*
X185946549Y-84964874D01*
X185815446Y-85052475D01*
X185815442Y-85052478D01*
X185703948Y-85163972D01*
X185703945Y-85163976D01*
X185616344Y-85295079D01*
X185616337Y-85295092D01*
X185555999Y-85440763D01*
X185555996Y-85440775D01*
X185525235Y-85595418D01*
X163000500Y-85595418D01*
X163000500Y-83921153D01*
X173199500Y-83921153D01*
X173199500Y-84078846D01*
X173230261Y-84233489D01*
X173230264Y-84233501D01*
X173290602Y-84379172D01*
X173290609Y-84379185D01*
X173378210Y-84510288D01*
X173378213Y-84510292D01*
X173489707Y-84621786D01*
X173489711Y-84621789D01*
X173620814Y-84709390D01*
X173620827Y-84709397D01*
X173758683Y-84766498D01*
X173766503Y-84769737D01*
X173921153Y-84800499D01*
X173921156Y-84800500D01*
X173921158Y-84800500D01*
X174078844Y-84800500D01*
X174078845Y-84800499D01*
X174233497Y-84769737D01*
X174379179Y-84709394D01*
X174510289Y-84621789D01*
X174621789Y-84510289D01*
X174709394Y-84379179D01*
X174769737Y-84233497D01*
X174800500Y-84078842D01*
X174800500Y-83921158D01*
X174800500Y-83921155D01*
X174800499Y-83921153D01*
X174774531Y-83790606D01*
X174769737Y-83766503D01*
X174756062Y-83733489D01*
X174709397Y-83620827D01*
X174709390Y-83620814D01*
X174621790Y-83489712D01*
X174621784Y-83489705D01*
X174553232Y-83421153D01*
X199199500Y-83421153D01*
X199199500Y-83578846D01*
X199230261Y-83733489D01*
X199230264Y-83733501D01*
X199290602Y-83879172D01*
X199290609Y-83879185D01*
X199378210Y-84010288D01*
X199378213Y-84010292D01*
X199489707Y-84121786D01*
X199489711Y-84121789D01*
X199620814Y-84209390D01*
X199620827Y-84209397D01*
X199758683Y-84266498D01*
X199766503Y-84269737D01*
X199921153Y-84300499D01*
X199921156Y-84300500D01*
X199921158Y-84300500D01*
X200078844Y-84300500D01*
X200078845Y-84300499D01*
X200233497Y-84269737D01*
X200379179Y-84209394D01*
X200510289Y-84121789D01*
X200621789Y-84010289D01*
X200709394Y-83879179D01*
X200769737Y-83733497D01*
X200800500Y-83578842D01*
X200800500Y-83421158D01*
X200800500Y-83421155D01*
X200800499Y-83421153D01*
X200774531Y-83290606D01*
X200769737Y-83266503D01*
X200769735Y-83266498D01*
X200709397Y-83120827D01*
X200709390Y-83120814D01*
X200621789Y-82989711D01*
X200621786Y-82989707D01*
X200510292Y-82878213D01*
X200510288Y-82878210D01*
X200379185Y-82790609D01*
X200379172Y-82790602D01*
X200233501Y-82730264D01*
X200233489Y-82730261D01*
X200078845Y-82699500D01*
X200078842Y-82699500D01*
X199921158Y-82699500D01*
X199921155Y-82699500D01*
X199766510Y-82730261D01*
X199766498Y-82730264D01*
X199620827Y-82790602D01*
X199620814Y-82790609D01*
X199489711Y-82878210D01*
X199489707Y-82878213D01*
X199378213Y-82989707D01*
X199378210Y-82989711D01*
X199290609Y-83120814D01*
X199290602Y-83120827D01*
X199230264Y-83266498D01*
X199230261Y-83266510D01*
X199199500Y-83421153D01*
X174553232Y-83421153D01*
X174510292Y-83378213D01*
X174510288Y-83378210D01*
X174379185Y-83290609D01*
X174379172Y-83290602D01*
X174233501Y-83230264D01*
X174233489Y-83230261D01*
X174078845Y-83199500D01*
X174078842Y-83199500D01*
X173921158Y-83199500D01*
X173921155Y-83199500D01*
X173766510Y-83230261D01*
X173766498Y-83230264D01*
X173620827Y-83290602D01*
X173620814Y-83290609D01*
X173489711Y-83378210D01*
X173489707Y-83378213D01*
X173378213Y-83489707D01*
X173378210Y-83489711D01*
X173290609Y-83620814D01*
X173290602Y-83620827D01*
X173230264Y-83766498D01*
X173230261Y-83766510D01*
X173199500Y-83921153D01*
X163000500Y-83921153D01*
X163000500Y-80683653D01*
X171199500Y-80683653D01*
X171199500Y-80841346D01*
X171230261Y-80995989D01*
X171230264Y-80996001D01*
X171290602Y-81141672D01*
X171290609Y-81141685D01*
X171378210Y-81272788D01*
X171378213Y-81272792D01*
X171398990Y-81293569D01*
X171432475Y-81354892D01*
X171427491Y-81424584D01*
X171398990Y-81468931D01*
X171378213Y-81489707D01*
X171378210Y-81489711D01*
X171290609Y-81620814D01*
X171290602Y-81620827D01*
X171230264Y-81766498D01*
X171230261Y-81766510D01*
X171199500Y-81921153D01*
X171199500Y-82078846D01*
X171230261Y-82233489D01*
X171230264Y-82233501D01*
X171290602Y-82379172D01*
X171290609Y-82379185D01*
X171378210Y-82510288D01*
X171378213Y-82510292D01*
X171489707Y-82621786D01*
X171489711Y-82621789D01*
X171620814Y-82709390D01*
X171620827Y-82709397D01*
X171766498Y-82769735D01*
X171766503Y-82769737D01*
X171921153Y-82800499D01*
X171921156Y-82800500D01*
X171921158Y-82800500D01*
X172078844Y-82800500D01*
X172078845Y-82800499D01*
X172233497Y-82769737D01*
X172379179Y-82709394D01*
X172510289Y-82621789D01*
X172621789Y-82510289D01*
X172709394Y-82379179D01*
X172710428Y-82376684D01*
X172769735Y-82233501D01*
X172769737Y-82233497D01*
X172772622Y-82218991D01*
X172775841Y-82202809D01*
X178239557Y-82202809D01*
X178239557Y-82360502D01*
X178270318Y-82515145D01*
X178270321Y-82515157D01*
X178330659Y-82660828D01*
X178330666Y-82660841D01*
X178418267Y-82791944D01*
X178418270Y-82791948D01*
X178529764Y-82903442D01*
X178529768Y-82903445D01*
X178660871Y-82991046D01*
X178660884Y-82991053D01*
X178806555Y-83051391D01*
X178806560Y-83051393D01*
X178961210Y-83082155D01*
X178961213Y-83082156D01*
X178961215Y-83082156D01*
X179118901Y-83082156D01*
X179118902Y-83082155D01*
X179273554Y-83051393D01*
X179419236Y-82991050D01*
X179439717Y-82977364D01*
X179506389Y-82956486D01*
X179573770Y-82974968D01*
X179577439Y-82977325D01*
X179622197Y-83007232D01*
X179622200Y-83007233D01*
X179622203Y-83007235D01*
X179728814Y-83051394D01*
X179767879Y-83067575D01*
X179922529Y-83098337D01*
X179922532Y-83098338D01*
X179922534Y-83098338D01*
X180080220Y-83098338D01*
X180080221Y-83098337D01*
X180234873Y-83067575D01*
X180380555Y-83007232D01*
X180511665Y-82919627D01*
X180623165Y-82808127D01*
X180710770Y-82677017D01*
X180771113Y-82531335D01*
X180801876Y-82376680D01*
X180801876Y-82218996D01*
X180801876Y-82218993D01*
X180801875Y-82218991D01*
X180773998Y-82078846D01*
X180771113Y-82064341D01*
X180764408Y-82048154D01*
X180710773Y-81918665D01*
X180710766Y-81918652D01*
X180623165Y-81787549D01*
X180623162Y-81787545D01*
X180511668Y-81676051D01*
X180511664Y-81676048D01*
X180380561Y-81588447D01*
X180380548Y-81588440D01*
X180234877Y-81528102D01*
X180234865Y-81528099D01*
X180080221Y-81497338D01*
X180080218Y-81497338D01*
X179922534Y-81497338D01*
X179922531Y-81497338D01*
X179767886Y-81528099D01*
X179767874Y-81528102D01*
X179622204Y-81588440D01*
X179622190Y-81588448D01*
X179601713Y-81602130D01*
X179535035Y-81623006D01*
X179467655Y-81604520D01*
X179463934Y-81602128D01*
X179419241Y-81572265D01*
X179419229Y-81572258D01*
X179273558Y-81511920D01*
X179273546Y-81511917D01*
X179118902Y-81481156D01*
X179118899Y-81481156D01*
X178961215Y-81481156D01*
X178961212Y-81481156D01*
X178806567Y-81511917D01*
X178806555Y-81511920D01*
X178660884Y-81572258D01*
X178660871Y-81572265D01*
X178529768Y-81659866D01*
X178529764Y-81659869D01*
X178418270Y-81771363D01*
X178418267Y-81771367D01*
X178330666Y-81902470D01*
X178330659Y-81902483D01*
X178270321Y-82048154D01*
X178270318Y-82048166D01*
X178239557Y-82202809D01*
X172775841Y-82202809D01*
X172781865Y-82172530D01*
X172781865Y-82172529D01*
X172800499Y-82078846D01*
X172800500Y-82078844D01*
X172800500Y-81921155D01*
X172800499Y-81921153D01*
X172773923Y-81787549D01*
X172769737Y-81766503D01*
X172725568Y-81659869D01*
X172709397Y-81620827D01*
X172709390Y-81620814D01*
X172621789Y-81489711D01*
X172601011Y-81468933D01*
X172567524Y-81407611D01*
X172572507Y-81337919D01*
X172601011Y-81293567D01*
X172621789Y-81272789D01*
X172709394Y-81141679D01*
X172769737Y-80995997D01*
X172800500Y-80841342D01*
X172800500Y-80683658D01*
X172800500Y-80683655D01*
X172800499Y-80683653D01*
X172769738Y-80529010D01*
X172769737Y-80529003D01*
X172761987Y-80510292D01*
X172709397Y-80383327D01*
X172709390Y-80383314D01*
X172621789Y-80252211D01*
X172621786Y-80252207D01*
X172510292Y-80140713D01*
X172510288Y-80140710D01*
X172379185Y-80053109D01*
X172379172Y-80053102D01*
X172322496Y-80029627D01*
X172233501Y-79992764D01*
X172233489Y-79992761D01*
X172078845Y-79962000D01*
X172078842Y-79962000D01*
X171921158Y-79962000D01*
X171921155Y-79962000D01*
X171766510Y-79992761D01*
X171766498Y-79992764D01*
X171620827Y-80053102D01*
X171620814Y-80053109D01*
X171489711Y-80140710D01*
X171489707Y-80140713D01*
X171378213Y-80252207D01*
X171378210Y-80252211D01*
X171290609Y-80383314D01*
X171290602Y-80383327D01*
X171230264Y-80528998D01*
X171230261Y-80529010D01*
X171199500Y-80683653D01*
X163000500Y-80683653D01*
X163000500Y-79921153D01*
X175699500Y-79921153D01*
X175699500Y-80078846D01*
X175730261Y-80233489D01*
X175730264Y-80233501D01*
X175790602Y-80379172D01*
X175790609Y-80379185D01*
X175878210Y-80510288D01*
X175878213Y-80510292D01*
X175989707Y-80621786D01*
X175989711Y-80621789D01*
X176120814Y-80709390D01*
X176120827Y-80709397D01*
X176266498Y-80769735D01*
X176266503Y-80769737D01*
X176421153Y-80800499D01*
X176421156Y-80800500D01*
X176421158Y-80800500D01*
X176578844Y-80800500D01*
X176578845Y-80800499D01*
X176733497Y-80769737D01*
X176879179Y-80709394D01*
X177010289Y-80621789D01*
X177121789Y-80510289D01*
X177209394Y-80379179D01*
X177269737Y-80233497D01*
X177300500Y-80078842D01*
X177300500Y-79921158D01*
X177300500Y-79921155D01*
X177300499Y-79921153D01*
X177269738Y-79766510D01*
X177269737Y-79766503D01*
X177269735Y-79766498D01*
X177209397Y-79620827D01*
X177209390Y-79620814D01*
X177121789Y-79489711D01*
X177121786Y-79489707D01*
X177010292Y-79378213D01*
X177010288Y-79378210D01*
X176879185Y-79290609D01*
X176879172Y-79290602D01*
X176733501Y-79230264D01*
X176733489Y-79230261D01*
X176578845Y-79199500D01*
X176578842Y-79199500D01*
X176421158Y-79199500D01*
X176421155Y-79199500D01*
X176266510Y-79230261D01*
X176266498Y-79230264D01*
X176120827Y-79290602D01*
X176120814Y-79290609D01*
X175989711Y-79378210D01*
X175989707Y-79378213D01*
X175878213Y-79489707D01*
X175878210Y-79489711D01*
X175790609Y-79620814D01*
X175790602Y-79620827D01*
X175730264Y-79766498D01*
X175730261Y-79766510D01*
X175699500Y-79921153D01*
X163000500Y-79921153D01*
X163000500Y-78421153D01*
X179199500Y-78421153D01*
X179199500Y-78578846D01*
X179230261Y-78733489D01*
X179230264Y-78733501D01*
X179290602Y-78879172D01*
X179290609Y-78879185D01*
X179378210Y-79010288D01*
X179378213Y-79010292D01*
X179489707Y-79121786D01*
X179489711Y-79121789D01*
X179620814Y-79209390D01*
X179620827Y-79209397D01*
X179766498Y-79269735D01*
X179766503Y-79269737D01*
X179921153Y-79300499D01*
X179921156Y-79300500D01*
X179921158Y-79300500D01*
X180078844Y-79300500D01*
X180078845Y-79300499D01*
X180233497Y-79269737D01*
X180379179Y-79209394D01*
X180510289Y-79121789D01*
X180621789Y-79010289D01*
X180709394Y-78879179D01*
X180769737Y-78733497D01*
X180800500Y-78578842D01*
X180800500Y-78421158D01*
X180800500Y-78421155D01*
X180800499Y-78421153D01*
X180769738Y-78266510D01*
X180769737Y-78266503D01*
X180769735Y-78266498D01*
X180709397Y-78120827D01*
X180709390Y-78120814D01*
X180621789Y-77989711D01*
X180621786Y-77989707D01*
X180510292Y-77878213D01*
X180510288Y-77878210D01*
X180379185Y-77790609D01*
X180379172Y-77790602D01*
X180233501Y-77730264D01*
X180233489Y-77730261D01*
X180078845Y-77699500D01*
X180078842Y-77699500D01*
X179921158Y-77699500D01*
X179921155Y-77699500D01*
X179766510Y-77730261D01*
X179766498Y-77730264D01*
X179620827Y-77790602D01*
X179620814Y-77790609D01*
X179489711Y-77878210D01*
X179489707Y-77878213D01*
X179378213Y-77989707D01*
X179378210Y-77989711D01*
X179290609Y-78120814D01*
X179290602Y-78120827D01*
X179230264Y-78266498D01*
X179230261Y-78266510D01*
X179199500Y-78421153D01*
X163000500Y-78421153D01*
X163000500Y-75921153D01*
X170199500Y-75921153D01*
X170199500Y-76078846D01*
X170230261Y-76233489D01*
X170230264Y-76233501D01*
X170290602Y-76379172D01*
X170290609Y-76379185D01*
X170378210Y-76510288D01*
X170378213Y-76510292D01*
X170489707Y-76621786D01*
X170489711Y-76621789D01*
X170620814Y-76709390D01*
X170620827Y-76709397D01*
X170662157Y-76726516D01*
X170766503Y-76769737D01*
X170921153Y-76800499D01*
X170921156Y-76800500D01*
X170921158Y-76800500D01*
X171078844Y-76800500D01*
X171078845Y-76800499D01*
X171233497Y-76769737D01*
X171379179Y-76709394D01*
X171510289Y-76621789D01*
X171621789Y-76510289D01*
X171709394Y-76379179D01*
X171769737Y-76233497D01*
X171800500Y-76078842D01*
X171800500Y-75921158D01*
X171800500Y-75921155D01*
X171800499Y-75921153D01*
X174699500Y-75921153D01*
X174699500Y-76078846D01*
X174730261Y-76233489D01*
X174730264Y-76233501D01*
X174790602Y-76379172D01*
X174790609Y-76379185D01*
X174878210Y-76510288D01*
X174878213Y-76510292D01*
X174989707Y-76621786D01*
X174989715Y-76621792D01*
X175060498Y-76669088D01*
X175105304Y-76722700D01*
X175114011Y-76792025D01*
X175106169Y-76819642D01*
X175055999Y-76940763D01*
X175055996Y-76940775D01*
X175025235Y-77095418D01*
X175025235Y-77253111D01*
X175055996Y-77407754D01*
X175055999Y-77407766D01*
X175116337Y-77553437D01*
X175116344Y-77553450D01*
X175203945Y-77684553D01*
X175203948Y-77684557D01*
X175315442Y-77796051D01*
X175315446Y-77796054D01*
X175446549Y-77883655D01*
X175446562Y-77883662D01*
X175592233Y-77944000D01*
X175592238Y-77944002D01*
X175746888Y-77974764D01*
X175746891Y-77974765D01*
X175746893Y-77974765D01*
X175904579Y-77974765D01*
X175904580Y-77974764D01*
X176059232Y-77944002D01*
X176204914Y-77883659D01*
X176336024Y-77796054D01*
X176447524Y-77684554D01*
X176535129Y-77553444D01*
X176595472Y-77407762D01*
X176626235Y-77253107D01*
X176626235Y-77095423D01*
X176626235Y-77095420D01*
X176626234Y-77095418D01*
X176595473Y-76940775D01*
X176595472Y-76940768D01*
X176595470Y-76940763D01*
X176535132Y-76795092D01*
X176535125Y-76795079D01*
X176447524Y-76663976D01*
X176447521Y-76663972D01*
X176336027Y-76552478D01*
X176336023Y-76552475D01*
X176265235Y-76505176D01*
X176220430Y-76451564D01*
X176211723Y-76382239D01*
X176219562Y-76354630D01*
X176269737Y-76233497D01*
X176300500Y-76078842D01*
X176300500Y-75921158D01*
X176300500Y-75921155D01*
X176300499Y-75921153D01*
X176269738Y-75766510D01*
X176269737Y-75766503D01*
X176256062Y-75733489D01*
X176209397Y-75620827D01*
X176209390Y-75620814D01*
X176121790Y-75489712D01*
X176121784Y-75489705D01*
X176053232Y-75421153D01*
X184699500Y-75421153D01*
X184699500Y-75578846D01*
X184730261Y-75733489D01*
X184730264Y-75733501D01*
X184790602Y-75879172D01*
X184790609Y-75879185D01*
X184878210Y-76010288D01*
X184878213Y-76010292D01*
X184989707Y-76121786D01*
X184989711Y-76121789D01*
X185120814Y-76209390D01*
X185120827Y-76209397D01*
X185266498Y-76269735D01*
X185266503Y-76269737D01*
X185421153Y-76300499D01*
X185421156Y-76300500D01*
X185421158Y-76300500D01*
X185578844Y-76300500D01*
X185578845Y-76300499D01*
X185733497Y-76269737D01*
X185879179Y-76209394D01*
X186010289Y-76121789D01*
X186121789Y-76010289D01*
X186209394Y-75879179D01*
X186269737Y-75733497D01*
X186300500Y-75578842D01*
X186300500Y-75421158D01*
X186300500Y-75421155D01*
X186300499Y-75421153D01*
X186274531Y-75290606D01*
X186269737Y-75266503D01*
X186269735Y-75266498D01*
X186209397Y-75120827D01*
X186209390Y-75120814D01*
X186121789Y-74989711D01*
X186121786Y-74989707D01*
X186010292Y-74878213D01*
X186010288Y-74878210D01*
X185879185Y-74790609D01*
X185879172Y-74790602D01*
X185733501Y-74730264D01*
X185733489Y-74730261D01*
X185578845Y-74699500D01*
X185578842Y-74699500D01*
X185421158Y-74699500D01*
X185421155Y-74699500D01*
X185266510Y-74730261D01*
X185266498Y-74730264D01*
X185120827Y-74790602D01*
X185120814Y-74790609D01*
X184989711Y-74878210D01*
X184989707Y-74878213D01*
X184878213Y-74989707D01*
X184878210Y-74989711D01*
X184790609Y-75120814D01*
X184790602Y-75120827D01*
X184730264Y-75266498D01*
X184730261Y-75266510D01*
X184699500Y-75421153D01*
X176053232Y-75421153D01*
X176010292Y-75378213D01*
X176010288Y-75378210D01*
X175879185Y-75290609D01*
X175879172Y-75290602D01*
X175733501Y-75230264D01*
X175733489Y-75230261D01*
X175578845Y-75199500D01*
X175578842Y-75199500D01*
X175421158Y-75199500D01*
X175421155Y-75199500D01*
X175266510Y-75230261D01*
X175266498Y-75230264D01*
X175120827Y-75290602D01*
X175120814Y-75290609D01*
X174989711Y-75378210D01*
X174989707Y-75378213D01*
X174878213Y-75489707D01*
X174878210Y-75489711D01*
X174790609Y-75620814D01*
X174790602Y-75620827D01*
X174730264Y-75766498D01*
X174730261Y-75766510D01*
X174699500Y-75921153D01*
X171800499Y-75921153D01*
X171769738Y-75766510D01*
X171769737Y-75766503D01*
X171756062Y-75733489D01*
X171709397Y-75620827D01*
X171709390Y-75620814D01*
X171621789Y-75489711D01*
X171621786Y-75489707D01*
X171510292Y-75378213D01*
X171510288Y-75378210D01*
X171379185Y-75290609D01*
X171379172Y-75290602D01*
X171233501Y-75230264D01*
X171233489Y-75230261D01*
X171078845Y-75199500D01*
X171078842Y-75199500D01*
X170921158Y-75199500D01*
X170921155Y-75199500D01*
X170766510Y-75230261D01*
X170766498Y-75230264D01*
X170620827Y-75290602D01*
X170620814Y-75290609D01*
X170489711Y-75378210D01*
X170489707Y-75378213D01*
X170378213Y-75489707D01*
X170378210Y-75489711D01*
X170290609Y-75620814D01*
X170290602Y-75620827D01*
X170230264Y-75766498D01*
X170230261Y-75766510D01*
X170199500Y-75921153D01*
X163000500Y-75921153D01*
X163000500Y-72253543D01*
X178504499Y-72253543D01*
X178542947Y-72446829D01*
X178542950Y-72446839D01*
X178618364Y-72628907D01*
X178618371Y-72628920D01*
X178727860Y-72792781D01*
X178727863Y-72792785D01*
X178867214Y-72932136D01*
X178867218Y-72932139D01*
X179031079Y-73041628D01*
X179031092Y-73041635D01*
X179213160Y-73117049D01*
X179213165Y-73117051D01*
X179213169Y-73117051D01*
X179213170Y-73117052D01*
X179406456Y-73155500D01*
X179406459Y-73155500D01*
X179603543Y-73155500D01*
X179733582Y-73129632D01*
X179796835Y-73117051D01*
X179978914Y-73041632D01*
X180142782Y-72932139D01*
X180282139Y-72792782D01*
X180391632Y-72628914D01*
X180467051Y-72446835D01*
X180505500Y-72253541D01*
X180505500Y-71667049D01*
X180525185Y-71600010D01*
X180577989Y-71554255D01*
X180647147Y-71544311D01*
X180691499Y-71559662D01*
X180736025Y-71585369D01*
X180867133Y-71620500D01*
X180867135Y-71620500D01*
X181002865Y-71620500D01*
X181002867Y-71620500D01*
X181133975Y-71585369D01*
X181251524Y-71517502D01*
X181347502Y-71421524D01*
X181415369Y-71303975D01*
X181450500Y-71172867D01*
X181450500Y-71037133D01*
X186199500Y-71037133D01*
X186199500Y-71172867D01*
X186234631Y-71303975D01*
X186234632Y-71303978D01*
X186302495Y-71421520D01*
X186302497Y-71421522D01*
X186302498Y-71421524D01*
X186398476Y-71517502D01*
X186398477Y-71517503D01*
X186398479Y-71517504D01*
X186516021Y-71585367D01*
X186516022Y-71585367D01*
X186516025Y-71585369D01*
X186647133Y-71620500D01*
X186647135Y-71620500D01*
X186782865Y-71620500D01*
X186782867Y-71620500D01*
X186913975Y-71585369D01*
X186958499Y-71559662D01*
X187026398Y-71543189D01*
X187092425Y-71566040D01*
X187135617Y-71620961D01*
X187144500Y-71667049D01*
X187144500Y-72253541D01*
X187144500Y-72253543D01*
X187144499Y-72253543D01*
X187182947Y-72446829D01*
X187182950Y-72446839D01*
X187258364Y-72628907D01*
X187258371Y-72628920D01*
X187367860Y-72792781D01*
X187367863Y-72792785D01*
X187507214Y-72932136D01*
X187507218Y-72932139D01*
X187671079Y-73041628D01*
X187671092Y-73041635D01*
X187853160Y-73117049D01*
X187853165Y-73117051D01*
X187923893Y-73131119D01*
X187965966Y-73139489D01*
X188027877Y-73171874D01*
X188062451Y-73232589D01*
X188058712Y-73302359D01*
X188017845Y-73359031D01*
X188010668Y-73364206D01*
X187989716Y-73378206D01*
X187989707Y-73378213D01*
X187878213Y-73489707D01*
X187878210Y-73489711D01*
X187790609Y-73620814D01*
X187790602Y-73620827D01*
X187730264Y-73766498D01*
X187730261Y-73766510D01*
X187699500Y-73921153D01*
X187699500Y-74078846D01*
X187730261Y-74233489D01*
X187730264Y-74233501D01*
X187790602Y-74379172D01*
X187790609Y-74379185D01*
X187878210Y-74510288D01*
X187878213Y-74510292D01*
X187989707Y-74621786D01*
X187989711Y-74621789D01*
X188120814Y-74709390D01*
X188120827Y-74709397D01*
X188266498Y-74769735D01*
X188266503Y-74769737D01*
X188421153Y-74800499D01*
X188421156Y-74800500D01*
X188421158Y-74800500D01*
X188578844Y-74800500D01*
X188578845Y-74800499D01*
X188733497Y-74769737D01*
X188879179Y-74709394D01*
X189010289Y-74621789D01*
X189121789Y-74510289D01*
X189209394Y-74379179D01*
X189269737Y-74233497D01*
X189300500Y-74078842D01*
X189300500Y-73921158D01*
X189300500Y-73921155D01*
X189300499Y-73921153D01*
X189269738Y-73766510D01*
X189269737Y-73766503D01*
X189269735Y-73766498D01*
X189209397Y-73620827D01*
X189209390Y-73620814D01*
X189121789Y-73489711D01*
X189121786Y-73489707D01*
X189010292Y-73378213D01*
X189010288Y-73378210D01*
X188879185Y-73290609D01*
X188879172Y-73290602D01*
X188733501Y-73230264D01*
X188733495Y-73230262D01*
X188721262Y-73227829D01*
X188659352Y-73195442D01*
X188624780Y-73134725D01*
X188628522Y-73064955D01*
X188669390Y-73008285D01*
X188676567Y-73003110D01*
X188738065Y-72962017D01*
X188782782Y-72932139D01*
X188922139Y-72792782D01*
X189031632Y-72628914D01*
X189107051Y-72446835D01*
X189145500Y-72253541D01*
X189145500Y-70956459D01*
X189145500Y-70956456D01*
X189107052Y-70763170D01*
X189107051Y-70763169D01*
X189107051Y-70763165D01*
X189079645Y-70697000D01*
X189031635Y-70581092D01*
X189031628Y-70581079D01*
X188922139Y-70417218D01*
X188922136Y-70417214D01*
X188782785Y-70277863D01*
X188782781Y-70277860D01*
X188618920Y-70168371D01*
X188618907Y-70168364D01*
X188436839Y-70092950D01*
X188436829Y-70092947D01*
X188243543Y-70054500D01*
X188243541Y-70054500D01*
X188046459Y-70054500D01*
X188046457Y-70054500D01*
X187853170Y-70092947D01*
X187853160Y-70092950D01*
X187671092Y-70168364D01*
X187671079Y-70168371D01*
X187507218Y-70277860D01*
X187507214Y-70277863D01*
X187367863Y-70417214D01*
X187367860Y-70417218D01*
X187258371Y-70581079D01*
X187258364Y-70581092D01*
X187230313Y-70648816D01*
X187186472Y-70703220D01*
X187120178Y-70725285D01*
X187052479Y-70708006D01*
X187038311Y-70697000D01*
X187037970Y-70697445D01*
X187031520Y-70692495D01*
X186913978Y-70624632D01*
X186913979Y-70624632D01*
X186898484Y-70620480D01*
X186782867Y-70589500D01*
X186647133Y-70589500D01*
X186531515Y-70620480D01*
X186516021Y-70624632D01*
X186398479Y-70692495D01*
X186398473Y-70692500D01*
X186302500Y-70788473D01*
X186302495Y-70788479D01*
X186234632Y-70906021D01*
X186234631Y-70906025D01*
X186199500Y-71037133D01*
X181450500Y-71037133D01*
X181415369Y-70906025D01*
X181384996Y-70853418D01*
X181347504Y-70788479D01*
X181347499Y-70788473D01*
X181251526Y-70692500D01*
X181251520Y-70692495D01*
X181133978Y-70624632D01*
X181133979Y-70624632D01*
X181118484Y-70620480D01*
X181002867Y-70589500D01*
X180867133Y-70589500D01*
X180751515Y-70620480D01*
X180736021Y-70624632D01*
X180618479Y-70692495D01*
X180612030Y-70697445D01*
X180610413Y-70695338D01*
X180560579Y-70722536D01*
X180490888Y-70717536D01*
X180434964Y-70675653D01*
X180419686Y-70648816D01*
X180391632Y-70581086D01*
X180391628Y-70581079D01*
X180282139Y-70417218D01*
X180282136Y-70417214D01*
X180142785Y-70277863D01*
X180142781Y-70277860D01*
X179978920Y-70168371D01*
X179978907Y-70168364D01*
X179796839Y-70092950D01*
X179796829Y-70092947D01*
X179603543Y-70054500D01*
X179603541Y-70054500D01*
X179406459Y-70054500D01*
X179406457Y-70054500D01*
X179213170Y-70092947D01*
X179213160Y-70092950D01*
X179031092Y-70168364D01*
X179031079Y-70168371D01*
X178867218Y-70277860D01*
X178867214Y-70277863D01*
X178727863Y-70417214D01*
X178727860Y-70417218D01*
X178618371Y-70581079D01*
X178618364Y-70581092D01*
X178542950Y-70763160D01*
X178542947Y-70763170D01*
X178504500Y-70956456D01*
X178504500Y-70956459D01*
X178504500Y-72253541D01*
X178504500Y-72253543D01*
X178504499Y-72253543D01*
X163000500Y-72253543D01*
X163000500Y-69003051D01*
X163000649Y-68996967D01*
X163010961Y-68787051D01*
X163017052Y-68663068D01*
X163018245Y-68650962D01*
X163046159Y-68462781D01*
X163066849Y-68323296D01*
X163069218Y-68311385D01*
X163149710Y-67990043D01*
X163153240Y-67978411D01*
X163172872Y-67923543D01*
X178504499Y-67923543D01*
X178542947Y-68116829D01*
X178542950Y-68116839D01*
X178618364Y-68298907D01*
X178618371Y-68298920D01*
X178727860Y-68462781D01*
X178727863Y-68462785D01*
X178867214Y-68602136D01*
X178867218Y-68602139D01*
X179031079Y-68711628D01*
X179031092Y-68711635D01*
X179213160Y-68787049D01*
X179213165Y-68787051D01*
X179213169Y-68787051D01*
X179213170Y-68787052D01*
X179406456Y-68825500D01*
X179406459Y-68825500D01*
X179603543Y-68825500D01*
X179733582Y-68799632D01*
X179796835Y-68787051D01*
X179978914Y-68711632D01*
X180142782Y-68602139D01*
X180282139Y-68462782D01*
X180391632Y-68298914D01*
X180467051Y-68116835D01*
X180485321Y-68024985D01*
X180505500Y-67923543D01*
X187144499Y-67923543D01*
X187182947Y-68116829D01*
X187182950Y-68116839D01*
X187258364Y-68298907D01*
X187258371Y-68298920D01*
X187367860Y-68462781D01*
X187367863Y-68462785D01*
X187507214Y-68602136D01*
X187507218Y-68602139D01*
X187671079Y-68711628D01*
X187671092Y-68711635D01*
X187853160Y-68787049D01*
X187853165Y-68787051D01*
X187853169Y-68787051D01*
X187853170Y-68787052D01*
X188046456Y-68825500D01*
X188046459Y-68825500D01*
X188243543Y-68825500D01*
X188373582Y-68799632D01*
X188436835Y-68787051D01*
X188618914Y-68711632D01*
X188782782Y-68602139D01*
X188922139Y-68462782D01*
X189031632Y-68298914D01*
X189107051Y-68116835D01*
X189125321Y-68024985D01*
X189145500Y-67923543D01*
X189145500Y-66926456D01*
X189107052Y-66733170D01*
X189107051Y-66733169D01*
X189107051Y-66733165D01*
X189107049Y-66733160D01*
X189031635Y-66551092D01*
X189031628Y-66551079D01*
X188922139Y-66387218D01*
X188922136Y-66387214D01*
X188782785Y-66247863D01*
X188782781Y-66247860D01*
X188618920Y-66138371D01*
X188618907Y-66138364D01*
X188436839Y-66062950D01*
X188436829Y-66062947D01*
X188243543Y-66024500D01*
X188243541Y-66024500D01*
X188046459Y-66024500D01*
X188046457Y-66024500D01*
X187853170Y-66062947D01*
X187853160Y-66062950D01*
X187671092Y-66138364D01*
X187671079Y-66138371D01*
X187507218Y-66247860D01*
X187507214Y-66247863D01*
X187367863Y-66387214D01*
X187367860Y-66387218D01*
X187258371Y-66551079D01*
X187258364Y-66551092D01*
X187182950Y-66733160D01*
X187182947Y-66733170D01*
X187144500Y-66926456D01*
X187144500Y-66926459D01*
X187144500Y-67923541D01*
X187144500Y-67923543D01*
X187144499Y-67923543D01*
X180505500Y-67923543D01*
X180505500Y-66926456D01*
X180467052Y-66733170D01*
X180467051Y-66733169D01*
X180467051Y-66733165D01*
X180467049Y-66733160D01*
X180391635Y-66551092D01*
X180391628Y-66551079D01*
X180282139Y-66387218D01*
X180282136Y-66387214D01*
X180142785Y-66247863D01*
X180142781Y-66247860D01*
X179978920Y-66138371D01*
X179978907Y-66138364D01*
X179796839Y-66062950D01*
X179796829Y-66062947D01*
X179603543Y-66024500D01*
X179603541Y-66024500D01*
X179406459Y-66024500D01*
X179406457Y-66024500D01*
X179213170Y-66062947D01*
X179213160Y-66062950D01*
X179031092Y-66138364D01*
X179031079Y-66138371D01*
X178867218Y-66247860D01*
X178867214Y-66247863D01*
X178727863Y-66387214D01*
X178727860Y-66387218D01*
X178618371Y-66551079D01*
X178618364Y-66551092D01*
X178542950Y-66733160D01*
X178542947Y-66733170D01*
X178504500Y-66926456D01*
X178504500Y-66926459D01*
X178504500Y-67923541D01*
X178504500Y-67923543D01*
X178504499Y-67923543D01*
X163172872Y-67923543D01*
X163172873Y-67923541D01*
X163264835Y-67666525D01*
X163269476Y-67655318D01*
X163411124Y-67355828D01*
X163416840Y-67345136D01*
X163587145Y-67060998D01*
X163593888Y-67050905D01*
X163791224Y-66784829D01*
X163798935Y-66775433D01*
X164021405Y-66529975D01*
X164029975Y-66521405D01*
X164275433Y-66298935D01*
X164284818Y-66291232D01*
X164550905Y-66093888D01*
X164560998Y-66087145D01*
X164845136Y-65916840D01*
X164855828Y-65911124D01*
X165155318Y-65769476D01*
X165166525Y-65764835D01*
X165478412Y-65653239D01*
X165490043Y-65649710D01*
X165811385Y-65569218D01*
X165823296Y-65566849D01*
X166150962Y-65518244D01*
X166163068Y-65517052D01*
X166496967Y-65500648D01*
X166503051Y-65500500D01*
X166565892Y-65500500D01*
X205934108Y-65500500D01*
X205996949Y-65500500D01*
X206003032Y-65500648D01*
G37*
%TD.AperFunction*%
%TD*%
M02*
