%TF.GenerationSoftware,KiCad,Pcbnew,10.0.5*%
%TF.CreationDate,2026-08-13T09:13:10+05:30*%
%TF.ProjectId,Untitled,556e7469-746c-4656-942e-6b696361645f,rev?*%
%TF.SameCoordinates,Original*%
%TF.FileFunction,Soldermask,Top*%
%TF.FilePolarity,Negative*%
%FSLAX46Y46*%
G04 Gerber Fmt 4.6, Leading zero omitted, Abs format (unit mm)*
G04 Created by KiCad (PCBNEW 10.0.5) date 2026-08-13 09:13:10*
%MOMM*%
%LPD*%
G01*
G04 APERTURE LIST*
G04 Aperture macros list*
%AMRoundRect*
0 Rectangle with rounded corners*
0 $1 Rounding radius*
0 $2 $3 $4 $5 $6 $7 $8 $9 X,Y pos of 4 corners*
0 Add a 4 corners polygon primitive as box body*
4,1,4,$2,$3,$4,$5,$6,$7,$8,$9,$2,$3,0*
0 Add four circle primitives for the rounded corners*
1,1,$1+$1,$2,$3*
1,1,$1+$1,$4,$5*
1,1,$1+$1,$6,$7*
1,1,$1+$1,$8,$9*
0 Add four rect primitives between the rounded corners*
20,1,$1+$1,$2,$3,$4,$5,0*
20,1,$1+$1,$4,$5,$6,$7,0*
20,1,$1+$1,$6,$7,$8,$9,0*
20,1,$1+$1,$8,$9,$2,$3,0*%
G04 Aperture macros list end*
%ADD10RoundRect,0.135000X-0.135000X-0.185000X0.135000X-0.185000X0.135000X0.185000X-0.135000X0.185000X0*%
%ADD11C,1.700000*%
%ADD12C,4.000000*%
%ADD13C,2.200000*%
%ADD14RoundRect,0.140000X0.140000X0.170000X-0.140000X0.170000X-0.140000X-0.170000X0.140000X-0.170000X0*%
%ADD15C,0.650000*%
%ADD16RoundRect,0.150000X0.150000X0.425000X-0.150000X0.425000X-0.150000X-0.425000X0.150000X-0.425000X0*%
%ADD17RoundRect,0.075000X0.075000X0.500000X-0.075000X0.500000X-0.075000X-0.500000X0.075000X-0.500000X0*%
%ADD18O,1.000000X2.100000*%
%ADD19O,1.000000X1.800000*%
%ADD20RoundRect,0.140000X-0.140000X-0.170000X0.140000X-0.170000X0.140000X0.170000X-0.140000X0.170000X0*%
%ADD21RoundRect,0.147500X-0.147500X-0.172500X0.147500X-0.172500X0.147500X0.172500X-0.147500X0.172500X0*%
%ADD22RoundRect,0.062500X-0.350000X-0.062500X0.350000X-0.062500X0.350000X0.062500X-0.350000X0.062500X0*%
%ADD23RoundRect,0.062500X-0.062500X-0.350000X0.062500X-0.350000X0.062500X0.350000X-0.062500X0.350000X0*%
%ADD24R,2.600000X2.600000*%
%ADD25RoundRect,0.087500X-0.425000X-0.087500X0.425000X-0.087500X0.425000X0.087500X-0.425000X0.087500X0*%
%ADD26RoundRect,0.050000X-0.387500X-0.050000X0.387500X-0.050000X0.387500X0.050000X-0.387500X0.050000X0*%
%ADD27RoundRect,0.050000X-0.050000X-0.387500X0.050000X-0.387500X0.050000X0.387500X-0.050000X0.387500X0*%
%ADD28R,3.200000X3.200000*%
%ADD29RoundRect,0.250000X-0.450000X-0.350000X0.450000X-0.350000X0.450000X0.350000X-0.450000X0.350000X0*%
%ADD30RoundRect,0.150000X-0.512500X-0.150000X0.512500X-0.150000X0.512500X0.150000X-0.512500X0.150000X0*%
%ADD31RoundRect,0.075000X-0.225000X-0.075000X0.225000X-0.075000X0.225000X0.075000X-0.225000X0.075000X0*%
%ADD32RoundRect,0.075000X-0.075000X-0.237500X0.075000X-0.237500X0.075000X0.237500X-0.075000X0.237500X0*%
%ADD33RoundRect,0.162500X-0.650000X-0.162500X0.650000X-0.162500X0.650000X0.162500X-0.650000X0.162500X0*%
%ADD34R,1.700000X1.700000*%
G04 APERTURE END LIST*
D10*
%TO.C,R5*%
X168885000Y-100000000D03*
X169905000Y-100000000D03*
%TD*%
%TO.C,R7*%
X182410000Y-99000000D03*
X183430000Y-99000000D03*
%TD*%
D11*
%TO.C,SW1*%
X117920000Y-73500000D03*
D12*
X123000000Y-73500000D03*
D11*
X128080000Y-73500000D03*
D13*
X125540000Y-68420000D03*
X119190000Y-70960000D03*
%TD*%
D14*
%TO.C,C15*%
X142980000Y-80000000D03*
X142020000Y-80000000D03*
%TD*%
D15*
%TO.C,J1*%
X161280000Y-68000000D03*
X155500000Y-68000000D03*
D16*
X161590000Y-69075000D03*
X160790000Y-69075000D03*
D17*
X159640000Y-69075000D03*
X158640000Y-69075000D03*
X158140000Y-69075000D03*
X157140000Y-69075000D03*
D16*
X155990000Y-69075000D03*
X155190000Y-69075000D03*
X155190000Y-69075000D03*
X155990000Y-69075000D03*
D17*
X156640000Y-69075000D03*
X157640000Y-69075000D03*
X159140000Y-69075000D03*
X160140000Y-69075000D03*
D16*
X160790000Y-69075000D03*
X161590000Y-69075000D03*
D18*
X162710000Y-68500000D03*
D19*
X162710000Y-64320000D03*
D18*
X154070000Y-68500000D03*
D19*
X154070000Y-64320000D03*
%TD*%
D20*
%TO.C,C13*%
X136540000Y-82410000D03*
X137500000Y-82410000D03*
%TD*%
D21*
%TO.C,L1*%
X166000000Y-98010000D03*
X166970000Y-98010000D03*
%TD*%
D14*
%TO.C,C23*%
X163885000Y-100020000D03*
X162925000Y-100020000D03*
%TD*%
D10*
%TO.C,R3*%
X168885000Y-96020000D03*
X169905000Y-96020000D03*
%TD*%
D22*
%TO.C,U2*%
X162125000Y-85000000D03*
X162125000Y-85500000D03*
X162125000Y-86000000D03*
X162125000Y-86500000D03*
X162125000Y-87000000D03*
X162125000Y-87500000D03*
D23*
X162812500Y-88187500D03*
X163312500Y-88187500D03*
X163812500Y-88187500D03*
X164312500Y-88187500D03*
X164812500Y-88187500D03*
X165312500Y-88187500D03*
D22*
X166000000Y-87500000D03*
X166000000Y-87000000D03*
X166000000Y-86500000D03*
X166000000Y-86000000D03*
X166000000Y-85500000D03*
X166000000Y-85000000D03*
D23*
X165312500Y-84312500D03*
X164812500Y-84312500D03*
X164312500Y-84312500D03*
X163812500Y-84312500D03*
X163312500Y-84312500D03*
X162812500Y-84312500D03*
D24*
X164062500Y-86250000D03*
%TD*%
D21*
%TO.C,L3*%
X179525000Y-97010000D03*
X180495000Y-97010000D03*
%TD*%
D25*
%TO.C,U3*%
X148662500Y-91850000D03*
X148662500Y-92500000D03*
X148662500Y-93150000D03*
X150337500Y-93150000D03*
X150337500Y-92500000D03*
X150337500Y-91850000D03*
%TD*%
D20*
%TO.C,C3*%
X172040000Y-81700000D03*
X173000000Y-81700000D03*
%TD*%
%TO.C,C7*%
X172040000Y-89580000D03*
X173000000Y-89580000D03*
%TD*%
%TO.C,C2*%
X172040000Y-79730000D03*
X173000000Y-79730000D03*
%TD*%
%TO.C,C14*%
X136540000Y-84380000D03*
X137500000Y-84380000D03*
%TD*%
%TO.C,C11*%
X136540000Y-78470000D03*
X137500000Y-78470000D03*
%TD*%
D11*
%TO.C,SW2*%
X117730000Y-93540000D03*
D12*
X122810000Y-93540000D03*
D11*
X127890000Y-93540000D03*
D13*
X125350000Y-88460000D03*
X119000000Y-91000000D03*
%TD*%
D21*
%TO.C,FB1*%
X166000000Y-96020000D03*
X166970000Y-96020000D03*
%TD*%
D20*
%TO.C,C20*%
X142020000Y-86470000D03*
X142980000Y-86470000D03*
%TD*%
D26*
%TO.C,U1*%
X149125000Y-79100000D03*
X149125000Y-79500000D03*
X149125000Y-79900000D03*
X149125000Y-80300000D03*
X149125000Y-80700000D03*
X149125000Y-81100000D03*
X149125000Y-81500000D03*
X149125000Y-81900000D03*
X149125000Y-82300000D03*
X149125000Y-82700000D03*
X149125000Y-83100000D03*
X149125000Y-83500000D03*
X149125000Y-83900000D03*
X149125000Y-84300000D03*
D27*
X149962500Y-85137500D03*
X150362500Y-85137500D03*
X150762500Y-85137500D03*
X151162500Y-85137500D03*
X151562500Y-85137500D03*
X151962500Y-85137500D03*
X152362500Y-85137500D03*
X152762500Y-85137500D03*
X153162500Y-85137500D03*
X153562500Y-85137500D03*
X153962500Y-85137500D03*
X154362500Y-85137500D03*
X154762500Y-85137500D03*
X155162500Y-85137500D03*
D26*
X156000000Y-84300000D03*
X156000000Y-83900000D03*
X156000000Y-83500000D03*
X156000000Y-83100000D03*
X156000000Y-82700000D03*
X156000000Y-82300000D03*
X156000000Y-81900000D03*
X156000000Y-81500000D03*
X156000000Y-81100000D03*
X156000000Y-80700000D03*
X156000000Y-80300000D03*
X156000000Y-79900000D03*
X156000000Y-79500000D03*
X156000000Y-79100000D03*
D27*
X155162500Y-78262500D03*
X154762500Y-78262500D03*
X154362500Y-78262500D03*
X153962500Y-78262500D03*
X153562500Y-78262500D03*
X153162500Y-78262500D03*
X152762500Y-78262500D03*
X152362500Y-78262500D03*
X151962500Y-78262500D03*
X151562500Y-78262500D03*
X151162500Y-78262500D03*
X150762500Y-78262500D03*
X150362500Y-78262500D03*
X149962500Y-78262500D03*
D28*
X152562500Y-81700000D03*
%TD*%
D29*
%TO.C,Y2*%
X139000000Y-94700000D03*
X141200000Y-94700000D03*
X141200000Y-93000000D03*
X139000000Y-93000000D03*
%TD*%
D10*
%TO.C,R4*%
X168885000Y-98010000D03*
X169905000Y-98010000D03*
%TD*%
D14*
%TO.C,C17*%
X142980000Y-76060000D03*
X142020000Y-76060000D03*
%TD*%
D21*
%TO.C,L2*%
X166000000Y-100000000D03*
X166970000Y-100000000D03*
%TD*%
D20*
%TO.C,C21*%
X155020000Y-91000000D03*
X155980000Y-91000000D03*
%TD*%
D14*
%TO.C,C18*%
X142980000Y-74090000D03*
X142020000Y-74090000D03*
%TD*%
D20*
%TO.C,C9*%
X178000000Y-88970000D03*
X178960000Y-88970000D03*
%TD*%
%TO.C,C19*%
X142020000Y-84500000D03*
X142980000Y-84500000D03*
%TD*%
%TO.C,C6*%
X172040000Y-87610000D03*
X173000000Y-87610000D03*
%TD*%
%TO.C,C4*%
X172040000Y-83670000D03*
X173000000Y-83670000D03*
%TD*%
D14*
%TO.C,C24*%
X163885000Y-98050000D03*
X162925000Y-98050000D03*
%TD*%
D30*
%TO.C,U4*%
X139225000Y-99500000D03*
X139225000Y-100450000D03*
X139225000Y-101400000D03*
X141500000Y-101400000D03*
X141500000Y-99500000D03*
%TD*%
D20*
%TO.C,C25*%
X176640000Y-96940000D03*
X177600000Y-96940000D03*
%TD*%
%TO.C,C1*%
X172040000Y-77760000D03*
X173000000Y-77760000D03*
%TD*%
D31*
%TO.C,FL1*%
X162100000Y-76500000D03*
X162100000Y-77000000D03*
X162100000Y-77500000D03*
X162100000Y-78000000D03*
D32*
X162800000Y-78312500D03*
D31*
X163500000Y-78000000D03*
X163500000Y-77500000D03*
X163500000Y-77000000D03*
X163500000Y-76500000D03*
D32*
X162800000Y-76187500D03*
%TD*%
D33*
%TO.C,U5*%
X140612500Y-65095000D03*
X140612500Y-66365000D03*
X140612500Y-67635000D03*
X140612500Y-68905000D03*
X147787500Y-68905000D03*
X147787500Y-67635000D03*
X147787500Y-66365000D03*
X147787500Y-65095000D03*
%TD*%
D29*
%TO.C,Y1*%
X174800000Y-70700000D03*
X177000000Y-70700000D03*
X177000000Y-69000000D03*
X174800000Y-69000000D03*
%TD*%
D10*
%TO.C,R1*%
X179500000Y-99000000D03*
X180520000Y-99000000D03*
%TD*%
D20*
%TO.C,C22*%
X163115000Y-96010000D03*
X164075000Y-96010000D03*
%TD*%
D10*
%TO.C,R2*%
X179500000Y-100990000D03*
X180520000Y-100990000D03*
%TD*%
D20*
%TO.C,C12*%
X136540000Y-80440000D03*
X137500000Y-80440000D03*
%TD*%
%TO.C,C8*%
X178000000Y-87000000D03*
X178960000Y-87000000D03*
%TD*%
D10*
%TO.C,R6*%
X182410000Y-97010000D03*
X183430000Y-97010000D03*
%TD*%
D14*
%TO.C,C16*%
X142980000Y-78030000D03*
X142020000Y-78030000D03*
%TD*%
D20*
%TO.C,C5*%
X172040000Y-85640000D03*
X173000000Y-85640000D03*
%TD*%
%TO.C,C10*%
X136540000Y-76500000D03*
X137500000Y-76500000D03*
%TD*%
D34*
%TO.C,AE1*%
X154500000Y-100000000D03*
%TD*%
M02*
