%TF.GenerationSoftware,KiCad,Pcbnew,10.0.5*%
%TF.CreationDate,2026-08-13T09:13:10+05:30*%
%TF.ProjectId,Untitled,556e7469-746c-4656-942e-6b696361645f,rev?*%
%TF.SameCoordinates,Original*%
%TF.FileFunction,Legend,Top*%
%TF.FilePolarity,Positive*%
%FSLAX46Y46*%
G04 Gerber Fmt 4.6, Leading zero omitted, Abs format (unit mm)*
G04 Created by KiCad (PCBNEW 10.0.5) date 2026-08-13 09:13:10*
%MOMM*%
%LPD*%
G01*
G04 APERTURE LIST*
%ADD10C,0.150000*%
%ADD11C,0.120000*%
G04 APERTURE END LIST*
D10*
X169228333Y-99284819D02*
X168895000Y-98808628D01*
X168656905Y-99284819D02*
X168656905Y-98284819D01*
X168656905Y-98284819D02*
X169037857Y-98284819D01*
X169037857Y-98284819D02*
X169133095Y-98332438D01*
X169133095Y-98332438D02*
X169180714Y-98380057D01*
X169180714Y-98380057D02*
X169228333Y-98475295D01*
X169228333Y-98475295D02*
X169228333Y-98618152D01*
X169228333Y-98618152D02*
X169180714Y-98713390D01*
X169180714Y-98713390D02*
X169133095Y-98761009D01*
X169133095Y-98761009D02*
X169037857Y-98808628D01*
X169037857Y-98808628D02*
X168656905Y-98808628D01*
X170133095Y-98284819D02*
X169656905Y-98284819D01*
X169656905Y-98284819D02*
X169609286Y-98761009D01*
X169609286Y-98761009D02*
X169656905Y-98713390D01*
X169656905Y-98713390D02*
X169752143Y-98665771D01*
X169752143Y-98665771D02*
X169990238Y-98665771D01*
X169990238Y-98665771D02*
X170085476Y-98713390D01*
X170085476Y-98713390D02*
X170133095Y-98761009D01*
X170133095Y-98761009D02*
X170180714Y-98856247D01*
X170180714Y-98856247D02*
X170180714Y-99094342D01*
X170180714Y-99094342D02*
X170133095Y-99189580D01*
X170133095Y-99189580D02*
X170085476Y-99237200D01*
X170085476Y-99237200D02*
X169990238Y-99284819D01*
X169990238Y-99284819D02*
X169752143Y-99284819D01*
X169752143Y-99284819D02*
X169656905Y-99237200D01*
X169656905Y-99237200D02*
X169609286Y-99189580D01*
X182753333Y-98284819D02*
X182420000Y-97808628D01*
X182181905Y-98284819D02*
X182181905Y-97284819D01*
X182181905Y-97284819D02*
X182562857Y-97284819D01*
X182562857Y-97284819D02*
X182658095Y-97332438D01*
X182658095Y-97332438D02*
X182705714Y-97380057D01*
X182705714Y-97380057D02*
X182753333Y-97475295D01*
X182753333Y-97475295D02*
X182753333Y-97618152D01*
X182753333Y-97618152D02*
X182705714Y-97713390D01*
X182705714Y-97713390D02*
X182658095Y-97761009D01*
X182658095Y-97761009D02*
X182562857Y-97808628D01*
X182562857Y-97808628D02*
X182181905Y-97808628D01*
X183086667Y-97284819D02*
X183753333Y-97284819D01*
X183753333Y-97284819D02*
X183324762Y-98284819D01*
X121666667Y-66033200D02*
X121809524Y-66080819D01*
X121809524Y-66080819D02*
X122047619Y-66080819D01*
X122047619Y-66080819D02*
X122142857Y-66033200D01*
X122142857Y-66033200D02*
X122190476Y-65985580D01*
X122190476Y-65985580D02*
X122238095Y-65890342D01*
X122238095Y-65890342D02*
X122238095Y-65795104D01*
X122238095Y-65795104D02*
X122190476Y-65699866D01*
X122190476Y-65699866D02*
X122142857Y-65652247D01*
X122142857Y-65652247D02*
X122047619Y-65604628D01*
X122047619Y-65604628D02*
X121857143Y-65557009D01*
X121857143Y-65557009D02*
X121761905Y-65509390D01*
X121761905Y-65509390D02*
X121714286Y-65461771D01*
X121714286Y-65461771D02*
X121666667Y-65366533D01*
X121666667Y-65366533D02*
X121666667Y-65271295D01*
X121666667Y-65271295D02*
X121714286Y-65176057D01*
X121714286Y-65176057D02*
X121761905Y-65128438D01*
X121761905Y-65128438D02*
X121857143Y-65080819D01*
X121857143Y-65080819D02*
X122095238Y-65080819D01*
X122095238Y-65080819D02*
X122238095Y-65128438D01*
X122571429Y-65080819D02*
X122809524Y-66080819D01*
X122809524Y-66080819D02*
X123000000Y-65366533D01*
X123000000Y-65366533D02*
X123190476Y-66080819D01*
X123190476Y-66080819D02*
X123428572Y-65080819D01*
X124333333Y-66080819D02*
X123761905Y-66080819D01*
X124047619Y-66080819D02*
X124047619Y-65080819D01*
X124047619Y-65080819D02*
X123952381Y-65223676D01*
X123952381Y-65223676D02*
X123857143Y-65318914D01*
X123857143Y-65318914D02*
X123761905Y-65366533D01*
X141857142Y-81519580D02*
X141809523Y-81567200D01*
X141809523Y-81567200D02*
X141666666Y-81614819D01*
X141666666Y-81614819D02*
X141571428Y-81614819D01*
X141571428Y-81614819D02*
X141428571Y-81567200D01*
X141428571Y-81567200D02*
X141333333Y-81471961D01*
X141333333Y-81471961D02*
X141285714Y-81376723D01*
X141285714Y-81376723D02*
X141238095Y-81186247D01*
X141238095Y-81186247D02*
X141238095Y-81043390D01*
X141238095Y-81043390D02*
X141285714Y-80852914D01*
X141285714Y-80852914D02*
X141333333Y-80757676D01*
X141333333Y-80757676D02*
X141428571Y-80662438D01*
X141428571Y-80662438D02*
X141571428Y-80614819D01*
X141571428Y-80614819D02*
X141666666Y-80614819D01*
X141666666Y-80614819D02*
X141809523Y-80662438D01*
X141809523Y-80662438D02*
X141857142Y-80710057D01*
X142809523Y-81614819D02*
X142238095Y-81614819D01*
X142523809Y-81614819D02*
X142523809Y-80614819D01*
X142523809Y-80614819D02*
X142428571Y-80757676D01*
X142428571Y-80757676D02*
X142333333Y-80852914D01*
X142333333Y-80852914D02*
X142238095Y-80900533D01*
X143714285Y-80614819D02*
X143238095Y-80614819D01*
X143238095Y-80614819D02*
X143190476Y-81091009D01*
X143190476Y-81091009D02*
X143238095Y-81043390D01*
X143238095Y-81043390D02*
X143333333Y-80995771D01*
X143333333Y-80995771D02*
X143571428Y-80995771D01*
X143571428Y-80995771D02*
X143666666Y-81043390D01*
X143666666Y-81043390D02*
X143714285Y-81091009D01*
X143714285Y-81091009D02*
X143761904Y-81186247D01*
X143761904Y-81186247D02*
X143761904Y-81424342D01*
X143761904Y-81424342D02*
X143714285Y-81519580D01*
X143714285Y-81519580D02*
X143666666Y-81567200D01*
X143666666Y-81567200D02*
X143571428Y-81614819D01*
X143571428Y-81614819D02*
X143333333Y-81614819D01*
X143333333Y-81614819D02*
X143238095Y-81567200D01*
X143238095Y-81567200D02*
X143190476Y-81519580D01*
X158723333Y-71440180D02*
X158723333Y-70725895D01*
X158723333Y-70725895D02*
X158770952Y-70583038D01*
X158770952Y-70583038D02*
X158866190Y-70487800D01*
X158866190Y-70487800D02*
X159009047Y-70440180D01*
X159009047Y-70440180D02*
X159104285Y-70440180D01*
X157723333Y-70440180D02*
X158294761Y-70440180D01*
X158009047Y-70440180D02*
X158009047Y-71440180D01*
X158009047Y-71440180D02*
X158104285Y-71297323D01*
X158104285Y-71297323D02*
X158199523Y-71202085D01*
X158199523Y-71202085D02*
X158294761Y-71154466D01*
X136377142Y-81609580D02*
X136329523Y-81657200D01*
X136329523Y-81657200D02*
X136186666Y-81704819D01*
X136186666Y-81704819D02*
X136091428Y-81704819D01*
X136091428Y-81704819D02*
X135948571Y-81657200D01*
X135948571Y-81657200D02*
X135853333Y-81561961D01*
X135853333Y-81561961D02*
X135805714Y-81466723D01*
X135805714Y-81466723D02*
X135758095Y-81276247D01*
X135758095Y-81276247D02*
X135758095Y-81133390D01*
X135758095Y-81133390D02*
X135805714Y-80942914D01*
X135805714Y-80942914D02*
X135853333Y-80847676D01*
X135853333Y-80847676D02*
X135948571Y-80752438D01*
X135948571Y-80752438D02*
X136091428Y-80704819D01*
X136091428Y-80704819D02*
X136186666Y-80704819D01*
X136186666Y-80704819D02*
X136329523Y-80752438D01*
X136329523Y-80752438D02*
X136377142Y-80800057D01*
X137329523Y-81704819D02*
X136758095Y-81704819D01*
X137043809Y-81704819D02*
X137043809Y-80704819D01*
X137043809Y-80704819D02*
X136948571Y-80847676D01*
X136948571Y-80847676D02*
X136853333Y-80942914D01*
X136853333Y-80942914D02*
X136758095Y-80990533D01*
X137662857Y-80704819D02*
X138281904Y-80704819D01*
X138281904Y-80704819D02*
X137948571Y-81085771D01*
X137948571Y-81085771D02*
X138091428Y-81085771D01*
X138091428Y-81085771D02*
X138186666Y-81133390D01*
X138186666Y-81133390D02*
X138234285Y-81181009D01*
X138234285Y-81181009D02*
X138281904Y-81276247D01*
X138281904Y-81276247D02*
X138281904Y-81514342D01*
X138281904Y-81514342D02*
X138234285Y-81609580D01*
X138234285Y-81609580D02*
X138186666Y-81657200D01*
X138186666Y-81657200D02*
X138091428Y-81704819D01*
X138091428Y-81704819D02*
X137805714Y-81704819D01*
X137805714Y-81704819D02*
X137710476Y-81657200D01*
X137710476Y-81657200D02*
X137662857Y-81609580D01*
X166318333Y-97294819D02*
X165842143Y-97294819D01*
X165842143Y-97294819D02*
X165842143Y-96294819D01*
X167175476Y-97294819D02*
X166604048Y-97294819D01*
X166889762Y-97294819D02*
X166889762Y-96294819D01*
X166889762Y-96294819D02*
X166794524Y-96437676D01*
X166794524Y-96437676D02*
X166699286Y-96532914D01*
X166699286Y-96532914D02*
X166604048Y-96580533D01*
X162762142Y-101539580D02*
X162714523Y-101587200D01*
X162714523Y-101587200D02*
X162571666Y-101634819D01*
X162571666Y-101634819D02*
X162476428Y-101634819D01*
X162476428Y-101634819D02*
X162333571Y-101587200D01*
X162333571Y-101587200D02*
X162238333Y-101491961D01*
X162238333Y-101491961D02*
X162190714Y-101396723D01*
X162190714Y-101396723D02*
X162143095Y-101206247D01*
X162143095Y-101206247D02*
X162143095Y-101063390D01*
X162143095Y-101063390D02*
X162190714Y-100872914D01*
X162190714Y-100872914D02*
X162238333Y-100777676D01*
X162238333Y-100777676D02*
X162333571Y-100682438D01*
X162333571Y-100682438D02*
X162476428Y-100634819D01*
X162476428Y-100634819D02*
X162571666Y-100634819D01*
X162571666Y-100634819D02*
X162714523Y-100682438D01*
X162714523Y-100682438D02*
X162762142Y-100730057D01*
X163143095Y-100730057D02*
X163190714Y-100682438D01*
X163190714Y-100682438D02*
X163285952Y-100634819D01*
X163285952Y-100634819D02*
X163524047Y-100634819D01*
X163524047Y-100634819D02*
X163619285Y-100682438D01*
X163619285Y-100682438D02*
X163666904Y-100730057D01*
X163666904Y-100730057D02*
X163714523Y-100825295D01*
X163714523Y-100825295D02*
X163714523Y-100920533D01*
X163714523Y-100920533D02*
X163666904Y-101063390D01*
X163666904Y-101063390D02*
X163095476Y-101634819D01*
X163095476Y-101634819D02*
X163714523Y-101634819D01*
X164047857Y-100634819D02*
X164666904Y-100634819D01*
X164666904Y-100634819D02*
X164333571Y-101015771D01*
X164333571Y-101015771D02*
X164476428Y-101015771D01*
X164476428Y-101015771D02*
X164571666Y-101063390D01*
X164571666Y-101063390D02*
X164619285Y-101111009D01*
X164619285Y-101111009D02*
X164666904Y-101206247D01*
X164666904Y-101206247D02*
X164666904Y-101444342D01*
X164666904Y-101444342D02*
X164619285Y-101539580D01*
X164619285Y-101539580D02*
X164571666Y-101587200D01*
X164571666Y-101587200D02*
X164476428Y-101634819D01*
X164476428Y-101634819D02*
X164190714Y-101634819D01*
X164190714Y-101634819D02*
X164095476Y-101587200D01*
X164095476Y-101587200D02*
X164047857Y-101539580D01*
X169228333Y-95304819D02*
X168895000Y-94828628D01*
X168656905Y-95304819D02*
X168656905Y-94304819D01*
X168656905Y-94304819D02*
X169037857Y-94304819D01*
X169037857Y-94304819D02*
X169133095Y-94352438D01*
X169133095Y-94352438D02*
X169180714Y-94400057D01*
X169180714Y-94400057D02*
X169228333Y-94495295D01*
X169228333Y-94495295D02*
X169228333Y-94638152D01*
X169228333Y-94638152D02*
X169180714Y-94733390D01*
X169180714Y-94733390D02*
X169133095Y-94781009D01*
X169133095Y-94781009D02*
X169037857Y-94828628D01*
X169037857Y-94828628D02*
X168656905Y-94828628D01*
X169561667Y-94304819D02*
X170180714Y-94304819D01*
X170180714Y-94304819D02*
X169847381Y-94685771D01*
X169847381Y-94685771D02*
X169990238Y-94685771D01*
X169990238Y-94685771D02*
X170085476Y-94733390D01*
X170085476Y-94733390D02*
X170133095Y-94781009D01*
X170133095Y-94781009D02*
X170180714Y-94876247D01*
X170180714Y-94876247D02*
X170180714Y-95114342D01*
X170180714Y-95114342D02*
X170133095Y-95209580D01*
X170133095Y-95209580D02*
X170085476Y-95257200D01*
X170085476Y-95257200D02*
X169990238Y-95304819D01*
X169990238Y-95304819D02*
X169704524Y-95304819D01*
X169704524Y-95304819D02*
X169609286Y-95257200D01*
X169609286Y-95257200D02*
X169561667Y-95209580D01*
X166738095Y-83954819D02*
X166738095Y-84764342D01*
X166738095Y-84764342D02*
X166785714Y-84859580D01*
X166785714Y-84859580D02*
X166833333Y-84907200D01*
X166833333Y-84907200D02*
X166928571Y-84954819D01*
X166928571Y-84954819D02*
X167119047Y-84954819D01*
X167119047Y-84954819D02*
X167214285Y-84907200D01*
X167214285Y-84907200D02*
X167261904Y-84859580D01*
X167261904Y-84859580D02*
X167309523Y-84764342D01*
X167309523Y-84764342D02*
X167309523Y-83954819D01*
X167738095Y-84050057D02*
X167785714Y-84002438D01*
X167785714Y-84002438D02*
X167880952Y-83954819D01*
X167880952Y-83954819D02*
X168119047Y-83954819D01*
X168119047Y-83954819D02*
X168214285Y-84002438D01*
X168214285Y-84002438D02*
X168261904Y-84050057D01*
X168261904Y-84050057D02*
X168309523Y-84145295D01*
X168309523Y-84145295D02*
X168309523Y-84240533D01*
X168309523Y-84240533D02*
X168261904Y-84383390D01*
X168261904Y-84383390D02*
X167690476Y-84954819D01*
X167690476Y-84954819D02*
X168309523Y-84954819D01*
X179843333Y-96294819D02*
X179367143Y-96294819D01*
X179367143Y-96294819D02*
X179367143Y-95294819D01*
X180081429Y-95294819D02*
X180700476Y-95294819D01*
X180700476Y-95294819D02*
X180367143Y-95675771D01*
X180367143Y-95675771D02*
X180510000Y-95675771D01*
X180510000Y-95675771D02*
X180605238Y-95723390D01*
X180605238Y-95723390D02*
X180652857Y-95771009D01*
X180652857Y-95771009D02*
X180700476Y-95866247D01*
X180700476Y-95866247D02*
X180700476Y-96104342D01*
X180700476Y-96104342D02*
X180652857Y-96199580D01*
X180652857Y-96199580D02*
X180605238Y-96247200D01*
X180605238Y-96247200D02*
X180510000Y-96294819D01*
X180510000Y-96294819D02*
X180224286Y-96294819D01*
X180224286Y-96294819D02*
X180129048Y-96247200D01*
X180129048Y-96247200D02*
X180081429Y-96199580D01*
X148738095Y-90154819D02*
X148738095Y-90964342D01*
X148738095Y-90964342D02*
X148785714Y-91059580D01*
X148785714Y-91059580D02*
X148833333Y-91107200D01*
X148833333Y-91107200D02*
X148928571Y-91154819D01*
X148928571Y-91154819D02*
X149119047Y-91154819D01*
X149119047Y-91154819D02*
X149214285Y-91107200D01*
X149214285Y-91107200D02*
X149261904Y-91059580D01*
X149261904Y-91059580D02*
X149309523Y-90964342D01*
X149309523Y-90964342D02*
X149309523Y-90154819D01*
X149690476Y-90154819D02*
X150309523Y-90154819D01*
X150309523Y-90154819D02*
X149976190Y-90535771D01*
X149976190Y-90535771D02*
X150119047Y-90535771D01*
X150119047Y-90535771D02*
X150214285Y-90583390D01*
X150214285Y-90583390D02*
X150261904Y-90631009D01*
X150261904Y-90631009D02*
X150309523Y-90726247D01*
X150309523Y-90726247D02*
X150309523Y-90964342D01*
X150309523Y-90964342D02*
X150261904Y-91059580D01*
X150261904Y-91059580D02*
X150214285Y-91107200D01*
X150214285Y-91107200D02*
X150119047Y-91154819D01*
X150119047Y-91154819D02*
X149833333Y-91154819D01*
X149833333Y-91154819D02*
X149738095Y-91107200D01*
X149738095Y-91107200D02*
X149690476Y-91059580D01*
X172353333Y-80899580D02*
X172305714Y-80947200D01*
X172305714Y-80947200D02*
X172162857Y-80994819D01*
X172162857Y-80994819D02*
X172067619Y-80994819D01*
X172067619Y-80994819D02*
X171924762Y-80947200D01*
X171924762Y-80947200D02*
X171829524Y-80851961D01*
X171829524Y-80851961D02*
X171781905Y-80756723D01*
X171781905Y-80756723D02*
X171734286Y-80566247D01*
X171734286Y-80566247D02*
X171734286Y-80423390D01*
X171734286Y-80423390D02*
X171781905Y-80232914D01*
X171781905Y-80232914D02*
X171829524Y-80137676D01*
X171829524Y-80137676D02*
X171924762Y-80042438D01*
X171924762Y-80042438D02*
X172067619Y-79994819D01*
X172067619Y-79994819D02*
X172162857Y-79994819D01*
X172162857Y-79994819D02*
X172305714Y-80042438D01*
X172305714Y-80042438D02*
X172353333Y-80090057D01*
X172686667Y-79994819D02*
X173305714Y-79994819D01*
X173305714Y-79994819D02*
X172972381Y-80375771D01*
X172972381Y-80375771D02*
X173115238Y-80375771D01*
X173115238Y-80375771D02*
X173210476Y-80423390D01*
X173210476Y-80423390D02*
X173258095Y-80471009D01*
X173258095Y-80471009D02*
X173305714Y-80566247D01*
X173305714Y-80566247D02*
X173305714Y-80804342D01*
X173305714Y-80804342D02*
X173258095Y-80899580D01*
X173258095Y-80899580D02*
X173210476Y-80947200D01*
X173210476Y-80947200D02*
X173115238Y-80994819D01*
X173115238Y-80994819D02*
X172829524Y-80994819D01*
X172829524Y-80994819D02*
X172734286Y-80947200D01*
X172734286Y-80947200D02*
X172686667Y-80899580D01*
X172353333Y-88779580D02*
X172305714Y-88827200D01*
X172305714Y-88827200D02*
X172162857Y-88874819D01*
X172162857Y-88874819D02*
X172067619Y-88874819D01*
X172067619Y-88874819D02*
X171924762Y-88827200D01*
X171924762Y-88827200D02*
X171829524Y-88731961D01*
X171829524Y-88731961D02*
X171781905Y-88636723D01*
X171781905Y-88636723D02*
X171734286Y-88446247D01*
X171734286Y-88446247D02*
X171734286Y-88303390D01*
X171734286Y-88303390D02*
X171781905Y-88112914D01*
X171781905Y-88112914D02*
X171829524Y-88017676D01*
X171829524Y-88017676D02*
X171924762Y-87922438D01*
X171924762Y-87922438D02*
X172067619Y-87874819D01*
X172067619Y-87874819D02*
X172162857Y-87874819D01*
X172162857Y-87874819D02*
X172305714Y-87922438D01*
X172305714Y-87922438D02*
X172353333Y-87970057D01*
X172686667Y-87874819D02*
X173353333Y-87874819D01*
X173353333Y-87874819D02*
X172924762Y-88874819D01*
X172353333Y-78929580D02*
X172305714Y-78977200D01*
X172305714Y-78977200D02*
X172162857Y-79024819D01*
X172162857Y-79024819D02*
X172067619Y-79024819D01*
X172067619Y-79024819D02*
X171924762Y-78977200D01*
X171924762Y-78977200D02*
X171829524Y-78881961D01*
X171829524Y-78881961D02*
X171781905Y-78786723D01*
X171781905Y-78786723D02*
X171734286Y-78596247D01*
X171734286Y-78596247D02*
X171734286Y-78453390D01*
X171734286Y-78453390D02*
X171781905Y-78262914D01*
X171781905Y-78262914D02*
X171829524Y-78167676D01*
X171829524Y-78167676D02*
X171924762Y-78072438D01*
X171924762Y-78072438D02*
X172067619Y-78024819D01*
X172067619Y-78024819D02*
X172162857Y-78024819D01*
X172162857Y-78024819D02*
X172305714Y-78072438D01*
X172305714Y-78072438D02*
X172353333Y-78120057D01*
X172734286Y-78120057D02*
X172781905Y-78072438D01*
X172781905Y-78072438D02*
X172877143Y-78024819D01*
X172877143Y-78024819D02*
X173115238Y-78024819D01*
X173115238Y-78024819D02*
X173210476Y-78072438D01*
X173210476Y-78072438D02*
X173258095Y-78120057D01*
X173258095Y-78120057D02*
X173305714Y-78215295D01*
X173305714Y-78215295D02*
X173305714Y-78310533D01*
X173305714Y-78310533D02*
X173258095Y-78453390D01*
X173258095Y-78453390D02*
X172686667Y-79024819D01*
X172686667Y-79024819D02*
X173305714Y-79024819D01*
X136377142Y-83579580D02*
X136329523Y-83627200D01*
X136329523Y-83627200D02*
X136186666Y-83674819D01*
X136186666Y-83674819D02*
X136091428Y-83674819D01*
X136091428Y-83674819D02*
X135948571Y-83627200D01*
X135948571Y-83627200D02*
X135853333Y-83531961D01*
X135853333Y-83531961D02*
X135805714Y-83436723D01*
X135805714Y-83436723D02*
X135758095Y-83246247D01*
X135758095Y-83246247D02*
X135758095Y-83103390D01*
X135758095Y-83103390D02*
X135805714Y-82912914D01*
X135805714Y-82912914D02*
X135853333Y-82817676D01*
X135853333Y-82817676D02*
X135948571Y-82722438D01*
X135948571Y-82722438D02*
X136091428Y-82674819D01*
X136091428Y-82674819D02*
X136186666Y-82674819D01*
X136186666Y-82674819D02*
X136329523Y-82722438D01*
X136329523Y-82722438D02*
X136377142Y-82770057D01*
X137329523Y-83674819D02*
X136758095Y-83674819D01*
X137043809Y-83674819D02*
X137043809Y-82674819D01*
X137043809Y-82674819D02*
X136948571Y-82817676D01*
X136948571Y-82817676D02*
X136853333Y-82912914D01*
X136853333Y-82912914D02*
X136758095Y-82960533D01*
X138186666Y-83008152D02*
X138186666Y-83674819D01*
X137948571Y-82627200D02*
X137710476Y-83341485D01*
X137710476Y-83341485D02*
X138329523Y-83341485D01*
X136377142Y-77669580D02*
X136329523Y-77717200D01*
X136329523Y-77717200D02*
X136186666Y-77764819D01*
X136186666Y-77764819D02*
X136091428Y-77764819D01*
X136091428Y-77764819D02*
X135948571Y-77717200D01*
X135948571Y-77717200D02*
X135853333Y-77621961D01*
X135853333Y-77621961D02*
X135805714Y-77526723D01*
X135805714Y-77526723D02*
X135758095Y-77336247D01*
X135758095Y-77336247D02*
X135758095Y-77193390D01*
X135758095Y-77193390D02*
X135805714Y-77002914D01*
X135805714Y-77002914D02*
X135853333Y-76907676D01*
X135853333Y-76907676D02*
X135948571Y-76812438D01*
X135948571Y-76812438D02*
X136091428Y-76764819D01*
X136091428Y-76764819D02*
X136186666Y-76764819D01*
X136186666Y-76764819D02*
X136329523Y-76812438D01*
X136329523Y-76812438D02*
X136377142Y-76860057D01*
X137329523Y-77764819D02*
X136758095Y-77764819D01*
X137043809Y-77764819D02*
X137043809Y-76764819D01*
X137043809Y-76764819D02*
X136948571Y-76907676D01*
X136948571Y-76907676D02*
X136853333Y-77002914D01*
X136853333Y-77002914D02*
X136758095Y-77050533D01*
X138281904Y-77764819D02*
X137710476Y-77764819D01*
X137996190Y-77764819D02*
X137996190Y-76764819D01*
X137996190Y-76764819D02*
X137900952Y-76907676D01*
X137900952Y-76907676D02*
X137805714Y-77002914D01*
X137805714Y-77002914D02*
X137710476Y-77050533D01*
X121476667Y-86073200D02*
X121619524Y-86120819D01*
X121619524Y-86120819D02*
X121857619Y-86120819D01*
X121857619Y-86120819D02*
X121952857Y-86073200D01*
X121952857Y-86073200D02*
X122000476Y-86025580D01*
X122000476Y-86025580D02*
X122048095Y-85930342D01*
X122048095Y-85930342D02*
X122048095Y-85835104D01*
X122048095Y-85835104D02*
X122000476Y-85739866D01*
X122000476Y-85739866D02*
X121952857Y-85692247D01*
X121952857Y-85692247D02*
X121857619Y-85644628D01*
X121857619Y-85644628D02*
X121667143Y-85597009D01*
X121667143Y-85597009D02*
X121571905Y-85549390D01*
X121571905Y-85549390D02*
X121524286Y-85501771D01*
X121524286Y-85501771D02*
X121476667Y-85406533D01*
X121476667Y-85406533D02*
X121476667Y-85311295D01*
X121476667Y-85311295D02*
X121524286Y-85216057D01*
X121524286Y-85216057D02*
X121571905Y-85168438D01*
X121571905Y-85168438D02*
X121667143Y-85120819D01*
X121667143Y-85120819D02*
X121905238Y-85120819D01*
X121905238Y-85120819D02*
X122048095Y-85168438D01*
X122381429Y-85120819D02*
X122619524Y-86120819D01*
X122619524Y-86120819D02*
X122810000Y-85406533D01*
X122810000Y-85406533D02*
X123000476Y-86120819D01*
X123000476Y-86120819D02*
X123238572Y-85120819D01*
X123571905Y-85216057D02*
X123619524Y-85168438D01*
X123619524Y-85168438D02*
X123714762Y-85120819D01*
X123714762Y-85120819D02*
X123952857Y-85120819D01*
X123952857Y-85120819D02*
X124048095Y-85168438D01*
X124048095Y-85168438D02*
X124095714Y-85216057D01*
X124095714Y-85216057D02*
X124143333Y-85311295D01*
X124143333Y-85311295D02*
X124143333Y-85406533D01*
X124143333Y-85406533D02*
X124095714Y-85549390D01*
X124095714Y-85549390D02*
X123524286Y-86120819D01*
X123524286Y-86120819D02*
X124143333Y-86120819D01*
X165651666Y-94781009D02*
X165318333Y-94781009D01*
X165318333Y-95304819D02*
X165318333Y-94304819D01*
X165318333Y-94304819D02*
X165794523Y-94304819D01*
X166508809Y-94781009D02*
X166651666Y-94828628D01*
X166651666Y-94828628D02*
X166699285Y-94876247D01*
X166699285Y-94876247D02*
X166746904Y-94971485D01*
X166746904Y-94971485D02*
X166746904Y-95114342D01*
X166746904Y-95114342D02*
X166699285Y-95209580D01*
X166699285Y-95209580D02*
X166651666Y-95257200D01*
X166651666Y-95257200D02*
X166556428Y-95304819D01*
X166556428Y-95304819D02*
X166175476Y-95304819D01*
X166175476Y-95304819D02*
X166175476Y-94304819D01*
X166175476Y-94304819D02*
X166508809Y-94304819D01*
X166508809Y-94304819D02*
X166604047Y-94352438D01*
X166604047Y-94352438D02*
X166651666Y-94400057D01*
X166651666Y-94400057D02*
X166699285Y-94495295D01*
X166699285Y-94495295D02*
X166699285Y-94590533D01*
X166699285Y-94590533D02*
X166651666Y-94685771D01*
X166651666Y-94685771D02*
X166604047Y-94733390D01*
X166604047Y-94733390D02*
X166508809Y-94781009D01*
X166508809Y-94781009D02*
X166175476Y-94781009D01*
X167699285Y-95304819D02*
X167127857Y-95304819D01*
X167413571Y-95304819D02*
X167413571Y-94304819D01*
X167413571Y-94304819D02*
X167318333Y-94447676D01*
X167318333Y-94447676D02*
X167223095Y-94542914D01*
X167223095Y-94542914D02*
X167127857Y-94590533D01*
X141857142Y-85669580D02*
X141809523Y-85717200D01*
X141809523Y-85717200D02*
X141666666Y-85764819D01*
X141666666Y-85764819D02*
X141571428Y-85764819D01*
X141571428Y-85764819D02*
X141428571Y-85717200D01*
X141428571Y-85717200D02*
X141333333Y-85621961D01*
X141333333Y-85621961D02*
X141285714Y-85526723D01*
X141285714Y-85526723D02*
X141238095Y-85336247D01*
X141238095Y-85336247D02*
X141238095Y-85193390D01*
X141238095Y-85193390D02*
X141285714Y-85002914D01*
X141285714Y-85002914D02*
X141333333Y-84907676D01*
X141333333Y-84907676D02*
X141428571Y-84812438D01*
X141428571Y-84812438D02*
X141571428Y-84764819D01*
X141571428Y-84764819D02*
X141666666Y-84764819D01*
X141666666Y-84764819D02*
X141809523Y-84812438D01*
X141809523Y-84812438D02*
X141857142Y-84860057D01*
X142238095Y-84860057D02*
X142285714Y-84812438D01*
X142285714Y-84812438D02*
X142380952Y-84764819D01*
X142380952Y-84764819D02*
X142619047Y-84764819D01*
X142619047Y-84764819D02*
X142714285Y-84812438D01*
X142714285Y-84812438D02*
X142761904Y-84860057D01*
X142761904Y-84860057D02*
X142809523Y-84955295D01*
X142809523Y-84955295D02*
X142809523Y-85050533D01*
X142809523Y-85050533D02*
X142761904Y-85193390D01*
X142761904Y-85193390D02*
X142190476Y-85764819D01*
X142190476Y-85764819D02*
X142809523Y-85764819D01*
X143428571Y-84764819D02*
X143523809Y-84764819D01*
X143523809Y-84764819D02*
X143619047Y-84812438D01*
X143619047Y-84812438D02*
X143666666Y-84860057D01*
X143666666Y-84860057D02*
X143714285Y-84955295D01*
X143714285Y-84955295D02*
X143761904Y-85145771D01*
X143761904Y-85145771D02*
X143761904Y-85383866D01*
X143761904Y-85383866D02*
X143714285Y-85574342D01*
X143714285Y-85574342D02*
X143666666Y-85669580D01*
X143666666Y-85669580D02*
X143619047Y-85717200D01*
X143619047Y-85717200D02*
X143523809Y-85764819D01*
X143523809Y-85764819D02*
X143428571Y-85764819D01*
X143428571Y-85764819D02*
X143333333Y-85717200D01*
X143333333Y-85717200D02*
X143285714Y-85669580D01*
X143285714Y-85669580D02*
X143238095Y-85574342D01*
X143238095Y-85574342D02*
X143190476Y-85383866D01*
X143190476Y-85383866D02*
X143190476Y-85145771D01*
X143190476Y-85145771D02*
X143238095Y-84955295D01*
X143238095Y-84955295D02*
X143285714Y-84860057D01*
X143285714Y-84860057D02*
X143333333Y-84812438D01*
X143333333Y-84812438D02*
X143428571Y-84764819D01*
X151800595Y-76324819D02*
X151800595Y-77134342D01*
X151800595Y-77134342D02*
X151848214Y-77229580D01*
X151848214Y-77229580D02*
X151895833Y-77277200D01*
X151895833Y-77277200D02*
X151991071Y-77324819D01*
X151991071Y-77324819D02*
X152181547Y-77324819D01*
X152181547Y-77324819D02*
X152276785Y-77277200D01*
X152276785Y-77277200D02*
X152324404Y-77229580D01*
X152324404Y-77229580D02*
X152372023Y-77134342D01*
X152372023Y-77134342D02*
X152372023Y-76324819D01*
X153372023Y-77324819D02*
X152800595Y-77324819D01*
X153086309Y-77324819D02*
X153086309Y-76324819D01*
X153086309Y-76324819D02*
X152991071Y-76467676D01*
X152991071Y-76467676D02*
X152895833Y-76562914D01*
X152895833Y-76562914D02*
X152800595Y-76610533D01*
X139623809Y-91378628D02*
X139623809Y-91854819D01*
X139290476Y-90854819D02*
X139623809Y-91378628D01*
X139623809Y-91378628D02*
X139957142Y-90854819D01*
X140242857Y-90950057D02*
X140290476Y-90902438D01*
X140290476Y-90902438D02*
X140385714Y-90854819D01*
X140385714Y-90854819D02*
X140623809Y-90854819D01*
X140623809Y-90854819D02*
X140719047Y-90902438D01*
X140719047Y-90902438D02*
X140766666Y-90950057D01*
X140766666Y-90950057D02*
X140814285Y-91045295D01*
X140814285Y-91045295D02*
X140814285Y-91140533D01*
X140814285Y-91140533D02*
X140766666Y-91283390D01*
X140766666Y-91283390D02*
X140195238Y-91854819D01*
X140195238Y-91854819D02*
X140814285Y-91854819D01*
X169228333Y-97294819D02*
X168895000Y-96818628D01*
X168656905Y-97294819D02*
X168656905Y-96294819D01*
X168656905Y-96294819D02*
X169037857Y-96294819D01*
X169037857Y-96294819D02*
X169133095Y-96342438D01*
X169133095Y-96342438D02*
X169180714Y-96390057D01*
X169180714Y-96390057D02*
X169228333Y-96485295D01*
X169228333Y-96485295D02*
X169228333Y-96628152D01*
X169228333Y-96628152D02*
X169180714Y-96723390D01*
X169180714Y-96723390D02*
X169133095Y-96771009D01*
X169133095Y-96771009D02*
X169037857Y-96818628D01*
X169037857Y-96818628D02*
X168656905Y-96818628D01*
X170085476Y-96628152D02*
X170085476Y-97294819D01*
X169847381Y-96247200D02*
X169609286Y-96961485D01*
X169609286Y-96961485D02*
X170228333Y-96961485D01*
X141857142Y-77579580D02*
X141809523Y-77627200D01*
X141809523Y-77627200D02*
X141666666Y-77674819D01*
X141666666Y-77674819D02*
X141571428Y-77674819D01*
X141571428Y-77674819D02*
X141428571Y-77627200D01*
X141428571Y-77627200D02*
X141333333Y-77531961D01*
X141333333Y-77531961D02*
X141285714Y-77436723D01*
X141285714Y-77436723D02*
X141238095Y-77246247D01*
X141238095Y-77246247D02*
X141238095Y-77103390D01*
X141238095Y-77103390D02*
X141285714Y-76912914D01*
X141285714Y-76912914D02*
X141333333Y-76817676D01*
X141333333Y-76817676D02*
X141428571Y-76722438D01*
X141428571Y-76722438D02*
X141571428Y-76674819D01*
X141571428Y-76674819D02*
X141666666Y-76674819D01*
X141666666Y-76674819D02*
X141809523Y-76722438D01*
X141809523Y-76722438D02*
X141857142Y-76770057D01*
X142809523Y-77674819D02*
X142238095Y-77674819D01*
X142523809Y-77674819D02*
X142523809Y-76674819D01*
X142523809Y-76674819D02*
X142428571Y-76817676D01*
X142428571Y-76817676D02*
X142333333Y-76912914D01*
X142333333Y-76912914D02*
X142238095Y-76960533D01*
X143142857Y-76674819D02*
X143809523Y-76674819D01*
X143809523Y-76674819D02*
X143380952Y-77674819D01*
X166318333Y-99284819D02*
X165842143Y-99284819D01*
X165842143Y-99284819D02*
X165842143Y-98284819D01*
X166604048Y-98380057D02*
X166651667Y-98332438D01*
X166651667Y-98332438D02*
X166746905Y-98284819D01*
X166746905Y-98284819D02*
X166985000Y-98284819D01*
X166985000Y-98284819D02*
X167080238Y-98332438D01*
X167080238Y-98332438D02*
X167127857Y-98380057D01*
X167127857Y-98380057D02*
X167175476Y-98475295D01*
X167175476Y-98475295D02*
X167175476Y-98570533D01*
X167175476Y-98570533D02*
X167127857Y-98713390D01*
X167127857Y-98713390D02*
X166556429Y-99284819D01*
X166556429Y-99284819D02*
X167175476Y-99284819D01*
X154857142Y-90199580D02*
X154809523Y-90247200D01*
X154809523Y-90247200D02*
X154666666Y-90294819D01*
X154666666Y-90294819D02*
X154571428Y-90294819D01*
X154571428Y-90294819D02*
X154428571Y-90247200D01*
X154428571Y-90247200D02*
X154333333Y-90151961D01*
X154333333Y-90151961D02*
X154285714Y-90056723D01*
X154285714Y-90056723D02*
X154238095Y-89866247D01*
X154238095Y-89866247D02*
X154238095Y-89723390D01*
X154238095Y-89723390D02*
X154285714Y-89532914D01*
X154285714Y-89532914D02*
X154333333Y-89437676D01*
X154333333Y-89437676D02*
X154428571Y-89342438D01*
X154428571Y-89342438D02*
X154571428Y-89294819D01*
X154571428Y-89294819D02*
X154666666Y-89294819D01*
X154666666Y-89294819D02*
X154809523Y-89342438D01*
X154809523Y-89342438D02*
X154857142Y-89390057D01*
X155238095Y-89390057D02*
X155285714Y-89342438D01*
X155285714Y-89342438D02*
X155380952Y-89294819D01*
X155380952Y-89294819D02*
X155619047Y-89294819D01*
X155619047Y-89294819D02*
X155714285Y-89342438D01*
X155714285Y-89342438D02*
X155761904Y-89390057D01*
X155761904Y-89390057D02*
X155809523Y-89485295D01*
X155809523Y-89485295D02*
X155809523Y-89580533D01*
X155809523Y-89580533D02*
X155761904Y-89723390D01*
X155761904Y-89723390D02*
X155190476Y-90294819D01*
X155190476Y-90294819D02*
X155809523Y-90294819D01*
X156761904Y-90294819D02*
X156190476Y-90294819D01*
X156476190Y-90294819D02*
X156476190Y-89294819D01*
X156476190Y-89294819D02*
X156380952Y-89437676D01*
X156380952Y-89437676D02*
X156285714Y-89532914D01*
X156285714Y-89532914D02*
X156190476Y-89580533D01*
X141857142Y-75609580D02*
X141809523Y-75657200D01*
X141809523Y-75657200D02*
X141666666Y-75704819D01*
X141666666Y-75704819D02*
X141571428Y-75704819D01*
X141571428Y-75704819D02*
X141428571Y-75657200D01*
X141428571Y-75657200D02*
X141333333Y-75561961D01*
X141333333Y-75561961D02*
X141285714Y-75466723D01*
X141285714Y-75466723D02*
X141238095Y-75276247D01*
X141238095Y-75276247D02*
X141238095Y-75133390D01*
X141238095Y-75133390D02*
X141285714Y-74942914D01*
X141285714Y-74942914D02*
X141333333Y-74847676D01*
X141333333Y-74847676D02*
X141428571Y-74752438D01*
X141428571Y-74752438D02*
X141571428Y-74704819D01*
X141571428Y-74704819D02*
X141666666Y-74704819D01*
X141666666Y-74704819D02*
X141809523Y-74752438D01*
X141809523Y-74752438D02*
X141857142Y-74800057D01*
X142809523Y-75704819D02*
X142238095Y-75704819D01*
X142523809Y-75704819D02*
X142523809Y-74704819D01*
X142523809Y-74704819D02*
X142428571Y-74847676D01*
X142428571Y-74847676D02*
X142333333Y-74942914D01*
X142333333Y-74942914D02*
X142238095Y-74990533D01*
X143380952Y-75133390D02*
X143285714Y-75085771D01*
X143285714Y-75085771D02*
X143238095Y-75038152D01*
X143238095Y-75038152D02*
X143190476Y-74942914D01*
X143190476Y-74942914D02*
X143190476Y-74895295D01*
X143190476Y-74895295D02*
X143238095Y-74800057D01*
X143238095Y-74800057D02*
X143285714Y-74752438D01*
X143285714Y-74752438D02*
X143380952Y-74704819D01*
X143380952Y-74704819D02*
X143571428Y-74704819D01*
X143571428Y-74704819D02*
X143666666Y-74752438D01*
X143666666Y-74752438D02*
X143714285Y-74800057D01*
X143714285Y-74800057D02*
X143761904Y-74895295D01*
X143761904Y-74895295D02*
X143761904Y-74942914D01*
X143761904Y-74942914D02*
X143714285Y-75038152D01*
X143714285Y-75038152D02*
X143666666Y-75085771D01*
X143666666Y-75085771D02*
X143571428Y-75133390D01*
X143571428Y-75133390D02*
X143380952Y-75133390D01*
X143380952Y-75133390D02*
X143285714Y-75181009D01*
X143285714Y-75181009D02*
X143238095Y-75228628D01*
X143238095Y-75228628D02*
X143190476Y-75323866D01*
X143190476Y-75323866D02*
X143190476Y-75514342D01*
X143190476Y-75514342D02*
X143238095Y-75609580D01*
X143238095Y-75609580D02*
X143285714Y-75657200D01*
X143285714Y-75657200D02*
X143380952Y-75704819D01*
X143380952Y-75704819D02*
X143571428Y-75704819D01*
X143571428Y-75704819D02*
X143666666Y-75657200D01*
X143666666Y-75657200D02*
X143714285Y-75609580D01*
X143714285Y-75609580D02*
X143761904Y-75514342D01*
X143761904Y-75514342D02*
X143761904Y-75323866D01*
X143761904Y-75323866D02*
X143714285Y-75228628D01*
X143714285Y-75228628D02*
X143666666Y-75181009D01*
X143666666Y-75181009D02*
X143571428Y-75133390D01*
X178313333Y-88169580D02*
X178265714Y-88217200D01*
X178265714Y-88217200D02*
X178122857Y-88264819D01*
X178122857Y-88264819D02*
X178027619Y-88264819D01*
X178027619Y-88264819D02*
X177884762Y-88217200D01*
X177884762Y-88217200D02*
X177789524Y-88121961D01*
X177789524Y-88121961D02*
X177741905Y-88026723D01*
X177741905Y-88026723D02*
X177694286Y-87836247D01*
X177694286Y-87836247D02*
X177694286Y-87693390D01*
X177694286Y-87693390D02*
X177741905Y-87502914D01*
X177741905Y-87502914D02*
X177789524Y-87407676D01*
X177789524Y-87407676D02*
X177884762Y-87312438D01*
X177884762Y-87312438D02*
X178027619Y-87264819D01*
X178027619Y-87264819D02*
X178122857Y-87264819D01*
X178122857Y-87264819D02*
X178265714Y-87312438D01*
X178265714Y-87312438D02*
X178313333Y-87360057D01*
X178789524Y-88264819D02*
X178980000Y-88264819D01*
X178980000Y-88264819D02*
X179075238Y-88217200D01*
X179075238Y-88217200D02*
X179122857Y-88169580D01*
X179122857Y-88169580D02*
X179218095Y-88026723D01*
X179218095Y-88026723D02*
X179265714Y-87836247D01*
X179265714Y-87836247D02*
X179265714Y-87455295D01*
X179265714Y-87455295D02*
X179218095Y-87360057D01*
X179218095Y-87360057D02*
X179170476Y-87312438D01*
X179170476Y-87312438D02*
X179075238Y-87264819D01*
X179075238Y-87264819D02*
X178884762Y-87264819D01*
X178884762Y-87264819D02*
X178789524Y-87312438D01*
X178789524Y-87312438D02*
X178741905Y-87360057D01*
X178741905Y-87360057D02*
X178694286Y-87455295D01*
X178694286Y-87455295D02*
X178694286Y-87693390D01*
X178694286Y-87693390D02*
X178741905Y-87788628D01*
X178741905Y-87788628D02*
X178789524Y-87836247D01*
X178789524Y-87836247D02*
X178884762Y-87883866D01*
X178884762Y-87883866D02*
X179075238Y-87883866D01*
X179075238Y-87883866D02*
X179170476Y-87836247D01*
X179170476Y-87836247D02*
X179218095Y-87788628D01*
X179218095Y-87788628D02*
X179265714Y-87693390D01*
X141857142Y-83699580D02*
X141809523Y-83747200D01*
X141809523Y-83747200D02*
X141666666Y-83794819D01*
X141666666Y-83794819D02*
X141571428Y-83794819D01*
X141571428Y-83794819D02*
X141428571Y-83747200D01*
X141428571Y-83747200D02*
X141333333Y-83651961D01*
X141333333Y-83651961D02*
X141285714Y-83556723D01*
X141285714Y-83556723D02*
X141238095Y-83366247D01*
X141238095Y-83366247D02*
X141238095Y-83223390D01*
X141238095Y-83223390D02*
X141285714Y-83032914D01*
X141285714Y-83032914D02*
X141333333Y-82937676D01*
X141333333Y-82937676D02*
X141428571Y-82842438D01*
X141428571Y-82842438D02*
X141571428Y-82794819D01*
X141571428Y-82794819D02*
X141666666Y-82794819D01*
X141666666Y-82794819D02*
X141809523Y-82842438D01*
X141809523Y-82842438D02*
X141857142Y-82890057D01*
X142809523Y-83794819D02*
X142238095Y-83794819D01*
X142523809Y-83794819D02*
X142523809Y-82794819D01*
X142523809Y-82794819D02*
X142428571Y-82937676D01*
X142428571Y-82937676D02*
X142333333Y-83032914D01*
X142333333Y-83032914D02*
X142238095Y-83080533D01*
X143285714Y-83794819D02*
X143476190Y-83794819D01*
X143476190Y-83794819D02*
X143571428Y-83747200D01*
X143571428Y-83747200D02*
X143619047Y-83699580D01*
X143619047Y-83699580D02*
X143714285Y-83556723D01*
X143714285Y-83556723D02*
X143761904Y-83366247D01*
X143761904Y-83366247D02*
X143761904Y-82985295D01*
X143761904Y-82985295D02*
X143714285Y-82890057D01*
X143714285Y-82890057D02*
X143666666Y-82842438D01*
X143666666Y-82842438D02*
X143571428Y-82794819D01*
X143571428Y-82794819D02*
X143380952Y-82794819D01*
X143380952Y-82794819D02*
X143285714Y-82842438D01*
X143285714Y-82842438D02*
X143238095Y-82890057D01*
X143238095Y-82890057D02*
X143190476Y-82985295D01*
X143190476Y-82985295D02*
X143190476Y-83223390D01*
X143190476Y-83223390D02*
X143238095Y-83318628D01*
X143238095Y-83318628D02*
X143285714Y-83366247D01*
X143285714Y-83366247D02*
X143380952Y-83413866D01*
X143380952Y-83413866D02*
X143571428Y-83413866D01*
X143571428Y-83413866D02*
X143666666Y-83366247D01*
X143666666Y-83366247D02*
X143714285Y-83318628D01*
X143714285Y-83318628D02*
X143761904Y-83223390D01*
X172353333Y-86809580D02*
X172305714Y-86857200D01*
X172305714Y-86857200D02*
X172162857Y-86904819D01*
X172162857Y-86904819D02*
X172067619Y-86904819D01*
X172067619Y-86904819D02*
X171924762Y-86857200D01*
X171924762Y-86857200D02*
X171829524Y-86761961D01*
X171829524Y-86761961D02*
X171781905Y-86666723D01*
X171781905Y-86666723D02*
X171734286Y-86476247D01*
X171734286Y-86476247D02*
X171734286Y-86333390D01*
X171734286Y-86333390D02*
X171781905Y-86142914D01*
X171781905Y-86142914D02*
X171829524Y-86047676D01*
X171829524Y-86047676D02*
X171924762Y-85952438D01*
X171924762Y-85952438D02*
X172067619Y-85904819D01*
X172067619Y-85904819D02*
X172162857Y-85904819D01*
X172162857Y-85904819D02*
X172305714Y-85952438D01*
X172305714Y-85952438D02*
X172353333Y-86000057D01*
X173210476Y-85904819D02*
X173020000Y-85904819D01*
X173020000Y-85904819D02*
X172924762Y-85952438D01*
X172924762Y-85952438D02*
X172877143Y-86000057D01*
X172877143Y-86000057D02*
X172781905Y-86142914D01*
X172781905Y-86142914D02*
X172734286Y-86333390D01*
X172734286Y-86333390D02*
X172734286Y-86714342D01*
X172734286Y-86714342D02*
X172781905Y-86809580D01*
X172781905Y-86809580D02*
X172829524Y-86857200D01*
X172829524Y-86857200D02*
X172924762Y-86904819D01*
X172924762Y-86904819D02*
X173115238Y-86904819D01*
X173115238Y-86904819D02*
X173210476Y-86857200D01*
X173210476Y-86857200D02*
X173258095Y-86809580D01*
X173258095Y-86809580D02*
X173305714Y-86714342D01*
X173305714Y-86714342D02*
X173305714Y-86476247D01*
X173305714Y-86476247D02*
X173258095Y-86381009D01*
X173258095Y-86381009D02*
X173210476Y-86333390D01*
X173210476Y-86333390D02*
X173115238Y-86285771D01*
X173115238Y-86285771D02*
X172924762Y-86285771D01*
X172924762Y-86285771D02*
X172829524Y-86333390D01*
X172829524Y-86333390D02*
X172781905Y-86381009D01*
X172781905Y-86381009D02*
X172734286Y-86476247D01*
X172353333Y-82869580D02*
X172305714Y-82917200D01*
X172305714Y-82917200D02*
X172162857Y-82964819D01*
X172162857Y-82964819D02*
X172067619Y-82964819D01*
X172067619Y-82964819D02*
X171924762Y-82917200D01*
X171924762Y-82917200D02*
X171829524Y-82821961D01*
X171829524Y-82821961D02*
X171781905Y-82726723D01*
X171781905Y-82726723D02*
X171734286Y-82536247D01*
X171734286Y-82536247D02*
X171734286Y-82393390D01*
X171734286Y-82393390D02*
X171781905Y-82202914D01*
X171781905Y-82202914D02*
X171829524Y-82107676D01*
X171829524Y-82107676D02*
X171924762Y-82012438D01*
X171924762Y-82012438D02*
X172067619Y-81964819D01*
X172067619Y-81964819D02*
X172162857Y-81964819D01*
X172162857Y-81964819D02*
X172305714Y-82012438D01*
X172305714Y-82012438D02*
X172353333Y-82060057D01*
X173210476Y-82298152D02*
X173210476Y-82964819D01*
X172972381Y-81917200D02*
X172734286Y-82631485D01*
X172734286Y-82631485D02*
X173353333Y-82631485D01*
X162762142Y-99569580D02*
X162714523Y-99617200D01*
X162714523Y-99617200D02*
X162571666Y-99664819D01*
X162571666Y-99664819D02*
X162476428Y-99664819D01*
X162476428Y-99664819D02*
X162333571Y-99617200D01*
X162333571Y-99617200D02*
X162238333Y-99521961D01*
X162238333Y-99521961D02*
X162190714Y-99426723D01*
X162190714Y-99426723D02*
X162143095Y-99236247D01*
X162143095Y-99236247D02*
X162143095Y-99093390D01*
X162143095Y-99093390D02*
X162190714Y-98902914D01*
X162190714Y-98902914D02*
X162238333Y-98807676D01*
X162238333Y-98807676D02*
X162333571Y-98712438D01*
X162333571Y-98712438D02*
X162476428Y-98664819D01*
X162476428Y-98664819D02*
X162571666Y-98664819D01*
X162571666Y-98664819D02*
X162714523Y-98712438D01*
X162714523Y-98712438D02*
X162762142Y-98760057D01*
X163143095Y-98760057D02*
X163190714Y-98712438D01*
X163190714Y-98712438D02*
X163285952Y-98664819D01*
X163285952Y-98664819D02*
X163524047Y-98664819D01*
X163524047Y-98664819D02*
X163619285Y-98712438D01*
X163619285Y-98712438D02*
X163666904Y-98760057D01*
X163666904Y-98760057D02*
X163714523Y-98855295D01*
X163714523Y-98855295D02*
X163714523Y-98950533D01*
X163714523Y-98950533D02*
X163666904Y-99093390D01*
X163666904Y-99093390D02*
X163095476Y-99664819D01*
X163095476Y-99664819D02*
X163714523Y-99664819D01*
X164571666Y-98998152D02*
X164571666Y-99664819D01*
X164333571Y-98617200D02*
X164095476Y-99331485D01*
X164095476Y-99331485D02*
X164714523Y-99331485D01*
X139600595Y-97504819D02*
X139600595Y-98314342D01*
X139600595Y-98314342D02*
X139648214Y-98409580D01*
X139648214Y-98409580D02*
X139695833Y-98457200D01*
X139695833Y-98457200D02*
X139791071Y-98504819D01*
X139791071Y-98504819D02*
X139981547Y-98504819D01*
X139981547Y-98504819D02*
X140076785Y-98457200D01*
X140076785Y-98457200D02*
X140124404Y-98409580D01*
X140124404Y-98409580D02*
X140172023Y-98314342D01*
X140172023Y-98314342D02*
X140172023Y-97504819D01*
X141076785Y-97838152D02*
X141076785Y-98504819D01*
X140838690Y-97457200D02*
X140600595Y-98171485D01*
X140600595Y-98171485D02*
X141219642Y-98171485D01*
X176477142Y-96139580D02*
X176429523Y-96187200D01*
X176429523Y-96187200D02*
X176286666Y-96234819D01*
X176286666Y-96234819D02*
X176191428Y-96234819D01*
X176191428Y-96234819D02*
X176048571Y-96187200D01*
X176048571Y-96187200D02*
X175953333Y-96091961D01*
X175953333Y-96091961D02*
X175905714Y-95996723D01*
X175905714Y-95996723D02*
X175858095Y-95806247D01*
X175858095Y-95806247D02*
X175858095Y-95663390D01*
X175858095Y-95663390D02*
X175905714Y-95472914D01*
X175905714Y-95472914D02*
X175953333Y-95377676D01*
X175953333Y-95377676D02*
X176048571Y-95282438D01*
X176048571Y-95282438D02*
X176191428Y-95234819D01*
X176191428Y-95234819D02*
X176286666Y-95234819D01*
X176286666Y-95234819D02*
X176429523Y-95282438D01*
X176429523Y-95282438D02*
X176477142Y-95330057D01*
X176858095Y-95330057D02*
X176905714Y-95282438D01*
X176905714Y-95282438D02*
X177000952Y-95234819D01*
X177000952Y-95234819D02*
X177239047Y-95234819D01*
X177239047Y-95234819D02*
X177334285Y-95282438D01*
X177334285Y-95282438D02*
X177381904Y-95330057D01*
X177381904Y-95330057D02*
X177429523Y-95425295D01*
X177429523Y-95425295D02*
X177429523Y-95520533D01*
X177429523Y-95520533D02*
X177381904Y-95663390D01*
X177381904Y-95663390D02*
X176810476Y-96234819D01*
X176810476Y-96234819D02*
X177429523Y-96234819D01*
X178334285Y-95234819D02*
X177858095Y-95234819D01*
X177858095Y-95234819D02*
X177810476Y-95711009D01*
X177810476Y-95711009D02*
X177858095Y-95663390D01*
X177858095Y-95663390D02*
X177953333Y-95615771D01*
X177953333Y-95615771D02*
X178191428Y-95615771D01*
X178191428Y-95615771D02*
X178286666Y-95663390D01*
X178286666Y-95663390D02*
X178334285Y-95711009D01*
X178334285Y-95711009D02*
X178381904Y-95806247D01*
X178381904Y-95806247D02*
X178381904Y-96044342D01*
X178381904Y-96044342D02*
X178334285Y-96139580D01*
X178334285Y-96139580D02*
X178286666Y-96187200D01*
X178286666Y-96187200D02*
X178191428Y-96234819D01*
X178191428Y-96234819D02*
X177953333Y-96234819D01*
X177953333Y-96234819D02*
X177858095Y-96187200D01*
X177858095Y-96187200D02*
X177810476Y-96139580D01*
X172353333Y-76959580D02*
X172305714Y-77007200D01*
X172305714Y-77007200D02*
X172162857Y-77054819D01*
X172162857Y-77054819D02*
X172067619Y-77054819D01*
X172067619Y-77054819D02*
X171924762Y-77007200D01*
X171924762Y-77007200D02*
X171829524Y-76911961D01*
X171829524Y-76911961D02*
X171781905Y-76816723D01*
X171781905Y-76816723D02*
X171734286Y-76626247D01*
X171734286Y-76626247D02*
X171734286Y-76483390D01*
X171734286Y-76483390D02*
X171781905Y-76292914D01*
X171781905Y-76292914D02*
X171829524Y-76197676D01*
X171829524Y-76197676D02*
X171924762Y-76102438D01*
X171924762Y-76102438D02*
X172067619Y-76054819D01*
X172067619Y-76054819D02*
X172162857Y-76054819D01*
X172162857Y-76054819D02*
X172305714Y-76102438D01*
X172305714Y-76102438D02*
X172353333Y-76150057D01*
X173305714Y-77054819D02*
X172734286Y-77054819D01*
X173020000Y-77054819D02*
X173020000Y-76054819D01*
X173020000Y-76054819D02*
X172924762Y-76197676D01*
X172924762Y-76197676D02*
X172829524Y-76292914D01*
X172829524Y-76292914D02*
X172734286Y-76340533D01*
X162061904Y-74851009D02*
X161728571Y-74851009D01*
X161728571Y-75374819D02*
X161728571Y-74374819D01*
X161728571Y-74374819D02*
X162204761Y-74374819D01*
X163061904Y-75374819D02*
X162585714Y-75374819D01*
X162585714Y-75374819D02*
X162585714Y-74374819D01*
X163919047Y-75374819D02*
X163347619Y-75374819D01*
X163633333Y-75374819D02*
X163633333Y-74374819D01*
X163633333Y-74374819D02*
X163538095Y-74517676D01*
X163538095Y-74517676D02*
X163442857Y-74612914D01*
X163442857Y-74612914D02*
X163347619Y-74660533D01*
X143438095Y-62854819D02*
X143438095Y-63664342D01*
X143438095Y-63664342D02*
X143485714Y-63759580D01*
X143485714Y-63759580D02*
X143533333Y-63807200D01*
X143533333Y-63807200D02*
X143628571Y-63854819D01*
X143628571Y-63854819D02*
X143819047Y-63854819D01*
X143819047Y-63854819D02*
X143914285Y-63807200D01*
X143914285Y-63807200D02*
X143961904Y-63759580D01*
X143961904Y-63759580D02*
X144009523Y-63664342D01*
X144009523Y-63664342D02*
X144009523Y-62854819D01*
X144961904Y-62854819D02*
X144485714Y-62854819D01*
X144485714Y-62854819D02*
X144438095Y-63331009D01*
X144438095Y-63331009D02*
X144485714Y-63283390D01*
X144485714Y-63283390D02*
X144580952Y-63235771D01*
X144580952Y-63235771D02*
X144819047Y-63235771D01*
X144819047Y-63235771D02*
X144914285Y-63283390D01*
X144914285Y-63283390D02*
X144961904Y-63331009D01*
X144961904Y-63331009D02*
X145009523Y-63426247D01*
X145009523Y-63426247D02*
X145009523Y-63664342D01*
X145009523Y-63664342D02*
X144961904Y-63759580D01*
X144961904Y-63759580D02*
X144914285Y-63807200D01*
X144914285Y-63807200D02*
X144819047Y-63854819D01*
X144819047Y-63854819D02*
X144580952Y-63854819D01*
X144580952Y-63854819D02*
X144485714Y-63807200D01*
X144485714Y-63807200D02*
X144438095Y-63759580D01*
X175423809Y-67378628D02*
X175423809Y-67854819D01*
X175090476Y-66854819D02*
X175423809Y-67378628D01*
X175423809Y-67378628D02*
X175757142Y-66854819D01*
X176614285Y-67854819D02*
X176042857Y-67854819D01*
X176328571Y-67854819D02*
X176328571Y-66854819D01*
X176328571Y-66854819D02*
X176233333Y-66997676D01*
X176233333Y-66997676D02*
X176138095Y-67092914D01*
X176138095Y-67092914D02*
X176042857Y-67140533D01*
X179843333Y-98284819D02*
X179510000Y-97808628D01*
X179271905Y-98284819D02*
X179271905Y-97284819D01*
X179271905Y-97284819D02*
X179652857Y-97284819D01*
X179652857Y-97284819D02*
X179748095Y-97332438D01*
X179748095Y-97332438D02*
X179795714Y-97380057D01*
X179795714Y-97380057D02*
X179843333Y-97475295D01*
X179843333Y-97475295D02*
X179843333Y-97618152D01*
X179843333Y-97618152D02*
X179795714Y-97713390D01*
X179795714Y-97713390D02*
X179748095Y-97761009D01*
X179748095Y-97761009D02*
X179652857Y-97808628D01*
X179652857Y-97808628D02*
X179271905Y-97808628D01*
X180795714Y-98284819D02*
X180224286Y-98284819D01*
X180510000Y-98284819D02*
X180510000Y-97284819D01*
X180510000Y-97284819D02*
X180414762Y-97427676D01*
X180414762Y-97427676D02*
X180319524Y-97522914D01*
X180319524Y-97522914D02*
X180224286Y-97570533D01*
X162952142Y-95209580D02*
X162904523Y-95257200D01*
X162904523Y-95257200D02*
X162761666Y-95304819D01*
X162761666Y-95304819D02*
X162666428Y-95304819D01*
X162666428Y-95304819D02*
X162523571Y-95257200D01*
X162523571Y-95257200D02*
X162428333Y-95161961D01*
X162428333Y-95161961D02*
X162380714Y-95066723D01*
X162380714Y-95066723D02*
X162333095Y-94876247D01*
X162333095Y-94876247D02*
X162333095Y-94733390D01*
X162333095Y-94733390D02*
X162380714Y-94542914D01*
X162380714Y-94542914D02*
X162428333Y-94447676D01*
X162428333Y-94447676D02*
X162523571Y-94352438D01*
X162523571Y-94352438D02*
X162666428Y-94304819D01*
X162666428Y-94304819D02*
X162761666Y-94304819D01*
X162761666Y-94304819D02*
X162904523Y-94352438D01*
X162904523Y-94352438D02*
X162952142Y-94400057D01*
X163333095Y-94400057D02*
X163380714Y-94352438D01*
X163380714Y-94352438D02*
X163475952Y-94304819D01*
X163475952Y-94304819D02*
X163714047Y-94304819D01*
X163714047Y-94304819D02*
X163809285Y-94352438D01*
X163809285Y-94352438D02*
X163856904Y-94400057D01*
X163856904Y-94400057D02*
X163904523Y-94495295D01*
X163904523Y-94495295D02*
X163904523Y-94590533D01*
X163904523Y-94590533D02*
X163856904Y-94733390D01*
X163856904Y-94733390D02*
X163285476Y-95304819D01*
X163285476Y-95304819D02*
X163904523Y-95304819D01*
X164285476Y-94400057D02*
X164333095Y-94352438D01*
X164333095Y-94352438D02*
X164428333Y-94304819D01*
X164428333Y-94304819D02*
X164666428Y-94304819D01*
X164666428Y-94304819D02*
X164761666Y-94352438D01*
X164761666Y-94352438D02*
X164809285Y-94400057D01*
X164809285Y-94400057D02*
X164856904Y-94495295D01*
X164856904Y-94495295D02*
X164856904Y-94590533D01*
X164856904Y-94590533D02*
X164809285Y-94733390D01*
X164809285Y-94733390D02*
X164237857Y-95304819D01*
X164237857Y-95304819D02*
X164856904Y-95304819D01*
X179843333Y-100274819D02*
X179510000Y-99798628D01*
X179271905Y-100274819D02*
X179271905Y-99274819D01*
X179271905Y-99274819D02*
X179652857Y-99274819D01*
X179652857Y-99274819D02*
X179748095Y-99322438D01*
X179748095Y-99322438D02*
X179795714Y-99370057D01*
X179795714Y-99370057D02*
X179843333Y-99465295D01*
X179843333Y-99465295D02*
X179843333Y-99608152D01*
X179843333Y-99608152D02*
X179795714Y-99703390D01*
X179795714Y-99703390D02*
X179748095Y-99751009D01*
X179748095Y-99751009D02*
X179652857Y-99798628D01*
X179652857Y-99798628D02*
X179271905Y-99798628D01*
X180224286Y-99370057D02*
X180271905Y-99322438D01*
X180271905Y-99322438D02*
X180367143Y-99274819D01*
X180367143Y-99274819D02*
X180605238Y-99274819D01*
X180605238Y-99274819D02*
X180700476Y-99322438D01*
X180700476Y-99322438D02*
X180748095Y-99370057D01*
X180748095Y-99370057D02*
X180795714Y-99465295D01*
X180795714Y-99465295D02*
X180795714Y-99560533D01*
X180795714Y-99560533D02*
X180748095Y-99703390D01*
X180748095Y-99703390D02*
X180176667Y-100274819D01*
X180176667Y-100274819D02*
X180795714Y-100274819D01*
X136377142Y-79639580D02*
X136329523Y-79687200D01*
X136329523Y-79687200D02*
X136186666Y-79734819D01*
X136186666Y-79734819D02*
X136091428Y-79734819D01*
X136091428Y-79734819D02*
X135948571Y-79687200D01*
X135948571Y-79687200D02*
X135853333Y-79591961D01*
X135853333Y-79591961D02*
X135805714Y-79496723D01*
X135805714Y-79496723D02*
X135758095Y-79306247D01*
X135758095Y-79306247D02*
X135758095Y-79163390D01*
X135758095Y-79163390D02*
X135805714Y-78972914D01*
X135805714Y-78972914D02*
X135853333Y-78877676D01*
X135853333Y-78877676D02*
X135948571Y-78782438D01*
X135948571Y-78782438D02*
X136091428Y-78734819D01*
X136091428Y-78734819D02*
X136186666Y-78734819D01*
X136186666Y-78734819D02*
X136329523Y-78782438D01*
X136329523Y-78782438D02*
X136377142Y-78830057D01*
X137329523Y-79734819D02*
X136758095Y-79734819D01*
X137043809Y-79734819D02*
X137043809Y-78734819D01*
X137043809Y-78734819D02*
X136948571Y-78877676D01*
X136948571Y-78877676D02*
X136853333Y-78972914D01*
X136853333Y-78972914D02*
X136758095Y-79020533D01*
X137710476Y-78830057D02*
X137758095Y-78782438D01*
X137758095Y-78782438D02*
X137853333Y-78734819D01*
X137853333Y-78734819D02*
X138091428Y-78734819D01*
X138091428Y-78734819D02*
X138186666Y-78782438D01*
X138186666Y-78782438D02*
X138234285Y-78830057D01*
X138234285Y-78830057D02*
X138281904Y-78925295D01*
X138281904Y-78925295D02*
X138281904Y-79020533D01*
X138281904Y-79020533D02*
X138234285Y-79163390D01*
X138234285Y-79163390D02*
X137662857Y-79734819D01*
X137662857Y-79734819D02*
X138281904Y-79734819D01*
X178313333Y-86199580D02*
X178265714Y-86247200D01*
X178265714Y-86247200D02*
X178122857Y-86294819D01*
X178122857Y-86294819D02*
X178027619Y-86294819D01*
X178027619Y-86294819D02*
X177884762Y-86247200D01*
X177884762Y-86247200D02*
X177789524Y-86151961D01*
X177789524Y-86151961D02*
X177741905Y-86056723D01*
X177741905Y-86056723D02*
X177694286Y-85866247D01*
X177694286Y-85866247D02*
X177694286Y-85723390D01*
X177694286Y-85723390D02*
X177741905Y-85532914D01*
X177741905Y-85532914D02*
X177789524Y-85437676D01*
X177789524Y-85437676D02*
X177884762Y-85342438D01*
X177884762Y-85342438D02*
X178027619Y-85294819D01*
X178027619Y-85294819D02*
X178122857Y-85294819D01*
X178122857Y-85294819D02*
X178265714Y-85342438D01*
X178265714Y-85342438D02*
X178313333Y-85390057D01*
X178884762Y-85723390D02*
X178789524Y-85675771D01*
X178789524Y-85675771D02*
X178741905Y-85628152D01*
X178741905Y-85628152D02*
X178694286Y-85532914D01*
X178694286Y-85532914D02*
X178694286Y-85485295D01*
X178694286Y-85485295D02*
X178741905Y-85390057D01*
X178741905Y-85390057D02*
X178789524Y-85342438D01*
X178789524Y-85342438D02*
X178884762Y-85294819D01*
X178884762Y-85294819D02*
X179075238Y-85294819D01*
X179075238Y-85294819D02*
X179170476Y-85342438D01*
X179170476Y-85342438D02*
X179218095Y-85390057D01*
X179218095Y-85390057D02*
X179265714Y-85485295D01*
X179265714Y-85485295D02*
X179265714Y-85532914D01*
X179265714Y-85532914D02*
X179218095Y-85628152D01*
X179218095Y-85628152D02*
X179170476Y-85675771D01*
X179170476Y-85675771D02*
X179075238Y-85723390D01*
X179075238Y-85723390D02*
X178884762Y-85723390D01*
X178884762Y-85723390D02*
X178789524Y-85771009D01*
X178789524Y-85771009D02*
X178741905Y-85818628D01*
X178741905Y-85818628D02*
X178694286Y-85913866D01*
X178694286Y-85913866D02*
X178694286Y-86104342D01*
X178694286Y-86104342D02*
X178741905Y-86199580D01*
X178741905Y-86199580D02*
X178789524Y-86247200D01*
X178789524Y-86247200D02*
X178884762Y-86294819D01*
X178884762Y-86294819D02*
X179075238Y-86294819D01*
X179075238Y-86294819D02*
X179170476Y-86247200D01*
X179170476Y-86247200D02*
X179218095Y-86199580D01*
X179218095Y-86199580D02*
X179265714Y-86104342D01*
X179265714Y-86104342D02*
X179265714Y-85913866D01*
X179265714Y-85913866D02*
X179218095Y-85818628D01*
X179218095Y-85818628D02*
X179170476Y-85771009D01*
X179170476Y-85771009D02*
X179075238Y-85723390D01*
X182753333Y-96294819D02*
X182420000Y-95818628D01*
X182181905Y-96294819D02*
X182181905Y-95294819D01*
X182181905Y-95294819D02*
X182562857Y-95294819D01*
X182562857Y-95294819D02*
X182658095Y-95342438D01*
X182658095Y-95342438D02*
X182705714Y-95390057D01*
X182705714Y-95390057D02*
X182753333Y-95485295D01*
X182753333Y-95485295D02*
X182753333Y-95628152D01*
X182753333Y-95628152D02*
X182705714Y-95723390D01*
X182705714Y-95723390D02*
X182658095Y-95771009D01*
X182658095Y-95771009D02*
X182562857Y-95818628D01*
X182562857Y-95818628D02*
X182181905Y-95818628D01*
X183610476Y-95294819D02*
X183420000Y-95294819D01*
X183420000Y-95294819D02*
X183324762Y-95342438D01*
X183324762Y-95342438D02*
X183277143Y-95390057D01*
X183277143Y-95390057D02*
X183181905Y-95532914D01*
X183181905Y-95532914D02*
X183134286Y-95723390D01*
X183134286Y-95723390D02*
X183134286Y-96104342D01*
X183134286Y-96104342D02*
X183181905Y-96199580D01*
X183181905Y-96199580D02*
X183229524Y-96247200D01*
X183229524Y-96247200D02*
X183324762Y-96294819D01*
X183324762Y-96294819D02*
X183515238Y-96294819D01*
X183515238Y-96294819D02*
X183610476Y-96247200D01*
X183610476Y-96247200D02*
X183658095Y-96199580D01*
X183658095Y-96199580D02*
X183705714Y-96104342D01*
X183705714Y-96104342D02*
X183705714Y-95866247D01*
X183705714Y-95866247D02*
X183658095Y-95771009D01*
X183658095Y-95771009D02*
X183610476Y-95723390D01*
X183610476Y-95723390D02*
X183515238Y-95675771D01*
X183515238Y-95675771D02*
X183324762Y-95675771D01*
X183324762Y-95675771D02*
X183229524Y-95723390D01*
X183229524Y-95723390D02*
X183181905Y-95771009D01*
X183181905Y-95771009D02*
X183134286Y-95866247D01*
X141857142Y-79549580D02*
X141809523Y-79597200D01*
X141809523Y-79597200D02*
X141666666Y-79644819D01*
X141666666Y-79644819D02*
X141571428Y-79644819D01*
X141571428Y-79644819D02*
X141428571Y-79597200D01*
X141428571Y-79597200D02*
X141333333Y-79501961D01*
X141333333Y-79501961D02*
X141285714Y-79406723D01*
X141285714Y-79406723D02*
X141238095Y-79216247D01*
X141238095Y-79216247D02*
X141238095Y-79073390D01*
X141238095Y-79073390D02*
X141285714Y-78882914D01*
X141285714Y-78882914D02*
X141333333Y-78787676D01*
X141333333Y-78787676D02*
X141428571Y-78692438D01*
X141428571Y-78692438D02*
X141571428Y-78644819D01*
X141571428Y-78644819D02*
X141666666Y-78644819D01*
X141666666Y-78644819D02*
X141809523Y-78692438D01*
X141809523Y-78692438D02*
X141857142Y-78740057D01*
X142809523Y-79644819D02*
X142238095Y-79644819D01*
X142523809Y-79644819D02*
X142523809Y-78644819D01*
X142523809Y-78644819D02*
X142428571Y-78787676D01*
X142428571Y-78787676D02*
X142333333Y-78882914D01*
X142333333Y-78882914D02*
X142238095Y-78930533D01*
X143666666Y-78644819D02*
X143476190Y-78644819D01*
X143476190Y-78644819D02*
X143380952Y-78692438D01*
X143380952Y-78692438D02*
X143333333Y-78740057D01*
X143333333Y-78740057D02*
X143238095Y-78882914D01*
X143238095Y-78882914D02*
X143190476Y-79073390D01*
X143190476Y-79073390D02*
X143190476Y-79454342D01*
X143190476Y-79454342D02*
X143238095Y-79549580D01*
X143238095Y-79549580D02*
X143285714Y-79597200D01*
X143285714Y-79597200D02*
X143380952Y-79644819D01*
X143380952Y-79644819D02*
X143571428Y-79644819D01*
X143571428Y-79644819D02*
X143666666Y-79597200D01*
X143666666Y-79597200D02*
X143714285Y-79549580D01*
X143714285Y-79549580D02*
X143761904Y-79454342D01*
X143761904Y-79454342D02*
X143761904Y-79216247D01*
X143761904Y-79216247D02*
X143714285Y-79121009D01*
X143714285Y-79121009D02*
X143666666Y-79073390D01*
X143666666Y-79073390D02*
X143571428Y-79025771D01*
X143571428Y-79025771D02*
X143380952Y-79025771D01*
X143380952Y-79025771D02*
X143285714Y-79073390D01*
X143285714Y-79073390D02*
X143238095Y-79121009D01*
X143238095Y-79121009D02*
X143190476Y-79216247D01*
X172353333Y-84839580D02*
X172305714Y-84887200D01*
X172305714Y-84887200D02*
X172162857Y-84934819D01*
X172162857Y-84934819D02*
X172067619Y-84934819D01*
X172067619Y-84934819D02*
X171924762Y-84887200D01*
X171924762Y-84887200D02*
X171829524Y-84791961D01*
X171829524Y-84791961D02*
X171781905Y-84696723D01*
X171781905Y-84696723D02*
X171734286Y-84506247D01*
X171734286Y-84506247D02*
X171734286Y-84363390D01*
X171734286Y-84363390D02*
X171781905Y-84172914D01*
X171781905Y-84172914D02*
X171829524Y-84077676D01*
X171829524Y-84077676D02*
X171924762Y-83982438D01*
X171924762Y-83982438D02*
X172067619Y-83934819D01*
X172067619Y-83934819D02*
X172162857Y-83934819D01*
X172162857Y-83934819D02*
X172305714Y-83982438D01*
X172305714Y-83982438D02*
X172353333Y-84030057D01*
X173258095Y-83934819D02*
X172781905Y-83934819D01*
X172781905Y-83934819D02*
X172734286Y-84411009D01*
X172734286Y-84411009D02*
X172781905Y-84363390D01*
X172781905Y-84363390D02*
X172877143Y-84315771D01*
X172877143Y-84315771D02*
X173115238Y-84315771D01*
X173115238Y-84315771D02*
X173210476Y-84363390D01*
X173210476Y-84363390D02*
X173258095Y-84411009D01*
X173258095Y-84411009D02*
X173305714Y-84506247D01*
X173305714Y-84506247D02*
X173305714Y-84744342D01*
X173305714Y-84744342D02*
X173258095Y-84839580D01*
X173258095Y-84839580D02*
X173210476Y-84887200D01*
X173210476Y-84887200D02*
X173115238Y-84934819D01*
X173115238Y-84934819D02*
X172877143Y-84934819D01*
X172877143Y-84934819D02*
X172781905Y-84887200D01*
X172781905Y-84887200D02*
X172734286Y-84839580D01*
X136377142Y-75699580D02*
X136329523Y-75747200D01*
X136329523Y-75747200D02*
X136186666Y-75794819D01*
X136186666Y-75794819D02*
X136091428Y-75794819D01*
X136091428Y-75794819D02*
X135948571Y-75747200D01*
X135948571Y-75747200D02*
X135853333Y-75651961D01*
X135853333Y-75651961D02*
X135805714Y-75556723D01*
X135805714Y-75556723D02*
X135758095Y-75366247D01*
X135758095Y-75366247D02*
X135758095Y-75223390D01*
X135758095Y-75223390D02*
X135805714Y-75032914D01*
X135805714Y-75032914D02*
X135853333Y-74937676D01*
X135853333Y-74937676D02*
X135948571Y-74842438D01*
X135948571Y-74842438D02*
X136091428Y-74794819D01*
X136091428Y-74794819D02*
X136186666Y-74794819D01*
X136186666Y-74794819D02*
X136329523Y-74842438D01*
X136329523Y-74842438D02*
X136377142Y-74890057D01*
X137329523Y-75794819D02*
X136758095Y-75794819D01*
X137043809Y-75794819D02*
X137043809Y-74794819D01*
X137043809Y-74794819D02*
X136948571Y-74937676D01*
X136948571Y-74937676D02*
X136853333Y-75032914D01*
X136853333Y-75032914D02*
X136758095Y-75080533D01*
X137948571Y-74794819D02*
X138043809Y-74794819D01*
X138043809Y-74794819D02*
X138139047Y-74842438D01*
X138139047Y-74842438D02*
X138186666Y-74890057D01*
X138186666Y-74890057D02*
X138234285Y-74985295D01*
X138234285Y-74985295D02*
X138281904Y-75175771D01*
X138281904Y-75175771D02*
X138281904Y-75413866D01*
X138281904Y-75413866D02*
X138234285Y-75604342D01*
X138234285Y-75604342D02*
X138186666Y-75699580D01*
X138186666Y-75699580D02*
X138139047Y-75747200D01*
X138139047Y-75747200D02*
X138043809Y-75794819D01*
X138043809Y-75794819D02*
X137948571Y-75794819D01*
X137948571Y-75794819D02*
X137853333Y-75747200D01*
X137853333Y-75747200D02*
X137805714Y-75699580D01*
X137805714Y-75699580D02*
X137758095Y-75604342D01*
X137758095Y-75604342D02*
X137710476Y-75413866D01*
X137710476Y-75413866D02*
X137710476Y-75175771D01*
X137710476Y-75175771D02*
X137758095Y-74985295D01*
X137758095Y-74985295D02*
X137805714Y-74890057D01*
X137805714Y-74890057D02*
X137853333Y-74842438D01*
X137853333Y-74842438D02*
X137948571Y-74794819D01*
X153333333Y-97399104D02*
X153809523Y-97399104D01*
X153238095Y-97684819D02*
X153571428Y-96684819D01*
X153571428Y-96684819D02*
X153904761Y-97684819D01*
X154238095Y-97161009D02*
X154571428Y-97161009D01*
X154714285Y-97684819D02*
X154238095Y-97684819D01*
X154238095Y-97684819D02*
X154238095Y-96684819D01*
X154238095Y-96684819D02*
X154714285Y-96684819D01*
X155666666Y-97684819D02*
X155095238Y-97684819D01*
X155380952Y-97684819D02*
X155380952Y-96684819D01*
X155380952Y-96684819D02*
X155285714Y-96827676D01*
X155285714Y-96827676D02*
X155190476Y-96922914D01*
X155190476Y-96922914D02*
X155095238Y-96970533D01*
%TO.C,R5*%
D11*
X169241359Y-99620000D02*
X169548641Y-99620000D01*
X169241359Y-100380000D02*
X169548641Y-100380000D01*
%TO.C,R7*%
X182766359Y-98620000D02*
X183073641Y-98620000D01*
X182766359Y-99380000D02*
X183073641Y-99380000D01*
%TO.C,SW1*%
X116015000Y-66515000D02*
X129985000Y-66515000D01*
X116015000Y-80485000D02*
X116015000Y-66515000D01*
X129985000Y-66515000D02*
X129985000Y-80485000D01*
X129985000Y-80485000D02*
X116015000Y-80485000D01*
%TO.C,C15*%
X142607836Y-79640000D02*
X142392164Y-79640000D01*
X142607836Y-80360000D02*
X142392164Y-80360000D01*
%TO.C,J1*%
X153720000Y-65495000D02*
X153720000Y-67195000D01*
X163060000Y-65495000D02*
X163060000Y-67195000D01*
%TO.C,C13*%
X136912164Y-82050000D02*
X137127836Y-82050000D01*
X136912164Y-82770000D02*
X137127836Y-82770000D01*
%TO.C,C23*%
X163512836Y-99660000D02*
X163297164Y-99660000D01*
X163512836Y-100380000D02*
X163297164Y-100380000D01*
%TO.C,R3*%
X169241359Y-95640000D02*
X169548641Y-95640000D01*
X169241359Y-96400000D02*
X169548641Y-96400000D01*
%TO.C,U2*%
X161952500Y-84140000D02*
X162427500Y-84140000D01*
X161952500Y-84615000D02*
X161952500Y-84140000D01*
X161952500Y-88360000D02*
X161952500Y-87885000D01*
X162427500Y-88360000D02*
X161952500Y-88360000D01*
X165697500Y-84140000D02*
X166172500Y-84140000D01*
X166172500Y-84140000D02*
X166172500Y-84615000D01*
X166172500Y-87885000D02*
X166172500Y-88360000D01*
X166172500Y-88360000D02*
X165697500Y-88360000D01*
X161452500Y-85000000D02*
X161122500Y-85240000D01*
X161122500Y-84760000D01*
X161452500Y-85000000D01*
G36*
X161452500Y-85000000D02*
G01*
X161122500Y-85240000D01*
X161122500Y-84760000D01*
X161452500Y-85000000D01*
G37*
%TO.C,U3*%
X148765000Y-91390000D02*
X150235000Y-91390000D01*
X148765000Y-91415000D02*
X148765000Y-91390000D01*
X148765000Y-93610000D02*
X148765000Y-93585000D01*
X150235000Y-91390000D02*
X150235000Y-91415000D01*
X150235000Y-93585000D02*
X150235000Y-93610000D01*
X150235000Y-93610000D02*
X148765000Y-93610000D01*
X148320000Y-91410000D02*
X148180000Y-91220000D01*
X148460000Y-91220000D01*
X148320000Y-91410000D01*
G36*
X148320000Y-91410000D02*
G01*
X148180000Y-91220000D01*
X148460000Y-91220000D01*
X148320000Y-91410000D01*
G37*
%TO.C,C3*%
X172412164Y-81340000D02*
X172627836Y-81340000D01*
X172412164Y-82060000D02*
X172627836Y-82060000D01*
%TO.C,C7*%
X172412164Y-89220000D02*
X172627836Y-89220000D01*
X172412164Y-89940000D02*
X172627836Y-89940000D01*
%TO.C,C2*%
X172412164Y-79370000D02*
X172627836Y-79370000D01*
X172412164Y-80090000D02*
X172627836Y-80090000D01*
%TO.C,C14*%
X136912164Y-84020000D02*
X137127836Y-84020000D01*
X136912164Y-84740000D02*
X137127836Y-84740000D01*
%TO.C,C11*%
X136912164Y-78110000D02*
X137127836Y-78110000D01*
X136912164Y-78830000D02*
X137127836Y-78830000D01*
%TO.C,SW2*%
X115825000Y-86555000D02*
X129795000Y-86555000D01*
X115825000Y-100525000D02*
X115825000Y-86555000D01*
X129795000Y-86555000D02*
X129795000Y-100525000D01*
X129795000Y-100525000D02*
X115825000Y-100525000D01*
%TO.C,C20*%
X142392164Y-86110000D02*
X142607836Y-86110000D01*
X142392164Y-86830000D02*
X142607836Y-86830000D01*
%TO.C,U1*%
X148952500Y-78090000D02*
X149602500Y-78090000D01*
X148952500Y-78740000D02*
X148952500Y-78090000D01*
X148952500Y-85310000D02*
X148952500Y-84660000D01*
X149602500Y-85310000D02*
X148952500Y-85310000D01*
X155522500Y-78090000D02*
X156172500Y-78090000D01*
X156172500Y-78090000D02*
X156172500Y-78740000D01*
X156172500Y-84660000D02*
X156172500Y-85310000D01*
X156172500Y-85310000D02*
X155522500Y-85310000D01*
X148422500Y-79100000D02*
X148092500Y-79340000D01*
X148092500Y-78860000D01*
X148422500Y-79100000D01*
G36*
X148422500Y-79100000D02*
G01*
X148092500Y-79340000D01*
X148092500Y-78860000D01*
X148422500Y-79100000D01*
G37*
%TO.C,Y2*%
X138040000Y-92140000D02*
X138040000Y-95560000D01*
X138040000Y-95560000D02*
X142160000Y-95560000D01*
%TO.C,R4*%
X169241359Y-97630000D02*
X169548641Y-97630000D01*
X169241359Y-98390000D02*
X169548641Y-98390000D01*
%TO.C,C17*%
X142607836Y-75700000D02*
X142392164Y-75700000D01*
X142607836Y-76420000D02*
X142392164Y-76420000D01*
%TO.C,C21*%
X155392164Y-90640000D02*
X155607836Y-90640000D01*
X155392164Y-91360000D02*
X155607836Y-91360000D01*
%TO.C,C18*%
X142607836Y-73730000D02*
X142392164Y-73730000D01*
X142607836Y-74450000D02*
X142392164Y-74450000D01*
%TO.C,C9*%
X178372164Y-88610000D02*
X178587836Y-88610000D01*
X178372164Y-89330000D02*
X178587836Y-89330000D01*
%TO.C,C19*%
X142392164Y-84140000D02*
X142607836Y-84140000D01*
X142392164Y-84860000D02*
X142607836Y-84860000D01*
%TO.C,C6*%
X172412164Y-87250000D02*
X172627836Y-87250000D01*
X172412164Y-87970000D02*
X172627836Y-87970000D01*
%TO.C,C4*%
X172412164Y-83310000D02*
X172627836Y-83310000D01*
X172412164Y-84030000D02*
X172627836Y-84030000D01*
%TO.C,C24*%
X163512836Y-97690000D02*
X163297164Y-97690000D01*
X163512836Y-98410000D02*
X163297164Y-98410000D01*
%TO.C,U4*%
X139452500Y-98890000D02*
X141272500Y-98890000D01*
X139452500Y-98940000D02*
X139452500Y-98890000D01*
X139452500Y-102010000D02*
X139452500Y-101960000D01*
X141272500Y-98890000D02*
X141272500Y-98940000D01*
X141272500Y-100060000D02*
X141272500Y-100840000D01*
X141272500Y-101960000D02*
X141272500Y-102010000D01*
X141272500Y-102010000D02*
X139452500Y-102010000D01*
X138912500Y-98940000D02*
X138672500Y-98610000D01*
X139152500Y-98610000D01*
X138912500Y-98940000D01*
G36*
X138912500Y-98940000D02*
G01*
X138672500Y-98610000D01*
X139152500Y-98610000D01*
X138912500Y-98940000D01*
G37*
%TO.C,C25*%
X177012164Y-96580000D02*
X177227836Y-96580000D01*
X177012164Y-97300000D02*
X177227836Y-97300000D01*
%TO.C,C1*%
X172412164Y-77400000D02*
X172627836Y-77400000D01*
X172412164Y-78120000D02*
X172627836Y-78120000D01*
%TO.C,FL1*%
X162389487Y-76090000D02*
X162390000Y-76090000D01*
X162390000Y-78410000D02*
X162065000Y-78410000D01*
X163210000Y-76090000D02*
X163535000Y-76090000D01*
X163535000Y-78410000D02*
X163210000Y-78410000D01*
X162100000Y-76080000D02*
X161860000Y-75750000D01*
X162340000Y-75750000D01*
X162100000Y-76080000D01*
G36*
X162100000Y-76080000D02*
G01*
X161860000Y-75750000D01*
X162340000Y-75750000D01*
X162100000Y-76080000D01*
G37*
%TO.C,U5*%
X141440000Y-64240000D02*
X146960000Y-64240000D01*
X141440000Y-64510000D02*
X141440000Y-64240000D01*
X141440000Y-69760000D02*
X141440000Y-69490000D01*
X146960000Y-64240000D02*
X146960000Y-64510000D01*
X146960000Y-69490000D02*
X146960000Y-69760000D01*
X146960000Y-69760000D02*
X141440000Y-69760000D01*
X140610000Y-64500000D02*
X140270000Y-64030000D01*
X140950000Y-64030000D01*
X140610000Y-64500000D01*
G36*
X140610000Y-64500000D02*
G01*
X140270000Y-64030000D01*
X140950000Y-64030000D01*
X140610000Y-64500000D01*
G37*
%TO.C,Y1*%
X173840000Y-68140000D02*
X173840000Y-71560000D01*
X173840000Y-71560000D02*
X177960000Y-71560000D01*
%TO.C,R1*%
X179856359Y-98620000D02*
X180163641Y-98620000D01*
X179856359Y-99380000D02*
X180163641Y-99380000D01*
%TO.C,C22*%
X163487164Y-95650000D02*
X163702836Y-95650000D01*
X163487164Y-96370000D02*
X163702836Y-96370000D01*
%TO.C,R2*%
X179856359Y-100610000D02*
X180163641Y-100610000D01*
X179856359Y-101370000D02*
X180163641Y-101370000D01*
%TO.C,C12*%
X136912164Y-80080000D02*
X137127836Y-80080000D01*
X136912164Y-80800000D02*
X137127836Y-80800000D01*
%TO.C,C8*%
X178372164Y-86640000D02*
X178587836Y-86640000D01*
X178372164Y-87360000D02*
X178587836Y-87360000D01*
%TO.C,R6*%
X182766359Y-96630000D02*
X183073641Y-96630000D01*
X182766359Y-97390000D02*
X183073641Y-97390000D01*
%TO.C,C16*%
X142607836Y-77670000D02*
X142392164Y-77670000D01*
X142607836Y-78390000D02*
X142392164Y-78390000D01*
%TO.C,C5*%
X172412164Y-85280000D02*
X172627836Y-85280000D01*
X172412164Y-86000000D02*
X172627836Y-86000000D01*
%TO.C,C10*%
X136912164Y-76140000D02*
X137127836Y-76140000D01*
X136912164Y-76860000D02*
X137127836Y-76860000D01*
%TO.C,AE1*%
X153170000Y-101210000D02*
X153170000Y-101330000D01*
X153170000Y-101330000D02*
X155830000Y-101330000D01*
X154500000Y-98670000D02*
X155830000Y-98670000D01*
X155830000Y-98670000D02*
X155830000Y-100000000D01*
X155830000Y-101210000D02*
X155830000Y-101330000D01*
%TD*%
M02*
