M48
; DRILL file KiCad 10.0.5 date 2026-08-13T09:13:08
; FORMAT={-:-/ absolute / metric / decimal}
; #@! TF.CreationDate,2026-08-13T09:13:08+05:30
; #@! TF.GenerationSoftware,Kicad,Pcbnew,10.0.5
; #@! TF.FileFunction,Plated,1,4,PTH
FMAT,2
METRIC
; #@! TA.AperFunction,Plated,PTH,ViaDrill
T1C0.300
; #@! TA.AperFunction,Plated,PTH,ComponentDrill
T2C0.600
; #@! TA.AperFunction,Plated,PTH,ComponentDrill
T3C1.000
; #@! TA.AperFunction,Plated,PTH,ComponentDrill
T4C1.500
%
G90
G05
T1
X123.0Y-68.5
X123.0Y-88.5
X135.5Y-67.82
X135.5Y-80.5
X137.5Y-92.5
X137.5Y-100.5
X138.0Y-69.02
X139.0Y-69.0
X140.5Y-74.0
X143.0Y-73.0
X143.0Y-94.5
X143.0Y-99.5
X144.0Y-76.0
X144.0Y-78.0
X144.0Y-86.5
X144.5Y-80.0
X147.0Y-79.0
X147.0Y-82.5
X147.0Y-91.5
X147.5Y-92.5
X148.0Y-64.0
X148.0Y-76.5
X150.5Y-100.55
X151.434Y-93.934
X151.5Y-81.0
X151.5Y-91.5
X152.0Y-94.5
X152.0Y-96.0
X152.5Y-93.5
X153.0Y-66.12
X153.0Y-75.0
X153.0Y-86.5
X153.5Y-84.0
X153.664Y-94.164
X154.0Y-90.5
X154.5Y-75.5
X155.0Y-63.0
X155.0Y-70.5
X155.0Y-84.0
X155.376Y-87.86
X155.5Y-66.5
X155.5Y-74.0
X156.0Y-71.1
X156.0Y-87.0
X157.743Y-73.243
X158.0Y-71.5
X158.5Y-73.5
X158.5Y-83.0
X158.5Y-90.5
X158.901Y-86.599
X159.0Y-77.5
X159.5Y-94.0
X159.674Y-85.674
X160.0Y-71.5
X160.0Y-73.5
X160.0Y-77.0
X160.163Y-87.86
X160.5Y-92.5
X160.5Y-104.0
X160.6Y-82.595
X161.0Y-75.5
X161.0Y-79.6
X161.0Y-85.4
X161.0Y-87.0
X161.174Y-84.174
X161.401Y-89.099
X161.5Y-63.0
X162.0Y-70.5
X162.0Y-100.0
X162.5Y-90.0
X162.9Y-92.0
X163.5Y-83.0
X163.5Y-86.0
X164.384Y-77.4
X164.5Y-69.0
X164.5Y-71.1
X164.5Y-90.0
X165.0Y-73.5
X165.0Y-98.0
X165.0Y-99.0
X165.099Y-67.901
X165.174Y-93.326
X166.0Y-71.1
X166.0Y-78.0
X166.0Y-79.4
X166.0Y-95.0
X166.4Y-82.7
X166.4Y-83.5
X166.57Y-96.72
X166.75Y-75.25
X167.5Y-79.4
X167.5Y-102.5
X167.776Y-100.9
X168.6Y-89.0
X169.0Y-71.1
X169.5Y-84.0
X169.736Y-85.843
X169.966Y-81.034
X170.013Y-87.094
X170.5Y-91.0
X171.0Y-78.0
X171.0Y-80.0
X171.0Y-88.5
X171.0Y-100.0
X171.5Y-74.0
X171.5Y-91.0
X171.5Y-95.42
X172.066Y-74.566
X172.5Y-98.6
X173.5Y-88.5
X173.5Y-95.0
X174.5Y-67.0
X175.0Y-79.5
X175.5Y-94.0
X175.5Y-96.5
X177.0Y-91.0
X177.0Y-105.0
X177.5Y-98.0
X178.0Y-101.5
X178.5Y-92.0
X178.851Y-93.5
X179.0Y-70.5
X179.5Y-95.9
X180.0Y-87.0
X180.0Y-98.0
X183.0Y-94.5
X184.5Y-96.5
X185.5Y-99.0
T3
X154.5Y-100.0
T4
X119.0Y-91.0
X119.19Y-70.96
X125.35Y-88.46
X125.54Y-68.42
T2
G00X154.07Y-64.72
M15
G01X154.07Y-63.92
M16
G05
G00X154.07Y-69.05
M15
G01X154.07Y-67.95
M16
G05
G00X162.71Y-64.72
M15
G01X162.71Y-63.92
M16
G05
G00X162.71Y-69.05
M15
G01X162.71Y-67.95
M16
G05
M30
